<svg width="60" height="23" viewBox="0 0 60 23" fill="none" xmlns="http://www.w3.org/2000/svg">
<g clip-path="url(#clip0_29357_45260)">
<rect width="60" height="23" rx="2" fill="white"/>
<path d="M48.0156 23.0234V1.13991" stroke="black"/>
<path d="M24.8094 6.63806C24.8022 6.65309 24.7945 6.66713 24.7898 6.68182C24.7854 6.69423 24.7764 6.70338 24.7577 6.69946C24.6831 6.68444 24.6917 6.71775 24.6989 6.74714C24.7185 6.83041 24.696 6.91075 24.6673 6.99141C24.6611 7.00904 24.6525 7.02113 24.6238 7.01851C24.5769 7.01427 24.5779 7.0306 24.5865 7.05378C24.5989 7.08677 24.6104 7.12008 24.6185 7.15371C24.6247 7.18049 24.6219 7.20661 24.5836 7.22458C24.5611 7.23535 24.5583 7.25233 24.5563 7.26997C24.5535 7.29838 24.5688 7.32483 24.5731 7.35912C24.5157 7.33887 24.498 7.30328 24.4703 7.27356C24.4588 7.26115 24.4516 7.23797 24.4267 7.2445C24.4023 7.25103 24.4167 7.2716 24.4229 7.28597C24.4559 7.36337 24.4884 7.44109 24.5224 7.51848C24.5377 7.55277 24.5372 7.58347 24.487 7.60405C24.4526 7.61809 24.4655 7.63866 24.4698 7.65825C24.5104 7.83819 24.5516 8.0178 24.543 8.20068C24.542 8.22321 24.5583 8.25718 24.5281 8.26567C24.4875 8.27742 24.4535 8.24966 24.4272 8.22876C24.2718 8.10532 24.1498 7.96719 24.058 7.81729C23.8475 7.47244 23.7782 7.11256 23.8083 6.74093C23.8227 6.56524 23.881 6.39314 23.8992 6.2181C23.9035 6.17467 23.9111 6.13156 23.9054 6.0878C23.9035 6.07278 23.903 6.05351 23.8757 6.05057C23.8528 6.04829 23.8327 6.05874 23.8179 6.07147C23.792 6.09368 23.7935 6.12079 23.7858 6.14658C23.7782 6.17206 23.7767 6.20765 23.7189 6.17206C23.705 6.16357 23.6887 6.16226 23.6763 6.17173C23.64 6.19851 23.5998 6.19328 23.5496 6.17304C23.5496 6.23737 23.55 6.29386 23.5491 6.35036C23.5491 6.36048 23.5572 6.37551 23.5376 6.3791C23.5122 6.38367 23.5127 6.36571 23.506 6.35526C23.5017 6.34807 23.5008 6.33991 23.4965 6.33273C23.4883 6.31901 23.4931 6.29387 23.4678 6.29517C23.4357 6.2968 23.4352 6.3226 23.4343 6.33991C23.4324 6.38824 23.4429 6.43592 23.4572 6.48327C23.4635 6.50417 23.4654 6.52573 23.4697 6.54989C23.4089 6.54467 23.3917 6.51626 23.375 6.48719C23.3597 6.46074 23.3573 6.42874 23.308 6.41371C23.2769 6.47315 23.298 6.53258 23.2898 6.59039C23.2875 6.609 23.3028 6.64002 23.2717 6.64394C23.2348 6.64819 23.2315 6.61651 23.2195 6.59692C23.2071 6.57634 23.2061 6.54009 23.1679 6.54434C23.1363 6.54793 23.1435 6.58288 23.1425 6.60508C23.1406 6.6557 23.1688 6.7024 23.1861 6.75073C23.1947 6.77457 23.2023 6.79873 23.2128 6.83009C23.1865 6.82323 23.1684 6.81964 23.1516 6.81441C23.0933 6.79645 23.0751 6.80265 23.0871 6.84576C23.1038 6.9065 23.1301 6.96626 23.1559 7.0257C23.166 7.04921 23.1717 7.06489 23.1239 7.06489C23.0775 7.06489 23.0765 7.0884 23.0784 7.11093C23.0818 7.14881 23.11 7.18212 23.1253 7.21772C23.1507 7.27617 23.1612 7.333 23.1143 7.38884C23.1004 7.40549 23.0985 7.42476 23.1014 7.44337C23.1047 7.46558 23.0942 7.47995 23.0607 7.48354C23.0201 7.48811 23.0263 7.50705 23.0316 7.526C23.0402 7.55735 23.056 7.58804 23.0531 7.62103C23.0234 7.62299 23.0144 7.60894 23.0057 7.59719C22.8733 7.41856 22.7236 7.2458 22.6092 7.06097C22.4045 6.73048 22.4629 6.41469 22.7264 6.11099C22.8053 6.01988 22.8967 5.93464 22.9876 5.84941C23.0536 5.78736 23.1143 5.72401 23.1277 5.64531C23.133 5.6133 23.1358 5.58163 23.1119 5.55191C23.0851 5.55713 23.0794 5.57248 23.0698 5.58359C23.0454 5.61167 23.0201 5.62604 22.9761 5.59991C22.9431 5.58032 22.9302 5.59436 22.9235 5.61657C22.9182 5.63322 22.9087 5.64955 22.9067 5.66653C22.9034 5.69919 22.8804 5.71486 22.8326 5.71127C22.7982 5.70866 22.7853 5.72172 22.7743 5.74132C22.746 5.79357 22.7154 5.84516 22.6815 5.9046C22.658 5.87129 22.6389 5.84418 22.6174 5.81349C22.5452 5.87227 22.5495 5.95032 22.4882 6.01269C22.4648 5.99277 22.4442 5.97514 22.4189 5.95358C22.3955 5.99604 22.3706 6.03425 22.3534 6.07376C22.3404 6.1038 22.3184 6.11132 22.2792 6.09923C22.2434 6.08813 22.2314 6.09891 22.2252 6.12209C22.206 6.19328 22.184 6.26382 22.162 6.33795C22.1209 6.32032 22.1161 6.28799 22.0793 6.27068C22.042 6.30334 22.0415 6.34154 22.0439 6.37714C22.0501 6.46237 21.9927 6.53356 21.9444 6.60704C21.9401 6.61357 21.9291 6.62435 21.9239 6.6237C21.8449 6.61357 21.8607 6.65635 21.8574 6.68248C21.8426 6.7922 21.8153 6.9016 21.8402 7.01231C21.8473 7.04529 21.8368 7.07664 21.81 7.10603C21.7847 7.13379 21.7655 7.12889 21.7531 7.10244C21.7302 7.05378 21.7091 7.00447 21.6895 6.95516C21.6139 6.76249 21.5628 6.56655 21.5618 6.36669C21.5604 6.05123 21.7244 5.78312 22.064 5.56432C22.3959 5.35042 22.7642 5.17897 23.2023 5.08329C23.3147 5.05879 23.4314 5.04279 23.5395 5.00981C23.5558 5.00491 23.5816 5.00197 23.5797 4.98858C23.5778 4.97487 23.5539 4.96442 23.5338 4.96507C23.4003 4.96997 23.2611 4.94188 23.1363 5.00067C23.0756 5.0294 23.0091 5.03953 22.9412 5.0023C22.9087 4.98434 22.7374 5.00981 22.7063 5.033C22.6853 5.04867 22.6647 5.065 22.6456 5.08002C22.6183 5.07512 22.6269 5.06141 22.6207 5.05259C22.6116 5.0392 22.6207 5.01732 22.5963 5.0121C22.5672 5.00589 22.5442 5.02255 22.526 5.03528C22.504 5.05063 22.4868 5.06924 22.4686 5.08721C22.4428 5.11235 22.4151 5.12868 22.3677 5.10876C22.3256 5.09112 22.3055 5.11529 22.2854 5.13325C22.2625 5.15415 22.241 5.16297 22.2104 5.13913C22.1874 5.12084 22.1716 5.12443 22.1582 5.14729C22.1381 5.18191 22.1118 5.21457 22.0917 5.24918C22.0783 5.27204 22.0621 5.2789 22.032 5.26322C21.9985 5.24592 21.9746 5.25277 21.9549 5.27629C21.9368 5.29751 21.9119 5.31613 21.8995 5.34029C21.8784 5.38079 21.8402 5.41279 21.7914 5.4399C21.7474 5.46439 21.7043 5.48986 21.6732 5.52317C21.6665 5.53068 21.6536 5.54113 21.6441 5.54081C21.5623 5.53721 21.5656 5.58032 21.5537 5.61494C21.5417 5.64955 21.5293 5.68449 21.5188 5.71944C21.5087 5.75373 21.4977 5.78508 21.4394 5.79879C21.404 5.80696 21.4054 5.83373 21.4059 5.85561C21.4073 5.89121 21.3954 5.93236 21.3427 5.93236C21.2844 5.93236 21.2834 5.88501 21.2858 5.85431C21.3231 5.40822 21.59 5.04737 22.142 4.79558C22.5217 4.6225 22.9474 4.54054 23.3984 4.51082C23.5591 4.50037 23.7193 4.48665 23.8767 4.45922C23.9308 4.44975 23.9795 4.43571 24.0125 4.39358C23.7978 4.38378 23.5926 4.33186 23.3807 4.37823C23.3544 4.38411 23.3257 4.39325 23.3013 4.38248C23.2253 4.34917 23.1645 4.37333 23.1024 4.40207C23.0842 4.41056 23.0588 4.42885 23.0397 4.40436C23.0144 4.3717 22.9818 4.37627 22.9445 4.39064C22.812 4.44191 22.6604 4.46314 22.5184 4.48404C22.3204 4.51278 22.1922 4.61107 22.0224 4.6643C22.0009 4.67116 21.9793 4.69467 21.9583 4.68063C21.9329 4.66398 21.9683 4.64732 21.9813 4.63393C22.1912 4.41938 22.4605 4.24565 22.768 4.09706C23.1148 3.92953 23.5003 3.86944 23.9193 3.89622C24.123 3.90928 24.3272 3.92365 24.531 3.93541C24.5688 3.9377 24.6281 3.94945 24.6396 3.92104C24.6482 3.90047 24.5898 3.88545 24.554 3.87761C24.4554 3.85573 24.3789 3.80446 24.2809 3.78356C24.1833 3.76266 24.0876 3.73947 23.9977 3.70583C23.9312 3.68102 23.8404 3.69832 23.7858 3.65065C23.783 3.64803 23.7686 3.65032 23.7605 3.6526C23.6055 3.69604 23.4395 3.70747 23.2779 3.73131C23.2329 3.73784 23.1947 3.75482 23.1444 3.76984C23.1516 3.71955 23.1928 3.68918 23.2382 3.66305C23.3946 3.57423 23.5835 3.53341 23.7767 3.50304C24.1546 3.44426 24.5033 3.49585 24.8266 3.63791C24.9433 3.68918 25.0624 3.73751 25.1958 3.76756C25.2365 3.7767 25.247 3.77409 25.2475 3.74437C25.2503 3.62452 25.268 3.50565 25.2915 3.38678C25.2977 3.35543 25.313 3.34171 25.3584 3.34465C25.4101 3.34792 25.4259 3.33388 25.4302 3.2973C25.4397 3.20946 25.4206 3.11965 25.4637 3.03376C25.4699 3.02103 25.4656 3.00209 25.4909 3.00013C25.5206 2.99817 25.522 3.01939 25.5311 3.03246C25.5698 3.08765 25.5541 3.14871 25.5679 3.20652C25.5746 3.23395 25.5727 3.26236 25.577 3.29012C25.5808 3.31657 25.5861 3.34139 25.6291 3.35543C25.6607 3.36588 25.665 3.39005 25.6655 3.41225C25.6665 3.44034 25.6665 3.46809 25.6674 3.49618C25.6693 3.53537 25.6779 3.57162 25.7181 3.60427C25.7607 3.63922 25.764 3.68395 25.7616 3.72837C25.7578 3.80413 25.765 3.81001 25.8664 3.77996C26.006 3.73849 26.1395 3.68755 26.2686 3.63236C26.5341 3.51937 26.8186 3.47234 27.1295 3.5099C27.3295 3.53406 27.5102 3.59121 27.6848 3.65946C27.737 3.67971 27.7757 3.71106 27.8001 3.74927C27.8207 3.78094 27.8058 3.79629 27.7551 3.7927C27.7331 3.79107 27.7116 3.78421 27.6901 3.77931C27.5394 3.746 27.3816 3.70975 27.2295 3.74306C27.1123 3.76886 27.0004 3.78388 26.8784 3.78617C26.7794 3.78813 26.7039 3.84005 26.6096 3.87173C26.7172 3.92823 26.8344 3.92921 26.9521 3.92529C27.0975 3.92006 27.2424 3.90863 27.3878 3.90635C27.7126 3.90112 28.0024 3.97068 28.2497 4.11371C28.4439 4.22605 28.6323 4.34362 28.8098 4.46869C28.8858 4.52257 28.9446 4.58528 28.9929 4.65908C28.9446 4.6532 28.9107 4.63589 28.8758 4.62185C28.7657 4.57776 28.6514 4.5438 28.5266 4.51964C28.4147 4.49808 28.3066 4.46118 28.2047 4.42003C28.1693 4.40566 28.132 4.39391 28.0918 4.3877C28.0349 4.37921 27.9794 4.37464 27.9479 4.42003C27.935 4.43865 27.9163 4.43799 27.8934 4.42591C27.868 4.41252 27.8398 4.40207 27.8144 4.38934C27.781 4.37235 27.7513 4.35962 27.7236 4.39554C27.7059 4.4184 27.6781 4.4037 27.6585 4.39554C27.5901 4.36713 27.5241 4.34264 27.4457 4.38378C27.4299 4.39195 27.3969 4.38607 27.372 4.38509C27.2955 4.38215 27.2218 4.38705 27.1573 4.41938C27.1391 4.42852 27.1204 4.43114 27.0994 4.42558C27.0932 4.42395 27.0865 4.42232 27.0798 4.42167C27.042 4.41873 26.9621 4.45693 26.9688 4.47849C26.9765 4.50396 27.0186 4.50265 27.0463 4.50494C27.1798 4.51539 27.3137 4.52257 27.4471 4.53107C27.7169 4.54805 27.9871 4.56209 28.2487 4.61434C28.8992 4.74366 29.3665 5.01242 29.5984 5.45427C29.6874 5.62408 29.7075 5.8014 29.6817 5.98885C29.6353 5.95946 29.6166 5.92615 29.5917 5.89643C29.4927 5.77756 29.3957 5.65837 29.2981 5.53885C29.2684 5.5026 29.2369 5.46863 29.168 5.46602C29.1422 5.46504 29.1426 5.45198 29.1388 5.4399C29.1053 5.33082 28.9929 5.26453 28.8686 5.20379C28.8628 5.20118 28.8566 5.19922 28.8504 5.19726C28.8078 5.18452 28.7533 5.19465 28.7184 5.16525C28.6897 5.14142 28.6596 5.11856 28.6294 5.09472C28.5797 5.1437 28.5797 5.1437 28.5242 5.09798C28.5156 5.0908 28.5065 5.08361 28.4979 5.07643C28.4386 5.02712 28.4372 5.02646 28.3802 5.0797C28.3635 5.09504 28.353 5.09864 28.3348 5.08329C28.3205 5.0712 28.3052 5.05977 28.2918 5.04704C28.2645 5.02157 28.2454 5.00034 28.1861 5.02549C28.1425 5.0441 28.077 5.02287 28.0239 5.04769C28.0053 5.05651 27.9747 5.02516 27.9474 5.01471C27.9364 5.01046 27.9268 4.99903 27.9125 5.00491C27.8996 5.01014 27.9015 5.02124 27.902 5.03006C27.9044 5.0748 27.9417 5.10549 27.9924 5.12868C28.1832 5.2162 28.3736 5.30372 28.5663 5.38928C28.8184 5.50129 29.0479 5.62832 29.1991 5.81153C29.3693 6.01759 29.4162 6.24096 29.4086 6.4725C29.4009 6.70795 29.3186 6.93328 29.2129 7.15567C29.1972 7.18833 29.1833 7.18245 29.1565 7.16351C29.1015 7.12497 29.1034 7.07991 29.1206 7.03288C29.1278 7.01329 29.1388 6.99435 29.1512 6.97606C29.1694 6.94961 29.1608 6.93034 29.1216 6.91989C29.079 6.90846 29.0738 6.88658 29.0771 6.85948C29.0809 6.82845 29.0809 6.79743 29.0843 6.7664C29.0876 6.73701 29.0919 6.70991 29.0264 6.71742C29.0011 6.72036 28.9996 6.70501 28.9996 6.69195C28.9996 6.6459 28.98 6.60378 28.9551 6.56132C28.9279 6.5143 28.9547 6.46303 28.9394 6.41404C28.9303 6.38563 28.9284 6.35591 28.9236 6.32717C28.9145 6.32717 28.9092 6.32619 28.9054 6.32717C28.8121 6.35787 28.8121 6.3582 28.8031 6.28668C28.8002 6.26513 28.7944 6.24325 28.7944 6.22169C28.7949 6.17728 28.783 6.1456 28.7002 6.16291C28.6677 6.16977 28.6653 6.15116 28.66 6.13548C28.6409 6.07735 28.6199 6.01922 28.5969 5.95293C28.5634 5.98624 28.5376 6.01204 28.5046 6.04502C28.4687 5.97089 28.4367 5.90427 28.4027 5.83373C28.3865 5.84353 28.3759 5.84876 28.3669 5.85496C28.2918 5.90493 28.2918 5.90493 28.2506 5.83635C28.2368 5.81349 28.2215 5.79063 28.2105 5.76712C28.1961 5.73576 28.1784 5.71421 28.1205 5.71029C28.0679 5.7067 28.0488 5.6698 28.0301 5.64008C28.0148 5.61624 28 5.60285 27.9551 5.60742C27.8895 5.61428 27.8436 5.58946 27.8077 5.55321C27.7872 5.53264 27.7647 5.49541 27.7264 5.50945C27.6853 5.52448 27.704 5.56105 27.7188 5.59044C27.7551 5.66294 27.8326 5.71715 27.8967 5.77691C28.0273 5.89839 28.1751 6.01139 28.286 6.14234C28.5151 6.41339 28.5472 6.70044 28.4257 6.99794C28.3377 7.21315 28.1851 7.40615 27.9904 7.58478C27.9627 7.61025 27.9354 7.63735 27.8804 7.6527C27.8843 7.62625 27.8847 7.60502 27.8905 7.58445C27.8996 7.55147 27.9168 7.51783 27.836 7.51946C27.8125 7.51979 27.8159 7.50706 27.8216 7.4953C27.8326 7.47179 27.8427 7.44795 27.8522 7.42378C27.8604 7.40419 27.8709 7.37937 27.8527 7.36467C27.7943 7.31634 27.8283 7.2716 27.8541 7.22556C27.8733 7.19061 27.8905 7.15534 27.9106 7.1204C27.9268 7.09199 27.9144 7.08219 27.8723 7.08938C27.823 7.09754 27.8144 7.08644 27.8259 7.05378C27.8527 6.97737 27.8733 6.89997 27.8967 6.82355C27.8537 6.81278 27.8187 6.85948 27.7924 6.83302C27.7752 6.81572 27.7924 6.78208 27.7948 6.75596C27.7977 6.72656 27.8006 6.6975 27.8039 6.66484C27.758 6.67203 27.746 6.70403 27.6987 6.72101C27.6987 6.62729 27.6987 6.5401 27.6987 6.44931C27.637 6.45911 27.636 6.49176 27.6164 6.51397C27.6097 6.52148 27.6078 6.53389 27.5916 6.53422C27.5715 6.53487 27.5672 6.52148 27.5629 6.51201C27.548 6.47903 27.5519 6.44441 27.548 6.41045C27.5428 6.36212 27.5351 6.35787 27.4777 6.38171C27.4423 6.39641 27.4404 6.384 27.4371 6.36604C27.4313 6.33371 27.4246 6.30138 27.4194 6.26872C27.4155 6.24684 27.4079 6.23018 27.3696 6.24717C27.329 6.26513 27.3146 6.2488 27.3017 6.22561C27.2716 6.17238 27.2204 6.13287 27.1391 6.11327C27.098 6.10348 27.0764 6.10478 27.0841 6.14267C27.1114 6.27656 27.1401 6.41045 27.1587 6.54499C27.2108 6.92087 27.1898 7.29315 27.0157 7.65564C26.931 7.83199 26.811 7.99723 26.6618 8.15267C26.6092 8.20754 26.5431 8.25424 26.47 8.29604C26.4475 8.28559 26.459 8.27187 26.458 8.26077C26.4489 8.0805 26.4867 7.89959 26.4638 7.7203C26.4465 7.58772 26.4757 7.46787 26.5518 7.34932C26.5551 7.3441 26.5556 7.33822 26.5594 7.32744C26.4791 7.33463 26.4599 7.38753 26.3954 7.41562C26.3901 7.34867 26.3844 7.28793 26.3801 7.22686C26.3772 7.188 26.3767 7.14914 26.3743 7.11028C26.37 7.04464 26.3571 6.98324 26.2954 6.92675C26.2146 6.85229 26.2289 6.75759 26.2055 6.67105C26.2021 6.65962 26.2127 6.64296 26.1935 6.63741C26.171 6.63088 26.1581 6.64753 26.1428 6.65603C26.0572 6.70534 26.0529 6.77914 26.0213 6.84478C25.9391 7.01525 25.9525 7.19127 25.962 7.36696C25.9749 7.60894 25.9845 7.85125 25.9979 8.09357C26.0304 8.68661 26.0515 9.27998 26.0563 9.87367C26.0582 10.0758 26.062 10.2776 26.073 10.4798C26.0811 10.6235 26.1294 10.7623 26.2222 10.8929C26.3107 11.0173 26.3164 11.143 26.2366 11.2714C26.1371 11.4311 26.1663 11.5852 26.2968 11.7302C26.392 11.836 26.4982 11.9372 26.5991 12.0404C26.6321 12.0741 26.6642 12.1084 26.6833 12.1469C26.7273 12.2341 26.6785 12.2981 26.5484 12.3219C26.4049 12.3484 26.2586 12.3634 26.1103 12.365C25.6913 12.3693 25.2723 12.3748 24.8534 12.367C24.7094 12.3644 24.5678 12.3487 24.4306 12.3196C24.2957 12.2912 24.2517 12.2276 24.3062 12.1384C24.3612 12.0489 24.4468 11.9719 24.5281 11.8932C24.6735 11.7524 24.7807 11.6022 24.7854 11.4252C24.7878 11.3445 24.7673 11.2675 24.7156 11.195C24.6496 11.1025 24.6525 11.0118 24.7276 10.9233C24.8581 10.7698 24.8792 10.5996 24.8888 10.4282C24.916 9.93148 24.9299 9.43412 24.9442 8.93709C24.9562 8.51484 24.9911 8.09291 25.0131 7.67066C25.0265 7.40811 25.0093 7.14555 24.9973 6.88299C24.994 6.79155 24.9098 6.68868 24.8094 6.63806Z" fill="#127043"/>
<path d="M34.4714 11.4497C34.3676 11.4684 34.2696 11.4687 34.1725 11.4749C33.7191 11.503 33.2652 11.5235 32.8137 11.5663C32.2278 11.6218 31.6452 11.6907 31.0713 11.7904C30.5585 11.8792 30.064 12.0029 29.5795 12.1476C28.9788 12.3276 28.3933 12.5268 27.8543 12.7841C27.3808 13.0101 26.9628 13.2805 26.5558 13.559C26.4611 13.624 26.3678 13.69 26.2769 13.7573C26.209 13.8072 26.2076 13.8203 26.2683 13.8735C26.4462 14.0309 26.6256 14.1873 26.8064 14.3431C27.0651 14.5662 27.3516 14.7725 27.6352 14.9802C27.6726 15.0073 27.7146 15.0312 27.7534 15.0573C27.7873 15.0805 27.8046 15.073 27.8189 15.0452C27.8883 14.9123 27.9595 14.7794 28.0298 14.6468C28.0595 14.5913 28.092 14.5371 28.1394 14.4868C28.2498 14.3689 28.4163 14.3385 28.5913 14.4104C28.7669 14.4826 28.8487 14.591 28.8343 14.7314C28.8281 14.7941 28.7702 14.8379 28.664 14.8535C28.4129 14.8904 28.2991 15.0106 28.2489 15.168C28.2034 15.3107 28.2489 15.4368 28.4019 15.5455C28.5464 15.6477 28.6946 15.7454 28.8716 15.8208C29.0256 15.8865 29.062 15.8796 29.1428 15.7696C29.1897 15.7055 29.238 15.6419 29.3193 15.5942C29.524 15.474 29.8406 15.4482 30.0855 15.6468C30.2716 15.7976 30.3199 15.9763 30.2916 16.167C30.2735 16.2891 30.2065 16.3998 30.0898 16.4926C29.8999 16.6438 29.6479 16.6768 29.3714 16.6575C29.0806 16.6372 28.8386 16.5416 28.6028 16.4328C28.335 16.3094 28.0633 16.1898 27.7931 16.0693C27.7118 16.0331 27.7094 16.0344 27.6386 16.0821C27.4736 16.1934 27.3258 16.3172 27.144 16.4162C26.9025 16.5478 26.5318 16.5357 26.3343 16.3884C26.1286 16.2349 26.1172 16.0024 26.4123 15.8391C26.4615 15.812 26.5184 15.8114 26.573 15.8316C26.6686 15.8672 26.7609 15.9074 26.8585 15.9407C26.9862 15.9844 27.1158 15.9629 27.2081 15.8881C27.2655 15.8417 27.2741 15.7908 27.2387 15.7362C27.1756 15.6393 27.0685 15.5645 26.9661 15.4877C26.5223 15.1543 26.0779 14.8219 25.6331 14.4891C25.5906 14.4571 25.5499 14.4084 25.493 14.4055C25.4385 14.4025 25.4007 14.4545 25.3572 14.4829C24.9693 14.737 24.6139 15.0119 24.2628 15.2895C24.1289 15.3953 23.9969 15.5021 23.8635 15.6082C23.8185 15.6438 23.7807 15.6824 23.7544 15.7258C23.7157 15.7888 23.7248 15.8479 23.7932 15.8992C23.8649 15.9531 23.9524 15.9753 24.0581 15.9524C24.15 15.9328 24.2294 15.8953 24.3145 15.8659C24.3509 15.8532 24.3872 15.8404 24.425 15.83C24.4876 15.8127 24.5474 15.8185 24.5967 15.8499C24.745 15.9443 24.7985 16.0631 24.7689 16.197C24.7378 16.3365 24.6369 16.4478 24.4307 16.4922C24.2385 16.5337 24.0577 16.4926 23.886 16.4315C23.7018 16.3659 23.5684 16.2623 23.4431 16.1526C23.4053 16.1196 23.3618 16.0896 23.3264 16.0553C23.2996 16.0292 23.2757 16.0331 23.2412 16.0458C23.049 16.1173 22.8763 16.2091 22.695 16.2924C22.5176 16.3737 22.3497 16.4651 22.1603 16.534C21.9393 16.6144 21.7035 16.6545 21.4515 16.6483C21.1143 16.6402 20.8613 16.5033 20.7436 16.2633C20.6226 16.0168 20.7278 15.7562 21.0167 15.587C21.2468 15.4525 21.5428 15.4727 21.7313 15.6357C21.7978 15.6931 21.8537 15.7552 21.9111 15.8166C21.9647 15.8734 21.98 15.8786 22.0637 15.846C22.3162 15.7483 22.5286 15.6177 22.7075 15.4623C22.7672 15.4107 22.7787 15.348 22.7534 15.2849C22.717 15.1951 22.6754 15.1066 22.6376 15.0171C22.6051 14.9407 22.5348 14.8911 22.4224 14.8689C22.4071 14.8659 22.3927 14.8614 22.3774 14.8581C22.1861 14.817 22.1359 14.7605 22.1713 14.6243C22.2148 14.4574 22.4506 14.351 22.6883 14.3905C22.7974 14.4088 22.8672 14.4555 22.9036 14.5263C22.981 14.6772 23.0571 14.8284 23.1346 14.9793C23.1867 15.0815 23.2173 15.0867 23.3235 15.0067C23.8008 14.6458 24.2619 14.2752 24.6962 13.8898C24.754 13.8382 24.7521 13.8262 24.6967 13.77C24.5756 13.6475 24.4154 13.5502 24.2624 13.4487C23.9046 13.2112 23.5277 12.9898 23.1298 12.7838C22.7754 12.6002 22.3813 12.4657 21.9843 12.3341C21.5342 12.1848 21.0755 12.0483 20.6035 11.935C19.976 11.7841 19.3384 11.6607 18.6784 11.5964C18.2886 11.5585 17.8969 11.5327 17.5056 11.503C17.2837 11.486 17.0627 11.4657 16.8413 11.4465C16.8164 11.4442 16.7911 11.4422 16.7695 11.422C16.8446 11.3998 16.9235 11.3952 16.9996 11.3926C17.6496 11.3697 18.2962 11.3149 18.9486 11.3208C19.7134 11.3276 20.4705 11.3772 21.2147 11.5023C21.7179 11.5869 22.2 11.711 22.6663 11.8642C23.1298 12.0167 23.5865 12.1767 24.0055 12.3827C24.3647 12.5591 24.7005 12.7544 25.0205 12.9624C25.1505 13.047 25.2811 13.1316 25.404 13.2207C25.4543 13.2573 25.4868 13.2511 25.5313 13.223C25.6819 13.1283 25.8355 13.0355 25.9837 12.9392C26.6131 12.5307 27.3124 12.1904 28.0911 11.9265C28.5751 11.7623 29.0778 11.632 29.5967 11.5307C30.1458 11.4233 30.7063 11.3642 31.276 11.3384C31.8198 11.3139 32.3631 11.3253 32.9064 11.3443C33.1948 11.3544 33.4837 11.3619 33.7721 11.3763C33.9783 11.3867 34.1839 11.4063 34.3896 11.4223C34.4145 11.4259 34.4422 11.4288 34.4714 11.4497ZM29.4236 16.3414C29.4508 16.3414 29.4781 16.3423 29.5053 16.341C29.7359 16.3299 29.8674 16.263 29.9205 16.1301C29.9631 16.0236 29.8851 15.8721 29.7541 15.8084C29.6407 15.7532 29.4977 15.7908 29.4389 15.8936C29.3996 15.9619 29.3772 16.0328 29.3709 16.1069C29.3652 16.18 29.3207 16.2026 29.215 16.1947C29.1715 16.1915 29.1313 16.1807 29.0907 16.1709C28.8391 16.1108 28.6382 16.0024 28.4574 15.8718C28.3575 15.7996 28.247 15.7343 28.1432 15.6647C28.1064 15.6402 28.0872 15.6455 28.0638 15.6739C28.0083 15.7402 28.014 15.796 28.0901 15.8528C28.2116 15.9433 28.3417 16.0279 28.4876 16.1004C28.7669 16.2395 29.0715 16.3345 29.4236 16.3414ZM21.0846 16.0553C21.0846 16.2467 21.2076 16.3427 21.4787 16.3489C21.7475 16.3551 22.0025 16.3058 22.2359 16.2147C22.4922 16.1144 22.7017 15.972 22.9217 15.8401C22.9815 15.8042 22.9906 15.7549 22.9633 15.7029C22.9356 15.65 22.9279 15.6468 22.861 15.6765C22.827 15.6918 22.794 15.7088 22.7634 15.7274C22.5745 15.8417 22.3856 15.9557 22.199 16.072C22.0847 16.1431 21.9551 16.183 21.7997 16.1862C21.6748 16.1889 21.6351 16.1673 21.6189 16.084C21.6069 16.0239 21.5902 15.9645 21.5782 15.9044C21.5653 15.8378 21.5132 15.7957 21.4166 15.7833C21.3152 15.7702 21.231 15.7931 21.1722 15.8509C21.1076 15.9139 21.0899 15.9874 21.0846 16.0553ZM26.6342 16.0174C26.5768 16.0171 26.5404 16.0373 26.5204 16.0726C26.4792 16.1448 26.5294 16.2271 26.6313 16.2614C26.8169 16.3241 26.9943 16.3045 27.1493 16.2225C27.3507 16.116 27.5095 15.9835 27.6123 15.8208C27.7955 15.5315 27.9834 15.2438 28.1709 14.9561C28.2211 14.8787 28.2948 14.8147 28.4168 14.7846C28.4574 14.7745 28.4847 14.7539 28.5105 14.7324C28.5674 14.685 28.554 14.6289 28.4761 14.5809C28.4096 14.5397 28.3345 14.5417 28.2718 14.588C28.2092 14.6344 28.17 14.6909 28.1374 14.749C27.9983 14.9985 27.86 15.248 27.7237 15.4985C27.619 15.6912 27.4736 15.8669 27.2732 16.021C27.1914 16.084 27.0905 16.1062 26.9719 16.0873C26.9212 16.0791 26.8733 16.0635 26.8241 16.0517C26.7629 16.037 26.7016 16.0187 26.6342 16.0174ZM24.1715 16.2888C24.2279 16.2904 24.3451 16.2623 24.3867 16.2372C24.4546 16.1967 24.4814 16.1062 24.4408 16.0573C24.4063 16.0161 24.3504 16.0109 24.2327 16.037C24.1571 16.0537 24.0816 16.071 24.0046 16.0844C23.8864 16.1046 23.7841 16.0837 23.7009 16.0223C23.6372 15.9753 23.5813 15.9243 23.543 15.8656C23.3321 15.5455 23.1174 15.2271 22.9375 14.8983C22.8792 14.7918 22.8117 14.6886 22.7108 14.5969C22.6764 14.5655 22.6333 14.5482 22.5759 14.5567C22.5133 14.5662 22.4712 14.592 22.4573 14.6367C22.4372 14.7017 22.4717 14.753 22.5654 14.7804C22.7079 14.8219 22.8031 14.8927 22.8615 14.9884C23.0045 15.2219 23.1494 15.4547 23.2867 15.6899C23.3952 15.8757 23.532 16.0462 23.7626 16.1761C23.8812 16.2431 24.0156 16.2832 24.1715 16.2888ZM27.5625 15.313C27.5621 15.2774 27.5324 15.2438 27.4903 15.2137C27.2631 15.0508 27.0374 14.8868 26.8092 14.7245C26.7246 14.6641 26.6457 14.5991 26.5452 14.5498C26.5227 14.5387 26.4955 14.5319 26.4764 14.5433C26.4572 14.5547 26.4854 14.5668 26.4926 14.5786C26.4988 14.5884 26.5079 14.5975 26.5175 14.6063C26.7906 14.8699 27.0642 15.1331 27.3378 15.3966C27.3617 15.4198 27.3899 15.4394 27.4281 15.4518C27.4478 15.458 27.4693 15.4636 27.4822 15.4476C27.5157 15.4071 27.5587 15.3695 27.5625 15.313ZM24.4604 14.5472C24.447 14.5404 24.4403 14.5456 24.4322 14.5479C24.3437 14.572 24.2887 14.6223 24.2275 14.668C23.9802 14.8522 23.7334 15.0364 23.4861 15.2206C23.4545 15.2441 23.4316 15.2706 23.4215 15.3016C23.4048 15.3529 23.4545 15.4159 23.5349 15.4365C23.5971 15.4525 23.6038 15.4028 23.6401 15.3871C23.642 15.3865 23.643 15.3849 23.6444 15.3836C23.908 15.1572 24.1452 14.9188 24.3657 14.6723C24.402 14.6321 24.4398 14.592 24.4604 14.5472Z" fill="#A67C1D"/>
<path d="M52.5487 4.97882C52.5467 4.98261 52.5446 4.98612 52.5433 4.9899C52.542 4.99301 52.5397 4.9953 52.5345 4.99436C52.5142 4.99058 52.5166 4.99895 52.5185 5.00638C52.5239 5.02731 52.5176 5.04757 52.5099 5.06783C52.5082 5.07229 52.5059 5.0754 52.498 5.07472C52.4851 5.07364 52.4856 5.07783 52.4879 5.08364C52.4913 5.09201 52.4945 5.10038 52.4967 5.10876C52.4984 5.11551 52.4975 5.12199 52.4873 5.12659C52.4811 5.12929 52.4804 5.13361 52.48 5.13807C52.4791 5.14523 52.4834 5.15184 52.4845 5.16049C52.4689 5.15536 52.464 5.14644 52.4565 5.13888C52.4533 5.13577 52.4513 5.12996 52.4447 5.13158C52.4381 5.13321 52.4419 5.13834 52.4436 5.14198C52.4526 5.16157 52.4614 5.18102 52.4708 5.20047C52.4749 5.20911 52.4749 5.21681 52.4612 5.22208C52.4518 5.22559 52.4554 5.23072 52.4565 5.23572C52.4676 5.28097 52.4787 5.32621 52.4764 5.37227C52.4761 5.37794 52.4804 5.38645 52.4723 5.38862C52.4612 5.39159 52.452 5.38456 52.4447 5.3793C52.4023 5.34823 52.3692 5.31338 52.3442 5.2757C52.2868 5.18885 52.268 5.09822 52.2761 5.00462C52.28 4.96032 52.2958 4.9171 52.3009 4.87293C52.3022 4.86199 52.3042 4.85105 52.3027 4.84011C52.302 4.83633 52.302 4.83147 52.2945 4.83079C52.2883 4.83012 52.2828 4.83282 52.2787 4.83606C52.2716 4.8416 52.2721 4.84849 52.2699 4.85497C52.2678 4.86145 52.2676 4.87037 52.2517 4.86145C52.2479 4.85929 52.2436 4.85902 52.2402 4.86132C52.2303 4.86807 52.2194 4.86672 52.2055 4.86159C52.2055 4.8778 52.2055 4.89198 52.2055 4.90629C52.2055 4.90886 52.2077 4.91264 52.2023 4.91345C52.1955 4.91453 52.1955 4.91008 52.1938 4.90738C52.1925 4.90562 52.1923 4.90359 52.1912 4.9017C52.1891 4.89833 52.1903 4.89198 52.1835 4.89225C52.1747 4.89265 52.1745 4.89914 52.1745 4.90359C52.1741 4.91575 52.1769 4.92777 52.1807 4.93966C52.1824 4.94492 52.1829 4.95033 52.1841 4.9564C52.1677 4.95505 52.163 4.94803 52.1583 4.9406C52.1542 4.93398 52.1535 4.92588 52.1401 4.9221C52.1315 4.93709 52.1373 4.95195 52.1352 4.96653C52.1345 4.97126 52.1388 4.9791 52.1302 4.98004C52.1202 4.98112 52.1193 4.97315 52.1161 4.96815C52.1127 4.96302 52.1125 4.95384 52.102 4.95492C52.0934 4.95573 52.0954 4.96464 52.0951 4.97018C52.0945 4.98301 52.1022 4.99476 52.1069 5.00678C52.1093 5.01273 52.1114 5.01881 52.1142 5.02677C52.1069 5.02502 52.1022 5.02407 52.0975 5.02286C52.0815 5.0184 52.0765 5.01989 52.08 5.03069C52.0845 5.04595 52.0917 5.06108 52.0986 5.07607C52.1014 5.08202 52.1028 5.08593 52.0898 5.08593C52.0772 5.08593 52.077 5.09188 52.0774 5.09755C52.0785 5.10714 52.0859 5.11551 52.0902 5.12443C52.0971 5.13915 52.1001 5.15347 52.0872 5.16751C52.0836 5.1717 52.083 5.17656 52.0836 5.18129C52.0845 5.18683 52.0817 5.19047 52.0725 5.19142C52.0613 5.19263 52.0631 5.19736 52.0646 5.20209C52.0669 5.21006 52.0712 5.21776 52.0703 5.226C52.0622 5.22654 52.0598 5.22289 52.0573 5.21992C52.0213 5.17494 51.9805 5.13145 51.9493 5.08485C51.8934 5.00165 51.9092 4.9221 51.9811 4.84565C52.0027 4.82269 52.0275 4.80121 52.0521 4.77974C52.0701 4.76407 52.0866 4.74813 52.0902 4.72828C52.0917 4.72017 52.0924 4.7122 52.0859 4.70478C52.0787 4.70613 52.0772 4.70991 52.0744 4.71275C52.0678 4.71977 52.0609 4.72342 52.0487 4.7168C52.0397 4.7118 52.0361 4.71531 52.0344 4.72098C52.0331 4.72517 52.0303 4.72936 52.0299 4.73355C52.029 4.74178 52.0226 4.7457 52.0098 4.74476C52.0004 4.74408 51.9967 4.74732 51.994 4.75232C51.9863 4.76542 51.9779 4.77852 51.9687 4.79351C51.9623 4.78514 51.9572 4.77825 51.9512 4.77055C51.9315 4.78541 51.9328 4.805 51.9161 4.82066C51.9097 4.81567 51.9041 4.81121 51.8973 4.80581C51.8908 4.81648 51.884 4.82607 51.8795 4.83606C51.8761 4.84362 51.8701 4.84552 51.8594 4.84254C51.8496 4.83971 51.8464 4.84241 51.8446 4.84835C51.8393 4.86618 51.8333 4.88401 51.8275 4.90265C51.8164 4.89819 51.8151 4.89009 51.8051 4.88563C51.7948 4.89387 51.7948 4.90346 51.7954 4.91251C51.7972 4.93398 51.7815 4.95181 51.7685 4.97032C51.7674 4.97194 51.7644 4.97464 51.7629 4.9745C51.7413 4.97194 51.7458 4.98274 51.7447 4.98923C51.7407 5.01678 51.7334 5.04433 51.74 5.07229C51.742 5.08053 51.7392 5.0885 51.7319 5.09593C51.7251 5.10295 51.7197 5.1016 51.7163 5.09498C51.7101 5.08269 51.7043 5.07026 51.699 5.05784C51.6784 5.00935 51.6645 4.95992 51.6641 4.90967C51.6637 4.83025 51.7084 4.76272 51.8008 4.70761C51.8913 4.65372 51.9914 4.6105 52.1108 4.58646C52.1414 4.58025 52.173 4.57633 52.2028 4.56795C52.2072 4.56674 52.2143 4.56593 52.2137 4.56269C52.213 4.55931 52.2066 4.55661 52.201 4.55674C52.1647 4.55796 52.1268 4.55094 52.0928 4.56566C52.0761 4.57282 52.0581 4.57538 52.0395 4.56606C52.0308 4.56161 51.9841 4.56795 51.9756 4.57376C51.9698 4.57768 51.9642 4.58187 51.9591 4.58565C51.9518 4.58443 51.954 4.58092 51.9522 4.57876C51.9497 4.57538 51.9522 4.56985 51.9456 4.56863C51.9377 4.56701 51.9315 4.5712 51.9264 4.57444C51.9204 4.57822 51.9157 4.58295 51.9107 4.58754C51.9037 4.59389 51.8962 4.59794 51.8831 4.59294C51.8718 4.58848 51.8662 4.59456 51.8607 4.59915C51.8545 4.60442 51.8485 4.60672 51.8404 4.60064C51.8342 4.59605 51.8299 4.59699 51.8262 4.60267C51.8207 4.61131 51.8136 4.61969 51.8081 4.62833C51.8044 4.63414 51.7999 4.63576 51.7918 4.63184C51.7826 4.62752 51.7762 4.62927 51.7708 4.63508C51.7659 4.64049 51.7591 4.64508 51.7556 4.65116C51.7499 4.66129 51.7396 4.66939 51.7261 4.67628C51.7141 4.68236 51.7024 4.68884 51.6938 4.69721C51.6919 4.6991 51.6885 4.70167 51.6859 4.70167C51.6637 4.70072 51.6645 4.71166 51.6613 4.72031C51.6581 4.72909 51.6547 4.73773 51.6517 4.74665C51.6489 4.75529 51.6459 4.76312 51.6301 4.76664C51.6204 4.76866 51.6209 4.77542 51.6209 4.78095C51.6213 4.78987 51.6179 4.80027 51.6035 4.80027C51.5877 4.80027 51.5873 4.78825 51.5881 4.78068C51.5982 4.66831 51.6709 4.57741 51.8213 4.51406C51.9249 4.47044 52.0408 4.44991 52.1634 4.44234C52.2072 4.43964 52.2509 4.43626 52.2937 4.42938C52.3084 4.42708 52.3217 4.42343 52.3307 4.4129C52.2721 4.41047 52.2162 4.39737 52.1585 4.40898C52.1514 4.41047 52.1435 4.41276 52.1369 4.41006C52.1161 4.40169 52.0996 4.40777 52.0827 4.41506C52.0778 4.41722 52.071 4.42181 52.0656 4.41573C52.0588 4.4075 52.0498 4.40858 52.0397 4.41222C52.0038 4.42519 51.9625 4.43046 51.9236 4.43573C51.8697 4.44302 51.8346 4.46774 51.7886 4.48111C51.7828 4.48273 51.7768 4.48881 51.7711 4.48529C51.7642 4.48111 51.7738 4.47692 51.7773 4.47354C51.8344 4.41952 51.9077 4.37576 51.9916 4.33834C52.0862 4.2962 52.191 4.28107 52.305 4.28783C52.3606 4.29107 52.416 4.29472 52.4717 4.29769C52.4819 4.29823 52.498 4.3012 52.5012 4.29418C52.5035 4.28904 52.4877 4.28526 52.4779 4.28324C52.4511 4.2777 52.4302 4.26487 52.4034 4.2596C52.3769 4.25433 52.3508 4.24852 52.3262 4.24001C52.308 4.23367 52.2834 4.23812 52.2684 4.2261C52.2676 4.22543 52.2637 4.22597 52.2616 4.22651C52.2194 4.23745 52.1743 4.24028 52.1302 4.24636C52.118 4.24798 52.1076 4.25231 52.0939 4.25609C52.0958 4.24339 52.1069 4.23569 52.1193 4.22921C52.1619 4.20679 52.2132 4.19652 52.2661 4.18896C52.369 4.1741 52.464 4.1872 52.5519 4.223C52.5838 4.23596 52.6161 4.24812 52.6524 4.25568C52.6635 4.25798 52.6663 4.2573 52.6665 4.24987C52.6674 4.21975 52.6721 4.18977 52.6785 4.15992C52.6802 4.15209 52.6845 4.14857 52.6967 4.14925C52.7108 4.15006 52.7151 4.14655 52.7162 4.13736C52.7187 4.11521 52.7136 4.09266 52.7254 4.07105C52.7271 4.06781 52.726 4.06308 52.7329 4.06254C52.741 4.062 52.7412 4.0674 52.7438 4.07064C52.7542 4.08455 52.75 4.09995 52.7538 4.11454C52.7555 4.12143 52.7551 4.12858 52.7562 4.13561C52.7572 4.14223 52.7587 4.14857 52.7703 4.15209C52.7788 4.15465 52.7799 4.16073 52.7801 4.1664C52.7803 4.17343 52.7803 4.18045 52.7808 4.18761C52.7812 4.19747 52.7838 4.20665 52.7945 4.21489C52.806 4.22367 52.8069 4.23502 52.8062 4.24623C52.8052 4.26527 52.8071 4.26676 52.8347 4.25919C52.8728 4.24879 52.9089 4.23583 52.9442 4.22205C53.0165 4.19355 53.094 4.1818 53.1787 4.19126C53.233 4.19733 53.2824 4.21179 53.3299 4.22894C53.344 4.23407 53.3547 4.24191 53.3614 4.25149C53.3669 4.25946 53.3629 4.26338 53.3492 4.26244C53.3432 4.26203 53.3374 4.26027 53.3314 4.25906C53.2903 4.25068 53.2473 4.2415 53.2058 4.25001C53.174 4.25649 53.1436 4.26027 53.1102 4.26081C53.0833 4.26122 53.0627 4.27446 53.0371 4.28242C53.0664 4.29674 53.0982 4.29688 53.1303 4.29593C53.1699 4.29458 53.2095 4.29174 53.2491 4.2912C53.3374 4.28985 53.4166 4.30741 53.4837 4.34334C53.5366 4.3717 53.5879 4.40115 53.6363 4.43275C53.657 4.44626 53.6731 4.46206 53.6861 4.4807C53.6728 4.47922 53.6636 4.47489 53.6542 4.47138C53.6243 4.46031 53.593 4.4518 53.5592 4.44572C53.5287 4.44032 53.4993 4.431 53.4715 4.4206C53.4619 4.41695 53.4519 4.41398 53.4407 4.41249C53.4253 4.41033 53.4101 4.40912 53.4016 4.4206C53.3979 4.42533 53.393 4.42505 53.3868 4.42208C53.38 4.41871 53.3723 4.41614 53.3652 4.4129C53.356 4.40858 53.3481 4.40547 53.3404 4.41438C53.3357 4.42006 53.328 4.41641 53.3226 4.41438C53.304 4.40723 53.2861 4.40101 53.2647 4.41141C53.2604 4.41344 53.2514 4.41195 53.2446 4.41182C53.2236 4.41114 53.2037 4.41236 53.1862 4.42046C53.1812 4.42276 53.1761 4.42343 53.1705 4.42208C53.1688 4.42168 53.1669 4.42127 53.1652 4.42114C53.1549 4.42046 53.1331 4.43005 53.135 4.43545C53.1372 4.44194 53.1485 4.44153 53.1562 4.44207C53.1926 4.44464 53.2289 4.44653 53.2653 4.44869C53.3387 4.45301 53.4125 4.45653 53.4837 4.46963C53.6609 4.50218 53.7881 4.56985 53.8513 4.68114C53.8754 4.72396 53.881 4.76853 53.8739 4.8158C53.8613 4.80837 53.8562 4.8 53.8495 4.79257C53.8226 4.76272 53.7961 4.7326 53.7695 4.70248C53.7614 4.6933 53.7528 4.68479 53.734 4.68411C53.727 4.68384 53.7272 4.6806 53.7261 4.67749C53.7171 4.65007 53.6863 4.63333 53.6525 4.61806C53.651 4.61739 53.6493 4.61685 53.6476 4.61644C53.636 4.6132 53.6213 4.61577 53.6117 4.60847C53.604 4.6024 53.5956 4.59672 53.5875 4.59078C53.574 4.60307 53.574 4.60307 53.5588 4.59159C53.5565 4.58983 53.5541 4.58794 53.5518 4.58619C53.5355 4.57376 53.5353 4.57363 53.5197 4.587C53.5152 4.59092 53.5122 4.59173 53.5073 4.58781C53.5034 4.5847 53.4991 4.58187 53.4955 4.57876C53.488 4.57228 53.4829 4.56701 53.4668 4.57336C53.4549 4.57808 53.4371 4.57268 53.4225 4.57889C53.4174 4.58106 53.4091 4.57322 53.4016 4.57066C53.3986 4.56958 53.396 4.56674 53.392 4.56822C53.3885 4.56944 53.389 4.57228 53.3892 4.57457C53.3898 4.58578 53.3999 4.59362 53.4138 4.59942C53.4658 4.62144 53.5175 4.64346 53.5699 4.66507C53.6386 4.6933 53.7011 4.72531 53.7424 4.77136C53.7888 4.82323 53.8014 4.87955 53.7995 4.9379C53.7973 4.99719 53.7751 5.05392 53.7462 5.10997C53.7419 5.11821 53.7381 5.11673 53.7308 5.11187C53.7158 5.10214 53.7165 5.0908 53.721 5.07904C53.7229 5.07418 53.7259 5.06932 53.7293 5.06473C53.7342 5.05811 53.7319 5.05325 53.7212 5.05054C53.7096 5.04771 53.7081 5.04217 53.7092 5.03528C53.7103 5.02745 53.7103 5.01961 53.7111 5.01178C53.712 5.00435 53.7133 4.9976 53.6955 4.99949C53.6887 5.00017 53.6882 4.99638 53.6882 4.99301C53.6882 4.98139 53.6829 4.97086 53.676 4.96019C53.6686 4.9483 53.6758 4.93533 53.6718 4.92304C53.6694 4.91588 53.6688 4.90846 53.6675 4.90116C53.6649 4.90116 53.6636 4.90089 53.6626 4.90116C53.6371 4.909 53.6371 4.909 53.6348 4.8909C53.6341 4.88549 53.6324 4.87996 53.6324 4.87455C53.6324 4.86334 53.6292 4.85537 53.6067 4.85983C53.598 4.86159 53.5973 4.85686 53.5958 4.85294C53.5905 4.83836 53.5849 4.82363 53.5787 4.80689C53.5697 4.81526 53.5627 4.82174 53.5537 4.83012C53.5441 4.81148 53.5353 4.79473 53.5259 4.7769C53.5214 4.77933 53.5186 4.78068 53.516 4.7823C53.4957 4.79487 53.4957 4.79487 53.4844 4.77771C53.4805 4.7719 53.4765 4.76623 53.4735 4.76029C53.4696 4.75232 53.4647 4.74692 53.4491 4.74597C53.4347 4.74516 53.4296 4.73571 53.4245 4.72828C53.4202 4.7222 53.4161 4.71896 53.4042 4.72004C53.3864 4.72179 53.3738 4.71558 53.3639 4.7064C53.3584 4.70126 53.3522 4.69181 53.3417 4.69532C53.3306 4.6991 53.3355 4.70829 53.3395 4.71572C53.3494 4.73395 53.3706 4.74759 53.3881 4.76272C53.4236 4.79324 53.4638 4.82174 53.494 4.8547C53.5565 4.92291 53.5652 4.99517 53.5321 5.07013C53.5081 5.12429 53.4666 5.17291 53.4136 5.21789C53.4061 5.22424 53.3986 5.23113 53.3836 5.23505C53.3847 5.22843 53.3847 5.22302 53.3864 5.21789C53.389 5.20952 53.3937 5.20114 53.3716 5.20155C53.3652 5.20168 53.3663 5.19844 53.3676 5.19547C53.3706 5.18953 53.3733 5.18345 53.3759 5.17751C53.3781 5.17251 53.381 5.1663 53.3761 5.16265C53.3603 5.15049 53.3695 5.13928 53.3766 5.12767C53.3819 5.11889 53.3864 5.10997 53.392 5.10119C53.3964 5.09404 53.393 5.09161 53.3815 5.09336C53.368 5.09539 53.3656 5.09269 53.3689 5.08445C53.3761 5.06527 53.3817 5.04568 53.3881 5.0265C53.3763 5.0238 53.3669 5.03555 53.3597 5.02893C53.3549 5.02461 53.3597 5.0161 53.3603 5.00949C53.3609 5.00206 53.3618 4.99476 53.3629 4.98652C53.3505 4.98841 53.347 4.99638 53.3342 5.00057C53.3342 4.97693 53.3342 4.95505 53.3342 4.93209C53.3175 4.93452 53.3173 4.94276 53.3117 4.94843C53.3098 4.95033 53.3094 4.95343 53.3051 4.95357C53.2995 4.9537 53.2985 4.95033 53.2974 4.94789C53.2933 4.93952 53.2944 4.93088 53.2933 4.92223C53.2918 4.91008 53.2899 4.909 53.2743 4.91494C53.2647 4.91859 53.264 4.91548 53.2632 4.91102C53.2615 4.90292 53.2598 4.89468 53.2583 4.88658C53.2572 4.88104 53.255 4.87685 53.2446 4.88117C53.2334 4.88576 53.2296 4.88158 53.226 4.87577C53.2178 4.8624 53.2037 4.8524 53.1817 4.84754C53.1703 4.84511 53.1646 4.84538 53.1667 4.85497C53.1742 4.88874 53.1819 4.92237 53.187 4.95627C53.2014 5.05095 53.1956 5.14469 53.1481 5.23599C53.125 5.28043 53.0925 5.32203 53.0516 5.3612C53.0373 5.37497 53.0193 5.38672 52.9994 5.39739C52.9934 5.39469 52.9964 5.39132 52.9962 5.38848C52.9936 5.3431 53.0041 5.29745 52.9977 5.25247C52.993 5.21911 53.0009 5.18885 53.0217 5.159C53.0225 5.15765 53.0227 5.15617 53.0238 5.15347C53.002 5.15522 52.9968 5.16859 52.9791 5.17575C52.9776 5.15887 52.9761 5.14361 52.975 5.12821C52.9744 5.11848 52.9742 5.10862 52.9735 5.0989C52.9725 5.08242 52.9688 5.06689 52.9521 5.05271C52.9301 5.03393 52.9342 5.01016 52.9277 4.98828C52.9269 4.98531 52.9297 4.98112 52.9245 4.97977C52.9183 4.97815 52.9149 4.98234 52.9108 4.9845C52.8875 4.99692 52.8865 5.01556 52.8777 5.03204C52.8552 5.07499 52.8591 5.11929 52.8614 5.16346C52.8648 5.22438 52.8676 5.28542 52.8713 5.34634C52.8802 5.49572 52.8858 5.64511 52.8873 5.79462C52.8877 5.84554 52.8888 5.89633 52.8918 5.94725C52.8939 5.98345 52.9072 6.01843 52.9324 6.05125C52.9564 6.08258 52.9581 6.11419 52.9363 6.14661C52.9093 6.18686 52.9173 6.22562 52.9528 6.26209C52.9787 6.28869 53.0075 6.31422 53.0351 6.34016C53.0441 6.34866 53.0529 6.35731 53.058 6.3669C53.07 6.38878 53.0567 6.40499 53.0212 6.41107C52.9823 6.41768 52.9423 6.42147 52.9019 6.42187C52.7878 6.42295 52.6736 6.4243 52.5596 6.42241C52.5204 6.42173 52.4819 6.41782 52.4445 6.41052C52.4077 6.40337 52.3957 6.38729 52.4107 6.36487C52.4257 6.34232 52.449 6.32287 52.471 6.30315C52.5106 6.26776 52.5397 6.22994 52.5412 6.18537C52.5418 6.16511 52.5363 6.14566 52.5221 6.12743C52.5042 6.1042 52.505 6.08123 52.5253 6.05895C52.5609 6.02032 52.5666 5.9775 52.5692 5.93428C52.5767 5.80921 52.5805 5.684 52.5844 5.5588C52.5876 5.4525 52.5972 5.3462 52.6032 5.23991C52.6069 5.17373 52.6021 5.10768 52.5989 5.0415C52.5989 5.01745 52.576 4.99152 52.5487 4.97882Z" fill="black"/>
<path d="M55.1789 6.19255C55.1506 6.19714 55.1239 6.19728 55.0976 6.1989C54.9741 6.20606 54.8505 6.21119 54.7275 6.22199C54.5679 6.23604 54.4092 6.25333 54.253 6.27832C54.1135 6.30074 53.9787 6.3318 53.8467 6.36827C53.6831 6.41352 53.5237 6.46376 53.377 6.52859C53.248 6.58559 53.1342 6.65366 53.0233 6.72376C52.9975 6.74011 52.9722 6.75672 52.9474 6.77374C52.929 6.7863 52.9286 6.78954 52.9451 6.80305C52.9936 6.84262 53.0424 6.88206 53.0916 6.92136C53.162 6.97755 53.2401 7.02942 53.3173 7.08182C53.3273 7.08871 53.3389 7.09465 53.3494 7.10127C53.3586 7.10708 53.3633 7.10519 53.3671 7.09817C53.3862 7.06467 53.4054 7.03131 53.4245 6.99781C53.4324 6.98377 53.4414 6.97012 53.4542 6.95756C53.4844 6.92785 53.5297 6.92015 53.5774 6.93838C53.6253 6.95662 53.6476 6.9839 53.6435 7.01915C53.6418 7.03496 53.6262 7.04603 53.5971 7.04995C53.5286 7.05927 53.4976 7.08952 53.4839 7.1291C53.4715 7.16502 53.4839 7.19676 53.5256 7.22418C53.565 7.24998 53.6054 7.27456 53.6536 7.29347C53.6955 7.30995 53.7056 7.30833 53.7274 7.28064C53.7402 7.26443 53.7533 7.2485 53.7755 7.23647C53.8313 7.20622 53.9173 7.19974 53.9841 7.24971C54.0348 7.28766 54.0478 7.33264 54.0401 7.38072C54.0352 7.41152 54.0168 7.43934 53.9852 7.46271C53.9334 7.5008 53.8649 7.50904 53.7896 7.50417C53.7105 7.49904 53.6446 7.475 53.5804 7.44758C53.5075 7.41652 53.4334 7.3864 53.3599 7.35601C53.3376 7.34682 53.337 7.34723 53.3177 7.35925C53.2728 7.38734 53.2326 7.41841 53.1829 7.44339C53.117 7.47649 53.0163 7.47351 52.9624 7.43637C52.9063 7.39774 52.9033 7.33912 52.9836 7.29806C52.997 7.29118 53.0124 7.29104 53.0272 7.29617C53.0533 7.30509 53.0783 7.31522 53.1049 7.32359C53.1397 7.33467 53.1748 7.32913 53.2 7.31035C53.2157 7.2986 53.218 7.28591 53.2084 7.27213C53.1913 7.24768 53.162 7.22891 53.1342 7.20946C53.0133 7.12559 52.8922 7.04171 52.7711 6.95797C52.7596 6.94986 52.7485 6.93771 52.7331 6.9369C52.7181 6.93622 52.708 6.94919 52.696 6.95648C52.5904 7.0205 52.4937 7.08966 52.398 7.15962C52.3617 7.18623 52.3255 7.21324 52.2892 7.23985C52.277 7.24877 52.2667 7.25849 52.2594 7.26943C52.2489 7.28537 52.2513 7.30023 52.2699 7.31306C52.2894 7.32656 52.3133 7.33224 52.342 7.32643C52.367 7.32143 52.3886 7.31198 52.4117 7.30468C52.4216 7.30158 52.4316 7.2982 52.4419 7.29563C52.459 7.29131 52.4753 7.2928 52.4888 7.30063C52.5292 7.3244 52.5437 7.35439 52.5356 7.38802C52.527 7.42314 52.4997 7.45109 52.4436 7.4623C52.3912 7.4727 52.342 7.46244 52.2954 7.44704C52.2453 7.43056 52.2089 7.40436 52.1747 7.37681C52.1644 7.36843 52.1525 7.36087 52.143 7.35236C52.1358 7.34588 52.1291 7.34669 52.1199 7.34993C52.0675 7.36789 52.0205 7.39099 51.9713 7.41192C51.9229 7.43245 51.8774 7.45542 51.8256 7.47284C51.7653 7.4931 51.7013 7.50323 51.6326 7.50161C51.5409 7.49958 51.472 7.46514 51.4399 7.40463C51.4069 7.34264 51.4356 7.27686 51.5143 7.23431C51.577 7.20041 51.6577 7.20554 51.709 7.2466C51.7272 7.26106 51.7424 7.27672 51.758 7.29226C51.7725 7.30657 51.7768 7.30779 51.7995 7.29968C51.8684 7.2751 51.9261 7.24215 51.9747 7.20311C51.9909 7.19001 51.9942 7.17434 51.9871 7.15854C51.9773 7.13598 51.9659 7.11356 51.9554 7.09114C51.9467 7.07183 51.9274 7.0594 51.8968 7.05373C51.8928 7.05292 51.8887 7.05184 51.8846 7.05103C51.8324 7.04063 51.819 7.02645 51.8286 6.99214C51.8403 6.95013 51.9047 6.92339 51.9693 6.93325C51.9991 6.93784 52.0181 6.94959 52.028 6.96742C52.0491 7.00538 52.0699 7.04346 52.0909 7.08155C52.105 7.10722 52.1135 7.1087 52.1422 7.08844C52.2723 6.99754 52.3978 6.90421 52.5161 6.8071C52.532 6.79413 52.5313 6.79103 52.5161 6.77698C52.4832 6.74618 52.4395 6.7216 52.3978 6.69607C52.3005 6.63624 52.1978 6.58046 52.0894 6.52873C51.9929 6.48254 51.8855 6.44863 51.7775 6.41541C51.6549 6.37786 51.5299 6.34342 51.4014 6.31492C51.2304 6.27696 51.057 6.24576 50.877 6.22969C50.7709 6.2201 50.6642 6.21362 50.5577 6.20619C50.4973 6.20187 50.437 6.19674 50.3769 6.19201C50.3703 6.19147 50.3632 6.19093 50.3574 6.1858C50.378 6.18026 50.3994 6.17904 50.4201 6.17837C50.597 6.17256 50.7733 6.15878 50.9508 6.16027C51.1592 6.16202 51.3652 6.17445 51.568 6.20606C51.7051 6.2274 51.8363 6.2586 51.9634 6.29722C52.0896 6.33558 52.2139 6.37597 52.3281 6.42783C52.4259 6.47227 52.5174 6.52143 52.6045 6.57384C52.64 6.59518 52.6755 6.61639 52.7089 6.63894C52.7226 6.64813 52.7313 6.64664 52.7435 6.63948C52.7846 6.61558 52.8263 6.59234 52.8668 6.56803C53.0381 6.46525 53.2285 6.37948 53.4405 6.31303C53.5723 6.2717 53.7092 6.23888 53.8506 6.21335C54.0001 6.18634 54.1529 6.17134 54.308 6.165C54.456 6.15878 54.604 6.16175 54.7521 6.16648C54.8306 6.16905 54.9093 6.17094 54.9878 6.17458C55.0441 6.17715 55.0999 6.18215 55.156 6.1862C55.1632 6.18661 55.1709 6.18728 55.1789 6.19255ZM53.804 7.42435C53.8114 7.42435 53.8189 7.42462 53.8262 7.42435C53.8889 7.42165 53.9248 7.40477 53.9394 7.37127C53.9509 7.34439 53.9297 7.3063 53.894 7.29023C53.8632 7.27632 53.8243 7.28577 53.8082 7.31171C53.7975 7.32886 53.7913 7.34682 53.7898 7.36533C53.7881 7.3837 53.7761 7.38937 53.7473 7.38748C53.7355 7.38667 53.7244 7.38397 53.7135 7.38153C53.645 7.36641 53.5902 7.33912 53.541 7.30617C53.5139 7.28807 53.4837 7.27159 53.4555 7.25403C53.4454 7.24782 53.4403 7.24917 53.4339 7.25633C53.4187 7.27308 53.4202 7.28712 53.4409 7.30144C53.4741 7.32427 53.5096 7.34561 53.5492 7.36371C53.6253 7.39869 53.7081 7.42273 53.804 7.42435ZM51.5332 7.35236C51.5332 7.40058 51.5667 7.42476 51.6403 7.42624C51.7135 7.42773 51.783 7.41544 51.8465 7.39248C51.9165 7.36722 51.9734 7.33142 52.0333 7.2982C52.0496 7.28915 52.0519 7.27672 52.0446 7.26362C52.0372 7.25025 52.035 7.24944 52.0168 7.257C52.0076 7.26079 51.9986 7.26511 51.9903 7.26984C51.939 7.2986 51.8874 7.32737 51.8365 7.35655C51.8055 7.37451 51.7702 7.38451 51.7278 7.38532C51.6938 7.38599 51.6831 7.38059 51.6786 7.35952C51.6754 7.34439 51.6707 7.3294 51.6675 7.31427C51.6639 7.29752 51.6497 7.28685 51.6234 7.28375C51.5958 7.28051 51.5729 7.28618 51.5569 7.30076C51.5394 7.3167 51.5346 7.33521 51.5332 7.35236ZM53.0445 7.34291C53.0289 7.34277 53.0189 7.3479 53.0135 7.35682C53.0024 7.37505 53.0159 7.39572 53.0437 7.40436C53.0942 7.42016 53.1425 7.41517 53.1846 7.3945C53.2394 7.36762 53.2826 7.3344 53.3106 7.29334C53.3605 7.22054 53.4118 7.14801 53.4627 7.07561C53.4764 7.05616 53.4965 7.04009 53.5297 7.03239C53.5408 7.02982 53.5481 7.02456 53.5552 7.01915C53.5708 7.00727 53.5671 6.99308 53.5458 6.98106C53.5276 6.9708 53.5072 6.9712 53.4901 6.98296C53.473 6.99457 53.4623 7.00889 53.4536 7.02347C53.4157 7.08628 53.378 7.14922 53.3408 7.21216C53.3121 7.26065 53.2728 7.30495 53.2182 7.34372C53.196 7.35952 53.1684 7.36519 53.1363 7.36033C53.1226 7.3583 53.1096 7.35425 53.0961 7.35141C53.0794 7.34777 53.0629 7.34318 53.0445 7.34291ZM52.3739 7.41111C52.3893 7.41152 52.4212 7.4045 52.4325 7.39815C52.4509 7.38788 52.4584 7.36519 52.4472 7.35277C52.4378 7.34237 52.4226 7.34115 52.3906 7.34763C52.37 7.35182 52.3493 7.35628 52.3283 7.35952C52.2962 7.36465 52.2682 7.35938 52.2455 7.34385C52.2282 7.33197 52.213 7.31913 52.2025 7.30441C52.1452 7.22391 52.0866 7.14368 52.0376 7.06075C52.0218 7.03388 52.0034 7.00794 51.9758 6.98485C51.9663 6.97701 51.9546 6.97256 51.939 6.97472C51.9219 6.97701 51.9103 6.98363 51.9067 6.99484C51.9011 7.01118 51.9107 7.02415 51.9362 7.03104C51.9749 7.04144 52.001 7.05927 52.0168 7.08344C52.0558 7.1422 52.0951 7.20095 52.1326 7.26011C52.1621 7.30684 52.1993 7.34993 52.2622 7.38248C52.2947 7.39963 52.3313 7.40976 52.3739 7.41111ZM53.2972 7.16543C53.2972 7.15638 53.289 7.14801 53.2775 7.14044C53.2157 7.09938 53.1543 7.05805 53.092 7.01726C53.0689 7.00213 53.0475 6.98566 53.0201 6.97323C53.0141 6.97039 53.0067 6.96877 53.0013 6.97161C52.996 6.97445 53.0037 6.97755 53.0058 6.98052C53.0075 6.98296 53.0101 6.98525 53.0124 6.98755C53.0869 7.05386 53.1613 7.12018 53.2358 7.18663C53.2424 7.19244 53.2501 7.19744 53.2604 7.20055C53.2657 7.20217 53.2715 7.20352 53.2751 7.19947C53.2845 7.18907 53.2963 7.17961 53.2972 7.16543ZM52.4526 6.97255C52.449 6.9708 52.447 6.97215 52.4449 6.97269C52.4207 6.97877 52.4057 6.99146 52.3891 7.00294C52.3217 7.04927 52.2545 7.09573 52.1871 7.14206C52.1786 7.14801 52.1724 7.15462 52.1696 7.16246C52.1651 7.17529 52.1786 7.19123 52.2004 7.19636C52.2173 7.20041 52.2192 7.18785 52.229 7.18393C52.2295 7.1838 52.2299 7.18326 52.2301 7.18299C52.3018 7.12599 52.3666 7.06589 52.4265 7.00389C52.4366 6.9939 52.4468 6.9839 52.4526 6.97255Z" fill="black"/>
<path d="M52.0469 12.8203V11.3658H52.3985V11.9808H52.4176L52.8985 11.3658H53.3125L52.7969 12.0149L53.3217 12.8203H52.9013L52.5391 12.2486L52.3985 12.4261V12.8203H52.0469ZM52.8751 13.8018C52.8704 13.7498 52.8493 13.7093 52.8119 13.6804C52.775 13.651 52.7222 13.6364 52.6535 13.6364C52.6081 13.6364 52.5702 13.6423 52.5399 13.6541C52.5096 13.666 52.4868 13.6823 52.4717 13.7031C52.4565 13.7235 52.4487 13.7469 52.4483 13.7734C52.4473 13.7952 52.4516 13.8144 52.461 13.831C52.471 13.8475 52.4852 13.8622 52.5037 13.875C52.5226 13.8873 52.5453 13.8982 52.5718 13.9077C52.5983 13.9171 52.6282 13.9254 52.6613 13.9325L52.7863 13.9609C52.8583 13.9766 52.9217 13.9974 52.9767 14.0234C53.0321 14.0495 53.0785 14.0805 53.1159 14.1165C53.1537 14.1525 53.1824 14.1939 53.2018 14.2408C53.2212 14.2876 53.2312 14.3402 53.2316 14.3984C53.2312 14.4903 53.208 14.5691 53.162 14.6349C53.1161 14.7008 53.0501 14.7512 52.9639 14.7862C52.8782 14.8213 52.7747 14.8388 52.6535 14.8388C52.5318 14.8388 52.4258 14.8205 52.3353 14.7841C52.2449 14.7476 52.1746 14.6922 52.1244 14.6179C52.0742 14.5436 52.0484 14.4496 52.047 14.3359H52.3836C52.3865 14.3828 52.399 14.4219 52.4213 14.4531C52.4435 14.4844 52.4741 14.508 52.5129 14.5241C52.5522 14.5402 52.5976 14.5483 52.6492 14.5483C52.6966 14.5483 52.7368 14.5419 52.77 14.5291C52.8036 14.5163 52.8294 14.4986 52.8474 14.4759C52.8654 14.4531 52.8746 14.4271 52.8751 14.3977C52.8746 14.3703 52.8661 14.3468 52.8495 14.3274C52.833 14.3075 52.8074 14.2905 52.7728 14.2763C52.7387 14.2616 52.6952 14.2481 52.6421 14.2358L52.4902 14.2003C52.3642 14.1714 52.265 14.1248 52.1926 14.0604C52.1201 13.9955 52.0841 13.9079 52.0846 13.7976C52.0841 13.7076 52.1083 13.6288 52.1571 13.5611C52.2058 13.4934 52.2733 13.4406 52.3595 13.4027C52.4457 13.3648 52.5439 13.3459 52.6542 13.3459C52.7669 13.3459 52.8647 13.3651 52.9475 13.4034C53.0309 13.4413 53.0955 13.4946 53.1414 13.5632C53.1874 13.6319 53.2108 13.7114 53.2117 13.8018H52.8751ZM52.2922 16.8203H51.9143L52.4051 15.3658H52.8731L53.3639 16.8203H52.9861L52.6445 15.7322H52.6331L52.2922 16.8203ZM52.2418 16.2479H53.0315V16.5149H52.2418V16.2479Z" fill="black"/>
<path d="M36.669 9.88636L36.7088 9.44886L36.3459 9.70241L36.147 9.3544L36.5447 9.17045L36.147 8.98651L36.3459 8.63849L36.7088 8.89205L36.669 8.45455H37.0668L37.027 8.89205L37.3899 8.63849L37.5888 8.98651L37.191 9.17045L37.5888 9.3544L37.3899 9.70241L37.027 9.44886L37.0668 9.88636H36.669ZM38.7984 9.88636L38.8382 9.44886L38.4753 9.70241L38.2764 9.3544L38.6741 9.17045L38.2764 8.98651L38.4753 8.63849L38.8382 8.89205L38.7984 8.45455H39.1961L39.1564 8.89205L39.5193 8.63849L39.7182 8.98651L39.3204 9.17045L39.7182 9.3544L39.5193 9.70241L39.1564 9.44886L39.1961 9.88636H38.7984ZM40.9278 9.88636L40.9676 9.44886L40.6047 9.70241L40.4058 9.3544L40.8035 9.17045L40.4058 8.98651L40.6047 8.63849L40.9676 8.89205L40.9278 8.45455H41.3255L41.2858 8.89205L41.6487 8.63849L41.8476 8.98651L41.4498 9.17045L41.8476 9.3544L41.6487 9.70241L41.2858 9.44886L41.3255 9.88636H40.9278ZM43.0572 9.88636L43.097 9.44886L42.7341 9.70241L42.5352 9.3544L42.9329 9.17045L42.5352 8.98651L42.7341 8.63849L43.097 8.89205L43.0572 8.45455H43.4549L43.4152 8.89205L43.7781 8.63849L43.977 8.98651L43.5792 9.17045L43.977 9.3544L43.7781 9.70241L43.4152 9.44886L43.4549 9.88636H43.0572ZM36.669 13.8864L36.7088 13.4489L36.3459 13.7024L36.147 13.3544L36.5447 13.1705L36.147 12.9865L36.3459 12.6385L36.7088 12.892L36.669 12.4545H37.0668L37.027 12.892L37.3899 12.6385L37.5888 12.9865L37.191 13.1705L37.5888 13.3544L37.3899 13.7024L37.027 13.4489L37.0668 13.8864H36.669ZM38.7984 13.8864L38.8382 13.4489L38.4753 13.7024L38.2764 13.3544L38.6741 13.1705L38.2764 12.9865L38.4753 12.6385L38.8382 12.892L38.7984 12.4545H39.1961L39.1564 12.892L39.5193 12.6385L39.7182 12.9865L39.3204 13.1705L39.7182 13.3544L39.5193 13.7024L39.1564 13.4489L39.1961 13.8864H38.7984ZM40.9278 13.8864L40.9676 13.4489L40.6047 13.7024L40.4058 13.3544L40.8035 13.1705L40.4058 12.9865L40.6047 12.6385L40.9676 12.892L40.9278 12.4545H41.3255L41.2858 12.892L41.6487 12.6385L41.8476 12.9865L41.4498 13.1705L41.8476 13.3544L41.6487 13.7024L41.2858 13.4489L41.3255 13.8864H40.9278ZM43.0572 13.8864L43.097 13.4489L42.7341 13.7024L42.5352 13.3544L42.9329 13.1705L42.5352 12.9865L42.7341 12.6385L43.097 12.892L43.0572 12.4545H43.4549L43.4152 12.892L43.7781 12.6385L43.977 12.9865L43.5792 13.1705L43.977 13.3544L43.7781 13.7024L43.4152 13.4489L43.4549 13.8864H43.0572Z" fill="black"/>
<path d="M7.41316 9.88636L7.45294 9.44886L7.09001 9.70241L6.89115 9.3544L7.28887 9.17045L6.89115 8.98651L7.09001 8.63849L7.45294 8.89205L7.41316 8.45455H7.81089L7.77112 8.89205L8.13404 8.63849L8.33291 8.98651L7.93518 9.17045L8.33291 9.3544L8.13404 9.70241L7.77112 9.44886L7.81089 9.88636H7.41316ZM9.54256 9.88636L9.58233 9.44886L9.2194 9.70241L9.02054 9.3544L9.41827 9.17045L9.02054 8.98651L9.2194 8.63849L9.58233 8.89205L9.54256 8.45455H9.94029L9.90051 8.89205L10.2634 8.63849L10.4623 8.98651L10.0646 9.17045L10.4623 9.3544L10.2634 9.70241L9.90051 9.44886L9.94029 9.88636H9.54256ZM11.672 9.88636L11.7117 9.44886L11.3488 9.70241L11.1499 9.3544L11.5477 9.17045L11.1499 8.98651L11.3488 8.63849L11.7117 8.89205L11.672 8.45455H12.0697L12.0299 8.89205L12.3928 8.63849L12.5917 8.98651L12.194 9.17045L12.5917 9.3544L12.3928 9.70241L12.0299 9.44886L12.0697 9.88636H11.672ZM13.8013 9.88636L13.8411 9.44886L13.4782 9.70241L13.2793 9.3544L13.6771 9.17045L13.2793 8.98651L13.4782 8.63849L13.8411 8.89205L13.8013 8.45455H14.1991L14.1593 8.89205L14.5222 8.63849L14.7211 8.98651L14.3234 9.17045L14.7211 9.3544L14.5222 9.70241L14.1593 9.44886L14.1991 9.88636H13.8013ZM7.41316 13.8864L7.45294 13.4489L7.09001 13.7024L6.89115 13.3544L7.28887 13.1705L6.89115 12.9865L7.09001 12.6385L7.45294 12.892L7.41316 12.4545H7.81089L7.77112 12.892L8.13404 12.6385L8.33291 12.9865L7.93518 13.1705L8.33291 13.3544L8.13404 13.7024L7.77112 13.4489L7.81089 13.8864H7.41316ZM9.54256 13.8864L9.58233 13.4489L9.2194 13.7024L9.02054 13.3544L9.41827 13.1705L9.02054 12.9865L9.2194 12.6385L9.58233 12.892L9.54256 12.4545H9.94029L9.90051 12.892L10.2634 12.6385L10.4623 12.9865L10.0646 13.1705L10.4623 13.3544L10.2634 13.7024L9.90051 13.4489L9.94029 13.8864H9.54256ZM11.672 13.8864L11.7117 13.4489L11.3488 13.7024L11.1499 13.3544L11.5477 13.1705L11.1499 12.9865L11.3488 12.6385L11.7117 12.892L11.672 12.4545H12.0697L12.0299 12.892L12.3928 12.6385L12.5917 12.9865L12.194 13.1705L12.5917 13.3544L12.3928 13.7024L12.0299 13.4489L12.0697 13.8864H11.672ZM13.8013 13.8864L13.8411 13.4489L13.4782 13.7024L13.2793 13.3544L13.6771 13.1705L13.2793 12.9865L13.4782 12.6385L13.8411 12.892L13.8013 12.4545H14.1991L14.1593 12.892L14.5222 12.6385L14.7211 12.9865L14.3234 13.1705L14.7211 13.3544L14.5222 13.7024L14.1593 13.4489L14.1991 13.8864H13.8013Z" fill="black"/>
</g>
<rect x="1" y="1" width="58" height="21" rx="1" stroke="black" stroke-width="2"/>
<defs>
<clipPath id="clip0_29357_45260">
<rect width="60" height="23" rx="2" fill="white"/>
</clipPath>
</defs>
</svg>
