<svg width="29" height="13" viewBox="0 0 29 13" fill="none" xmlns="http://www.w3.org/2000/svg">
<g clip-path="url(#clip0_29357_45260)">
<rect width="29" height="13" rx="2" fill="white"/>
<path d="M23.207 13.0117L23.207 0.642767" stroke="black"/>
<path d="M11.9905 3.75161C11.987 3.7601 11.9833 3.76804 11.981 3.77634C11.9789 3.78336 11.9745 3.78853 11.9655 3.78631C11.9294 3.77782 11.9336 3.79665 11.9371 3.81326C11.9466 3.86033 11.9357 3.90573 11.9218 3.95133C11.9188 3.96129 11.9147 3.96812 11.9008 3.96665C11.8781 3.96425 11.8786 3.97348 11.8827 3.98658C11.8888 4.00522 11.8943 4.02405 11.8982 4.04306C11.9012 4.0582 11.8999 4.07296 11.8814 4.08312C11.8705 4.08921 11.8691 4.09881 11.8682 4.10877C11.8668 4.12483 11.8742 4.13978 11.8763 4.15916C11.8485 4.14772 11.84 4.1276 11.8266 4.1108C11.821 4.10379 11.8176 4.09068 11.8055 4.09438C11.7937 4.09807 11.8007 4.1097 11.8037 4.11782C11.8196 4.16156 11.8354 4.20549 11.8518 4.24924C11.8592 4.26862 11.8589 4.28597 11.8347 4.2976C11.818 4.30554 11.8243 4.31716 11.8263 4.32824C11.846 4.42994 11.8659 4.53146 11.8617 4.63483C11.8613 4.64756 11.8691 4.66676 11.8545 4.67156C11.8349 4.6782 11.8185 4.66251 11.8058 4.6507C11.7306 4.58093 11.6717 4.50285 11.6273 4.41813C11.5256 4.22321 11.4921 4.01981 11.5066 3.80975C11.5136 3.71045 11.5418 3.61317 11.5506 3.51424C11.5526 3.48969 11.5563 3.46533 11.5536 3.44059C11.5526 3.4321 11.5524 3.42121 11.5392 3.41955C11.5281 3.41826 11.5184 3.42416 11.5113 3.43136C11.4988 3.44391 11.4995 3.45923 11.4958 3.47382C11.4921 3.48821 11.4914 3.50833 11.4634 3.48821C11.4567 3.48341 11.4488 3.48268 11.4428 3.48803C11.4253 3.50316 11.4058 3.50021 11.3816 3.48877C11.3816 3.52513 11.3818 3.55706 11.3813 3.58899C11.3813 3.59472 11.3853 3.60321 11.3758 3.60524C11.3635 3.60782 11.3638 3.59767 11.3605 3.59176C11.3585 3.5877 11.358 3.58309 11.3559 3.57903C11.352 3.57127 11.3543 3.55706 11.342 3.5578C11.3265 3.55872 11.3263 3.57331 11.3259 3.58309C11.3249 3.61041 11.33 3.63735 11.337 3.66412C11.34 3.67593 11.3409 3.68811 11.343 3.70177C11.3136 3.69882 11.3053 3.68276 11.2972 3.66633C11.2898 3.65138 11.2886 3.63329 11.2648 3.6248C11.2498 3.6584 11.26 3.69199 11.256 3.72466C11.2549 3.73518 11.2623 3.75272 11.2473 3.75493C11.2295 3.75733 11.2278 3.73943 11.2221 3.72835C11.216 3.71672 11.2156 3.69624 11.1971 3.69864C11.1818 3.70067 11.1853 3.72042 11.1848 3.73297C11.1839 3.76158 11.1976 3.78797 11.2059 3.81529C11.21 3.82876 11.2137 3.84242 11.2188 3.86014C11.2061 3.85627 11.1973 3.85424 11.1892 3.85128C11.161 3.84113 11.1522 3.84464 11.158 3.869C11.1661 3.90334 11.1788 3.93711 11.1913 3.97071C11.1962 3.984 11.1989 3.99286 11.1758 3.99286C11.1534 3.99286 11.1529 4.00615 11.1539 4.01888C11.1555 4.04029 11.1691 4.05912 11.1765 4.07924C11.1888 4.11228 11.1939 4.1444 11.1712 4.17596C11.1645 4.18537 11.1636 4.19626 11.165 4.20679C11.1666 4.21934 11.1615 4.22746 11.1453 4.22949C11.1257 4.23207 11.1287 4.24278 11.1312 4.25348C11.1354 4.2712 11.143 4.28855 11.1416 4.3072C11.1273 4.3083 11.1229 4.30037 11.1187 4.29372C11.0547 4.19276 10.9823 4.09511 10.9271 3.99064C10.8281 3.80385 10.8563 3.62536 10.9837 3.4537C11.0219 3.4022 11.066 3.35402 11.1099 3.30585C11.1418 3.27078 11.1712 3.23497 11.1777 3.19049C11.1802 3.1724 11.1816 3.15449 11.17 3.1377C11.1571 3.14065 11.1543 3.14932 11.1497 3.1556C11.1379 3.17147 11.1257 3.1796 11.1044 3.16483C11.0884 3.15375 11.0822 3.16169 11.079 3.17424C11.0764 3.18366 11.0718 3.19289 11.0709 3.20248C11.0693 3.22094 11.0582 3.2298 11.035 3.22777C11.0184 3.22629 11.0122 3.23368 11.0068 3.24475C10.9932 3.27429 10.9784 3.30345 10.962 3.33704C10.9507 3.31822 10.9414 3.3029 10.931 3.28554C10.8961 3.31877 10.8982 3.36288 10.8686 3.39814C10.8573 3.38688 10.8473 3.37691 10.8351 3.36473C10.8238 3.38872 10.8117 3.41032 10.8034 3.43266C10.7972 3.44964 10.7865 3.45388 10.7676 3.44705C10.7502 3.44078 10.7445 3.44687 10.7415 3.45997C10.7322 3.50021 10.7216 3.54008 10.7109 3.58198C10.6911 3.57201 10.6887 3.55374 10.6709 3.54396C10.6529 3.56242 10.6527 3.58401 10.6538 3.60413C10.6568 3.65231 10.6291 3.69254 10.6058 3.73407C10.6037 3.73777 10.5984 3.74386 10.5958 3.74349C10.5577 3.73777 10.5653 3.76195 10.5637 3.77671C10.5565 3.83873 10.5433 3.90057 10.5554 3.96314C10.5588 3.98178 10.5537 3.9995 10.5408 4.01611C10.5285 4.0318 10.5193 4.02903 10.5133 4.01408C10.5022 3.98658 10.492 3.95871 10.4825 3.93084C10.446 3.82194 10.4213 3.71119 10.4208 3.59822C10.4201 3.41992 10.4994 3.26838 10.6635 3.14471C10.824 3.02381 11.002 2.9269 11.2137 2.87282C11.2681 2.85898 11.3245 2.84993 11.3767 2.83129C11.3846 2.82852 11.3971 2.82686 11.3961 2.81929C11.3952 2.81154 11.3836 2.80564 11.3739 2.806C11.3094 2.80877 11.2422 2.7929 11.1818 2.82612C11.1525 2.84237 11.1203 2.84809 11.0875 2.82705C11.0718 2.81689 10.989 2.83129 10.974 2.8444C10.9638 2.85326 10.9539 2.86249 10.9447 2.87098C10.9315 2.86821 10.9356 2.86046 10.9326 2.85547C10.9282 2.8479 10.9326 2.83554 10.9208 2.83258C10.9067 2.82908 10.8956 2.83849 10.8869 2.84569C10.8762 2.85436 10.8679 2.86489 10.8591 2.87504C10.8466 2.88925 10.8332 2.89848 10.8103 2.88722C10.79 2.87725 10.7803 2.89091 10.7706 2.90106C10.7595 2.91288 10.7491 2.91786 10.7343 2.90439C10.7232 2.89405 10.7156 2.89608 10.7091 2.909C10.6994 2.92857 10.6867 2.94702 10.677 2.96659C10.6705 2.97951 10.6626 2.98339 10.6481 2.97453C10.6319 2.96474 10.6203 2.96862 10.6108 2.98191C10.6021 2.99391 10.59 3.00443 10.584 3.01809C10.5739 3.04098 10.5554 3.05906 10.5318 3.07438C10.5105 3.08823 10.4897 3.10263 10.4747 3.12145C10.4714 3.1257 10.4652 3.1316 10.4606 3.13142C10.4211 3.12939 10.4227 3.15375 10.4169 3.17332C10.4111 3.19289 10.4051 3.21264 10.4 3.23239C10.3952 3.25177 10.3898 3.26949 10.3616 3.27724C10.3445 3.28185 10.3452 3.29699 10.3455 3.30936C10.3462 3.32947 10.3404 3.35273 10.3149 3.35273C10.2867 3.35273 10.2863 3.32597 10.2874 3.30862C10.3055 3.05648 10.4345 2.85252 10.7012 2.71021C10.8848 2.61238 11.0905 2.56605 11.3085 2.54925C11.3862 2.54335 11.4636 2.53559 11.5397 2.52009C11.5658 2.51474 11.5894 2.5068 11.6053 2.48299C11.5015 2.47745 11.4024 2.4481 11.3 2.47431C11.2873 2.47764 11.2734 2.4828 11.2616 2.47671C11.2248 2.45789 11.1955 2.47154 11.1654 2.48779C11.1566 2.49259 11.1444 2.50292 11.1351 2.48908C11.1229 2.47062 11.1072 2.47321 11.0891 2.48133C11.0251 2.51031 10.9518 2.5223 10.8832 2.53412C10.7875 2.55036 10.7255 2.60592 10.6434 2.63601C10.633 2.63988 10.6226 2.65317 10.6125 2.64524C10.6002 2.63582 10.6173 2.62641 10.6236 2.61884C10.725 2.49757 10.8552 2.39937 11.0038 2.31539C11.1714 2.2207 11.3578 2.18674 11.5603 2.20187C11.6587 2.20926 11.7575 2.21738 11.8559 2.22402C11.8742 2.22531 11.9029 2.23196 11.9084 2.2159C11.9126 2.20427 11.8844 2.19578 11.867 2.19135C11.8194 2.17898 11.7824 2.15001 11.735 2.13819C11.6879 2.12638 11.6416 2.11327 11.5982 2.09426C11.566 2.08023 11.5221 2.09002 11.4958 2.06307C11.4944 2.06159 11.4874 2.06288 11.4835 2.06418C11.4086 2.08873 11.3284 2.09519 11.2503 2.10866C11.2285 2.11235 11.21 2.12195 11.1858 2.13044C11.1892 2.10201 11.2091 2.08485 11.2311 2.07008C11.3067 2.01988 11.398 1.9968 11.4914 1.97964C11.674 1.94641 11.8425 1.97558 11.9988 2.05587C12.0552 2.08485 12.1128 2.11217 12.1773 2.12915C12.1969 2.13432 12.202 2.13284 12.2022 2.11604C12.2036 2.0483 12.2122 1.98111 12.2235 1.91393C12.2265 1.89621 12.2339 1.88846 12.2559 1.89012C12.2808 1.89196 12.2885 1.88403 12.2905 1.86335C12.2952 1.8137 12.2859 1.76294 12.3067 1.7144C12.3097 1.7072 12.3076 1.69649 12.3199 1.69538C12.3342 1.69428 12.3349 1.70627 12.3393 1.71366C12.358 1.74485 12.3504 1.77937 12.3571 1.81204C12.3604 1.82754 12.3594 1.8436 12.3615 1.85929C12.3634 1.87424 12.3659 1.88827 12.3867 1.89621C12.402 1.90211 12.404 1.91577 12.4043 1.92832C12.4047 1.9442 12.4047 1.95989 12.4052 1.97576C12.4061 1.99791 12.4103 2.0184 12.4297 2.03686C12.4503 2.05661 12.4519 2.0819 12.4507 2.107C12.4489 2.14982 12.4524 2.15314 12.5014 2.13616C12.5689 2.11272 12.6334 2.08393 12.6958 2.05273C12.8241 1.98887 12.9616 1.96229 13.1119 1.98351C13.2085 1.99717 13.2959 2.02947 13.3803 2.06805C13.4055 2.0795 13.4242 2.09722 13.436 2.11881C13.4459 2.13672 13.4388 2.14539 13.4143 2.14336C13.4036 2.14244 13.3932 2.13856 13.3828 2.13579C13.31 2.11697 13.2337 2.09648 13.1602 2.1153C13.1036 2.12989 13.0495 2.13838 12.9905 2.13967C12.9427 2.14078 12.9061 2.17012 12.8606 2.18803C12.9126 2.21996 12.9693 2.22052 13.0261 2.2183C13.0964 2.21535 13.1664 2.20889 13.2367 2.20759C13.3937 2.20464 13.5338 2.24396 13.6533 2.3248C13.7471 2.3883 13.8382 2.45475 13.924 2.52544C13.9608 2.5559 13.9892 2.59134 14.0125 2.63305C13.9892 2.62973 13.9728 2.61995 13.9559 2.61201C13.9027 2.58709 13.8475 2.5679 13.7871 2.55424C13.733 2.54205 13.6808 2.5212 13.6316 2.49794C13.6145 2.48982 13.5964 2.48317 13.577 2.47967C13.5495 2.47487 13.5227 2.47228 13.5074 2.49794C13.5012 2.50846 13.4922 2.50809 13.4811 2.50126C13.4688 2.49369 13.4552 2.48779 13.4429 2.48059C13.4267 2.47099 13.4124 2.46379 13.399 2.4841C13.3905 2.49702 13.377 2.48871 13.3676 2.4841C13.3345 2.46804 13.3026 2.45419 13.2647 2.47745C13.2571 2.48207 13.2411 2.47874 13.2291 2.47819C13.1921 2.47653 13.1565 2.4793 13.1253 2.49757C13.1165 2.50274 13.1075 2.50422 13.0973 2.50108C13.0943 2.50015 13.0911 2.49923 13.0878 2.49886C13.0696 2.4972 13.031 2.5188 13.0342 2.53098C13.0379 2.54538 13.0583 2.54464 13.0717 2.54593C13.1362 2.55184 13.2009 2.5559 13.2654 2.5607C13.3958 2.5703 13.5264 2.57823 13.6528 2.60777C13.9672 2.68086 14.1931 2.83277 14.3052 3.08251C14.3482 3.17849 14.3579 3.27871 14.3454 3.38466C14.323 3.36805 14.314 3.34922 14.302 3.33243C14.2541 3.26524 14.2072 3.19787 14.16 3.13031C14.1457 3.10982 14.1304 3.09063 14.0971 3.08915C14.0847 3.0886 14.0849 3.08121 14.083 3.07438C14.0669 3.01273 14.0125 2.97526 13.9524 2.94093C13.9497 2.93946 13.9467 2.93835 13.9436 2.93724C13.9231 2.93004 13.8967 2.93576 13.8798 2.91915C13.866 2.90568 13.8514 2.89276 13.8368 2.87928C13.8128 2.90697 13.8128 2.90697 13.786 2.88113C13.7818 2.87707 13.7774 2.87301 13.7733 2.86895C13.7446 2.84107 13.7439 2.84071 13.7164 2.87079C13.7083 2.87947 13.7032 2.8815 13.6944 2.87282C13.6875 2.86599 13.6801 2.85953 13.6736 2.85233C13.6605 2.83794 13.6512 2.82594 13.6225 2.84015C13.6015 2.85067 13.5698 2.83868 13.5442 2.8527C13.5352 2.85769 13.5204 2.83997 13.5072 2.83406C13.5019 2.83166 13.4973 2.8252 13.4903 2.82852C13.4841 2.83148 13.485 2.83775 13.4852 2.84274C13.4864 2.86802 13.5044 2.88537 13.5289 2.89848C13.6212 2.94795 13.7132 2.99741 13.8063 3.04577C13.9282 3.10909 14.0391 3.18089 14.1122 3.28444C14.1945 3.40091 14.2171 3.52716 14.2134 3.65803C14.2097 3.79111 14.17 3.91847 14.1189 4.04417C14.1112 4.06263 14.1045 4.05931 14.0916 4.0486C14.065 4.02682 14.0659 4.00135 14.0743 3.97477C14.0777 3.96369 14.083 3.95299 14.0891 3.94265C14.0978 3.9277 14.0937 3.91681 14.0747 3.9109C14.0541 3.90444 14.0516 3.89208 14.0532 3.87676C14.0551 3.85922 14.0551 3.84169 14.0567 3.82415C14.0583 3.80754 14.0604 3.79222 14.0287 3.79646C14.0165 3.79812 14.0158 3.78945 14.0158 3.78207C14.0158 3.75604 14.0063 3.73223 13.9943 3.70823C13.9811 3.68165 13.994 3.65268 13.9866 3.62499C13.9823 3.60893 13.9813 3.59213 13.979 3.57589C13.9746 3.57589 13.9721 3.57534 13.9702 3.57589C13.9252 3.59324 13.9252 3.59342 13.9208 3.553C13.9194 3.54082 13.9166 3.52845 13.9166 3.51627C13.9168 3.49117 13.9111 3.47326 13.8711 3.48305C13.8553 3.48692 13.8542 3.4764 13.8516 3.46754C13.8424 3.43469 13.8322 3.40183 13.8211 3.36436C13.8049 3.38319 13.7925 3.39777 13.7765 3.41641C13.7592 3.37451 13.7437 3.33686 13.7273 3.29699C13.7194 3.30253 13.7143 3.30548 13.7099 3.30899C13.6736 3.33723 13.6736 3.33723 13.6538 3.29847C13.6471 3.28554 13.6397 3.27262 13.6343 3.25933C13.6274 3.24161 13.6188 3.22943 13.5909 3.22722C13.5654 3.22519 13.5562 3.20433 13.5472 3.18753C13.5398 3.17406 13.5326 3.16649 13.5109 3.16907C13.4792 3.17295 13.457 3.15892 13.4397 3.13843C13.4298 3.12681 13.4189 3.10576 13.4004 3.1137C13.3805 3.12219 13.3895 3.14286 13.3967 3.15948C13.4143 3.20045 13.4517 3.23109 13.4827 3.26487C13.5458 3.33354 13.6172 3.3974 13.6709 3.47142C13.7816 3.62462 13.7971 3.78686 13.7384 3.95502C13.6958 4.07666 13.6221 4.18574 13.528 4.28671C13.5146 4.30111 13.5014 4.31643 13.4748 4.3251C13.4767 4.31015 13.4769 4.29815 13.4797 4.28652C13.4841 4.26788 13.4924 4.24887 13.4533 4.24979C13.442 4.24998 13.4436 4.24278 13.4464 4.23613C13.4517 4.22284 13.4566 4.20937 13.4612 4.19571C13.4651 4.18464 13.4702 4.17061 13.4614 4.1623C13.4332 4.13498 13.4496 4.1097 13.4621 4.08367C13.4714 4.06392 13.4797 4.04399 13.4894 4.02424C13.4973 4.00818 13.4912 4.00264 13.4709 4.0067C13.4471 4.01131 13.4429 4.00504 13.4485 3.98658C13.4614 3.94339 13.4714 3.89964 13.4827 3.85645C13.4619 3.85036 13.445 3.87676 13.4323 3.8618C13.424 3.85202 13.4323 3.83301 13.4334 3.81824C13.4348 3.80163 13.4362 3.7852 13.4378 3.76675C13.4156 3.77081 13.4099 3.7889 13.387 3.79849C13.387 3.74552 13.387 3.69624 13.387 3.64492C13.3572 3.65046 13.3567 3.66892 13.3472 3.68147C13.344 3.68571 13.3431 3.69273 13.3352 3.69291C13.3255 3.69328 13.3234 3.68571 13.3213 3.68036C13.3142 3.66172 13.316 3.64215 13.3142 3.62296C13.3116 3.59564 13.3079 3.59324 13.2802 3.60671C13.2631 3.61502 13.2622 3.60801 13.2605 3.59785C13.2578 3.57958 13.2545 3.56131 13.252 3.54285C13.2501 3.53048 13.2464 3.52107 13.2279 3.53067C13.2083 3.54082 13.2014 3.53159 13.1951 3.51848C13.1805 3.4884 13.1558 3.46606 13.1165 3.45499C13.0966 3.44945 13.0862 3.45019 13.0899 3.4716C13.1031 3.54728 13.117 3.62296 13.126 3.699C13.1512 3.91146 13.141 4.12188 13.0569 4.32676C13.016 4.42644 12.9579 4.51983 12.8858 4.60769C12.8604 4.6387 12.8285 4.6651 12.7931 4.68872C12.7822 4.68282 12.7878 4.67507 12.7873 4.66879C12.7829 4.5669 12.8012 4.46464 12.7901 4.36331C12.7818 4.28837 12.7959 4.22063 12.8326 4.15363C12.8343 4.15067 12.8345 4.14735 12.8363 4.14126C12.7975 4.14532 12.7882 4.17522 12.757 4.1911C12.7545 4.15326 12.7517 4.11893 12.7496 4.08441C12.7483 4.06244 12.748 4.04048 12.7469 4.01851C12.7448 3.98141 12.7385 3.94671 12.7087 3.91478C12.6697 3.87269 12.6766 3.81917 12.6653 3.77025C12.6636 3.76379 12.6687 3.75438 12.6595 3.75124C12.6486 3.74755 12.6424 3.75696 12.635 3.76176C12.5936 3.78963 12.5915 3.83135 12.5763 3.86845C12.5365 3.9648 12.543 4.06429 12.5476 4.16359C12.5538 4.30037 12.5585 4.43733 12.5649 4.57428C12.5807 4.90948 12.5908 5.24487 12.5931 5.58043C12.5941 5.69469 12.5959 5.80876 12.6012 5.92301C12.6052 6.00423 12.6285 6.08268 12.6734 6.15651C12.7161 6.22683 12.7189 6.2979 12.6803 6.37044C12.6322 6.4607 12.6463 6.54782 12.7094 6.62977C12.7554 6.68958 12.8067 6.7468 12.8555 6.80512C12.8715 6.82414 12.887 6.84352 12.8962 6.8653C12.9175 6.91458 12.8939 6.95076 12.831 6.96423C12.7617 6.97918 12.6909 6.98767 12.6193 6.9886C12.4168 6.991 12.2142 6.99413 12.0117 6.9897C11.9422 6.98823 11.8737 6.97937 11.8074 6.96294C11.7422 6.94688 11.7209 6.91089 11.7473 6.8605C11.7739 6.80992 11.8152 6.76636 11.8545 6.72188C11.9248 6.64232 11.9766 6.55742 11.9789 6.45737C11.9801 6.41178 11.9701 6.36822 11.9452 6.32725C11.9133 6.27501 11.9147 6.2237 11.9509 6.17367C12.0141 6.08692 12.0242 5.99075 12.0289 5.89385C12.042 5.6131 12.0487 5.33199 12.0557 5.05106C12.0614 4.81239 12.0783 4.57392 12.089 4.33525C12.0954 4.18685 12.0871 4.03845 12.0813 3.89005C12.0797 3.83836 12.039 3.78022 11.9905 3.75161Z" fill="#127043"/>
<path d="M16.6614 6.47159C16.6112 6.48212 16.5638 6.4823 16.5169 6.48581C16.2977 6.50168 16.0784 6.51331 15.8601 6.53749C15.5769 6.56887 15.2954 6.60781 15.018 6.66411C14.7702 6.71432 14.5311 6.78427 14.2969 6.86604C14.0066 6.96775 13.7236 7.08034 13.4631 7.22579C13.2342 7.35352 13.0322 7.50635 12.8355 7.6638C12.7897 7.70053 12.7446 7.73782 12.7007 7.77584C12.6679 7.80408 12.6672 7.81146 12.6965 7.84155C12.7825 7.93052 12.8692 8.01893 12.9566 8.10698C13.0817 8.23305 13.2201 8.3497 13.3572 8.46709C13.3753 8.48241 13.3956 8.49589 13.4143 8.51065C13.4307 8.52376 13.4391 8.51951 13.446 8.50383C13.4795 8.4287 13.514 8.35358 13.5479 8.27864C13.5623 8.24726 13.578 8.21662 13.6009 8.18819C13.6543 8.12156 13.7347 8.10439 13.8193 8.145C13.9042 8.18579 13.9437 8.24707 13.9368 8.32644C13.9338 8.36188 13.9058 8.38662 13.8545 8.39548C13.7331 8.41633 13.6781 8.48426 13.6538 8.57323C13.6319 8.65389 13.6538 8.72514 13.7278 8.7866C13.7976 8.84438 13.8693 8.89957 13.9548 8.9422C14.0292 8.9793 14.0468 8.97543 14.0859 8.91322C14.1085 8.87705 14.1319 8.84105 14.1712 8.81411C14.2701 8.74618 14.4232 8.7316 14.5415 8.84382C14.6314 8.9291 14.6548 9.03006 14.6412 9.13786C14.6324 9.20689 14.6 9.26946 14.5436 9.32189C14.4518 9.40735 14.33 9.42599 14.1964 9.4151C14.0558 9.40366 13.9389 9.34957 13.8249 9.28811C13.6954 9.21834 13.5641 9.15078 13.4335 9.08267C13.3942 9.06218 13.3931 9.06292 13.3588 9.08987C13.2791 9.15281 13.2077 9.22277 13.1198 9.27869C13.0031 9.35308 12.8239 9.34625 12.7284 9.263C12.629 9.17625 12.6235 9.04483 12.7661 8.95254C12.7899 8.93722 12.8174 8.93685 12.8438 8.9483C12.89 8.96841 12.9346 8.99112 12.9818 9.00994C13.0435 9.03468 13.1062 9.0225 13.1508 8.98023C13.1785 8.95402 13.1827 8.92522 13.1656 8.8944C13.1351 8.83958 13.0833 8.79731 13.0338 8.75393C12.8193 8.56548 12.6045 8.37757 12.3895 8.18948C12.369 8.1714 12.3493 8.14389 12.3218 8.14223C12.2955 8.14057 12.2772 8.16992 12.2562 8.18598C12.0687 8.32958 11.8969 8.485 11.7272 8.64189C11.6625 8.7017 11.5987 8.76205 11.5342 8.82204C11.5125 8.84216 11.4942 8.86394 11.4815 8.88849C11.4628 8.92412 11.4672 8.95752 11.5002 8.9865C11.5349 9.01696 11.5772 9.02951 11.6283 9.01659C11.6727 9.00552 11.7111 8.98429 11.7522 8.96768C11.7698 8.96048 11.7873 8.95328 11.8056 8.94737C11.8359 8.93759 11.8648 8.94091 11.8886 8.95863C11.9603 9.01198 11.9862 9.07916 11.9718 9.15484C11.9568 9.23366 11.908 9.2966 11.8084 9.3217C11.7154 9.34514 11.6281 9.32189 11.5451 9.28737C11.4561 9.25027 11.3916 9.19176 11.331 9.12974C11.3127 9.1111 11.2917 9.09411 11.2746 9.07473C11.2617 9.05997 11.2501 9.06218 11.2335 9.06938C11.1405 9.1098 11.0571 9.16167 10.9695 9.20874C10.8837 9.2547 10.8026 9.30638 10.711 9.34533C10.6042 9.39073 10.4902 9.41344 10.3684 9.40993C10.2054 9.40532 10.0831 9.32798 10.0263 9.19231C9.96779 9.05295 10.0186 8.90566 10.1583 8.81004C10.2695 8.734 10.4126 8.74544 10.5036 8.83755C10.5358 8.87003 10.5628 8.9051 10.5906 8.9398C10.6165 8.97192 10.6239 8.97487 10.6643 8.95642C10.7864 8.90123 10.889 8.82739 10.9755 8.73953C11.0044 8.71037 11.0099 8.67493 10.9977 8.63931C10.9801 8.58855 10.96 8.53853 10.9417 8.48795C10.926 8.44476 10.892 8.4167 10.8377 8.40415C10.8303 8.40249 10.8234 8.39991 10.816 8.39806C10.7235 8.3748 10.6992 8.34287 10.7163 8.2659C10.7374 8.17158 10.8513 8.11141 10.9662 8.13374C11.0189 8.14408 11.0527 8.17047 11.0702 8.21053C11.1077 8.2958 11.1445 8.38126 11.1819 8.46654C11.2071 8.52431 11.2219 8.52727 11.2732 8.48204C11.5039 8.27808 11.7268 8.06858 11.9367 7.85078C11.9647 7.82162 11.9637 7.81479 11.9369 7.78304C11.8784 7.71382 11.801 7.65882 11.727 7.60141C11.5541 7.46722 11.3719 7.34208 11.1796 7.22561C11.0083 7.12187 10.8178 7.04582 10.6259 6.97144C10.4084 6.88708 10.1867 6.80993 9.95854 6.74588C9.65524 6.6606 9.34709 6.59083 9.02808 6.55447C8.83967 6.53306 8.65034 6.51848 8.46124 6.50168C8.35398 6.49208 8.24718 6.48064 8.14014 6.46975C8.12812 6.46846 8.11587 6.46735 8.10547 6.4559C8.14176 6.44335 8.17991 6.44077 8.21666 6.43929C8.53082 6.42637 8.84337 6.39536 9.15869 6.39868C9.52833 6.40256 9.89428 6.43062 10.254 6.50131C10.4972 6.54912 10.7302 6.61926 10.9556 6.70583C11.1796 6.79203 11.4004 6.88247 11.6029 6.99894C11.7765 7.09861 11.9388 7.20899 12.0934 7.32657C12.1563 7.37438 12.2194 7.42218 12.2788 7.47257C12.3031 7.49325 12.3188 7.48974 12.3403 7.47387C12.4131 7.42034 12.4873 7.36792 12.559 7.31347C12.8632 7.08256 13.2012 6.89022 13.5775 6.74108C13.8115 6.64824 14.0544 6.57459 14.3053 6.51737C14.5707 6.45664 14.8416 6.42323 15.1169 6.40865C15.3798 6.39481 15.6424 6.40127 15.905 6.41197C16.0444 6.4177 16.184 6.42194 16.3234 6.43006C16.423 6.43597 16.5224 6.44705 16.6218 6.45609C16.6339 6.45812 16.6473 6.45978 16.6614 6.47159ZM14.2216 9.23643C14.2348 9.23643 14.2479 9.23698 14.2611 9.23624C14.3725 9.22996 14.4361 9.19213 14.4618 9.117C14.4823 9.05683 14.4447 8.97118 14.3813 8.93519C14.3265 8.904 14.2574 8.92522 14.229 8.98337C14.21 9.02194 14.1992 9.062 14.1962 9.1039C14.1934 9.14524 14.1719 9.15798 14.1208 9.15355C14.0998 9.1517 14.0803 9.14561 14.0607 9.14007C13.9391 9.10611 13.842 9.04483 13.7546 8.971C13.7063 8.93021 13.6529 8.89329 13.6027 8.85397C13.5849 8.84013 13.5757 8.84308 13.5644 8.85914C13.5375 8.89661 13.5403 8.92818 13.5771 8.96029C13.6358 9.01142 13.6987 9.05923 13.7692 9.1002C13.9042 9.17884 14.0514 9.23255 14.2216 9.23643ZM10.1911 9.07473C10.1911 9.1829 10.2505 9.23716 10.3816 9.24067C10.5115 9.24418 10.6347 9.21631 10.7475 9.16481C10.8714 9.10814 10.9727 9.02766 11.079 8.95309C11.1079 8.93279 11.1123 8.90492 11.0991 8.87557C11.0857 8.84567 11.082 8.84382 11.0497 8.86062C11.0333 8.86929 11.0173 8.87889 11.0025 8.88941C10.9112 8.95402 10.8199 9.01844 10.7297 9.08415C10.6745 9.12439 10.6118 9.1469 10.5367 9.14875C10.4764 9.15023 10.4572 9.13804 10.4493 9.09098C10.4435 9.05701 10.4354 9.02342 10.4297 8.98946C10.4234 8.9518 10.3982 8.92799 10.3515 8.92098C10.3025 8.91359 10.2618 8.92651 10.2334 8.95919C10.2022 8.99481 10.1936 9.03634 10.1911 9.07473ZM12.8734 9.05332C12.8456 9.05314 12.8281 9.06458 12.8184 9.08452C12.7985 9.12531 12.8228 9.17182 12.872 9.1912C12.9617 9.22664 13.0475 9.21557 13.1224 9.16924C13.2197 9.10906 13.2964 9.03413 13.3461 8.9422C13.4347 8.77867 13.5255 8.61605 13.6161 8.45343C13.6404 8.40969 13.676 8.37351 13.735 8.35653C13.7546 8.35081 13.7678 8.33918 13.7803 8.327C13.8078 8.30023 13.8013 8.26849 13.7636 8.24135C13.7315 8.21809 13.6952 8.2192 13.6649 8.24541C13.6346 8.27162 13.6157 8.30356 13.6 8.33641C13.5327 8.47743 13.4659 8.61845 13.4 8.76002C13.3494 8.86893 13.2791 8.96823 13.1822 9.05535C13.1427 9.09098 13.0939 9.10353 13.0366 9.09282C13.0121 9.08821 12.989 9.07935 12.9652 9.0727C12.9356 9.0644 12.906 9.05406 12.8734 9.05332ZM11.6831 9.20671C11.7104 9.20763 11.767 9.19176 11.7871 9.17754C11.8199 9.15466 11.8329 9.10353 11.8132 9.07584C11.7966 9.05258 11.7695 9.04963 11.7127 9.0644C11.6761 9.07381 11.6396 9.08359 11.6024 9.09116C11.5453 9.1026 11.4958 9.09079 11.4556 9.05609C11.4249 9.02951 11.3978 9.00072 11.3793 8.96749C11.2774 8.7866 11.1736 8.60664 11.0867 8.42076C11.0585 8.36059 11.0259 8.30226 10.9771 8.2504C10.9604 8.23268 10.9396 8.22289 10.9119 8.22769C10.8816 8.23305 10.8613 8.24763 10.8546 8.27292C10.8449 8.30965 10.8615 8.33863 10.9068 8.35413C10.9757 8.37757 11.0217 8.41763 11.0499 8.47171C11.119 8.60368 11.1891 8.73529 11.2554 8.86819C11.3079 8.97321 11.374 9.06956 11.4854 9.14303C11.5428 9.18087 11.6077 9.20357 11.6831 9.20671ZM13.3221 8.65518C13.3219 8.63506 13.3075 8.61605 13.2872 8.59907C13.1774 8.50696 13.0683 8.4143 12.958 8.32257C12.9171 8.28842 12.8789 8.25169 12.8304 8.22382C12.8195 8.21754 12.8063 8.21366 12.7971 8.22012C12.7879 8.22659 12.8015 8.23341 12.805 8.24006C12.808 8.2456 12.8124 8.25077 12.817 8.25575C12.949 8.40471 13.0812 8.55348 13.2134 8.70243C13.225 8.71554 13.2386 8.72661 13.2571 8.73363C13.2666 8.73713 13.277 8.74027 13.2833 8.73123C13.2994 8.70834 13.3202 8.68711 13.3221 8.65518ZM11.8227 8.22234C11.8162 8.21846 11.813 8.22142 11.8091 8.22271C11.7663 8.23637 11.7397 8.26479 11.7101 8.29063C11.5906 8.39474 11.4713 8.49884 11.3518 8.60295C11.3366 8.61623 11.3255 8.63119 11.3206 8.64872C11.3125 8.6777 11.3366 8.71332 11.3754 8.72495C11.4054 8.734 11.4087 8.70594 11.4263 8.69708C11.4272 8.69671 11.4276 8.69579 11.4283 8.69505C11.5557 8.56714 11.6704 8.43239 11.7769 8.29303C11.7945 8.27033 11.8128 8.24763 11.8227 8.22234Z" fill="#A67C1D"/>
<path d="M25.398 2.8148C25.397 2.81694 25.396 2.81892 25.3954 2.82106C25.3948 2.82281 25.3936 2.82411 25.3911 2.82358C25.3813 2.82144 25.3825 2.82617 25.3834 2.83037C25.386 2.8422 25.383 2.85366 25.3793 2.86511C25.3784 2.86763 25.3773 2.86938 25.3735 2.869C25.3673 2.86839 25.3675 2.87076 25.3686 2.87404C25.3703 2.87877 25.3718 2.88351 25.3728 2.88824C25.3737 2.89206 25.3733 2.89572 25.3683 2.89832C25.3653 2.89984 25.365 2.90229 25.3648 2.9048C25.3644 2.90885 25.3664 2.91259 25.3669 2.91748C25.3594 2.91458 25.357 2.90954 25.3534 2.90526C25.3519 2.90351 25.3509 2.90022 25.3477 2.90114C25.3445 2.90206 25.3464 2.90496 25.3472 2.90702C25.3515 2.91809 25.3558 2.92908 25.3603 2.94007C25.3623 2.94496 25.3623 2.94931 25.3557 2.95229C25.3511 2.95427 25.3529 2.95718 25.3534 2.96C25.3588 2.98557 25.3642 3.01115 25.363 3.03718C25.3629 3.04039 25.365 3.0452 25.3611 3.04642C25.3557 3.0481 25.3512 3.04413 25.3477 3.04115C25.3272 3.02359 25.3112 3.0039 25.2991 2.9826C25.2714 2.93351 25.2623 2.88228 25.2662 2.82938C25.2681 2.80434 25.2758 2.77991 25.2782 2.75495C25.2789 2.74876 25.2798 2.74258 25.2791 2.7364C25.2788 2.73426 25.2788 2.73151 25.2751 2.73113C25.2721 2.73075 25.2694 2.73227 25.2675 2.73411C25.2641 2.73724 25.2643 2.74113 25.2632 2.74479C25.2622 2.74846 25.2621 2.7535 25.2545 2.74846C25.2526 2.74724 25.2505 2.74708 25.2489 2.74838C25.2441 2.7522 25.2388 2.75143 25.2321 2.74853C25.2321 2.75769 25.2321 2.76571 25.2321 2.7738C25.2321 2.77525 25.2332 2.77739 25.2306 2.77785C25.2273 2.77846 25.2273 2.77594 25.2264 2.77441C25.2258 2.77342 25.2257 2.77228 25.2252 2.77121C25.2242 2.7693 25.2248 2.76571 25.2215 2.76586C25.2172 2.76609 25.2171 2.76976 25.2171 2.77228C25.2169 2.77915 25.2183 2.78594 25.2201 2.79266C25.221 2.79564 25.2212 2.79869 25.2218 2.80213C25.2138 2.80136 25.2115 2.79739 25.2093 2.79319C25.2073 2.78945 25.207 2.78487 25.2005 2.78273C25.1963 2.79121 25.1991 2.79961 25.1981 2.80785C25.1978 2.81052 25.1999 2.81495 25.1957 2.81549C25.1909 2.8161 25.1905 2.81159 25.1889 2.80877C25.1872 2.80587 25.1871 2.80067 25.1821 2.80129C25.1779 2.80174 25.1789 2.80678 25.1788 2.80991C25.1785 2.81716 25.1822 2.82381 25.1845 2.8306C25.1856 2.83396 25.1866 2.8374 25.188 2.8419C25.1845 2.84091 25.1822 2.84037 25.1799 2.83969C25.1722 2.83717 25.1698 2.83801 25.1714 2.84411C25.1736 2.85274 25.1771 2.86129 25.1804 2.86976C25.1818 2.87312 25.1825 2.87534 25.1762 2.87534C25.1701 2.87534 25.17 2.8787 25.1702 2.8819C25.1707 2.88732 25.1743 2.89206 25.1764 2.89709C25.1797 2.90542 25.1811 2.91351 25.1749 2.92145C25.1732 2.92381 25.1729 2.92656 25.1732 2.92923C25.1736 2.93236 25.1723 2.93443 25.1678 2.93496C25.1624 2.93565 25.1633 2.93832 25.164 2.94099C25.1651 2.94549 25.1672 2.94985 25.1668 2.9545C25.1628 2.95481 25.1617 2.95275 25.1605 2.95107C25.1431 2.92565 25.1233 2.90106 25.1083 2.87473C25.0813 2.8277 25.0889 2.78273 25.1237 2.73952C25.1341 2.72655 25.1461 2.71441 25.158 2.70227C25.1667 2.69341 25.1746 2.68441 25.1764 2.67318C25.1771 2.6686 25.1774 2.6641 25.1743 2.6599C25.1708 2.66066 25.1701 2.6628 25.1687 2.66441C25.1655 2.66837 25.1622 2.67044 25.1563 2.6667C25.152 2.66387 25.1502 2.66586 25.1494 2.66906C25.1488 2.67143 25.1474 2.67379 25.1472 2.67616C25.1468 2.68082 25.1437 2.68303 25.1375 2.6825C25.133 2.68212 25.1312 2.68395 25.1299 2.68677C25.1261 2.69418 25.1221 2.70158 25.1177 2.71006C25.1146 2.70532 25.1121 2.70143 25.1092 2.69708C25.0997 2.70548 25.1003 2.71655 25.0922 2.7254C25.0891 2.72258 25.0864 2.72006 25.0831 2.717C25.08 2.72304 25.0767 2.72846 25.0745 2.73411C25.0729 2.73838 25.07 2.73945 25.0648 2.73777C25.0601 2.73617 25.0585 2.73769 25.0577 2.74105C25.0551 2.75113 25.0522 2.76121 25.0494 2.77174C25.044 2.76922 25.0434 2.76464 25.0386 2.76212C25.0336 2.76678 25.0336 2.7722 25.0339 2.77731C25.0347 2.78945 25.0272 2.79953 25.0209 2.80999C25.0204 2.8109 25.0189 2.81243 25.0182 2.81236C25.0077 2.8109 25.0099 2.81701 25.0094 2.82068C25.0074 2.83625 25.0039 2.85182 25.0071 2.86763C25.0081 2.87228 25.0067 2.87679 25.0032 2.88099C24.9999 2.88496 24.9973 2.88419 24.9957 2.88045C24.9927 2.8735 24.9899 2.86648 24.9873 2.85946C24.9774 2.83205 24.9706 2.80411 24.9704 2.77571C24.9702 2.73082 24.9918 2.69265 25.0365 2.6615C25.0802 2.63104 25.1286 2.60661 25.1863 2.59303C25.2011 2.58951 25.2164 2.5873 25.2308 2.58257C25.2329 2.58188 25.2364 2.58142 25.236 2.57959C25.2357 2.57768 25.2326 2.57615 25.2299 2.57623C25.2124 2.57692 25.1941 2.57295 25.1776 2.58127C25.1696 2.58532 25.1609 2.58677 25.1519 2.5815C25.1476 2.57898 25.1251 2.58257 25.121 2.58585C25.1182 2.58806 25.1155 2.59043 25.113 2.59257C25.1095 2.59188 25.1105 2.5899 25.1097 2.58867C25.1085 2.58677 25.1097 2.58364 25.1065 2.58295C25.1027 2.58203 25.0997 2.5844 25.0972 2.58623C25.0943 2.58837 25.092 2.59104 25.0896 2.59364C25.0862 2.59722 25.0826 2.59951 25.0763 2.59669C25.0708 2.59417 25.0681 2.59761 25.0654 2.6002C25.0624 2.60318 25.0596 2.60448 25.0556 2.60104C25.0526 2.59845 25.0506 2.59898 25.0488 2.60219C25.0461 2.60707 25.0427 2.61181 25.04 2.61669C25.0383 2.61997 25.0361 2.62089 25.0322 2.61868C25.0277 2.61623 25.0246 2.61723 25.022 2.62051C25.0196 2.62356 25.0163 2.62616 25.0147 2.62959C25.0119 2.63532 25.0069 2.6399 25.0004 2.64379C24.9946 2.64723 24.9889 2.65089 24.9848 2.65563C24.9839 2.65669 24.9822 2.65814 24.981 2.65814C24.9702 2.65761 24.9706 2.66379 24.9691 2.66868C24.9675 2.67364 24.9659 2.67853 24.9644 2.68357C24.9631 2.68845 24.9616 2.69288 24.954 2.69487C24.9493 2.69601 24.9495 2.69983 24.9495 2.70296C24.9497 2.708 24.9481 2.71387 24.9412 2.71387C24.9335 2.71387 24.9333 2.70708 24.9337 2.7028C24.9386 2.63929 24.9737 2.58791 25.0464 2.55211C25.0965 2.52745 25.1525 2.51584 25.2118 2.51157C25.2329 2.51004 25.254 2.50813 25.2747 2.50424C25.2819 2.50294 25.2883 2.50088 25.2926 2.49493C25.2643 2.49355 25.2373 2.48615 25.2094 2.49271C25.206 2.49355 25.2021 2.49485 25.1989 2.49332C25.1889 2.48859 25.1809 2.49203 25.1728 2.49615C25.1704 2.49737 25.1671 2.49996 25.1645 2.49653C25.1612 2.49187 25.1568 2.49248 25.152 2.49454C25.1346 2.50187 25.1147 2.50485 25.0958 2.50783C25.0698 2.51195 25.0528 2.52592 25.0306 2.53348C25.0278 2.5344 25.0249 2.53783 25.0221 2.53585C25.0188 2.53348 25.0235 2.53111 25.0251 2.5292C25.0527 2.49867 25.0882 2.47393 25.1287 2.45279C25.1744 2.42897 25.2251 2.42042 25.2802 2.42423C25.3071 2.42607 25.3339 2.42813 25.3607 2.42981C25.3657 2.43011 25.3735 2.43179 25.375 2.42782C25.3762 2.42492 25.3685 2.42278 25.3637 2.42164C25.3508 2.41851 25.3407 2.41126 25.3278 2.40828C25.3149 2.4053 25.3023 2.40202 25.2904 2.39721C25.2816 2.39362 25.2698 2.39614 25.2625 2.38935C25.2621 2.38896 25.2602 2.38927 25.2592 2.38958C25.2388 2.39576 25.217 2.39736 25.1957 2.4008C25.1898 2.40171 25.1848 2.40416 25.1781 2.40629C25.1791 2.39912 25.1845 2.39477 25.1905 2.3911C25.211 2.37843 25.2358 2.37263 25.2614 2.36835C25.3111 2.35995 25.357 2.36736 25.3995 2.38759C25.4149 2.39492 25.4305 2.40179 25.4481 2.40606C25.4535 2.40736 25.4548 2.40698 25.4549 2.40278C25.4554 2.38576 25.4576 2.36881 25.4607 2.35194C25.4616 2.34751 25.4636 2.34553 25.4695 2.34591C25.4763 2.34637 25.4784 2.34438 25.4789 2.33919C25.4802 2.32667 25.4777 2.31392 25.4834 2.30171C25.4842 2.29987 25.4837 2.2972 25.487 2.2969C25.4909 2.29659 25.491 2.29964 25.4923 2.30148C25.4973 2.30934 25.4953 2.31804 25.4971 2.32629C25.498 2.33018 25.4977 2.33423 25.4983 2.3382C25.4988 2.34194 25.4995 2.34553 25.5051 2.34751C25.5092 2.34896 25.5097 2.3524 25.5098 2.3556C25.5099 2.35957 25.5099 2.36354 25.5102 2.36759C25.5104 2.37316 25.5116 2.37835 25.5168 2.38301C25.5224 2.38797 25.5228 2.39438 25.5225 2.40072C25.5219 2.41148 25.5229 2.41232 25.5362 2.40805C25.5546 2.40217 25.5721 2.39484 25.5891 2.38706C25.6241 2.37095 25.6615 2.36431 25.7025 2.36965C25.7287 2.37308 25.7526 2.38125 25.7756 2.39095C25.7824 2.39385 25.7876 2.39828 25.7908 2.4037C25.7935 2.4082 25.7915 2.41042 25.7849 2.40988C25.782 2.40965 25.7792 2.40866 25.7763 2.40797C25.7564 2.40324 25.7357 2.39805 25.7156 2.40286C25.7002 2.40652 25.6855 2.40866 25.6694 2.40897C25.6564 2.40919 25.6464 2.41668 25.634 2.42118C25.6482 2.42927 25.6636 2.42935 25.6791 2.42881C25.6982 2.42805 25.7174 2.42645 25.7365 2.42614C25.7792 2.42538 25.8174 2.4353 25.8499 2.45561C25.8755 2.47164 25.9003 2.48828 25.9236 2.50615C25.9337 2.51378 25.9414 2.52272 25.9477 2.53325C25.9413 2.53241 25.9369 2.52997 25.9323 2.52798C25.9178 2.52172 25.9028 2.51691 25.8864 2.51348C25.8716 2.51042 25.8575 2.50516 25.844 2.49928C25.8394 2.49722 25.8345 2.49554 25.8291 2.4947C25.8217 2.49348 25.8143 2.49279 25.8102 2.49928C25.8085 2.50195 25.8061 2.5018 25.8031 2.50012C25.7998 2.49821 25.796 2.49676 25.7926 2.49493C25.7882 2.49248 25.7844 2.49073 25.7806 2.49577C25.7784 2.49897 25.7746 2.49691 25.7721 2.49577C25.7631 2.49172 25.7544 2.48821 25.744 2.49409C25.742 2.49523 25.7376 2.49439 25.7343 2.49432C25.7242 2.49393 25.7146 2.49462 25.7061 2.4992C25.7037 2.5005 25.7012 2.50088 25.6985 2.50012C25.6977 2.49989 25.6968 2.49966 25.696 2.49958C25.691 2.4992 25.6804 2.50462 25.6814 2.50768C25.6824 2.51134 25.6879 2.51111 25.6916 2.51142C25.7092 2.51287 25.7268 2.51394 25.7443 2.51516C25.7798 2.5176 25.8155 2.51958 25.8499 2.52699C25.9355 2.54539 25.997 2.58364 26.0276 2.64654C26.0392 2.67074 26.0419 2.69593 26.0385 2.72265C26.0324 2.71845 26.0299 2.71372 26.0267 2.70952C26.0137 2.69265 26.0009 2.67563 25.9881 2.6586C25.9841 2.65341 25.98 2.6486 25.9709 2.64822C25.9675 2.64807 25.9676 2.64624 25.9671 2.64448C25.9627 2.62898 25.9478 2.61952 25.9315 2.61089C25.9308 2.61051 25.9299 2.6102 25.9291 2.60997C25.9235 2.60814 25.9164 2.60959 25.9117 2.60547C25.908 2.60203 25.904 2.59883 25.9001 2.59547C25.8935 2.60242 25.8935 2.60242 25.8862 2.59593C25.8851 2.59493 25.8839 2.59387 25.8828 2.59287C25.8749 2.58585 25.8748 2.58577 25.8673 2.59333C25.8651 2.59554 25.8637 2.596 25.8613 2.59379C25.8594 2.59203 25.8574 2.59043 25.8556 2.58867C25.852 2.58501 25.8495 2.58203 25.8417 2.58562C25.836 2.58829 25.8274 2.58524 25.8203 2.58875C25.8179 2.58997 25.8138 2.58554 25.8102 2.58409C25.8088 2.58348 25.8075 2.58188 25.8056 2.58272C25.8039 2.58341 25.8041 2.58501 25.8042 2.58631C25.8045 2.59264 25.8094 2.59707 25.8161 2.60035C25.8412 2.6128 25.8663 2.62524 25.8916 2.63746C25.9248 2.65341 25.955 2.6715 25.9749 2.69754C25.9974 2.72685 26.0035 2.75869 26.0025 2.79167C26.0015 2.82518 25.9907 2.85724 25.9768 2.88893C25.9747 2.89358 25.9729 2.89274 25.9693 2.88999C25.9621 2.8845 25.9624 2.87809 25.9646 2.87144C25.9655 2.8687 25.967 2.86595 25.9686 2.86335C25.971 2.85961 25.9699 2.85686 25.9647 2.85534C25.9591 2.85373 25.9584 2.8506 25.9589 2.84671C25.9594 2.84228 25.9594 2.83785 25.9598 2.83343C25.9602 2.82923 25.9609 2.82541 25.9523 2.82648C25.949 2.82686 25.9488 2.82472 25.9488 2.82281C25.9488 2.81625 25.9462 2.81029 25.9429 2.80426C25.9393 2.79754 25.9428 2.79022 25.9408 2.78327C25.9397 2.77922 25.9394 2.77502 25.9387 2.7709C25.9375 2.7709 25.9369 2.77075 25.9364 2.7709C25.9241 2.77533 25.9241 2.77533 25.9229 2.7651C25.9226 2.76205 25.9218 2.75892 25.9218 2.75586C25.9218 2.74953 25.9202 2.74502 25.9094 2.74754C25.9051 2.74853 25.9048 2.74586 25.9041 2.74365C25.9015 2.7354 25.8988 2.72708 25.8958 2.71761C25.8915 2.72235 25.8881 2.72601 25.8837 2.73075C25.8791 2.72021 25.8748 2.71074 25.8703 2.70067C25.8681 2.70204 25.8668 2.7028 25.8655 2.70372C25.8557 2.71082 25.8557 2.71082 25.8502 2.70113C25.8484 2.69784 25.8464 2.69464 25.845 2.69128C25.8431 2.68677 25.8407 2.68372 25.8332 2.68318C25.8262 2.68273 25.8238 2.67738 25.8213 2.67318C25.8192 2.66975 25.8172 2.66792 25.8115 2.66853C25.8029 2.66952 25.7968 2.66601 25.792 2.66082C25.7893 2.65792 25.7863 2.65257 25.7813 2.65456C25.7759 2.65669 25.7783 2.66189 25.7802 2.66608C25.785 2.67639 25.7952 2.6841 25.8037 2.69265C25.8209 2.7099 25.8403 2.72601 25.8549 2.74464C25.8851 2.78319 25.8893 2.82404 25.8733 2.8664C25.8617 2.89702 25.8416 2.9245 25.816 2.94992C25.8124 2.95351 25.8088 2.9574 25.8015 2.95962C25.802 2.95588 25.802 2.95282 25.8029 2.94992C25.8041 2.94519 25.8064 2.94046 25.7957 2.94069C25.7926 2.94076 25.7932 2.93893 25.7938 2.93725C25.7952 2.93389 25.7966 2.93046 25.7978 2.9271C25.7988 2.92427 25.8003 2.92076 25.7979 2.9187C25.7903 2.91183 25.7947 2.90549 25.7981 2.89893C25.8007 2.89396 25.8029 2.88893 25.8056 2.88396C25.8077 2.87992 25.8061 2.87854 25.8005 2.87954C25.794 2.88068 25.7928 2.87915 25.7944 2.8745C25.7979 2.86366 25.8006 2.85259 25.8037 2.84175C25.798 2.84022 25.7935 2.84686 25.7899 2.84312C25.7877 2.84068 25.7899 2.83587 25.7903 2.83213C25.7906 2.82793 25.791 2.82381 25.7915 2.81915C25.7855 2.82022 25.7838 2.82472 25.7776 2.82709C25.7776 2.81373 25.7776 2.80136 25.7776 2.78838C25.7696 2.78976 25.7695 2.79441 25.7668 2.79762C25.7659 2.79869 25.7656 2.80045 25.7636 2.80052C25.7609 2.8006 25.7604 2.79869 25.7599 2.79732C25.7579 2.79258 25.7584 2.7877 25.7579 2.78281C25.7572 2.77594 25.7562 2.77533 25.7487 2.77869C25.744 2.78075 25.7437 2.77899 25.7433 2.77647C25.7425 2.77189 25.7417 2.76724 25.7409 2.76266C25.7404 2.75953 25.7394 2.75716 25.7343 2.7596C25.7289 2.7622 25.7271 2.75983 25.7253 2.75655C25.7214 2.74899 25.7146 2.74334 25.7039 2.74059C25.6984 2.73922 25.6956 2.73937 25.6967 2.74479C25.7003 2.76388 25.704 2.78289 25.7065 2.80205C25.7134 2.85556 25.7106 2.90855 25.6877 2.96015C25.6765 2.98527 25.6608 3.00878 25.6411 3.03092C25.6341 3.03871 25.6254 3.04535 25.6158 3.05138C25.6129 3.04985 25.6144 3.04795 25.6143 3.04634C25.613 3.02069 25.6181 2.99489 25.615 2.96947C25.6127 2.95061 25.6165 2.93351 25.6266 2.91664C25.627 2.91587 25.6271 2.91503 25.6276 2.91351C25.6171 2.9145 25.6146 2.92206 25.606 2.9261C25.6053 2.91656 25.6046 2.90793 25.604 2.89923C25.6037 2.89373 25.6036 2.88816 25.6033 2.88267C25.6028 2.87335 25.601 2.86457 25.593 2.85656C25.5823 2.84595 25.5843 2.83251 25.5812 2.82014C25.5808 2.81846 25.5821 2.8161 25.5796 2.81533C25.5766 2.81442 25.575 2.81678 25.573 2.818C25.5617 2.82503 25.5612 2.83556 25.557 2.84488C25.5461 2.86915 25.548 2.89419 25.5491 2.91916C25.5508 2.95359 25.5521 2.98809 25.5539 3.02252C25.5582 3.10696 25.5609 3.19139 25.5616 3.2759C25.5619 3.30468 25.5624 3.33339 25.5638 3.36217C25.5649 3.38263 25.5713 3.4024 25.5835 3.42095C25.595 3.43866 25.5959 3.45653 25.5853 3.47485C25.5723 3.4976 25.5761 3.51951 25.5933 3.54012C25.6058 3.55516 25.6198 3.56959 25.6331 3.58425C25.6374 3.58906 25.6417 3.59394 25.6442 3.59936C25.6499 3.61173 25.6435 3.62089 25.6264 3.62432C25.6076 3.62807 25.5882 3.6302 25.5687 3.63043C25.5136 3.63104 25.4584 3.63181 25.4032 3.63074C25.3843 3.63036 25.3657 3.62814 25.3476 3.62402C25.3298 3.61997 25.324 3.61089 25.3313 3.59822C25.3385 3.58547 25.3498 3.57447 25.3604 3.56333C25.3796 3.54333 25.3936 3.52195 25.3944 3.49676C25.3947 3.48531 25.392 3.47431 25.3851 3.46401C25.3765 3.45088 25.3769 3.4379 25.3867 3.4253C25.4039 3.40347 25.4067 3.37927 25.4079 3.35484C25.4115 3.28415 25.4134 3.21338 25.4152 3.14261C25.4168 3.08253 25.4214 3.02245 25.4243 2.96237C25.4261 2.92496 25.4238 2.88763 25.4223 2.85022C25.4223 2.83663 25.4112 2.82197 25.398 2.8148Z" fill="black"/>
<path d="M26.6702 3.50268C26.6566 3.50528 26.6436 3.50536 26.6309 3.50627C26.5712 3.51032 26.5115 3.51322 26.452 3.51933C26.3749 3.52727 26.2982 3.53704 26.2227 3.55116C26.1553 3.56383 26.0901 3.58139 26.0263 3.602C25.9473 3.62758 25.8702 3.65598 25.7993 3.69262C25.7369 3.72484 25.6819 3.76331 25.6284 3.80294C25.6159 3.81217 25.6037 3.82156 25.5917 3.83118C25.5828 3.83828 25.5826 3.84011 25.5905 3.84775C25.614 3.87012 25.6376 3.89241 25.6614 3.91462C25.6954 3.94638 25.7331 3.9757 25.7704 4.00532C25.7753 4.00921 25.7809 4.01257 25.786 4.01631C25.7904 4.01959 25.7927 4.01852 25.7945 4.01455C25.8037 3.99562 25.813 3.97677 25.8222 3.95783C25.8261 3.94989 25.8304 3.94218 25.8366 3.93508C25.8512 3.91829 25.8731 3.91394 25.8962 3.92424C25.9193 3.93455 25.9301 3.94997 25.9281 3.96989C25.9273 3.97883 25.9197 3.98509 25.9057 3.9873C25.8726 3.99257 25.8576 4.00967 25.851 4.03204C25.845 4.05234 25.851 4.07028 25.8712 4.08578C25.8902 4.10036 25.9097 4.11426 25.933 4.12494C25.9532 4.13426 25.9581 4.13334 25.9687 4.11769C25.9749 4.10853 25.9812 4.09952 25.9919 4.09273C26.0189 4.07563 26.0605 4.07196 26.0927 4.10021C26.1172 4.12166 26.1235 4.14708 26.1198 4.17426C26.1174 4.19167 26.1085 4.20739 26.0932 4.2206C26.0682 4.24213 26.0351 4.24679 25.9987 4.24404C25.9605 4.24114 25.9286 4.22755 25.8976 4.21205C25.8624 4.19449 25.8266 4.17747 25.791 4.16029C25.7803 4.1551 25.78 4.15533 25.7706 4.16212C25.7489 4.178 25.7295 4.19556 25.7055 4.20968C25.6737 4.22839 25.625 4.22671 25.5989 4.20571C25.5718 4.18388 25.5704 4.15075 25.6091 4.12754C25.6157 4.12365 25.6231 4.12357 25.6302 4.12647C25.6428 4.13151 25.6549 4.13724 25.6678 4.14197C25.6846 4.14823 25.7016 4.1451 25.7138 4.13449C25.7213 4.12785 25.7225 4.12067 25.7178 4.11288C25.7095 4.09906 25.6954 4.08845 25.6819 4.07746C25.6235 4.03005 25.565 3.98264 25.5065 3.93531C25.5009 3.93073 25.4955 3.92386 25.4881 3.9234C25.4808 3.92302 25.476 3.93035 25.4702 3.93447C25.4191 3.97066 25.3724 4.00975 25.3261 4.04929C25.3086 4.06433 25.2911 4.0796 25.2735 4.09464C25.2676 4.09968 25.2627 4.10517 25.2591 4.11136C25.2541 4.12036 25.2552 4.12876 25.2642 4.13601C25.2736 4.14365 25.2852 4.14685 25.2991 4.14357C25.3112 4.14075 25.3216 4.1354 25.3328 4.13128C25.3375 4.12953 25.3424 4.12762 25.3473 4.12617C25.3556 4.12372 25.3635 4.12456 25.37 4.12899C25.3895 4.14243 25.3966 4.15937 25.3926 4.17838C25.3885 4.19823 25.3753 4.21404 25.3482 4.22037C25.3228 4.22625 25.2991 4.22045 25.2765 4.21174C25.2523 4.20243 25.2347 4.18762 25.2182 4.17205C25.2132 4.16731 25.2074 4.16304 25.2029 4.15823C25.1994 4.15457 25.1962 4.15502 25.1917 4.15686C25.1664 4.16701 25.1437 4.18006 25.1199 4.1919C25.0965 4.2035 25.0745 4.21648 25.0495 4.22633C25.0203 4.23778 24.9894 4.2435 24.9562 4.24259C24.9118 4.24144 24.8785 4.22197 24.863 4.18777C24.8471 4.15273 24.861 4.11555 24.899 4.09151C24.9293 4.07235 24.9683 4.07525 24.9931 4.09845C25.0019 4.10662 25.0092 4.11548 25.0168 4.12426C25.0238 4.13235 25.0259 4.13304 25.0368 4.12846C25.0701 4.11456 25.0981 4.09593 25.1215 4.07387C25.1294 4.06647 25.1309 4.05761 25.1275 4.04868C25.1228 4.03593 25.1173 4.02326 25.1122 4.01058C25.108 3.99967 25.0987 3.99264 25.0839 3.98944C25.0819 3.98898 25.08 3.98837 25.078 3.98791C25.0528 3.98203 25.0463 3.97402 25.0509 3.95463C25.0566 3.93088 25.0877 3.91577 25.1189 3.92134C25.1333 3.92394 25.1425 3.93058 25.1473 3.94066C25.1575 3.96211 25.1675 3.98364 25.1777 4.00516C25.1845 4.01967 25.1886 4.02051 25.2025 4.00906C25.2653 3.95768 25.326 3.90493 25.3832 3.85004C25.3909 3.84271 25.3906 3.84095 25.3832 3.83301C25.3673 3.81561 25.3462 3.80171 25.326 3.78729C25.279 3.75347 25.2294 3.72194 25.1769 3.6927C25.1303 3.66659 25.0784 3.64743 25.0262 3.62865C24.9669 3.60742 24.9066 3.58796 24.8444 3.57185C24.7618 3.5504 24.678 3.53276 24.591 3.52368C24.5397 3.51826 24.4881 3.51459 24.4366 3.51039C24.4075 3.50795 24.3783 3.50505 24.3493 3.50238C24.346 3.50207 24.3426 3.50177 24.3398 3.49887C24.3498 3.49574 24.3601 3.49505 24.3701 3.49467C24.4556 3.49139 24.5408 3.4836 24.6267 3.48444C24.7274 3.48543 24.8269 3.49245 24.925 3.51032C24.9912 3.52238 25.0546 3.54001 25.116 3.56185C25.177 3.58353 25.2371 3.60636 25.2923 3.63567C25.3396 3.66079 25.3838 3.68858 25.4259 3.7182C25.4431 3.73026 25.4603 3.74224 25.4764 3.75499C25.483 3.76018 25.4872 3.75934 25.4931 3.7553C25.513 3.74179 25.5331 3.72865 25.5527 3.71491C25.6355 3.65682 25.7275 3.60834 25.83 3.57078C25.8937 3.54742 25.9599 3.52887 26.0282 3.51444C26.1005 3.49917 26.1743 3.4907 26.2493 3.48711C26.3208 3.4836 26.3924 3.48528 26.4639 3.48795C26.5019 3.4894 26.5399 3.49047 26.5779 3.49253C26.6051 3.49398 26.632 3.49681 26.6591 3.4991C26.6627 3.49932 26.6664 3.49971 26.6702 3.50268ZM26.0057 4.19892C26.0093 4.19892 26.0129 4.19907 26.0164 4.19892C26.0467 4.19739 26.0641 4.18785 26.0711 4.16892C26.0767 4.15373 26.0665 4.1322 26.0492 4.12311C26.0343 4.11525 26.0155 4.12059 26.0077 4.13525C26.0026 4.14495 25.9996 4.1551 25.9988 4.16556C25.998 4.17594 25.9922 4.17915 25.9783 4.17808C25.9726 4.17762 25.9672 4.17609 25.9619 4.17472C25.9288 4.16617 25.9024 4.15075 25.8786 4.13212C25.8655 4.12189 25.8509 4.11258 25.8372 4.10265C25.8324 4.09914 25.8299 4.0999 25.8268 4.10395C25.8195 4.11342 25.8202 4.12136 25.8302 4.12945C25.8462 4.14235 25.8634 4.15441 25.8825 4.16464C25.9193 4.18441 25.9593 4.198 26.0057 4.19892ZM24.9081 4.15823C24.9081 4.18548 24.9243 4.19915 24.9599 4.19999C24.9953 4.20083 25.0289 4.19388 25.0596 4.1809C25.0934 4.16663 25.1209 4.1464 25.1499 4.12762C25.1577 4.1225 25.1588 4.11548 25.1553 4.10807C25.1517 4.10052 25.1507 4.10006 25.1419 4.10433C25.1374 4.10647 25.1331 4.10891 25.1291 4.11158C25.1043 4.12785 25.0793 4.14411 25.0547 4.1606C25.0397 4.17075 25.0227 4.1764 25.0022 4.17686C24.9858 4.17724 24.9806 4.17419 24.9784 4.16228C24.9769 4.15373 24.9746 4.14525 24.973 4.1367C24.9713 4.12723 24.9645 4.1212 24.9517 4.11945C24.9384 4.11762 24.9273 4.12082 24.9196 4.12907C24.9111 4.13808 24.9088 4.14853 24.9081 4.15823ZM25.6386 4.15289C25.6311 4.15281 25.6262 4.15571 25.6236 4.16075C25.6182 4.17105 25.6248 4.18274 25.6382 4.18762C25.6626 4.19655 25.686 4.19373 25.7063 4.18205C25.7328 4.16686 25.7537 4.14808 25.7672 4.12487C25.7913 4.08372 25.8161 4.04272 25.8408 4.00181C25.8474 3.99081 25.8571 3.98173 25.8731 3.97738C25.8785 3.97593 25.882 3.97295 25.8854 3.96989C25.893 3.96318 25.8912 3.95516 25.8809 3.94837C25.8721 3.94256 25.8623 3.94279 25.854 3.94944C25.8457 3.956 25.8405 3.96409 25.8363 3.97234C25.818 4.00784 25.7998 4.04341 25.7818 4.07899C25.768 4.10639 25.7489 4.13143 25.7226 4.15334C25.7118 4.16228 25.6985 4.16548 25.683 4.16273C25.6764 4.16159 25.67 4.1593 25.6635 4.15769C25.6555 4.15563 25.6475 4.15304 25.6386 4.15289ZM25.3145 4.19144C25.3219 4.19167 25.3373 4.1877 25.3428 4.18411C25.3517 4.17831 25.3553 4.16548 25.3499 4.15846C25.3454 4.15258 25.338 4.15189 25.3225 4.15556C25.3126 4.15792 25.3026 4.16044 25.2924 4.16228C25.2769 4.16518 25.2634 4.1622 25.2524 4.15342C25.244 4.1467 25.2367 4.13945 25.2316 4.13113C25.2039 4.08563 25.1756 4.04028 25.1519 3.99341C25.1443 3.97822 25.1354 3.96356 25.122 3.9505C25.1175 3.94608 25.1118 3.94356 25.1043 3.94478C25.096 3.94608 25.0904 3.94982 25.0886 3.95615C25.086 3.96539 25.0906 3.97272 25.1029 3.97661C25.1216 3.98249 25.1342 3.99257 25.1419 4.00623C25.1607 4.03944 25.1797 4.07265 25.1978 4.10609C25.2121 4.1325 25.2301 4.15686 25.2605 4.17525C25.2762 4.18495 25.2939 4.19067 25.3145 4.19144ZM25.7607 4.05257C25.7607 4.04746 25.7568 4.04272 25.7512 4.03845C25.7213 4.01524 25.6917 3.99188 25.6616 3.96883C25.6504 3.96028 25.6401 3.95096 25.6268 3.94394C25.6239 3.94234 25.6203 3.94142 25.6177 3.94302C25.6151 3.94463 25.6189 3.94638 25.6199 3.94806C25.6207 3.94944 25.622 3.95073 25.6231 3.95203C25.6591 3.98951 25.6951 4.027 25.731 4.06456C25.7343 4.06784 25.738 4.07067 25.7429 4.07242C25.7455 4.07334 25.7483 4.0741 25.7501 4.07181C25.7546 4.06593 25.7603 4.06059 25.7607 4.05257ZM25.3525 3.94356C25.3508 3.94256 25.3498 3.94333 25.3488 3.94363C25.3371 3.94707 25.3299 3.95424 25.3218 3.96073C25.2892 3.98692 25.2568 4.01318 25.2242 4.03937C25.2201 4.04272 25.2171 4.04647 25.2157 4.05089C25.2135 4.05815 25.2201 4.06715 25.2306 4.07005C25.2388 4.07235 25.2397 4.06525 25.2445 4.06303C25.2447 4.06296 25.2449 4.06265 25.245 4.0625C25.2796 4.03028 25.3109 3.99631 25.3399 3.96127C25.3448 3.95562 25.3497 3.94997 25.3525 3.94356Z" fill="black"/>
<path d="M24.8499 8.11719V6.66264H25.2015V7.2777H25.2206L25.7015 6.66264H26.1155L25.5999 7.31179L26.1248 8.11719H25.7043L25.3421 7.54545L25.2015 7.72301V8.11719H24.8499ZM25.6781 9.09872C25.6734 9.04664 25.6523 9.00616 25.6149 8.97727C25.578 8.94792 25.5252 8.93324 25.4565 8.93324C25.4111 8.93324 25.3732 8.93916 25.3429 8.95099C25.3126 8.96283 25.2899 8.97917 25.2747 9C25.2596 9.02036 25.2517 9.0438 25.2513 9.07031C25.2503 9.09209 25.2546 9.11127 25.2641 9.12784C25.274 9.14441 25.2882 9.15909 25.3067 9.17188C25.3256 9.18419 25.3483 9.19508 25.3748 9.20455C25.4014 9.21402 25.4312 9.2223 25.4643 9.2294L25.5893 9.25781C25.6613 9.27344 25.7248 9.29427 25.7797 9.32031C25.8351 9.34635 25.8815 9.37737 25.9189 9.41335C25.9568 9.44934 25.9854 9.49077 26.0048 9.53764C26.0242 9.58452 26.0342 9.63707 26.0346 9.69531C26.0342 9.78717 26.011 9.866 25.965 9.93182C25.9191 9.99763 25.8531 10.0481 25.7669 10.0831C25.6812 10.1181 25.5777 10.1357 25.4565 10.1357C25.3348 10.1357 25.2288 10.1174 25.1383 10.081C25.0479 10.0445 24.9776 9.98911 24.9274 9.91477C24.8772 9.84044 24.8514 9.74645 24.85 9.63281H25.1866C25.1895 9.67969 25.202 9.71875 25.2243 9.75C25.2465 9.78125 25.2771 9.80492 25.3159 9.82102C25.3552 9.83712 25.4007 9.84517 25.4523 9.84517C25.4996 9.84517 25.5399 9.83878 25.573 9.82599C25.6066 9.81321 25.6324 9.79545 25.6504 9.77273C25.6684 9.75 25.6776 9.72396 25.6781 9.6946C25.6776 9.66714 25.6691 9.6437 25.6525 9.62429C25.636 9.6044 25.6104 9.58736 25.5758 9.57315C25.5418 9.55848 25.4982 9.54498 25.4452 9.53267L25.2932 9.49716C25.1672 9.46828 25.068 9.42164 24.9956 9.35724C24.9231 9.29238 24.8872 9.20478 24.8876 9.09446C24.8872 9.0045 24.9113 8.92566 24.9601 8.85795C25.0088 8.79025 25.0763 8.73745 25.1625 8.69957C25.2487 8.6617 25.3469 8.64276 25.4572 8.64276C25.5699 8.64276 25.6677 8.66193 25.7506 8.70028C25.8339 8.73816 25.8985 8.79143 25.9445 8.86009C25.9904 8.92874 26.0138 9.00829 26.0148 9.09872H25.6781ZM25.0952 12.1172H24.7174L25.2081 10.6626H25.6762L26.1669 12.1172H25.7891L25.4475 11.0291H25.4361L25.0952 12.1172ZM25.0448 11.5447H25.8345V11.8118H25.0448V11.5447Z" fill="black"/>
<path d="M16.939 5.29048L16.9674 4.97798L16.7082 5.15909L16.5661 4.91051L16.8502 4.77912L16.5661 4.64773L16.7082 4.39915L16.9674 4.58026L16.939 4.26776H17.2231L17.1947 4.58026L17.4539 4.39915L17.596 4.64773L17.3119 4.77912L17.596 4.91051L17.4539 5.15909L17.1947 4.97798L17.2231 5.29048H16.939ZM18.46 5.29048L18.4884 4.97798L18.2292 5.15909L18.0871 4.91051L18.3712 4.77912L18.0871 4.64773L18.2292 4.39915L18.4884 4.58026L18.46 4.26776H18.7441L18.7157 4.58026L18.9749 4.39915L19.117 4.64773L18.8329 4.77912L19.117 4.91051L18.9749 5.15909L18.7157 4.97798L18.7441 5.29048H18.46ZM19.981 5.29048L20.0094 4.97798L19.7502 5.15909L19.6081 4.91051L19.8922 4.77912L19.6081 4.64773L19.7502 4.39915L20.0094 4.58026L19.981 4.26776H20.2651L20.2367 4.58026L20.4959 4.39915L20.638 4.64773L20.3539 4.77912L20.638 4.91051L20.4959 5.15909L20.2367 4.97798L20.2651 5.29048H19.981ZM21.502 5.29048L21.5304 4.97798L21.2712 5.15909L21.1291 4.91051L21.4132 4.77912L21.1291 4.64773L21.2712 4.39915L21.5304 4.58026L21.502 4.26776H21.7861L21.7577 4.58026L22.0169 4.39915L22.159 4.64773L21.8749 4.77912L22.159 4.91051L22.0169 5.15909L21.7577 4.97798L21.7861 5.29048H21.502ZM16.939 8.29048L16.9674 7.97798L16.7082 8.15909L16.5661 7.91051L16.8502 7.77912L16.5661 7.64773L16.7082 7.39915L16.9674 7.58026L16.939 7.26776H17.2231L17.1947 7.58026L17.4539 7.39915L17.596 7.64773L17.3119 7.77912L17.596 7.91051L17.4539 8.15909L17.1947 7.97798L17.2231 8.29048H16.939ZM18.46 8.29048L18.4884 7.97798L18.2292 8.15909L18.0871 7.91051L18.3712 7.77912L18.0871 7.64773L18.2292 7.39915L18.4884 7.58026L18.46 7.26776H18.7441L18.7157 7.58026L18.9749 7.39915L19.117 7.64773L18.8329 7.77912L19.117 7.91051L18.9749 8.15909L18.7157 7.97798L18.7441 8.29048H18.46ZM19.981 8.29048L20.0094 7.97798L19.7502 8.15909L19.6081 7.91051L19.8922 7.77912L19.6081 7.64773L19.7502 7.39915L20.0094 7.58026L19.981 7.26776H20.2651L20.2367 7.58026L20.4959 7.39915L20.638 7.64773L20.3539 7.77912L20.638 7.91051L20.4959 8.15909L20.2367 7.97798L20.2651 8.29048H19.981ZM21.502 8.29048L21.5304 7.97798L21.2712 8.15909L21.1291 7.91051L21.4132 7.77912L21.1291 7.64773L21.2712 7.39915L21.5304 7.58026L21.502 7.26776H21.7861L21.7577 7.58026L22.0169 7.39915L22.159 7.64773L21.8749 7.77912L22.159 7.91051L22.0169 8.15909L21.7577 7.97798L21.7861 8.29048H21.502Z" fill="black"/>
<path d="M2.80035 5.29048L2.82875 4.97798L2.56952 5.15909L2.42748 4.91051L2.71157 4.77912L2.42748 4.64773L2.56952 4.39915L2.82875 4.58026L2.80035 4.26776H3.08444L3.05603 4.58026L3.31526 4.39915L3.45731 4.64773L3.17321 4.77912L3.45731 4.91051L3.31526 5.15909L3.05603 4.97798L3.08444 5.29048H2.80035ZM4.32134 5.29048L4.34975 4.97798L4.09052 5.15909L3.94847 4.91051L4.23256 4.77912L3.94847 4.64773L4.09052 4.39915L4.34975 4.58026L4.32134 4.26776H4.60543L4.57702 4.58026L4.83626 4.39915L4.9783 4.64773L4.69421 4.77912L4.9783 4.91051L4.83626 5.15909L4.57702 4.97798L4.60543 5.29048H4.32134ZM5.84234 5.29048L5.87075 4.97798L5.61151 5.15909L5.46947 4.91051L5.75356 4.77912L5.46947 4.64773L5.61151 4.39915L5.87075 4.58026L5.84234 4.26776H6.12643L6.09802 4.58026L6.35725 4.39915L6.4993 4.64773L6.21521 4.77912L6.4993 4.91051L6.35725 5.15909L6.09802 4.97798L6.12643 5.29048H5.84234ZM7.36333 5.29048L7.39174 4.97798L7.13251 5.15909L6.99046 4.91051L7.27456 4.77912L6.99046 4.64773L7.13251 4.39915L7.39174 4.58026L7.36333 4.26776H7.64742L7.61902 4.58026L7.87825 4.39915L8.02029 4.64773L7.7362 4.77912L8.02029 4.91051L7.87825 5.15909L7.61902 4.97798L7.64742 5.29048H7.36333ZM2.80035 8.29048L2.82875 7.97798L2.56952 8.15909L2.42748 7.91051L2.71157 7.77912L2.42748 7.64773L2.56952 7.39915L2.82875 7.58026L2.80035 7.26776H3.08444L3.05603 7.58026L3.31526 7.39915L3.45731 7.64773L3.17321 7.77912L3.45731 7.91051L3.31526 8.15909L3.05603 7.97798L3.08444 8.29048H2.80035ZM4.32134 8.29048L4.34975 7.97798L4.09052 8.15909L3.94847 7.91051L4.23256 7.77912L3.94847 7.64773L4.09052 7.39915L4.34975 7.58026L4.32134 7.26776H4.60543L4.57702 7.58026L4.83626 7.39915L4.9783 7.64773L4.69421 7.77912L4.9783 7.91051L4.83626 8.15909L4.57702 7.97798L4.60543 8.29048H4.32134ZM5.84234 8.29048L5.87075 7.97798L5.61151 8.15909L5.46947 7.91051L5.75356 7.77912L5.46947 7.64773L5.61151 7.39915L5.87075 7.58026L5.84234 7.26776H6.12643L6.09802 7.58026L6.35725 7.39915L6.4993 7.64773L6.21521 7.77912L6.4993 7.91051L6.35725 8.15909L6.09802 7.97798L6.12643 8.29048H5.84234ZM7.36333 8.29048L7.39174 7.97798L7.13251 8.15909L6.99046 7.91051L7.27456 7.77912L6.99046 7.64773L7.13251 7.39915L7.39174 7.58026L7.36333 7.26776H7.64742L7.61902 7.58026L7.87825 7.39915L8.02029 7.64773L7.7362 7.77912L8.02029 7.91051L7.87825 8.15909L7.61902 7.97798L7.64742 8.29048H7.36333Z" fill="black"/>
</g>
<rect x="0.75" y="0.75" width="27.5" height="11.5" rx="1.25" stroke="black" stroke-width="1.5"/>
<defs>
<clipPath id="clip0_29357_45260">
<rect width="29" height="13" rx="2" fill="white"/>
</clipPath>
</defs>
</svg>
