<svg width="33" height="14" viewBox="0 0 33 14" fill="none" xmlns="http://www.w3.org/2000/svg">
<g clip-path="url(#clip0_29357_45260)">
<rect width="33" height="14" rx="2" fill="white"/>
<path d="M26.4082 14.0156L26.4082 0.695216" stroke="black"/>
<path d="M13.6453 4.03869C13.6414 4.04784 13.6372 4.05638 13.6346 4.06533C13.6322 4.07288 13.6272 4.07845 13.6169 4.07606C13.5759 4.06692 13.5806 4.0872 13.5846 4.10509C13.5954 4.15577 13.583 4.20467 13.5672 4.25377C13.5638 4.26451 13.5591 4.27186 13.5433 4.27027C13.5175 4.26769 13.518 4.27763 13.5228 4.29174C13.5296 4.31182 13.5359 4.33209 13.5404 4.35256C13.5438 4.36886 13.5422 4.38477 13.5212 4.3957C13.5088 4.40226 13.5072 4.4126 13.5062 4.42333C13.5046 4.44062 13.513 4.45673 13.5154 4.4776C13.4838 4.46527 13.4741 4.44361 13.4588 4.42552C13.4525 4.41796 13.4486 4.40385 13.4349 4.40783C13.4215 4.4118 13.4294 4.42432 13.4328 4.43307C13.4509 4.48018 13.4688 4.52749 13.4875 4.5746C13.4959 4.59547 13.4957 4.61416 13.468 4.62668C13.4491 4.63523 13.4562 4.64775 13.4586 4.65968C13.4809 4.76921 13.5036 4.87853 13.4988 4.98985C13.4983 5.00357 13.5072 5.02424 13.4907 5.02941C13.4683 5.03656 13.4496 5.01967 13.4352 5.00695C13.3497 4.93181 13.2826 4.84772 13.2321 4.75648C13.1163 4.54657 13.0782 4.32752 13.0948 4.10131C13.1027 3.99437 13.1348 3.88961 13.1447 3.78306C13.1471 3.75663 13.1513 3.73039 13.1482 3.70375C13.1471 3.69461 13.1469 3.68288 13.1319 3.68109C13.1192 3.6797 13.1082 3.68606 13.1 3.69381C13.0858 3.70733 13.0866 3.72383 13.0824 3.73953C13.0782 3.75504 13.0774 3.7767 13.0456 3.75504C13.0379 3.74987 13.029 3.74907 13.0222 3.75484C13.0022 3.77114 12.9801 3.76796 12.9525 3.75563C12.9525 3.79479 12.9527 3.82918 12.9522 3.86357C12.9522 3.86973 12.9567 3.87887 12.9459 3.88106C12.9319 3.88384 12.9322 3.87291 12.9285 3.86655C12.9261 3.86218 12.9256 3.85721 12.9233 3.85283C12.9188 3.84449 12.9214 3.82918 12.9075 3.82998C12.8898 3.83097 12.8896 3.84667 12.8891 3.85721C12.888 3.88663 12.8938 3.91565 12.9017 3.94447C12.9051 3.95719 12.9062 3.97031 12.9085 3.98502C12.8751 3.98184 12.8656 3.96455 12.8564 3.94686C12.848 3.93076 12.8467 3.91128 12.8196 3.90213C12.8025 3.93831 12.8141 3.97449 12.8096 4.00967C12.8083 4.021 12.8167 4.03989 12.7996 4.04227C12.7794 4.04486 12.7775 4.02557 12.7709 4.01365C12.7641 4.00112 12.7636 3.97906 12.7425 3.98164C12.7252 3.98383 12.7291 4.0051 12.7286 4.01862C12.7275 4.04943 12.7431 4.07785 12.7525 4.10727C12.7573 4.12178 12.7615 4.13649 12.7673 4.15557C12.7528 4.1514 12.7428 4.14921 12.7336 4.14603C12.7015 4.1351 12.6915 4.13888 12.6981 4.16512C12.7073 4.20209 12.7217 4.23847 12.736 4.27464C12.7415 4.28896 12.7446 4.2985 12.7183 4.2985C12.6928 4.2985 12.6923 4.31281 12.6933 4.32652C12.6952 4.34958 12.7107 4.36986 12.7191 4.39153C12.7331 4.42711 12.7388 4.46169 12.7131 4.49569C12.7054 4.50582 12.7044 4.51755 12.706 4.52888C12.7078 4.5424 12.702 4.55115 12.6836 4.55333C12.6612 4.55611 12.6647 4.56764 12.6676 4.57917C12.6723 4.59826 12.681 4.61694 12.6794 4.63702C12.6631 4.63821 12.6581 4.62966 12.6534 4.62251C12.5805 4.51377 12.4982 4.40862 12.4353 4.29611C12.3227 4.09495 12.3548 3.90273 12.4997 3.71786C12.5431 3.6624 12.5934 3.61052 12.6434 3.55864C12.6797 3.52087 12.7131 3.48231 12.7204 3.43441C12.7233 3.41492 12.7249 3.39564 12.7118 3.37755C12.697 3.38073 12.6939 3.39008 12.6886 3.39684C12.6752 3.41393 12.6612 3.42268 12.637 3.40677C12.6189 3.39485 12.6118 3.4034 12.6081 3.41691C12.6052 3.42705 12.6 3.43699 12.5989 3.44733C12.5971 3.4672 12.5844 3.47675 12.5581 3.47456C12.5392 3.47297 12.5321 3.48092 12.526 3.49285C12.5105 3.52465 12.4937 3.55606 12.475 3.59224C12.4621 3.57196 12.4516 3.55546 12.4398 3.53678C12.4 3.57256 12.4024 3.62006 12.3687 3.65803C12.3558 3.64591 12.3445 3.63517 12.3306 3.62205C12.3177 3.64789 12.304 3.67115 12.2945 3.6952C12.2874 3.71349 12.2753 3.71806 12.2538 3.71071C12.234 3.70395 12.2275 3.71051 12.224 3.72462C12.2135 3.76796 12.2014 3.81089 12.1893 3.85602C12.1667 3.84528 12.1641 3.8256 12.1438 3.81507C12.1233 3.83494 12.123 3.8582 12.1243 3.87987C12.1278 3.93175 12.0962 3.97508 12.0696 4.01981C12.0673 4.02378 12.0612 4.03034 12.0583 4.02995C12.0149 4.02378 12.0236 4.04982 12.0218 4.06573C12.0136 4.13252 11.9986 4.19911 12.0123 4.26649C12.0162 4.28657 12.0104 4.30565 11.9957 4.32354C11.9818 4.34044 11.9712 4.33746 11.9644 4.32136C11.9518 4.29174 11.9402 4.26172 11.9294 4.23171C11.8879 4.11443 11.8597 3.99516 11.8592 3.87351C11.8584 3.68149 11.9486 3.51829 12.1354 3.38511C12.318 3.25491 12.5205 3.15055 12.7615 3.09231C12.8233 3.0774 12.8875 3.06766 12.9469 3.04758C12.9559 3.0446 12.9701 3.04281 12.969 3.03466C12.968 3.02631 12.9548 3.01995 12.9438 3.02035C12.8704 3.02333 12.7938 3.00624 12.7252 3.04202C12.6918 3.05951 12.6552 3.06567 12.6178 3.04301C12.6 3.03208 12.5058 3.04758 12.4887 3.06169C12.4771 3.07124 12.4658 3.08118 12.4553 3.09032C12.4403 3.08734 12.445 3.07899 12.4416 3.07362C12.4366 3.06547 12.4416 3.05215 12.4282 3.04897C12.4121 3.0452 12.3995 3.05533 12.3895 3.06309C12.3774 3.07243 12.3679 3.08376 12.3579 3.09469C12.3437 3.11 12.3285 3.11994 12.3024 3.10781C12.2793 3.09708 12.2682 3.11179 12.2572 3.12272C12.2446 3.13544 12.2327 3.14081 12.2159 3.1263C12.2033 3.11517 12.1946 3.11735 12.1872 3.13127C12.1762 3.15234 12.1617 3.17222 12.1507 3.19329C12.1433 3.2072 12.1343 3.21138 12.1178 3.20183C12.0994 3.1913 12.0862 3.19547 12.0754 3.20978C12.0654 3.22271 12.0517 3.23404 12.0449 3.24875C12.0333 3.27339 12.0123 3.29287 11.9855 3.30937C11.9613 3.32428 11.9376 3.33979 11.9205 3.36006C11.9168 3.36463 11.9097 3.37099 11.9044 3.3708C11.8594 3.36861 11.8613 3.39485 11.8547 3.41592C11.8481 3.43699 11.8413 3.45826 11.8355 3.47953C11.83 3.5004 11.8239 3.51948 11.7918 3.52783C11.7724 3.5328 11.7732 3.5491 11.7734 3.56242C11.7742 3.58409 11.7676 3.60913 11.7387 3.60913C11.7066 3.60913 11.7061 3.58031 11.7074 3.56162C11.7279 3.29009 11.8747 3.07044 12.1783 2.91718C12.3871 2.81183 12.6213 2.76194 12.8693 2.74385C12.9577 2.73749 13.0458 2.72914 13.1324 2.71244C13.1621 2.70668 13.1889 2.69813 13.2071 2.67249C13.089 2.66652 12.9761 2.63492 12.8596 2.66314C12.8451 2.66672 12.8293 2.67229 12.8159 2.66573C12.7741 2.64545 12.7407 2.66016 12.7065 2.67765C12.6965 2.68282 12.6826 2.69395 12.672 2.67905C12.6581 2.65917 12.6402 2.66195 12.6197 2.6707C12.5468 2.7019 12.4634 2.71483 12.3853 2.72755C12.2764 2.74504 12.2059 2.80487 12.1125 2.83727C12.1007 2.84145 12.0888 2.85576 12.0773 2.84721C12.0633 2.83707 12.0828 2.82694 12.0899 2.81879C12.2054 2.68819 12.3535 2.58244 12.5226 2.49199C12.7133 2.39002 12.9254 2.35345 13.1558 2.36975C13.2679 2.3777 13.3802 2.38644 13.4922 2.3936C13.513 2.39499 13.5456 2.40215 13.552 2.38485C13.5567 2.37233 13.5246 2.36319 13.5049 2.35841C13.4507 2.3451 13.4086 2.31389 13.3547 2.30117C13.301 2.28844 13.2484 2.27433 13.1989 2.25386C13.1624 2.23875 13.1124 2.24929 13.0824 2.22026C13.0808 2.21867 13.0729 2.22006 13.0685 2.22146C12.9832 2.24789 12.8919 2.25485 12.803 2.26936C12.7783 2.27334 12.7573 2.28367 12.7296 2.29282C12.7336 2.26221 12.7562 2.24372 12.7812 2.22782C12.8672 2.17375 12.9711 2.1489 13.0774 2.13042C13.2852 2.09464 13.477 2.12604 13.6548 2.21251C13.719 2.24372 13.7845 2.27314 13.8579 2.29143C13.8803 2.29699 13.886 2.2954 13.8863 2.27731C13.8879 2.20436 13.8976 2.13201 13.9105 2.05965C13.9139 2.04057 13.9223 2.03222 13.9473 2.03401C13.9757 2.036 13.9844 2.02745 13.9868 2.00518C13.9921 1.95171 13.9815 1.89705 14.0052 1.84477C14.0086 1.83702 14.0063 1.82549 14.0202 1.8243C14.0365 1.8231 14.0373 1.83602 14.0423 1.84398C14.0636 1.87757 14.0549 1.91474 14.0626 1.94992C14.0662 1.96662 14.0652 1.98392 14.0676 2.00081C14.0697 2.01691 14.0725 2.03202 14.0962 2.04057C14.1136 2.04693 14.116 2.06164 14.1162 2.07515C14.1167 2.09225 14.1167 2.10915 14.1173 2.12624C14.1183 2.15009 14.1231 2.17216 14.1452 2.19204C14.1686 2.21331 14.1704 2.24054 14.1691 2.26757C14.167 2.31369 14.1709 2.31727 14.2267 2.29898C14.3035 2.27374 14.3769 2.24273 14.4479 2.20913C14.5939 2.14035 14.7504 2.11173 14.9214 2.13459C15.0314 2.1493 15.1308 2.18409 15.2268 2.22563C15.2555 2.23795 15.2768 2.25704 15.2902 2.28029C15.3016 2.29958 15.2934 2.30892 15.2655 2.30673C15.2534 2.30574 15.2416 2.30156 15.2297 2.29858C15.1469 2.27831 15.0601 2.25624 14.9764 2.27652C14.912 2.29222 14.8504 2.30137 14.7833 2.30276C14.7289 2.30395 14.6873 2.33556 14.6355 2.35484C14.6947 2.38923 14.7591 2.38982 14.8238 2.38744C14.9038 2.38426 14.9835 2.3773 15.0635 2.37591C15.2421 2.37273 15.4015 2.41507 15.5375 2.50213C15.6443 2.57051 15.748 2.64207 15.8456 2.7182C15.8874 2.751 15.9197 2.78917 15.9463 2.83409C15.9197 2.83051 15.9011 2.81998 15.8819 2.81143C15.8214 2.7846 15.7585 2.76392 15.6898 2.74921C15.6283 2.73609 15.5688 2.71363 15.5128 2.68859C15.4933 2.67984 15.4728 2.67268 15.4507 2.66891C15.4194 2.66374 15.3889 2.66096 15.3715 2.68859C15.3644 2.69992 15.3542 2.69952 15.3415 2.69216C15.3276 2.68401 15.3121 2.67765 15.2981 2.6699C15.2797 2.65956 15.2634 2.65181 15.2482 2.67368C15.2384 2.68759 15.2232 2.67865 15.2124 2.67368C15.1748 2.65638 15.1385 2.64148 15.0953 2.66652C15.0866 2.67149 15.0685 2.66791 15.0548 2.66732C15.0127 2.66553 14.9722 2.66851 14.9367 2.68819C14.9267 2.69375 14.9164 2.69535 14.9049 2.69197C14.9014 2.69097 14.8978 2.68998 14.8941 2.68958C14.8733 2.68779 14.8294 2.71105 14.833 2.72417C14.8373 2.73967 14.8604 2.73888 14.8757 2.74027C14.9491 2.74663 15.0227 2.751 15.0961 2.75617C15.2445 2.76651 15.3931 2.77506 15.537 2.80686C15.8947 2.88558 16.1518 3.04917 16.2793 3.31812C16.3283 3.42148 16.3393 3.52942 16.3251 3.64352C16.2996 3.62563 16.2893 3.60535 16.2757 3.58727C16.2212 3.51491 16.1678 3.44236 16.1141 3.3696C16.0978 3.34754 16.0805 3.32687 16.0426 3.32528C16.0284 3.32468 16.0286 3.31673 16.0265 3.30937C16.0081 3.24298 15.9463 3.20263 15.8779 3.16566C15.8748 3.16407 15.8713 3.16287 15.8679 3.16168C15.8445 3.15393 15.8145 3.16009 15.7953 3.1422C15.7795 3.12769 15.763 3.11377 15.7464 3.09926C15.719 3.12908 15.719 3.12908 15.6885 3.10125C15.6838 3.09688 15.6788 3.09251 15.674 3.08813C15.6414 3.05812 15.6406 3.05772 15.6093 3.09012C15.6001 3.09946 15.5943 3.10165 15.5843 3.09231C15.5764 3.08495 15.568 3.07799 15.5607 3.07024C15.5457 3.05474 15.5351 3.04182 15.5025 3.05712C15.4786 3.06845 15.4426 3.05553 15.4134 3.07064C15.4031 3.07601 15.3863 3.05692 15.3713 3.05056C15.3652 3.04798 15.36 3.04102 15.3521 3.0446C15.345 3.04778 15.346 3.05454 15.3463 3.05991C15.3476 3.08714 15.3681 3.10582 15.396 3.11994C15.501 3.17321 15.6056 3.22648 15.7117 3.27856C15.8503 3.34674 15.9766 3.42407 16.0597 3.53558C16.1533 3.66101 16.1791 3.79698 16.1749 3.93791C16.1707 4.08123 16.1255 4.21839 16.0673 4.35376C16.0586 4.37364 16.051 4.37006 16.0363 4.35853C16.006 4.33507 16.0071 4.30764 16.0165 4.27902C16.0205 4.26709 16.0265 4.25556 16.0334 4.24443C16.0434 4.22833 16.0386 4.2166 16.0171 4.21024C15.9937 4.20328 15.9908 4.18996 15.9926 4.17347C15.9947 4.15458 15.9947 4.1357 15.9966 4.11681C15.9984 4.09892 16.0008 4.08242 15.9647 4.087C15.9508 4.08879 15.95 4.07944 15.95 4.07149C15.95 4.04346 15.9392 4.01782 15.9255 3.99198C15.9105 3.96336 15.9253 3.93215 15.9168 3.90233C15.9118 3.88504 15.9108 3.86695 15.9082 3.84946C15.9032 3.84946 15.9003 3.84886 15.8982 3.84946C15.8469 3.86814 15.8469 3.86834 15.8419 3.82481C15.8403 3.81169 15.8371 3.79837 15.8371 3.78525C15.8374 3.75822 15.8308 3.73893 15.7853 3.74947C15.7674 3.75364 15.7661 3.74231 15.7632 3.73277C15.7527 3.69739 15.7411 3.66201 15.7285 3.62165C15.7101 3.64193 15.6959 3.65763 15.6777 3.67771C15.658 3.63259 15.6404 3.59204 15.6217 3.5491C15.6128 3.55506 15.607 3.55824 15.602 3.56202C15.5607 3.59243 15.5607 3.59243 15.538 3.55069C15.5304 3.53678 15.522 3.52286 15.5159 3.50855C15.5081 3.48947 15.4983 3.47635 15.4665 3.47396C15.4376 3.47178 15.427 3.44931 15.4168 3.43122C15.4084 3.41671 15.4002 3.40856 15.3755 3.41135C15.3394 3.41552 15.3142 3.40041 15.2945 3.37835C15.2831 3.36583 15.2708 3.34317 15.2497 3.35171C15.2271 3.36086 15.2374 3.38312 15.2455 3.40101C15.2655 3.44514 15.3081 3.47814 15.3434 3.51451C15.4152 3.58846 15.4965 3.65724 15.5575 3.73695C15.6835 3.90193 15.7011 4.07666 15.6343 4.25775C15.5859 4.38874 15.502 4.50622 15.3949 4.61495C15.3797 4.63046 15.3647 4.64696 15.3344 4.6563C15.3365 4.6402 15.3368 4.62728 15.34 4.61475C15.345 4.59468 15.3544 4.5742 15.31 4.5752C15.2971 4.5754 15.2989 4.56764 15.3021 4.56049C15.3081 4.54618 15.3137 4.53166 15.3189 4.51696C15.3234 4.50503 15.3292 4.48992 15.3192 4.48098C15.2871 4.45156 15.3058 4.42432 15.32 4.3963C15.3305 4.37503 15.34 4.35356 15.351 4.33229C15.36 4.315 15.3531 4.30903 15.33 4.31341C15.3029 4.31837 15.2981 4.31162 15.3044 4.29174C15.3192 4.24522 15.3305 4.19811 15.3434 4.1516C15.3197 4.14504 15.3005 4.17347 15.286 4.15736C15.2766 4.14683 15.286 4.12635 15.2873 4.11045C15.2889 4.09256 15.2905 4.07487 15.2923 4.05499C15.2671 4.05937 15.2605 4.07885 15.2345 4.08918C15.2345 4.03213 15.2345 3.97906 15.2345 3.9238C15.2005 3.92976 15.2 3.94964 15.1892 3.96316C15.1855 3.96773 15.1845 3.97528 15.1755 3.97548C15.1645 3.97588 15.1621 3.96773 15.1598 3.96196C15.1516 3.94189 15.1537 3.92082 15.1516 3.90014C15.1487 3.87072 15.1445 3.86814 15.1129 3.88265C15.0935 3.8916 15.0924 3.88404 15.0906 3.87311C15.0874 3.85343 15.0837 3.83375 15.0808 3.81387C15.0787 3.80056 15.0745 3.79042 15.0535 3.80075C15.0311 3.81169 15.0232 3.80175 15.0161 3.78764C14.9996 3.75523 14.9714 3.73118 14.9267 3.71926C14.9041 3.71329 14.8922 3.71409 14.8964 3.73715C14.9114 3.81864 14.9272 3.90014 14.9375 3.98204C14.9662 4.21084 14.9546 4.43744 14.8588 4.65809C14.8123 4.76543 14.7462 4.86601 14.6642 4.96063C14.6352 4.99402 14.5989 5.02245 14.5587 5.04789C14.5463 5.04153 14.5526 5.03318 14.5521 5.02643C14.5471 4.9167 14.5679 4.80658 14.5553 4.69745C14.5458 4.61674 14.5618 4.54379 14.6037 4.47163C14.6055 4.46845 14.6058 4.46488 14.6079 4.45832C14.5637 4.46269 14.5532 4.49489 14.5176 4.51199C14.5147 4.47124 14.5116 4.43426 14.5092 4.39709C14.5076 4.37344 14.5074 4.34978 14.5061 4.32613C14.5037 4.28617 14.4966 4.2488 14.4627 4.21441C14.4182 4.16909 14.4261 4.11145 14.4132 4.05877C14.4114 4.05181 14.4172 4.04167 14.4066 4.0383C14.3943 4.03432 14.3872 4.04446 14.3787 4.04963C14.3317 4.07964 14.3293 4.12457 14.3119 4.16452C14.2667 4.26828 14.2741 4.37542 14.2793 4.48237C14.2864 4.62966 14.2917 4.77716 14.299 4.92465C14.3169 5.28563 14.3285 5.64681 14.3311 6.00819C14.3322 6.13124 14.3343 6.25408 14.3403 6.37713C14.3448 6.46459 14.3714 6.54907 14.4224 6.62858C14.4711 6.70432 14.4742 6.78085 14.4303 6.85897C14.3756 6.95617 14.3916 7.05 14.4635 7.13825C14.5158 7.20266 14.5742 7.26428 14.6297 7.32709C14.6479 7.34757 14.6655 7.36844 14.676 7.39189C14.7002 7.44497 14.6734 7.48393 14.6018 7.49844C14.5229 7.51454 14.4424 7.52368 14.3609 7.52468C14.1304 7.52726 13.9 7.53064 13.6695 7.52587C13.5904 7.52428 13.5125 7.51474 13.437 7.49705C13.3628 7.47975 13.3386 7.44099 13.3686 7.38673C13.3989 7.33226 13.4459 7.28535 13.4907 7.23744C13.5706 7.15177 13.6296 7.06033 13.6322 6.95259C13.6335 6.90349 13.6222 6.85658 13.5938 6.81245C13.5575 6.7562 13.5591 6.70094 13.6004 6.64707C13.6722 6.55364 13.6838 6.45008 13.689 6.34572C13.704 6.04338 13.7116 5.74064 13.7195 5.4381C13.7261 5.18108 13.7453 4.92425 13.7574 4.66723C13.7648 4.50741 13.7553 4.3476 13.7487 4.18778C13.7469 4.13212 13.7006 4.0695 13.6453 4.03869Z" fill="#127043"/>
<path d="M18.9587 6.96941C18.9016 6.98074 18.8477 6.98094 18.7943 6.98472C18.5449 7.00181 18.2952 7.01433 18.0469 7.04037C17.7247 7.07417 17.4043 7.11611 17.0886 7.17674C16.8066 7.2308 16.5346 7.30614 16.2681 7.3942C15.9377 7.50373 15.6157 7.62498 15.3193 7.78162C15.0589 7.91917 14.8289 8.08376 14.6051 8.25332C14.553 8.29288 14.5017 8.33303 14.4517 8.37398C14.4144 8.40439 14.4136 8.41235 14.447 8.44475C14.5448 8.54056 14.6435 8.63577 14.7429 8.73059C14.8852 8.86636 15.0428 8.99198 15.1988 9.11841C15.2193 9.13491 15.2425 9.14942 15.2638 9.16532C15.2825 9.17943 15.2919 9.17486 15.2998 9.15797C15.338 9.07706 15.3772 8.99616 15.4158 8.91546C15.4321 8.88166 15.45 8.84867 15.4761 8.81805C15.5368 8.74629 15.6284 8.72781 15.7247 8.77154C15.8212 8.81547 15.8662 8.88146 15.8583 8.96694C15.8549 9.0051 15.823 9.03174 15.7646 9.04128C15.6265 9.06374 15.5639 9.13689 15.5363 9.23271C15.5113 9.31957 15.5363 9.3963 15.6205 9.46249C15.6999 9.52471 15.7815 9.58415 15.8788 9.63007C15.9635 9.67002 15.9835 9.66585 16.028 9.59886C16.0537 9.5599 16.0803 9.52114 16.125 9.49211C16.2376 9.41896 16.4118 9.40326 16.5464 9.52412C16.6488 9.61595 16.6753 9.72468 16.6598 9.84077C16.6498 9.91511 16.613 9.9825 16.5488 10.039C16.4444 10.131 16.3057 10.1511 16.1537 10.1393C15.9938 10.127 15.8607 10.0688 15.731 10.0026C15.5837 9.92744 15.4342 9.85469 15.2856 9.78134C15.2409 9.75927 15.2396 9.76007 15.2006 9.78909C15.1099 9.85687 15.0286 9.93221 14.9286 9.99244C14.7958 10.0725 14.5919 10.0652 14.4833 9.97554C14.3702 9.88212 14.3639 9.74059 14.5262 9.6412C14.5533 9.6247 14.5846 9.6243 14.6145 9.63663C14.6672 9.65829 14.7179 9.68274 14.7716 9.70302C14.8418 9.72965 14.9131 9.71653 14.9639 9.67101C14.9955 9.64279 15.0002 9.61178 14.9807 9.57858C14.946 9.51954 14.8871 9.47402 14.8308 9.42731C14.5867 9.22436 14.3423 9.022 14.0976 8.81945C14.0742 8.79996 14.0519 8.77035 14.0206 8.76856C13.9906 8.76677 13.9698 8.79837 13.9459 8.81567C13.7325 8.97032 13.5371 9.13769 13.344 9.30665C13.2703 9.37106 13.1977 9.43606 13.1243 9.50066C13.0996 9.52233 13.0788 9.54578 13.0643 9.57222C13.043 9.61059 13.048 9.64656 13.0857 9.67777C13.1251 9.71057 13.1733 9.72409 13.2314 9.71017C13.2819 9.69825 13.3256 9.67539 13.3724 9.6575C13.3924 9.64974 13.4124 9.64199 13.4332 9.63563C13.4676 9.6251 13.5005 9.62867 13.5276 9.64776C13.6091 9.7052 13.6386 9.77756 13.6223 9.85906C13.6052 9.94394 13.5497 10.0117 13.4363 10.0388C13.3306 10.064 13.2311 10.039 13.1367 10.0018C13.0354 9.96183 12.962 9.89882 12.8931 9.83203C12.8723 9.81195 12.8484 9.79366 12.8289 9.77279C12.8142 9.75689 12.801 9.75927 12.7821 9.76702C12.6763 9.81056 12.5814 9.86641 12.4817 9.9171C12.3841 9.9666 12.2917 10.0223 12.1876 10.0642C12.066 10.1131 11.9364 10.1375 11.7977 10.1338C11.6123 10.1288 11.4731 10.0455 11.4084 9.89941C11.3418 9.74933 11.3997 9.59071 11.5586 9.48774C11.6851 9.40584 11.848 9.41817 11.9516 9.51736C11.9882 9.55234 12.019 9.59011 12.0505 9.62748C12.08 9.66207 12.0884 9.66525 12.1344 9.64537C12.2733 9.58594 12.3901 9.50643 12.4885 9.41181C12.5214 9.3804 12.5277 9.34223 12.5138 9.30387C12.4938 9.24921 12.4709 9.19534 12.4501 9.14087C12.4322 9.09436 12.3936 9.06414 12.3317 9.05062C12.3233 9.04884 12.3154 9.04605 12.307 9.04407C12.2018 9.01902 12.1742 8.98463 12.1936 8.90174C12.2176 8.80016 12.3473 8.73536 12.478 8.75941C12.538 8.77055 12.5764 8.79897 12.5964 8.84211C12.639 8.93394 12.6808 9.02598 12.7234 9.11781C12.7521 9.18003 12.7689 9.18321 12.8273 9.13451C13.0899 8.91486 13.3435 8.68924 13.5823 8.45469C13.6141 8.42328 13.6131 8.41592 13.5826 8.38173C13.516 8.30719 13.4279 8.24796 13.3437 8.18614C13.1469 8.04162 12.9397 7.90685 12.7208 7.78142C12.5259 7.66971 12.3091 7.58781 12.0908 7.5077C11.8432 7.41686 11.591 7.33377 11.3313 7.26479C10.9862 7.17296 10.6355 7.09782 10.2725 7.05866C10.0581 7.0356 9.84268 7.0199 9.6275 7.00181C9.50544 6.99147 9.38391 6.97915 9.26211 6.96742C9.24844 6.96603 9.23449 6.96484 9.22266 6.95251C9.26396 6.939 9.30736 6.93621 9.34919 6.93462C9.70668 6.92071 10.0623 6.88731 10.4211 6.89089C10.8418 6.89507 11.2582 6.92528 11.6675 7.00141C11.9443 7.0529 12.2094 7.12843 12.4659 7.22166C12.7208 7.31449 12.972 7.41189 13.2025 7.53732C13.4 7.64466 13.5847 7.76353 13.7607 7.89015C13.8322 7.94164 13.904 7.99312 13.9716 8.04739C13.9993 8.06965 14.0171 8.06587 14.0416 8.04878C14.1245 7.99113 14.2089 7.93468 14.2905 7.87604C14.6366 7.62737 15.0212 7.42024 15.4495 7.25963C15.7157 7.15964 15.9922 7.08033 16.2776 7.01871C16.5796 6.95331 16.8879 6.91733 17.2012 6.90163C17.5003 6.88672 17.7991 6.89367 18.098 6.9052C18.2566 6.91137 18.4155 6.91594 18.5741 6.92468C18.6875 6.93105 18.8006 6.94297 18.9137 6.95271C18.9274 6.9549 18.9426 6.95669 18.9587 6.96941ZM16.1824 9.94692C16.1974 9.94692 16.2124 9.94752 16.2274 9.94672C16.3541 9.93996 16.4265 9.89921 16.4557 9.81831C16.4791 9.75351 16.4362 9.66127 16.3641 9.62251C16.3018 9.58892 16.2231 9.61178 16.1908 9.67439C16.1692 9.71594 16.1569 9.75907 16.1534 9.8042C16.1503 9.84872 16.1258 9.86244 16.0677 9.85767C16.0437 9.85568 16.0216 9.84912 15.9993 9.84316C15.8609 9.80658 15.7504 9.74059 15.651 9.66108C15.596 9.61715 15.5352 9.57739 15.4782 9.53505C15.4579 9.52014 15.4474 9.52332 15.4345 9.54062C15.404 9.58097 15.4071 9.61496 15.449 9.64955C15.5158 9.70461 15.5873 9.75609 15.6676 9.80022C15.8212 9.8849 15.9888 9.94275 16.1824 9.94692ZM11.596 9.77279C11.596 9.88927 11.6636 9.94771 11.8127 9.95149C11.9606 9.95527 12.1008 9.92525 12.2291 9.86979C12.3701 9.80877 12.4854 9.7221 12.6064 9.64179C12.6392 9.61993 12.6442 9.58991 12.6293 9.55831C12.614 9.5261 12.6098 9.52412 12.573 9.54221C12.5543 9.55155 12.5361 9.56188 12.5193 9.57321C12.4154 9.64279 12.3115 9.71216 12.2089 9.78293C12.146 9.82626 12.0747 9.85051 11.9892 9.8525C11.9206 9.85409 11.8987 9.84097 11.8898 9.79028C11.8832 9.75371 11.874 9.71753 11.8674 9.68095C11.8603 9.6404 11.8317 9.61476 11.7785 9.60721C11.7228 9.59925 11.6765 9.61317 11.6441 9.64835C11.6086 9.68672 11.5989 9.73144 11.596 9.77279ZM14.6482 9.74973C14.6167 9.74953 14.5967 9.76186 14.5856 9.78332C14.563 9.82725 14.5906 9.87735 14.6466 9.89822C14.7487 9.93638 14.8463 9.92446 14.9315 9.87456C15.0423 9.80976 15.1296 9.72906 15.1862 9.63007C15.2869 9.45395 15.3903 9.27882 15.4934 9.1037C15.521 9.05659 15.5616 9.01763 15.6286 8.99934C15.651 8.99318 15.666 8.98065 15.6802 8.96754C15.7115 8.93871 15.7041 8.90452 15.6613 8.8753C15.6247 8.85026 15.5834 8.85145 15.5489 8.87968C15.5145 8.9079 15.4929 8.94229 15.475 8.97767C15.3985 9.12954 15.3224 9.28141 15.2475 9.43387C15.1899 9.55115 15.1099 9.65809 14.9997 9.75192C14.9547 9.79028 14.8992 9.8038 14.8339 9.79227C14.8061 9.7873 14.7797 9.77776 14.7527 9.7706C14.719 9.76166 14.6853 9.75053 14.6482 9.74973ZM13.2937 9.91492C13.3248 9.91591 13.3892 9.89882 13.4121 9.88351C13.4495 9.85886 13.4642 9.8038 13.4418 9.77398C13.4229 9.74894 13.3921 9.74576 13.3274 9.76166C13.2858 9.7718 13.2443 9.78233 13.2019 9.79048C13.137 9.8028 13.0807 9.79008 13.0349 9.75271C12.9999 9.72409 12.9691 9.69308 12.9481 9.6573C12.8321 9.4625 12.714 9.26869 12.615 9.06852C12.583 9.00371 12.5459 8.9409 12.4904 8.88504C12.4714 8.86596 12.4477 8.85542 12.4162 8.86059C12.3817 8.86636 12.3586 8.88206 12.3509 8.90929C12.3399 8.94885 12.3588 8.98006 12.4104 8.99676C12.4888 9.022 12.5411 9.06514 12.5732 9.12338C12.6519 9.2655 12.7316 9.40723 12.8071 9.55036C12.8668 9.66346 12.942 9.76722 13.0688 9.84634C13.1341 9.88709 13.208 9.91154 13.2937 9.91492ZM15.1588 9.32096C15.1586 9.2993 15.1422 9.27882 15.1191 9.26054C14.9941 9.16135 14.87 9.06156 14.7445 8.96276C14.6979 8.92599 14.6545 8.88643 14.5993 8.85642C14.5869 8.84966 14.5719 8.84548 14.5614 8.85244C14.5509 8.8594 14.5664 8.86675 14.5704 8.87391C14.5738 8.87987 14.5788 8.88544 14.584 8.89081C14.7342 9.05122 14.8847 9.21144 15.0352 9.37185C15.0483 9.38596 15.0639 9.39789 15.0849 9.40545C15.0957 9.40922 15.1075 9.4126 15.1146 9.40286C15.133 9.37821 15.1567 9.35535 15.1588 9.32096ZM13.4526 8.85483C13.4453 8.85065 13.4416 8.85383 13.4371 8.85523C13.3884 8.86993 13.3582 8.90055 13.3245 8.92838C13.1885 9.04049 13.0528 9.1526 12.9168 9.26471C12.8994 9.27902 12.8868 9.29512 12.8813 9.31401C12.8721 9.34522 12.8994 9.38358 12.9436 9.3961C12.9778 9.40584 12.9815 9.37563 13.0015 9.36609C13.0025 9.36569 13.0031 9.3647 13.0038 9.3639C13.1488 9.22615 13.2793 9.08104 13.4005 8.93096C13.4205 8.90651 13.4413 8.88206 13.4526 8.85483Z" fill="#A67C1D"/>
<path d="M28.9015 3.03042C28.9004 3.03272 28.8992 3.03486 28.8985 3.03716C28.8978 3.03905 28.8965 3.04045 28.8937 3.03987C28.8825 3.03757 28.8838 3.04267 28.8849 3.04719C28.8878 3.05993 28.8844 3.07227 28.8802 3.0846C28.8792 3.08731 28.8779 3.0892 28.8736 3.08879C28.8665 3.08813 28.8668 3.09068 28.8681 3.09422C28.8699 3.09931 28.8717 3.10441 28.8729 3.10951C28.8738 3.11362 28.8734 3.11757 28.8677 3.12036C28.8643 3.12201 28.8639 3.12464 28.8637 3.12735C28.8632 3.13171 28.8656 3.13574 28.8662 3.141C28.8576 3.13787 28.8549 3.13245 28.8508 3.12784C28.849 3.12595 28.8479 3.12242 28.8443 3.1234C28.8406 3.12439 28.8428 3.12751 28.8437 3.12973C28.8486 3.14166 28.8535 3.15349 28.8586 3.16533C28.8609 3.17059 28.8609 3.17528 28.8534 3.17849C28.8482 3.18062 28.8502 3.18375 28.8508 3.18679C28.8569 3.21433 28.863 3.24187 28.8617 3.26991C28.8616 3.27336 28.8639 3.27854 28.8595 3.27986C28.8534 3.28167 28.8483 3.27739 28.8443 3.27418C28.821 3.25527 28.8028 3.23406 28.789 3.21113C28.7575 3.15826 28.7471 3.1031 28.7516 3.04612C28.7537 3.01916 28.7624 2.99285 28.7652 2.96596C28.7659 2.9593 28.767 2.95265 28.7662 2.94599C28.7658 2.94368 28.7658 2.94072 28.7617 2.94031C28.7583 2.9399 28.7552 2.94155 28.753 2.94352C28.7491 2.94689 28.7493 2.95108 28.7482 2.95503C28.747 2.95898 28.7469 2.9644 28.7382 2.95898C28.736 2.95766 28.7337 2.9575 28.7318 2.95889C28.7264 2.963 28.7204 2.96218 28.7127 2.95906C28.7127 2.96892 28.7127 2.97756 28.7127 2.98627C28.7127 2.98783 28.7139 2.99013 28.711 2.99063C28.7072 2.99129 28.7072 2.98857 28.7063 2.98693C28.7056 2.98586 28.7055 2.98463 28.7049 2.98348C28.7037 2.98142 28.7044 2.97756 28.7006 2.97772C28.6958 2.97797 28.6957 2.98191 28.6957 2.98463C28.6955 2.99203 28.697 2.99934 28.6991 3.00658C28.7 3.00978 28.7003 3.01307 28.701 3.01677C28.6919 3.01595 28.6893 3.01167 28.6867 3.00715C28.6845 3.00312 28.6842 2.99819 28.6767 2.99589C28.672 3.00502 28.6752 3.01406 28.674 3.02294C28.6737 3.02582 28.676 3.03058 28.6713 3.03116C28.6658 3.03182 28.6653 3.02697 28.6636 3.02392C28.6617 3.0208 28.6616 3.01521 28.6558 3.01587C28.6511 3.01636 28.6522 3.02179 28.652 3.02516C28.6517 3.03297 28.6559 3.04012 28.6585 3.04744C28.6598 3.05106 28.661 3.05475 28.6625 3.05961C28.6585 3.05854 28.6559 3.05796 28.6533 3.05722C28.6445 3.05451 28.6418 3.05541 28.6437 3.06199C28.6462 3.07128 28.6502 3.08049 28.6539 3.08961C28.6555 3.09323 28.6563 3.09562 28.6491 3.09562C28.6422 3.09562 28.642 3.09923 28.6423 3.10269C28.6429 3.10852 28.647 3.11362 28.6493 3.11905C28.6531 3.12801 28.6547 3.13672 28.6477 3.14527C28.6457 3.14782 28.6453 3.15078 28.6457 3.15366C28.6462 3.15703 28.6446 3.15925 28.6396 3.15982C28.6334 3.16056 28.6344 3.16344 28.6352 3.16632C28.6365 3.17117 28.6389 3.17586 28.6384 3.18087C28.6339 3.1812 28.6326 3.17898 28.6312 3.17717C28.6114 3.14979 28.589 3.12332 28.5718 3.09496C28.5411 3.04431 28.5498 2.99589 28.5893 2.94936C28.6012 2.93538 28.6149 2.92231 28.6284 2.90924C28.6383 2.8997 28.6473 2.89 28.6493 2.87791C28.6502 2.87298 28.6505 2.86813 28.647 2.86361C28.643 2.86443 28.6422 2.86673 28.6406 2.86846C28.637 2.87273 28.6332 2.87495 28.6265 2.87092C28.6216 2.86788 28.6196 2.87002 28.6186 2.87347C28.6179 2.87602 28.6164 2.87857 28.6162 2.88112C28.6157 2.88613 28.6122 2.88852 28.6051 2.88794C28.5999 2.88753 28.5979 2.8895 28.5964 2.89255C28.5921 2.90052 28.5876 2.9085 28.5825 2.91762C28.579 2.91252 28.5761 2.90833 28.5729 2.90365C28.562 2.91269 28.5627 2.92461 28.5536 2.93415C28.55 2.9311 28.547 2.92839 28.5432 2.9251C28.5397 2.9316 28.5359 2.93744 28.5334 2.94352C28.5316 2.94812 28.5283 2.94927 28.5224 2.94747C28.517 2.94574 28.5152 2.94738 28.5143 2.951C28.5113 2.96185 28.508 2.97271 28.5048 2.98405C28.4987 2.98134 28.498 2.9764 28.4925 2.97369C28.4868 2.97871 28.4868 2.98454 28.4872 2.99005C28.4881 3.00312 28.4796 3.01398 28.4724 3.02524C28.4718 3.02623 28.4701 3.02787 28.4693 3.02779C28.4574 3.02623 28.4599 3.0328 28.4593 3.03675C28.4571 3.05352 28.4531 3.07029 28.4567 3.08731C28.4578 3.09233 28.4563 3.09718 28.4523 3.1017C28.4485 3.10597 28.4455 3.10515 28.4437 3.10112C28.4403 3.09364 28.4371 3.08608 28.4341 3.07851C28.4228 3.049 28.4152 3.01891 28.415 2.98833C28.4147 2.93998 28.4393 2.89888 28.4901 2.86533C28.5399 2.83253 28.595 2.80622 28.6606 2.79159C28.6775 2.78781 28.6949 2.78542 28.7112 2.78032C28.7137 2.77958 28.7176 2.77909 28.7172 2.77712C28.7169 2.77506 28.7133 2.77342 28.7103 2.7735C28.6903 2.77424 28.6695 2.76997 28.6507 2.77893C28.6416 2.78328 28.6317 2.78485 28.6214 2.77917C28.6166 2.77646 28.591 2.78032 28.5863 2.78386C28.5831 2.78624 28.58 2.78879 28.5772 2.79109C28.5732 2.79035 28.5744 2.78822 28.5734 2.7869C28.572 2.78485 28.5734 2.78148 28.5698 2.78074C28.5654 2.77975 28.562 2.7823 28.5592 2.78427C28.5559 2.78657 28.5533 2.78945 28.5506 2.79225C28.5467 2.79611 28.5426 2.79858 28.5354 2.79553C28.5292 2.79282 28.5261 2.79652 28.5231 2.79932C28.5197 2.80252 28.5164 2.80392 28.5119 2.80022C28.5085 2.79742 28.5061 2.798 28.5041 2.80145C28.5011 2.80671 28.4972 2.81181 28.4941 2.81707C28.4921 2.82061 28.4897 2.8216 28.4852 2.81921C28.4801 2.81658 28.4766 2.81765 28.4737 2.82118C28.471 2.82447 28.4672 2.82727 28.4653 2.83097C28.4621 2.83713 28.4565 2.84207 28.4491 2.84626C28.4425 2.84996 28.436 2.85391 28.4313 2.859C28.4303 2.86015 28.4284 2.86172 28.427 2.86172C28.4147 2.86114 28.4152 2.8678 28.4134 2.87306C28.4117 2.87841 28.4098 2.88367 28.4081 2.88909C28.4066 2.89435 28.405 2.89912 28.3962 2.90126C28.391 2.90249 28.3912 2.90661 28.3912 2.90998C28.3914 2.9154 28.3895 2.92173 28.3817 2.92173C28.373 2.92173 28.3727 2.91442 28.3732 2.90981C28.3787 2.84141 28.4187 2.78608 28.5014 2.74752C28.5584 2.72097 28.6222 2.70847 28.6896 2.70387C28.7137 2.70222 28.7377 2.70017 28.7612 2.69597C28.7693 2.69457 28.7766 2.69236 28.7816 2.68594C28.7493 2.68446 28.7186 2.67649 28.6869 2.68356C28.683 2.68446 28.6786 2.68586 28.675 2.68422C28.6636 2.67912 28.6545 2.68282 28.6452 2.68726C28.6425 2.68857 28.6387 2.69137 28.6358 2.68767C28.632 2.68265 28.6271 2.68331 28.6216 2.68553C28.6018 2.69342 28.5791 2.69663 28.5577 2.69984C28.528 2.70428 28.5087 2.71932 28.4834 2.72746C28.4803 2.72845 28.477 2.73215 28.4738 2.73001C28.47 2.72746 28.4753 2.72491 28.4772 2.72286C28.5086 2.68997 28.549 2.66333 28.5951 2.64056C28.6471 2.61491 28.7047 2.6057 28.7675 2.60981C28.7981 2.61179 28.8285 2.614 28.8591 2.61581C28.8648 2.61614 28.8736 2.61795 28.8754 2.61368C28.8766 2.61055 28.8679 2.60825 28.8625 2.60702C28.8478 2.60365 28.8363 2.59584 28.8216 2.59263C28.807 2.58942 28.7926 2.58589 28.7791 2.58071C28.7691 2.57684 28.7556 2.57956 28.7473 2.57224C28.7469 2.57183 28.7448 2.57216 28.7436 2.57249C28.7204 2.57915 28.6956 2.58087 28.6713 2.58457C28.6646 2.58556 28.6589 2.58819 28.6513 2.59049C28.6524 2.58276 28.6585 2.57808 28.6653 2.57413C28.6887 2.56048 28.717 2.55424 28.746 2.54963C28.8026 2.54059 28.8549 2.54856 28.9032 2.57035C28.9208 2.57824 28.9385 2.58564 28.9585 2.59025C28.9647 2.59164 28.9662 2.59123 28.9663 2.58671C28.9668 2.56838 28.9694 2.55013 28.9729 2.53196C28.9738 2.52719 28.9762 2.52505 28.9829 2.52546C28.9907 2.52595 28.993 2.52382 28.9936 2.51823C28.995 2.50474 28.9922 2.49101 28.9987 2.47786C28.9996 2.47589 28.999 2.47301 29.0028 2.47268C29.0072 2.47235 29.0074 2.47564 29.0088 2.47761C29.0145 2.48608 29.0122 2.49545 29.0143 2.50433C29.0152 2.50852 29.015 2.51288 29.0156 2.51716C29.0162 2.52119 29.017 2.52505 29.0234 2.52719C29.0281 2.52875 29.0287 2.53245 29.0288 2.5359C29.0289 2.54018 29.0289 2.54445 29.0291 2.54881C29.0294 2.55481 29.0308 2.5604 29.0367 2.56542C29.043 2.57076 29.0435 2.57767 29.0431 2.58449C29.0425 2.59608 29.0436 2.59699 29.0588 2.59238C29.0797 2.58605 29.0996 2.57816 29.119 2.56977C29.1588 2.55243 29.2014 2.54527 29.248 2.55103C29.2779 2.55473 29.305 2.56353 29.3312 2.57397C29.3389 2.57709 29.3448 2.58186 29.3485 2.5877C29.3515 2.59255 29.3493 2.59493 29.3418 2.59436C29.3385 2.59411 29.3353 2.59304 29.332 2.5923C29.3094 2.5872 29.2857 2.58161 29.2629 2.58679C29.2454 2.59074 29.2287 2.59304 29.2103 2.59337C29.1955 2.59362 29.1842 2.60167 29.1701 2.60652C29.1862 2.61524 29.2037 2.61532 29.2214 2.61474C29.2432 2.61392 29.2649 2.6122 29.2867 2.61187C29.3353 2.61105 29.3788 2.62173 29.4158 2.6436C29.4448 2.66087 29.4731 2.67879 29.4996 2.69803C29.5111 2.70625 29.5199 2.71587 29.5271 2.72721C29.5198 2.72631 29.5147 2.72368 29.5095 2.72154C29.4931 2.7148 29.4759 2.70962 29.4573 2.70592C29.4405 2.70263 29.4243 2.69696 29.4091 2.69063C29.4038 2.68841 29.3982 2.6866 29.3921 2.6857C29.3836 2.68438 29.3753 2.68364 29.3706 2.69063C29.3686 2.69351 29.3659 2.69334 29.3625 2.69153C29.3587 2.68948 29.3545 2.68792 29.3506 2.68594C29.3455 2.68331 29.3412 2.68142 29.3369 2.68685C29.3343 2.6903 29.3301 2.68808 29.3272 2.68685C29.3169 2.68249 29.307 2.67871 29.2953 2.68504C29.2929 2.68627 29.288 2.68537 29.2842 2.68528C29.2727 2.68487 29.2617 2.68561 29.2521 2.69055C29.2494 2.69194 29.2466 2.69236 29.2435 2.69153C29.2426 2.69129 29.2415 2.69104 29.2406 2.69096C29.2349 2.69055 29.2229 2.69638 29.224 2.69967C29.2252 2.70362 29.2314 2.70337 29.2356 2.7037C29.2556 2.70526 29.2756 2.70641 29.2956 2.70773C29.336 2.71036 29.3766 2.7125 29.4158 2.72047C29.5132 2.74029 29.5832 2.78148 29.6179 2.84922C29.6312 2.87528 29.6343 2.90241 29.6304 2.93119C29.6234 2.92667 29.6206 2.92157 29.617 2.91705C29.6021 2.89888 29.5875 2.88054 29.573 2.86221C29.5685 2.85662 29.5638 2.85144 29.5534 2.85103C29.5495 2.85086 29.5497 2.84889 29.5491 2.847C29.5441 2.83031 29.5272 2.82012 29.5086 2.81083C29.5078 2.81041 29.5068 2.81009 29.5059 2.80984C29.4995 2.80787 29.4914 2.80943 29.4861 2.80499C29.4819 2.80129 29.4773 2.79784 29.4728 2.79422C29.4654 2.8017 29.4654 2.8017 29.4571 2.79471C29.4558 2.79364 29.4545 2.79249 29.4532 2.79142C29.4442 2.78386 29.4441 2.78378 29.4355 2.79192C29.4331 2.7943 29.4314 2.79479 29.4287 2.79241C29.4266 2.79052 29.4242 2.78879 29.4222 2.7869C29.4181 2.78295 29.4153 2.77975 29.4065 2.78361C29.3999 2.78649 29.3901 2.7832 29.3821 2.78698C29.3793 2.7883 29.3747 2.78353 29.3706 2.78197C29.3689 2.78131 29.3675 2.77958 29.3653 2.78049C29.3634 2.78123 29.3636 2.78295 29.3638 2.78435C29.3641 2.79118 29.3696 2.79594 29.3773 2.79948C29.4059 2.81288 29.4343 2.82628 29.4632 2.83944C29.5009 2.85662 29.5353 2.8761 29.558 2.90414C29.5835 2.93571 29.5905 2.96999 29.5894 3.00551C29.5882 3.0416 29.576 3.07613 29.5601 3.11025C29.5578 3.11526 29.5557 3.11436 29.5517 3.1114C29.5434 3.10548 29.5438 3.09858 29.5462 3.09142C29.5473 3.08846 29.5489 3.0855 29.5508 3.08271C29.5535 3.07868 29.5522 3.07572 29.5464 3.07407C29.54 3.07235 29.5392 3.06898 29.5398 3.06479C29.5404 3.06002 29.5404 3.05525 29.5408 3.05048C29.5413 3.04596 29.542 3.04185 29.5322 3.043C29.5285 3.04341 29.5282 3.04111 29.5282 3.03905C29.5282 3.03198 29.5253 3.02557 29.5215 3.01907C29.5174 3.01184 29.5214 3.00395 29.5192 2.99647C29.5179 2.99211 29.5175 2.98759 29.5168 2.98315C29.5154 2.98315 29.5147 2.98298 29.5141 2.98315C29.5001 2.98791 29.5001 2.98791 29.4988 2.9769C29.4985 2.97361 29.4975 2.97024 29.4975 2.96695C29.4975 2.96013 29.4958 2.95528 29.4834 2.95799C29.4786 2.95906 29.4782 2.95618 29.4774 2.9538C29.4745 2.94492 29.4714 2.93596 29.468 2.92576C29.4631 2.93086 29.4592 2.9348 29.4542 2.9399C29.4489 2.92856 29.4441 2.91836 29.4389 2.90751C29.4365 2.90899 29.4349 2.90981 29.4335 2.9108C29.4223 2.91844 29.4223 2.91844 29.4161 2.908C29.414 2.90447 29.4118 2.90101 29.4101 2.8974C29.408 2.89255 29.4053 2.88926 29.3967 2.88868C29.3888 2.88819 29.386 2.88243 29.3832 2.87791C29.3808 2.87421 29.3786 2.87224 29.372 2.8729C29.3622 2.87397 29.3553 2.87018 29.3499 2.86459C29.3468 2.86147 29.3434 2.85571 29.3376 2.85785C29.3315 2.86015 29.3342 2.86574 29.3365 2.87027C29.3419 2.88137 29.3535 2.88967 29.3632 2.89888C29.3827 2.91746 29.4048 2.9348 29.4214 2.95486C29.4558 2.99638 29.4606 3.04037 29.4423 3.086C29.4292 3.11896 29.4063 3.14856 29.3772 3.17594C29.373 3.1798 29.3689 3.184 29.3607 3.18638C29.3613 3.18235 29.3613 3.17906 29.3622 3.17594C29.3636 3.17084 29.3662 3.16574 29.3541 3.16599C29.3506 3.16607 29.3512 3.1641 29.3519 3.16229C29.3535 3.15867 29.355 3.15497 29.3565 3.15136C29.3576 3.14831 29.3593 3.14453 29.3566 3.14231C29.3479 3.13491 29.3529 3.12809 29.3568 3.12102C29.3598 3.11568 29.3622 3.11025 29.3653 3.10491C29.3678 3.10055 29.3659 3.09907 29.3595 3.10014C29.3521 3.10137 29.3508 3.09973 29.3526 3.09471C29.3566 3.08304 29.3596 3.07112 29.3632 3.05944C29.3567 3.0578 29.3515 3.06495 29.3475 3.06092C29.3449 3.05829 29.3475 3.05311 29.3479 3.04908C29.3482 3.04456 29.3487 3.04012 29.3493 3.03511C29.3425 3.03626 29.3406 3.04111 29.3335 3.04366C29.3335 3.02927 29.3335 3.01595 29.3335 3.00197C29.3243 3.00345 29.3242 3.00847 29.3212 3.01192C29.3201 3.01307 29.3199 3.01496 29.3175 3.01505C29.3145 3.01513 29.3139 3.01307 29.3133 3.01159C29.311 3.0065 29.3116 3.00123 29.311 2.99597C29.3102 2.98857 29.3092 2.98791 29.3006 2.99153C29.2953 2.99375 29.2949 2.99186 29.2945 2.98915C29.2935 2.98422 29.2926 2.9792 29.2917 2.97427C29.2912 2.9709 29.29 2.96835 29.2842 2.97098C29.2781 2.97377 29.276 2.97123 29.274 2.96769C29.2695 2.95955 29.2617 2.95347 29.2496 2.95051C29.2434 2.94903 29.2402 2.94919 29.2414 2.95503C29.2455 2.97558 29.2497 2.99605 29.2526 3.01669C29.2604 3.07432 29.2573 3.13138 29.2312 3.18696C29.2184 3.214 29.2006 3.23933 29.1781 3.26317C29.1702 3.27155 29.1603 3.27871 29.1494 3.2852C29.1461 3.28356 29.1477 3.2815 29.1476 3.27977C29.1462 3.25215 29.152 3.22436 29.1484 3.19699C29.1459 3.17668 29.1502 3.15826 29.1616 3.14009C29.1621 3.13927 29.1622 3.13837 29.1628 3.13672C29.1508 3.13779 29.148 3.14593 29.1382 3.15029C29.1374 3.14001 29.1366 3.13072 29.136 3.12135C29.1356 3.11543 29.1355 3.10943 29.1351 3.10351C29.1346 3.09348 29.1326 3.08402 29.1234 3.07539C29.1113 3.06396 29.1135 3.04949 29.11 3.03617C29.1095 3.03437 29.111 3.03182 29.1082 3.03099C29.1048 3.03001 29.1029 3.03256 29.1007 3.03387C29.0878 3.04144 29.0873 3.05278 29.0824 3.06281C29.0701 3.08896 29.0722 3.11592 29.0735 3.14281C29.0754 3.17988 29.0769 3.21705 29.0789 3.25412C29.0838 3.34505 29.0869 3.43598 29.0877 3.52699C29.088 3.55799 29.0886 3.5889 29.0902 3.61989C29.0914 3.64193 29.0987 3.66322 29.1126 3.6832C29.1257 3.70227 29.1267 3.72151 29.1147 3.74124C29.0998 3.76574 29.1042 3.78934 29.1237 3.81154C29.138 3.82773 29.1539 3.84327 29.169 3.85906C29.174 3.86423 29.1788 3.8695 29.1816 3.87533C29.1882 3.88865 29.1809 3.89852 29.1614 3.90222C29.14 3.90625 29.118 3.90855 29.0957 3.90879C29.033 3.90945 28.9702 3.91027 28.9075 3.90912C28.8859 3.90871 28.8648 3.90633 28.8442 3.90189C28.8239 3.89753 28.8173 3.88775 28.8256 3.8741C28.8338 3.86037 28.8466 3.84853 28.8588 3.83653C28.8805 3.81499 28.8965 3.79197 28.8974 3.76484C28.8977 3.75251 28.8946 3.74067 28.8869 3.72957C28.877 3.71543 28.8775 3.70145 28.8886 3.68789C28.9082 3.66437 28.9114 3.63831 28.9128 3.612C28.9169 3.53587 28.919 3.45966 28.9211 3.38345C28.9229 3.31874 28.9282 3.25404 28.9315 3.18934C28.9335 3.14905 28.9309 3.10885 28.9291 3.06857C28.9291 3.05393 28.9165 3.03815 28.9015 3.03042Z" fill="black"/>
<path d="M30.3491 3.76972C30.3335 3.77251 30.3188 3.77259 30.3043 3.77358C30.2365 3.77794 30.1684 3.78106 30.1008 3.78764C30.013 3.79619 29.9257 3.80671 29.8398 3.82192C29.7631 3.83557 29.689 3.85448 29.6164 3.87668C29.5264 3.90422 29.4387 3.9348 29.358 3.97427C29.2871 4.00896 29.2245 4.0504 29.1635 4.09307C29.1493 4.10301 29.1354 4.11313 29.1218 4.12348C29.1116 4.13113 29.1114 4.1331 29.1205 4.14132C29.1472 4.16541 29.174 4.18942 29.2011 4.21334C29.2398 4.24755 29.2827 4.27912 29.3252 4.31101C29.3307 4.31521 29.3371 4.31883 29.3428 4.32285C29.3479 4.32639 29.3505 4.32524 29.3526 4.32096C29.3631 4.30057 29.3737 4.28027 29.3841 4.25988C29.3885 4.25133 29.3934 4.24302 29.4005 4.23538C29.4171 4.21729 29.442 4.2126 29.4683 4.2237C29.4946 4.2348 29.5069 4.25141 29.5046 4.27287C29.5037 4.28249 29.4951 4.28923 29.4791 4.29161C29.4414 4.29729 29.4244 4.3157 29.4168 4.33979C29.41 4.36166 29.4168 4.38098 29.4398 4.39767C29.4614 4.41337 29.4837 4.42833 29.5101 4.43984C29.5332 4.44987 29.5387 4.44889 29.5507 4.43203C29.5578 4.42217 29.565 4.41247 29.5772 4.40515C29.6079 4.38673 29.6552 4.38279 29.6919 4.41321C29.7198 4.43631 29.727 4.46369 29.7228 4.49295C29.72 4.5117 29.7099 4.52864 29.6925 4.54286C29.664 4.56604 29.6264 4.57106 29.585 4.5681C29.5414 4.56497 29.5052 4.55034 29.4699 4.53365C29.4298 4.51474 29.3891 4.49641 29.3486 4.47791C29.3364 4.47232 29.336 4.47257 29.3254 4.47988C29.3007 4.49698 29.2786 4.51589 29.2513 4.5311C29.2151 4.55124 29.1596 4.54944 29.13 4.52683C29.0992 4.50331 29.0975 4.46763 29.1416 4.44264C29.1491 4.43845 29.1575 4.43836 29.1656 4.44149C29.18 4.44691 29.1938 4.45308 29.2084 4.45818C29.2275 4.46492 29.2468 4.46155 29.2607 4.45012C29.2693 4.44297 29.2706 4.43524 29.2653 4.42685C29.2559 4.41197 29.2398 4.40055 29.2245 4.38871C29.158 4.33765 29.0914 4.2866 29.0248 4.23562C29.0185 4.23069 29.0123 4.22329 29.0039 4.2228C28.9956 4.22239 28.9901 4.23028 28.9835 4.23472C28.9254 4.27369 28.8722 4.31578 28.8196 4.35837C28.7996 4.37457 28.7797 4.39101 28.7597 4.40721C28.753 4.41263 28.7474 4.41855 28.7434 4.42521C28.7376 4.43491 28.7389 4.44395 28.7491 4.45177C28.7598 4.45999 28.773 4.46344 28.7888 4.4599C28.8025 4.45686 28.8144 4.45111 28.8271 4.44667C28.8326 4.44478 28.8381 4.44272 28.8437 4.44116C28.8531 4.43853 28.8621 4.43943 28.8695 4.4442C28.8917 4.45867 28.8997 4.47692 28.8953 4.49739C28.8906 4.51877 28.8755 4.53579 28.8447 4.54261C28.8158 4.54894 28.7888 4.54269 28.7631 4.53332C28.7356 4.52329 28.7156 4.50734 28.6968 4.49057C28.6911 4.48547 28.6845 4.48087 28.6794 4.47569C28.6754 4.47174 28.6717 4.47224 28.6667 4.47421C28.6378 4.48514 28.6119 4.4992 28.5849 4.51195C28.5583 4.52444 28.5332 4.53842 28.5048 4.54902C28.4716 4.56136 28.4364 4.56752 28.3986 4.56654C28.3482 4.5653 28.3103 4.54434 28.2926 4.50751C28.2745 4.46977 28.2903 4.42973 28.3336 4.40383C28.368 4.3832 28.4124 4.38632 28.4406 4.41132C28.4506 4.42011 28.459 4.42965 28.4676 4.4391C28.4756 4.44782 28.4779 4.44856 28.4904 4.44363C28.5283 4.42866 28.5601 4.4086 28.5868 4.38484C28.5957 4.37687 28.5975 4.36733 28.5936 4.35771C28.5882 4.34398 28.5819 4.33034 28.5762 4.31669C28.5714 4.30493 28.5608 4.29737 28.5439 4.29391C28.5417 4.29342 28.5395 4.29276 28.5372 4.29227C28.5085 4.28594 28.5011 4.27731 28.5064 4.25642C28.5129 4.23086 28.5483 4.21458 28.5838 4.22058C28.6002 4.22337 28.6106 4.23053 28.6161 4.24138C28.6277 4.26448 28.6391 4.28767 28.6507 4.31085C28.6584 4.32647 28.6631 4.32738 28.6789 4.31504C28.7504 4.25971 28.8195 4.2029 28.8846 4.14379C28.8933 4.1359 28.8929 4.13401 28.8846 4.12546C28.8664 4.10671 28.8424 4.09175 28.8195 4.07621C28.766 4.03979 28.7095 4.00584 28.6498 3.97435C28.5968 3.94623 28.5377 3.92559 28.4783 3.90537C28.4109 3.88251 28.3422 3.86155 28.2714 3.8442C28.1774 3.8211 28.082 3.80211 27.9831 3.79233C27.9247 3.78649 27.866 3.78254 27.8074 3.77802C27.7742 3.77539 27.741 3.77227 27.708 3.76939C27.7043 3.76906 27.7004 3.76873 27.6973 3.76561C27.7086 3.76224 27.7203 3.7615 27.7317 3.76108C27.829 3.75755 27.926 3.74916 28.0237 3.75007C28.1382 3.75114 28.2516 3.7587 28.3631 3.77794C28.4385 3.79093 28.5106 3.80992 28.5805 3.83343C28.6499 3.85678 28.7183 3.88136 28.7811 3.91293C28.8349 3.93998 28.8853 3.96991 28.9331 4.00181C28.9527 4.0148 28.9722 4.0277 28.9906 4.04143C28.9981 4.04703 29.0029 4.04612 29.0096 4.04176C29.0322 4.02721 29.0552 4.01307 29.0774 3.99827C29.1716 3.93571 29.2764 3.8835 29.393 3.84305C29.4654 3.81789 29.5407 3.79792 29.6185 3.78238C29.7008 3.76594 29.7848 3.75681 29.8701 3.75295C29.9515 3.74916 30.0329 3.75097 30.1143 3.75385C30.1575 3.75541 30.2008 3.75656 30.244 3.75878C30.2749 3.76034 30.3056 3.76339 30.3365 3.76585C30.3405 3.7661 30.3447 3.76651 30.3491 3.76972ZM29.5929 4.51951C29.597 4.51951 29.6011 4.51967 29.6051 4.51951C29.6396 4.51787 29.6593 4.50759 29.6673 4.4872C29.6737 4.47084 29.662 4.44765 29.6424 4.43787C29.6255 4.4294 29.604 4.43516 29.5952 4.45094C29.5893 4.46138 29.5859 4.47232 29.5851 4.48358C29.5842 4.49476 29.5776 4.49822 29.5617 4.49707C29.5552 4.49657 29.5491 4.49493 29.5431 4.49345C29.5054 4.48424 29.4753 4.46763 29.4483 4.44757C29.4333 4.43656 29.4167 4.42653 29.4012 4.41584C29.3957 4.41206 29.3928 4.41288 29.3893 4.41724C29.381 4.42743 29.3818 4.43598 29.3932 4.4447C29.4114 4.45859 29.431 4.47158 29.4527 4.4826C29.4946 4.50389 29.5401 4.51852 29.5929 4.51951ZM28.3439 4.47569C28.3439 4.50504 28.3624 4.51976 28.4029 4.52066C28.4431 4.52157 28.4813 4.51408 28.5163 4.50011C28.5548 4.48473 28.5861 4.46295 28.619 4.44272C28.6279 4.43721 28.6292 4.42965 28.6252 4.42167C28.6211 4.41354 28.6199 4.41304 28.6099 4.41765C28.6049 4.41995 28.5999 4.42258 28.5954 4.42546C28.5671 4.44297 28.5388 4.46048 28.5108 4.47824C28.4937 4.48917 28.4743 4.49526 28.451 4.49575C28.4323 4.49616 28.4264 4.49287 28.4239 4.48005C28.4222 4.47084 28.4196 4.46171 28.4178 4.4525C28.4158 4.44231 28.408 4.43582 28.3936 4.43393C28.3784 4.43195 28.3658 4.4354 28.357 4.44428C28.3473 4.45398 28.3447 4.46525 28.3439 4.47569ZM29.1752 4.46993C29.1666 4.46985 29.1611 4.47298 29.1581 4.4784C29.152 4.4895 29.1594 4.50208 29.1747 4.50734C29.2025 4.51696 29.2291 4.51392 29.2522 4.50134C29.2824 4.48498 29.3061 4.46475 29.3215 4.43976C29.349 4.39545 29.3772 4.3513 29.4052 4.30723C29.4127 4.29539 29.4238 4.28561 29.442 4.28092C29.4481 4.27936 29.4521 4.27616 29.456 4.27287C29.4646 4.26563 29.4626 4.257 29.4508 4.24968C29.4408 4.24343 29.4297 4.24368 29.4203 4.25083C29.4108 4.2579 29.405 4.26662 29.4001 4.2755C29.3793 4.31373 29.3586 4.35204 29.3381 4.39035C29.3224 4.41987 29.3007 4.44683 29.2707 4.47043C29.2585 4.48005 29.2433 4.4835 29.2256 4.48054C29.2181 4.47931 29.2109 4.47684 29.2035 4.47511C29.1944 4.47289 29.1853 4.4701 29.1752 4.46993ZM28.8063 4.51145C28.8148 4.5117 28.8323 4.50742 28.8386 4.50356C28.8487 4.49731 28.8528 4.4835 28.8467 4.47594C28.8415 4.46961 28.8331 4.46887 28.8155 4.47281C28.8042 4.47536 28.7928 4.47807 28.7813 4.48005C28.7636 4.48317 28.7482 4.47996 28.7357 4.47051C28.7262 4.46328 28.7178 4.45546 28.7121 4.4465C28.6805 4.3975 28.6483 4.34867 28.6214 4.29819C28.6126 4.28183 28.6025 4.26604 28.5874 4.25199C28.5822 4.24722 28.5757 4.2445 28.5671 4.24582C28.5577 4.24722 28.5513 4.25125 28.5493 4.25807C28.5463 4.26802 28.5516 4.27591 28.5656 4.2801C28.5869 4.28643 28.6012 4.29729 28.6099 4.312C28.6314 4.34776 28.653 4.38353 28.6736 4.41954C28.6898 4.44798 28.7103 4.47421 28.7449 4.49402C28.7628 4.50446 28.7829 4.51063 28.8063 4.51145ZM29.3141 4.36191C29.3141 4.3564 29.3097 4.3513 29.3033 4.3467C29.2693 4.3217 29.2355 4.29654 29.2013 4.27172C29.1886 4.26251 29.1768 4.25248 29.1618 4.24491C29.1585 4.24319 29.1543 4.2422 29.1514 4.24393C29.1485 4.24565 29.1527 4.24755 29.1539 4.24935C29.1548 4.25083 29.1562 4.25223 29.1575 4.25363C29.1985 4.294 29.2394 4.33436 29.2804 4.37481C29.284 4.37835 29.2882 4.38139 29.2939 4.38328C29.2968 4.38427 29.3 4.38509 29.302 4.38262C29.3072 4.37629 29.3137 4.37054 29.3141 4.36191ZM28.8496 4.2445C28.8476 4.24343 28.8466 4.24426 28.8454 4.24459C28.8321 4.24829 28.8238 4.25601 28.8147 4.263C28.7776 4.2912 28.7407 4.31948 28.7036 4.34768C28.6989 4.3513 28.6955 4.35533 28.694 4.3601C28.6915 4.36791 28.6989 4.37761 28.7109 4.38073C28.7202 4.3832 28.7212 4.37555 28.7267 4.37317C28.7269 4.37309 28.7271 4.37276 28.7272 4.37259C28.7667 4.3379 28.8023 4.30131 28.8353 4.26358C28.8408 4.25749 28.8464 4.25141 28.8496 4.2445Z" fill="black"/>
<path d="M28.3599 8.58594V7.13139H28.7115V7.74645H28.7307L29.2115 7.13139H29.6256L29.1099 7.78054L29.6348 8.58594H29.2143L28.8521 8.0142L28.7115 8.19176V8.58594H28.3599ZM29.1882 9.56747C29.1834 9.51539 29.1624 9.47491 29.1249 9.44602C29.088 9.41667 29.0352 9.40199 28.9666 9.40199C28.9211 9.40199 28.8832 9.40791 28.8529 9.41974C28.8226 9.43158 28.7999 9.44792 28.7848 9.46875C28.7696 9.48911 28.7618 9.51255 28.7613 9.53906C28.7604 9.56084 28.7646 9.58002 28.7741 9.59659C28.784 9.61316 28.7982 9.62784 28.8167 9.64062C28.8357 9.65294 28.8584 9.66383 28.8849 9.6733C28.9114 9.68277 28.9412 9.69105 28.9744 9.69815L29.0994 9.72656C29.1714 9.74219 29.2348 9.76302 29.2897 9.78906C29.3451 9.8151 29.3915 9.84612 29.4289 9.8821C29.4668 9.91809 29.4955 9.95952 29.5149 10.0064C29.5343 10.0533 29.5442 10.1058 29.5447 10.1641C29.5442 10.2559 29.521 10.3348 29.4751 10.4006C29.4292 10.4664 29.3631 10.5168 29.2769 10.5518C29.1912 10.5869 29.0878 10.6044 28.9666 10.6044C28.8449 10.6044 28.7388 10.5862 28.6484 10.5497C28.558 10.5133 28.4876 10.4579 28.4374 10.3835C28.3873 10.3092 28.3615 10.2152 28.36 10.1016H28.6967C28.6995 10.1484 28.7121 10.1875 28.7343 10.2188C28.7566 10.25 28.7871 10.2737 28.8259 10.2898C28.8652 10.3059 28.9107 10.3139 28.9623 10.3139C29.0097 10.3139 29.0499 10.3075 29.083 10.2947C29.1167 10.282 29.1425 10.2642 29.1605 10.2415C29.1785 10.2187 29.1877 10.1927 29.1882 10.1634C29.1877 10.1359 29.1792 10.1125 29.1626 10.093C29.146 10.0732 29.1205 10.0561 29.0859 10.0419C29.0518 10.0272 29.0082 10.0137 28.9552 10.0014L28.8032 9.96591C28.6773 9.93703 28.5781 9.89039 28.5056 9.82599C28.4332 9.76113 28.3972 9.67353 28.3977 9.56321C28.3972 9.47325 28.4214 9.39441 28.4701 9.3267C28.5189 9.259 28.5864 9.2062 28.6725 9.16832C28.7587 9.13045 28.857 9.11151 28.9673 9.11151C29.08 9.11151 29.1777 9.13068 29.2606 9.16903C29.3439 9.20691 29.4086 9.26018 29.4545 9.32884C29.5004 9.39749 29.5239 9.47704 29.5248 9.56747H29.1882ZM28.6052 12.5859H28.2274L28.7182 11.1314H29.1862L29.677 12.5859H29.2991L28.9575 11.4979H28.9461L28.6052 12.5859ZM28.5548 12.0135H29.3446V12.2805H28.5548V12.0135Z" fill="black"/>
<path d="M19.6101 5.68111L19.6385 5.36861L19.3793 5.54972L19.2373 5.30114L19.5213 5.16974L19.2373 5.03835L19.3793 4.78977L19.6385 4.97088L19.6101 4.65838H19.8942L19.8658 4.97088L20.125 4.78977L20.2671 5.03835L19.983 5.16974L20.2671 5.30114L20.125 5.54972L19.8658 5.36861L19.8942 5.68111H19.6101ZM21.1311 5.68111L21.1595 5.36861L20.9003 5.54972L20.7583 5.30114L21.0423 5.16974L20.7583 5.03835L20.9003 4.78977L21.1595 4.97088L21.1311 4.65838H21.4152L21.3868 4.97088L21.646 4.78977L21.7881 5.03835L21.504 5.16974L21.7881 5.30114L21.646 5.54972L21.3868 5.36861L21.4152 5.68111H21.1311ZM22.6521 5.68111L22.6805 5.36861L22.4213 5.54972L22.2793 5.30114L22.5633 5.16974L22.2793 5.03835L22.4213 4.78977L22.6805 4.97088L22.6521 4.65838H22.9362L22.9078 4.97088L23.167 4.78977L23.3091 5.03835L23.025 5.16974L23.3091 5.30114L23.167 5.54972L22.9078 5.36861L22.9362 5.68111H22.6521ZM24.1731 5.68111L24.2015 5.36861L23.9423 5.54972L23.8002 5.30114L24.0843 5.16974L23.8002 5.03835L23.9423 4.78977L24.2015 4.97088L24.1731 4.65838H24.4572L24.4288 4.97088L24.688 4.78977L24.8301 5.03835L24.546 5.16974L24.8301 5.30114L24.688 5.54972L24.4288 5.36861L24.4572 5.68111H24.1731ZM19.6101 8.68111L19.6385 8.36861L19.3793 8.54972L19.2373 8.30114L19.5213 8.16974L19.2373 8.03835L19.3793 7.78977L19.6385 7.97088L19.6101 7.65838H19.8942L19.8658 7.97088L20.125 7.78977L20.2671 8.03835L19.983 8.16974L20.2671 8.30114L20.125 8.54972L19.8658 8.36861L19.8942 8.68111H19.6101ZM21.1311 8.68111L21.1595 8.36861L20.9003 8.54972L20.7583 8.30114L21.0423 8.16974L20.7583 8.03835L20.9003 7.78977L21.1595 7.97088L21.1311 7.65838H21.4152L21.3868 7.97088L21.646 7.78977L21.7881 8.03835L21.504 8.16974L21.7881 8.30114L21.646 8.54972L21.3868 8.36861L21.4152 8.68111H21.1311ZM22.6521 8.68111L22.6805 8.36861L22.4213 8.54972L22.2793 8.30114L22.5633 8.16974L22.2793 8.03835L22.4213 7.78977L22.6805 7.97088L22.6521 7.65838H22.9362L22.9078 7.97088L23.167 7.78977L23.3091 8.03835L23.025 8.16974L23.3091 8.30114L23.167 8.54972L22.9078 8.36861L22.9362 8.68111H22.6521ZM24.1731 8.68111L24.2015 8.36861L23.9423 8.54972L23.8002 8.30114L24.0843 8.16974L23.8002 8.03835L23.9423 7.78977L24.2015 7.97088L24.1731 7.65838H24.4572L24.4288 7.97088L24.688 7.78977L24.8301 8.03835L24.546 8.16974L24.8301 8.30114L24.688 8.54972L24.4288 8.36861L24.4572 8.68111H24.1731Z" fill="black"/>
<path d="M3.52028 5.68111L3.54869 5.36861L3.28946 5.54972L3.14741 5.30114L3.43151 5.16974L3.14741 5.03835L3.28946 4.78977L3.54869 4.97088L3.52028 4.65838H3.80437L3.77597 4.97088L4.0352 4.78977L4.17724 5.03835L3.89315 5.16974L4.17724 5.30114L4.0352 5.54972L3.77597 5.36861L3.80437 5.68111H3.52028ZM5.04128 5.68111L5.06969 5.36861L4.81046 5.54972L4.66841 5.30114L4.9525 5.16974L4.66841 5.03835L4.81046 4.78977L5.06969 4.97088L5.04128 4.65838H5.32537L5.29696 4.97088L5.55619 4.78977L5.69824 5.03835L5.41415 5.16974L5.69824 5.30114L5.55619 5.54972L5.29696 5.36861L5.32537 5.68111H5.04128ZM6.56228 5.68111L6.59069 5.36861L6.33145 5.54972L6.18941 5.30114L6.4735 5.16974L6.18941 5.03835L6.33145 4.78977L6.59069 4.97088L6.56228 4.65838H6.84637L6.81796 4.97088L7.07719 4.78977L7.21924 5.03835L6.93515 5.16974L7.21924 5.30114L7.07719 5.54972L6.81796 5.36861L6.84637 5.68111H6.56228ZM8.08327 5.68111L8.11168 5.36861L7.85245 5.54972L7.7104 5.30114L7.99449 5.16974L7.7104 5.03835L7.85245 4.78977L8.11168 4.97088L8.08327 4.65838H8.36736L8.33895 4.97088L8.59819 4.78977L8.74023 5.03835L8.45614 5.16974L8.74023 5.30114L8.59819 5.54972L8.33895 5.36861L8.36736 5.68111H8.08327ZM3.52028 8.68111L3.54869 8.36861L3.28946 8.54972L3.14741 8.30114L3.43151 8.16974L3.14741 8.03835L3.28946 7.78977L3.54869 7.97088L3.52028 7.65838H3.80437L3.77597 7.97088L4.0352 7.78977L4.17724 8.03835L3.89315 8.16974L4.17724 8.30114L4.0352 8.54972L3.77597 8.36861L3.80437 8.68111H3.52028ZM5.04128 8.68111L5.06969 8.36861L4.81046 8.54972L4.66841 8.30114L4.9525 8.16974L4.66841 8.03835L4.81046 7.78977L5.06969 7.97088L5.04128 7.65838H5.32537L5.29696 7.97088L5.55619 7.78977L5.69824 8.03835L5.41415 8.16974L5.69824 8.30114L5.55619 8.54972L5.29696 8.36861L5.32537 8.68111H5.04128ZM6.56228 8.68111L6.59069 8.36861L6.33145 8.54972L6.18941 8.30114L6.4735 8.16974L6.18941 8.03835L6.33145 7.78977L6.59069 7.97088L6.56228 7.65838H6.84637L6.81796 7.97088L7.07719 7.78977L7.21924 8.03835L6.93515 8.16974L7.21924 8.30114L7.07719 8.54972L6.81796 8.36861L6.84637 8.68111H6.56228ZM8.08327 8.68111L8.11168 8.36861L7.85245 8.54972L7.7104 8.30114L7.99449 8.16974L7.7104 8.03835L7.85245 7.78977L8.11168 7.97088L8.08327 7.65838H8.36736L8.33895 7.97088L8.59819 7.78977L8.74023 8.03835L8.45614 8.16974L8.74023 8.30114L8.59819 8.54972L8.33895 8.36861L8.36736 8.68111H8.08327Z" fill="black"/>
</g>
<rect x="0.75" y="0.75" width="31.5" height="12.5" rx="1.25" stroke="black" stroke-width="1.5"/>
<defs>
<clipPath id="clip0_29357_45260">
<rect width="33" height="14" rx="2" fill="white"/>
</clipPath>
</defs>
</svg>
