<svg width="28" height="17" viewBox="0 0 28 17" fill="none" xmlns="http://www.w3.org/2000/svg">
<g clip-path="url(#clip0_29357_45260)">
<rect width="28" height="17" rx="2" fill="white"/>
<path d="M22.8145 17.0078V1.06146" stroke="black"/>
<path d="M11.6788 6.10701C11.6759 6.11571 11.6729 6.12385 11.671 6.13236C11.6693 6.13955 11.6657 6.14484 11.6583 6.14257C11.6288 6.13387 11.6322 6.15316 11.6351 6.17018C11.6428 6.21841 11.6339 6.26494 11.6226 6.31166C11.6201 6.32187 11.6167 6.32887 11.6054 6.32735C11.5868 6.3249 11.5872 6.33435 11.5906 6.34778C11.5955 6.36688 11.6001 6.38617 11.6033 6.40566C11.6058 6.42116 11.6046 6.43629 11.5895 6.4467C11.5806 6.45294 11.5795 6.46277 11.5787 6.47299C11.5776 6.48944 11.5836 6.50476 11.5853 6.52462C11.5626 6.51289 11.5556 6.49228 11.5447 6.47507C11.5401 6.46788 11.5373 6.45445 11.5275 6.45823C11.5178 6.46202 11.5235 6.47393 11.5259 6.48225C11.539 6.52708 11.5519 6.57209 11.5653 6.61692C11.5713 6.63678 11.5711 6.65455 11.5513 6.66647C11.5377 6.6746 11.5428 6.68652 11.5445 6.69787C11.5606 6.80208 11.5768 6.9061 11.5734 7.01202C11.573 7.02507 11.5795 7.04474 11.5676 7.04965C11.5515 7.05646 11.538 7.04039 11.5276 7.02828C11.4662 6.95679 11.4179 6.87679 11.3816 6.78997C11.2984 6.59025 11.271 6.38182 11.2829 6.16659C11.2886 6.06484 11.3117 5.96516 11.3188 5.86379C11.3205 5.83863 11.3236 5.81367 11.3213 5.78833C11.3205 5.77963 11.3204 5.76847 11.3096 5.76676C11.3005 5.76544 11.2926 5.77149 11.2867 5.77887C11.2765 5.79173 11.277 5.80743 11.274 5.82237C11.271 5.83712 11.2704 5.85774 11.2475 5.83712C11.2421 5.8322 11.2356 5.83145 11.2307 5.83693C11.2163 5.85244 11.2004 5.84942 11.1806 5.83769C11.1806 5.87495 11.1808 5.90767 11.1804 5.94039C11.1804 5.94625 11.1836 5.95495 11.1759 5.95703C11.1658 5.95968 11.166 5.94928 11.1634 5.94323C11.1617 5.93906 11.1613 5.93434 11.1596 5.93017C11.1564 5.92223 11.1583 5.90767 11.1482 5.90842C11.1356 5.90937 11.1354 5.92431 11.135 5.93434C11.1342 5.96233 11.1384 5.98994 11.1441 6.01737C11.1465 6.02947 11.1473 6.04195 11.149 6.05595C11.125 6.05292 11.1182 6.03647 11.1116 6.01963C11.1055 6.00431 11.1046 5.98578 11.0851 5.97708C11.0728 6.0115 11.0811 6.04592 11.0779 6.0794C11.0769 6.09018 11.083 6.10815 11.0707 6.11042C11.0561 6.11288 11.0548 6.09453 11.0501 6.08318C11.0452 6.07127 11.0448 6.05027 11.0297 6.05273C11.0172 6.05481 11.02 6.07505 11.0196 6.08791C11.0189 6.11723 11.03 6.14427 11.0368 6.17227C11.0403 6.18607 11.0433 6.20007 11.0474 6.21822C11.037 6.21425 11.0298 6.21217 11.0232 6.20915C11.0002 6.19874 10.993 6.20234 10.9977 6.2273C11.0043 6.26248 11.0147 6.29709 11.0249 6.33152C11.0289 6.34513 11.0312 6.35421 11.0123 6.35421C10.9939 6.35421 10.9935 6.36783 10.9943 6.38088C10.9956 6.40282 11.0068 6.42211 11.0128 6.44273C11.0229 6.47658 11.027 6.50949 11.0085 6.54183C11.003 6.55148 11.0022 6.56264 11.0034 6.57342C11.0047 6.58628 11.0005 6.5946 10.9873 6.59668C10.9712 6.59933 10.9737 6.6103 10.9758 6.62127C10.9792 6.63942 10.9854 6.6572 10.9843 6.6763C10.9725 6.67744 10.9689 6.66931 10.9655 6.6625C10.9132 6.55904 10.854 6.45899 10.8088 6.35194C10.7278 6.16054 10.7509 5.97765 10.8551 5.80175C10.8863 5.74899 10.9224 5.69962 10.9584 5.65026C10.9845 5.61432 11.0085 5.57763 11.0138 5.53205C11.0159 5.51352 11.017 5.49517 11.0075 5.47796C10.9969 5.48098 10.9947 5.48987 10.9909 5.4963C10.9812 5.51257 10.9712 5.52089 10.9538 5.50576C10.9408 5.49441 10.9357 5.50255 10.933 5.51541C10.9309 5.52505 10.9271 5.53451 10.9264 5.54434C10.9251 5.56326 10.916 5.57234 10.8971 5.57025C10.8835 5.56874 10.8784 5.57631 10.874 5.58766C10.8628 5.61792 10.8507 5.6478 10.8373 5.68222C10.828 5.66293 10.8205 5.64723 10.812 5.62945C10.7834 5.6635 10.7851 5.7087 10.7609 5.74482C10.7516 5.73329 10.7435 5.72307 10.7335 5.71059C10.7242 5.73518 10.7144 5.75731 10.7076 5.78019C10.7025 5.79759 10.6938 5.80194 10.6782 5.79495C10.6641 5.78851 10.6593 5.79476 10.6569 5.80818C10.6493 5.84942 10.6406 5.89027 10.6319 5.9332C10.6156 5.92299 10.6138 5.90426 10.5992 5.89424C10.5844 5.91315 10.5843 5.93528 10.5852 5.9559C10.5877 6.00526 10.565 6.04649 10.5459 6.08905C10.5442 6.09283 10.5398 6.09907 10.5377 6.09869C10.5065 6.09283 10.5128 6.11761 10.5114 6.13274C10.5056 6.19629 10.4948 6.25964 10.5046 6.32376C10.5075 6.34286 10.5033 6.36102 10.4927 6.37804C10.4827 6.39412 10.4751 6.39128 10.4702 6.37596C10.4611 6.34778 10.4528 6.31922 10.445 6.29066C10.4152 6.17907 10.3949 6.06559 10.3946 5.94984C10.394 5.76714 10.4589 5.61186 10.5931 5.48515C10.7244 5.36126 10.87 5.26197 11.0433 5.20655C11.0877 5.19237 11.1339 5.1831 11.1766 5.164C11.183 5.16116 11.1933 5.15946 11.1925 5.1517C11.1917 5.14376 11.1823 5.13771 11.1743 5.13809C11.1216 5.14092 11.0665 5.12466 11.0172 5.1587C10.9932 5.17535 10.9669 5.18121 10.94 5.15965C10.9271 5.14925 10.8594 5.164 10.8471 5.17743C10.8388 5.1865 10.8307 5.19596 10.8231 5.20466C10.8123 5.20182 10.8157 5.19388 10.8133 5.18877C10.8097 5.18102 10.8133 5.16835 10.8036 5.16532C10.7921 5.16173 10.783 5.17137 10.7758 5.17875C10.7671 5.18764 10.7603 5.19842 10.7531 5.20882C10.7429 5.22339 10.732 5.23284 10.7132 5.2213C10.6966 5.21109 10.6887 5.22509 10.6807 5.23549C10.6716 5.24759 10.6631 5.2527 10.651 5.23889C10.6419 5.2283 10.6357 5.23038 10.6304 5.24362C10.6225 5.26367 10.6121 5.28258 10.6041 5.30263C10.5988 5.31587 10.5924 5.31984 10.5805 5.31076C10.5672 5.30074 10.5578 5.30471 10.55 5.31833C10.5428 5.33062 10.533 5.3414 10.5281 5.3554C10.5198 5.37885 10.5046 5.39739 10.4853 5.41309C10.4679 5.42727 10.4509 5.44202 10.4386 5.46131C10.436 5.46566 10.4309 5.47172 10.4271 5.47153C10.3947 5.46945 10.3961 5.49441 10.3913 5.51446C10.3866 5.53451 10.3817 5.55475 10.3775 5.57498C10.3736 5.59484 10.3692 5.613 10.3461 5.62094C10.3321 5.62567 10.3327 5.64118 10.3329 5.65385C10.3335 5.67447 10.3287 5.6983 10.3079 5.6983C10.2849 5.6983 10.2845 5.67087 10.2854 5.6531C10.3002 5.39474 10.4057 5.18575 10.624 5.03993C10.7741 4.93969 10.9425 4.89221 11.1208 4.875C11.1844 4.86895 11.2477 4.86101 11.31 4.84512C11.3313 4.83963 11.3506 4.8315 11.3637 4.8071C11.2787 4.80143 11.1976 4.77136 11.1138 4.79821C11.1034 4.80162 11.0921 4.80691 11.0824 4.80067C11.0524 4.78138 11.0283 4.79538 11.0037 4.81202C10.9966 4.81694 10.9865 4.82753 10.979 4.81334C10.9689 4.79443 10.9561 4.79708 10.9413 4.8054C10.8889 4.8351 10.829 4.84739 10.7728 4.85949C10.6945 4.87614 10.6438 4.93307 10.5767 4.96389C10.5682 4.96787 10.5597 4.98148 10.5513 4.97335C10.5413 4.96371 10.5553 4.95406 10.5604 4.94631C10.6434 4.82205 10.7499 4.72143 10.8715 4.63537C11.0087 4.53835 11.1611 4.50355 11.3268 4.51905C11.4074 4.52662 11.4881 4.53494 11.5687 4.54175C11.5836 4.54307 11.6071 4.54988 11.6116 4.53343C11.615 4.52151 11.592 4.51281 11.5778 4.50827C11.5388 4.4956 11.5085 4.46591 11.4698 4.4538C11.4312 4.4417 11.3934 4.42827 11.3578 4.40879C11.3315 4.39442 11.2956 4.40444 11.274 4.37683C11.2729 4.37531 11.2672 4.37664 11.264 4.37796C11.2027 4.40312 11.1371 4.40974 11.0732 4.42354C11.0554 4.42732 11.0403 4.43716 11.0204 4.44586C11.0232 4.41673 11.0395 4.39914 11.0575 4.38401C11.1193 4.33257 11.194 4.30893 11.2704 4.29134C11.4198 4.25729 11.5577 4.28718 11.6856 4.36945C11.7317 4.39914 11.7788 4.42714 11.8316 4.44454C11.8477 4.44983 11.8518 4.44832 11.852 4.43111C11.8531 4.3617 11.8601 4.29285 11.8694 4.22401C11.8719 4.20585 11.8779 4.19791 11.8959 4.19961C11.9163 4.2015 11.9226 4.19337 11.9243 4.17218C11.928 4.12131 11.9205 4.0693 11.9375 4.01955C11.94 4.01218 11.9383 4.00121 11.9483 4.00007C11.96 3.99894 11.9606 4.01123 11.9642 4.0188C11.9795 4.05076 11.9732 4.08613 11.9787 4.11961C11.9814 4.13549 11.9806 4.15195 11.9823 4.16802C11.9838 4.18334 11.9859 4.19772 12.0029 4.20585C12.0154 4.2119 12.0171 4.2259 12.0173 4.23876C12.0177 4.25502 12.0177 4.2711 12.0181 4.28737C12.0188 4.31006 12.0222 4.33106 12.0381 4.34997C12.0549 4.37021 12.0563 4.39612 12.0553 4.42184C12.0538 4.46572 12.0567 4.46912 12.0967 4.45172C12.152 4.4277 12.2047 4.3982 12.2558 4.36623C12.3608 4.30079 12.4733 4.27356 12.5962 4.29531C12.6753 4.30931 12.7468 4.3424 12.8158 4.38193C12.8364 4.39366 12.8518 4.41182 12.8614 4.43394C12.8695 4.45229 12.8637 4.46118 12.8436 4.4591C12.8349 4.45815 12.8264 4.45418 12.8179 4.45134C12.7583 4.43205 12.6959 4.41106 12.6358 4.43035C12.5894 4.44529 12.5452 4.45399 12.497 4.45532C12.4578 4.45645 12.4279 4.48652 12.3907 4.50487C12.4332 4.53759 12.4796 4.53816 12.5261 4.53589C12.5836 4.53286 12.6409 4.52624 12.6984 4.52492C12.8268 4.52189 12.9414 4.56218 13.0392 4.64502C13.116 4.71008 13.1905 4.77817 13.2607 4.8506C13.2907 4.88181 13.314 4.91812 13.3331 4.96087C13.314 4.95746 13.3006 4.94744 13.2868 4.93931C13.2433 4.91377 13.1981 4.8941 13.1487 4.88011C13.1044 4.86763 13.0617 4.84625 13.0214 4.82242C13.0074 4.8141 12.9927 4.80729 12.9768 4.8037C12.9543 4.79878 12.9323 4.79613 12.9199 4.82242C12.9147 4.8332 12.9074 4.83283 12.8983 4.82583C12.8883 4.81807 12.8771 4.81202 12.8671 4.80464C12.8538 4.79481 12.8421 4.78743 12.8312 4.80824C12.8242 4.82148 12.8132 4.81297 12.8054 4.80824C12.7784 4.79178 12.7523 4.7776 12.7213 4.80143C12.715 4.80616 12.702 4.80275 12.6921 4.80219C12.6619 4.80048 12.6327 4.80332 12.6072 4.82205C12.6 4.82734 12.5927 4.82885 12.5843 4.82564C12.5819 4.82469 12.5792 4.82375 12.5766 4.82337C12.5616 4.82167 12.5301 4.8438 12.5327 4.85628C12.5357 4.87103 12.5524 4.87027 12.5633 4.8716C12.6161 4.87765 12.6691 4.88181 12.7218 4.88673C12.8285 4.89656 12.9354 4.9047 13.0388 4.93496C13.296 5.00985 13.4808 5.16551 13.5726 5.42141C13.6077 5.51976 13.6157 5.62246 13.6055 5.73102C13.5871 5.714 13.5797 5.6947 13.5699 5.67749C13.5308 5.60865 13.4924 5.53962 13.4538 5.47039C13.442 5.4494 13.4296 5.42973 13.4023 5.42822C13.3921 5.42765 13.3923 5.42008 13.3908 5.41309C13.3776 5.34992 13.3331 5.31152 13.2839 5.27634C13.2817 5.27483 13.2792 5.27369 13.2767 5.27256C13.2599 5.26518 13.2384 5.27105 13.2245 5.25402C13.2132 5.24022 13.2013 5.22698 13.1894 5.21317C13.1697 5.24154 13.1697 5.24154 13.1478 5.21506C13.1444 5.2109 13.1408 5.20674 13.1374 5.20258C13.1139 5.17402 13.1133 5.17364 13.0908 5.20447C13.0842 5.21336 13.08 5.21544 13.0729 5.20655C13.0672 5.19955 13.0611 5.19293 13.0558 5.18556C13.0451 5.17081 13.0375 5.15851 13.014 5.17308C12.9968 5.18386 12.9709 5.17156 12.9499 5.18594C12.9425 5.19104 12.9304 5.17289 12.9197 5.16683C12.9153 5.16438 12.9115 5.15776 12.9059 5.16116C12.9008 5.16419 12.9015 5.17062 12.9017 5.17572C12.9026 5.20163 12.9174 5.21941 12.9374 5.23284C13.0129 5.28353 13.0882 5.33422 13.1644 5.38377C13.2641 5.44864 13.3549 5.52222 13.4146 5.62832C13.482 5.74766 13.5005 5.87703 13.4975 6.01112C13.4944 6.14749 13.4619 6.27799 13.4201 6.40679C13.4139 6.4257 13.4084 6.4223 13.3978 6.41133C13.376 6.38901 13.3768 6.36291 13.3836 6.33568C13.3864 6.32433 13.3908 6.31336 13.3957 6.30277C13.4029 6.28745 13.3995 6.27629 13.384 6.27024C13.3672 6.26362 13.3651 6.25094 13.3664 6.23525C13.3679 6.21728 13.3679 6.19931 13.3692 6.18134C13.3706 6.16432 13.3723 6.14862 13.3463 6.15297C13.3363 6.15468 13.3358 6.14579 13.3358 6.13822C13.3358 6.11155 13.328 6.08716 13.3182 6.06257C13.3074 6.03533 13.318 6.00564 13.3119 5.97727C13.3083 5.96081 13.3076 5.9436 13.3057 5.92696C13.3021 5.92696 13.3 5.92639 13.2985 5.92696C13.2616 5.94474 13.2616 5.94493 13.258 5.90351C13.2569 5.89102 13.2546 5.87835 13.2546 5.86587C13.2548 5.84015 13.2501 5.8218 13.2174 5.83183C13.2045 5.8358 13.2036 5.82502 13.2015 5.81594C13.1939 5.78227 13.1856 5.74861 13.1765 5.71021C13.1633 5.7295 13.1531 5.74445 13.14 5.76355C13.1258 5.72062 13.1131 5.68203 13.0997 5.64118C13.0933 5.64685 13.0891 5.64988 13.0855 5.65347C13.0558 5.68241 13.0558 5.68241 13.0396 5.64269C13.0341 5.62945 13.028 5.61621 13.0237 5.6026C13.018 5.58444 13.011 5.57196 12.9881 5.56969C12.9673 5.56761 12.9598 5.54623 12.9524 5.52902C12.9463 5.51522 12.9405 5.50746 12.9227 5.51011C12.8968 5.51408 12.8786 5.49971 12.8644 5.47871C12.8563 5.4668 12.8474 5.44524 12.8323 5.45337C12.816 5.46207 12.8234 5.48325 12.8293 5.50028C12.8436 5.54226 12.8743 5.57366 12.8996 5.60827C12.9512 5.67863 13.0097 5.74407 13.0536 5.81991C13.1442 5.97689 13.1568 6.14314 13.1088 6.31544C13.074 6.44008 13.0137 6.55185 12.9367 6.65531C12.9257 6.67006 12.9149 6.68576 12.8932 6.69465C12.8947 6.67933 12.8949 6.66704 12.8972 6.65512C12.9008 6.63602 12.9076 6.61654 12.8756 6.61748C12.8663 6.61767 12.8677 6.6103 12.8699 6.60349C12.8743 6.58987 12.8782 6.57606 12.882 6.56207C12.8852 6.55072 12.8894 6.53635 12.8822 6.52784C12.8591 6.49984 12.8726 6.47393 12.8828 6.44726C12.8903 6.42703 12.8972 6.4066 12.9051 6.38636C12.9115 6.36991 12.9066 6.36423 12.89 6.3684C12.8705 6.37312 12.8671 6.36669 12.8716 6.34778C12.8822 6.30352 12.8903 6.2587 12.8996 6.21444C12.8826 6.2082 12.8688 6.23525 12.8584 6.21993C12.8516 6.2099 12.8584 6.19042 12.8593 6.17529C12.8605 6.15827 12.8616 6.14144 12.8629 6.12252C12.8448 6.12668 12.84 6.14522 12.8213 6.15505C12.8213 6.10077 12.8213 6.05027 12.8213 5.9977C12.7969 6.00337 12.7965 6.02228 12.7888 6.03514C12.7861 6.03949 12.7854 6.04668 12.7789 6.04687C12.771 6.04725 12.7693 6.03949 12.7676 6.03401C12.7617 6.01491 12.7633 5.99486 12.7617 5.97519C12.7597 5.9472 12.7566 5.94474 12.7339 5.95854C12.7199 5.96706 12.7192 5.95987 12.7179 5.94947C12.7156 5.93074 12.7129 5.91202 12.7109 5.8931C12.7093 5.88043 12.7063 5.87079 12.6912 5.88062C12.6751 5.89102 12.6694 5.88157 12.6643 5.86814C12.6524 5.83731 12.6322 5.81443 12.6 5.80308C12.5838 5.7974 12.5753 5.79816 12.5783 5.8201C12.5891 5.89764 12.6004 5.97519 12.6078 6.05311C12.6284 6.2708 12.6201 6.48641 12.5512 6.69635C12.5178 6.79848 12.4703 6.89419 12.4113 6.98421C12.3905 7.01599 12.3644 7.04303 12.3354 7.06724C12.3265 7.06119 12.3311 7.05325 12.3307 7.04682C12.3271 6.94241 12.3421 6.83763 12.333 6.7338C12.3262 6.65701 12.3377 6.5876 12.3678 6.51895C12.3691 6.51592 12.3693 6.51252 12.3708 6.50627C12.339 6.51043 12.3315 6.54107 12.3059 6.55734C12.3038 6.51857 12.3016 6.48339 12.2999 6.44802C12.2987 6.42551 12.2986 6.40301 12.2976 6.3805C12.2959 6.34248 12.2908 6.30693 12.2664 6.27421C12.2344 6.23109 12.2401 6.17624 12.2308 6.12612C12.2295 6.1195 12.2337 6.10985 12.2261 6.10664C12.2172 6.10285 12.2121 6.1125 12.2061 6.11742C12.1722 6.14598 12.1705 6.18872 12.158 6.22674C12.1255 6.32546 12.1308 6.42741 12.1346 6.52916C12.1397 6.66931 12.1435 6.80964 12.1488 6.94998C12.1616 7.29345 12.1699 7.6371 12.1718 7.98094C12.1726 8.09802 12.1741 8.2149 12.1785 8.33197C12.1817 8.41519 12.2008 8.49557 12.2375 8.57123C12.2725 8.64329 12.2747 8.7161 12.2431 8.79043C12.2038 8.88292 12.2153 8.97219 12.267 9.05616C12.3046 9.11744 12.3466 9.17607 12.3865 9.23584C12.3995 9.25532 12.4122 9.27518 12.4198 9.2975C12.4372 9.348 12.4179 9.38507 12.3665 9.39887C12.3097 9.41419 12.2518 9.42289 12.1932 9.42384C12.0275 9.4263 11.8618 9.42951 11.6962 9.42497C11.6392 9.42346 11.5833 9.41438 11.529 9.39755C11.4756 9.38109 11.4582 9.34421 11.4798 9.29258C11.5015 9.24076 11.5354 9.19612 11.5676 9.15054C11.625 9.06903 11.6674 8.98202 11.6693 8.87951C11.6703 8.8328 11.6621 8.78816 11.6417 8.74618C11.6156 8.69265 11.6167 8.64007 11.6464 8.58882C11.6981 8.49992 11.7064 8.40139 11.7102 8.30209C11.7209 8.01442 11.7264 7.72637 11.7321 7.43851C11.7368 7.19396 11.7506 6.9496 11.7593 6.70505C11.7646 6.55299 11.7578 6.40093 11.7531 6.24886C11.7518 6.19591 11.7185 6.13633 11.6788 6.10701Z" fill="#127043"/>
<path d="M15.5 8.89527C15.459 8.90605 15.4202 8.90624 15.3818 8.90984C15.2025 8.9261 15.023 8.93802 14.8445 8.96279C14.6128 8.99495 14.3824 9.03485 14.1555 9.09254C13.9527 9.14398 13.7571 9.21566 13.5655 9.29945C13.328 9.40366 13.0965 9.51903 12.8833 9.66807C12.6961 9.79895 12.5308 9.95555 12.3698 10.1169C12.3324 10.1545 12.2955 10.1927 12.2596 10.2317C12.2327 10.2606 12.2322 10.2682 12.2562 10.299C12.3265 10.3902 12.3975 10.4808 12.469 10.571C12.5713 10.7002 12.6846 10.8197 12.7967 10.94C12.8115 10.9557 12.8281 10.9695 12.8434 10.9846C12.8569 10.9981 12.8637 10.9937 12.8693 10.9776C12.8968 10.9007 12.925 10.8237 12.9528 10.7469C12.9645 10.7147 12.9773 10.6833 12.9961 10.6542C13.0398 10.5859 13.1056 10.5683 13.1748 10.61C13.2442 10.6518 13.2766 10.7145 13.2709 10.7959C13.2684 10.8322 13.2455 10.8575 13.2035 10.8666C13.1043 10.888 13.0592 10.9576 13.0394 11.0487C13.0214 11.1314 13.0394 11.2044 13.0999 11.2674C13.157 11.3266 13.2157 11.3831 13.2856 11.4268C13.3465 11.4648 13.3609 11.4609 13.3929 11.3971C13.4114 11.3601 13.4305 11.3232 13.4627 11.2956C13.5436 11.226 13.6688 11.211 13.7657 11.326C13.8392 11.4134 13.8583 11.5168 13.8472 11.6273C13.84 11.698 13.8135 11.7622 13.7674 11.8159C13.6923 11.9034 13.5926 11.9225 13.4833 11.9114C13.3683 11.8997 13.2726 11.8442 13.1793 11.7813C13.0734 11.7098 12.966 11.6405 12.8591 11.5707C12.827 11.5498 12.826 11.5505 12.798 11.5781C12.7328 11.6426 12.6744 11.7143 12.6025 11.7716C12.507 11.8478 12.3604 11.8408 12.2823 11.7555C12.201 11.6666 12.1964 11.532 12.3131 11.4374C12.3326 11.4217 12.3551 11.4213 12.3767 11.4331C12.4145 11.4537 12.451 11.4769 12.4896 11.4962C12.5401 11.5216 12.5913 11.5091 12.6278 11.4658C12.6505 11.4389 12.6539 11.4094 12.6399 11.3778C12.615 11.3217 12.5726 11.2783 12.5321 11.2339C12.3566 11.0408 12.1809 10.8483 12.005 10.6555C11.9882 10.637 11.9721 10.6088 11.9496 10.6071C11.928 10.6054 11.9131 10.6355 11.8959 10.6519C11.7425 10.7991 11.602 10.9583 11.4631 11.1191C11.4102 11.1804 11.358 11.2422 11.3052 11.3037C11.2874 11.3243 11.2725 11.3466 11.2621 11.3718C11.2468 11.4083 11.2504 11.4425 11.2774 11.4722C11.3058 11.5034 11.3404 11.5163 11.3822 11.503C11.4185 11.4917 11.4499 11.4699 11.4836 11.4529C11.4979 11.4455 11.5123 11.4382 11.5273 11.4321C11.552 11.4221 11.5757 11.4255 11.5952 11.4437C11.6538 11.4983 11.675 11.5672 11.6632 11.6447C11.651 11.7255 11.611 11.79 11.5295 11.8157C11.4535 11.8397 11.382 11.8159 11.3141 11.7805C11.2413 11.7425 11.1885 11.6825 11.139 11.619C11.124 11.5999 11.1068 11.5825 11.0928 11.5626C11.0822 11.5475 11.0728 11.5498 11.0592 11.5571C10.9831 11.5986 10.9148 11.6517 10.8432 11.6999C10.773 11.747 10.7066 11.8 10.6317 11.8399C10.5443 11.8864 10.4511 11.9097 10.3514 11.9061C10.2181 11.9014 10.118 11.8221 10.0715 11.6831C10.0237 11.5403 10.0653 11.3894 10.1795 11.2914C10.2705 11.2135 10.3875 11.2252 10.4621 11.3196C10.4884 11.3529 10.5105 11.3888 10.5332 11.4244C10.5544 11.4573 10.5604 11.4603 10.5935 11.4414C10.6934 11.3848 10.7773 11.3092 10.8481 11.2192C10.8717 11.1893 10.8763 11.153 10.8662 11.1165C10.8519 11.0644 10.8354 11.0132 10.8205 10.9614C10.8076 10.9171 10.7798 10.8884 10.7354 10.8755C10.7293 10.8738 10.7236 10.8711 10.7176 10.8693C10.6419 10.8454 10.6221 10.8127 10.6361 10.7338C10.6533 10.6372 10.7465 10.5755 10.8405 10.5984C10.8836 10.609 10.9113 10.6361 10.9256 10.6771C10.9563 10.7645 10.9863 10.852 11.017 10.9394C11.0376 10.9986 11.0497 11.0016 11.0917 10.9553C11.2804 10.7463 11.4628 10.5317 11.6345 10.3085C11.6574 10.2786 11.6566 10.2716 11.6347 10.2391C11.5868 10.1681 11.5235 10.1118 11.463 10.053C11.3215 9.91546 11.1724 9.78722 11.0151 9.66788C10.8749 9.56159 10.7191 9.48367 10.5621 9.40745C10.3841 9.32101 10.2028 9.24195 10.0161 9.17633C9.76795 9.08895 9.51583 9.01745 9.25483 8.98019C9.10069 8.95825 8.94579 8.94331 8.79108 8.9261C8.70332 8.91627 8.61594 8.90454 8.52837 8.89338C8.51854 8.89206 8.50851 8.89092 8.5 8.8792C8.52969 8.86634 8.5609 8.86369 8.59097 8.86218C8.848 8.84894 9.10371 8.81716 9.36169 8.82057C9.66411 8.82454 9.96351 8.85329 10.2578 8.92572C10.4568 8.97471 10.6474 9.04658 10.8318 9.13528C11.0151 9.22361 11.1957 9.31628 11.3614 9.43563C11.5034 9.53776 11.6362 9.65086 11.7627 9.77134C11.8142 9.82032 11.8658 9.86931 11.9144 9.92094C11.9343 9.94212 11.9471 9.93853 11.9647 9.92227C12.0243 9.86742 12.085 9.8137 12.1436 9.75791C12.3925 9.5213 12.6691 9.32423 12.977 9.17141C13.1684 9.07627 13.3671 9.00081 13.5724 8.94218C13.7895 8.87995 14.0111 8.84572 14.2364 8.83078C14.4514 8.81659 14.6663 8.82321 14.8812 8.83418C14.9952 8.84005 15.1094 8.8444 15.2235 8.85272C15.305 8.85877 15.3863 8.87012 15.4677 8.87939C15.4775 8.88147 15.4885 8.88317 15.5 8.89527ZM13.5039 11.7283C13.5147 11.7283 13.5255 11.7289 13.5362 11.7281C13.6274 11.7217 13.6794 11.6829 13.7004 11.6059C13.7172 11.5443 13.6864 11.4565 13.6346 11.4196C13.5898 11.3877 13.5332 11.4094 13.5099 11.469C13.4944 11.5085 13.4855 11.5496 13.4831 11.5925C13.4808 11.6349 13.4632 11.6479 13.4214 11.6434C13.4042 11.6415 13.3883 11.6352 13.3723 11.6296C13.2728 11.5948 13.1933 11.532 13.1218 11.4563C13.0823 11.4145 13.0386 11.3767 12.9976 11.3364C12.983 11.3222 12.9755 11.3253 12.9662 11.3417C12.9442 11.3801 12.9465 11.4124 12.9766 11.4454C13.0246 11.4977 13.0761 11.5467 13.1338 11.5887C13.2442 11.6693 13.3647 11.7243 13.5039 11.7283ZM10.2064 11.5626C10.2064 11.6734 10.255 11.7291 10.3622 11.7326C10.4685 11.7362 10.5693 11.7077 10.6616 11.6549C10.763 11.5968 10.8458 11.5144 10.9328 11.438C10.9565 11.4172 10.9601 11.3886 10.9493 11.3585C10.9383 11.3279 10.9353 11.326 10.9088 11.3432C10.8954 11.3521 10.8823 11.3619 10.8702 11.3727C10.7955 11.4389 10.7208 11.5049 10.647 11.5723C10.6018 11.6135 10.5506 11.6366 10.4891 11.6385C10.4397 11.64 10.424 11.6275 10.4176 11.5793C10.4129 11.5445 10.4063 11.51 10.4015 11.4752C10.3964 11.4367 10.3758 11.4123 10.3376 11.4051C10.2975 11.3975 10.2642 11.4107 10.241 11.4442C10.2154 11.4807 10.2084 11.5233 10.2064 11.5626ZM12.4009 11.5407C12.3782 11.5405 12.3638 11.5522 12.3559 11.5726C12.3396 11.6144 12.3594 11.6621 12.3997 11.682C12.4731 11.7183 12.5433 11.7069 12.6046 11.6595C12.6842 11.5978 12.747 11.521 12.7876 11.4268C12.8601 11.2592 12.9344 11.0926 13.0086 10.926C13.0284 10.8812 13.0575 10.8441 13.1058 10.8267C13.1218 10.8208 13.1326 10.8089 13.1428 10.7964C13.1653 10.769 13.16 10.7365 13.1292 10.7087C13.1029 10.6848 13.0732 10.686 13.0485 10.7128C13.0237 10.7397 13.0082 10.7724 12.9953 10.8061C12.9403 10.9506 12.8856 11.0951 12.8317 11.2401C12.7903 11.3517 12.7328 11.4535 12.6535 11.5428C12.6212 11.5793 12.5813 11.5921 12.5344 11.5812C12.5143 11.5764 12.4954 11.5673 12.476 11.5605C12.4517 11.552 12.4275 11.5414 12.4009 11.5407ZM11.427 11.6978C11.4493 11.6988 11.4957 11.6825 11.5121 11.668C11.539 11.6445 11.5496 11.5921 11.5335 11.5638C11.5199 11.5399 11.4978 11.5369 11.4512 11.552C11.4213 11.5617 11.3915 11.5717 11.361 11.5794C11.3143 11.5912 11.2738 11.5791 11.2409 11.5435C11.2158 11.5163 11.1936 11.4868 11.1785 11.4527C11.0951 11.2674 11.0102 11.083 10.9391 10.8925C10.916 10.8309 10.8893 10.7711 10.8494 10.7179C10.8358 10.6998 10.8188 10.6898 10.7961 10.6947C10.7713 10.7002 10.7547 10.7151 10.7492 10.741C10.7412 10.7787 10.7548 10.8084 10.7919 10.8242C10.8483 10.8483 10.8859 10.8893 10.909 10.9447C10.9655 11.0799 11.0228 11.2148 11.0771 11.351C11.1201 11.4586 11.1742 11.5573 11.2653 11.6326C11.3122 11.6714 11.3654 11.6946 11.427 11.6978ZM12.768 11.1327C12.7678 11.1121 12.7561 11.0926 12.7394 11.0752C12.6496 10.9808 12.5603 10.8859 12.4701 10.7919C12.4366 10.7569 12.4054 10.7193 12.3657 10.6907C12.3568 10.6843 12.346 10.6803 12.3385 10.6869C12.3309 10.6935 12.342 10.7005 12.3449 10.7074C12.3473 10.713 12.3509 10.7183 12.3547 10.7234C12.4627 10.8761 12.5709 11.0285 12.6791 11.1811C12.6885 11.1946 12.6997 11.2059 12.7148 11.2131C12.7226 11.2167 12.7311 11.2199 12.7362 11.2106C12.7494 11.1872 12.7665 11.1654 12.768 11.1327ZM11.5413 10.6892C11.536 10.6852 11.5333 10.6883 11.5301 10.6896C11.4951 10.7036 11.4734 10.7327 11.4491 10.7592C11.3514 10.8658 11.2538 10.9725 11.156 11.0792C11.1435 11.0928 11.1344 11.1081 11.1305 11.1261C11.1238 11.1558 11.1435 11.1923 11.1753 11.2042C11.1999 11.2135 11.2025 11.1847 11.2169 11.1756C11.2177 11.1753 11.218 11.1743 11.2186 11.1736C11.3228 11.0425 11.4166 10.9044 11.5038 10.7616C11.5182 10.7384 11.5331 10.7151 11.5413 10.6892Z" fill="#A67C1D"/>
<path d="M3.37442 9.56818L3.42556 9.00568L2.95894 9.33168L2.70326 8.88423L3.21462 8.64773L2.70326 8.41122L2.95894 7.96378L3.42556 8.28977L3.37442 7.72727H3.88579L3.83465 8.28977L4.30127 7.96378L4.55695 8.41122L4.04559 8.64773L4.55695 8.88423L4.30127 9.33168L3.83465 9.00568L3.88579 9.56818H3.37442ZM6.11222 9.56818L6.16335 9.00568L5.69673 9.33168L5.44105 8.88423L5.95241 8.64773L5.44105 8.41122L5.69673 7.96378L6.16335 8.28977L6.11222 7.72727H6.62358L6.57244 8.28977L7.03906 7.96378L7.29474 8.41122L6.78338 8.64773L7.29474 8.88423L7.03906 9.33168L6.57244 9.00568L6.62358 9.56818H6.11222Z" fill="black"/>
<path d="M17.3744 9.56818L17.4256 9.00568L16.9589 9.33168L16.7033 8.88423L17.2146 8.64773L16.7033 8.41122L16.9589 7.96378L17.4256 8.28977L17.3744 7.72727H17.8858L17.8347 8.28977L18.3013 7.96378L18.557 8.41122L18.0456 8.64773L18.557 8.88423L18.3013 9.33168L17.8347 9.00568L17.8858 9.56818H17.3744ZM20.1122 9.56818L20.1634 9.00568L19.6967 9.33168L19.4411 8.88423L19.9524 8.64773L19.4411 8.41122L19.6967 7.96378L20.1634 8.28977L20.1122 7.72727H20.6236L20.5724 8.28977L21.0391 7.96378L21.2947 8.41122L20.7834 8.64773L21.2947 8.88423L21.0391 9.33168L20.5724 9.00568L20.6236 9.56818H20.1122Z" fill="black"/>
<path d="M24.923 3.67728C24.9221 3.68008 24.9211 3.68267 24.9205 3.68547C24.9199 3.68777 24.9188 3.68946 24.9164 3.68876C24.9069 3.68597 24.908 3.69216 24.9089 3.69765C24.9114 3.71312 24.9085 3.7281 24.9049 3.74307C24.9041 3.74637 24.903 3.74866 24.8993 3.74816C24.8933 3.74737 24.8935 3.75046 24.8946 3.75475C24.8962 3.76094 24.8977 3.76713 24.8987 3.77332C24.8995 3.77831 24.8991 3.7831 24.8943 3.7865C24.8914 3.7885 24.8911 3.79169 24.8909 3.79499C24.8905 3.80028 24.8925 3.80517 24.893 3.81156C24.8857 3.80776 24.8834 3.80117 24.8799 3.79558C24.8784 3.79329 24.8775 3.78899 24.8745 3.79019C24.8714 3.79139 24.8732 3.79518 24.874 3.79788C24.8781 3.81236 24.8822 3.82673 24.8866 3.84111C24.8885 3.8475 24.8885 3.85319 24.8821 3.85708C24.8777 3.85968 24.8794 3.86347 24.8799 3.86716C24.8851 3.90061 24.8903 3.93405 24.8892 3.96809C24.8891 3.97229 24.8911 3.97857 24.8873 3.98017C24.8821 3.98237 24.8778 3.97718 24.8745 3.97328C24.8547 3.95032 24.8392 3.92457 24.8275 3.89671C24.8008 3.83252 24.792 3.76553 24.7958 3.69635C24.7976 3.66361 24.805 3.63166 24.8074 3.59902C24.808 3.59093 24.8089 3.58284 24.8082 3.57476C24.8079 3.57196 24.8079 3.56837 24.8044 3.56787C24.8015 3.56737 24.7989 3.56937 24.797 3.57176C24.7937 3.57586 24.7939 3.58095 24.7929 3.58574C24.7919 3.59053 24.7918 3.59712 24.7844 3.59053C24.7826 3.58893 24.7806 3.58873 24.779 3.59043C24.7744 3.59542 24.7693 3.59442 24.7628 3.59063C24.7628 3.60261 24.7628 3.61309 24.7628 3.62367C24.7628 3.62557 24.7638 3.62837 24.7613 3.62897C24.7581 3.62976 24.7582 3.62647 24.7574 3.62447C24.7568 3.62318 24.7567 3.62168 24.7562 3.62028C24.7552 3.61778 24.7558 3.61309 24.7526 3.61329C24.7485 3.61359 24.7484 3.61838 24.7484 3.62168C24.7482 3.63066 24.7495 3.63955 24.7513 3.64833C24.7521 3.65223 24.7523 3.65622 24.7529 3.66071C24.7452 3.65971 24.743 3.65452 24.7408 3.64903C24.7389 3.64414 24.7386 3.63815 24.7323 3.63535C24.7283 3.64644 24.731 3.65742 24.73 3.6682C24.7297 3.67169 24.7317 3.67748 24.7277 3.67818C24.723 3.67898 24.7226 3.67309 24.7211 3.6694C24.7195 3.6656 24.7194 3.65882 24.7145 3.65961C24.7105 3.66021 24.7114 3.6668 24.7113 3.67089C24.711 3.68038 24.7146 3.68906 24.7168 3.69795C24.7179 3.70234 24.7189 3.70683 24.7202 3.71272C24.7168 3.71143 24.7146 3.71073 24.7124 3.70983C24.7049 3.70653 24.7026 3.70763 24.7042 3.71562C24.7063 3.7269 24.7097 3.73808 24.7129 3.74916C24.7142 3.75355 24.7149 3.75645 24.7088 3.75645C24.7029 3.75645 24.7028 3.76084 24.703 3.76504C24.7035 3.77212 24.707 3.77831 24.709 3.7849C24.7122 3.79578 24.7136 3.80637 24.7076 3.81675C24.7059 3.81984 24.7056 3.82344 24.7059 3.82693C24.7063 3.83102 24.705 3.83372 24.7007 3.83442C24.6956 3.83532 24.6964 3.83881 24.6971 3.84231C24.6982 3.8482 24.7001 3.85389 24.6997 3.85998C24.696 3.86037 24.6949 3.85768 24.6937 3.85548C24.6769 3.82224 24.6578 3.79009 24.6432 3.75565C24.6172 3.69416 24.6246 3.63535 24.6581 3.57885C24.6682 3.56188 24.6798 3.54601 24.6913 3.53013C24.6996 3.51855 24.7073 3.50677 24.709 3.4921C24.7097 3.48611 24.71 3.48022 24.707 3.47473C24.7036 3.47572 24.7029 3.47852 24.7016 3.48062C24.6986 3.48581 24.6954 3.4885 24.6897 3.48361C24.6855 3.47992 24.6838 3.48251 24.683 3.48671C24.6824 3.4898 24.6811 3.4929 24.6809 3.49599C24.6805 3.50208 24.6775 3.50498 24.6715 3.50428C24.6671 3.50378 24.6654 3.50617 24.6641 3.50987C24.6605 3.51955 24.6566 3.52923 24.6523 3.54032C24.6493 3.53413 24.6469 3.52903 24.6441 3.52334C24.635 3.53433 24.6356 3.5488 24.6278 3.56038C24.6248 3.55669 24.6222 3.55339 24.619 3.5494C24.616 3.55729 24.6128 3.56437 24.6107 3.57176C24.6091 3.57735 24.6063 3.57875 24.6013 3.57655C24.5967 3.57446 24.5952 3.57645 24.5944 3.58085C24.5919 3.59402 24.5891 3.6072 24.5864 3.62098C24.5812 3.61768 24.5806 3.61169 24.576 3.6084C24.5712 3.61449 24.5712 3.62158 24.5715 3.62827C24.5723 3.64414 24.565 3.65732 24.5589 3.67099C24.5584 3.67219 24.557 3.67419 24.5563 3.67409C24.5462 3.67219 24.5483 3.68018 24.5478 3.68497C24.5459 3.70534 24.5425 3.7257 24.5456 3.74637C24.5465 3.75246 24.5452 3.75835 24.5418 3.76384C24.5386 3.76903 24.5361 3.76803 24.5345 3.76314C24.5316 3.75405 24.5289 3.74487 24.5264 3.73569C24.5169 3.69985 24.5104 3.66331 24.5102 3.62617C24.51 3.56747 24.5308 3.51755 24.574 3.47682C24.6162 3.43699 24.6629 3.40504 24.7186 3.38727C24.7329 3.38268 24.7477 3.37979 24.7615 3.3736C24.7636 3.3727 24.7669 3.3721 24.7666 3.3697C24.7663 3.36721 24.7633 3.36521 24.7607 3.36531C24.7438 3.36621 24.7261 3.36102 24.7102 3.3719C24.7024 3.37719 24.6941 3.37909 24.6854 3.3722C24.6813 3.3689 24.6595 3.3736 24.6555 3.37789C24.6528 3.38078 24.6502 3.38388 24.6478 3.38667C24.6444 3.38578 24.6454 3.38318 24.6446 3.38158C24.6434 3.37909 24.6446 3.37499 24.6415 3.3741C24.6379 3.3729 24.635 3.37599 24.6326 3.37839C24.6298 3.38118 24.6276 3.38468 24.6253 3.38807C24.622 3.39276 24.6185 3.39576 24.6124 3.39207C24.6071 3.38877 24.6045 3.39326 24.6019 3.39666C24.599 3.40055 24.5962 3.40225 24.5924 3.39776C24.5895 3.39436 24.5875 3.39506 24.5858 3.39925C24.5832 3.40564 24.58 3.41183 24.5774 3.41822C24.5757 3.42251 24.5736 3.42371 24.5698 3.42082C24.5655 3.41762 24.5625 3.41892 24.56 3.42321C24.5577 3.42721 24.5545 3.4306 24.5529 3.43509C24.5502 3.44258 24.5454 3.44857 24.5391 3.45366C24.5335 3.45815 24.528 3.46295 24.524 3.46914C24.5231 3.47053 24.5215 3.47243 24.5204 3.47243C24.51 3.47173 24.5104 3.47982 24.5089 3.48621C24.5074 3.4927 24.5058 3.49908 24.5044 3.50567C24.5031 3.51206 24.5017 3.51785 24.4943 3.52045C24.4898 3.52195 24.49 3.52694 24.49 3.53103C24.4902 3.53762 24.4886 3.54531 24.4819 3.54531C24.4745 3.54531 24.4743 3.53642 24.4747 3.53083C24.4794 3.44777 24.5134 3.38058 24.5835 3.33376C24.6319 3.30152 24.686 3.28634 24.7432 3.28075C24.7636 3.27876 24.784 3.27626 24.804 3.27117C24.8109 3.26947 24.8171 3.26678 24.8212 3.25899C24.7939 3.25719 24.7678 3.24751 24.7409 3.25609C24.7376 3.25719 24.7339 3.25889 24.7308 3.25689C24.7211 3.2507 24.7134 3.2552 24.7055 3.26059C24.7032 3.26218 24.7 3.26558 24.6976 3.26109C24.6944 3.255 24.6902 3.2558 24.6855 3.25849C24.6687 3.26808 24.6494 3.27197 24.6313 3.27586C24.6061 3.28125 24.5897 3.29952 24.5683 3.30941C24.5656 3.3106 24.5628 3.3151 24.5601 3.3125C24.5569 3.30941 24.5614 3.30631 24.563 3.30381C24.5896 3.26388 24.6239 3.23154 24.663 3.20388C24.7071 3.17274 24.7561 3.16155 24.8093 3.16655C24.8352 3.16894 24.8611 3.17164 24.887 3.17383C24.8918 3.17423 24.8993 3.17643 24.9008 3.17124C24.9019 3.16744 24.8945 3.16465 24.8899 3.16315C24.8774 3.15906 24.8677 3.14957 24.8552 3.14568C24.8428 3.14179 24.8306 3.1375 24.8191 3.13121C24.8107 3.12651 24.7992 3.12981 24.7922 3.12092C24.7918 3.12042 24.79 3.12082 24.789 3.12122C24.7693 3.12931 24.7483 3.13141 24.7277 3.1359C24.722 3.1371 24.7171 3.14029 24.7107 3.14309C24.7116 3.1337 24.7168 3.12801 24.7226 3.12322C24.7425 3.10665 24.7664 3.09906 24.7911 3.09347C24.8391 3.08249 24.8834 3.09217 24.9245 3.11863C24.9393 3.12821 24.9544 3.1372 24.9714 3.14279C24.9766 3.14448 24.9779 3.14398 24.978 3.13849C24.9784 3.11623 24.9806 3.09407 24.9836 3.07201C24.9844 3.06622 24.9864 3.06362 24.9921 3.06412C24.9986 3.06472 25.0006 3.06212 25.0011 3.05533C25.0023 3.03896 24.9999 3.02229 25.0054 3.00632C25.0062 3.00392 25.0057 3.00043 25.0089 3.00003C25.0127 2.99963 25.0128 3.00362 25.014 3.00602C25.0189 3.0163 25.0169 3.02768 25.0187 3.03846C25.0195 3.04355 25.0193 3.04885 25.0198 3.05404C25.0203 3.05893 25.021 3.06362 25.0264 3.06622C25.0304 3.06811 25.0309 3.07261 25.031 3.0768C25.0311 3.08199 25.0311 3.08718 25.0313 3.09247C25.0315 3.09976 25.0327 3.10655 25.0377 3.11264C25.0431 3.11913 25.0435 3.12751 25.0432 3.1358C25.0427 3.14987 25.0436 3.15097 25.0564 3.14538C25.0742 3.1377 25.0911 3.12811 25.1076 3.11793C25.1413 3.09686 25.1774 3.08818 25.217 3.09517C25.2423 3.09966 25.2654 3.11034 25.2876 3.12302C25.2941 3.12681 25.2991 3.1326 25.3022 3.13969C25.3048 3.14558 25.3029 3.14848 25.2965 3.14778C25.2937 3.14748 25.291 3.14618 25.2883 3.14528C25.2691 3.13909 25.249 3.1323 25.2297 3.13859C25.2148 3.14339 25.2006 3.14618 25.185 3.14658C25.1725 3.14688 25.1629 3.15666 25.1509 3.16255C25.1646 3.17314 25.1794 3.17323 25.1944 3.17254C25.2129 3.17154 25.2314 3.16944 25.2498 3.16904C25.2911 3.16804 25.328 3.18102 25.3593 3.20758C25.384 3.22854 25.408 3.2503 25.4305 3.27367C25.4402 3.28365 25.4477 3.29533 25.4538 3.30911C25.4476 3.30801 25.4433 3.30481 25.4389 3.30222C25.4249 3.29403 25.4103 3.28774 25.3946 3.28325C25.3803 3.27926 25.3666 3.27237 25.3536 3.26468C25.3492 3.26199 25.3445 3.25979 25.3393 3.25869C25.3321 3.25709 25.325 3.2562 25.321 3.26468C25.3193 3.26818 25.317 3.26798 25.3141 3.26578C25.3109 3.26328 25.3073 3.26139 25.304 3.25899C25.2997 3.2558 25.296 3.2535 25.2924 3.26009C25.2903 3.26428 25.2867 3.26159 25.2842 3.26009C25.2755 3.2548 25.2671 3.25021 25.2571 3.25789C25.2551 3.25939 25.2509 3.25829 25.2477 3.25819C25.2379 3.25769 25.2287 3.25859 25.2205 3.26458C25.2182 3.26628 25.2158 3.26678 25.2132 3.26578C25.2124 3.26548 25.2115 3.26518 25.2107 3.26508C25.2059 3.26458 25.1957 3.27167 25.1966 3.27566C25.1976 3.28045 25.2029 3.28015 25.2065 3.28055C25.2235 3.28245 25.2404 3.28385 25.2574 3.28545C25.2916 3.28864 25.3261 3.29124 25.3593 3.30092C25.442 3.32498 25.5014 3.37499 25.5308 3.45726C25.5421 3.4889 25.5447 3.52185 25.5414 3.55679C25.5355 3.5513 25.5331 3.54511 25.53 3.53962C25.5175 3.51755 25.5051 3.49529 25.4927 3.47303C25.4889 3.46624 25.4849 3.45995 25.4761 3.45945C25.4728 3.45925 25.4729 3.45686 25.4724 3.45456C25.4683 3.43429 25.4539 3.42192 25.4381 3.41063C25.4374 3.41014 25.4366 3.40974 25.4358 3.40944C25.4304 3.40704 25.4235 3.40894 25.419 3.40355C25.4154 3.39905 25.4115 3.39486 25.4078 3.39047C25.4015 3.39955 25.4015 3.39955 25.3944 3.39107C25.3933 3.38977 25.3922 3.38837 25.3911 3.38707C25.3835 3.37789 25.3834 3.37779 25.3761 3.38767C25.374 3.39057 25.3726 3.39117 25.3703 3.38827C25.3685 3.38598 25.3665 3.38388 25.3648 3.38158C25.3613 3.37679 25.3589 3.3729 25.3514 3.37759C25.3459 3.38108 25.3376 3.37709 25.3308 3.38168C25.3284 3.38328 25.3245 3.37749 25.321 3.37559C25.3196 3.37479 25.3184 3.3727 25.3165 3.3738C25.3149 3.3747 25.3151 3.37679 25.3152 3.37849C25.3155 3.38677 25.3202 3.39256 25.3267 3.39686C25.3509 3.41313 25.3751 3.4294 25.3996 3.44538C25.4316 3.46624 25.4608 3.4899 25.48 3.52394C25.5017 3.56228 25.5076 3.60391 25.5067 3.64703C25.5057 3.69086 25.4953 3.73279 25.4818 3.77422C25.4798 3.78031 25.478 3.77921 25.4746 3.77562C25.4677 3.76843 25.468 3.76004 25.47 3.75136C25.4709 3.74776 25.4723 3.74417 25.4739 3.74078C25.4762 3.73589 25.4751 3.73229 25.4701 3.73029C25.4648 3.7282 25.4641 3.72411 25.4646 3.71901C25.4651 3.71322 25.4651 3.70743 25.4655 3.70164C25.4659 3.69615 25.4665 3.69116 25.4582 3.69256C25.455 3.69306 25.4548 3.69026 25.4548 3.68777C25.4548 3.67918 25.4523 3.67139 25.4491 3.66351C25.4456 3.65472 25.449 3.64514 25.4471 3.63605C25.446 3.63076 25.4457 3.62527 25.4451 3.61988C25.4439 3.61988 25.4433 3.61968 25.4428 3.61988C25.4309 3.62567 25.4309 3.62567 25.4298 3.61229C25.4295 3.6083 25.4287 3.60421 25.4287 3.60021C25.4287 3.59193 25.4272 3.58604 25.4167 3.58933C25.4126 3.59063 25.4123 3.58714 25.4116 3.58424C25.4092 3.57346 25.4066 3.56258 25.4037 3.5502C25.3995 3.55639 25.3962 3.56118 25.392 3.56737C25.3875 3.55359 25.3834 3.54121 25.379 3.52804C25.3769 3.52983 25.3756 3.53083 25.3744 3.53203C25.3649 3.54131 25.3649 3.54131 25.3596 3.52864C25.3578 3.52434 25.3559 3.52015 25.3545 3.51576C25.3527 3.50987 25.3504 3.50587 25.3432 3.50517C25.3365 3.50458 25.3341 3.49759 25.3317 3.4921C25.3297 3.4876 25.3278 3.48521 25.3222 3.48601C25.3139 3.4873 25.308 3.48271 25.3034 3.47592C25.3008 3.47213 25.2979 3.46514 25.293 3.46774C25.2879 3.47053 25.2902 3.47732 25.292 3.48281C25.2966 3.49629 25.3065 3.50637 25.3147 3.51755C25.3313 3.54012 25.3501 3.56118 25.3641 3.58554C25.3933 3.63595 25.3974 3.68936 25.3819 3.74477C25.3707 3.7848 25.3513 3.82074 25.3266 3.85399C25.3231 3.85868 25.3196 3.86377 25.3126 3.86666C25.3131 3.86177 25.3131 3.85778 25.3139 3.85399C25.3151 3.8478 25.3173 3.84161 25.307 3.84191C25.304 3.84201 25.3045 3.83961 25.3051 3.83741C25.3065 3.83302 25.3078 3.82853 25.309 3.82414C25.31 3.82044 25.3114 3.81585 25.3091 3.81315C25.3017 3.80417 25.306 3.79588 25.3093 3.7873C25.3118 3.78081 25.3139 3.77422 25.3165 3.76773C25.3186 3.76244 25.317 3.76064 25.3116 3.76194C25.3053 3.76344 25.3042 3.76144 25.3057 3.75535C25.3091 3.74118 25.3117 3.7267 25.3147 3.71252C25.3092 3.71053 25.3048 3.71921 25.3014 3.71432C25.2992 3.71113 25.3014 3.70484 25.3017 3.69995C25.302 3.69445 25.3024 3.68906 25.3029 3.68297C25.2971 3.68437 25.2955 3.69026 25.2896 3.69336C25.2896 3.67589 25.2896 3.65971 25.2896 3.64274C25.2818 3.64454 25.2817 3.65063 25.2791 3.65482C25.2782 3.65622 25.278 3.65852 25.276 3.65862C25.2734 3.65871 25.2729 3.65622 25.2724 3.65442C25.2705 3.64823 25.271 3.64184 25.2705 3.63545C25.2698 3.62647 25.2689 3.62567 25.2616 3.63006C25.2571 3.63276 25.2568 3.63046 25.2564 3.62717C25.2556 3.62118 25.2548 3.61509 25.2541 3.6091C25.2536 3.60501 25.2526 3.60191 25.2477 3.60511C25.2425 3.6085 25.2407 3.60541 25.239 3.60111C25.2352 3.59123 25.2287 3.58384 25.2184 3.58025C25.2131 3.57845 25.2104 3.57865 25.2114 3.58574C25.2149 3.6107 25.2185 3.63555 25.2209 3.66061C25.2276 3.73059 25.2249 3.79988 25.2027 3.86736C25.1919 3.90021 25.1767 3.93096 25.1577 3.95991C25.151 3.97009 25.1426 3.97877 25.1333 3.98666C25.1305 3.98466 25.1319 3.98217 25.1318 3.98007C25.1306 3.94653 25.1355 3.91279 25.1325 3.87954C25.1303 3.85488 25.134 3.83252 25.1437 3.81046C25.1441 3.80946 25.1442 3.80836 25.1447 3.80637C25.1345 3.80766 25.1321 3.81755 25.1238 3.82284C25.1231 3.81036 25.1224 3.79908 25.1219 3.7877C25.1216 3.78051 25.1215 3.77322 25.1212 3.76603C25.1207 3.75385 25.119 3.74237 25.1113 3.73189C25.101 3.71802 25.1029 3.70044 25.0999 3.68427C25.0995 3.68208 25.1008 3.67898 25.0984 3.67798C25.0955 3.67678 25.0939 3.67988 25.092 3.68148C25.0811 3.69066 25.0806 3.70444 25.0765 3.71662C25.066 3.74836 25.0678 3.78111 25.0689 3.81375C25.0705 3.85878 25.0718 3.9039 25.0735 3.94892C25.0777 4.05934 25.0803 4.16975 25.081 4.28027C25.0812 4.3179 25.0817 4.35544 25.0831 4.39307C25.0841 4.41983 25.0903 4.44569 25.1021 4.46995C25.1133 4.49311 25.114 4.51647 25.1039 4.54043C25.0913 4.57018 25.095 4.59883 25.1116 4.62578C25.1236 4.64545 25.1371 4.66432 25.15 4.68348C25.1542 4.68977 25.1583 4.69616 25.1607 4.70325C25.1663 4.71942 25.1601 4.7314 25.1435 4.7359C25.1253 4.74079 25.1067 4.74358 25.0878 4.74388C25.0346 4.74468 24.9813 4.74568 24.9281 4.74428C24.9098 4.74378 24.8918 4.74089 24.8744 4.7355C24.8572 4.73021 24.8516 4.71833 24.8586 4.70175C24.8656 4.68508 24.8765 4.67071 24.8867 4.65613C24.9052 4.62997 24.9188 4.60202 24.9195 4.56908C24.9198 4.5541 24.9172 4.53973 24.9106 4.52625C24.9022 4.50908 24.9026 4.49211 24.9121 4.47564C24.9287 4.44708 24.9314 4.41544 24.9326 4.38349C24.936 4.29105 24.9378 4.1985 24.9396 4.10596C24.9411 4.02739 24.9456 3.94883 24.9484 3.87026C24.9501 3.82134 24.9479 3.77252 24.9464 3.72361C24.9464 3.70584 24.9358 3.68667 24.923 3.67728Z" fill="black"/>
<path d="M26.1504 4.57472C26.1372 4.57812 26.1247 4.57822 26.1125 4.57942C26.0549 4.58471 25.9971 4.5885 25.9397 4.59649C25.8653 4.60687 25.7912 4.61965 25.7183 4.63812C25.6532 4.65469 25.5903 4.67765 25.5287 4.7046C25.4524 4.73805 25.378 4.77518 25.3095 4.8231C25.2493 4.86523 25.1962 4.91555 25.1445 4.96736C25.1324 4.97944 25.1206 4.99172 25.109 5.0043C25.1005 5.01358 25.1003 5.01598 25.108 5.02596C25.1306 5.05521 25.1534 5.08436 25.1763 5.11341C25.2092 5.15494 25.2456 5.19328 25.2817 5.23201C25.2863 5.2371 25.2917 5.2415 25.2966 5.24639C25.3009 5.25068 25.3031 5.24928 25.3049 5.24409C25.3138 5.21933 25.3228 5.19468 25.3317 5.16992C25.3354 5.15954 25.3396 5.14945 25.3455 5.14017C25.3596 5.11821 25.3808 5.11252 25.4031 5.12599C25.4254 5.13947 25.4358 5.15964 25.4339 5.18569C25.4331 5.19737 25.4258 5.20556 25.4122 5.20845C25.3803 5.21534 25.3658 5.2377 25.3594 5.26695C25.3536 5.29351 25.3594 5.31697 25.3789 5.33724C25.3973 5.3563 25.4161 5.37447 25.4386 5.38845C25.4582 5.40063 25.4629 5.39943 25.473 5.37897C25.479 5.36699 25.4851 5.35521 25.4955 5.34632C25.5216 5.32396 25.5617 5.31917 25.5928 5.3561C25.6165 5.38416 25.6226 5.4174 25.619 5.45294C25.6167 5.4757 25.6081 5.49627 25.5933 5.51354C25.5692 5.54169 25.5372 5.54778 25.5021 5.54419C25.4651 5.54039 25.4344 5.52262 25.4045 5.50236C25.3704 5.4794 25.3359 5.45713 25.3015 5.43467C25.2911 5.42788 25.2908 5.42818 25.2819 5.43707C25.2609 5.45783 25.2421 5.48079 25.219 5.49926C25.1882 5.52372 25.1412 5.52152 25.116 5.49407C25.0899 5.46552 25.0885 5.42219 25.1259 5.39184C25.1322 5.38675 25.1394 5.38665 25.1463 5.39045C25.1585 5.39703 25.1701 5.40452 25.1825 5.41071C25.1988 5.4189 25.2152 5.4148 25.227 5.40093C25.2342 5.39224 25.2353 5.38286 25.2308 5.37268C25.2229 5.35461 25.2092 5.34073 25.1962 5.32635C25.1398 5.26436 25.0833 5.20236 25.0268 5.14047C25.0214 5.13448 25.0162 5.12549 25.009 5.12489C25.002 5.12439 24.9973 5.13398 24.9917 5.13937C24.9424 5.18669 24.8973 5.2378 24.8527 5.28952C24.8357 5.30918 24.8188 5.32915 24.8019 5.34882C24.7962 5.35541 24.7914 5.36259 24.788 5.37068C24.7831 5.38246 24.7842 5.39344 24.7929 5.40292C24.802 5.41291 24.8131 5.4171 24.8265 5.41281C24.8382 5.40911 24.8483 5.40213 24.8591 5.39674C24.8637 5.39444 24.8684 5.39194 24.8731 5.39005C24.8811 5.38685 24.8887 5.38795 24.895 5.39374C24.9139 5.41131 24.9207 5.43347 24.9169 5.45833C24.9129 5.48429 24.9001 5.50495 24.8739 5.51324C24.8495 5.52093 24.8265 5.51334 24.8048 5.50196C24.7814 5.48978 24.7644 5.47041 24.7485 5.45005C24.7437 5.44386 24.7381 5.43826 24.7337 5.43198C24.7303 5.42718 24.7272 5.42778 24.7229 5.43018C24.6984 5.44346 24.6765 5.46053 24.6535 5.476C24.631 5.49118 24.6097 5.50815 24.5855 5.52103C24.5574 5.536 24.5275 5.54349 24.4955 5.54229C24.4527 5.54079 24.4205 5.51533 24.4055 5.47061C24.3902 5.42479 24.4035 5.37617 24.4403 5.34472C24.4695 5.31967 24.5072 5.32346 24.5311 5.35381C24.5396 5.36449 24.5467 5.37607 24.554 5.38755C24.5608 5.39813 24.5628 5.39903 24.5734 5.39304C24.6055 5.37487 24.6325 5.35051 24.6551 5.32166C24.6627 5.31198 24.6642 5.3004 24.6609 5.28872C24.6563 5.27205 24.651 5.25547 24.6461 5.2389C24.642 5.22463 24.6331 5.21544 24.6188 5.21125C24.6169 5.21065 24.615 5.20985 24.6131 5.20925C24.5887 5.20156 24.5824 5.19108 24.5869 5.16573C24.5924 5.13468 24.6225 5.11491 24.6526 5.1222C24.6665 5.12559 24.6754 5.13428 24.68 5.14746C24.6899 5.17551 24.6995 5.20366 24.7093 5.23181C24.7159 5.25078 24.7199 5.25188 24.7333 5.23691C24.794 5.16972 24.8526 5.10074 24.9078 5.02896C24.9152 5.01937 24.9149 5.01708 24.9078 5.00669C24.8924 4.98393 24.872 4.96576 24.8526 4.9469C24.8072 4.90267 24.7592 4.86144 24.7086 4.8232C24.6636 4.78906 24.6135 4.764 24.5631 4.73945C24.5059 4.71169 24.4476 4.68624 24.3876 4.66517C24.3078 4.63712 24.2268 4.61406 24.1429 4.60218C24.0934 4.59509 24.0435 4.5903 23.9938 4.58481C23.9657 4.58161 23.9375 4.57782 23.9095 4.57432C23.9064 4.57392 23.9031 4.57353 23.9004 4.56973C23.91 4.56564 23.92 4.56474 23.9296 4.56424C24.0122 4.55995 24.0945 4.54977 24.1773 4.55086C24.2746 4.55216 24.3707 4.56135 24.4653 4.58471C24.5293 4.60048 24.5905 4.62354 24.6498 4.65209C24.7087 4.68044 24.7667 4.71029 24.82 4.74863C24.8657 4.78147 24.9084 4.81781 24.949 4.85655C24.9656 4.87232 24.9822 4.88799 24.9977 4.90467C25.0041 4.91145 25.0082 4.91036 25.0139 4.90507C25.0331 4.8874 25.0525 4.87022 25.0714 4.85225C25.1514 4.77628 25.2402 4.71289 25.3392 4.66377C25.4007 4.63322 25.4645 4.60897 25.5305 4.5901C25.6003 4.57013 25.6716 4.55905 25.744 4.55436C25.8131 4.54977 25.8821 4.55196 25.9512 4.55546C25.9879 4.55735 26.0246 4.55875 26.0612 4.56145C26.0875 4.56334 26.1136 4.56704 26.1397 4.57003C26.1431 4.57033 26.1467 4.57083 26.1504 4.57472ZM25.5088 5.48519C25.5123 5.48519 25.5158 5.48539 25.5192 5.48519C25.5484 5.48319 25.5652 5.47071 25.572 5.44595C25.5774 5.42609 25.5675 5.39793 25.5508 5.38605C25.5364 5.37577 25.5183 5.38276 25.5108 5.40193C25.5058 5.4146 25.5029 5.42788 25.5022 5.44156C25.5014 5.45514 25.4958 5.45933 25.4823 5.45793C25.4768 5.45733 25.4716 5.45534 25.4665 5.45354C25.4346 5.44236 25.409 5.42219 25.3861 5.39783C25.3734 5.38446 25.3593 5.37228 25.3461 5.3593C25.3415 5.35471 25.3391 5.3557 25.3361 5.361C25.329 5.37337 25.3297 5.38376 25.3394 5.39434C25.3548 5.41121 25.3714 5.42698 25.3899 5.44036C25.4254 5.46622 25.464 5.48399 25.5088 5.48519ZM24.4491 5.43198C24.4491 5.46762 24.4647 5.48549 24.4991 5.48658C24.5332 5.48768 24.5657 5.4786 24.5953 5.46163C24.628 5.44296 24.6545 5.4165 24.6825 5.39194C24.6901 5.38525 24.6912 5.37607 24.6878 5.36639C24.6843 5.3565 24.6833 5.3559 24.6748 5.36149C24.6705 5.36429 24.6663 5.36748 24.6624 5.37098C24.6384 5.39224 24.6144 5.41351 24.5906 5.43507C24.5761 5.44835 24.5597 5.45574 24.5399 5.45633C24.524 5.45683 24.519 5.45284 24.5169 5.43727C24.5155 5.42609 24.5133 5.415 24.5118 5.40382C24.5101 5.39144 24.5035 5.38356 24.4912 5.38126C24.4783 5.37887 24.4676 5.38306 24.4601 5.39384C24.452 5.40562 24.4498 5.4193 24.4491 5.43198ZM25.1544 5.42499C25.1471 5.42489 25.1424 5.42868 25.1399 5.43527C25.1347 5.44875 25.141 5.46402 25.154 5.47041C25.1775 5.48209 25.2001 5.4784 25.2198 5.46312C25.2453 5.44326 25.2655 5.4187 25.2786 5.38835C25.3018 5.33454 25.3258 5.28093 25.3495 5.22742C25.3559 5.21305 25.3653 5.20117 25.3808 5.19547C25.386 5.19358 25.3894 5.18968 25.3927 5.18569C25.4 5.17691 25.3983 5.16642 25.3883 5.15754C25.3798 5.14995 25.3703 5.15025 25.3623 5.15894C25.3543 5.16752 25.3493 5.1781 25.3453 5.18889C25.3276 5.23531 25.31 5.28183 25.2926 5.32835C25.2793 5.36419 25.2609 5.39694 25.2354 5.42559C25.2251 5.43727 25.2122 5.44146 25.1972 5.43787C25.1908 5.43637 25.1847 5.43337 25.1784 5.43128C25.1706 5.42858 25.163 5.42519 25.1544 5.42499ZM24.8414 5.4754C24.8486 5.4757 24.8635 5.47051 24.8688 5.46582C24.8773 5.45823 24.8808 5.44146 24.8756 5.43228C24.8713 5.42459 24.8642 5.42369 24.8492 5.42848C24.8396 5.43158 24.8299 5.43487 24.8201 5.43727C24.8052 5.44106 24.7921 5.43717 24.7815 5.42569C24.7734 5.4169 24.7663 5.40742 24.7614 5.39654C24.7347 5.33704 24.7073 5.27774 24.6845 5.21644C24.6771 5.19657 24.6685 5.17741 24.6556 5.16033C24.6512 5.15454 24.6457 5.15125 24.6384 5.15285C24.6305 5.15454 24.6251 5.15944 24.6234 5.16772C24.6208 5.1798 24.6253 5.18939 24.6371 5.19448C24.6552 5.20216 24.6674 5.21534 24.6748 5.23321C24.693 5.27664 24.7113 5.32006 24.7288 5.36379C24.7426 5.39833 24.7599 5.43018 24.7893 5.45424C24.8045 5.46692 24.8215 5.4744 24.8414 5.4754ZM25.2723 5.29381C25.2723 5.28712 25.2685 5.28093 25.2631 5.27534C25.2342 5.24499 25.2056 5.21444 25.1765 5.18429C25.1658 5.17311 25.1558 5.16093 25.143 5.15175C25.1402 5.14965 25.1367 5.14845 25.1342 5.15055C25.1317 5.15265 25.1353 5.15494 25.1363 5.15714C25.1371 5.15894 25.1383 5.16063 25.1394 5.16233C25.1741 5.21135 25.2089 5.26037 25.2436 5.30948C25.2467 5.31378 25.2503 5.31747 25.2551 5.31977C25.2576 5.32096 25.2603 5.32196 25.262 5.31897C25.2664 5.31128 25.2719 5.30429 25.2723 5.29381ZM24.8781 5.15125C24.8764 5.14995 24.8755 5.15095 24.8745 5.15135C24.8633 5.15584 24.8563 5.16523 24.8485 5.17371C24.817 5.20795 24.7857 5.2423 24.7542 5.27654C24.7503 5.28093 24.7474 5.28582 24.7461 5.29161C24.744 5.3011 24.7503 5.31288 24.7604 5.31667C24.7683 5.31967 24.7692 5.31038 24.7738 5.30749C24.774 5.30739 24.7742 5.30699 24.7743 5.30679C24.8078 5.26466 24.838 5.22023 24.866 5.17441C24.8707 5.16702 24.8754 5.15964 24.8781 5.15125Z" fill="black"/>
<path d="M24.4079 10V8.54545H24.7595V9.16051H24.7787L25.2595 8.54545H25.6736L25.1579 9.1946L25.6828 10H25.2623L24.9001 9.42827L24.7595 9.60582V10H24.4079ZM25.2362 10.9815C25.2314 10.9295 25.2103 10.889 25.1729 10.8601C25.136 10.8307 25.0832 10.8161 25.0146 10.8161C24.9691 10.8161 24.9312 10.822 24.9009 10.8338C24.8706 10.8456 24.8479 10.862 24.8327 10.8828C24.8176 10.9032 24.8098 10.9266 24.8093 10.9531C24.8084 10.9749 24.8126 10.9941 24.8221 11.0107C24.832 11.0272 24.8462 11.0419 24.8647 11.0547C24.8836 11.067 24.9064 11.0779 24.9329 11.0874C24.9594 11.0968 24.9892 11.1051 25.0224 11.1122L25.1474 11.1406C25.2193 11.1562 25.2828 11.1771 25.3377 11.2031C25.3931 11.2292 25.4395 11.2602 25.4769 11.2962C25.5148 11.3321 25.5434 11.3736 25.5629 11.4205C25.5823 11.4673 25.5922 11.5199 25.5927 11.5781C25.5922 11.67 25.569 11.7488 25.5231 11.8146C25.4772 11.8804 25.4111 11.9309 25.3249 11.9659C25.2392 12.0009 25.1358 12.0185 25.0146 12.0185C24.8929 12.0185 24.7868 12.0002 24.6964 11.9638C24.6059 11.9273 24.5356 11.8719 24.4854 11.7976C24.4353 11.7232 24.4094 11.6293 24.408 11.5156H24.7447C24.7475 11.5625 24.7601 11.6016 24.7823 11.6328C24.8046 11.6641 24.8351 11.6877 24.8739 11.7038C24.9132 11.7199 24.9587 11.728 25.0103 11.728C25.0576 11.728 25.0979 11.7216 25.131 11.7088C25.1647 11.696 25.1905 11.6783 25.2085 11.6555C25.2264 11.6328 25.2357 11.6068 25.2362 11.5774C25.2357 11.55 25.2272 11.5265 25.2106 11.5071C25.194 11.4872 25.1684 11.4702 25.1339 11.456C25.0998 11.4413 25.0562 11.4278 25.0032 11.4155L24.8512 11.38C24.7253 11.3511 24.6261 11.3045 24.5536 11.2401C24.4812 11.1752 24.4452 11.0876 24.4457 10.9773C24.4452 10.8873 24.4693 10.8085 24.5181 10.7408C24.5669 10.6731 24.6344 10.6203 24.7205 10.5824C24.8067 10.5445 24.9049 10.5256 25.0153 10.5256C25.128 10.5256 25.2257 10.5447 25.3086 10.5831C25.3919 10.621 25.4566 10.6742 25.5025 10.7429C25.5484 10.8116 25.5719 10.8911 25.5728 10.9815H25.2362ZM24.6532 14H24.2754L24.7662 12.5455H25.2342L25.725 14H25.3471L25.0055 12.9119H24.9941L24.6532 14ZM24.6028 13.4276H25.3926V13.6946H24.6028V13.4276Z" fill="black"/>
</g>
<rect x="0.55" y="0.55" width="26.9" height="15.9" rx="1.45" stroke="black" stroke-width="1.1"/>
<defs>
<clipPath id="clip0_29357_45260">
<rect width="28" height="17" rx="2" fill="white"/>
</clipPath>
</defs>
</svg>
