<svg width="27" height="13" viewBox="0 0 27 13" fill="none" xmlns="http://www.w3.org/2000/svg">
<g clip-path="url(#clip0_29357_45260)">
<rect width="27" height="13" rx="2" fill="white"/>
<path d="M21.6074 13.0117L21.6074 0.642767" stroke="black"/>
<path d="M11.164 3.75161C11.1608 3.7601 11.1573 3.76804 11.1552 3.77634C11.1533 3.78336 11.1492 3.78853 11.1408 3.78631C11.1072 3.77782 11.1111 3.79665 11.1143 3.81326C11.1231 3.86033 11.113 3.90573 11.1001 3.95133C11.0973 3.96129 11.0934 3.96812 11.0805 3.96665C11.0594 3.96425 11.0598 3.97348 11.0637 3.98658C11.0693 4.00522 11.0745 4.02405 11.0781 4.04306C11.0809 4.0582 11.0796 4.07296 11.0624 4.08312C11.0523 4.08921 11.051 4.09881 11.0502 4.10877C11.0489 4.12483 11.0558 4.13978 11.0577 4.15916C11.0319 4.14772 11.0239 4.1276 11.0114 4.1108C11.0063 4.10379 11.003 4.09068 10.9918 4.09438C10.9809 4.09807 10.9873 4.1097 10.9901 4.11782C11.005 4.16156 11.0196 4.20549 11.0349 4.24924C11.0418 4.26862 11.0416 4.28597 11.019 4.2976C11.0035 4.30554 11.0093 4.31716 11.0112 4.32824C11.0295 4.42994 11.048 4.53146 11.0441 4.63483C11.0437 4.64756 11.051 4.66676 11.0375 4.67156C11.0192 4.6782 11.0039 4.66251 10.992 4.6507C10.9221 4.58093 10.8672 4.50285 10.8259 4.41813C10.7312 4.22321 10.7 4.01981 10.7135 3.80975C10.72 3.71045 10.7463 3.61317 10.7544 3.51424C10.7564 3.48969 10.7598 3.46533 10.7572 3.44059C10.7564 3.4321 10.7562 3.42121 10.7439 3.41955C10.7336 3.41826 10.7245 3.42416 10.7178 3.43136C10.7062 3.44391 10.7069 3.45923 10.7034 3.47382C10.7 3.48821 10.6993 3.50833 10.6733 3.48821C10.6671 3.48341 10.6597 3.48268 10.6541 3.48803C10.6378 3.50316 10.6197 3.50021 10.5971 3.48877C10.5971 3.52513 10.5973 3.55706 10.5969 3.58899C10.5969 3.59472 10.6005 3.60321 10.5917 3.60524C10.5803 3.60782 10.5805 3.59767 10.5775 3.59176C10.5756 3.5877 10.5752 3.58309 10.5732 3.57903C10.5696 3.57127 10.5717 3.55706 10.5603 3.5578C10.5459 3.55872 10.5457 3.57331 10.5452 3.58309C10.5444 3.61041 10.5491 3.63735 10.5556 3.66412C10.5584 3.67593 10.5592 3.68811 10.5612 3.70177C10.5338 3.69882 10.5261 3.68276 10.5185 3.66633C10.5117 3.65138 10.5106 3.63329 10.4884 3.6248C10.4744 3.6584 10.4839 3.69199 10.4802 3.72466C10.4792 3.73518 10.486 3.75272 10.4721 3.75493C10.4555 3.75733 10.454 3.73943 10.4486 3.72835C10.443 3.71672 10.4426 3.69624 10.4254 3.69864C10.4111 3.70067 10.4144 3.72042 10.4139 3.73297C10.4131 3.76158 10.4258 3.78797 10.4335 3.81529C10.4374 3.82876 10.4408 3.84242 10.4456 3.86014C10.4337 3.85627 10.4256 3.85424 10.418 3.85128C10.3918 3.84113 10.3836 3.84464 10.389 3.869C10.3965 3.90334 10.4083 3.93711 10.42 3.97071C10.4245 3.984 10.4271 3.99286 10.4056 3.99286C10.3847 3.99286 10.3842 4.00615 10.3851 4.01888C10.3866 4.04029 10.3993 4.05912 10.4062 4.07924C10.4176 4.11228 10.4223 4.1444 10.4012 4.17596C10.395 4.18537 10.3941 4.19626 10.3954 4.20679C10.3969 4.21934 10.3922 4.22746 10.3771 4.22949C10.3588 4.23207 10.3616 4.24278 10.364 4.25348C10.3679 4.2712 10.375 4.28855 10.3737 4.3072C10.3604 4.3083 10.3563 4.30037 10.3524 4.29372C10.2928 4.19276 10.2254 4.09511 10.174 3.99064C10.0818 3.80385 10.1081 3.62536 10.2267 3.4537C10.2622 3.4022 10.3033 3.35402 10.3442 3.30585C10.3739 3.27078 10.4012 3.23497 10.4073 3.19049C10.4096 3.1724 10.4109 3.15449 10.4002 3.1377C10.3881 3.14065 10.3855 3.14932 10.3812 3.1556C10.3703 3.17147 10.3588 3.1796 10.339 3.16483C10.3242 3.15375 10.3184 3.16169 10.3154 3.17424C10.313 3.18366 10.3087 3.19289 10.3078 3.20248C10.3063 3.22094 10.296 3.2298 10.2745 3.22777C10.259 3.22629 10.2532 3.23368 10.2482 3.24475C10.2355 3.27429 10.2217 3.30345 10.2065 3.33704C10.1959 3.31822 10.1873 3.3029 10.1776 3.28554C10.1451 3.31877 10.1471 3.36288 10.1195 3.39814C10.109 3.38688 10.0997 3.37691 10.0883 3.36473C10.0778 3.38872 10.0666 3.41032 10.0588 3.43266C10.053 3.44964 10.0431 3.45388 10.0255 3.44705C10.0093 3.44078 10.0039 3.44687 10.0011 3.45997C9.99253 3.50021 9.98263 3.54008 9.97273 3.58198C9.95422 3.57201 9.95206 3.55374 9.93549 3.54396C9.9187 3.56242 9.91849 3.58401 9.91956 3.60413C9.92236 3.65231 9.89653 3.69254 9.8748 3.73407C9.87286 3.73777 9.86791 3.74386 9.86554 3.74349C9.83003 3.73777 9.83713 3.76195 9.83563 3.77671C9.82895 3.83873 9.81668 3.90057 9.82788 3.96314C9.8311 3.98178 9.82637 3.9995 9.81432 4.01611C9.80291 4.0318 9.7943 4.02903 9.7887 4.01408C9.77837 3.98658 9.7689 3.95871 9.76008 3.93084C9.72607 3.82194 9.70304 3.71119 9.70261 3.59822C9.70197 3.41992 9.77579 3.26838 9.9286 3.14471C10.078 3.02381 10.2437 2.9269 10.4408 2.87282C10.4914 2.85898 10.5439 2.84993 10.5926 2.83129C10.5999 2.82852 10.6115 2.82686 10.6107 2.81929C10.6098 2.81154 10.599 2.80564 10.59 2.806C10.53 2.80877 10.4673 2.7929 10.4111 2.82612C10.3838 2.84237 10.3539 2.84809 10.3233 2.82705C10.3087 2.81689 10.2316 2.83129 10.2177 2.8444C10.2082 2.85326 10.1989 2.86249 10.1903 2.87098C10.1781 2.86821 10.1819 2.86046 10.1791 2.85547C10.175 2.8479 10.1791 2.83554 10.1682 2.83258C10.155 2.82908 10.1447 2.83849 10.1365 2.84569C10.1266 2.85436 10.1189 2.86489 10.1107 2.87504C10.0991 2.88925 10.0866 2.89848 10.0653 2.88722C10.0463 2.87725 10.0373 2.89091 10.0283 2.90106C10.0179 2.91288 10.0082 2.91786 9.99446 2.90439C9.98413 2.89405 9.97703 2.89608 9.971 2.909C9.96196 2.92857 9.95013 2.94702 9.94109 2.96659C9.93506 2.97951 9.92774 2.98339 9.91418 2.97453C9.89912 2.96474 9.88836 2.96862 9.87953 2.98191C9.87135 2.99391 9.86016 3.00443 9.85457 3.01809C9.8451 3.04098 9.82788 3.05906 9.80592 3.07438C9.78612 3.08823 9.76675 3.10263 9.75276 3.12145C9.74975 3.1257 9.74394 3.1316 9.73963 3.13142C9.70283 3.12939 9.70434 3.15375 9.69895 3.17332C9.69357 3.19289 9.68798 3.21264 9.68324 3.23239C9.67872 3.25177 9.67377 3.26949 9.64751 3.27724C9.63159 3.28185 9.63223 3.29699 9.63245 3.30936C9.63309 3.32947 9.62771 3.35273 9.60404 3.35273C9.57778 3.35273 9.57735 3.32597 9.57843 3.30862C9.59521 3.05648 9.71531 2.85252 9.96369 2.71021C10.1346 2.61238 10.3261 2.56605 10.5291 2.54925C10.6014 2.54335 10.6735 2.53559 10.7443 2.52009C10.7686 2.51474 10.7906 2.5068 10.8054 2.48299C10.7088 2.47745 10.6165 2.4481 10.5211 2.47431C10.5093 2.47764 10.4964 2.4828 10.4854 2.47671C10.4512 2.45789 10.4238 2.47154 10.3959 2.48779C10.3877 2.49259 10.3763 2.50292 10.3677 2.48908C10.3563 2.47062 10.3416 2.47321 10.3248 2.48133C10.2652 2.51031 10.197 2.5223 10.1331 2.53412C10.044 2.55036 9.98628 2.60592 9.90988 2.63601C9.90019 2.63988 9.89051 2.65317 9.88104 2.64524C9.86963 2.63582 9.88556 2.62641 9.89137 2.61884C9.98585 2.49757 10.107 2.39937 10.2454 2.31539C10.4015 2.2207 10.5749 2.18674 10.7635 2.20187C10.8552 2.20926 10.9471 2.21738 11.0388 2.22402C11.0558 2.22531 11.0824 2.23196 11.0876 2.2159C11.0915 2.20427 11.0652 2.19578 11.0491 2.19135C11.0047 2.17898 10.9703 2.15001 10.9262 2.13819C10.8823 2.12638 10.8392 2.11327 10.7988 2.09426C10.7689 2.08023 10.728 2.09002 10.7034 2.06307C10.7021 2.06159 10.6957 2.06288 10.692 2.06418C10.6223 2.08873 10.5476 2.09519 10.4749 2.10866C10.4546 2.11235 10.4374 2.12195 10.4148 2.13044C10.418 2.10201 10.4365 2.08485 10.457 2.07008C10.5274 2.01988 10.6124 1.9968 10.6993 1.97964C10.8694 1.94641 11.0263 1.97558 11.1718 2.05587C11.2243 2.08485 11.2779 2.11217 11.3379 2.12915C11.3562 2.13432 11.361 2.13284 11.3612 2.11604C11.3625 2.0483 11.3704 1.98111 11.381 1.91393C11.3838 1.89621 11.3907 1.88846 11.4111 1.89012C11.4343 1.89196 11.4414 1.88403 11.4434 1.86335C11.4477 1.8137 11.4391 1.76294 11.4585 1.7144C11.4612 1.7072 11.4593 1.69649 11.4707 1.69538C11.4841 1.69428 11.4847 1.70627 11.4888 1.71366C11.5062 1.74485 11.4991 1.77937 11.5054 1.81204C11.5084 1.82754 11.5075 1.8436 11.5095 1.85929C11.5112 1.87424 11.5135 1.88827 11.5329 1.89621C11.5471 1.90211 11.5491 1.91577 11.5493 1.92832C11.5497 1.9442 11.5497 1.95989 11.5501 1.97576C11.551 1.99791 11.5549 2.0184 11.573 2.03686C11.5921 2.05661 11.5936 2.0819 11.5925 2.107C11.5908 2.14982 11.594 2.15314 11.6397 2.13616C11.7025 2.11272 11.7626 2.08393 11.8207 2.05273C11.9401 1.98887 12.0682 1.96229 12.2081 1.98351C12.2981 1.99717 12.3794 2.02947 12.458 2.06805C12.4814 2.0795 12.4989 2.09722 12.5098 2.11881C12.5191 2.13672 12.5124 2.14539 12.4896 2.14336C12.4797 2.14244 12.47 2.13856 12.4603 2.13579C12.3925 2.11697 12.3215 2.09648 12.2531 2.1153C12.2003 2.12989 12.15 2.13838 12.0951 2.13967C12.0505 2.14078 12.0165 2.17012 11.9741 2.18803C12.0226 2.21996 12.0753 2.22052 12.1282 2.2183C12.1937 2.21535 12.2589 2.20889 12.3243 2.20759C12.4705 2.20464 12.6009 2.24396 12.7122 2.3248C12.7995 2.3883 12.8843 2.45475 12.9642 2.52544C12.9984 2.5559 13.0249 2.59134 13.0466 2.63305C13.0249 2.62973 13.0096 2.61995 12.9939 2.61201C12.9444 2.58709 12.893 2.5679 12.8368 2.55424C12.7864 2.54205 12.7378 2.5212 12.6919 2.49794C12.676 2.48982 12.6592 2.48317 12.6411 2.47967C12.6155 2.47487 12.5906 2.47228 12.5763 2.49794C12.5705 2.50846 12.5621 2.50809 12.5518 2.50126C12.5404 2.49369 12.5277 2.48779 12.5163 2.48059C12.5012 2.47099 12.4879 2.46379 12.4754 2.4841C12.4674 2.49702 12.455 2.48871 12.4461 2.4841C12.4154 2.46804 12.3857 2.45419 12.3504 2.47745C12.3433 2.48207 12.3284 2.47874 12.3172 2.47819C12.2828 2.47653 12.2496 2.4793 12.2206 2.49757C12.2124 2.50274 12.204 2.50422 12.1945 2.50108C12.1917 2.50015 12.1887 2.49923 12.1857 2.49886C12.1687 2.4972 12.1328 2.5188 12.1358 2.53098C12.1392 2.54538 12.1582 2.54464 12.1706 2.54593C12.2307 2.55184 12.291 2.5559 12.351 2.5607C12.4724 2.5703 12.594 2.57823 12.7117 2.60777C13.0044 2.68086 13.2147 2.83277 13.3191 3.08251C13.3591 3.17849 13.3682 3.27871 13.3566 3.38466C13.3357 3.36805 13.3273 3.34922 13.3161 3.33243C13.2715 3.26524 13.2278 3.19787 13.1839 3.13031C13.1706 3.10982 13.1564 3.09063 13.1254 3.08915C13.1138 3.0886 13.114 3.08121 13.1123 3.07438C13.0972 3.01273 13.0466 2.97526 12.9907 2.94093C12.9881 2.93946 12.9853 2.93835 12.9825 2.93724C12.9633 2.93004 12.9388 2.93576 12.9231 2.91915C12.9102 2.90568 12.8966 2.89276 12.8831 2.87928C12.8607 2.90697 12.8607 2.90697 12.8357 2.88113C12.8318 2.87707 12.8277 2.87301 12.8239 2.86895C12.7972 2.84107 12.7965 2.84071 12.7709 2.87079C12.7634 2.87947 12.7586 2.8815 12.7505 2.87282C12.744 2.86599 12.7371 2.85953 12.7311 2.85233C12.7188 2.83794 12.7102 2.82594 12.6835 2.84015C12.6639 2.85067 12.6345 2.83868 12.6106 2.8527C12.6022 2.85769 12.5884 2.83997 12.5761 2.83406C12.5712 2.83166 12.5669 2.8252 12.5604 2.82852C12.5546 2.83148 12.5555 2.83775 12.5557 2.84274C12.5568 2.86802 12.5736 2.88537 12.5964 2.89848C12.6822 2.94795 12.7679 2.99741 12.8546 3.04577C12.9681 3.10909 13.0714 3.18089 13.1394 3.28444C13.216 3.40091 13.2371 3.52716 13.2337 3.65803C13.2302 3.79111 13.1932 3.91847 13.1456 4.04417C13.1385 4.06263 13.1323 4.05931 13.1202 4.0486C13.0955 4.02682 13.0963 4.00135 13.1041 3.97477C13.1073 3.96369 13.1123 3.95299 13.1179 3.94265C13.126 3.9277 13.1222 3.91681 13.1045 3.9109C13.0854 3.90444 13.083 3.89208 13.0845 3.87676C13.0862 3.85922 13.0862 3.84169 13.0877 3.82415C13.0892 3.80754 13.0912 3.79222 13.0617 3.79646C13.0503 3.79812 13.0496 3.78945 13.0496 3.78207C13.0496 3.75604 13.0408 3.73223 13.0296 3.70823C13.0174 3.68165 13.0294 3.65268 13.0225 3.62499C13.0184 3.60893 13.0176 3.59213 13.0154 3.57589C13.0113 3.57589 13.009 3.57534 13.0072 3.57589C12.9653 3.59324 12.9653 3.59342 12.9612 3.553C12.9599 3.54082 12.9573 3.52845 12.9573 3.51627C12.9575 3.49117 12.9521 3.47326 12.9149 3.48305C12.9003 3.48692 12.8992 3.4764 12.8968 3.46754C12.8882 3.43469 12.8787 3.40183 12.8684 3.36436C12.8533 3.38319 12.8417 3.39777 12.8269 3.41641C12.8107 3.37451 12.7963 3.33686 12.781 3.29699C12.7737 3.30253 12.769 3.30548 12.7649 3.30899C12.7311 3.33723 12.7311 3.33723 12.7126 3.29847C12.7063 3.28554 12.6995 3.27262 12.6945 3.25933C12.6881 3.24161 12.6801 3.22943 12.654 3.22722C12.6304 3.22519 12.6218 3.20433 12.6134 3.18753C12.6065 3.17406 12.5998 3.16649 12.5796 3.16907C12.5501 3.17295 12.5294 3.15892 12.5133 3.13843C12.504 3.12681 12.4939 3.10576 12.4767 3.1137C12.4582 3.12219 12.4666 3.14286 12.4733 3.15948C12.4896 3.20045 12.5245 3.23109 12.5533 3.26487C12.6121 3.33354 12.6786 3.3974 12.7285 3.47142C12.8316 3.62462 12.846 3.78686 12.7914 3.95502C12.7518 4.07666 12.6831 4.18574 12.5955 4.28671C12.583 4.30111 12.5708 4.31643 12.546 4.3251C12.5477 4.31015 12.5479 4.29815 12.5505 4.28652C12.5546 4.26788 12.5624 4.24887 12.526 4.24979C12.5154 4.24998 12.5169 4.24278 12.5195 4.23613C12.5245 4.22284 12.529 4.20937 12.5333 4.19571C12.537 4.18464 12.5417 4.17061 12.5335 4.1623C12.5073 4.13498 12.5225 4.1097 12.5342 4.08367C12.5428 4.06392 12.5505 4.04399 12.5596 4.02424C12.5669 4.00818 12.5613 4.00264 12.5423 4.0067C12.5202 4.01131 12.5163 4.00504 12.5215 3.98658C12.5335 3.94339 12.5428 3.89964 12.5533 3.85645C12.5339 3.85036 12.5182 3.87676 12.5064 3.8618C12.4987 3.85202 12.5064 3.83301 12.5075 3.81824C12.5088 3.80163 12.5101 3.7852 12.5116 3.76675C12.4909 3.77081 12.4855 3.7889 12.4642 3.79849C12.4642 3.74552 12.4642 3.69624 12.4642 3.64492C12.4365 3.65046 12.436 3.66892 12.4272 3.68147C12.4242 3.68571 12.4233 3.69273 12.416 3.69291C12.407 3.69328 12.405 3.68571 12.4031 3.68036C12.3964 3.66172 12.3981 3.64215 12.3964 3.62296C12.3941 3.59564 12.3906 3.59324 12.3648 3.60671C12.3489 3.61502 12.348 3.60801 12.3465 3.59785C12.3439 3.57958 12.3409 3.56131 12.3385 3.54285C12.3368 3.53048 12.3334 3.52107 12.3161 3.53067C12.2978 3.54082 12.2914 3.53159 12.2856 3.51848C12.272 3.4884 12.249 3.46606 12.2124 3.45499C12.1939 3.44945 12.1842 3.45019 12.1876 3.4716C12.1999 3.54728 12.2128 3.62296 12.2212 3.699C12.2447 3.91146 12.2352 4.12188 12.1569 4.32676C12.1188 4.42644 12.0648 4.51983 11.9976 4.60769C11.9739 4.6387 11.9442 4.6651 11.9113 4.68872C11.9012 4.68282 11.9063 4.67507 11.9059 4.66879C11.9018 4.5669 11.9188 4.46464 11.9085 4.36331C11.9007 4.28837 11.9139 4.22063 11.9481 4.15363C11.9496 4.15067 11.9498 4.14735 11.9515 4.14126C11.9154 4.14532 11.9068 4.17522 11.8777 4.1911C11.8753 4.15326 11.8728 4.11893 11.8708 4.08441C11.8695 4.06244 11.8693 4.04048 11.8682 4.01851C11.8663 3.98141 11.8605 3.94671 11.8327 3.91478C11.7964 3.87269 11.8028 3.81917 11.7923 3.77025C11.7908 3.76379 11.7955 3.75438 11.7869 3.75124C11.7768 3.74755 11.771 3.75696 11.7641 3.76176C11.7256 3.78963 11.7236 3.83135 11.7094 3.86845C11.6724 3.9648 11.6784 4.06429 11.6827 4.16359C11.6885 4.30037 11.6928 4.43733 11.6989 4.57428C11.7135 4.90948 11.723 5.24487 11.7251 5.58043C11.726 5.69469 11.7277 5.80876 11.7327 5.92301C11.7363 6.00423 11.758 6.08268 11.7998 6.15651C11.8396 6.22683 11.8422 6.2979 11.8063 6.37044C11.7615 6.4607 11.7746 6.54782 11.8334 6.62977C11.8762 6.68958 11.924 6.7468 11.9694 6.80512C11.9843 6.82414 11.9987 6.84352 12.0073 6.8653C12.0271 6.91458 12.0051 6.95076 11.9466 6.96423C11.882 6.97918 11.8162 6.98767 11.7494 6.9886C11.5609 6.991 11.3724 6.99413 11.1838 6.9897C11.119 6.98823 11.0553 6.97937 10.9936 6.96294C10.9329 6.94688 10.9131 6.91089 10.9376 6.8605C10.9623 6.80992 11.0009 6.76636 11.0375 6.72188C11.1029 6.64232 11.1511 6.55742 11.1533 6.45737C11.1543 6.41178 11.1451 6.36822 11.1218 6.32725C11.0921 6.27501 11.0934 6.2237 11.1272 6.17367C11.186 6.08692 11.1954 5.99075 11.1997 5.89385C11.212 5.6131 11.2183 5.33199 11.2247 5.05106C11.2301 4.81239 11.2458 4.57392 11.2557 4.33525C11.2617 4.18685 11.254 4.03845 11.2486 3.89005C11.2471 3.83836 11.2092 3.78022 11.164 3.75161Z" fill="#127043"/>
<path d="M15.5127 6.47159C15.466 6.48212 15.4219 6.4823 15.3782 6.48581C15.1742 6.50168 14.9699 6.51331 14.7667 6.53749C14.5031 6.56887 14.2409 6.60781 13.9827 6.66411C13.7519 6.71432 13.5294 6.78427 13.3114 6.86604C13.041 6.96775 12.7776 7.08034 12.535 7.22579C12.3219 7.35352 12.1338 7.50635 11.9507 7.6638C11.9081 7.70053 11.8661 7.73782 11.8252 7.77584C11.7946 7.80408 11.794 7.81146 11.8213 7.84155C11.9014 7.93052 11.9821 8.01893 12.0635 8.10698C12.1799 8.23305 12.3088 8.3497 12.4364 8.46709C12.4532 8.48241 12.4722 8.49589 12.4896 8.51065C12.5049 8.52376 12.5126 8.51951 12.5191 8.50383C12.5503 8.4287 12.5824 8.35358 12.614 8.27864C12.6274 8.24726 12.642 8.21662 12.6633 8.18819C12.713 8.12156 12.7879 8.10439 12.8667 8.145C12.9457 8.18579 12.9825 8.24707 12.976 8.32644C12.9732 8.36188 12.9472 8.38662 12.8994 8.39548C12.7864 8.41633 12.7352 8.48426 12.7126 8.57323C12.6921 8.65389 12.7126 8.72514 12.7815 8.7866C12.8465 8.84438 12.9132 8.89957 12.9928 8.9422C13.0621 8.9793 13.0785 8.97543 13.1148 8.91322C13.1359 8.87705 13.1577 8.84105 13.1943 8.81411C13.2864 8.74618 13.4289 8.7316 13.5391 8.84382C13.6228 8.9291 13.6445 9.03006 13.6318 9.13786C13.6236 9.20689 13.5935 9.26946 13.541 9.32189C13.4556 9.40735 13.3421 9.42599 13.2177 9.4151C13.0869 9.40366 12.978 9.34957 12.8719 9.28811C12.7513 9.21834 12.6291 9.15078 12.5075 9.08267C12.4709 9.06218 12.4698 9.06292 12.438 9.08987C12.3637 9.15281 12.2972 9.22277 12.2154 9.27869C12.1067 9.35308 11.9399 9.34625 11.851 9.263C11.7585 9.17625 11.7533 9.04483 11.8861 8.95254C11.9083 8.93722 11.9339 8.93685 11.9584 8.9483C12.0015 8.96841 12.043 8.99112 12.0869 9.00994C12.1444 9.03468 12.2027 9.0225 12.2442 8.98023C12.2701 8.95402 12.2739 8.92522 12.258 8.8944C12.2296 8.83958 12.1814 8.79731 12.1353 8.75393C11.9356 8.56548 11.7357 8.37757 11.5355 8.18948C11.5163 8.1714 11.498 8.14389 11.4724 8.14223C11.4479 8.14057 11.4309 8.16992 11.4113 8.18598C11.2368 8.32958 11.0768 8.485 10.9189 8.64189C10.8586 8.7017 10.7992 8.76205 10.7392 8.82204C10.7189 8.84216 10.7019 8.86394 10.6901 8.88849C10.6726 8.92412 10.6767 8.95752 10.7075 8.9865C10.7398 9.01696 10.7792 9.02951 10.8267 9.01659C10.8681 9.00552 10.9038 8.98429 10.9421 8.96768C10.9585 8.96048 10.9748 8.95328 10.9918 8.94737C11.02 8.93759 11.0469 8.94091 11.0691 8.95863C11.1358 9.01198 11.1599 9.07916 11.1466 9.15484C11.1326 9.23366 11.0872 9.2966 10.9944 9.3217C10.9079 9.34514 10.8265 9.32189 10.7493 9.28737C10.6664 9.25027 10.6064 9.19176 10.55 9.12974C10.533 9.1111 10.5134 9.09411 10.4974 9.07473C10.4854 9.05997 10.4746 9.06218 10.4591 9.06938C10.3726 9.1098 10.2949 9.16167 10.2133 9.20874C10.1335 9.2547 10.058 9.30638 9.97272 9.34533C9.87328 9.39073 9.76718 9.41344 9.65375 9.40993C9.50201 9.40532 9.38816 9.32798 9.33521 9.19231C9.28076 9.05295 9.32811 8.90566 9.45811 8.81004C9.56163 8.734 9.69486 8.74544 9.77966 8.83755C9.80958 8.87003 9.83476 8.9051 9.86059 8.9398C9.88469 8.97192 9.89158 8.97487 9.92924 8.95642C10.0429 8.90123 10.1384 8.82739 10.2189 8.73953C10.2458 8.71037 10.251 8.67493 10.2396 8.63931C10.2232 8.58855 10.2045 8.53853 10.1875 8.48795C10.1729 8.44476 10.1412 8.4167 10.0907 8.40415C10.0838 8.40249 10.0773 8.39991 10.0704 8.39806C9.98434 8.3748 9.96174 8.34287 9.97767 8.2659C9.99726 8.17158 10.1034 8.11141 10.2103 8.13374C10.2594 8.14408 10.2908 8.17047 10.3072 8.21053C10.3421 8.2958 10.3763 8.38126 10.4111 8.46654C10.4346 8.52431 10.4484 8.52727 10.4962 8.48204C10.711 8.27808 10.9184 8.06858 11.1139 7.85078C11.1399 7.82162 11.139 7.81479 11.1141 7.78304C11.0596 7.71382 10.9875 7.65882 10.9187 7.60141C10.7577 7.46722 10.5881 7.34208 10.409 7.22561C10.2495 7.12187 10.0722 7.04582 9.89352 6.97144C9.69099 6.88708 9.48458 6.80993 9.27215 6.74588C8.98977 6.6606 8.70287 6.59083 8.40585 6.55447C8.23044 6.53306 8.05417 6.51848 7.87811 6.50168C7.77825 6.49208 7.67881 6.48064 7.57916 6.46975C7.56797 6.46846 7.55656 6.46735 7.54688 6.4559C7.58067 6.44335 7.61618 6.44077 7.6504 6.43929C7.9429 6.42637 8.23389 6.39536 8.52746 6.39868C8.87161 6.40256 9.21232 6.43062 9.54721 6.50131C9.77363 6.54912 9.99058 6.61926 10.2004 6.70583C10.409 6.79203 10.6145 6.88247 10.8031 6.99894C10.9647 7.09861 11.1158 7.20899 11.2598 7.32657C11.3183 7.37438 11.3771 7.42218 11.4324 7.47257C11.455 7.49325 11.4696 7.48974 11.4897 7.47387C11.5575 7.42034 11.6265 7.36792 11.6933 7.31347C11.9765 7.08256 12.2912 6.89022 12.6416 6.74108C12.8594 6.64824 13.0856 6.57459 13.3191 6.51737C13.5662 6.45664 13.8184 6.42323 14.0748 6.40865C14.3195 6.39481 14.564 6.40127 14.8085 6.41197C14.9383 6.4177 15.0683 6.42194 15.198 6.43006C15.2908 6.43597 15.3834 6.44705 15.4759 6.45609C15.4871 6.45812 15.4996 6.45978 15.5127 6.47159ZM13.2412 9.23643C13.2535 9.23643 13.2657 9.23698 13.278 9.23624C13.3817 9.22996 13.4409 9.19213 13.4648 9.117C13.484 9.05683 13.4489 8.97118 13.3899 8.93519C13.3389 8.904 13.2745 8.92522 13.2481 8.98337C13.2304 9.02194 13.2203 9.062 13.2175 9.1039C13.2149 9.14524 13.1949 9.15798 13.1473 9.15355C13.1278 9.1517 13.1097 9.14561 13.0914 9.14007C12.9782 9.10611 12.8878 9.04483 12.8064 8.971C12.7614 8.93021 12.7117 8.89329 12.665 8.85397C12.6484 8.84013 12.6398 8.84308 12.6293 8.85914C12.6043 8.89661 12.6069 8.92818 12.6411 8.96029C12.6958 9.01142 12.7543 9.05923 12.82 9.1002C12.9457 9.17884 13.0828 9.23255 13.2412 9.23643ZM9.48867 9.07473C9.48867 9.1829 9.54398 9.23716 9.66602 9.24067C9.78698 9.24418 9.90169 9.21631 10.0067 9.16481C10.1221 9.10814 10.2164 9.02766 10.3154 8.95309C10.3423 8.93279 10.3464 8.90492 10.3341 8.87557C10.3216 8.84567 10.3182 8.84382 10.288 8.86062C10.2727 8.86929 10.2579 8.87889 10.2441 8.88941C10.1591 8.95402 10.0741 9.01844 9.99015 9.08415C9.93871 9.12439 9.88039 9.1469 9.81044 9.14875C9.75426 9.15023 9.7364 9.13804 9.72908 9.09098C9.7237 9.05701 9.71617 9.02342 9.71079 8.98946C9.70498 8.9518 9.68152 8.92799 9.63804 8.92098C9.59241 8.91359 9.55453 8.92651 9.52806 8.95919C9.499 8.99481 9.49104 9.03634 9.48867 9.07473ZM11.986 9.05332C11.9601 9.05314 11.9438 9.06458 11.9347 9.08452C11.9162 9.12531 11.9388 9.17182 11.9847 9.1912C12.0682 9.22664 12.148 9.21557 12.2178 9.16924C12.3084 9.10906 12.3798 9.03413 12.4261 8.9422C12.5085 8.77867 12.5931 8.61605 12.6775 8.45343C12.7001 8.40969 12.7332 8.37351 12.7881 8.35653C12.8064 8.35081 12.8187 8.33918 12.8303 8.327C12.8559 8.30023 12.8499 8.26849 12.8148 8.24135C12.7849 8.21809 12.7511 8.2192 12.7229 8.24541C12.6947 8.27162 12.6771 8.30356 12.6624 8.33641C12.5998 8.47743 12.5376 8.61845 12.4763 8.76002C12.4291 8.86893 12.3637 8.96823 12.2735 9.05535C12.2367 9.09098 12.1913 9.10353 12.1379 9.09282C12.1151 9.08821 12.0936 9.07935 12.0714 9.0727C12.0439 9.0644 12.0163 9.05406 11.986 9.05332ZM10.8778 9.20671C10.9032 9.20763 10.9559 9.19176 10.9746 9.17754C11.0052 9.15466 11.0172 9.10353 10.9989 9.07584C10.9834 9.05258 10.9583 9.04963 10.9053 9.0644C10.8713 9.07381 10.8373 9.08359 10.8026 9.09116C10.7495 9.1026 10.7034 9.09079 10.666 9.05609C10.6373 9.02951 10.6122 9.00072 10.5949 8.96749C10.5 8.7866 10.4034 8.60664 10.3225 8.42076C10.2962 8.36059 10.2659 8.30226 10.2204 8.2504C10.205 8.23268 10.1856 8.22289 10.1598 8.22769C10.1316 8.23305 10.1126 8.24763 10.1064 8.27292C10.0973 8.30965 10.1128 8.33863 10.155 8.35413C10.2192 8.37757 10.262 8.41763 10.2882 8.47171C10.3526 8.60368 10.4178 8.73529 10.4796 8.86819C10.5284 8.97321 10.59 9.06956 10.6937 9.14303C10.7471 9.18087 10.8076 9.20357 10.8778 9.20671ZM12.4037 8.65518C12.4035 8.63506 12.3902 8.61605 12.3712 8.59907C12.269 8.50696 12.1674 8.4143 12.0647 8.32257C12.0266 8.28842 11.9911 8.25169 11.9459 8.22382C11.9358 8.21754 11.9236 8.21366 11.9149 8.22012C11.9063 8.22659 11.919 8.23341 11.9223 8.24006C11.9251 8.2456 11.9292 8.25077 11.9335 8.25575C12.0564 8.40471 12.1795 8.55348 12.3026 8.70243C12.3133 8.71554 12.326 8.72661 12.3433 8.73363C12.3521 8.73713 12.3618 8.74027 12.3676 8.73123C12.3826 8.70834 12.402 8.68711 12.4037 8.65518ZM11.0078 8.22234C11.0017 8.21846 10.9987 8.22142 10.9951 8.22271C10.9552 8.23637 10.9305 8.26479 10.9029 8.29063C10.7917 8.39474 10.6806 8.49884 10.5693 8.60295C10.5551 8.61623 10.5448 8.63119 10.5403 8.64872C10.5327 8.6777 10.5551 8.71332 10.5913 8.72495C10.6193 8.734 10.6223 8.70594 10.6386 8.69708C10.6395 8.69671 10.6399 8.69579 10.6406 8.69505C10.7592 8.56714 10.8659 8.43239 10.9651 8.29303C10.9815 8.27033 10.9985 8.24763 11.0078 8.22234Z" fill="#A67C1D"/>
<path d="M23.6452 2.8148C23.6444 2.81694 23.6434 2.81892 23.6428 2.82106C23.6423 2.82281 23.6412 2.82411 23.6389 2.82358C23.6297 2.82144 23.6308 2.82617 23.6317 2.83037C23.6341 2.8422 23.6313 2.85366 23.6278 2.86511C23.627 2.86763 23.626 2.86938 23.6224 2.869C23.6166 2.86839 23.6168 2.87076 23.6179 2.87404C23.6194 2.87877 23.6209 2.88351 23.6218 2.88824C23.6226 2.89206 23.6222 2.89572 23.6176 2.89832C23.6148 2.89984 23.6145 2.90229 23.6143 2.9048C23.614 2.90885 23.6159 2.91259 23.6164 2.91748C23.6093 2.91458 23.6071 2.90954 23.6037 2.90526C23.6023 2.90351 23.6014 2.90022 23.5985 2.90114C23.5955 2.90206 23.5972 2.90496 23.598 2.90702C23.602 2.91809 23.606 2.92908 23.6102 2.94007C23.612 2.94496 23.612 2.94931 23.6059 2.95229C23.6016 2.95427 23.6033 2.95718 23.6037 2.96C23.6088 2.98557 23.6138 3.01115 23.6127 3.03718C23.6126 3.04039 23.6145 3.0452 23.6109 3.04642C23.6059 3.0481 23.6017 3.04413 23.5985 3.04115C23.5794 3.02359 23.5645 3.0039 23.5532 2.9826C23.5274 2.93351 23.5189 2.88228 23.5226 2.82938C23.5243 2.80434 23.5315 2.77991 23.5338 2.75495C23.5343 2.74876 23.5352 2.74258 23.5345 2.7364C23.5342 2.73426 23.5342 2.73151 23.5309 2.73113C23.5281 2.73075 23.5256 2.73227 23.5238 2.73411C23.5206 2.73724 23.5208 2.74113 23.5198 2.74479C23.5188 2.74846 23.5187 2.7535 23.5116 2.74846C23.5099 2.74724 23.508 2.74708 23.5064 2.74838C23.502 2.7522 23.4971 2.75143 23.4908 2.74853C23.4908 2.75769 23.4908 2.76571 23.4908 2.7738C23.4908 2.77525 23.4918 2.77739 23.4894 2.77785C23.4863 2.77846 23.4863 2.77594 23.4855 2.77441C23.485 2.77342 23.4849 2.77228 23.4844 2.77121C23.4834 2.7693 23.484 2.76571 23.4809 2.76586C23.477 2.76609 23.4769 2.76976 23.4769 2.77228C23.4767 2.77915 23.4779 2.78594 23.4797 2.79266C23.4804 2.79564 23.4806 2.79869 23.4812 2.80213C23.4738 2.80136 23.4717 2.79739 23.4696 2.79319C23.4677 2.78945 23.4674 2.78487 23.4614 2.78273C23.4575 2.79121 23.4601 2.79961 23.4592 2.80785C23.4589 2.81052 23.4608 2.81495 23.4569 2.81549C23.4524 2.8161 23.452 2.81159 23.4506 2.80877C23.449 2.80587 23.449 2.80067 23.4442 2.80129C23.4404 2.80174 23.4413 2.80678 23.4412 2.80991C23.4409 2.81716 23.4443 2.82381 23.4465 2.8306C23.4475 2.83396 23.4485 2.8374 23.4497 2.8419C23.4465 2.84091 23.4443 2.84037 23.4422 2.83969C23.435 2.83717 23.4328 2.83801 23.4343 2.84411C23.4363 2.85274 23.4396 2.86129 23.4427 2.86976C23.4439 2.87312 23.4446 2.87534 23.4387 2.87534C23.4331 2.87534 23.433 2.8787 23.4332 2.8819C23.4336 2.88732 23.437 2.89206 23.4389 2.89709C23.442 2.90542 23.4434 2.91351 23.4376 2.92145C23.436 2.92381 23.4357 2.92656 23.436 2.92923C23.4363 2.93236 23.4351 2.93443 23.431 2.93496C23.4259 2.93565 23.4267 2.93832 23.4274 2.94099C23.4284 2.94549 23.4304 2.94985 23.43 2.9545C23.4263 2.95481 23.4253 2.95275 23.4241 2.95107C23.4079 2.92565 23.3896 2.90106 23.3755 2.87473C23.3504 2.8277 23.3575 2.78273 23.3898 2.73952C23.3996 2.72655 23.4107 2.71441 23.4218 2.70227C23.4299 2.69341 23.4373 2.68441 23.4389 2.67318C23.4396 2.6686 23.4399 2.6641 23.437 2.6599C23.4337 2.66066 23.4331 2.6628 23.4318 2.66441C23.4288 2.66837 23.4258 2.67044 23.4203 2.6667C23.4162 2.66387 23.4146 2.66586 23.4138 2.66906C23.4132 2.67143 23.412 2.67379 23.4118 2.67616C23.4114 2.68082 23.4085 2.68303 23.4027 2.6825C23.3985 2.68212 23.3969 2.68395 23.3956 2.68677C23.3922 2.69418 23.3884 2.70158 23.3843 2.71006C23.3814 2.70532 23.3791 2.70143 23.3764 2.69708C23.3675 2.70548 23.3681 2.71655 23.3606 2.7254C23.3577 2.72258 23.3552 2.72006 23.3521 2.717C23.3492 2.72304 23.3461 2.72846 23.3441 2.73411C23.3426 2.73838 23.3399 2.73945 23.3351 2.73777C23.3306 2.73617 23.3292 2.73769 23.3284 2.74105C23.326 2.75113 23.3233 2.76121 23.3207 2.77174C23.3157 2.76922 23.3151 2.76464 23.3106 2.76212C23.306 2.76678 23.306 2.7722 23.3063 2.77731C23.3071 2.78945 23.3 2.79953 23.2942 2.80999C23.2937 2.8109 23.2923 2.81243 23.2917 2.81236C23.2819 2.8109 23.284 2.81701 23.2835 2.82068C23.2816 2.83625 23.2784 2.85182 23.2814 2.86763C23.2822 2.87228 23.281 2.87679 23.2777 2.88099C23.2746 2.88496 23.2722 2.88419 23.2707 2.88045C23.2679 2.8735 23.2653 2.86648 23.2629 2.85946C23.2536 2.83205 23.2474 2.80411 23.2472 2.77571C23.247 2.73082 23.2671 2.69265 23.3087 2.6615C23.3494 2.63104 23.3945 2.60661 23.4482 2.59303C23.4619 2.58951 23.4762 2.5873 23.4896 2.58257C23.4916 2.58188 23.4948 2.58142 23.4945 2.57959C23.4942 2.57768 23.4913 2.57615 23.4888 2.57623C23.4724 2.57692 23.4554 2.57295 23.4401 2.58127C23.4326 2.58532 23.4245 2.58677 23.4161 2.5815C23.4122 2.57898 23.3912 2.58257 23.3873 2.58585C23.3847 2.58806 23.3822 2.59043 23.3799 2.59257C23.3767 2.59188 23.3776 2.5899 23.3769 2.58867C23.3757 2.58677 23.3769 2.58364 23.3739 2.58295C23.3703 2.58203 23.3675 2.5844 23.3652 2.58623C23.3625 2.58837 23.3604 2.59104 23.3582 2.59364C23.355 2.59722 23.3516 2.59951 23.3458 2.59669C23.3407 2.59417 23.3382 2.59761 23.3356 2.6002C23.3329 2.60318 23.3302 2.60448 23.3265 2.60104C23.3237 2.59845 23.3218 2.59898 23.3201 2.60219C23.3176 2.60707 23.3145 2.61181 23.312 2.61669C23.3103 2.61997 23.3083 2.62089 23.3047 2.61868C23.3005 2.61623 23.2976 2.61723 23.2952 2.62051C23.293 2.62356 23.2899 2.62616 23.2884 2.62959C23.2858 2.63532 23.2812 2.6399 23.2751 2.64379C23.2697 2.64723 23.2644 2.65089 23.2606 2.65563C23.2597 2.65669 23.2582 2.65814 23.257 2.65814C23.247 2.65761 23.2474 2.66379 23.2459 2.66868C23.2445 2.67364 23.2429 2.67853 23.2416 2.68357C23.2403 2.68845 23.239 2.69288 23.2319 2.69487C23.2275 2.69601 23.2277 2.69983 23.2277 2.70296C23.2279 2.708 23.2264 2.71387 23.2199 2.71387C23.2128 2.71387 23.2126 2.70708 23.213 2.7028C23.2175 2.63929 23.2503 2.58791 23.3179 2.55211C23.3645 2.52745 23.4167 2.51584 23.4719 2.51157C23.4916 2.51004 23.5112 2.50813 23.5305 2.50424C23.5371 2.50294 23.5431 2.50088 23.5471 2.49493C23.5208 2.49355 23.4956 2.48615 23.4697 2.49271C23.4665 2.49355 23.4629 2.49485 23.4599 2.49332C23.4506 2.48859 23.4432 2.49203 23.4356 2.49615C23.4334 2.49737 23.4303 2.49996 23.4279 2.49653C23.4248 2.49187 23.4207 2.49248 23.4162 2.49454C23.4001 2.50187 23.3815 2.50485 23.364 2.50783C23.3397 2.51195 23.3239 2.52592 23.3032 2.53348C23.3006 2.5344 23.2979 2.53783 23.2953 2.53585C23.2922 2.53348 23.2966 2.53111 23.2981 2.5292C23.3238 2.49867 23.3568 2.47393 23.3946 2.45279C23.4371 2.42897 23.4843 2.42042 23.5356 2.42423C23.5606 2.42607 23.5856 2.42813 23.6106 2.42981C23.6152 2.43011 23.6224 2.43179 23.6239 2.42782C23.6249 2.42492 23.6178 2.42278 23.6134 2.42164C23.6013 2.41851 23.5919 2.41126 23.5799 2.40828C23.5679 2.4053 23.5562 2.40202 23.5451 2.39721C23.5369 2.39362 23.5259 2.39614 23.5191 2.38935C23.5187 2.38896 23.517 2.38927 23.5161 2.38958C23.4971 2.39576 23.4768 2.39736 23.4569 2.4008C23.4515 2.40171 23.4467 2.40416 23.4406 2.40629C23.4414 2.39912 23.4465 2.39477 23.452 2.3911C23.4712 2.37843 23.4943 2.37263 23.5181 2.36835C23.5644 2.35995 23.6071 2.36736 23.6467 2.38759C23.661 2.39492 23.6756 2.40179 23.6919 2.40606C23.6969 2.40736 23.6982 2.40698 23.6983 2.40278C23.6987 2.38576 23.7008 2.36881 23.7037 2.35194C23.7044 2.34751 23.7064 2.34553 23.7119 2.34591C23.7182 2.34637 23.7201 2.34438 23.7206 2.33919C23.7218 2.32667 23.7195 2.31392 23.7248 2.30171C23.7255 2.29987 23.725 2.2972 23.7281 2.2969C23.7318 2.29659 23.7319 2.29964 23.733 2.30148C23.7378 2.30934 23.7358 2.31804 23.7376 2.32629C23.7383 2.33018 23.7381 2.33423 23.7386 2.3382C23.7391 2.34194 23.7398 2.34553 23.745 2.34751C23.7488 2.34896 23.7493 2.3524 23.7494 2.3556C23.7495 2.35957 23.7495 2.36354 23.7497 2.36759C23.7499 2.37316 23.751 2.37835 23.7558 2.38301C23.761 2.38797 23.7614 2.39438 23.7611 2.40072C23.7607 2.41148 23.7615 2.41232 23.7739 2.40805C23.7911 2.40217 23.8074 2.39484 23.8232 2.38706C23.8558 2.37095 23.8906 2.36431 23.9287 2.36965C23.9532 2.37308 23.9754 2.38125 23.9968 2.39095C24.0032 2.39385 24.008 2.39828 24.011 2.4037C24.0135 2.4082 24.0116 2.41042 24.0055 2.40988C24.0028 2.40965 24.0002 2.40866 23.9975 2.40797C23.979 2.40324 23.9596 2.39805 23.941 2.40286C23.9266 2.40652 23.913 2.40866 23.8979 2.40897C23.8858 2.40919 23.8766 2.41668 23.865 2.42118C23.8782 2.42927 23.8925 2.42935 23.907 2.42881C23.9248 2.42805 23.9426 2.42645 23.9604 2.42614C24.0002 2.42538 24.0358 2.4353 24.066 2.45561C24.0898 2.47164 24.1129 2.48828 24.1347 2.50615C24.144 2.51378 24.1512 2.52272 24.1571 2.53325C24.1511 2.53241 24.147 2.52997 24.1427 2.52798C24.1293 2.52172 24.1152 2.51691 24.1 2.51348C24.0862 2.51042 24.073 2.50516 24.0605 2.49928C24.0562 2.49722 24.0517 2.49554 24.0467 2.4947C24.0397 2.49348 24.0329 2.49279 24.0291 2.49928C24.0274 2.50195 24.0252 2.5018 24.0224 2.50012C24.0193 2.49821 24.0159 2.49676 24.0127 2.49493C24.0085 2.49248 24.005 2.49073 24.0015 2.49577C23.9994 2.49897 23.9959 2.49691 23.9935 2.49577C23.9852 2.49172 23.9771 2.48821 23.9674 2.49409C23.9655 2.49523 23.9615 2.49439 23.9584 2.49432C23.949 2.49393 23.94 2.49462 23.9321 2.4992C23.9299 2.5005 23.9276 2.50088 23.9251 2.50012C23.9243 2.49989 23.9234 2.49966 23.9227 2.49958C23.9181 2.4992 23.9082 2.50462 23.9091 2.50768C23.9101 2.51134 23.9152 2.51111 23.9186 2.51142C23.935 2.51287 23.9514 2.51394 23.9677 2.51516C24.0008 2.5176 24.034 2.51958 24.066 2.52699C24.1457 2.54539 24.203 2.58364 24.2314 2.64654C24.2423 2.67074 24.2448 2.69593 24.2416 2.72265C24.2359 2.71845 24.2336 2.71372 24.2306 2.70952C24.2185 2.69265 24.2066 2.67563 24.1946 2.6586C24.191 2.65341 24.1871 2.6486 24.1786 2.64822C24.1755 2.64807 24.1756 2.64624 24.1751 2.64448C24.171 2.62898 24.1572 2.61952 24.142 2.61089C24.1413 2.61051 24.1405 2.6102 24.1398 2.60997C24.1346 2.60814 24.1279 2.60959 24.1236 2.60547C24.1201 2.60203 24.1164 2.59883 24.1127 2.59547C24.1066 2.60242 24.1066 2.60242 24.0998 2.59593C24.0987 2.59493 24.0977 2.59387 24.0966 2.59287C24.0893 2.58585 24.0892 2.58577 24.0822 2.59333C24.0802 2.59554 24.0788 2.596 24.0766 2.59379C24.0749 2.59203 24.0729 2.59043 24.0713 2.58867C24.0679 2.58501 24.0656 2.58203 24.0584 2.58562C24.053 2.58829 24.045 2.58524 24.0385 2.58875C24.0362 2.58997 24.0324 2.58554 24.0291 2.58409C24.0277 2.58348 24.0265 2.58188 24.0247 2.58272C24.0232 2.58341 24.0234 2.58501 24.0235 2.58631C24.0238 2.59264 24.0283 2.59707 24.0345 2.60035C24.0579 2.6128 24.0812 2.62524 24.1048 2.63746C24.1357 2.65341 24.1638 2.6715 24.1824 2.69754C24.2033 2.72685 24.209 2.75869 24.2081 2.79167C24.2071 2.82518 24.1971 2.85724 24.1841 2.88893C24.1822 2.89358 24.1805 2.89274 24.1772 2.88999C24.1705 2.8845 24.1708 2.87809 24.1728 2.87144C24.1736 2.8687 24.175 2.86595 24.1765 2.86335C24.1787 2.85961 24.1777 2.85686 24.1729 2.85534C24.1677 2.85373 24.167 2.8506 24.1675 2.84671C24.168 2.84228 24.168 2.83785 24.1683 2.83343C24.1687 2.82923 24.1693 2.82541 24.1613 2.82648C24.1582 2.82686 24.158 2.82472 24.158 2.82281C24.158 2.81625 24.1556 2.81029 24.1526 2.80426C24.1492 2.79754 24.1525 2.79022 24.1506 2.78327C24.1496 2.77922 24.1493 2.77502 24.1487 2.7709C24.1476 2.7709 24.147 2.77075 24.1465 2.7709C24.135 2.77533 24.135 2.77533 24.134 2.7651C24.1337 2.76205 24.1329 2.75892 24.1329 2.75586C24.1329 2.74953 24.1315 2.74502 24.1214 2.74754C24.1174 2.74853 24.1171 2.74586 24.1165 2.74365C24.1141 2.7354 24.1116 2.72708 24.1088 2.71761C24.1047 2.72235 24.1015 2.72601 24.0975 2.73075C24.0932 2.72021 24.0892 2.71074 24.085 2.70067C24.083 2.70204 24.0817 2.7028 24.0806 2.70372C24.0714 2.71082 24.0714 2.71082 24.0663 2.70113C24.0646 2.69784 24.0627 2.69464 24.0614 2.69128C24.0597 2.68677 24.0575 2.68372 24.0504 2.68318C24.044 2.68273 24.0417 2.67738 24.0394 2.67318C24.0374 2.66975 24.0356 2.66792 24.0302 2.66853C24.0222 2.66952 24.0165 2.66601 24.0121 2.66082C24.0096 2.65792 24.0068 2.65257 24.0021 2.65456C23.9971 2.65669 23.9993 2.66189 24.0011 2.66608C24.0056 2.67639 24.0151 2.6841 24.023 2.69265C24.039 2.7099 24.0571 2.72601 24.0706 2.74464C24.0987 2.78319 24.1027 2.82404 24.0878 2.8664C24.077 2.89702 24.0583 2.9245 24.0344 2.94992C24.0311 2.95351 24.0277 2.9574 24.021 2.95962C24.0214 2.95588 24.0214 2.95282 24.0222 2.94992C24.0234 2.94519 24.0255 2.94046 24.0156 2.94069C24.0127 2.94076 24.0132 2.93893 24.0137 2.93725C24.0151 2.93389 24.0163 2.93046 24.0175 2.9271C24.0185 2.92427 24.0198 2.92076 24.0176 2.9187C24.0105 2.91183 24.0146 2.90549 24.0178 2.89893C24.0202 2.89396 24.0222 2.88893 24.0247 2.88396C24.0267 2.87992 24.0252 2.87854 24.02 2.87954C24.0139 2.88068 24.0129 2.87915 24.0143 2.8745C24.0176 2.86366 24.0201 2.85259 24.023 2.84175C24.0177 2.84022 24.0135 2.84686 24.0102 2.84312C24.0081 2.84068 24.0102 2.83587 24.0105 2.83213C24.0108 2.82793 24.0111 2.82381 24.0116 2.81915C24.006 2.82022 24.0045 2.82472 23.9987 2.82709C23.9987 2.81373 23.9987 2.80136 23.9987 2.78838C23.9912 2.78976 23.9911 2.79441 23.9886 2.79762C23.9878 2.79869 23.9876 2.80045 23.9856 2.80052C23.9831 2.8006 23.9827 2.79869 23.9822 2.79732C23.9803 2.79258 23.9808 2.7877 23.9803 2.78281C23.9797 2.77594 23.9788 2.77533 23.9718 2.77869C23.9674 2.78075 23.9672 2.77899 23.9668 2.77647C23.966 2.77189 23.9652 2.76724 23.9646 2.76266C23.9641 2.75953 23.9631 2.75716 23.9584 2.7596C23.9534 2.7622 23.9517 2.75983 23.95 2.75655C23.9464 2.74899 23.94 2.74334 23.9301 2.74059C23.925 2.73922 23.9224 2.73937 23.9234 2.74479C23.9267 2.76388 23.9302 2.78289 23.9325 2.80205C23.9389 2.85556 23.9363 2.90855 23.915 2.96015C23.9046 2.98527 23.8899 3.00878 23.8716 3.03092C23.8651 3.03871 23.857 3.04535 23.8481 3.05138C23.8454 3.04985 23.8467 3.04795 23.8466 3.04634C23.8455 3.02069 23.8502 2.99489 23.8473 2.96947C23.8452 2.95061 23.8487 2.93351 23.8581 2.91664C23.8585 2.91587 23.8586 2.91503 23.859 2.91351C23.8492 2.9145 23.8469 2.92206 23.8389 2.9261C23.8383 2.91656 23.8376 2.90793 23.8371 2.89923C23.8368 2.89373 23.8367 2.88816 23.8364 2.88267C23.8359 2.87335 23.8343 2.86457 23.8268 2.85656C23.8169 2.84595 23.8187 2.83251 23.8158 2.82014C23.8154 2.81846 23.8167 2.8161 23.8144 2.81533C23.8116 2.81442 23.81 2.81678 23.8082 2.818C23.7977 2.82503 23.7972 2.83556 23.7933 2.84488C23.7832 2.86915 23.7849 2.89419 23.786 2.91916C23.7875 2.95359 23.7888 2.98809 23.7904 3.02252C23.7945 3.10696 23.797 3.19139 23.7976 3.2759C23.7978 3.30468 23.7983 3.33339 23.7997 3.36217C23.8006 3.38263 23.8066 3.4024 23.8179 3.42095C23.8287 3.43866 23.8295 3.45653 23.8197 3.47485C23.8075 3.4976 23.8111 3.51951 23.8271 3.54012C23.8387 3.55516 23.8517 3.56959 23.8641 3.58425C23.8682 3.58906 23.8721 3.59394 23.8744 3.59936C23.8798 3.61173 23.8739 3.62089 23.8579 3.62432C23.8404 3.62807 23.8224 3.6302 23.8042 3.63043C23.7529 3.63104 23.7015 3.63181 23.6501 3.63074C23.6325 3.63036 23.6152 3.62814 23.5984 3.62402C23.5818 3.61997 23.5764 3.61089 23.5831 3.59822C23.5899 3.58547 23.6004 3.57447 23.6103 3.56333C23.6281 3.54333 23.6412 3.52195 23.6419 3.49676C23.6422 3.48531 23.6397 3.47431 23.6333 3.46401C23.6252 3.45088 23.6256 3.4379 23.6347 3.4253C23.6507 3.40347 23.6533 3.37927 23.6545 3.35484C23.6579 3.28415 23.6596 3.21338 23.6613 3.14261C23.6628 3.08253 23.6671 3.02245 23.6698 2.96237C23.6714 2.92496 23.6693 2.88763 23.6679 2.85022C23.6679 2.83663 23.6576 2.82197 23.6452 2.8148Z" fill="black"/>
<path d="M24.8298 3.50268C24.8171 3.50528 24.8051 3.50536 24.7932 3.50627C24.7377 3.51032 24.682 3.51322 24.6267 3.51933C24.5549 3.52727 24.4834 3.53704 24.4132 3.55116C24.3504 3.56383 24.2897 3.58139 24.2304 3.602C24.1567 3.62758 24.085 3.65598 24.019 3.69262C23.9609 3.72484 23.9097 3.76331 23.8598 3.80294C23.8482 3.81217 23.8368 3.82156 23.8256 3.83118C23.8174 3.83828 23.8172 3.84011 23.8246 3.84775C23.8464 3.87012 23.8684 3.89241 23.8905 3.91462C23.9222 3.94638 23.9573 3.9757 23.9921 4.00532C23.9966 4.00921 24.0018 4.01257 24.0065 4.01631C24.0107 4.01959 24.0128 4.01852 24.0145 4.01455C24.0231 3.99562 24.0318 3.97677 24.0403 3.95783C24.0439 3.94989 24.0479 3.94218 24.0537 3.93508C24.0673 3.91829 24.0877 3.91394 24.1092 3.92424C24.1307 3.93455 24.1407 3.94997 24.1389 3.96989C24.1381 3.97883 24.1311 3.98509 24.118 3.9873C24.0872 3.99257 24.0732 4.00967 24.0671 4.03204C24.0615 4.05234 24.0671 4.07028 24.0859 4.08578C24.1036 4.10036 24.1218 4.11426 24.1434 4.12494C24.1623 4.13426 24.1668 4.13334 24.1766 4.11769C24.1824 4.10853 24.1883 4.09952 24.1983 4.09273C24.2234 4.07563 24.2621 4.07196 24.2922 4.10021C24.315 4.12166 24.3208 4.14708 24.3174 4.17426C24.3152 4.19167 24.3069 4.20739 24.2926 4.2206C24.2693 4.24213 24.2385 4.24679 24.2046 4.24404C24.169 4.24114 24.1394 4.22755 24.1105 4.21205C24.0777 4.19449 24.0444 4.17747 24.0112 4.16029C24.0012 4.1551 24.0009 4.15533 23.9923 4.16212C23.9721 4.178 23.954 4.19556 23.9316 4.20968C23.902 4.22839 23.8566 4.22671 23.8324 4.20571C23.8072 4.18388 23.8058 4.15075 23.8419 4.12754C23.848 4.12365 23.8549 4.12357 23.8616 4.12647C23.8733 4.13151 23.8846 4.13724 23.8965 4.14197C23.9122 4.14823 23.928 4.1451 23.9393 4.13449C23.9464 4.12785 23.9474 4.12067 23.9431 4.11288C23.9354 4.09906 23.9222 4.08845 23.9097 4.07746C23.8553 4.03005 23.8008 3.98264 23.7463 3.93531C23.7411 3.93073 23.7361 3.92386 23.7292 3.9234C23.7225 3.92302 23.7179 3.93035 23.7125 3.93447C23.665 3.97066 23.6215 4.00975 23.5784 4.04929C23.5621 4.06433 23.5458 4.0796 23.5294 4.09464C23.524 4.09968 23.5193 4.10517 23.5161 4.11136C23.5113 4.12036 23.5124 4.12876 23.5208 4.13601C23.5295 4.14365 23.5403 4.14685 23.5532 4.14357C23.5645 4.14075 23.5742 4.1354 23.5846 4.13128C23.589 4.12953 23.5936 4.12762 23.5982 4.12617C23.6059 4.12372 23.6132 4.12456 23.6193 4.12899C23.6374 4.14243 23.644 4.15937 23.6403 4.17838C23.6365 4.19823 23.6242 4.21404 23.5989 4.22037C23.5754 4.22625 23.5532 4.22045 23.5322 4.21174C23.5097 4.20243 23.4933 4.18762 23.4779 4.17205C23.4733 4.16731 23.4679 4.16304 23.4637 4.15823C23.4604 4.15457 23.4574 4.15502 23.4533 4.15686C23.4297 4.16701 23.4085 4.18006 23.3864 4.1919C23.3646 4.2035 23.3441 4.21648 23.3208 4.22633C23.2937 4.23778 23.2649 4.2435 23.234 4.24259C23.1927 4.24144 23.1617 4.22197 23.1473 4.18777C23.1324 4.15273 23.1453 4.11555 23.1808 4.09151C23.209 4.07235 23.2453 4.07525 23.2684 4.09845C23.2765 4.10662 23.2834 4.11548 23.2904 4.12426C23.297 4.13235 23.2989 4.13304 23.3091 4.12846C23.3401 4.11456 23.3661 4.09593 23.3879 4.07387C23.3952 4.06647 23.3967 4.05761 23.3935 4.04868C23.3891 4.03593 23.384 4.02326 23.3793 4.01058C23.3753 3.99967 23.3667 3.99264 23.3529 3.98944C23.3511 3.98898 23.3492 3.98837 23.3474 3.98791C23.3239 3.98203 23.3178 3.97402 23.3222 3.95463C23.3275 3.93088 23.3564 3.91577 23.3855 3.92134C23.3989 3.92394 23.4075 3.93058 23.4119 3.94066C23.4214 3.96211 23.4308 3.98364 23.4402 4.00516C23.4466 4.01967 23.4504 4.02051 23.4633 4.00906C23.5218 3.95768 23.5783 3.90493 23.6316 3.85004C23.6387 3.84271 23.6384 3.84095 23.6316 3.83301C23.6168 3.81561 23.5971 3.80171 23.5783 3.78729C23.5345 3.75347 23.4883 3.72194 23.4395 3.6927C23.3961 3.66659 23.3478 3.64743 23.2992 3.62865C23.244 3.60742 23.1878 3.58796 23.1299 3.57185C23.053 3.5504 22.9749 3.53276 22.894 3.52368C22.8462 3.51826 22.7982 3.51459 22.7503 3.51039C22.7231 3.50795 22.696 3.50505 22.6689 3.50238C22.6659 3.50207 22.6628 3.50177 22.6602 3.49887C22.6694 3.49574 22.679 3.49505 22.6884 3.49467C22.768 3.49139 22.8473 3.4836 22.9272 3.48444C23.021 3.48543 23.1137 3.49245 23.2049 3.51032C23.2666 3.52238 23.3256 3.54001 23.3828 3.56185C23.4396 3.58353 23.4956 3.60636 23.547 3.63567C23.591 3.66079 23.6322 3.68858 23.6713 3.7182C23.6873 3.73026 23.7033 3.74224 23.7183 3.75499C23.7245 3.76018 23.7284 3.75934 23.7339 3.7553C23.7524 3.74179 23.7712 3.72865 23.7894 3.71491C23.8665 3.65682 23.9521 3.60834 24.0475 3.57078C24.1068 3.54742 24.1685 3.52887 24.2321 3.51444C24.2994 3.49917 24.3681 3.4907 24.4379 3.48711C24.5045 3.4836 24.5711 3.48528 24.6377 3.48795C24.6731 3.4894 24.7085 3.49047 24.7438 3.49253C24.7692 3.49398 24.7943 3.49681 24.8195 3.4991C24.8228 3.49932 24.8262 3.49971 24.8298 3.50268ZM24.2111 4.19892C24.2145 4.19892 24.2178 4.19907 24.2211 4.19892C24.2493 4.19739 24.2655 4.18785 24.272 4.16892C24.2772 4.15373 24.2677 4.1322 24.2516 4.12311C24.2378 4.11525 24.2202 4.12059 24.213 4.13525C24.2082 4.14495 24.2054 4.1551 24.2047 4.16556C24.204 4.17594 24.1986 4.17915 24.1856 4.17808C24.1803 4.17762 24.1753 4.17609 24.1704 4.17472C24.1396 4.16617 24.1149 4.15075 24.0928 4.13212C24.0806 4.12189 24.067 4.11258 24.0543 4.10265C24.0498 4.09914 24.0474 4.0999 24.0446 4.10395C24.0377 4.11342 24.0384 4.12136 24.0477 4.12945C24.0627 4.14235 24.0786 4.15441 24.0964 4.16464C24.1307 4.18441 24.168 4.198 24.2111 4.19892ZM23.1892 4.15823C23.1892 4.18548 23.2043 4.19915 23.2375 4.19999C23.2704 4.20083 23.3017 4.19388 23.3303 4.1809C23.3617 4.16663 23.3873 4.1464 23.4143 4.12762C23.4216 4.1225 23.4227 4.11548 23.4194 4.10807C23.416 4.10052 23.4151 4.10006 23.4069 4.10433C23.4028 4.10647 23.3987 4.10891 23.395 4.11158C23.3719 4.12785 23.3487 4.14411 23.3257 4.1606C23.3118 4.17075 23.2959 4.1764 23.2768 4.17686C23.2615 4.17724 23.2567 4.17419 23.2547 4.16228C23.2533 4.15373 23.2511 4.14525 23.2497 4.1367C23.2481 4.12723 23.2417 4.1212 23.2299 4.11945C23.2174 4.11762 23.2071 4.12082 23.1999 4.12907C23.192 4.13808 23.1899 4.14853 23.1892 4.15823ZM23.8694 4.15289C23.8623 4.15281 23.8578 4.15571 23.8554 4.16075C23.8504 4.17105 23.8565 4.18274 23.869 4.18762C23.8917 4.19655 23.9134 4.19373 23.9324 4.18205C23.9571 4.16686 23.9765 4.14808 23.9891 4.12487C24.0115 4.08372 24.0346 4.04272 24.0576 4.00181C24.0637 3.99081 24.0728 3.98173 24.0877 3.97738C24.0927 3.97593 24.096 3.97295 24.0991 3.96989C24.1062 3.96318 24.1045 3.95516 24.0949 3.94837C24.0867 3.94256 24.0776 3.94279 24.0699 3.94944C24.0622 3.956 24.0574 3.96409 24.0534 3.97234C24.0364 4.00784 24.0194 4.04341 24.0027 4.07899C23.9898 4.10639 23.9721 4.13143 23.9475 4.15334C23.9375 4.16228 23.9251 4.16548 23.9107 4.16273C23.9045 4.16159 23.8986 4.1593 23.8926 4.15769C23.885 4.15563 23.8776 4.15304 23.8694 4.15289ZM23.5676 4.19144C23.5745 4.19167 23.5888 4.1877 23.5939 4.18411C23.6022 4.17831 23.6056 4.16548 23.6006 4.15846C23.5963 4.15258 23.5895 4.15189 23.5751 4.15556C23.5658 4.15792 23.5565 4.16044 23.5471 4.16228C23.5326 4.16518 23.52 4.1622 23.5098 4.15342C23.502 4.1467 23.4952 4.13945 23.4905 4.13113C23.4647 4.08563 23.4383 4.04028 23.4162 3.99341C23.4091 3.97822 23.4008 3.96356 23.3884 3.9505C23.3842 3.94608 23.3789 3.94356 23.3719 3.94478C23.3641 3.94608 23.359 3.94982 23.3573 3.95615C23.3548 3.96539 23.3591 3.97272 23.3706 3.97661C23.388 3.98249 23.3998 3.99257 23.4069 4.00623C23.4244 4.03944 23.4421 4.07265 23.459 4.10609C23.4723 4.1325 23.489 4.15686 23.5173 4.17525C23.5319 4.18495 23.5484 4.19067 23.5676 4.19144ZM23.983 4.05257C23.983 4.04746 23.9794 4.04272 23.9742 4.03845C23.9464 4.01524 23.9187 3.99188 23.8907 3.96883C23.8803 3.96028 23.8707 3.95096 23.8584 3.94394C23.8557 3.94234 23.8523 3.94142 23.8499 3.94302C23.8475 3.94463 23.851 3.94638 23.8519 3.94806C23.8527 3.94944 23.8539 3.95073 23.8549 3.95203C23.8884 3.98951 23.9219 4.027 23.9554 4.06456C23.9584 4.06784 23.9619 4.07067 23.9665 4.07242C23.9689 4.07334 23.9715 4.0741 23.9731 4.07181C23.9774 4.06593 23.9827 4.06059 23.983 4.05257ZM23.603 3.94356C23.6013 3.94256 23.6005 3.94333 23.5995 3.94363C23.5886 3.94707 23.5819 3.95424 23.5744 3.96073C23.5441 3.98692 23.5138 4.01318 23.4835 4.03937C23.4797 4.04272 23.4769 4.04647 23.4756 4.05089C23.4736 4.05815 23.4797 4.06715 23.4895 4.07005C23.4971 4.07235 23.498 4.06525 23.5024 4.06303C23.5026 4.06296 23.5028 4.06265 23.5029 4.0625C23.5351 4.03028 23.5643 3.99631 23.5912 3.96127C23.5958 3.95562 23.6004 3.94997 23.603 3.94356Z" fill="black"/>
<path d="M23.0949 8.11719V6.66264H23.4464V7.2777H23.4656L23.9464 6.66264H24.3605L23.8449 7.31179L24.3697 8.11719H23.9493L23.5871 7.54545L23.4464 7.72301V8.11719H23.0949ZM23.9231 9.09872C23.9184 9.04664 23.8973 9.00616 23.8599 8.97727C23.823 8.94792 23.7702 8.93324 23.7015 8.93324C23.656 8.93324 23.6182 8.93916 23.5879 8.95099C23.5576 8.96283 23.5348 8.97917 23.5197 9C23.5045 9.02036 23.4967 9.0438 23.4962 9.07031C23.4953 9.09209 23.4996 9.11127 23.509 9.12784C23.519 9.14441 23.5332 9.15909 23.5516 9.17188C23.5706 9.18419 23.5933 9.19508 23.6198 9.20455C23.6463 9.21402 23.6762 9.2223 23.7093 9.2294L23.8343 9.25781C23.9063 9.27344 23.9697 9.29427 24.0247 9.32031C24.0801 9.34635 24.1265 9.37737 24.1639 9.41335C24.2017 9.44934 24.2304 9.49077 24.2498 9.53764C24.2692 9.58452 24.2792 9.63707 24.2796 9.69531C24.2792 9.78717 24.256 9.866 24.21 9.93182C24.1641 9.99763 24.098 10.0481 24.0119 10.0831C23.9262 10.1181 23.8227 10.1357 23.7015 10.1357C23.5798 10.1357 23.4738 10.1174 23.3833 10.081C23.2929 10.0445 23.2226 9.98911 23.1724 9.91477C23.1222 9.84044 23.0964 9.74645 23.095 9.63281H23.4316C23.4345 9.67969 23.447 9.71875 23.4693 9.75C23.4915 9.78125 23.5221 9.80492 23.5609 9.82102C23.6002 9.83712 23.6456 9.84517 23.6972 9.84517C23.7446 9.84517 23.7848 9.83878 23.818 9.82599C23.8516 9.81321 23.8774 9.79545 23.8954 9.77273C23.9134 9.75 23.9226 9.72396 23.9231 9.6946C23.9226 9.66714 23.9141 9.6437 23.8975 9.62429C23.881 9.6044 23.8554 9.58736 23.8208 9.57315C23.7867 9.55848 23.7432 9.54498 23.6901 9.53267L23.5381 9.49716C23.4122 9.46828 23.313 9.42164 23.2406 9.35724C23.1681 9.29238 23.1321 9.20478 23.1326 9.09446C23.1321 9.0045 23.1563 8.92566 23.2051 8.85795C23.2538 8.79025 23.3213 8.73745 23.4075 8.69957C23.4936 8.6617 23.5919 8.64276 23.7022 8.64276C23.8149 8.64276 23.9127 8.66193 23.9955 8.70028C24.0789 8.73816 24.1435 8.79143 24.1894 8.86009C24.2354 8.92874 24.2588 9.00829 24.2597 9.09872H23.9231ZM23.3402 12.1172H22.9623L23.4531 10.6626H23.9211L24.4119 12.1172H24.0341L23.6924 11.0291H23.6811L23.3402 12.1172ZM23.2897 11.5447H24.0795V11.8118H23.2897V11.5447Z" fill="black"/>
<path d="M16.3649 2.29048L16.3933 1.97798L16.1341 2.15909L15.9921 1.91051L16.2762 1.77912L15.9921 1.64773L16.1341 1.39915L16.3933 1.58026L16.3649 1.26776H16.649L16.6206 1.58026L16.8799 1.39915L17.0219 1.64773L16.7378 1.77912L17.0219 1.91051L16.8799 2.15909L16.6206 1.97798L16.649 2.29048H16.3649ZM17.8859 2.29048L17.9143 1.97798L17.6551 2.15909L17.5131 1.91051L17.7972 1.77912L17.5131 1.64773L17.6551 1.39915L17.9143 1.58026L17.8859 1.26776H18.17L18.1416 1.58026L18.4008 1.39915L18.5429 1.64773L18.2588 1.77912L18.5429 1.91051L18.4008 2.15909L18.1416 1.97798L18.17 2.29048H17.8859ZM19.4069 2.29048L19.4353 1.97798L19.1761 2.15909L19.0341 1.91051L19.3182 1.77912L19.0341 1.64773L19.1761 1.39915L19.4353 1.58026L19.4069 1.26776H19.691L19.6626 1.58026L19.9218 1.39915L20.0639 1.64773L19.7798 1.77912L20.0639 1.91051L19.9218 2.15909L19.6626 1.97798L19.691 2.29048H19.4069ZM17.8859 5.29048L17.9143 4.97798L17.6551 5.15909L17.5131 4.91051L17.7972 4.77912L17.5131 4.64773L17.6551 4.39915L17.9143 4.58026L17.8859 4.26776H18.17L18.1416 4.58026L18.4008 4.39915L18.5429 4.64773L18.2588 4.77912L18.5429 4.91051L18.4008 5.15909L18.1416 4.97798L18.17 5.29048H17.8859ZM16.3649 8.29048L16.3933 7.97798L16.1341 8.15909L15.9921 7.91051L16.2762 7.77912L15.9921 7.64773L16.1341 7.39915L16.3933 7.58026L16.3649 7.26776H16.649L16.6206 7.58026L16.8799 7.39915L17.0219 7.64773L16.7378 7.77912L17.0219 7.91051L16.8799 8.15909L16.6206 7.97798L16.649 8.29048H16.3649ZM17.8859 8.29048L17.9143 7.97798L17.6551 8.15909L17.5131 7.91051L17.7972 7.77912L17.5131 7.64773L17.6551 7.39915L17.9143 7.58026L17.8859 7.26776H18.17L18.1416 7.58026L18.4008 7.39915L18.5429 7.64773L18.2588 7.77912L18.5429 7.91051L18.4008 8.15909L18.1416 7.97798L18.17 8.29048H17.8859ZM19.4069 8.29048L19.4353 7.97798L19.1761 8.15909L19.0341 7.91051L19.3182 7.77912L19.0341 7.64773L19.1761 7.39915L19.4353 7.58026L19.4069 7.26776H19.691L19.6626 7.58026L19.9218 7.39915L20.0639 7.64773L19.7798 7.77912L20.0639 7.91051L19.9218 8.15909L19.6626 7.97798L19.691 8.29048H19.4069ZM17.8859 11.2905L17.9143 10.978L17.6551 11.1591L17.5131 10.9105L17.7972 10.7791L17.5131 10.6477L17.6551 10.3991L17.9143 10.5803L17.8859 10.2678H18.17L18.1416 10.5803L18.4008 10.3991L18.5429 10.6477L18.2588 10.7791L18.5429 10.9105L18.4008 11.1591L18.1416 10.978L18.17 11.2905H17.8859Z" fill="black"/>
<path d="M3.19892 2.29048L3.22733 1.97798L2.9681 2.15909L2.82605 1.91051L3.11014 1.77912L2.82605 1.64773L2.9681 1.39915L3.22733 1.58026L3.19892 1.26776H3.48301L3.4546 1.58026L3.71384 1.39915L3.85588 1.64773L3.57179 1.77912L3.85588 1.91051L3.71384 2.15909L3.4546 1.97798L3.48301 2.29048H3.19892ZM4.71992 2.29048L4.74833 1.97798L4.48909 2.15909L4.34705 1.91051L4.63114 1.77912L4.34705 1.64773L4.48909 1.39915L4.74833 1.58026L4.71992 1.26776H5.00401L4.9756 1.58026L5.23483 1.39915L5.37688 1.64773L5.09279 1.77912L5.37688 1.91051L5.23483 2.15909L4.9756 1.97798L5.00401 2.29048H4.71992ZM6.24091 2.29048L6.26932 1.97798L6.01009 2.15909L5.86804 1.91051L6.15213 1.77912L5.86804 1.64773L6.01009 1.39915L6.26932 1.58026L6.24091 1.26776H6.525L6.49659 1.58026L6.75583 1.39915L6.89787 1.64773L6.61378 1.77912L6.89787 1.91051L6.75583 2.15909L6.49659 1.97798L6.525 2.29048H6.24091ZM4.71992 5.29048L4.74833 4.97798L4.48909 5.15909L4.34705 4.91051L4.63114 4.77912L4.34705 4.64773L4.48909 4.39915L4.74833 4.58026L4.71992 4.26776H5.00401L4.9756 4.58026L5.23483 4.39915L5.37688 4.64773L5.09279 4.77912L5.37688 4.91051L5.23483 5.15909L4.9756 4.97798L5.00401 5.29048H4.71992ZM3.19892 8.29048L3.22733 7.97798L2.9681 8.15909L2.82605 7.91051L3.11014 7.77912L2.82605 7.64773L2.9681 7.39915L3.22733 7.58026L3.19892 7.26776H3.48301L3.4546 7.58026L3.71384 7.39915L3.85588 7.64773L3.57179 7.77912L3.85588 7.91051L3.71384 8.15909L3.4546 7.97798L3.48301 8.29048H3.19892ZM4.71992 8.29048L4.74833 7.97798L4.48909 8.15909L4.34705 7.91051L4.63114 7.77912L4.34705 7.64773L4.48909 7.39915L4.74833 7.58026L4.71992 7.26776H5.00401L4.9756 7.58026L5.23483 7.39915L5.37688 7.64773L5.09279 7.77912L5.37688 7.91051L5.23483 8.15909L4.9756 7.97798L5.00401 8.29048H4.71992ZM6.24091 8.29048L6.26932 7.97798L6.01009 8.15909L5.86804 7.91051L6.15213 7.77912L5.86804 7.64773L6.01009 7.39915L6.26932 7.58026L6.24091 7.26776H6.525L6.49659 7.58026L6.75583 7.39915L6.89787 7.64773L6.61378 7.77912L6.89787 7.91051L6.75583 8.15909L6.49659 7.97798L6.525 8.29048H6.24091ZM4.71992 11.2905L4.74833 10.978L4.48909 11.1591L4.34705 10.9105L4.63114 10.7791L4.34705 10.6477L4.48909 10.3991L4.74833 10.5803L4.71992 10.2678H5.00401L4.9756 10.5803L5.23483 10.3991L5.37688 10.6477L5.09279 10.7791L5.37688 10.9105L5.23483 11.1591L4.9756 10.978L5.00401 11.2905H4.71992Z" fill="black"/>
</g>
<rect x="0.75" y="0.75" width="25.5" height="11.5" rx="1.25" stroke="black" stroke-width="1.5"/>
<defs>
<clipPath id="clip0_29357_45260">
<rect width="27" height="13" rx="2" fill="white"/>
</clipPath>
</defs>
</svg>
