<svg width="28" height="20" viewBox="0 0 28 20" fill="none" xmlns="http://www.w3.org/2000/svg">
<g clip-path="url(#clip0_29357_45260)">
<rect width="28" height="20" rx="2" fill="white"/>
<path d="M22.4062 20.0195L22.4063 0.990375" stroke="black"/>
<path d="M11.6788 7.18587C11.6759 7.19611 11.6729 7.20567 11.671 7.21569C11.6693 7.22414 11.6657 7.23037 11.6583 7.2277C11.6288 7.21747 11.6322 7.24016 11.6351 7.26019C11.6428 7.31693 11.6339 7.37167 11.6226 7.42663C11.6201 7.43864 11.6167 7.44688 11.6054 7.44509C11.5868 7.4422 11.5872 7.45333 11.5906 7.46913C11.5955 7.4916 11.6001 7.5143 11.6033 7.53721C11.6058 7.55546 11.6046 7.57326 11.5895 7.5855C11.5806 7.59284 11.5795 7.60441 11.5787 7.61643C11.5776 7.63579 11.5836 7.65381 11.5853 7.67717C11.5626 7.66338 11.5556 7.63912 11.5447 7.61887C11.5401 7.61042 11.5373 7.59462 11.5275 7.59907C11.5178 7.60352 11.5235 7.61754 11.5259 7.62733C11.539 7.68006 11.5519 7.73302 11.5653 7.78576C11.5713 7.80912 11.5711 7.83004 11.5513 7.84405C11.5377 7.85362 11.5428 7.86764 11.5445 7.88099C11.5606 8.00359 11.5768 8.12597 11.5734 8.25058C11.573 8.26593 11.5795 8.28907 11.5676 8.29486C11.5515 8.30287 11.538 8.28396 11.5276 8.26971C11.4662 8.18561 11.4179 8.09148 11.3816 7.98935C11.2984 7.75438 11.271 7.50918 11.2829 7.25596C11.2886 7.13625 11.3117 7.01899 11.3188 6.89972C11.3205 6.87013 11.3236 6.84076 11.3213 6.81094C11.3205 6.80071 11.3204 6.78758 11.3096 6.78558C11.3005 6.78402 11.2926 6.79114 11.2867 6.79982C11.2765 6.81495 11.277 6.83342 11.274 6.851C11.271 6.86835 11.2704 6.8926 11.2475 6.86835C11.2421 6.86257 11.2356 6.86168 11.2307 6.86813C11.2163 6.88637 11.2004 6.88281 11.1806 6.86902C11.1806 6.91285 11.1808 6.95135 11.1804 6.98984C11.1804 6.99674 11.1836 7.00697 11.1759 7.00942C11.1658 7.01254 11.166 7.0003 11.1634 6.99318C11.1617 6.98828 11.1613 6.98272 11.1596 6.97783C11.1564 6.96848 11.1583 6.95135 11.1482 6.95224C11.1356 6.95335 11.1354 6.97093 11.135 6.98272C11.1342 7.01565 11.1384 7.04814 11.1441 7.0804C11.1465 7.09464 11.1473 7.10933 11.149 7.12579C11.125 7.12223 11.1182 7.10288 11.1116 7.08307C11.1055 7.06505 11.1046 7.04324 11.0851 7.03301C11.0728 7.0735 11.0811 7.114 11.0779 7.15339C11.0769 7.16607 11.083 7.18721 11.0707 7.18988C11.0561 7.19277 11.0548 7.17119 11.0501 7.15784C11.0452 7.14382 11.0448 7.11912 11.0297 7.12201C11.0172 7.12446 11.02 7.14827 11.0196 7.1634C11.0189 7.19789 11.03 7.22971 11.0368 7.26264C11.0403 7.27888 11.0433 7.29535 11.0474 7.31671C11.037 7.31203 11.0298 7.30959 11.0232 7.30603C11.0002 7.29379 10.993 7.29802 10.9977 7.32739C11.0043 7.36877 11.0147 7.40949 11.0249 7.44999C11.0289 7.46601 11.0312 7.47669 11.0123 7.47669C10.9939 7.47669 10.9935 7.49271 10.9943 7.50807C10.9956 7.53388 11.0068 7.55657 11.0128 7.58083C11.0229 7.62065 11.027 7.65937 11.0085 7.69742C11.003 7.70877 11.0022 7.7219 11.0034 7.73458C11.0047 7.74971 11.0005 7.7595 10.9873 7.76195C10.9712 7.76506 10.9737 7.77797 10.9758 7.79087C10.9792 7.81224 10.9854 7.83315 10.9843 7.85562C10.9725 7.85696 10.9689 7.84739 10.9655 7.83938C10.9132 7.71767 10.854 7.59996 10.8088 7.47402C10.7278 7.24884 10.7509 7.03368 10.8551 6.82674C10.8863 6.76466 10.9224 6.70659 10.9584 6.64851C10.9845 6.60623 11.0085 6.56307 11.0138 6.50944C11.0159 6.48764 11.017 6.46605 11.0075 6.44581C10.9969 6.44937 10.9947 6.45982 10.9909 6.46739C10.9812 6.48652 10.9712 6.49632 10.9538 6.47851C10.9408 6.46516 10.9357 6.47473 10.933 6.48986C10.9309 6.50121 10.9271 6.51234 10.9264 6.52391C10.9251 6.54616 10.916 6.55684 10.8971 6.55439C10.8835 6.55261 10.8784 6.56151 10.874 6.57486C10.8628 6.61046 10.8507 6.64562 10.8373 6.68612C10.828 6.66342 10.8205 6.64495 10.812 6.62404C10.7834 6.66409 10.7851 6.71727 10.7609 6.75977C10.7516 6.74619 10.7435 6.73418 10.7335 6.71949C10.7242 6.74842 10.7144 6.77445 10.7076 6.80138C10.7025 6.82185 10.6938 6.82696 10.6782 6.81873C10.6641 6.81117 10.6593 6.81851 10.6569 6.83431C10.6493 6.88281 10.6406 6.93088 10.6319 6.98139C10.6156 6.96937 10.6138 6.94734 10.5992 6.93555C10.5844 6.9578 10.5843 6.98383 10.5852 7.00809C10.5877 7.06616 10.565 7.11467 10.5459 7.16473C10.5442 7.16918 10.5398 7.17653 10.5377 7.17608C10.5065 7.16918 10.5128 7.19833 10.5114 7.21613C10.5056 7.2909 10.4948 7.36544 10.5046 7.44087C10.5075 7.46334 10.5033 7.4847 10.4927 7.50473C10.4827 7.52364 10.4751 7.5203 10.4702 7.50228C10.4611 7.46913 10.4528 7.43553 10.445 7.40193C10.4152 7.27065 10.3949 7.13714 10.3946 7.00097C10.394 6.78602 10.4589 6.60334 10.5931 6.45426C10.7244 6.30852 10.87 6.1917 11.0433 6.1265C11.0877 6.10982 11.1339 6.09891 11.1766 6.07644C11.183 6.0731 11.1933 6.0711 11.1925 6.06198C11.1917 6.05263 11.1823 6.04551 11.1743 6.04596C11.1216 6.04929 11.0665 6.03016 11.0172 6.07021C10.9932 6.08979 10.9669 6.09669 10.94 6.07132C10.9271 6.05908 10.8594 6.07644 10.8471 6.09224C10.8388 6.10292 10.8307 6.11404 10.8231 6.12428C10.8123 6.12094 10.8157 6.1116 10.8133 6.10559C10.8097 6.09647 10.8133 6.08156 10.8036 6.078C10.7921 6.07377 10.783 6.08512 10.7758 6.0938C10.7671 6.10425 10.7603 6.11694 10.7531 6.12917C10.7429 6.14631 10.732 6.15743 10.7132 6.14386C10.6966 6.13184 10.6887 6.14831 10.6807 6.16055C10.6716 6.17479 10.6631 6.1808 10.651 6.16455C10.6419 6.15209 10.6357 6.15454 10.6304 6.17012C10.6225 6.1937 10.6121 6.21595 10.6041 6.23954C10.5988 6.25512 10.5924 6.25979 10.5805 6.24911C10.5672 6.23731 10.5578 6.24199 10.55 6.25801C10.5428 6.27247 10.533 6.28515 10.5281 6.30162C10.5198 6.32921 10.5046 6.35102 10.4853 6.36948C10.4679 6.38617 10.4509 6.40353 10.4386 6.42622C10.436 6.43134 10.4309 6.43846 10.4271 6.43824C10.3947 6.43579 10.3961 6.46516 10.3913 6.48875C10.3866 6.51234 10.3817 6.53614 10.3775 6.55995C10.3736 6.58332 10.3692 6.60468 10.3461 6.61402C10.3321 6.61959 10.3327 6.63783 10.3329 6.65274C10.3335 6.67699 10.3287 6.70503 10.3079 6.70503C10.2849 6.70503 10.2845 6.67277 10.2854 6.65185C10.3002 6.3479 10.4057 6.10203 10.624 5.93047C10.7741 5.81254 10.9425 5.75669 11.1208 5.73645C11.1844 5.72933 11.2477 5.71998 11.31 5.70129C11.3313 5.69484 11.3506 5.68527 11.3637 5.65657C11.2787 5.64989 11.1976 5.61451 11.1138 5.64611C11.1034 5.65011 11.0921 5.65634 11.0824 5.649C11.0524 5.6263 11.0283 5.64277 11.0037 5.66235C10.9966 5.66814 10.9865 5.6806 10.979 5.66391C10.9689 5.64166 10.9561 5.64477 10.9413 5.65456C10.8889 5.6895 10.829 5.70396 10.7728 5.7182C10.6945 5.73778 10.6438 5.80476 10.5767 5.84103C10.5682 5.8457 10.5597 5.86172 10.5513 5.85215C10.5413 5.8408 10.5553 5.82945 10.5604 5.82033C10.6434 5.67414 10.7499 5.55577 10.8715 5.45453C11.0087 5.34038 11.1611 5.29944 11.3268 5.31768C11.4074 5.32658 11.4881 5.33637 11.5687 5.34438C11.5836 5.34594 11.6071 5.35395 11.6116 5.33459C11.615 5.32058 11.592 5.31034 11.5778 5.305C11.5388 5.29009 11.5085 5.25516 11.4698 5.24092C11.4312 5.22668 11.3934 5.21088 11.3578 5.18796C11.3315 5.17105 11.2956 5.18284 11.274 5.15036C11.2729 5.14858 11.2672 5.15013 11.264 5.15169C11.2027 5.18129 11.1371 5.18907 11.0732 5.20532C11.0554 5.20977 11.0403 5.22134 11.0204 5.23157C11.0232 5.19731 11.0395 5.17661 11.0575 5.15881C11.1193 5.09829 11.194 5.07048 11.2704 5.04978C11.4198 5.00973 11.5577 5.04489 11.6856 5.14168C11.7317 5.17661 11.7788 5.20954 11.8316 5.23001C11.8477 5.23624 11.8518 5.23446 11.852 5.21422C11.8531 5.13256 11.8601 5.05156 11.8694 4.97057C11.8719 4.94921 11.8779 4.93986 11.8959 4.94186C11.9163 4.94409 11.9226 4.93452 11.9243 4.9096C11.928 4.84975 11.9205 4.78856 11.9375 4.73004C11.94 4.72136 11.9383 4.70845 11.9483 4.70712C11.96 4.70578 11.9606 4.72025 11.9642 4.72915C11.9795 4.76675 11.9732 4.80836 11.9787 4.84774C11.9814 4.86643 11.9806 4.88579 11.9823 4.90471C11.9838 4.92273 11.9859 4.93964 12.0029 4.94921C12.0154 4.95633 12.0171 4.97279 12.0173 4.98792C12.0177 5.00706 12.0177 5.02597 12.0181 5.04511C12.0188 5.07181 12.0222 5.09651 12.0381 5.11876C12.0549 5.14257 12.0563 5.17305 12.0553 5.20331C12.0538 5.25494 12.0567 5.25894 12.0967 5.23847C12.152 5.21021 12.2047 5.1755 12.2558 5.1379C12.3608 5.06091 12.4733 5.02887 12.5962 5.05445C12.6753 5.07092 12.7468 5.10986 12.8158 5.15636C12.8364 5.17016 12.8518 5.19152 12.8614 5.21755C12.8695 5.23914 12.8637 5.2496 12.8436 5.24715C12.8349 5.24604 12.8264 5.24136 12.8179 5.23802C12.7583 5.21533 12.6959 5.19063 12.6358 5.21333C12.5894 5.2309 12.5452 5.24114 12.497 5.2427C12.4578 5.24403 12.4279 5.27941 12.3907 5.301C12.4332 5.33949 12.4796 5.34016 12.5261 5.33749C12.5836 5.33393 12.6409 5.32614 12.6984 5.32458C12.8268 5.32102 12.9414 5.36842 13.0392 5.46587C13.116 5.54242 13.1905 5.62252 13.2607 5.70774C13.2907 5.74446 13.314 5.78718 13.3331 5.83747C13.314 5.83346 13.3006 5.82167 13.2868 5.8121C13.2433 5.78206 13.1981 5.75892 13.1487 5.74245C13.1044 5.72777 13.0617 5.70262 13.0214 5.67459C13.0074 5.6648 12.9927 5.65679 12.9768 5.65256C12.9543 5.64677 12.9323 5.64366 12.9199 5.67459C12.9147 5.68727 12.9074 5.68683 12.8983 5.67859C12.8883 5.66947 12.8771 5.66235 12.8671 5.65367C12.8538 5.6421 12.8421 5.63342 12.8312 5.6579C12.8242 5.67348 12.8132 5.66346 12.8054 5.6579C12.7784 5.63854 12.7523 5.62185 12.7213 5.64989C12.715 5.65545 12.702 5.65145 12.6921 5.65078C12.6619 5.64878 12.6327 5.65211 12.6072 5.67414C12.6 5.68037 12.5927 5.68215 12.5843 5.67837C12.5819 5.67726 12.5792 5.67615 12.5766 5.6757C12.5616 5.6737 12.5301 5.69973 12.5327 5.71442C12.5357 5.73177 12.5524 5.73088 12.5633 5.73244C12.6161 5.73956 12.6691 5.74446 12.7218 5.75024C12.8285 5.76181 12.9354 5.77138 13.0388 5.80698C13.296 5.8951 13.4808 6.07822 13.5726 6.37928C13.6077 6.49498 13.6157 6.6158 13.6055 6.74352C13.5871 6.7235 13.5797 6.7008 13.5699 6.68055C13.5308 6.59956 13.4924 6.51834 13.4538 6.43691C13.442 6.41221 13.4296 6.38907 13.4023 6.38729C13.3921 6.38662 13.3923 6.37772 13.3908 6.36948C13.3776 6.29517 13.3331 6.25 13.2839 6.20861C13.2817 6.20683 13.2792 6.2055 13.2767 6.20416C13.2599 6.19548 13.2384 6.20238 13.2245 6.18235C13.2132 6.16611 13.2013 6.15054 13.1894 6.13429C13.1697 6.16767 13.1697 6.16767 13.1478 6.13652C13.1444 6.13162 13.1408 6.12673 13.1374 6.12183C13.1139 6.08823 13.1133 6.08779 13.0908 6.12406C13.0842 6.13452 13.08 6.13696 13.0729 6.1265C13.0672 6.11827 13.0611 6.11048 13.0558 6.10181C13.0451 6.08445 13.0375 6.06999 13.014 6.08712C12.9968 6.0998 12.9709 6.08534 12.9499 6.10225C12.9425 6.10826 12.9304 6.0869 12.9197 6.07978C12.9153 6.07689 12.9115 6.0691 12.9059 6.0731C12.9008 6.07666 12.9015 6.08423 12.9017 6.09024C12.9026 6.12072 12.9174 6.14164 12.9374 6.15743C13.0129 6.21707 13.0882 6.2767 13.1644 6.335C13.2641 6.41132 13.3549 6.49787 13.4146 6.6227C13.482 6.7631 13.5005 6.9153 13.4975 7.07306C13.4944 7.23349 13.4619 7.38702 13.4201 7.53855C13.4139 7.5608 13.4084 7.55679 13.3978 7.54389C13.376 7.51763 13.3768 7.48693 13.3836 7.45489C13.3864 7.44153 13.3908 7.42863 13.3957 7.41617C13.4029 7.39815 13.3995 7.38502 13.384 7.3779C13.3672 7.37011 13.3651 7.3552 13.3664 7.33673C13.3679 7.31559 13.3679 7.29446 13.3692 7.27332C13.3706 7.25329 13.3723 7.23482 13.3463 7.23994C13.3363 7.24194 13.3358 7.23149 13.3358 7.22259C13.3358 7.19121 13.328 7.16251 13.3182 7.13358C13.3074 7.10154 13.318 7.06661 13.3119 7.03323C13.3083 7.01387 13.3076 6.99362 13.3057 6.97404C13.3021 6.97404 13.3 6.97338 13.2985 6.97404C13.2616 6.99496 13.2616 6.99518 13.258 6.94645C13.2569 6.93177 13.2546 6.91686 13.2546 6.90217C13.2548 6.87191 13.2501 6.85033 13.2174 6.86212C13.2045 6.86679 13.2036 6.85411 13.2015 6.84343C13.1939 6.80382 13.1856 6.76422 13.1765 6.71905C13.1633 6.74174 13.1531 6.75932 13.14 6.78179C13.1258 6.73129 13.1131 6.68589 13.0997 6.63783C13.0933 6.64451 13.0891 6.64807 13.0855 6.65229C13.0558 6.68634 13.0558 6.68634 13.0396 6.63961C13.0341 6.62404 13.028 6.60846 13.0237 6.59244C13.018 6.57108 13.011 6.55639 12.9881 6.55372C12.9673 6.55127 12.9598 6.52613 12.9524 6.50588C12.9463 6.48964 12.9405 6.48052 12.9227 6.48363C12.8968 6.4883 12.8786 6.47139 12.8644 6.4467C12.8563 6.43268 12.8474 6.40731 12.8323 6.41688C12.816 6.42711 12.8234 6.45204 12.8293 6.47206C12.8436 6.52146 12.8743 6.5584 12.8996 6.59911C12.9512 6.68189 13.0097 6.75888 13.0536 6.8481C13.1442 7.03279 13.1568 7.22837 13.1088 7.43108C13.074 7.57771 13.0137 7.70921 12.9367 7.83093C12.9257 7.84828 12.9149 7.86675 12.8932 7.87721C12.8947 7.85918 12.8949 7.84472 12.8972 7.8307C12.9008 7.80823 12.9076 7.78531 12.8756 7.78642C12.8663 7.78665 12.8677 7.77797 12.8699 7.76996C12.8743 7.75394 12.8782 7.73769 12.882 7.72123C12.8852 7.70788 12.8894 7.69097 12.8822 7.68095C12.8591 7.64802 12.8726 7.61754 12.8828 7.58617C12.8903 7.56236 12.8972 7.53833 12.9051 7.51452C12.9115 7.49516 12.9066 7.48848 12.89 7.49338C12.8705 7.49894 12.8671 7.49138 12.8716 7.46913C12.8822 7.41706 12.8903 7.36432 12.8996 7.31226C12.8826 7.30491 12.8688 7.33673 12.8584 7.31871C12.8516 7.30692 12.8584 7.284 12.8593 7.2662C12.8605 7.24617 12.8616 7.22637 12.8629 7.20412C12.8448 7.20901 12.84 7.23082 12.8213 7.24239C12.8213 7.17853 12.8213 7.11912 12.8213 7.05726C12.7969 7.06394 12.7965 7.08619 12.7888 7.10132C12.7861 7.10644 12.7854 7.11489 12.7789 7.11511C12.771 7.11556 12.7693 7.10644 12.7676 7.09998C12.7617 7.07751 12.7633 7.05392 12.7617 7.03078C12.7597 6.99785 12.7566 6.99496 12.7339 7.0112C12.7199 7.02121 12.7192 7.01276 12.7179 7.00052C12.7156 6.97849 12.7129 6.95646 12.7109 6.93421C12.7093 6.91931 12.7063 6.90796 12.6912 6.91953C12.6751 6.93177 12.6694 6.92064 12.6643 6.90484C12.6524 6.86857 12.6322 6.84165 12.6 6.8283C12.5838 6.82162 12.5753 6.82251 12.5783 6.84833C12.5891 6.93955 12.6004 7.03078 12.6078 7.12246C12.6284 7.37856 12.6201 7.63223 12.5512 7.87921C12.5178 7.99937 12.4703 8.11196 12.4113 8.21787C12.3905 8.25525 12.3644 8.28707 12.3354 8.31555C12.3265 8.30843 12.3311 8.29909 12.3307 8.29152C12.3271 8.1687 12.3421 8.04543 12.333 7.92327C12.3262 7.83293 12.3377 7.75127 12.3678 7.6705C12.3691 7.66694 12.3693 7.66293 12.3708 7.65559C12.339 7.66048 12.3315 7.69653 12.3059 7.71567C12.3038 7.67005 12.3016 7.62867 12.2999 7.58706C12.2987 7.56058 12.2986 7.5341 12.2976 7.50762C12.2959 7.4629 12.2908 7.42106 12.2664 7.38257C12.2344 7.33184 12.2401 7.26731 12.2308 7.20835C12.2295 7.20056 12.2337 7.18921 12.2261 7.18543C12.2172 7.18098 12.2121 7.19232 12.2061 7.19811C12.1722 7.23171 12.1705 7.282 12.158 7.32672C12.1255 7.44287 12.1308 7.5628 12.1346 7.68251C12.1397 7.84739 12.1435 8.01249 12.1488 8.1776C12.1616 8.58167 12.1699 8.98597 12.1718 9.39049C12.1726 9.52823 12.1741 9.66574 12.1785 9.80347C12.1817 9.90138 12.2008 9.99594 12.2375 10.0849C12.2725 10.1697 12.2747 10.2554 12.2431 10.3428C12.2038 10.4516 12.2153 10.5567 12.267 10.6555C12.3046 10.7276 12.3466 10.7965 12.3865 10.8668C12.3995 10.8898 12.4122 10.9131 12.4198 10.9394C12.4372 10.9988 12.4179 11.0424 12.3665 11.0586C12.3097 11.0767 12.2518 11.0869 12.1932 11.088C12.0275 11.0909 11.8618 11.0947 11.6962 11.0894C11.6392 11.0876 11.5833 11.0769 11.529 11.0571C11.4756 11.0377 11.4582 10.9943 11.4798 10.9336C11.5015 10.8726 11.5354 10.8201 11.5676 10.7665C11.625 10.6706 11.6674 10.5682 11.6693 10.4476C11.6703 10.3927 11.6621 10.3402 11.6417 10.2908C11.6156 10.2278 11.6167 10.1659 11.6464 10.1056C11.6981 10.0011 11.7064 9.88513 11.7102 9.76831C11.7209 9.42988 11.7264 9.091 11.7321 8.75234C11.7368 8.46463 11.7506 8.17715 11.7593 7.88945C11.7646 7.71055 11.7578 7.53165 11.7531 7.35275C11.7518 7.29045 11.7185 7.22036 11.6788 7.18587Z" fill="#127043"/>
<path d="M15.5 10.4671C15.459 10.4798 15.4202 10.48 15.3818 10.4842C15.2025 10.5034 15.023 10.5174 14.8445 10.5465C14.6128 10.5844 14.3824 10.6313 14.1555 10.6992C13.9527 10.7597 13.7571 10.844 13.5655 10.9426C13.328 11.0652 13.0965 11.2009 12.8833 11.3763C12.6961 11.5302 12.5308 11.7145 12.3698 11.9043C12.3324 11.9486 12.2955 11.9935 12.2596 12.0393C12.2327 12.0734 12.2322 12.0823 12.2562 12.1186C12.3265 12.2258 12.3975 12.3324 12.469 12.4385C12.5713 12.5905 12.6846 12.7311 12.7967 12.8726C12.8115 12.8911 12.8281 12.9074 12.8434 12.9252C12.8569 12.941 12.8637 12.9358 12.8693 12.9169C12.8968 12.8264 12.925 12.7358 12.9528 12.6455C12.9645 12.6076 12.9773 12.5707 12.9961 12.5364C13.0398 12.4561 13.1056 12.4354 13.1748 12.4844C13.2442 12.5335 13.2766 12.6074 13.2709 12.7031C13.2684 12.7458 13.2455 12.7756 13.2035 12.7863C13.1043 12.8115 13.0592 12.8933 13.0394 13.0006C13.0214 13.0978 13.0394 13.1837 13.0999 13.2578C13.157 13.3275 13.2157 13.394 13.2856 13.4454C13.3465 13.4901 13.3609 13.4854 13.3929 13.4104C13.4114 13.3668 13.4305 13.3234 13.4627 13.291C13.5436 13.2091 13.6688 13.1915 13.7657 13.3268C13.8392 13.4296 13.8583 13.5513 13.8472 13.6812C13.84 13.7645 13.8135 13.8399 13.7674 13.9031C13.6923 14.0061 13.5926 14.0286 13.4833 14.0155C13.3683 14.0017 13.2726 13.9365 13.1793 13.8624C13.0734 13.7783 12.966 13.6968 12.8591 13.6147C12.827 13.59 12.826 13.5909 12.798 13.6234C12.7328 13.6993 12.6744 13.7836 12.6025 13.851C12.507 13.9407 12.3604 13.9325 12.2823 13.8321C12.201 13.7275 12.1964 13.5691 12.3131 13.4578C12.3326 13.4394 12.3551 13.4389 12.3767 13.4527C12.4145 13.477 12.451 13.5043 12.4896 13.527C12.5401 13.5569 12.5913 13.5422 12.6278 13.4912C12.6505 13.4596 12.6539 13.4249 12.6399 13.3878C12.615 13.3217 12.5726 13.2707 12.5321 13.2184C12.3566 12.9912 12.1809 12.7647 12.005 12.538C11.9882 12.5162 11.9721 12.483 11.9496 12.481C11.928 12.479 11.9131 12.5144 11.8959 12.5338C11.7425 12.7069 11.602 12.8942 11.4631 13.0834C11.4102 13.1555 11.358 13.2282 11.3052 13.3005C11.2874 13.3248 11.2725 13.351 11.2621 13.3806C11.2468 13.4236 11.2504 13.4639 11.2774 13.4988C11.3058 13.5355 11.3404 13.5506 11.3822 13.5351C11.4185 13.5217 11.4499 13.4961 11.4836 13.4761C11.4979 13.4674 11.5123 13.4587 11.5273 13.4516C11.552 13.4398 11.5757 13.4438 11.5952 13.4652C11.6538 13.5295 11.675 13.6105 11.6632 13.7017C11.651 13.7967 11.611 13.8726 11.5295 13.9029C11.4535 13.9311 11.382 13.9031 11.3141 13.8615C11.2413 13.8168 11.1885 13.7462 11.139 13.6715C11.124 13.649 11.1068 13.6285 11.0928 13.6051C11.0822 13.5873 11.0728 13.59 11.0592 13.5987C10.9831 13.6474 10.9148 13.7099 10.8432 13.7667C10.773 13.8221 10.7066 13.8844 10.6317 13.9313C10.5443 13.9861 10.4511 14.0135 10.3514 14.0092C10.2181 14.0037 10.118 13.9104 10.0715 13.7469C10.0237 13.5789 10.0653 13.4013 10.1795 13.2861C10.2705 13.1944 10.3875 13.2082 10.4621 13.3192C10.4884 13.3584 10.5105 13.4007 10.5332 13.4425C10.5544 13.4812 10.5604 13.4848 10.5935 13.4625C10.6934 13.396 10.7773 13.307 10.8481 13.2011C10.8717 13.1659 10.8763 13.1232 10.8662 13.0802C10.8519 13.0191 10.8354 12.9588 10.8205 12.8978C10.8076 12.8457 10.7798 12.8119 10.7354 12.7968C10.7293 12.7948 10.7236 12.7917 10.7176 12.7894C10.6419 12.7614 10.6221 12.7229 10.6361 12.6301C10.6533 12.5164 10.7465 12.4439 10.8405 12.4708C10.8836 12.4833 10.9113 12.5151 10.9256 12.5634C10.9563 12.6662 10.9863 12.7692 11.017 12.872C11.0376 12.9416 11.0497 12.9452 11.0917 12.8907C11.2804 12.6448 11.4628 12.3922 11.6345 12.1297C11.6574 12.0945 11.6566 12.0863 11.6347 12.048C11.5868 11.9646 11.5235 11.8983 11.463 11.8291C11.3215 11.6673 11.1724 11.5165 11.0151 11.376C10.8749 11.251 10.7191 11.1593 10.5621 11.0697C10.3841 10.968 10.2028 10.875 10.0161 10.7977C9.76795 10.6949 9.51583 10.6108 9.25483 10.567C9.10069 10.5412 8.94579 10.5236 8.79108 10.5034C8.70332 10.4918 8.61594 10.478 8.52837 10.4649C8.51854 10.4633 8.50851 10.462 8.5 10.4482C8.52969 10.4331 8.5609 10.4299 8.59097 10.4282C8.848 10.4126 9.10371 10.3752 9.36169 10.3792C9.66411 10.3839 9.96351 10.4177 10.2578 10.5029C10.4568 10.5605 10.6474 10.6451 10.8318 10.7495C11.0151 10.8534 11.1957 10.9624 11.3614 11.1028C11.5034 11.223 11.6362 11.356 11.7627 11.4978C11.8142 11.5554 11.8658 11.613 11.9144 11.6738C11.9343 11.6987 11.9471 11.6945 11.9647 11.6753C12.0243 11.6108 12.085 11.5476 12.1436 11.482C12.3925 11.2036 12.6691 10.9717 12.977 10.792C13.1684 10.68 13.3671 10.5913 13.5724 10.5223C13.7895 10.4491 14.0111 10.4088 14.2364 10.3912C14.4514 10.3745 14.6663 10.3823 14.8812 10.3952C14.9952 10.4021 15.1094 10.4072 15.2235 10.417C15.305 10.4242 15.3863 10.4375 15.4677 10.4484C15.4775 10.4509 15.4885 10.4529 15.5 10.4671ZM13.5039 13.8001C13.5147 13.8001 13.5255 13.8007 13.5362 13.7998C13.6274 13.7923 13.6794 13.7467 13.7004 13.6561C13.7172 13.5836 13.6864 13.4803 13.6346 13.4369C13.5898 13.3993 13.5332 13.4249 13.5099 13.495C13.4944 13.5415 13.4855 13.5898 13.4831 13.6403C13.4808 13.6901 13.4632 13.7055 13.4214 13.7002C13.4042 13.6979 13.3883 13.6906 13.3723 13.6839C13.2728 13.643 13.1933 13.5691 13.1218 13.4801C13.0823 13.4309 13.0386 13.3864 12.9976 13.339C12.983 13.3223 12.9755 13.3259 12.9662 13.3453C12.9442 13.3904 12.9465 13.4285 12.9766 13.4672C13.0246 13.5288 13.0761 13.5865 13.1338 13.6359C13.2442 13.7306 13.3647 13.7954 13.5039 13.8001ZM10.2064 13.6051C10.2064 13.7355 10.255 13.801 10.3622 13.8052C10.4685 13.8094 10.5693 13.7758 10.6616 13.7137C10.763 13.6454 10.8458 13.5484 10.9328 13.4585C10.9565 13.434 10.9601 13.4004 10.9493 13.3651C10.9383 13.329 10.9353 13.3268 10.9088 13.347C10.8954 13.3575 10.8823 13.3691 10.8702 13.3817C10.7955 13.4596 10.7208 13.5373 10.647 13.6165C10.6018 13.665 10.5506 13.6921 10.4891 13.6944C10.4397 13.6962 10.424 13.6815 10.4176 13.6247C10.4129 13.5838 10.4063 13.5433 10.4015 13.5023C10.3964 13.457 10.3758 13.4283 10.3376 13.4198C10.2975 13.4109 10.2642 13.4265 10.241 13.4659C10.2154 13.5088 10.2084 13.5589 10.2064 13.6051ZM12.4009 13.5793C12.3782 13.5791 12.3638 13.5929 12.3559 13.6169C12.3396 13.6661 12.3594 13.7222 12.3997 13.7455C12.4731 13.7883 12.5433 13.7749 12.6046 13.7191C12.6842 13.6465 12.747 13.5562 12.7876 13.4454C12.8601 13.2482 12.9344 13.0522 13.0086 12.8562C13.0284 12.8034 13.0575 12.7598 13.1058 12.7394C13.1218 12.7325 13.1326 12.7184 13.1428 12.7038C13.1653 12.6715 13.16 12.6332 13.1292 12.6005C13.1029 12.5725 13.0732 12.5738 13.0485 12.6054C13.0237 12.637 13.0082 12.6755 12.9953 12.7151C12.9403 12.8851 12.8856 13.0551 12.8317 13.2258C12.7903 13.357 12.7328 13.4768 12.6535 13.5818C12.6212 13.6247 12.5813 13.6399 12.5344 13.627C12.5143 13.6214 12.4954 13.6107 12.476 13.6027C12.4517 13.5927 12.4275 13.5802 12.4009 13.5793ZM11.427 13.7642C11.4493 13.7654 11.4957 13.7462 11.5121 13.7291C11.539 13.7015 11.5496 13.6399 11.5335 13.6065C11.5199 13.5784 11.4978 13.5749 11.4512 13.5927C11.4213 13.604 11.3915 13.6158 11.361 13.6249C11.3143 13.6387 11.2738 13.6245 11.2409 13.5827C11.2158 13.5506 11.1936 13.5159 11.1785 13.4759C11.0951 13.2578 11.0102 13.0409 10.9391 12.8168C10.916 12.7443 10.8893 12.6739 10.8494 12.6114C10.8358 12.5901 10.8188 12.5783 10.7961 12.584C10.7713 12.5905 10.7547 12.6081 10.7492 12.6386C10.7412 12.6828 10.7548 12.7178 10.7919 12.7365C10.8483 12.7647 10.8859 12.813 10.909 12.8782C10.9655 13.0373 11.0228 13.196 11.0771 13.3562C11.1201 13.4828 11.1742 13.5989 11.2653 13.6875C11.3122 13.7331 11.3654 13.7605 11.427 13.7642ZM12.768 13.0994C12.7678 13.0751 12.7561 13.0522 12.7394 13.0317C12.6496 12.9207 12.5603 12.809 12.4701 12.6984C12.4366 12.6573 12.4054 12.613 12.3657 12.5794C12.3568 12.5718 12.346 12.5671 12.3385 12.5749C12.3309 12.5827 12.342 12.5909 12.3449 12.599C12.3473 12.6056 12.3509 12.6119 12.3547 12.6179C12.4627 12.7974 12.5709 12.9768 12.6791 13.1563C12.6885 13.1721 12.6997 13.1855 12.7148 13.1939C12.7226 13.1982 12.7311 13.202 12.7362 13.1911C12.7494 13.1635 12.7665 13.1379 12.768 13.0994ZM11.5413 12.5776C11.536 12.5729 11.5333 12.5765 11.5301 12.578C11.4951 12.5945 11.4734 12.6288 11.4491 12.6599C11.3514 12.7854 11.2538 12.9109 11.156 13.0364C11.1435 13.0524 11.1344 13.0705 11.1305 13.0916C11.1238 13.1265 11.1435 13.1695 11.1753 13.1835C11.1999 13.1944 11.2025 13.1606 11.2169 13.1499C11.2177 13.1494 11.218 13.1483 11.2186 13.1474C11.3228 12.9932 11.4166 12.8308 11.5038 12.6628C11.5182 12.6354 11.5331 12.6081 11.5413 12.5776Z" fill="#A67C1D"/>
<path d="M24.923 4.32805C24.9221 4.33134 24.9211 4.3344 24.9205 4.33769C24.9199 4.34039 24.9188 4.34238 24.9164 4.34156C24.9069 4.33827 24.908 4.34555 24.9089 4.35201C24.9114 4.37022 24.9085 4.38784 24.9049 4.40545C24.9041 4.40933 24.903 4.41203 24.8993 4.41144C24.8933 4.4105 24.8935 4.41414 24.8946 4.41919C24.8962 4.42648 24.8977 4.43376 24.8987 4.44104C24.8995 4.44691 24.8991 4.45255 24.8943 4.45654C24.8914 4.45889 24.8911 4.46265 24.8909 4.46653C24.8905 4.47275 24.8925 4.47851 24.893 4.48602C24.8857 4.48156 24.8834 4.47381 24.8799 4.46723C24.8784 4.46453 24.8775 4.45948 24.8745 4.46089C24.8714 4.4623 24.8732 4.46676 24.874 4.46993C24.8781 4.48696 24.8822 4.50388 24.8866 4.52079C24.8885 4.5283 24.8885 4.535 24.8821 4.53958C24.8777 4.54263 24.8794 4.5471 24.8799 4.55144C24.8851 4.59079 24.8903 4.63013 24.8892 4.67018C24.8891 4.67512 24.8911 4.68251 24.8873 4.68439C24.8821 4.68698 24.8778 4.68087 24.8745 4.67629C24.8547 4.64928 24.8392 4.61898 24.8275 4.58621C24.8008 4.51069 24.792 4.43188 24.7958 4.35049C24.7976 4.31196 24.805 4.27438 24.8074 4.23597C24.808 4.22646 24.8089 4.21695 24.8082 4.20743C24.8079 4.20415 24.8079 4.19992 24.8044 4.19933C24.8015 4.19874 24.7989 4.20109 24.797 4.20391C24.7937 4.20873 24.7939 4.21472 24.7929 4.22035C24.7919 4.22599 24.7918 4.23374 24.7844 4.22599C24.7826 4.22411 24.7806 4.22388 24.779 4.22587C24.7744 4.23175 24.7693 4.23057 24.7628 4.22611C24.7628 4.2402 24.7628 4.25253 24.7628 4.26498C24.7628 4.26722 24.7638 4.2705 24.7613 4.27121C24.7581 4.27215 24.7582 4.26827 24.7574 4.26592C24.7568 4.2644 24.7567 4.26264 24.7562 4.26099C24.7552 4.25806 24.7558 4.25253 24.7526 4.25277C24.7485 4.25312 24.7484 4.25876 24.7484 4.26264C24.7482 4.27321 24.7495 4.28366 24.7513 4.29399C24.7521 4.29857 24.7523 4.30327 24.7529 4.30856C24.7452 4.30738 24.743 4.30128 24.7408 4.29482C24.7389 4.28906 24.7386 4.28201 24.7323 4.27873C24.7283 4.29176 24.731 4.30468 24.73 4.31737C24.7297 4.32148 24.7317 4.32829 24.7277 4.32911C24.723 4.33005 24.7226 4.32312 24.7211 4.31878C24.7195 4.31431 24.7194 4.30633 24.7145 4.30727C24.7105 4.30797 24.7114 4.31572 24.7113 4.32054C24.711 4.3317 24.7146 4.34191 24.7168 4.35237C24.7179 4.35753 24.7189 4.36282 24.7202 4.36975C24.7168 4.36822 24.7146 4.3674 24.7124 4.36634C24.7049 4.36247 24.7026 4.36376 24.7042 4.37315C24.7063 4.38643 24.7097 4.39958 24.7129 4.41262C24.7142 4.41779 24.7149 4.42119 24.7088 4.42119C24.7029 4.42119 24.7028 4.42636 24.703 4.43129C24.7035 4.43963 24.707 4.44691 24.709 4.45466C24.7122 4.46747 24.7136 4.47992 24.7076 4.49213C24.7059 4.49577 24.7056 4.5 24.7059 4.50411C24.7063 4.50893 24.705 4.5121 24.7007 4.51292C24.6956 4.51398 24.6964 4.51809 24.6971 4.5222C24.6982 4.52913 24.7001 4.53582 24.6997 4.54299C24.696 4.54346 24.6949 4.54028 24.6937 4.5377C24.6769 4.49859 24.6578 4.46077 24.6432 4.42025C24.6172 4.3479 24.6246 4.27873 24.6581 4.21225C24.6682 4.19228 24.6798 4.17361 24.6913 4.15493C24.6996 4.14131 24.7073 4.12745 24.709 4.11019C24.7097 4.10314 24.71 4.09621 24.707 4.08975C24.7036 4.09093 24.7029 4.09421 24.7016 4.09668C24.6986 4.10279 24.6954 4.10596 24.6897 4.1002C24.6855 4.09586 24.6838 4.09891 24.683 4.10385C24.6824 4.10749 24.6811 4.11113 24.6809 4.11477C24.6805 4.12193 24.6775 4.12534 24.6715 4.12452C24.6671 4.12393 24.6654 4.12675 24.6641 4.13109C24.6605 4.14249 24.6566 4.15388 24.6523 4.16691C24.6493 4.15963 24.6469 4.15364 24.6441 4.14695C24.635 4.15987 24.6356 4.1769 24.6278 4.19052C24.6248 4.18618 24.6222 4.1823 24.619 4.1776C24.616 4.18688 24.6128 4.19522 24.6107 4.20391C24.6091 4.21049 24.6063 4.21213 24.6013 4.20955C24.5967 4.20708 24.5952 4.20943 24.5944 4.2146C24.5919 4.2301 24.5891 4.24561 24.5864 4.26181C24.5812 4.25794 24.5806 4.25089 24.576 4.24701C24.5712 4.25418 24.5712 4.26252 24.5715 4.27039C24.5723 4.28906 24.565 4.30457 24.5589 4.32066C24.5584 4.32206 24.557 4.32441 24.5563 4.3243C24.5462 4.32206 24.5483 4.33146 24.5478 4.3371C24.5459 4.36106 24.5425 4.38502 24.5456 4.40933C24.5465 4.41649 24.5452 4.42342 24.5418 4.42988C24.5386 4.43599 24.5361 4.43482 24.5345 4.42906C24.5316 4.41837 24.5289 4.40757 24.5264 4.39676C24.5169 4.3546 24.5104 4.31161 24.5102 4.26792C24.51 4.19886 24.5308 4.14014 24.574 4.09222C24.6162 4.04536 24.6629 4.00777 24.7186 3.98687C24.7329 3.98146 24.7477 3.97806 24.7615 3.97078C24.7636 3.96972 24.7669 3.96901 24.7666 3.96619C24.7663 3.96326 24.7633 3.96091 24.7607 3.96103C24.7438 3.96208 24.7261 3.95598 24.7102 3.96878C24.7024 3.975 24.6941 3.97723 24.6854 3.96913C24.6813 3.96526 24.6595 3.97078 24.6555 3.97583C24.6528 3.97923 24.6502 3.98287 24.6478 3.98616C24.6444 3.9851 24.6454 3.98205 24.6446 3.98017C24.6434 3.97724 24.6446 3.97242 24.6415 3.97136C24.6379 3.96995 24.635 3.97359 24.6326 3.97641C24.6298 3.9797 24.6276 3.98381 24.6253 3.98781C24.622 3.99333 24.6185 3.99685 24.6124 3.9925C24.6071 3.98863 24.6045 3.99391 24.6019 3.99791C24.599 4.00249 24.5962 4.00448 24.5924 3.9992C24.5895 3.9952 24.5875 3.99603 24.5858 4.00096C24.5832 4.00848 24.58 4.01576 24.5774 4.02328C24.5757 4.02833 24.5736 4.02973 24.5698 4.02633C24.5655 4.02257 24.5625 4.0241 24.56 4.02915C24.5577 4.03385 24.5545 4.03784 24.5529 4.04312C24.5502 4.05193 24.5454 4.05898 24.5391 4.06497C24.5335 4.07025 24.528 4.07589 24.524 4.08317C24.5231 4.08482 24.5215 4.08705 24.5204 4.08705C24.51 4.08623 24.5104 4.09574 24.5089 4.10326C24.5074 4.11089 24.5058 4.11841 24.5044 4.12616C24.5031 4.13368 24.5017 4.14049 24.4943 4.14354C24.4898 4.1453 24.49 4.15118 24.49 4.15599C24.4902 4.16374 24.4886 4.17279 24.4819 4.17279C24.4745 4.17279 24.4743 4.16233 24.4747 4.15576C24.4794 4.05804 24.5134 3.979 24.5835 3.92391C24.6319 3.88598 24.686 3.86813 24.7432 3.86155C24.7636 3.8592 24.784 3.85626 24.804 3.85027C24.8109 3.84828 24.8171 3.84511 24.8212 3.83594C24.7939 3.83383 24.7678 3.82244 24.7409 3.83254C24.7376 3.83383 24.7339 3.83583 24.7308 3.83348C24.7211 3.8262 24.7134 3.83148 24.7055 3.83782C24.7032 3.8397 24.7 3.8437 24.6976 3.83841C24.6944 3.83125 24.6902 3.83219 24.6855 3.83536C24.6687 3.84663 24.6494 3.85121 24.6313 3.85579C24.6061 3.86214 24.5897 3.88363 24.5683 3.89526C24.5656 3.89667 24.5628 3.90195 24.5601 3.8989C24.5569 3.89526 24.5614 3.89162 24.563 3.88868C24.5896 3.8417 24.6239 3.80365 24.663 3.77111C24.7071 3.73447 24.7561 3.72131 24.8093 3.72719C24.8352 3.73001 24.8611 3.73318 24.887 3.73576C24.8918 3.73623 24.8993 3.73881 24.9008 3.73271C24.9019 3.72824 24.8945 3.72496 24.8899 3.72319C24.8774 3.71838 24.8677 3.70722 24.8552 3.70264C24.8428 3.69806 24.8306 3.69301 24.8191 3.68561C24.8107 3.68009 24.7992 3.68397 24.7922 3.67351C24.7918 3.67293 24.79 3.6734 24.789 3.67387C24.7693 3.68338 24.7483 3.68585 24.7277 3.69113C24.722 3.69254 24.7171 3.6963 24.7107 3.69959C24.7116 3.68855 24.7168 3.68185 24.7226 3.67621C24.7425 3.65672 24.7664 3.64779 24.7911 3.64121C24.8391 3.6283 24.8834 3.63969 24.9245 3.67081C24.9393 3.68209 24.9544 3.69266 24.9714 3.69923C24.9766 3.70123 24.9779 3.70064 24.978 3.69418C24.9784 3.66799 24.9806 3.64192 24.9836 3.61596C24.9844 3.60915 24.9864 3.6061 24.9921 3.60668C24.9986 3.60739 25.0006 3.60434 25.0011 3.59635C25.0023 3.57709 24.9999 3.55747 25.0054 3.53868C25.0062 3.53586 25.0057 3.53175 25.0089 3.53128C25.0127 3.53081 25.0128 3.53551 25.014 3.53833C25.0189 3.55043 25.0169 3.56382 25.0187 3.5765C25.0195 3.58249 25.0193 3.58871 25.0198 3.59482C25.0203 3.60058 25.021 3.6061 25.0264 3.60915C25.0304 3.61138 25.0309 3.61667 25.031 3.6216C25.0311 3.62771 25.0311 3.63382 25.0313 3.64004C25.0315 3.64861 25.0327 3.6566 25.0377 3.66376C25.0431 3.6714 25.0435 3.68126 25.0432 3.69101C25.0427 3.70757 25.0436 3.70887 25.0564 3.70229C25.0742 3.69324 25.0911 3.68197 25.1076 3.66999C25.1413 3.64521 25.1774 3.63499 25.217 3.64321C25.2423 3.6485 25.2654 3.66106 25.2876 3.67598C25.2941 3.68044 25.2991 3.68725 25.3022 3.69559C25.3048 3.70252 25.3029 3.70593 25.2965 3.70511C25.2937 3.70475 25.291 3.70323 25.2883 3.70217C25.2691 3.69489 25.249 3.6869 25.2297 3.6943C25.2148 3.69994 25.2006 3.70323 25.185 3.7037C25.1725 3.70405 25.1629 3.71556 25.1509 3.72249C25.1646 3.73494 25.1794 3.73506 25.1944 3.73423C25.2129 3.73306 25.2314 3.73059 25.2498 3.73012C25.2911 3.72895 25.328 3.74422 25.3593 3.77546C25.384 3.80012 25.408 3.82573 25.4305 3.85321C25.4402 3.86495 25.4477 3.8787 25.4538 3.8949C25.4476 3.89361 25.4433 3.88985 25.4389 3.8868C25.4249 3.87717 25.4103 3.86977 25.3946 3.86448C25.3803 3.85979 25.3666 3.85168 25.3536 3.84264C25.3492 3.83947 25.3445 3.83688 25.3393 3.83559C25.3321 3.83371 25.325 3.83266 25.321 3.84264C25.3193 3.84675 25.317 3.84651 25.3141 3.84393C25.3109 3.84099 25.3073 3.83876 25.304 3.83594C25.2997 3.83219 25.296 3.82948 25.2924 3.83724C25.2903 3.84217 25.2867 3.839 25.2842 3.83724C25.2755 3.83101 25.2671 3.82561 25.2571 3.83465C25.2551 3.83641 25.2509 3.83512 25.2477 3.835C25.2379 3.83442 25.2287 3.83547 25.2205 3.84252C25.2182 3.84452 25.2158 3.84511 25.2132 3.84393C25.2124 3.84358 25.2115 3.84323 25.2107 3.84311C25.2059 3.84252 25.1957 3.85086 25.1966 3.85556C25.1976 3.8612 25.2029 3.86084 25.2065 3.86131C25.2235 3.86354 25.2404 3.86519 25.2574 3.86707C25.2916 3.87083 25.3261 3.87388 25.3593 3.88527C25.442 3.91358 25.5014 3.97242 25.5308 4.0692C25.5421 4.10643 25.5447 4.14519 25.5414 4.18629C25.5355 4.17983 25.5331 4.17255 25.53 4.16609C25.5175 4.14014 25.5051 4.11395 25.4927 4.08775C25.4889 4.07977 25.4849 4.07237 25.4761 4.07178C25.4728 4.07155 25.4729 4.06873 25.4724 4.06603C25.4683 4.04218 25.4539 4.02762 25.4381 4.01435C25.4374 4.01376 25.4366 4.01329 25.4358 4.01294C25.4304 4.01012 25.4235 4.01235 25.419 4.00601C25.4154 4.00072 25.4115 3.99579 25.4078 3.99062C25.4015 4.00131 25.4015 4.00131 25.3944 3.99133C25.3933 3.9898 25.3922 3.98816 25.3911 3.98663C25.3835 3.97583 25.3834 3.97571 25.3761 3.98734C25.374 3.99074 25.3726 3.99145 25.3703 3.98804C25.3685 3.98534 25.3665 3.98287 25.3648 3.98017C25.3613 3.97453 25.3589 3.96995 25.3514 3.97547C25.3459 3.97958 25.3376 3.97489 25.3308 3.98029C25.3284 3.98217 25.3245 3.97536 25.321 3.97312C25.3196 3.97218 25.3184 3.96972 25.3165 3.97101C25.3149 3.97207 25.3151 3.97453 25.3152 3.97653C25.3155 3.98628 25.3202 3.99309 25.3267 3.99814C25.3509 4.01729 25.3751 4.03643 25.3996 4.05522C25.4316 4.07977 25.4608 4.1076 25.48 4.14765C25.5017 4.19275 25.5076 4.24173 25.5067 4.29247C25.5057 4.34403 25.4953 4.39336 25.4818 4.4421C25.4798 4.44926 25.478 4.44797 25.4746 4.44374C25.4677 4.43529 25.468 4.42542 25.47 4.4152C25.4709 4.41097 25.4723 4.40675 25.4739 4.40275C25.4762 4.397 25.4751 4.39277 25.4701 4.39042C25.4648 4.38795 25.4641 4.38314 25.4646 4.37715C25.4651 4.37034 25.4651 4.36352 25.4655 4.35671C25.4659 4.35025 25.4665 4.34438 25.4582 4.34602C25.455 4.34661 25.4548 4.34332 25.4548 4.34039C25.4548 4.33029 25.4523 4.32113 25.4491 4.31185C25.4456 4.30151 25.449 4.29024 25.4471 4.27955C25.446 4.27332 25.4457 4.26686 25.4451 4.26052C25.4439 4.26052 25.4433 4.26029 25.4428 4.26052C25.4309 4.26733 25.4309 4.26733 25.4298 4.2516C25.4295 4.2469 25.4287 4.24208 25.4287 4.23738C25.4287 4.22764 25.4272 4.22071 25.4167 4.22458C25.4126 4.22611 25.4123 4.222 25.4116 4.21859C25.4092 4.20591 25.4066 4.19311 25.4037 4.17854C25.3995 4.18582 25.3962 4.19146 25.392 4.19874C25.3875 4.18254 25.3834 4.16797 25.379 4.15247C25.3769 4.15458 25.3756 4.15576 25.3744 4.15717C25.3649 4.16809 25.3649 4.16809 25.3596 4.15317C25.3578 4.14812 25.3559 4.14319 25.3545 4.13802C25.3527 4.13109 25.3504 4.12639 25.3432 4.12557C25.3365 4.12487 25.3341 4.11665 25.3317 4.11019C25.3297 4.1049 25.3278 4.10208 25.3222 4.10302C25.3139 4.10455 25.308 4.09915 25.3034 4.09116C25.3008 4.0867 25.2979 4.07848 25.293 4.08153C25.2879 4.08482 25.2902 4.0928 25.292 4.09926C25.2966 4.11512 25.3065 4.12698 25.3147 4.14014C25.3313 4.16668 25.3501 4.19146 25.3641 4.22012C25.3933 4.27943 25.3974 4.34227 25.3819 4.40745C25.3707 4.45455 25.3513 4.49683 25.3266 4.53594C25.3231 4.54146 25.3196 4.54745 25.3126 4.55085C25.3131 4.5451 25.3131 4.5404 25.3139 4.53594C25.3151 4.52866 25.3173 4.52138 25.307 4.52173C25.304 4.52185 25.3045 4.51903 25.3051 4.51644C25.3065 4.51127 25.3078 4.50599 25.309 4.50082C25.31 4.49648 25.3114 4.49107 25.3091 4.4879C25.3017 4.47733 25.306 4.46758 25.3093 4.45748C25.3118 4.44985 25.3139 4.4421 25.3165 4.43446C25.3186 4.42824 25.317 4.42612 25.3116 4.42765C25.3053 4.42941 25.3042 4.42706 25.3057 4.4199C25.3091 4.40322 25.3117 4.38619 25.3147 4.36951C25.3092 4.36716 25.3048 4.37738 25.3014 4.37163C25.2992 4.36787 25.3014 4.36047 25.3017 4.35472C25.302 4.34826 25.3024 4.34191 25.3029 4.33475C25.2971 4.33639 25.2955 4.34332 25.2896 4.34696C25.2896 4.32641 25.2896 4.30738 25.2896 4.28742C25.2818 4.28953 25.2817 4.2967 25.2791 4.30163C25.2782 4.30327 25.278 4.30597 25.276 4.30609C25.2734 4.30621 25.2729 4.30327 25.2724 4.30116C25.2705 4.29388 25.271 4.28636 25.2705 4.27884C25.2698 4.26827 25.2689 4.26733 25.2616 4.2725C25.2571 4.27567 25.2568 4.27297 25.2564 4.2691C25.2556 4.26205 25.2548 4.25488 25.2541 4.24784C25.2536 4.24302 25.2526 4.23938 25.2477 4.24314C25.2425 4.24713 25.2407 4.24349 25.239 4.23844C25.2352 4.22681 25.2287 4.21812 25.2184 4.21389C25.2131 4.21178 25.2104 4.21202 25.2114 4.22035C25.2149 4.24972 25.2185 4.27896 25.2209 4.30844C25.2276 4.39077 25.2249 4.47228 25.2027 4.55168C25.1919 4.59032 25.1767 4.62649 25.1577 4.66055C25.151 4.67253 25.1426 4.68275 25.1333 4.69203C25.1305 4.68968 25.1319 4.68674 25.1318 4.68428C25.1306 4.64481 25.1355 4.60512 25.1325 4.56601C25.1303 4.537 25.134 4.51069 25.1437 4.48473C25.1441 4.48356 25.1442 4.48226 25.1447 4.47992C25.1345 4.48144 25.1321 4.49307 25.1238 4.49929C25.1231 4.48461 25.1224 4.47134 25.1219 4.45795C25.1216 4.4495 25.1215 4.44092 25.1212 4.43247C25.1207 4.41814 25.119 4.40463 25.1113 4.3923C25.101 4.37597 25.1029 4.3553 25.0999 4.33628C25.0995 4.33369 25.1008 4.33005 25.0984 4.32888C25.0955 4.32747 25.0939 4.33111 25.092 4.33299C25.0811 4.34379 25.0806 4.36 25.0765 4.37433C25.066 4.41168 25.0678 4.4502 25.0689 4.48861C25.0705 4.54158 25.0718 4.59466 25.0735 4.64763C25.0777 4.77753 25.0803 4.90743 25.081 5.03744C25.0812 5.08172 25.0817 5.12588 25.0831 5.17016C25.0841 5.20164 25.0903 5.23206 25.1021 5.2606C25.1133 5.28785 25.114 5.31533 25.1039 5.34352C25.0913 5.37852 25.095 5.41222 25.1116 5.44393C25.1236 5.46707 25.1371 5.48927 25.15 5.51182C25.1542 5.51922 25.1583 5.52674 25.1607 5.53507C25.1663 5.5541 25.1601 5.5682 25.1435 5.57348C25.1253 5.57924 25.1067 5.58252 25.0878 5.58288C25.0346 5.58382 24.9813 5.58499 24.9281 5.58335C24.9098 5.58276 24.8918 5.57935 24.8744 5.57301C24.8572 5.56679 24.8516 5.55281 24.8586 5.53331C24.8656 5.5137 24.8765 5.49679 24.8867 5.47964C24.9052 5.44887 24.9188 5.41598 24.9195 5.37722C24.9198 5.35961 24.9172 5.34269 24.9106 5.32684C24.9022 5.30664 24.9026 5.28667 24.9121 5.26729C24.9287 5.2337 24.9314 5.19647 24.9326 5.15889C24.936 5.05013 24.9378 4.94125 24.9396 4.83238C24.9411 4.73995 24.9456 4.64751 24.9484 4.55508C24.9501 4.49753 24.9479 4.4401 24.9464 4.38255C24.9464 4.36164 24.9358 4.33909 24.923 4.32805Z" fill="black"/>
<path d="M26.1504 5.38364C26.1372 5.38763 26.1247 5.38775 26.1125 5.38916C26.0549 5.39538 25.9971 5.39984 25.9397 5.40924C25.8653 5.42145 25.7912 5.43649 25.7183 5.45822C25.6532 5.47771 25.5903 5.50473 25.5287 5.53644C25.4524 5.57578 25.378 5.61947 25.3095 5.67585C25.2493 5.72541 25.1962 5.78461 25.1445 5.84556C25.1324 5.85977 25.1206 5.87422 25.109 5.88902C25.1005 5.89994 25.1003 5.90276 25.108 5.9145C25.1306 5.94892 25.1534 5.98321 25.1763 6.01739C25.2092 6.06625 25.2456 6.11135 25.2817 6.15692C25.2863 6.16291 25.2917 6.16808 25.2966 6.17383C25.3009 6.17888 25.3031 6.17724 25.3049 6.17113C25.3138 6.142 25.3228 6.11299 25.3317 6.08387C25.3354 6.07165 25.3396 6.05979 25.3455 6.04887C25.3596 6.02303 25.3808 6.01633 25.4031 6.03219C25.4254 6.04804 25.4358 6.07177 25.4339 6.10242C25.4331 6.11616 25.4258 6.12579 25.4122 6.1292C25.3803 6.1373 25.3658 6.16361 25.3594 6.19803C25.3536 6.22927 25.3594 6.25687 25.3789 6.28071C25.3973 6.30314 25.4161 6.32452 25.4386 6.34096C25.4582 6.35529 25.4629 6.35388 25.473 6.3298C25.479 6.31571 25.4851 6.30185 25.4955 6.2914C25.5216 6.26509 25.5617 6.25945 25.5928 6.30291C25.6165 6.33591 25.6226 6.37502 25.619 6.41683C25.6167 6.44361 25.6081 6.46781 25.5933 6.48812C25.5692 6.52124 25.5372 6.52841 25.5021 6.52418C25.4651 6.51972 25.4344 6.49881 25.4045 6.47497C25.3704 6.44796 25.3359 6.42177 25.3015 6.39534C25.2911 6.38735 25.2908 6.3877 25.2819 6.39816C25.2609 6.42259 25.2421 6.4496 25.219 6.47133C25.1882 6.5001 25.1412 6.49752 25.116 6.46522C25.0899 6.43163 25.0885 6.38066 25.1259 6.34495C25.1322 6.33896 25.1394 6.33885 25.1463 6.34331C25.1585 6.35106 25.1701 6.35987 25.1825 6.36715C25.1988 6.37678 25.2152 6.37197 25.227 6.35564C25.2342 6.34542 25.2353 6.33438 25.2308 6.3224C25.2229 6.30115 25.2092 6.28482 25.1962 6.26791C25.1398 6.19497 25.0833 6.12204 25.0268 6.04922C25.0214 6.04217 25.0162 6.0316 25.009 6.0309C25.002 6.03031 24.9973 6.04158 24.9917 6.04793C24.9424 6.1036 24.8973 6.16373 24.8527 6.22457C24.8357 6.24771 24.8188 6.2712 24.8019 6.29433C24.7962 6.30209 24.7914 6.31054 24.788 6.32005C24.7831 6.33391 24.7842 6.34683 24.7929 6.35799C24.802 6.36974 24.8131 6.37467 24.8265 6.36962C24.8382 6.36527 24.8483 6.35705 24.8591 6.35071C24.8637 6.34801 24.8684 6.34507 24.8731 6.34284C24.8811 6.33908 24.8887 6.34037 24.895 6.34719C24.9139 6.36786 24.9207 6.39393 24.9169 6.42317C24.9129 6.45371 24.9001 6.47802 24.8739 6.48777C24.8495 6.49681 24.8265 6.48789 24.8048 6.4745C24.7814 6.46017 24.7644 6.43739 24.7485 6.41343C24.7437 6.40614 24.7381 6.39957 24.7337 6.39217C24.7303 6.38653 24.7272 6.38724 24.7229 6.39005C24.6984 6.40567 24.6765 6.42576 24.6535 6.44396C24.631 6.46182 24.6097 6.48178 24.5855 6.49693C24.5574 6.51455 24.5275 6.52336 24.4955 6.52195C24.4527 6.52019 24.4205 6.49024 24.4055 6.43762C24.3902 6.38371 24.4035 6.32651 24.4403 6.28952C24.4695 6.26004 24.5072 6.2645 24.5311 6.30021C24.5396 6.31277 24.5467 6.3264 24.554 6.3399C24.5608 6.35235 24.5628 6.35341 24.5734 6.34636C24.6055 6.32499 24.6325 6.29633 24.6551 6.26239C24.6627 6.25099 24.6642 6.23737 24.6609 6.22363C24.6563 6.20402 24.651 6.18452 24.6461 6.16502C24.642 6.14823 24.6331 6.13742 24.6188 6.13249C24.6169 6.13178 24.615 6.13084 24.6131 6.13014C24.5887 6.1211 24.5824 6.10876 24.5869 6.07893C24.5924 6.04241 24.6225 6.01915 24.6526 6.02772C24.6665 6.03172 24.6754 6.04194 24.68 6.05744C24.6899 6.09044 24.6995 6.12356 24.7093 6.15668C24.7159 6.179 24.7199 6.18029 24.7333 6.16267C24.794 6.08363 24.8526 6.00247 24.9078 5.91803C24.9152 5.90675 24.9149 5.90405 24.9078 5.89184C24.8924 5.86506 24.872 5.84368 24.8526 5.82149C24.8072 5.76946 24.7592 5.72095 24.7086 5.67597C24.6636 5.6358 24.6135 5.60632 24.5631 5.57743C24.5059 5.54478 24.4476 5.51483 24.3876 5.49004C24.3078 5.45704 24.2268 5.42991 24.1429 5.41593C24.0934 5.4076 24.0435 5.40196 23.9938 5.3955C23.9657 5.39174 23.9375 5.38728 23.9095 5.38317C23.9064 5.3827 23.9031 5.38223 23.9004 5.37776C23.91 5.37295 23.92 5.37189 23.9296 5.3713C24.0122 5.36625 24.0945 5.35427 24.1773 5.35557C24.2746 5.35709 24.3707 5.3679 24.4653 5.39538C24.5293 5.41394 24.5905 5.44107 24.6498 5.47466C24.7087 5.50801 24.7667 5.54313 24.82 5.58823C24.8657 5.62687 24.9084 5.66962 24.949 5.71519C24.9656 5.73375 24.9822 5.75219 24.9977 5.7718C25.0041 5.77979 25.0082 5.7785 25.0139 5.77227C25.0331 5.75149 25.0525 5.73128 25.0714 5.71014C25.1514 5.62076 25.2402 5.54618 25.3392 5.4884C25.4007 5.45246 25.4645 5.42392 25.5305 5.40172C25.6003 5.37823 25.6716 5.3652 25.744 5.35968C25.8131 5.35427 25.8821 5.35686 25.9512 5.36097C25.9879 5.3632 26.0246 5.36484 26.0612 5.36802C26.0875 5.37025 26.1136 5.37459 26.1397 5.37812C26.1431 5.37847 26.1467 5.37906 26.1504 5.38364ZM25.5088 6.45477C25.5123 6.45477 25.5158 6.455 25.5192 6.45477C25.5484 6.45242 25.5652 6.43774 25.572 6.40861C25.5774 6.38524 25.5675 6.35212 25.5508 6.33814C25.5364 6.32604 25.5183 6.33427 25.5108 6.35682C25.5058 6.37173 25.5029 6.38735 25.5022 6.40344C25.5014 6.41942 25.4958 6.42435 25.4823 6.4227C25.4768 6.422 25.4716 6.41965 25.4665 6.41754C25.4346 6.40438 25.409 6.38066 25.3861 6.352C25.3734 6.33626 25.3593 6.32193 25.3461 6.30667C25.3415 6.30126 25.3391 6.30244 25.3361 6.30866C25.329 6.32323 25.3297 6.33544 25.3394 6.34789C25.3548 6.36774 25.3714 6.3863 25.3899 6.40203C25.4254 6.43245 25.464 6.45336 25.5088 6.45477ZM24.4491 6.39217C24.4491 6.4341 24.4647 6.45512 24.4991 6.45641C24.5332 6.4577 24.5657 6.44702 24.5953 6.42705C24.628 6.40509 24.6545 6.37396 24.6825 6.34507C24.6901 6.3372 24.6912 6.3264 24.6878 6.315C24.6843 6.30338 24.6833 6.30267 24.6748 6.30925C24.6705 6.31254 24.6663 6.3163 24.6624 6.32041C24.6384 6.34542 24.6144 6.37044 24.5906 6.39581C24.5761 6.41143 24.5597 6.42012 24.5399 6.42083C24.524 6.42141 24.519 6.41671 24.5169 6.39839C24.5155 6.38524 24.5133 6.3722 24.5118 6.35905C24.5101 6.34448 24.5035 6.33521 24.4912 6.3325C24.4783 6.32969 24.4676 6.33462 24.4601 6.3473C24.452 6.36116 24.4498 6.37725 24.4491 6.39217ZM25.1544 6.38395C25.1471 6.38383 25.1424 6.38829 25.1399 6.39604C25.1347 6.4119 25.141 6.42987 25.154 6.43739C25.1775 6.45113 25.2001 6.44678 25.2198 6.42881C25.2453 6.40544 25.2655 6.37655 25.2786 6.34084C25.3018 6.27754 25.3258 6.21447 25.3495 6.15152C25.3559 6.1346 25.3653 6.12063 25.3808 6.11393C25.386 6.1117 25.3894 6.10712 25.3927 6.10242C25.4 6.09209 25.3983 6.07975 25.3883 6.0693C25.3798 6.06038 25.3703 6.06073 25.3623 6.07095C25.3543 6.08105 25.3493 6.0935 25.3453 6.10618C25.3276 6.16079 25.31 6.21552 25.2926 6.27026C25.2793 6.31242 25.2609 6.35094 25.2354 6.38465C25.2251 6.39839 25.2122 6.40333 25.1972 6.3991C25.1908 6.39734 25.1847 6.39381 25.1784 6.39135C25.1706 6.38817 25.163 6.38418 25.1544 6.38395ZM24.8414 6.44326C24.8486 6.44361 24.8635 6.4375 24.8688 6.43198C24.8773 6.42306 24.8808 6.40333 24.8756 6.39252C24.8713 6.38348 24.8642 6.38242 24.8492 6.38806C24.8396 6.3917 24.8299 6.39557 24.8201 6.39839C24.8052 6.40286 24.7921 6.39828 24.7815 6.38477C24.7734 6.37443 24.7663 6.36328 24.7614 6.35047C24.7347 6.28047 24.7073 6.21071 24.6845 6.1386C24.6771 6.11522 24.6685 6.09267 24.6556 6.07259C24.6512 6.06578 24.6457 6.0619 24.6384 6.06378C24.6305 6.06578 24.6251 6.07153 24.6234 6.08128C24.6208 6.09549 24.6253 6.10677 24.6371 6.11276C24.6552 6.1218 24.6674 6.1373 24.6748 6.15833C24.693 6.20942 24.7113 6.26051 24.7288 6.31195C24.7426 6.35259 24.7599 6.39005 24.7893 6.41836C24.8045 6.43328 24.8215 6.44208 24.8414 6.44326ZM25.2723 6.22962C25.2723 6.22175 25.2685 6.21447 25.2631 6.20789C25.2342 6.17219 25.2056 6.13625 25.1765 6.10078C25.1658 6.08762 25.1558 6.07329 25.143 6.06249C25.1402 6.06002 25.1367 6.05861 25.1342 6.06108C25.1317 6.06355 25.1353 6.06625 25.1363 6.06883C25.1371 6.07095 25.1383 6.07294 25.1394 6.07494C25.1741 6.13261 25.2089 6.19027 25.2436 6.24806C25.2467 6.25311 25.2503 6.25745 25.2551 6.26016C25.2576 6.26157 25.2603 6.26274 25.262 6.25922C25.2664 6.25017 25.2719 6.24195 25.2723 6.22962ZM24.8781 6.0619C24.8764 6.06038 24.8755 6.06155 24.8745 6.06202C24.8633 6.0673 24.8563 6.07834 24.8485 6.08833C24.817 6.12861 24.7857 6.16902 24.7542 6.2093C24.7503 6.21447 24.7474 6.22022 24.7461 6.22704C24.744 6.23819 24.7503 6.25205 24.7604 6.25651C24.7683 6.26004 24.7692 6.24912 24.7738 6.24571C24.774 6.24559 24.7742 6.24512 24.7743 6.24489C24.8078 6.19532 24.838 6.14306 24.866 6.08915C24.8707 6.08046 24.8754 6.07177 24.8781 6.0619Z" fill="black"/>
<path d="M24.4079 11.4102V9.95561H24.7595V10.5707H24.7787L25.2595 9.95561H25.6736L25.1579 10.6048L25.6828 11.4102H25.2623L24.9001 10.8384L24.7595 11.016V11.4102H24.4079ZM25.2362 12.3917C25.2314 12.3396 25.2103 12.2991 25.1729 12.2702C25.136 12.2409 25.0832 12.2262 25.0146 12.2262C24.9691 12.2262 24.9312 12.2321 24.9009 12.244C24.8706 12.2558 24.8479 12.2721 24.8327 12.293C24.8176 12.3133 24.8098 12.3368 24.8093 12.3633C24.8084 12.3851 24.8126 12.4042 24.8221 12.4208C24.832 12.4374 24.8462 12.4521 24.8647 12.4648C24.8836 12.4772 24.9064 12.488 24.9329 12.4975C24.9594 12.507 24.9892 12.5153 25.0224 12.5224L25.1474 12.5508C25.2193 12.5664 25.2828 12.5872 25.3377 12.6133C25.3931 12.6393 25.4395 12.6703 25.4769 12.7063C25.5148 12.7423 25.5434 12.7837 25.5629 12.8306C25.5823 12.8775 25.5922 12.93 25.5927 12.9883C25.5922 13.0801 25.569 13.159 25.5231 13.2248C25.4772 13.2906 25.4111 13.341 25.3249 13.3761C25.2392 13.4111 25.1358 13.4286 25.0146 13.4286C24.8929 13.4286 24.7868 13.4104 24.6964 13.3739C24.6059 13.3375 24.5356 13.2821 24.4854 13.2077C24.4353 13.1334 24.4094 13.0394 24.408 12.9258H24.7447C24.7475 12.9727 24.7601 13.0117 24.7823 13.043C24.8046 13.0742 24.8351 13.0979 24.8739 13.114C24.9132 13.1301 24.9587 13.1381 25.0103 13.1381C25.0576 13.1381 25.0979 13.1317 25.131 13.119C25.1647 13.1062 25.1905 13.0884 25.2085 13.0657C25.2264 13.043 25.2357 13.0169 25.2362 12.9876C25.2357 12.9601 25.2272 12.9367 25.2106 12.9173C25.194 12.8974 25.1684 12.8803 25.1339 12.8661C25.0998 12.8514 25.0562 12.8379 25.0032 12.8256L24.8512 12.7901C24.7253 12.7612 24.6261 12.7146 24.5536 12.6502C24.4812 12.5853 24.4452 12.4978 24.4457 12.3874C24.4452 12.2975 24.4693 12.2186 24.5181 12.1509C24.5669 12.0832 24.6344 12.0304 24.7205 11.9925C24.8067 11.9547 24.9049 11.9357 25.0153 11.9357C25.128 11.9357 25.2257 11.9549 25.3086 11.9933C25.3919 12.0311 25.4566 12.0844 25.5025 12.1531C25.5484 12.2217 25.5719 12.3013 25.5728 12.3917H25.2362ZM24.6532 15.4102H24.2754L24.7662 13.9556H25.2342L25.725 15.4102H25.3471L25.0055 14.3221H24.9941L24.6532 15.4102ZM24.6028 14.8377H25.3926V15.1048H24.6028V14.8377Z" fill="black"/>
</g>
<rect x="0.75" y="0.75" width="26.5" height="18.5" rx="1.25" stroke="black" stroke-width="1.5"/>
<defs>
<clipPath id="clip0_29357_45260">
<rect width="28" height="20" rx="2" fill="white"/>
</clipPath>
</defs>
</svg>
