<svg width="27" height="16" viewBox="0 0 27 16" fill="none" xmlns="http://www.w3.org/2000/svg">
<g clip-path="url(#clip0_29357_45260)">
<rect width="27" height="16" rx="2" fill="white"/>
<path d="M13.1788 6.10701C13.1759 6.11571 13.1729 6.12385 13.171 6.13236C13.1693 6.13955 13.1657 6.14484 13.1583 6.14257C13.1288 6.13387 13.1322 6.15316 13.1351 6.17018C13.1428 6.21841 13.1339 6.26494 13.1226 6.31166C13.1201 6.32187 13.1167 6.32887 13.1054 6.32735C13.0868 6.3249 13.0872 6.33435 13.0906 6.34778C13.0955 6.36688 13.1001 6.38617 13.1033 6.40566C13.1058 6.42116 13.1046 6.43629 13.0895 6.4467C13.0806 6.45294 13.0795 6.46277 13.0787 6.47299C13.0776 6.48944 13.0836 6.50476 13.0853 6.52462C13.0626 6.51289 13.0556 6.49228 13.0447 6.47507C13.0401 6.46788 13.0373 6.45445 13.0275 6.45823C13.0178 6.46202 13.0235 6.47393 13.0259 6.48225C13.039 6.52708 13.0519 6.57209 13.0653 6.61692C13.0713 6.63678 13.0711 6.65455 13.0513 6.66647C13.0377 6.6746 13.0428 6.68652 13.0445 6.69787C13.0606 6.80208 13.0768 6.9061 13.0734 7.01202C13.073 7.02507 13.0795 7.04474 13.0676 7.04965C13.0515 7.05646 13.038 7.04039 13.0276 7.02828C12.9662 6.95679 12.9179 6.87679 12.8816 6.78997C12.7984 6.59025 12.771 6.38182 12.7829 6.16659C12.7886 6.06484 12.8117 5.96516 12.8188 5.86379C12.8205 5.83863 12.8236 5.81367 12.8213 5.78833C12.8205 5.77963 12.8204 5.76847 12.8096 5.76676C12.8005 5.76544 12.7926 5.77149 12.7867 5.77887C12.7765 5.79173 12.777 5.80743 12.774 5.82237C12.771 5.83712 12.7704 5.85774 12.7475 5.83712C12.7421 5.8322 12.7356 5.83145 12.7307 5.83693C12.7163 5.85244 12.7004 5.84942 12.6806 5.83769C12.6806 5.87495 12.6808 5.90767 12.6804 5.94039C12.6804 5.94625 12.6836 5.95495 12.6759 5.95703C12.6658 5.95968 12.666 5.94928 12.6634 5.94323C12.6617 5.93906 12.6613 5.93434 12.6596 5.93017C12.6564 5.92223 12.6583 5.90767 12.6482 5.90842C12.6356 5.90937 12.6354 5.92431 12.635 5.93434C12.6342 5.96233 12.6384 5.98994 12.6441 6.01737C12.6465 6.02947 12.6473 6.04195 12.649 6.05595C12.625 6.05292 12.6182 6.03647 12.6116 6.01963C12.6055 6.00431 12.6046 5.98578 12.5851 5.97708C12.5728 6.0115 12.5811 6.04592 12.5779 6.0794C12.5769 6.09018 12.583 6.10815 12.5707 6.11042C12.5561 6.11288 12.5548 6.09453 12.5501 6.08318C12.5452 6.07127 12.5448 6.05027 12.5297 6.05273C12.5172 6.05481 12.52 6.07505 12.5196 6.08791C12.5189 6.11723 12.53 6.14427 12.5368 6.17227C12.5403 6.18607 12.5433 6.20007 12.5474 6.21822C12.537 6.21425 12.5298 6.21217 12.5232 6.20915C12.5002 6.19874 12.493 6.20234 12.4977 6.2273C12.5043 6.26248 12.5147 6.29709 12.5249 6.33152C12.5289 6.34513 12.5312 6.35421 12.5123 6.35421C12.4939 6.35421 12.4935 6.36783 12.4943 6.38088C12.4956 6.40282 12.5068 6.42211 12.5128 6.44273C12.5229 6.47658 12.527 6.50949 12.5085 6.54183C12.503 6.55148 12.5022 6.56264 12.5034 6.57342C12.5047 6.58628 12.5005 6.5946 12.4873 6.59668C12.4712 6.59933 12.4737 6.6103 12.4758 6.62127C12.4792 6.63942 12.4854 6.6572 12.4843 6.6763C12.4725 6.67744 12.4689 6.66931 12.4655 6.6625C12.4132 6.55904 12.354 6.45899 12.3088 6.35194C12.2278 6.16054 12.2509 5.97765 12.3551 5.80175C12.3863 5.74899 12.4224 5.69962 12.4584 5.65026C12.4845 5.61432 12.5085 5.57763 12.5138 5.53205C12.5159 5.51352 12.517 5.49517 12.5075 5.47796C12.4969 5.48098 12.4947 5.48987 12.4909 5.4963C12.4812 5.51257 12.4712 5.52089 12.4538 5.50576C12.4408 5.49441 12.4357 5.50255 12.433 5.51541C12.4309 5.52505 12.4271 5.53451 12.4264 5.54434C12.4251 5.56326 12.416 5.57234 12.3971 5.57025C12.3835 5.56874 12.3784 5.57631 12.374 5.58766C12.3628 5.61792 12.3507 5.6478 12.3373 5.68222C12.328 5.66293 12.3205 5.64723 12.312 5.62945C12.2834 5.6635 12.2851 5.7087 12.2609 5.74482C12.2516 5.73329 12.2435 5.72307 12.2335 5.71059C12.2242 5.73518 12.2144 5.75731 12.2076 5.78019C12.2025 5.79759 12.1938 5.80194 12.1782 5.79495C12.1641 5.78851 12.1593 5.79476 12.1569 5.80818C12.1493 5.84942 12.1406 5.89027 12.1319 5.9332C12.1156 5.92299 12.1138 5.90426 12.0992 5.89424C12.0844 5.91315 12.0843 5.93528 12.0852 5.9559C12.0877 6.00526 12.065 6.04649 12.0459 6.08905C12.0442 6.09283 12.0398 6.09907 12.0377 6.09869C12.0065 6.09283 12.0128 6.11761 12.0114 6.13274C12.0056 6.19629 11.9948 6.25964 12.0046 6.32376C12.0075 6.34286 12.0033 6.36102 11.9927 6.37804C11.9827 6.39412 11.9751 6.39128 11.9702 6.37596C11.9611 6.34778 11.9528 6.31922 11.945 6.29066C11.9152 6.17907 11.8949 6.06559 11.8946 5.94984C11.894 5.76714 11.9589 5.61186 12.0931 5.48515C12.2244 5.36126 12.37 5.26197 12.5433 5.20655C12.5877 5.19237 12.6339 5.1831 12.6766 5.164C12.683 5.16116 12.6933 5.15946 12.6925 5.1517C12.6917 5.14376 12.6823 5.13771 12.6743 5.13809C12.6216 5.14092 12.5665 5.12466 12.5172 5.1587C12.4932 5.17535 12.4669 5.18121 12.44 5.15965C12.4271 5.14925 12.3594 5.164 12.3471 5.17743C12.3388 5.1865 12.3307 5.19596 12.3231 5.20466C12.3123 5.20182 12.3157 5.19388 12.3133 5.18877C12.3097 5.18102 12.3133 5.16835 12.3036 5.16532C12.2921 5.16173 12.283 5.17137 12.2758 5.17875C12.2671 5.18764 12.2603 5.19842 12.2531 5.20882C12.2429 5.22339 12.232 5.23284 12.2132 5.2213C12.1966 5.21109 12.1887 5.22509 12.1807 5.23549C12.1716 5.24759 12.1631 5.2527 12.151 5.23889C12.1419 5.2283 12.1357 5.23038 12.1304 5.24362C12.1225 5.26367 12.1121 5.28258 12.1041 5.30263C12.0988 5.31587 12.0924 5.31984 12.0805 5.31076C12.0672 5.30074 12.0578 5.30471 12.05 5.31833C12.0428 5.33062 12.033 5.3414 12.0281 5.3554C12.0198 5.37885 12.0046 5.39739 11.9853 5.41309C11.9679 5.42727 11.9509 5.44202 11.9386 5.46131C11.936 5.46566 11.9309 5.47172 11.9271 5.47153C11.8947 5.46945 11.8961 5.49441 11.8913 5.51446C11.8866 5.53451 11.8817 5.55475 11.8775 5.57498C11.8736 5.59484 11.8692 5.613 11.8461 5.62094C11.8321 5.62567 11.8327 5.64118 11.8329 5.65385C11.8335 5.67447 11.8287 5.6983 11.8079 5.6983C11.7849 5.6983 11.7845 5.67087 11.7854 5.6531C11.8002 5.39474 11.9057 5.18575 12.124 5.03993C12.2741 4.93969 12.4425 4.89221 12.6208 4.875C12.6844 4.86895 12.7477 4.86101 12.81 4.84512C12.8313 4.83963 12.8506 4.8315 12.8637 4.8071C12.7787 4.80143 12.6976 4.77136 12.6138 4.79821C12.6034 4.80162 12.5921 4.80691 12.5824 4.80067C12.5524 4.78138 12.5283 4.79538 12.5037 4.81202C12.4966 4.81694 12.4865 4.82753 12.479 4.81334C12.4689 4.79443 12.4561 4.79708 12.4413 4.8054C12.3889 4.8351 12.329 4.84739 12.2728 4.85949C12.1945 4.87614 12.1438 4.93307 12.0767 4.96389C12.0682 4.96787 12.0597 4.98148 12.0513 4.97335C12.0413 4.96371 12.0553 4.95406 12.0604 4.94631C12.1434 4.82205 12.2499 4.72143 12.3715 4.63537C12.5087 4.53835 12.6611 4.50355 12.8268 4.51905C12.9074 4.52662 12.9881 4.53494 13.0687 4.54175C13.0836 4.54307 13.1071 4.54988 13.1116 4.53343C13.115 4.52151 13.092 4.51281 13.0778 4.50827C13.0388 4.4956 13.0085 4.46591 12.9698 4.4538C12.9312 4.4417 12.8934 4.42827 12.8578 4.40879C12.8315 4.39442 12.7956 4.40444 12.774 4.37683C12.7729 4.37531 12.7672 4.37664 12.764 4.37796C12.7027 4.40312 12.6371 4.40974 12.5732 4.42354C12.5554 4.42732 12.5403 4.43716 12.5204 4.44586C12.5232 4.41673 12.5395 4.39914 12.5575 4.38401C12.6193 4.33257 12.694 4.30893 12.7704 4.29134C12.9198 4.25729 13.0577 4.28718 13.1856 4.36945C13.2317 4.39914 13.2788 4.42714 13.3316 4.44454C13.3477 4.44983 13.3518 4.44832 13.352 4.43111C13.3531 4.3617 13.3601 4.29285 13.3694 4.22401C13.3719 4.20585 13.3779 4.19791 13.3959 4.19961C13.4163 4.2015 13.4226 4.19337 13.4243 4.17218C13.428 4.12131 13.4205 4.0693 13.4375 4.01955C13.44 4.01218 13.4383 4.00121 13.4483 4.00007C13.46 3.99894 13.4606 4.01123 13.4642 4.0188C13.4795 4.05076 13.4732 4.08613 13.4787 4.11961C13.4814 4.13549 13.4806 4.15195 13.4823 4.16802C13.4838 4.18334 13.4859 4.19772 13.5029 4.20585C13.5154 4.2119 13.5171 4.2259 13.5173 4.23876C13.5177 4.25502 13.5177 4.2711 13.5181 4.28737C13.5188 4.31006 13.5222 4.33106 13.5381 4.34997C13.5549 4.37021 13.5563 4.39612 13.5553 4.42184C13.5538 4.46572 13.5567 4.46912 13.5967 4.45172C13.652 4.4277 13.7047 4.3982 13.7558 4.36623C13.8608 4.30079 13.9733 4.27356 14.0962 4.29531C14.1753 4.30931 14.2468 4.3424 14.3158 4.38193C14.3364 4.39366 14.3518 4.41182 14.3614 4.43394C14.3695 4.45229 14.3637 4.46118 14.3436 4.4591C14.3349 4.45815 14.3264 4.45418 14.3179 4.45134C14.2583 4.43205 14.1959 4.41106 14.1358 4.43035C14.0894 4.44529 14.0452 4.45399 13.997 4.45532C13.9578 4.45645 13.9279 4.48652 13.8907 4.50487C13.9332 4.53759 13.9796 4.53816 14.0261 4.53589C14.0836 4.53286 14.1409 4.52624 14.1984 4.52492C14.3268 4.52189 14.4414 4.56218 14.5392 4.64502C14.616 4.71008 14.6905 4.77817 14.7607 4.8506C14.7907 4.88181 14.814 4.91812 14.8331 4.96087C14.814 4.95746 14.8006 4.94744 14.7868 4.93931C14.7433 4.91377 14.6981 4.8941 14.6487 4.88011C14.6044 4.86763 14.5617 4.84625 14.5214 4.82242C14.5074 4.8141 14.4927 4.80729 14.4768 4.8037C14.4543 4.79878 14.4323 4.79613 14.4199 4.82242C14.4147 4.8332 14.4074 4.83283 14.3983 4.82583C14.3883 4.81807 14.3771 4.81202 14.3671 4.80464C14.3538 4.79481 14.3421 4.78743 14.3312 4.80824C14.3242 4.82148 14.3132 4.81297 14.3054 4.80824C14.2784 4.79178 14.2523 4.7776 14.2213 4.80143C14.215 4.80616 14.202 4.80275 14.1921 4.80219C14.1619 4.80048 14.1327 4.80332 14.1072 4.82205C14.1 4.82734 14.0927 4.82885 14.0843 4.82564C14.0819 4.82469 14.0792 4.82375 14.0766 4.82337C14.0616 4.82167 14.0301 4.8438 14.0327 4.85628C14.0357 4.87103 14.0524 4.87027 14.0633 4.8716C14.1161 4.87765 14.1691 4.88181 14.2218 4.88673C14.3285 4.89656 14.4354 4.9047 14.5388 4.93496C14.796 5.00985 14.9808 5.16551 15.0726 5.42141C15.1077 5.51976 15.1157 5.62246 15.1055 5.73102C15.0871 5.714 15.0797 5.6947 15.0699 5.67749C15.0308 5.60865 14.9924 5.53962 14.9538 5.47039C14.942 5.4494 14.9296 5.42973 14.9023 5.42822C14.8921 5.42765 14.8923 5.42008 14.8908 5.41309C14.8776 5.34992 14.8331 5.31152 14.7839 5.27634C14.7817 5.27483 14.7792 5.27369 14.7767 5.27256C14.7599 5.26518 14.7384 5.27105 14.7245 5.25402C14.7132 5.24022 14.7013 5.22698 14.6894 5.21317C14.6697 5.24154 14.6697 5.24154 14.6478 5.21506C14.6444 5.2109 14.6408 5.20674 14.6374 5.20258C14.6139 5.17402 14.6133 5.17364 14.5908 5.20447C14.5842 5.21336 14.58 5.21544 14.5729 5.20655C14.5672 5.19955 14.5611 5.19293 14.5558 5.18556C14.5451 5.17081 14.5375 5.15851 14.514 5.17308C14.4968 5.18386 14.4709 5.17156 14.4499 5.18594C14.4425 5.19104 14.4304 5.17289 14.4197 5.16683C14.4153 5.16438 14.4115 5.15776 14.4059 5.16116C14.4008 5.16419 14.4015 5.17062 14.4017 5.17572C14.4026 5.20163 14.4174 5.21941 14.4374 5.23284C14.5129 5.28353 14.5882 5.33422 14.6644 5.38377C14.7641 5.44864 14.8549 5.52222 14.9146 5.62832C14.982 5.74766 15.0005 5.87703 14.9975 6.01112C14.9944 6.14749 14.9619 6.27799 14.9201 6.40679C14.9139 6.4257 14.9084 6.4223 14.8978 6.41133C14.876 6.38901 14.8768 6.36291 14.8836 6.33568C14.8864 6.32433 14.8908 6.31336 14.8957 6.30277C14.9029 6.28745 14.8995 6.27629 14.884 6.27024C14.8672 6.26362 14.8651 6.25094 14.8664 6.23525C14.8679 6.21728 14.8679 6.19931 14.8692 6.18134C14.8706 6.16432 14.8723 6.14862 14.8463 6.15297C14.8363 6.15468 14.8358 6.14579 14.8358 6.13822C14.8358 6.11155 14.828 6.08716 14.8182 6.06257C14.8074 6.03533 14.818 6.00564 14.8119 5.97727C14.8083 5.96081 14.8076 5.9436 14.8057 5.92696C14.8021 5.92696 14.8 5.92639 14.7985 5.92696C14.7616 5.94474 14.7616 5.94493 14.758 5.90351C14.7569 5.89102 14.7546 5.87835 14.7546 5.86587C14.7548 5.84015 14.7501 5.8218 14.7174 5.83183C14.7045 5.8358 14.7036 5.82502 14.7015 5.81594C14.6939 5.78227 14.6856 5.74861 14.6765 5.71021C14.6633 5.7295 14.6531 5.74445 14.64 5.76355C14.6258 5.72062 14.6131 5.68203 14.5997 5.64118C14.5933 5.64685 14.5891 5.64988 14.5855 5.65347C14.5558 5.68241 14.5558 5.68241 14.5396 5.64269C14.5341 5.62945 14.528 5.61621 14.5237 5.6026C14.518 5.58444 14.511 5.57196 14.4881 5.56969C14.4673 5.56761 14.4598 5.54623 14.4524 5.52902C14.4463 5.51522 14.4405 5.50746 14.4227 5.51011C14.3968 5.51408 14.3786 5.49971 14.3644 5.47871C14.3563 5.4668 14.3474 5.44524 14.3323 5.45337C14.316 5.46207 14.3234 5.48325 14.3293 5.50028C14.3436 5.54226 14.3743 5.57366 14.3996 5.60827C14.4512 5.67863 14.5097 5.74407 14.5536 5.81991C14.6442 5.97689 14.6568 6.14314 14.6088 6.31544C14.574 6.44008 14.5137 6.55185 14.4367 6.65531C14.4257 6.67006 14.4149 6.68576 14.3932 6.69465C14.3947 6.67933 14.3949 6.66704 14.3972 6.65512C14.4008 6.63602 14.4076 6.61654 14.3756 6.61748C14.3663 6.61767 14.3677 6.6103 14.3699 6.60349C14.3743 6.58987 14.3782 6.57606 14.382 6.56207C14.3852 6.55072 14.3894 6.53635 14.3822 6.52784C14.3591 6.49984 14.3726 6.47393 14.3828 6.44726C14.3903 6.42703 14.3972 6.4066 14.4051 6.38636C14.4115 6.36991 14.4066 6.36423 14.39 6.3684C14.3705 6.37312 14.3671 6.36669 14.3716 6.34778C14.3822 6.30352 14.3903 6.2587 14.3996 6.21444C14.3826 6.2082 14.3688 6.23525 14.3584 6.21993C14.3516 6.2099 14.3584 6.19042 14.3593 6.17529C14.3605 6.15827 14.3616 6.14144 14.3629 6.12252C14.3448 6.12668 14.34 6.14522 14.3213 6.15505C14.3213 6.10077 14.3213 6.05027 14.3213 5.9977C14.2969 6.00337 14.2965 6.02228 14.2888 6.03514C14.2861 6.03949 14.2854 6.04668 14.2789 6.04687C14.271 6.04725 14.2693 6.03949 14.2676 6.03401C14.2617 6.01491 14.2633 5.99486 14.2617 5.97519C14.2597 5.9472 14.2566 5.94474 14.2339 5.95854C14.2199 5.96706 14.2192 5.95987 14.2179 5.94947C14.2156 5.93074 14.2129 5.91202 14.2109 5.8931C14.2093 5.88043 14.2063 5.87079 14.1912 5.88062C14.1751 5.89102 14.1694 5.88157 14.1643 5.86814C14.1524 5.83731 14.1322 5.81443 14.1 5.80308C14.0838 5.7974 14.0753 5.79816 14.0783 5.8201C14.0891 5.89764 14.1004 5.97519 14.1078 6.05311C14.1284 6.2708 14.1201 6.48641 14.0512 6.69635C14.0178 6.79848 13.9703 6.89419 13.9113 6.98421C13.8905 7.01599 13.8644 7.04303 13.8354 7.06724C13.8265 7.06119 13.8311 7.05325 13.8307 7.04682C13.8271 6.94241 13.8421 6.83763 13.833 6.7338C13.8262 6.65701 13.8377 6.5876 13.8678 6.51895C13.8691 6.51592 13.8693 6.51252 13.8708 6.50627C13.839 6.51043 13.8315 6.54107 13.8059 6.55734C13.8038 6.51857 13.8016 6.48339 13.7999 6.44802C13.7987 6.42551 13.7986 6.40301 13.7976 6.3805C13.7959 6.34248 13.7908 6.30693 13.7664 6.27421C13.7344 6.23109 13.7401 6.17624 13.7308 6.12612C13.7295 6.1195 13.7337 6.10985 13.7261 6.10664C13.7172 6.10285 13.7121 6.1125 13.7061 6.11742C13.6722 6.14598 13.6705 6.18872 13.658 6.22674C13.6255 6.32546 13.6308 6.42741 13.6346 6.52916C13.6397 6.66931 13.6435 6.80964 13.6488 6.94998C13.6616 7.29345 13.6699 7.6371 13.6718 7.98094C13.6726 8.09802 13.6741 8.2149 13.6785 8.33197C13.6817 8.41519 13.7008 8.49557 13.7375 8.57123C13.7725 8.64329 13.7747 8.7161 13.7431 8.79043C13.7038 8.88292 13.7153 8.97219 13.767 9.05616C13.8046 9.11744 13.8466 9.17607 13.8865 9.23584C13.8995 9.25532 13.9122 9.27518 13.9198 9.2975C13.9372 9.348 13.9179 9.38507 13.8665 9.39887C13.8097 9.41419 13.7518 9.42289 13.6932 9.42384C13.5275 9.4263 13.3618 9.42951 13.1962 9.42497C13.1392 9.42346 13.0833 9.41438 13.029 9.39755C12.9756 9.38109 12.9582 9.34421 12.9798 9.29258C13.0015 9.24076 13.0354 9.19612 13.0676 9.15054C13.125 9.06903 13.1674 8.98202 13.1693 8.87951C13.1703 8.8328 13.1621 8.78816 13.1417 8.74618C13.1156 8.69265 13.1167 8.64007 13.1464 8.58882C13.1981 8.49992 13.2064 8.40139 13.2102 8.30209C13.2209 8.01442 13.2264 7.72637 13.2321 7.43851C13.2368 7.19396 13.2506 6.9496 13.2593 6.70505C13.2646 6.55299 13.2578 6.40093 13.2531 6.24886C13.2518 6.19591 13.2185 6.13633 13.1788 6.10701Z" fill="#127043"/>
<path d="M17 8.89527C16.959 8.90605 16.9202 8.90624 16.8818 8.90984C16.7025 8.9261 16.523 8.93802 16.3445 8.96279C16.1128 8.99495 15.8824 9.03485 15.6555 9.09254C15.4527 9.14398 15.2571 9.21566 15.0655 9.29945C14.828 9.40366 14.5965 9.51903 14.3833 9.66807C14.1961 9.79895 14.0308 9.95555 13.8698 10.1169C13.8324 10.1545 13.7955 10.1927 13.7596 10.2317C13.7327 10.2606 13.7322 10.2682 13.7562 10.299C13.8265 10.3902 13.8975 10.4808 13.969 10.571C14.0713 10.7002 14.1846 10.8197 14.2967 10.94C14.3115 10.9557 14.3281 10.9695 14.3434 10.9846C14.3569 10.9981 14.3637 10.9937 14.3693 10.9776C14.3968 10.9007 14.425 10.8237 14.4528 10.7469C14.4645 10.7147 14.4773 10.6833 14.4961 10.6542C14.5398 10.5859 14.6056 10.5683 14.6748 10.61C14.7442 10.6518 14.7766 10.7145 14.7709 10.7959C14.7684 10.8322 14.7455 10.8575 14.7035 10.8666C14.6043 10.888 14.5592 10.9576 14.5394 11.0487C14.5214 11.1314 14.5394 11.2044 14.5999 11.2674C14.657 11.3266 14.7157 11.3831 14.7856 11.4268C14.8465 11.4648 14.8609 11.4609 14.8929 11.3971C14.9114 11.3601 14.9305 11.3232 14.9627 11.2956C15.0436 11.226 15.1688 11.211 15.2657 11.326C15.3392 11.4134 15.3583 11.5168 15.3472 11.6273C15.34 11.698 15.3135 11.7622 15.2674 11.8159C15.1923 11.9034 15.0926 11.9225 14.9833 11.9114C14.8683 11.8997 14.7726 11.8442 14.6793 11.7813C14.5734 11.7098 14.466 11.6405 14.3591 11.5707C14.327 11.5498 14.326 11.5505 14.298 11.5781C14.2328 11.6426 14.1744 11.7143 14.1025 11.7716C14.007 11.8478 13.8604 11.8408 13.7823 11.7555C13.701 11.6666 13.6964 11.532 13.8131 11.4374C13.8326 11.4217 13.8551 11.4213 13.8767 11.4331C13.9145 11.4537 13.951 11.4769 13.9896 11.4962C14.0401 11.5216 14.0913 11.5091 14.1278 11.4658C14.1505 11.4389 14.1539 11.4094 14.1399 11.3778C14.115 11.3217 14.0726 11.2783 14.0321 11.2339C13.8566 11.0408 13.6809 10.8483 13.505 10.6555C13.4882 10.637 13.4721 10.6088 13.4496 10.6071C13.428 10.6054 13.4131 10.6355 13.3959 10.6519C13.2425 10.7991 13.102 10.9583 12.9631 11.1191C12.9102 11.1804 12.858 11.2422 12.8052 11.3037C12.7874 11.3243 12.7725 11.3466 12.7621 11.3718C12.7468 11.4083 12.7504 11.4425 12.7774 11.4722C12.8058 11.5034 12.8404 11.5163 12.8822 11.503C12.9185 11.4917 12.9499 11.4699 12.9836 11.4529C12.9979 11.4455 13.0123 11.4382 13.0273 11.4321C13.052 11.4221 13.0757 11.4255 13.0952 11.4437C13.1538 11.4983 13.175 11.5672 13.1632 11.6447C13.151 11.7255 13.111 11.79 13.0295 11.8157C12.9535 11.8397 12.882 11.8159 12.8141 11.7805C12.7413 11.7425 12.6885 11.6825 12.639 11.619C12.624 11.5999 12.6068 11.5825 12.5928 11.5626C12.5822 11.5475 12.5728 11.5498 12.5592 11.5571C12.4831 11.5986 12.4148 11.6517 12.3432 11.6999C12.273 11.747 12.2066 11.8 12.1317 11.8399C12.0443 11.8864 11.9511 11.9097 11.8514 11.9061C11.7181 11.9014 11.618 11.8221 11.5715 11.6831C11.5237 11.5403 11.5653 11.3894 11.6795 11.2914C11.7705 11.2135 11.8875 11.2252 11.9621 11.3196C11.9884 11.3529 12.0105 11.3888 12.0332 11.4244C12.0544 11.4573 12.0604 11.4603 12.0935 11.4414C12.1934 11.3848 12.2773 11.3092 12.3481 11.2192C12.3717 11.1893 12.3763 11.153 12.3662 11.1165C12.3519 11.0644 12.3354 11.0132 12.3205 10.9614C12.3076 10.9171 12.2798 10.8884 12.2354 10.8755C12.2293 10.8738 12.2236 10.8711 12.2176 10.8693C12.1419 10.8454 12.1221 10.8127 12.1361 10.7338C12.1533 10.6372 12.2465 10.5755 12.3405 10.5984C12.3836 10.609 12.4113 10.6361 12.4256 10.6771C12.4563 10.7645 12.4863 10.852 12.517 10.9394C12.5376 10.9986 12.5497 11.0016 12.5917 10.9553C12.7804 10.7463 12.9628 10.5317 13.1345 10.3085C13.1574 10.2786 13.1566 10.2716 13.1347 10.2391C13.0868 10.1681 13.0235 10.1118 12.963 10.053C12.8215 9.91546 12.6724 9.78722 12.5151 9.66788C12.3749 9.56159 12.2191 9.48367 12.0621 9.40745C11.8841 9.32101 11.7028 9.24195 11.5161 9.17633C11.2679 9.08895 11.0158 9.01745 10.7548 8.98019C10.6007 8.95825 10.4458 8.94331 10.2911 8.9261C10.2033 8.91627 10.1159 8.90454 10.0284 8.89338C10.0185 8.89206 10.0085 8.89092 10 8.8792C10.0297 8.86634 10.0609 8.86369 10.091 8.86218C10.348 8.84894 10.6037 8.81716 10.8617 8.82057C11.1641 8.82454 11.4635 8.85329 11.7578 8.92572C11.9568 8.97471 12.1474 9.04658 12.3318 9.13528C12.5151 9.22361 12.6957 9.31628 12.8614 9.43563C13.0034 9.53776 13.1362 9.65086 13.2627 9.77134C13.3142 9.82032 13.3658 9.86931 13.4144 9.92094C13.4343 9.94212 13.4471 9.93853 13.4647 9.92227C13.5243 9.86742 13.585 9.8137 13.6436 9.75791C13.8925 9.5213 14.1691 9.32423 14.477 9.17141C14.6684 9.07627 14.8671 9.00081 15.0724 8.94218C15.2895 8.87995 15.5111 8.84572 15.7364 8.83078C15.9514 8.81659 16.1663 8.82321 16.3812 8.83418C16.4952 8.84005 16.6094 8.8444 16.7235 8.85272C16.805 8.85877 16.8863 8.87012 16.9677 8.87939C16.9775 8.88147 16.9885 8.88317 17 8.89527ZM15.0039 11.7283C15.0147 11.7283 15.0255 11.7289 15.0362 11.7281C15.1274 11.7217 15.1794 11.6829 15.2004 11.6059C15.2172 11.5443 15.1864 11.4565 15.1346 11.4196C15.0898 11.3877 15.0332 11.4094 15.0099 11.469C14.9944 11.5085 14.9855 11.5496 14.9831 11.5925C14.9808 11.6349 14.9632 11.6479 14.9214 11.6434C14.9042 11.6415 14.8883 11.6352 14.8723 11.6296C14.7728 11.5948 14.6933 11.532 14.6218 11.4563C14.5823 11.4145 14.5386 11.3767 14.4976 11.3364C14.483 11.3222 14.4755 11.3253 14.4662 11.3417C14.4442 11.3801 14.4465 11.4124 14.4766 11.4454C14.5246 11.4977 14.5761 11.5467 14.6338 11.5887C14.7442 11.6693 14.8647 11.7243 15.0039 11.7283ZM11.7064 11.5626C11.7064 11.6734 11.755 11.7291 11.8622 11.7326C11.9685 11.7362 12.0693 11.7077 12.1616 11.6549C12.263 11.5968 12.3458 11.5144 12.4328 11.438C12.4565 11.4172 12.4601 11.3886 12.4493 11.3585C12.4383 11.3279 12.4353 11.326 12.4088 11.3432C12.3954 11.3521 12.3823 11.3619 12.3702 11.3727C12.2955 11.4389 12.2208 11.5049 12.147 11.5723C12.1018 11.6135 12.0506 11.6366 11.9891 11.6385C11.9397 11.64 11.924 11.6275 11.9176 11.5793C11.9129 11.5445 11.9063 11.51 11.9015 11.4752C11.8964 11.4367 11.8758 11.4123 11.8376 11.4051C11.7975 11.3975 11.7642 11.4107 11.741 11.4442C11.7154 11.4807 11.7084 11.5233 11.7064 11.5626ZM13.9009 11.5407C13.8782 11.5405 13.8638 11.5522 13.8559 11.5726C13.8396 11.6144 13.8594 11.6621 13.8997 11.682C13.9731 11.7183 14.0433 11.7069 14.1046 11.6595C14.1842 11.5978 14.247 11.521 14.2876 11.4268C14.3601 11.2592 14.4344 11.0926 14.5086 10.926C14.5284 10.8812 14.5575 10.8441 14.6058 10.8267C14.6218 10.8208 14.6326 10.8089 14.6428 10.7964C14.6653 10.769 14.66 10.7365 14.6292 10.7087C14.6029 10.6848 14.5732 10.686 14.5485 10.7128C14.5237 10.7397 14.5082 10.7724 14.4953 10.8061C14.4403 10.9506 14.3856 11.0951 14.3317 11.2401C14.2903 11.3517 14.2328 11.4535 14.1535 11.5428C14.1212 11.5793 14.0813 11.5921 14.0344 11.5812C14.0143 11.5764 13.9954 11.5673 13.976 11.5605C13.9517 11.552 13.9275 11.5414 13.9009 11.5407ZM12.927 11.6978C12.9493 11.6988 12.9957 11.6825 13.0121 11.668C13.039 11.6445 13.0496 11.5921 13.0335 11.5638C13.0199 11.5399 12.9978 11.5369 12.9512 11.552C12.9213 11.5617 12.8915 11.5717 12.861 11.5794C12.8143 11.5912 12.7738 11.5791 12.7409 11.5435C12.7158 11.5163 12.6936 11.4868 12.6785 11.4527C12.5951 11.2674 12.5102 11.083 12.4391 10.8925C12.416 10.8309 12.3893 10.7711 12.3494 10.7179C12.3358 10.6998 12.3188 10.6898 12.2961 10.6947C12.2713 10.7002 12.2547 10.7151 12.2492 10.741C12.2412 10.7787 12.2548 10.8084 12.2919 10.8242C12.3483 10.8483 12.3859 10.8893 12.409 10.9447C12.4655 11.0799 12.5228 11.2148 12.5771 11.351C12.6201 11.4586 12.6742 11.5573 12.7653 11.6326C12.8122 11.6714 12.8654 11.6946 12.927 11.6978ZM14.268 11.1327C14.2678 11.1121 14.2561 11.0926 14.2394 11.0752C14.1496 10.9808 14.0603 10.8859 13.9701 10.7919C13.9366 10.7569 13.9054 10.7193 13.8657 10.6907C13.8568 10.6843 13.846 10.6803 13.8385 10.6869C13.8309 10.6935 13.842 10.7005 13.8449 10.7074C13.8473 10.713 13.8509 10.7183 13.8547 10.7234C13.9627 10.8761 14.0709 11.0285 14.1791 11.1811C14.1885 11.1946 14.1997 11.2059 14.2148 11.2131C14.2226 11.2167 14.2311 11.2199 14.2362 11.2106C14.2494 11.1872 14.2665 11.1654 14.268 11.1327ZM13.0413 10.6892C13.036 10.6852 13.0333 10.6883 13.0301 10.6896C12.9951 10.7036 12.9734 10.7327 12.9491 10.7592C12.8514 10.8658 12.7538 10.9725 12.656 11.0792C12.6435 11.0928 12.6344 11.1081 12.6305 11.1261C12.6238 11.1558 12.6435 11.1923 12.6753 11.2042C12.6999 11.2135 12.7025 11.1847 12.7169 11.1756C12.7177 11.1753 12.718 11.1743 12.7186 11.1736C12.8228 11.0425 12.9166 10.9044 13.0038 10.7616C13.0182 10.7384 13.0331 10.7151 13.0413 10.6892Z" fill="#A67C1D"/>
<path d="M22 16.0078V0.999483" stroke="black" stroke-width="0.5"/>
</g>
<rect x="0.55" y="0.55" width="25.9" height="14.9" rx="1.45" stroke="black" stroke-width="1.1"/>
<defs>
<clipPath id="clip0_29357_45260">
<rect width="27" height="16" rx="2" fill="white"/>
</clipPath>
</defs>
</svg>
