<svg width="28" height="20" viewBox="0 0 28 20" fill="none" xmlns="http://www.w3.org/2000/svg">
<g clip-path="url(#clip0_29357_45260)">
<rect width="28" height="20" rx="2" fill="white"/>
<path d="M22.4062 20.0195L22.4063 0.990375" stroke="black"/>
<path d="M11.6045 7.6559C11.6014 7.66687 11.5982 7.67712 11.5962 7.68785C11.5943 7.69691 11.5905 7.70358 11.5826 7.70072C11.551 7.68975 11.5546 7.71407 11.5577 7.73553C11.566 7.79632 11.5565 7.85497 11.5443 7.91385C11.5417 7.92673 11.538 7.93555 11.5259 7.93364C11.506 7.93054 11.5064 7.94246 11.51 7.95939C11.5153 7.98347 11.5202 8.00778 11.5236 8.03234C11.5263 8.05189 11.525 8.07096 11.5088 8.08407C11.4993 8.09194 11.4981 8.10434 11.4973 8.11721C11.4961 8.13795 11.5025 8.15726 11.5044 8.18229C11.4801 8.16751 11.4726 8.14153 11.4608 8.11983C11.4559 8.11077 11.4529 8.09385 11.4424 8.09861C11.432 8.10338 11.4381 8.1184 11.4407 8.12889C11.4547 8.18539 11.4685 8.24213 11.4829 8.29863C11.4894 8.32367 11.4892 8.34608 11.4679 8.3611C11.4533 8.37135 11.4588 8.38637 11.4606 8.40067C11.4778 8.53203 11.4953 8.66315 11.4916 8.79666C11.4912 8.81311 11.4981 8.8379 11.4853 8.8441C11.4681 8.85268 11.4537 8.83242 11.4426 8.81716C11.3767 8.72704 11.325 8.6262 11.2861 8.51677C11.197 8.26502 11.1676 8.0023 11.1803 7.731C11.1864 7.60274 11.2111 7.4771 11.2189 7.34931C11.2207 7.31761 11.2239 7.28614 11.2215 7.25419C11.2207 7.24322 11.2205 7.22916 11.2089 7.22701C11.1992 7.22534 11.1907 7.23297 11.1844 7.24227C11.1735 7.25848 11.1741 7.27827 11.1708 7.2971C11.1676 7.3157 11.167 7.34169 11.1425 7.3157C11.1366 7.3095 11.1297 7.30855 11.1244 7.31546C11.109 7.33501 11.092 7.3312 11.0707 7.31641C11.0707 7.36338 11.0709 7.40462 11.0705 7.44587C11.0705 7.45326 11.074 7.46422 11.0657 7.46685C11.0549 7.47018 11.0551 7.45707 11.0523 7.44944C11.0505 7.4442 11.05 7.43824 11.0482 7.43299C11.0448 7.42298 11.0468 7.40462 11.0361 7.40558C11.0225 7.40677 11.0223 7.4256 11.0219 7.43824C11.0211 7.47352 11.0255 7.50833 11.0316 7.5429C11.0342 7.55816 11.0351 7.57389 11.0369 7.59153C11.0111 7.58772 11.0038 7.56698 10.9968 7.54576C10.9903 7.52645 10.9893 7.50308 10.9684 7.49212C10.9552 7.53551 10.9641 7.5789 10.9607 7.62109C10.9597 7.63468 10.9662 7.65733 10.953 7.66019C10.9374 7.66329 10.936 7.64017 10.9309 7.62586C10.9256 7.61084 10.9252 7.58438 10.909 7.58748C10.8956 7.5901 10.8987 7.61561 10.8983 7.63182C10.8975 7.66877 10.9094 7.70287 10.9167 7.73815C10.9204 7.75555 10.9236 7.77319 10.9281 7.79608C10.9169 7.79107 10.9092 7.78845 10.9021 7.78464C10.8774 7.77153 10.8697 7.77606 10.8748 7.80752C10.8819 7.85187 10.893 7.8955 10.9039 7.93888C10.9082 7.95605 10.9106 7.96749 10.8904 7.96749C10.8707 7.96749 10.8703 7.98466 10.8711 8.00111C10.8725 8.02876 10.8845 8.05308 10.891 8.07907C10.9017 8.12174 10.9062 8.16322 10.8863 8.20399C10.8804 8.21615 10.8796 8.23021 10.8808 8.2438C10.8823 8.26001 10.8778 8.2705 10.8636 8.27313C10.8464 8.27646 10.849 8.29029 10.8513 8.30412C10.8549 8.327 10.8616 8.34941 10.8604 8.37349C10.8478 8.37492 10.844 8.36467 10.8403 8.35609C10.7842 8.22568 10.7208 8.09957 10.6723 7.96463C10.5856 7.72337 10.6103 7.49283 10.722 7.27112C10.7554 7.2046 10.7941 7.14238 10.8326 7.08016C10.8606 7.03486 10.8863 6.98861 10.892 6.93116C10.8942 6.90779 10.8954 6.88467 10.8853 6.86297C10.874 6.86679 10.8715 6.87799 10.8675 6.8861C10.8571 6.9066 10.8464 6.91709 10.8278 6.89802C10.8138 6.88371 10.8083 6.89396 10.8055 6.91018C10.8032 6.92233 10.7992 6.93426 10.7984 6.94665C10.7969 6.97049 10.7872 6.98194 10.767 6.97931C10.7524 6.97741 10.7469 6.98694 10.7422 7.00125C10.7303 7.03939 10.7173 7.07706 10.7029 7.12045C10.693 7.09613 10.6849 7.07634 10.6758 7.05393C10.6452 7.09685 10.647 7.15382 10.6211 7.19936C10.6111 7.18482 10.6024 7.17194 10.5917 7.15621C10.5817 7.1872 10.5712 7.21509 10.5639 7.24394C10.5584 7.26587 10.5491 7.27136 10.5325 7.26254C10.5173 7.25443 10.5122 7.2623 10.5096 7.27922C10.5015 7.3312 10.4922 7.38269 10.4829 7.43681C10.4654 7.42393 10.4634 7.40033 10.4478 7.3877C10.432 7.41154 10.4318 7.43943 10.4328 7.46542C10.4354 7.52764 10.4111 7.57961 10.3907 7.63325C10.3888 7.63802 10.3842 7.64589 10.3819 7.64541C10.3485 7.63802 10.3552 7.66925 10.3538 7.68832C10.3475 7.76843 10.3359 7.84829 10.3465 7.92911C10.3495 7.95319 10.3451 7.97608 10.3337 7.99753C10.323 8.0178 10.3149 8.01422 10.3096 7.99491C10.2999 7.95939 10.291 7.92339 10.2826 7.88739C10.2506 7.74673 10.2289 7.60369 10.2285 7.45779C10.2279 7.22749 10.2974 7.03176 10.4413 6.87203C10.5819 6.71588 10.738 6.59072 10.9236 6.52086C10.9712 6.50298 11.0207 6.4913 11.0665 6.46722C11.0734 6.46365 11.0843 6.4615 11.0835 6.45173C11.0827 6.44171 11.0725 6.43409 11.064 6.43456C11.0075 6.43814 10.9485 6.41764 10.8956 6.46055C10.8699 6.48153 10.8417 6.48892 10.813 6.46174C10.7992 6.44863 10.7266 6.46722 10.7135 6.48415C10.7045 6.49559 10.6958 6.50751 10.6877 6.51848C10.6762 6.5149 10.6798 6.50489 10.6772 6.49845C10.6733 6.48868 10.6772 6.47271 10.6669 6.46889C10.6545 6.46436 10.6448 6.47652 10.6371 6.48582C10.6277 6.49702 10.6204 6.51061 10.6127 6.52373C10.6018 6.54208 10.5901 6.554 10.57 6.53946C10.5522 6.52659 10.5436 6.54423 10.5351 6.55734C10.5254 6.5726 10.5163 6.57903 10.5033 6.56163C10.4936 6.54828 10.4869 6.5509 10.4812 6.56759C10.4727 6.59286 10.4616 6.6167 10.4531 6.64197C10.4474 6.65866 10.4405 6.66367 10.4277 6.65222C10.4135 6.63959 10.4034 6.6446 10.3951 6.66176C10.3874 6.67726 10.3769 6.69085 10.3716 6.70849C10.3627 6.73805 10.3465 6.76141 10.3258 6.7812C10.3072 6.79908 10.2889 6.81768 10.2758 6.84199C10.2729 6.84748 10.2674 6.85511 10.2634 6.85487C10.2287 6.85224 10.2302 6.88371 10.2251 6.90898C10.22 6.93425 10.2148 6.95976 10.2103 6.98527C10.206 7.01031 10.2014 7.03319 10.1767 7.0432C10.1617 7.04916 10.1623 7.06871 10.1625 7.08469C10.1631 7.11067 10.158 7.14071 10.1357 7.14071C10.111 7.14071 10.1106 7.10614 10.1116 7.08373C10.1274 6.75808 10.2405 6.49464 10.4743 6.31083C10.6352 6.18448 10.8156 6.12464 11.0067 6.10294C11.0748 6.09532 11.1427 6.0853 11.2093 6.06528C11.2322 6.05836 11.2529 6.04811 11.2669 6.01736C11.1759 6.01021 11.089 5.9723 10.9992 6.00615C10.988 6.01044 10.9759 6.01712 10.9655 6.00925C10.9333 5.98493 10.9076 6.00258 10.8812 6.02356C10.8735 6.02975 10.8628 6.0431 10.8547 6.02522C10.844 6.00138 10.8302 6.00472 10.8144 6.01521C10.7582 6.05264 10.694 6.06814 10.6338 6.0834C10.5499 6.10437 10.4956 6.17613 10.4237 6.21499C10.4146 6.22 10.4054 6.23717 10.3965 6.22691C10.3858 6.21476 10.4008 6.2026 10.4063 6.19282C10.4952 6.03619 10.6093 5.90936 10.7396 5.80089C10.8865 5.67859 11.0498 5.63472 11.2274 5.65427C11.3137 5.66381 11.4002 5.6743 11.4865 5.68288C11.5025 5.68455 11.5277 5.69313 11.5325 5.67239C11.5362 5.65737 11.5115 5.6464 11.4963 5.64068C11.4545 5.62471 11.4221 5.58728 11.3806 5.57202C11.3392 5.55676 11.2987 5.53984 11.2606 5.51528C11.2324 5.49716 11.1939 5.5098 11.1708 5.47499C11.1696 5.47308 11.1635 5.47475 11.1601 5.47642C11.0944 5.50813 11.0241 5.51647 10.9556 5.53388C10.9366 5.53864 10.9204 5.55104 10.8991 5.56201C10.9021 5.52529 10.9195 5.50312 10.9388 5.48405C11.0051 5.4192 11.0851 5.3894 11.167 5.36723C11.3271 5.32432 11.4748 5.36199 11.6118 5.46569C11.6612 5.50312 11.7117 5.53841 11.7682 5.56034C11.7854 5.56701 11.7899 5.56511 11.7901 5.54341C11.7913 5.45592 11.7988 5.36914 11.8087 5.28236C11.8114 5.25947 11.8179 5.24946 11.8371 5.25161C11.859 5.25399 11.8657 5.24374 11.8675 5.21704C11.8716 5.15291 11.8635 5.08735 11.8817 5.02465C11.8843 5.01535 11.8825 5.00152 11.8932 5.00009C11.9058 4.99866 11.9064 5.01416 11.9103 5.02369C11.9267 5.06398 11.92 5.10857 11.9259 5.15076C11.9287 5.17079 11.9279 5.19153 11.9297 5.21179C11.9313 5.2311 11.9336 5.24922 11.9518 5.25947C11.9652 5.2671 11.967 5.28475 11.9672 5.30096C11.9676 5.32146 11.9676 5.34172 11.968 5.36223C11.9688 5.39083 11.9725 5.4173 11.9895 5.44114C12.0075 5.46665 12.009 5.49931 12.0079 5.53173C12.0063 5.58704 12.0094 5.59133 12.0523 5.5694C12.1115 5.53912 12.168 5.50193 12.2227 5.46164C12.3352 5.37915 12.4558 5.34482 12.5875 5.37224C12.6722 5.38988 12.7488 5.4316 12.8228 5.48143C12.8449 5.49621 12.8613 5.5191 12.8716 5.54699C12.8803 5.57011 12.874 5.58132 12.8526 5.5787C12.8432 5.5775 12.8341 5.5725 12.825 5.56892C12.7612 5.5446 12.6943 5.51814 12.6298 5.54246C12.5802 5.56129 12.5328 5.57226 12.4811 5.57393C12.4392 5.57536 12.4071 5.61326 12.3672 5.63639C12.4128 5.67763 12.4625 5.67835 12.5123 5.67549C12.5739 5.67167 12.6353 5.66333 12.6969 5.66166C12.8345 5.65785 12.9573 5.70863 13.0621 5.81305C13.1444 5.89506 13.2242 5.98088 13.2994 6.07219C13.3316 6.11153 13.3565 6.1573 13.377 6.21118C13.3565 6.20689 13.3421 6.19425 13.3273 6.184C13.2807 6.15182 13.2323 6.12702 13.1794 6.10938C13.132 6.09365 13.0862 6.06671 13.043 6.03667C13.028 6.02618 13.0122 6.0176 12.9952 6.01307C12.9711 6.00687 12.9476 6.00353 12.9342 6.03667C12.9287 6.05026 12.9208 6.04978 12.9111 6.04096C12.9004 6.03118 12.8884 6.02356 12.8777 6.01426C12.8635 6.00186 12.8509 5.99256 12.8392 6.01879C12.8317 6.03548 12.8199 6.02475 12.8116 6.01879C12.7826 5.99805 12.7547 5.98017 12.7214 6.01021C12.7148 6.01617 12.7008 6.01187 12.6902 6.01116C12.6578 6.00901 12.6266 6.01259 12.5992 6.03619C12.5915 6.04287 12.5836 6.04477 12.5747 6.04072C12.5721 6.03953 12.5693 6.03834 12.5664 6.03786C12.5504 6.03571 12.5166 6.06361 12.5194 6.07934C12.5227 6.09794 12.5405 6.09698 12.5522 6.09865C12.6088 6.10628 12.6655 6.11153 12.7221 6.11773C12.8363 6.13012 12.9508 6.14037 13.0617 6.17852C13.3373 6.27293 13.5353 6.46913 13.6335 6.79169C13.6712 6.91566 13.6797 7.04511 13.6688 7.18196C13.6491 7.1605 13.6412 7.13618 13.6307 7.11449C13.5888 7.02771 13.5476 6.94069 13.5063 6.85344C13.4937 6.82697 13.4803 6.80218 13.4512 6.80027C13.4402 6.79956 13.4404 6.79002 13.4388 6.7812C13.4246 6.70157 13.377 6.65318 13.3243 6.60884C13.3219 6.60693 13.3192 6.6055 13.3166 6.60407C13.2986 6.59477 13.2755 6.60216 13.2607 6.5807C13.2485 6.5633 13.2358 6.54661 13.223 6.52921C13.2019 6.56497 13.2019 6.56497 13.1784 6.53159C13.1748 6.52635 13.1709 6.5211 13.1673 6.51586C13.1421 6.47986 13.1415 6.47938 13.1174 6.51824C13.1103 6.52945 13.1059 6.53207 13.0982 6.52086C13.0921 6.51204 13.0856 6.5037 13.0799 6.4944C13.0684 6.47581 13.0603 6.46031 13.0351 6.47867C13.0167 6.49226 12.9889 6.47676 12.9664 6.49488C12.9585 6.50132 12.9456 6.47843 12.934 6.4708C12.9294 6.4677 12.9253 6.45936 12.9192 6.46365C12.9138 6.46746 12.9146 6.47557 12.9148 6.482C12.9158 6.51467 12.9316 6.53708 12.9531 6.554C13.0339 6.61789 13.1146 6.68179 13.1962 6.74425C13.303 6.82602 13.4003 6.91876 13.4643 7.0525C13.5365 7.20293 13.5563 7.366 13.5531 7.53503C13.5498 7.70692 13.515 7.87142 13.4702 8.03377C13.4635 8.05761 13.4576 8.05332 13.4463 8.03949C13.423 8.01136 13.4238 7.97846 13.4311 7.94413C13.4341 7.92983 13.4388 7.916 13.4441 7.90265C13.4518 7.88334 13.4481 7.86927 13.4315 7.86164C13.4135 7.8533 13.4112 7.83733 13.4127 7.81754C13.4143 7.79489 13.4143 7.77224 13.4157 7.74959C13.4171 7.72814 13.4189 7.70835 13.3912 7.71383C13.3804 7.71598 13.3798 7.70477 13.3798 7.69524C13.3798 7.66162 13.3715 7.63087 13.361 7.59988C13.3494 7.56555 13.3608 7.52812 13.3543 7.49236C13.3504 7.47162 13.3496 7.44992 13.3476 7.42894C13.3438 7.42894 13.3415 7.42823 13.3399 7.42894C13.3004 7.45135 13.3004 7.45159 13.2965 7.39938C13.2953 7.38364 13.2929 7.36767 13.2929 7.35194C13.2931 7.31951 13.288 7.29639 13.253 7.30902C13.2392 7.31403 13.2382 7.30044 13.236 7.289C13.2278 7.24656 13.2189 7.20413 13.2092 7.15573C13.195 7.18005 13.1841 7.19888 13.1701 7.22296C13.1549 7.16884 13.1413 7.12021 13.1269 7.06871C13.12 7.07587 13.1156 7.07968 13.1117 7.08421C13.0799 7.12069 13.0799 7.12069 13.0625 7.07062C13.0566 7.05393 13.0501 7.03725 13.0455 7.02008C13.0394 6.99719 13.0319 6.98146 13.0074 6.9786C12.9851 6.97598 12.977 6.94904 12.9691 6.92734C12.9626 6.90994 12.9563 6.90016 12.9373 6.9035C12.9095 6.90851 12.89 6.89039 12.8748 6.86393C12.8661 6.84891 12.8566 6.82173 12.8404 6.83198C12.823 6.84295 12.8309 6.86965 12.8372 6.8911C12.8526 6.94403 12.8854 6.9836 12.9125 7.02723C12.9679 7.11592 13.0305 7.19841 13.0775 7.294C13.1746 7.49188 13.1881 7.70144 13.1367 7.91862C13.0994 8.07573 13.0347 8.21662 12.9523 8.34703C12.9405 8.36563 12.9289 8.38541 12.9056 8.39662C12.9073 8.37731 12.9075 8.36181 12.9099 8.34679C12.9138 8.32271 12.921 8.29816 12.8868 8.29935C12.8769 8.29959 12.8783 8.29029 12.8807 8.28171C12.8854 8.26454 12.8896 8.24714 12.8937 8.2295C12.8971 8.21519 12.9016 8.19707 12.8939 8.18635C12.8692 8.15106 12.8836 8.1184 12.8945 8.08479C12.9026 8.05928 12.9099 8.03353 12.9184 8.00802C12.9253 7.98728 12.92 7.98013 12.9022 7.98537C12.8813 7.99133 12.8777 7.98323 12.8825 7.95939C12.8939 7.9036 12.9026 7.8471 12.9125 7.79131C12.8943 7.78345 12.8795 7.81754 12.8684 7.79823C12.8611 7.78559 12.8684 7.76104 12.8694 7.74196C12.8706 7.72051 12.8718 7.69929 12.8732 7.67545C12.8538 7.68069 12.8487 7.70406 12.8286 7.71645C12.8286 7.64803 12.8286 7.58438 12.8286 7.5181C12.8025 7.52526 12.8021 7.5491 12.7938 7.56531C12.791 7.57079 12.7901 7.57985 12.7832 7.58009C12.7747 7.58056 12.7729 7.57079 12.7711 7.56388C12.7648 7.5398 12.7664 7.51453 12.7648 7.48973C12.7626 7.45445 12.7593 7.45135 12.735 7.46875C12.72 7.47948 12.7192 7.47042 12.7178 7.45731C12.7154 7.43371 12.7125 7.41011 12.7103 7.38627C12.7087 7.37029 12.7054 7.35814 12.6892 7.37053C12.672 7.38364 12.6659 7.37172 12.6604 7.3548C12.6477 7.31594 12.626 7.28709 12.5915 7.27279C12.5741 7.26563 12.565 7.26659 12.5682 7.29424C12.5798 7.39199 12.592 7.48973 12.5999 7.58796C12.6219 7.86236 12.613 8.13414 12.5393 8.39876C12.5034 8.5275 12.4525 8.64813 12.3893 8.76161C12.367 8.80166 12.3391 8.83576 12.3081 8.86627C12.2985 8.85864 12.3034 8.84863 12.303 8.84052C12.2991 8.70893 12.3151 8.57685 12.3054 8.44597C12.2981 8.34918 12.3105 8.26168 12.3427 8.17514C12.3441 8.17133 12.3443 8.16704 12.3459 8.15917C12.3119 8.16441 12.3038 8.20303 12.2764 8.22354C12.2742 8.17467 12.2718 8.13032 12.27 8.08574C12.2687 8.05737 12.2685 8.029 12.2675 8.00063C12.2657 7.95271 12.2602 7.90789 12.2341 7.86665C12.1998 7.81229 12.2059 7.74316 12.196 7.67998C12.1946 7.67163 12.199 7.65948 12.1909 7.65542C12.1814 7.65066 12.1759 7.66281 12.1694 7.66901C12.1332 7.70501 12.1313 7.75889 12.118 7.80681C12.0831 7.93126 12.0888 8.05975 12.0928 8.18802C12.0983 8.36467 12.1024 8.54157 12.108 8.71846C12.1218 9.1514 12.1307 9.58458 12.1328 10.018C12.1336 10.1656 12.1352 10.3129 12.1399 10.4605C12.1433 10.5654 12.1638 10.6667 12.2031 10.7621C12.2406 10.8529 12.243 10.9447 12.2092 11.0384C12.167 11.1549 12.1794 11.2675 12.2347 11.3733C12.275 11.4506 12.32 11.5245 12.3628 11.5998C12.3767 11.6244 12.3903 11.6494 12.3984 11.6775C12.4171 11.7412 12.3964 11.7879 12.3413 11.8053C12.2805 11.8246 12.2185 11.8356 12.1557 11.8368C11.9782 11.8399 11.8006 11.8439 11.6231 11.8382C11.5621 11.8363 11.5021 11.8249 11.444 11.8036C11.3868 11.7829 11.3682 11.7364 11.3913 11.6713C11.4146 11.606 11.4509 11.5497 11.4853 11.4923C11.5469 11.3895 11.5923 11.2799 11.5943 11.1506C11.5954 11.0918 11.5866 11.0355 11.5648 10.9826C11.5368 10.9151 11.538 10.8488 11.5698 10.7842C11.6251 10.6722 11.6341 10.548 11.6381 10.4228C11.6497 10.0602 11.6555 9.69711 11.6616 9.33426C11.6667 9.026 11.6815 8.71799 11.6908 8.40973C11.6965 8.21805 11.6892 8.02638 11.6841 7.8347C11.6827 7.76795 11.647 7.69285 11.6045 7.6559Z" fill="#127043"/>
<path d="M15.6992 11.1687C15.6552 11.1823 15.6137 11.1825 15.5726 11.1871C15.3805 11.2076 15.1882 11.2226 14.9969 11.2538C14.7486 11.2943 14.5018 11.3446 14.2586 11.4174C14.0414 11.4822 13.8319 11.5726 13.6266 11.6782C13.3721 11.8095 13.124 11.955 12.8957 12.1428C12.695 12.3078 12.5179 12.5052 12.3455 12.7086C12.3054 12.756 12.2658 12.8042 12.2273 12.8533C12.1986 12.8897 12.198 12.8993 12.2237 12.9381C12.2991 13.053 12.3751 13.1672 12.4517 13.281C12.5613 13.4438 12.6827 13.5945 12.8029 13.7461C12.8187 13.7659 12.8365 13.7833 12.8529 13.8023C12.8673 13.8193 12.8746 13.8138 12.8807 13.7935C12.91 13.6965 12.9402 13.5995 12.97 13.5027C12.9826 13.4621 12.9964 13.4226 13.0164 13.3859C13.0632 13.2998 13.1338 13.2776 13.2079 13.3301C13.2823 13.3828 13.317 13.4619 13.3109 13.5644C13.3082 13.6102 13.2837 13.6421 13.2387 13.6536C13.1323 13.6805 13.0841 13.7683 13.0628 13.8832C13.0436 13.9873 13.0628 14.0794 13.1277 14.1588C13.1889 14.2334 13.2517 14.3047 13.3267 14.3597C13.3919 14.4076 13.4073 14.4026 13.4416 14.3223C13.4614 14.2756 13.4819 14.2291 13.5164 14.1943C13.6031 14.1065 13.7372 14.0877 13.841 14.2327C13.9198 14.3428 13.9403 14.4732 13.9283 14.6124C13.9206 14.7016 13.8923 14.7824 13.8428 14.8501C13.7624 14.9605 13.6556 14.9846 13.5384 14.9705C13.4152 14.9557 13.3127 14.8859 13.2128 14.8065C13.0993 14.7164 12.9842 14.6291 12.8697 14.5412C12.8353 14.5147 12.8343 14.5156 12.8043 14.5505C12.7344 14.6317 12.6717 14.7221 12.5947 14.7943C12.4924 14.8904 12.3354 14.8816 12.2517 14.7741C12.1645 14.662 12.1597 14.4923 12.2847 14.3731C12.3056 14.3533 12.3297 14.3528 12.3528 14.3676C12.3933 14.3936 12.4324 14.4229 12.4738 14.4472C12.5279 14.4792 12.5828 14.4634 12.6219 14.4088C12.6462 14.375 12.6499 14.3378 12.6349 14.298C12.6081 14.2272 12.5627 14.1726 12.5194 14.1166C12.3313 13.8731 12.143 13.6305 11.9546 13.3875C11.9366 13.3642 11.9193 13.3286 11.8952 13.3265C11.8721 13.3243 11.8561 13.3623 11.8377 13.383C11.6733 13.5685 11.5228 13.7692 11.374 13.9718C11.3173 14.0491 11.2613 14.127 11.2048 14.2045C11.1858 14.2305 11.1698 14.2586 11.1586 14.2904C11.1422 14.3364 11.146 14.3795 11.175 14.4169C11.2054 14.4563 11.2425 14.4725 11.2873 14.4558C11.3262 14.4415 11.3598 14.4141 11.3959 14.3926C11.4113 14.3833 11.4267 14.374 11.4427 14.3664C11.4693 14.3538 11.4946 14.3581 11.5155 14.3809C11.5783 14.4498 11.601 14.5366 11.5884 14.6344C11.5752 14.7362 11.5325 14.8175 11.4451 14.8499C11.3637 14.8802 11.2871 14.8501 11.2143 14.8055C11.1363 14.7576 11.0798 14.6821 11.0267 14.6019C11.0107 14.5779 10.9922 14.5559 10.9772 14.5309C10.9659 14.5118 10.9558 14.5147 10.9412 14.524C10.8597 14.5762 10.7866 14.6432 10.7098 14.704C10.6346 14.7633 10.5634 14.8301 10.4832 14.8804C10.3896 14.939 10.2897 14.9684 10.1829 14.9638C10.04 14.9579 9.93282 14.858 9.88297 14.6828C9.83171 14.5028 9.87629 14.3125 9.99868 14.189C10.0962 14.0908 10.2216 14.1056 10.3014 14.2246C10.3296 14.2665 10.3533 14.3118 10.3776 14.3566C10.4003 14.3981 10.4068 14.4019 10.4423 14.3781C10.5493 14.3068 10.6392 14.2114 10.715 14.098C10.7404 14.0603 10.7452 14.0145 10.7345 13.9685C10.7191 13.903 10.7014 13.8383 10.6854 13.773C10.6717 13.7172 10.6419 13.681 10.5942 13.6648C10.5878 13.6626 10.5817 13.6593 10.5752 13.6569C10.4941 13.6269 10.4729 13.5856 10.4879 13.4862C10.5063 13.3644 10.6062 13.2867 10.7069 13.3155C10.7531 13.3289 10.7827 13.363 10.7981 13.4147C10.8309 13.5248 10.8632 13.6352 10.896 13.7454C10.9181 13.82 10.931 13.8238 10.976 13.7654C11.1783 13.502 11.3736 13.2314 11.5576 12.9501C11.5821 12.9124 11.5813 12.9036 11.5578 12.8626C11.5065 12.7732 11.4387 12.7021 11.3738 12.628C11.2222 12.4547 11.0626 12.293 10.894 12.1426C10.7438 12.0086 10.5768 11.9104 10.4086 11.8143C10.2179 11.7054 10.0236 11.6057 9.8236 11.523C9.55773 11.4128 9.28761 11.3227 9.00796 11.2758C8.84281 11.2481 8.67685 11.2293 8.51109 11.2076C8.41706 11.1952 8.32344 11.1804 8.22962 11.1663C8.21908 11.1647 8.20834 11.1632 8.19922 11.1484C8.23103 11.1322 8.26447 11.1289 8.29669 11.127C8.57208 11.1103 8.84605 11.0702 9.12246 11.0745C9.44648 11.0795 9.76727 11.1158 10.0826 11.2071C10.2958 11.2688 10.5 11.3594 10.6976 11.4712C10.894 11.5826 11.0875 11.6994 11.265 11.8498C11.4172 11.9786 11.5594 12.1211 11.695 12.273C11.7501 12.3347 11.8054 12.3965 11.8575 12.4616C11.8788 12.4883 11.8926 12.4837 11.9114 12.4632C11.9753 12.3941 12.0403 12.3264 12.1031 12.2561C12.3698 11.9578 12.6661 11.7094 12.996 11.5168C13.201 11.3969 13.414 11.3017 13.6339 11.2278C13.8665 11.1494 14.104 11.1062 14.3454 11.0874C14.5758 11.0695 14.806 11.0779 15.0362 11.0917C15.1584 11.0991 15.2808 11.1046 15.403 11.1151C15.4903 11.1227 15.5774 11.137 15.6646 11.1487C15.6751 11.1513 15.6869 11.1534 15.6992 11.1687ZM13.5605 14.7397C13.5721 14.7397 13.5836 14.7405 13.5952 14.7395C13.6929 14.7314 13.7486 14.6825 13.7711 14.5855C13.7891 14.5078 13.7561 14.3972 13.7006 14.3507C13.6525 14.3104 13.5919 14.3378 13.567 14.4129C13.5504 14.4627 13.5409 14.5145 13.5382 14.5686C13.5358 14.622 13.517 14.6384 13.4722 14.6327C13.4537 14.6303 13.4367 14.6225 13.4195 14.6153C13.3129 14.5714 13.2278 14.4923 13.1512 14.3969C13.1088 14.3442 13.062 14.2966 13.0181 14.2458C13.0025 14.2279 12.9943 14.2317 12.9844 14.2524C12.9609 14.3008 12.9633 14.3416 12.9956 14.3831C13.047 14.4491 13.1022 14.5109 13.164 14.5638C13.2823 14.6654 13.4114 14.7347 13.5605 14.7397ZM10.0275 14.5309C10.0275 14.6706 10.0795 14.7407 10.1944 14.7452C10.3083 14.7498 10.4163 14.7138 10.5152 14.6472C10.6238 14.5741 10.7126 14.4701 10.8058 14.3738C10.8311 14.3476 10.835 14.3116 10.8234 14.2737C10.8117 14.235 10.8084 14.2327 10.7801 14.2544C10.7657 14.2656 10.7517 14.278 10.7387 14.2915C10.6587 14.375 10.5786 14.4582 10.4996 14.5431C10.4512 14.595 10.3963 14.6241 10.3304 14.6265C10.2775 14.6284 10.2607 14.6127 10.2538 14.5519C10.2487 14.508 10.2417 14.4646 10.2366 14.4208C10.2311 14.3721 10.209 14.3414 10.1681 14.3323C10.1251 14.3228 10.0895 14.3395 10.0645 14.3817C10.0372 14.4277 10.0297 14.4813 10.0275 14.5309ZM12.3787 14.5032C12.3544 14.503 12.339 14.5178 12.3305 14.5435C12.3131 14.5962 12.3343 14.6563 12.3775 14.6813C12.4561 14.7271 12.5313 14.7128 12.597 14.653C12.6823 14.5752 12.7496 14.4785 12.7931 14.3597C12.8707 14.1485 12.9504 13.9385 13.0298 13.7284C13.0511 13.6719 13.0823 13.6252 13.134 13.6033C13.1512 13.5959 13.1627 13.5809 13.1737 13.5651C13.1978 13.5306 13.1921 13.4896 13.1591 13.4545C13.1309 13.4245 13.0991 13.4259 13.0726 13.4598C13.046 13.4936 13.0294 13.5349 13.0156 13.5773C12.9567 13.7594 12.8981 13.9416 12.8403 14.1244C12.796 14.2651 12.7344 14.3933 12.6495 14.5059C12.6148 14.5519 12.572 14.5681 12.5218 14.5543C12.5003 14.5483 12.48 14.5369 12.4592 14.5283C12.4332 14.5176 12.4073 14.5042 12.3787 14.5032ZM11.3353 14.7014C11.3592 14.7026 11.4089 14.6821 11.4265 14.6637C11.4553 14.6341 11.4666 14.5681 11.4494 14.5323C11.4348 14.5023 11.4111 14.4985 11.3613 14.5176C11.3292 14.5297 11.2972 14.5423 11.2646 14.5521C11.2145 14.5669 11.1712 14.5516 11.1359 14.5068C11.109 14.4725 11.0853 14.4353 11.069 14.3924C10.9797 14.1588 10.8887 13.9263 10.8125 13.6862C10.7878 13.6085 10.7592 13.5332 10.7164 13.4662C10.7019 13.4433 10.6836 13.4307 10.6593 13.4369C10.6328 13.4438 10.6149 13.4626 10.609 13.4953C10.6005 13.5427 10.6151 13.5802 10.6548 13.6002C10.7152 13.6305 10.7556 13.6822 10.7803 13.752C10.8409 13.9225 10.9023 14.0925 10.9604 14.2641C11.0064 14.3998 11.0644 14.5242 11.1621 14.6191C11.2123 14.668 11.2693 14.6973 11.3353 14.7014ZM12.772 13.989C12.7718 13.963 12.7593 13.9385 12.7414 13.9165C12.6452 13.7976 12.5495 13.6779 12.4529 13.5594C12.417 13.5153 12.3836 13.4679 12.341 13.4319C12.3315 13.4238 12.32 13.4188 12.3118 13.4271C12.3037 13.4354 12.3157 13.4443 12.3187 13.4528C12.3214 13.46 12.3252 13.4667 12.3293 13.4731C12.445 13.6655 12.5609 13.8577 12.6768 14.05C12.6869 14.067 12.6989 14.0813 12.7151 14.0903C12.7234 14.0949 12.7325 14.0989 12.738 14.0872C12.7522 14.0577 12.7704 14.0303 12.772 13.989ZM11.4577 13.43C11.452 13.425 11.4492 13.4288 11.4458 13.4304C11.4083 13.4481 11.385 13.4848 11.359 13.5182C11.2543 13.6526 11.1497 13.7871 11.0449 13.9215C11.0316 13.9387 11.0218 13.958 11.0176 13.9807C11.0105 14.0181 11.0316 14.0641 11.0656 14.0791C11.0919 14.0908 11.0948 14.0546 11.1102 14.0431C11.111 14.0427 11.1114 14.0415 11.112 14.0405C11.2237 13.8753 11.3242 13.7013 11.4176 13.5213C11.433 13.4919 11.449 13.4626 11.4577 13.43Z" fill="#A67C1D"/>
<path d="M24.5226 4.32805C24.5217 4.33134 24.5207 4.3344 24.5201 4.33769C24.5195 4.34039 24.5184 4.34238 24.516 4.34156C24.5065 4.33827 24.5076 4.34555 24.5085 4.35201C24.511 4.37022 24.5081 4.38784 24.5045 4.40545C24.5037 4.40933 24.5026 4.41203 24.4989 4.41144C24.4929 4.4105 24.4931 4.41414 24.4942 4.41919C24.4958 4.42648 24.4973 4.43376 24.4983 4.44104C24.4991 4.44691 24.4987 4.45255 24.4939 4.45654C24.491 4.45889 24.4907 4.46265 24.4905 4.46653C24.4901 4.47275 24.4921 4.47851 24.4926 4.48602C24.4853 4.48156 24.483 4.47381 24.4796 4.46723C24.4781 4.46453 24.4772 4.45948 24.4741 4.46089C24.471 4.4623 24.4728 4.46676 24.4736 4.46993C24.4778 4.48696 24.4818 4.50388 24.4862 4.52079C24.4881 4.5283 24.4881 4.535 24.4817 4.53958C24.4774 4.54263 24.4791 4.5471 24.4796 4.55144C24.4847 4.59079 24.4899 4.63013 24.4888 4.67018C24.4887 4.67512 24.4907 4.68251 24.4869 4.68439C24.4818 4.68698 24.4775 4.68087 24.4741 4.67629C24.4543 4.64928 24.4388 4.61898 24.4271 4.58621C24.4004 4.51069 24.3916 4.43188 24.3954 4.35049C24.3972 4.31196 24.4046 4.27438 24.407 4.23597C24.4076 4.22646 24.4085 4.21695 24.4078 4.20743C24.4075 4.20415 24.4075 4.19992 24.404 4.19933C24.4011 4.19874 24.3985 4.20109 24.3966 4.20391C24.3933 4.20873 24.3935 4.21472 24.3925 4.22035C24.3915 4.22599 24.3914 4.23374 24.384 4.22599C24.3822 4.22411 24.3802 4.22388 24.3786 4.22587C24.374 4.23175 24.3689 4.23057 24.3625 4.22611C24.3625 4.2402 24.3625 4.25253 24.3625 4.26498C24.3625 4.26722 24.3634 4.2705 24.361 4.27121C24.3578 4.27215 24.3578 4.26827 24.357 4.26592C24.3564 4.2644 24.3563 4.26264 24.3558 4.26099C24.3548 4.25806 24.3554 4.25253 24.3522 4.25277C24.3481 4.25312 24.348 4.25876 24.348 4.26264C24.3478 4.27321 24.3491 4.28366 24.3509 4.29399C24.3517 4.29857 24.3519 4.30327 24.3525 4.30856C24.3448 4.30738 24.3426 4.30128 24.3404 4.29482C24.3385 4.28906 24.3382 4.28201 24.3319 4.27873C24.3279 4.29176 24.3306 4.30468 24.3296 4.31737C24.3293 4.32148 24.3313 4.32829 24.3273 4.32911C24.3226 4.33005 24.3222 4.32312 24.3207 4.31878C24.3191 4.31431 24.319 4.30633 24.3141 4.30727C24.3101 4.30797 24.311 4.31572 24.3109 4.32054C24.3106 4.3317 24.3142 4.34191 24.3164 4.35237C24.3175 4.35753 24.3185 4.36282 24.3198 4.36975C24.3164 4.36822 24.3142 4.3674 24.312 4.36634C24.3045 4.36247 24.3023 4.36376 24.3039 4.37315C24.3059 4.38643 24.3093 4.39958 24.3125 4.41262C24.3138 4.41779 24.3145 4.42119 24.3084 4.42119C24.3026 4.42119 24.3025 4.42636 24.3027 4.43129C24.3032 4.43963 24.3066 4.44691 24.3086 4.45466C24.3118 4.46747 24.3132 4.47992 24.3072 4.49213C24.3055 4.49577 24.3052 4.5 24.3055 4.50411C24.3059 4.50893 24.3046 4.5121 24.3004 4.51292C24.2952 4.51398 24.296 4.51809 24.2967 4.5222C24.2978 4.52913 24.2998 4.53582 24.2994 4.54299C24.2956 4.54346 24.2945 4.54028 24.2933 4.5377C24.2765 4.49859 24.2574 4.46077 24.2429 4.42025C24.2168 4.3479 24.2242 4.27873 24.2577 4.21225C24.2678 4.19228 24.2794 4.17361 24.2909 4.15493C24.2993 4.14131 24.3069 4.12745 24.3086 4.11019C24.3093 4.10314 24.3096 4.09621 24.3066 4.08975C24.3033 4.09093 24.3026 4.09421 24.3013 4.09668C24.2982 4.10279 24.295 4.10596 24.2893 4.1002C24.2851 4.09586 24.2834 4.09891 24.2826 4.10385C24.282 4.10749 24.2807 4.11113 24.2805 4.11477C24.2801 4.12193 24.2771 4.12534 24.2711 4.12452C24.2667 4.12393 24.265 4.12675 24.2637 4.13109C24.2601 4.14249 24.2562 4.15388 24.2519 4.16691C24.2489 4.15963 24.2465 4.15364 24.2438 4.14695C24.2346 4.15987 24.2352 4.1769 24.2274 4.19052C24.2244 4.18618 24.2218 4.1823 24.2186 4.1776C24.2156 4.18688 24.2124 4.19522 24.2103 4.20391C24.2087 4.21049 24.2059 4.21213 24.2009 4.20955C24.1963 4.20708 24.1948 4.20943 24.194 4.2146C24.1915 4.2301 24.1887 4.24561 24.186 4.26181C24.1809 4.25794 24.1803 4.25089 24.1756 4.24701C24.1708 4.25418 24.1708 4.26252 24.1711 4.27039C24.1719 4.28906 24.1646 4.30457 24.1585 4.32066C24.158 4.32206 24.1566 4.32441 24.1559 4.3243C24.1458 4.32206 24.1479 4.33146 24.1474 4.3371C24.1455 4.36106 24.1421 4.38502 24.1452 4.40933C24.1461 4.41649 24.1448 4.42342 24.1414 4.42988C24.1382 4.43599 24.1357 4.43482 24.1341 4.42906C24.1312 4.41837 24.1285 4.40757 24.1261 4.39676C24.1165 4.3546 24.11 4.31161 24.1098 4.26792C24.1096 4.19886 24.1304 4.14014 24.1736 4.09222C24.2158 4.04536 24.2625 4.00777 24.3182 3.98687C24.3325 3.98146 24.3473 3.97806 24.3612 3.97078C24.3633 3.96972 24.3665 3.96901 24.3662 3.96619C24.3659 3.96326 24.363 3.96091 24.3604 3.96103C24.3434 3.96208 24.3257 3.95598 24.3098 3.96878C24.3021 3.975 24.2937 3.97723 24.285 3.96913C24.2809 3.96526 24.2591 3.97078 24.2551 3.97583C24.2524 3.97923 24.2498 3.98287 24.2474 3.98616C24.2441 3.9851 24.245 3.98205 24.2443 3.98017C24.2431 3.97724 24.2443 3.97242 24.2412 3.97136C24.2375 3.96995 24.2346 3.97359 24.2322 3.97641C24.2294 3.9797 24.2272 3.98381 24.2249 3.98781C24.2216 3.99333 24.2181 3.99685 24.212 3.9925C24.2067 3.98863 24.2041 3.99391 24.2015 3.99791C24.1986 4.00249 24.1958 4.00448 24.192 3.9992C24.1891 3.9952 24.1871 3.99603 24.1855 4.00096C24.1829 4.00848 24.1796 4.01576 24.177 4.02328C24.1753 4.02833 24.1732 4.02973 24.1694 4.02633C24.1651 4.02257 24.1621 4.0241 24.1596 4.02915C24.1573 4.03385 24.1541 4.03784 24.1525 4.04312C24.1498 4.05193 24.145 4.05898 24.1387 4.06497C24.1331 4.07025 24.1276 4.07589 24.1237 4.08317C24.1228 4.08482 24.1212 4.08705 24.12 4.08705C24.1096 4.08623 24.11 4.09574 24.1085 4.10326C24.107 4.11089 24.1054 4.11841 24.104 4.12616C24.1027 4.13368 24.1013 4.14049 24.0939 4.14354C24.0894 4.1453 24.0896 4.15118 24.0896 4.15599C24.0898 4.16374 24.0882 4.17279 24.0815 4.17279C24.0741 4.17279 24.0739 4.16233 24.0743 4.15576C24.079 4.05804 24.113 3.979 24.1832 3.92391C24.2315 3.88598 24.2856 3.86813 24.3428 3.86155C24.3633 3.8592 24.3836 3.85626 24.4036 3.85027C24.4105 3.84828 24.4167 3.84511 24.4209 3.83594C24.3935 3.83383 24.3674 3.82244 24.3405 3.83254C24.3372 3.83383 24.3335 3.83583 24.3304 3.83348C24.3207 3.8262 24.313 3.83148 24.3051 3.83782C24.3029 3.8397 24.2997 3.8437 24.2972 3.83841C24.294 3.83125 24.2898 3.83219 24.2851 3.83536C24.2683 3.84663 24.249 3.85121 24.2309 3.85579C24.2057 3.86214 24.1893 3.88363 24.1679 3.89526C24.1652 3.89667 24.1624 3.90195 24.1597 3.8989C24.1565 3.89526 24.161 3.89162 24.1626 3.88868C24.1892 3.8417 24.2235 3.80365 24.2626 3.77111C24.3067 3.73447 24.3557 3.72131 24.4089 3.72719C24.4348 3.73001 24.4607 3.73318 24.4866 3.73576C24.4914 3.73623 24.4989 3.73881 24.5004 3.73271C24.5015 3.72824 24.4941 3.72496 24.4895 3.72319C24.4771 3.71838 24.4673 3.70722 24.4548 3.70264C24.4424 3.69806 24.4302 3.69301 24.4188 3.68561C24.4103 3.68009 24.3988 3.68397 24.3918 3.67351C24.3914 3.67293 24.3896 3.6734 24.3886 3.67387C24.3689 3.68338 24.3479 3.68585 24.3273 3.69113C24.3216 3.69254 24.3167 3.6963 24.3103 3.69959C24.3112 3.68855 24.3164 3.68185 24.3222 3.67621C24.3421 3.65672 24.366 3.64779 24.3907 3.64121C24.4387 3.6283 24.483 3.63969 24.5241 3.67081C24.539 3.68209 24.554 3.69266 24.571 3.69923C24.5762 3.70123 24.5775 3.70064 24.5776 3.69418C24.578 3.66799 24.5802 3.64192 24.5832 3.61596C24.584 3.60915 24.586 3.6061 24.5917 3.60668C24.5983 3.60739 24.6002 3.60434 24.6007 3.59635C24.6019 3.57709 24.5996 3.55747 24.605 3.53868C24.6058 3.53586 24.6053 3.53175 24.6085 3.53128C24.6123 3.53081 24.6124 3.53551 24.6136 3.53833C24.6185 3.55043 24.6165 3.56382 24.6183 3.5765C24.6191 3.58249 24.6189 3.58871 24.6194 3.59482C24.6199 3.60058 24.6206 3.6061 24.626 3.60915C24.63 3.61138 24.6305 3.61667 24.6306 3.6216C24.6307 3.62771 24.6307 3.63382 24.6309 3.64004C24.6311 3.64861 24.6323 3.6566 24.6373 3.66376C24.6427 3.6714 24.6431 3.68126 24.6428 3.69101C24.6423 3.70757 24.6432 3.70887 24.6561 3.70229C24.6738 3.69324 24.6907 3.68197 24.7072 3.66999C24.7409 3.64521 24.7771 3.63499 24.8166 3.64321C24.8419 3.6485 24.865 3.66106 24.8872 3.67598C24.8938 3.68044 24.8987 3.68725 24.9018 3.69559C24.9044 3.70252 24.9025 3.70593 24.8962 3.70511C24.8934 3.70475 24.8907 3.70323 24.8879 3.70217C24.8687 3.69489 24.8486 3.6869 24.8293 3.6943C24.8144 3.69994 24.8002 3.70323 24.7846 3.7037C24.7721 3.70405 24.7625 3.71556 24.7505 3.72249C24.7642 3.73494 24.779 3.73506 24.794 3.73423C24.8125 3.73306 24.831 3.73059 24.8494 3.73012C24.8907 3.72895 24.9276 3.74422 24.9589 3.77546C24.9836 3.80012 25.0076 3.82573 25.0301 3.85321C25.0398 3.86495 25.0473 3.8787 25.0534 3.8949C25.0472 3.89361 25.0429 3.88985 25.0385 3.8868C25.0245 3.87717 25.01 3.86977 24.9942 3.86448C24.9799 3.85979 24.9662 3.85168 24.9533 3.84264C24.9488 3.83947 24.9441 3.83688 24.9389 3.83559C24.9317 3.83371 24.9246 3.83266 24.9206 3.84264C24.9189 3.84675 24.9166 3.84651 24.9137 3.84393C24.9105 3.84099 24.9069 3.83876 24.9036 3.83594C24.8993 3.83219 24.8957 3.82948 24.8921 3.83724C24.8899 3.84217 24.8863 3.839 24.8838 3.83724C24.8751 3.83101 24.8667 3.82561 24.8567 3.83465C24.8547 3.83641 24.8505 3.83512 24.8473 3.835C24.8375 3.83442 24.8283 3.83547 24.8201 3.84252C24.8178 3.84452 24.8154 3.84511 24.8128 3.84393C24.812 3.84358 24.8111 3.84323 24.8103 3.84311C24.8055 3.84252 24.7953 3.85086 24.7962 3.85556C24.7972 3.8612 24.8025 3.86084 24.8061 3.86131C24.8231 3.86354 24.84 3.86519 24.857 3.86707C24.8913 3.87083 24.9257 3.87388 24.9589 3.88527C25.0416 3.91358 25.101 3.97242 25.1305 4.0692C25.1417 4.10643 25.1443 4.14519 25.141 4.18629C25.1351 4.17983 25.1328 4.17255 25.1297 4.16609C25.1171 4.14014 25.1047 4.11395 25.0923 4.08775C25.0885 4.07977 25.0845 4.07237 25.0757 4.07178C25.0725 4.07155 25.0726 4.06873 25.0721 4.06603C25.0679 4.04218 25.0535 4.02762 25.0377 4.01435C25.037 4.01376 25.0362 4.01329 25.0354 4.01294C25.03 4.01012 25.0231 4.01235 25.0186 4.00601C25.015 4.00072 25.0112 3.99579 25.0074 3.99062C25.0011 4.00131 25.0011 4.00131 24.994 3.99133C24.9929 3.9898 24.9918 3.98816 24.9907 3.98663C24.9831 3.97583 24.983 3.97571 24.9757 3.98734C24.9736 3.99074 24.9722 3.99145 24.9699 3.98804C24.9681 3.98534 24.9661 3.98287 24.9644 3.98017C24.9609 3.97453 24.9585 3.96995 24.9511 3.97547C24.9455 3.97958 24.9372 3.97489 24.9304 3.98029C24.928 3.98217 24.9241 3.97536 24.9206 3.97312C24.9192 3.97218 24.918 3.96972 24.9161 3.97101C24.9145 3.97207 24.9147 3.97453 24.9148 3.97653C24.9151 3.98628 24.9198 3.99309 24.9263 3.99814C24.9506 4.01729 24.9747 4.03643 24.9992 4.05522C25.0312 4.07977 25.0604 4.1076 25.0796 4.14765C25.1013 4.19275 25.1072 4.24173 25.1063 4.29247C25.1053 4.34403 25.0949 4.39336 25.0814 4.4421C25.0794 4.44926 25.0776 4.44797 25.0742 4.44374C25.0673 4.43529 25.0676 4.42542 25.0697 4.4152C25.0706 4.41097 25.072 4.40675 25.0736 4.40275C25.0758 4.397 25.0747 4.39277 25.0698 4.39042C25.0644 4.38795 25.0637 4.38314 25.0642 4.37715C25.0647 4.37034 25.0647 4.36352 25.0651 4.35671C25.0655 4.35025 25.0661 4.34438 25.0578 4.34602C25.0546 4.34661 25.0544 4.34332 25.0544 4.34039C25.0544 4.33029 25.0519 4.32113 25.0487 4.31185C25.0452 4.30151 25.0486 4.29024 25.0467 4.27955C25.0456 4.27332 25.0453 4.26686 25.0447 4.26052C25.0435 4.26052 25.0429 4.26029 25.0424 4.26052C25.0305 4.26733 25.0305 4.26733 25.0294 4.2516C25.0291 4.2469 25.0283 4.24208 25.0283 4.23738C25.0283 4.22764 25.0268 4.22071 25.0163 4.22458C25.0123 4.22611 25.012 4.222 25.0113 4.21859C25.0088 4.20591 25.0062 4.19311 25.0033 4.17854C24.9991 4.18582 24.9958 4.19146 24.9916 4.19874C24.9871 4.18254 24.983 4.16797 24.9786 4.15247C24.9765 4.15458 24.9752 4.15576 24.974 4.15717C24.9645 4.16809 24.9645 4.16809 24.9592 4.15317C24.9574 4.14812 24.9555 4.14319 24.9542 4.13802C24.9524 4.13109 24.9501 4.12639 24.9428 4.12557C24.9361 4.12487 24.9337 4.11665 24.9313 4.11019C24.9293 4.1049 24.9274 4.10208 24.9218 4.10302C24.9135 4.10455 24.9076 4.09915 24.903 4.09116C24.9004 4.0867 24.8975 4.07848 24.8927 4.08153C24.8875 4.08482 24.8898 4.0928 24.8917 4.09926C24.8962 4.11512 24.9061 4.12698 24.9143 4.14014C24.9309 4.16668 24.9497 4.19146 24.9637 4.22012C24.9929 4.27943 24.997 4.34227 24.9815 4.40745C24.9703 4.45455 24.951 4.49683 24.9262 4.53594C24.9227 4.54146 24.9192 4.54745 24.9122 4.55085C24.9127 4.5451 24.9127 4.5404 24.9135 4.53594C24.9147 4.52866 24.9169 4.52138 24.9066 4.52173C24.9036 4.52185 24.9041 4.51903 24.9047 4.51644C24.9061 4.51127 24.9074 4.50599 24.9086 4.50082C24.9096 4.49648 24.911 4.49107 24.9087 4.4879C24.9013 4.47733 24.9056 4.46758 24.9089 4.45748C24.9114 4.44985 24.9135 4.4421 24.9161 4.43446C24.9182 4.42824 24.9166 4.42612 24.9112 4.42765C24.9049 4.42941 24.9038 4.42706 24.9053 4.4199C24.9087 4.40322 24.9113 4.38619 24.9143 4.36951C24.9088 4.36716 24.9044 4.37738 24.901 4.37163C24.8988 4.36787 24.901 4.36047 24.9013 4.35472C24.9016 4.34826 24.902 4.34191 24.9025 4.33475C24.8967 4.33639 24.8952 4.34332 24.8892 4.34696C24.8892 4.32641 24.8892 4.30738 24.8892 4.28742C24.8814 4.28953 24.8813 4.2967 24.8787 4.30163C24.8778 4.30327 24.8776 4.30597 24.8756 4.30609C24.873 4.30621 24.8725 4.30327 24.872 4.30116C24.8701 4.29388 24.8706 4.28636 24.8701 4.27884C24.8694 4.26827 24.8685 4.26733 24.8612 4.2725C24.8567 4.27567 24.8564 4.27297 24.856 4.2691C24.8552 4.26205 24.8544 4.25488 24.8537 4.24784C24.8532 4.24302 24.8522 4.23938 24.8473 4.24314C24.8421 4.24713 24.8403 4.24349 24.8386 4.23844C24.8349 4.22681 24.8283 4.21812 24.818 4.21389C24.8127 4.21178 24.81 4.21202 24.811 4.22035C24.8145 4.24972 24.8181 4.27896 24.8205 4.30844C24.8272 4.39077 24.8245 4.47228 24.8023 4.55168C24.7915 4.59032 24.7764 4.62649 24.7573 4.66055C24.7506 4.67253 24.7422 4.68275 24.7329 4.69203C24.7301 4.68968 24.7315 4.68674 24.7314 4.68428C24.7302 4.64481 24.7351 4.60512 24.7321 4.56601C24.7299 4.537 24.7336 4.51069 24.7433 4.48473C24.7437 4.48356 24.7438 4.48226 24.7443 4.47992C24.7341 4.48144 24.7317 4.49307 24.7234 4.49929C24.7227 4.48461 24.722 4.47134 24.7215 4.45795C24.7212 4.4495 24.7211 4.44092 24.7208 4.43247C24.7203 4.41814 24.7186 4.40463 24.7109 4.3923C24.7006 4.37597 24.7025 4.3553 24.6995 4.33628C24.6991 4.33369 24.7004 4.33005 24.698 4.32888C24.6951 4.32747 24.6935 4.33111 24.6916 4.33299C24.6807 4.34379 24.6802 4.36 24.6761 4.37433C24.6656 4.41168 24.6674 4.4502 24.6685 4.48861C24.6701 4.54158 24.6714 4.59466 24.6731 4.64763C24.6773 4.77753 24.6799 4.90743 24.6806 5.03744C24.6808 5.08172 24.6813 5.12588 24.6827 5.17016C24.6837 5.20164 24.6899 5.23206 24.7017 5.2606C24.7129 5.28785 24.7137 5.31533 24.7035 5.34352C24.6909 5.37852 24.6946 5.41222 24.7112 5.44393C24.7232 5.46707 24.7367 5.48927 24.7496 5.51182C24.7538 5.51922 24.7579 5.52674 24.7603 5.53507C24.7659 5.5541 24.7597 5.5682 24.7431 5.57348C24.7249 5.57924 24.7063 5.58252 24.6874 5.58288C24.6342 5.58382 24.5809 5.58499 24.5277 5.58335C24.5094 5.58276 24.4914 5.57935 24.474 5.57301C24.4568 5.56679 24.4512 5.55281 24.4582 5.53331C24.4652 5.5137 24.4761 5.49679 24.4863 5.47964C24.5048 5.44887 24.5184 5.41598 24.5191 5.37722C24.5194 5.35961 24.5168 5.34269 24.5102 5.32684C24.5018 5.30664 24.5022 5.28667 24.5117 5.26729C24.5283 5.2337 24.531 5.19647 24.5322 5.15889C24.5357 5.05013 24.5375 4.94125 24.5393 4.83238C24.5408 4.73995 24.5452 4.64751 24.548 4.55508C24.5497 4.49753 24.5475 4.4401 24.546 4.38255C24.546 4.36164 24.5354 4.33909 24.5226 4.32805Z" fill="black"/>
<path d="M25.75 5.38364C25.7368 5.38763 25.7243 5.38775 25.7121 5.38916C25.6545 5.39538 25.5968 5.39984 25.5394 5.40924C25.4649 5.42145 25.3908 5.43649 25.3179 5.45822C25.2528 5.47771 25.1899 5.50473 25.1283 5.53644C25.052 5.57578 24.9776 5.61947 24.9091 5.67585C24.8489 5.72541 24.7958 5.78461 24.7441 5.84556C24.732 5.85977 24.7202 5.87422 24.7087 5.88902C24.7001 5.89994 24.6999 5.90276 24.7076 5.9145C24.7302 5.94892 24.753 5.98321 24.7759 6.01739C24.8088 6.06625 24.8452 6.11135 24.8813 6.15692C24.886 6.16291 24.8914 6.16808 24.8962 6.17383C24.9005 6.17888 24.9027 6.17724 24.9045 6.17113C24.9134 6.142 24.9224 6.11299 24.9313 6.08387C24.935 6.07165 24.9392 6.05979 24.9452 6.04887C24.9592 6.02303 24.9804 6.01633 25.0027 6.03219C25.025 6.04804 25.0354 6.07177 25.0335 6.10242C25.0327 6.11616 25.0254 6.12579 25.0118 6.1292C24.9799 6.1373 24.9654 6.16361 24.959 6.19803C24.9532 6.22927 24.959 6.25687 24.9785 6.28071C24.9969 6.30314 25.0157 6.32452 25.0382 6.34096C25.0578 6.35529 25.0625 6.35388 25.0726 6.3298C25.0786 6.31571 25.0847 6.30185 25.0951 6.2914C25.1212 6.26509 25.1613 6.25945 25.1924 6.30291C25.2161 6.33591 25.2222 6.37502 25.2186 6.41683C25.2163 6.44361 25.2077 6.46781 25.1929 6.48812C25.1688 6.52124 25.1368 6.52841 25.1017 6.52418C25.0648 6.51972 25.034 6.49881 25.0041 6.47497C24.97 6.44796 24.9355 6.42177 24.9011 6.39534C24.8908 6.38735 24.8905 6.3877 24.8815 6.39816C24.8605 6.42259 24.8417 6.4496 24.8186 6.47133C24.7878 6.5001 24.7408 6.49752 24.7156 6.46522C24.6895 6.43163 24.6881 6.38066 24.7255 6.34495C24.7318 6.33896 24.739 6.33885 24.7459 6.34331C24.7581 6.35106 24.7698 6.35987 24.7821 6.36715C24.7984 6.37678 24.8148 6.37197 24.8266 6.35564C24.8338 6.34542 24.8349 6.33438 24.8305 6.3224C24.8225 6.30115 24.8088 6.28482 24.7958 6.26791C24.7394 6.19497 24.6829 6.12204 24.6264 6.04922C24.621 6.04217 24.6158 6.0316 24.6086 6.0309C24.6016 6.03031 24.5969 6.04158 24.5914 6.04793C24.542 6.1036 24.4969 6.16373 24.4523 6.22457C24.4353 6.24771 24.4184 6.2712 24.4015 6.29433C24.3958 6.30209 24.391 6.31054 24.3876 6.32005C24.3827 6.33391 24.3838 6.34683 24.3925 6.35799C24.4016 6.36974 24.4128 6.37467 24.4261 6.36962C24.4378 6.36527 24.4479 6.35705 24.4587 6.35071C24.4633 6.34801 24.468 6.34507 24.4728 6.34284C24.4807 6.33908 24.4883 6.34037 24.4946 6.34719C24.5135 6.36786 24.5203 6.39393 24.5165 6.42317C24.5125 6.45371 24.4997 6.47802 24.4736 6.48777C24.4491 6.49681 24.4261 6.48789 24.4044 6.4745C24.381 6.46017 24.364 6.43739 24.3481 6.41343C24.3433 6.40614 24.3377 6.39957 24.3333 6.39217C24.3299 6.38653 24.3268 6.38724 24.3225 6.39005C24.2981 6.40567 24.2761 6.42576 24.2531 6.44396C24.2306 6.46182 24.2093 6.48178 24.1851 6.49693C24.157 6.51455 24.1271 6.52336 24.0951 6.52195C24.0523 6.52019 24.0201 6.49024 24.0051 6.43762C23.9898 6.38371 24.0032 6.32651 24.0399 6.28952C24.0691 6.26004 24.1068 6.2645 24.1307 6.30021C24.1392 6.31277 24.1463 6.3264 24.1536 6.3399C24.1604 6.35235 24.1624 6.35341 24.173 6.34636C24.2051 6.32499 24.2321 6.29633 24.2547 6.26239C24.2623 6.25099 24.2638 6.23737 24.2605 6.22363C24.2559 6.20402 24.2506 6.18452 24.2457 6.16502C24.2416 6.14823 24.2327 6.13742 24.2184 6.13249C24.2165 6.13178 24.2146 6.13084 24.2127 6.13014C24.1883 6.1211 24.182 6.10876 24.1865 6.07893C24.192 6.04241 24.2221 6.01915 24.2522 6.02772C24.2661 6.03172 24.275 6.04194 24.2796 6.05744C24.2895 6.09044 24.2992 6.12356 24.3089 6.15668C24.3155 6.179 24.3195 6.18029 24.3329 6.16267C24.3936 6.08363 24.4522 6.00247 24.5074 5.91803C24.5148 5.90675 24.5145 5.90405 24.5074 5.89184C24.492 5.86506 24.4717 5.84368 24.4522 5.82149C24.4068 5.76946 24.3588 5.72095 24.3082 5.67597C24.2632 5.6358 24.2131 5.60632 24.1627 5.57743C24.1055 5.54478 24.0472 5.51483 23.9872 5.49004C23.9074 5.45704 23.8264 5.42991 23.7425 5.41593C23.693 5.4076 23.6432 5.40196 23.5934 5.3955C23.5653 5.39174 23.5371 5.38728 23.5091 5.38317C23.506 5.3827 23.5027 5.38223 23.5 5.37776C23.5096 5.37295 23.5196 5.37189 23.5293 5.3713C23.6118 5.36625 23.6941 5.35427 23.7769 5.35557C23.8742 5.35709 23.9703 5.3679 24.0649 5.39538C24.1289 5.41394 24.1901 5.44107 24.2494 5.47466C24.3083 5.50801 24.3663 5.54313 24.4196 5.58823C24.4653 5.62687 24.508 5.66962 24.5486 5.71519C24.5652 5.73375 24.5818 5.75219 24.5973 5.7718C24.6037 5.77979 24.6078 5.7785 24.6135 5.77227C24.6327 5.75149 24.6522 5.73128 24.671 5.71014C24.751 5.62076 24.8398 5.54618 24.9388 5.4884C25.0003 5.45246 25.0642 5.42392 25.1301 5.40172C25.1999 5.37823 25.2712 5.3652 25.3436 5.35968C25.4127 5.35427 25.4818 5.35686 25.5508 5.36097C25.5875 5.3632 25.6242 5.36484 25.6609 5.36802C25.6871 5.37025 25.7132 5.37459 25.7393 5.37812C25.7427 5.37847 25.7463 5.37906 25.75 5.38364ZM25.1084 6.45477C25.1119 6.45477 25.1154 6.455 25.1188 6.45477C25.148 6.45242 25.1648 6.43774 25.1716 6.40861C25.177 6.38524 25.1671 6.35212 25.1504 6.33814C25.136 6.32604 25.1179 6.33427 25.1104 6.35682C25.1054 6.37173 25.1025 6.38735 25.1018 6.40344C25.101 6.41942 25.0954 6.42435 25.0819 6.4227C25.0764 6.422 25.0712 6.41965 25.0662 6.41754C25.0342 6.40438 25.0087 6.38066 24.9857 6.352C24.973 6.33626 24.9589 6.32193 24.9458 6.30667C24.9411 6.30126 24.9387 6.30244 24.9357 6.30866C24.9286 6.32323 24.9293 6.33544 24.939 6.34789C24.9544 6.36774 24.971 6.3863 24.9895 6.40203C25.025 6.43245 25.0637 6.45336 25.1084 6.45477ZM24.0487 6.39217C24.0487 6.4341 24.0643 6.45512 24.0987 6.45641C24.1328 6.4577 24.1653 6.44702 24.1949 6.42705C24.2276 6.40509 24.2541 6.37396 24.2821 6.34507C24.2897 6.3372 24.2908 6.3264 24.2874 6.315C24.2839 6.30338 24.2829 6.30267 24.2744 6.30925C24.2701 6.31254 24.2659 6.3163 24.262 6.32041C24.2381 6.34542 24.214 6.37044 24.1902 6.39581C24.1758 6.41143 24.1593 6.42012 24.1395 6.42083C24.1236 6.42141 24.1187 6.41671 24.1166 6.39839C24.1151 6.38524 24.1129 6.3722 24.1114 6.35905C24.1097 6.34448 24.1031 6.33521 24.0908 6.3325C24.0779 6.32969 24.0672 6.33462 24.0598 6.3473C24.0516 6.36116 24.0494 6.37725 24.0487 6.39217ZM24.754 6.38395C24.7467 6.38383 24.742 6.38829 24.7395 6.39604C24.7343 6.4119 24.7406 6.42987 24.7536 6.43739C24.7771 6.45113 24.7997 6.44678 24.8194 6.42881C24.8449 6.40544 24.8651 6.37655 24.8782 6.34084C24.9014 6.27754 24.9254 6.21447 24.9492 6.15152C24.9555 6.1346 24.9649 6.12063 24.9804 6.11393C24.9856 6.1117 24.989 6.10712 24.9923 6.10242C24.9996 6.09209 24.9979 6.07975 24.9879 6.0693C24.9794 6.06038 24.9699 6.06073 24.9619 6.07095C24.9539 6.08105 24.949 6.0935 24.9449 6.10618C24.9272 6.16079 24.9096 6.21552 24.8922 6.27026C24.8789 6.31242 24.8605 6.35094 24.835 6.38465C24.8247 6.39839 24.8118 6.40333 24.7968 6.3991C24.7904 6.39734 24.7843 6.39381 24.778 6.39135C24.7703 6.38817 24.7626 6.38418 24.754 6.38395ZM24.441 6.44326C24.4482 6.44361 24.4631 6.4375 24.4684 6.43198C24.477 6.42306 24.4804 6.40333 24.4753 6.39252C24.4709 6.38348 24.4638 6.38242 24.4488 6.38806C24.4392 6.3917 24.4295 6.39557 24.4197 6.39839C24.4048 6.40286 24.3917 6.39828 24.3811 6.38477C24.373 6.37443 24.3659 6.36328 24.361 6.35047C24.3343 6.28047 24.3069 6.21071 24.2841 6.1386C24.2767 6.11522 24.2681 6.09267 24.2552 6.07259C24.2508 6.06578 24.2453 6.0619 24.2381 6.06378C24.2301 6.06578 24.2247 6.07153 24.223 6.08128C24.2204 6.09549 24.2249 6.10677 24.2368 6.11276C24.2548 6.1218 24.267 6.1373 24.2744 6.15833C24.2926 6.20942 24.3109 6.26051 24.3284 6.31195C24.3422 6.35259 24.3595 6.39005 24.3889 6.41836C24.4041 6.43328 24.4211 6.44208 24.441 6.44326ZM24.8719 6.22962C24.8719 6.22175 24.8681 6.21447 24.8627 6.20789C24.8338 6.17219 24.8052 6.13625 24.7761 6.10078C24.7654 6.08762 24.7554 6.07329 24.7426 6.06249C24.7398 6.06002 24.7363 6.05861 24.7338 6.06108C24.7313 6.06355 24.7349 6.06625 24.7359 6.06883C24.7367 6.07095 24.7379 6.07294 24.739 6.07494C24.7737 6.13261 24.8085 6.19027 24.8432 6.24806C24.8463 6.25311 24.8499 6.25745 24.8547 6.26016C24.8572 6.26157 24.8599 6.26274 24.8616 6.25922C24.866 6.25017 24.8715 6.24195 24.8719 6.22962ZM24.4777 6.0619C24.4761 6.06038 24.4752 6.06155 24.4742 6.06202C24.4629 6.0673 24.4559 6.07834 24.4481 6.08833C24.4167 6.12861 24.3853 6.16902 24.3539 6.2093C24.3499 6.21447 24.347 6.22022 24.3457 6.22704C24.3436 6.23819 24.3499 6.25205 24.36 6.25651C24.3679 6.26004 24.3688 6.24912 24.3734 6.24571C24.3736 6.24559 24.3738 6.24512 24.3739 6.24489C24.4074 6.19532 24.4376 6.14306 24.4656 6.08915C24.4703 6.08046 24.4751 6.07177 24.4777 6.0619Z" fill="black"/>
<path d="M24.0075 11.4102V9.95561H24.3591V10.5707H24.3783L24.8591 9.95561H25.2732L24.7575 10.6048L25.2824 11.4102H24.8619L24.4997 10.8384L24.3591 11.016V11.4102H24.0075ZM24.8358 12.3917C24.831 12.3396 24.81 12.2991 24.7725 12.2702C24.7356 12.2409 24.6828 12.2262 24.6142 12.2262C24.5687 12.2262 24.5308 12.2321 24.5005 12.244C24.4702 12.2558 24.4475 12.2721 24.4324 12.293C24.4172 12.3133 24.4094 12.3368 24.4089 12.3633C24.408 12.3851 24.4122 12.4042 24.4217 12.4208C24.4316 12.4374 24.4458 12.4521 24.4643 12.4648C24.4833 12.4772 24.506 12.488 24.5325 12.4975C24.559 12.507 24.5888 12.5153 24.622 12.5224L24.747 12.5508C24.819 12.5664 24.8824 12.5872 24.9373 12.6133C24.9927 12.6393 25.0391 12.6703 25.0765 12.7063C25.1144 12.7423 25.1431 12.7837 25.1625 12.8306C25.1819 12.8775 25.1918 12.93 25.1923 12.9883C25.1918 13.0801 25.1686 13.159 25.1227 13.2248C25.0768 13.2906 25.0107 13.341 24.9245 13.3761C24.8388 13.4111 24.7354 13.4286 24.6142 13.4286C24.4925 13.4286 24.3864 13.4104 24.296 13.3739C24.2056 13.3375 24.1352 13.2821 24.085 13.2077C24.0349 13.1334 24.0091 13.0394 24.0076 12.9258H24.3443C24.3471 12.9727 24.3597 13.0117 24.3819 13.043C24.4042 13.0742 24.4347 13.0979 24.4735 13.114C24.5128 13.1301 24.5583 13.1381 24.6099 13.1381C24.6573 13.1381 24.6975 13.1317 24.7306 13.119C24.7643 13.1062 24.7901 13.0884 24.8081 13.0657C24.8261 13.043 24.8353 13.0169 24.8358 12.9876C24.8353 12.9601 24.8268 12.9367 24.8102 12.9173C24.7936 12.8974 24.7681 12.8803 24.7335 12.8661C24.6994 12.8514 24.6558 12.8379 24.6028 12.8256L24.4508 12.7901C24.3249 12.7612 24.2257 12.7146 24.1532 12.6502C24.0808 12.5853 24.0448 12.4978 24.0453 12.3874C24.0448 12.2975 24.069 12.2186 24.1177 12.1509C24.1665 12.0832 24.234 12.0304 24.3201 11.9925C24.4063 11.9547 24.5046 11.9357 24.6149 11.9357C24.7276 11.9357 24.8253 11.9549 24.9082 11.9933C24.9915 12.0311 25.0562 12.0844 25.1021 12.1531C25.148 12.2217 25.1715 12.3013 25.1724 12.3917H24.8358ZM24.2528 15.4102H23.875L24.3658 13.9556H24.8338L25.3246 15.4102H24.9467L24.6051 14.3221H24.5938L24.2528 15.4102ZM24.2024 14.8377H24.9922V15.1048H24.2024V14.8377Z" fill="black"/>
<path d="M17.0455 9.52273L17.0626 9.33523L16.907 9.44389L16.8218 9.29474L16.9923 9.21591L16.8218 9.13707L16.907 8.98793L17.0626 9.09659L17.0455 8.90909H17.216L17.199 9.09659L17.3545 8.98793L17.4397 9.13707L17.2693 9.21591L17.4397 9.29474L17.3545 9.44389L17.199 9.33523L17.216 9.52273H17.0455ZM17.9581 9.52273L17.9752 9.33523L17.8196 9.44389L17.7344 9.29474L17.9049 9.21591L17.7344 9.13707L17.8196 8.98793L17.9752 9.09659L17.9581 8.90909H18.1286L18.1116 9.09659L18.2671 8.98793L18.3523 9.13707L18.1819 9.21591L18.3523 9.29474L18.2671 9.44389L18.1116 9.33523L18.1286 9.52273H17.9581ZM18.8707 9.52273L18.8878 9.33523L18.7322 9.44389L18.647 9.29474L18.8175 9.21591L18.647 9.13707L18.7322 8.98793L18.8878 9.09659L18.8707 8.90909H19.0412L19.0241 9.09659L19.1797 8.98793L19.2649 9.13707L19.0945 9.21591L19.2649 9.29474L19.1797 9.44389L19.0241 9.33523L19.0412 9.52273H18.8707ZM19.7833 9.52273L19.8004 9.33523L19.6448 9.44389L19.5596 9.29474L19.7301 9.21591L19.5596 9.13707L19.6448 8.98793L19.8004 9.09659L19.7833 8.90909H19.9538L19.9367 9.09659L20.0923 8.98793L20.1775 9.13707L20.0071 9.21591L20.1775 9.29474L20.0923 9.44389L19.9367 9.33523L19.9538 9.52273H19.7833ZM17.0455 11.5227L17.0626 11.3352L16.907 11.4439L16.8218 11.2947L16.9923 11.2159L16.8218 11.1371L16.907 10.9879L17.0626 11.0966L17.0455 10.9091H17.216L17.199 11.0966L17.3545 10.9879L17.4397 11.1371L17.2693 11.2159L17.4397 11.2947L17.3545 11.4439L17.199 11.3352L17.216 11.5227H17.0455ZM17.9581 11.5227L17.9752 11.3352L17.8196 11.4439L17.7344 11.2947L17.9049 11.2159L17.7344 11.1371L17.8196 10.9879L17.9752 11.0966L17.9581 10.9091H18.1286L18.1116 11.0966L18.2671 10.9879L18.3523 11.1371L18.1819 11.2159L18.3523 11.2947L18.2671 11.4439L18.1116 11.3352L18.1286 11.5227H17.9581ZM18.8707 11.5227L18.8878 11.3352L18.7322 11.4439L18.647 11.2947L18.8175 11.2159L18.647 11.1371L18.7322 10.9879L18.8878 11.0966L18.8707 10.9091H19.0412L19.0241 11.0966L19.1797 10.9879L19.2649 11.1371L19.0945 11.2159L19.2649 11.2947L19.1797 11.4439L19.0241 11.3352L19.0412 11.5227H18.8707ZM19.7833 11.5227L19.8004 11.3352L19.6448 11.4439L19.5596 11.2947L19.7301 11.2159L19.5596 11.1371L19.6448 10.9879L19.8004 11.0966L19.7833 10.9091H19.9538L19.9367 11.0966L20.0923 10.9879L20.1775 11.1371L20.0071 11.2159L20.1775 11.2947L20.0923 11.4439L19.9367 11.3352L19.9538 11.5227H19.7833Z" fill="black"/>
<path d="M4.04554 9.52273L4.06259 9.33523L3.90705 9.44389L3.82182 9.29474L3.99228 9.21591L3.82182 9.13707L3.90705 8.98793L4.06259 9.09659L4.04554 8.90909H4.216L4.19895 9.09659L4.35449 8.98793L4.43972 9.13707L4.26926 9.21591L4.43972 9.29474L4.35449 9.44389L4.19895 9.33523L4.216 9.52273H4.04554ZM4.95814 9.52273L4.97519 9.33523L4.81965 9.44389L4.73442 9.29474L4.90487 9.21591L4.73442 9.13707L4.81965 8.98793L4.97519 9.09659L4.95814 8.90909H5.1286L5.11155 9.09659L5.26709 8.98793L5.35232 9.13707L5.18186 9.21591L5.35232 9.29474L5.26709 9.44389L5.11155 9.33523L5.1286 9.52273H4.95814ZM5.87074 9.52273L5.88778 9.33523L5.73224 9.44389L5.64702 9.29474L5.81747 9.21591L5.64702 9.13707L5.73224 8.98793L5.88778 9.09659L5.87074 8.90909H6.04119L6.02415 9.09659L6.17969 8.98793L6.26491 9.13707L6.09446 9.21591L6.26491 9.29474L6.17969 9.44389L6.02415 9.33523L6.04119 9.52273H5.87074ZM6.78334 9.52273L6.80038 9.33523L6.64484 9.44389L6.55961 9.29474L6.73007 9.21591L6.55961 9.13707L6.64484 8.98793L6.80038 9.09659L6.78334 8.90909H6.95379L6.93675 9.09659L7.09229 8.98793L7.17751 9.13707L7.00706 9.21591L7.17751 9.29474L7.09229 9.44389L6.93675 9.33523L6.95379 9.52273H6.78334ZM4.04554 11.5227L4.06259 11.3352L3.90705 11.4439L3.82182 11.2947L3.99228 11.2159L3.82182 11.1371L3.90705 10.9879L4.06259 11.0966L4.04554 10.9091H4.216L4.19895 11.0966L4.35449 10.9879L4.43972 11.1371L4.26926 11.2159L4.43972 11.2947L4.35449 11.4439L4.19895 11.3352L4.216 11.5227H4.04554ZM4.95814 11.5227L4.97519 11.3352L4.81965 11.4439L4.73442 11.2947L4.90487 11.2159L4.73442 11.1371L4.81965 10.9879L4.97519 11.0966L4.95814 10.9091H5.1286L5.11155 11.0966L5.26709 10.9879L5.35232 11.1371L5.18186 11.2159L5.35232 11.2947L5.26709 11.4439L5.11155 11.3352L5.1286 11.5227H4.95814ZM5.87074 11.5227L5.88778 11.3352L5.73224 11.4439L5.64702 11.2947L5.81747 11.2159L5.64702 11.1371L5.73224 10.9879L5.88778 11.0966L5.87074 10.9091H6.04119L6.02415 11.0966L6.17969 10.9879L6.26491 11.1371L6.09446 11.2159L6.26491 11.2947L6.17969 11.4439L6.02415 11.3352L6.04119 11.5227H5.87074ZM6.78334 11.5227L6.80038 11.3352L6.64484 11.4439L6.55961 11.2947L6.73007 11.2159L6.55961 11.1371L6.64484 10.9879L6.80038 11.0966L6.78334 10.9091H6.95379L6.93675 11.0966L7.09229 10.9879L7.17751 11.1371L7.00706 11.2159L7.17751 11.2947L7.09229 11.4439L6.93675 11.3352L6.95379 11.5227H6.78334Z" fill="black"/>
</g>
<rect x="0.75" y="0.75" width="26.5" height="18.5" rx="1.25" stroke="black" stroke-width="1.5"/>
<defs>
<clipPath id="clip0_29357_45260">
<rect width="28" height="20" rx="2" fill="white"/>
</clipPath>
</defs>
</svg>
