<svg width="31" height="13" viewBox="0 0 31 13" fill="none" xmlns="http://www.w3.org/2000/svg">
<g clip-path="url(#clip0_29357_45260)">
<rect width="31" height="13" rx="2" fill="white"/>
<path d="M24.8086 13.0117L24.8086 0.642767" stroke="black"/>
<path d="M12.8169 3.75161C12.8132 3.7601 12.8093 3.76804 12.8068 3.77634C12.8046 3.78336 12.7999 3.78853 12.7902 3.78631C12.7517 3.77782 12.7561 3.79665 12.7599 3.81326C12.77 3.86033 12.7584 3.90573 12.7435 3.95133C12.7403 3.96129 12.7359 3.96812 12.7211 3.96665C12.6968 3.96425 12.6973 3.97348 12.7018 3.98658C12.7082 4.00522 12.7141 4.02405 12.7183 4.04306C12.7215 4.0582 12.7201 4.07296 12.7003 4.08312C12.6887 4.08921 12.6872 4.09881 12.6862 4.10877C12.6847 4.12483 12.6926 4.13978 12.6949 4.15916C12.6652 4.14772 12.6561 4.1276 12.6417 4.1108C12.6358 4.10379 12.6321 4.09068 12.6192 4.09438C12.6066 4.09807 12.6141 4.1097 12.6173 4.11782C12.6343 4.16156 12.6511 4.20549 12.6687 4.24924C12.6766 4.26862 12.6763 4.28597 12.6504 4.2976C12.6326 4.30554 12.6393 4.31716 12.6415 4.32824C12.6625 4.42994 12.6837 4.53146 12.6793 4.63483C12.6788 4.64756 12.6872 4.66676 12.6716 4.67156C12.6506 4.6782 12.6331 4.66251 12.6195 4.6507C12.5392 4.58093 12.4762 4.50285 12.4287 4.41813C12.32 4.22321 12.2842 4.01981 12.2997 3.80975C12.3071 3.71045 12.3373 3.61317 12.3467 3.51424C12.3489 3.48969 12.3529 3.46533 12.3499 3.44059C12.3489 3.4321 12.3487 3.42121 12.3346 3.41955C12.3227 3.41826 12.3123 3.42416 12.3047 3.43136C12.2913 3.44391 12.2921 3.45923 12.2881 3.47382C12.2842 3.48821 12.2834 3.50833 12.2535 3.48821C12.2463 3.48341 12.2379 3.48268 12.2315 3.48803C12.2127 3.50316 12.192 3.50021 12.166 3.48877C12.166 3.52513 12.1663 3.55706 12.1658 3.58899C12.1658 3.59472 12.17 3.60321 12.1599 3.60524C12.1468 3.60782 12.147 3.59767 12.1435 3.59176C12.1413 3.5877 12.1408 3.58309 12.1386 3.57903C12.1344 3.57127 12.1369 3.55706 12.1238 3.5578C12.1072 3.55872 12.107 3.57331 12.1065 3.58309C12.1055 3.61041 12.1109 3.63735 12.1183 3.66412C12.1216 3.67593 12.1225 3.68811 12.1248 3.70177C12.0934 3.69882 12.0845 3.68276 12.0758 3.66633C12.0679 3.65138 12.0667 3.63329 12.0412 3.6248C12.0252 3.6584 12.0361 3.69199 12.0318 3.72466C12.0306 3.73518 12.0385 3.75272 12.0225 3.75493C12.0034 3.75733 12.0017 3.73943 11.9955 3.72835C11.9891 3.71672 11.9886 3.69624 11.9688 3.69864C11.9525 3.70067 11.9562 3.72042 11.9557 3.73297C11.9548 3.76158 11.9693 3.78797 11.9782 3.81529C11.9827 3.82876 11.9866 3.84242 11.9921 3.86014C11.9785 3.85627 11.9691 3.85424 11.9604 3.85128C11.9303 3.84113 11.9209 3.84464 11.9271 3.869C11.9357 3.90334 11.9493 3.93711 11.9627 3.97071C11.9678 3.984 11.9708 3.99286 11.9461 3.99286C11.9221 3.99286 11.9216 4.00615 11.9226 4.01888C11.9244 4.04029 11.9389 4.05912 11.9468 4.07924C11.9599 4.11228 11.9654 4.1444 11.9412 4.17596C11.934 4.18537 11.933 4.19626 11.9345 4.20679C11.9362 4.21934 11.9308 4.22746 11.9135 4.22949C11.8925 4.23207 11.8957 4.24278 11.8984 4.25348C11.9029 4.2712 11.911 4.28855 11.9095 4.3072C11.8942 4.3083 11.8895 4.30037 11.8851 4.29372C11.8166 4.19276 11.7393 4.09511 11.6802 3.99064C11.5744 3.80385 11.6046 3.62536 11.7407 3.4537C11.7815 3.4022 11.8287 3.35402 11.8757 3.30585C11.9098 3.27078 11.9412 3.23497 11.9481 3.19049C11.9508 3.1724 11.9523 3.15449 11.9399 3.1377C11.9261 3.14065 11.9231 3.14932 11.9182 3.1556C11.9056 3.17147 11.8925 3.1796 11.8697 3.16483C11.8527 3.15375 11.846 3.16169 11.8426 3.17424C11.8398 3.18366 11.8349 3.19289 11.8339 3.20248C11.8322 3.22094 11.8203 3.2298 11.7956 3.22777C11.7778 3.22629 11.7711 3.23368 11.7655 3.24475C11.7509 3.27429 11.7351 3.30345 11.7175 3.33704C11.7054 3.31822 11.6955 3.3029 11.6844 3.28554C11.6471 3.31877 11.6493 3.36288 11.6177 3.39814C11.6056 3.38688 11.595 3.37691 11.5819 3.36473C11.5697 3.38872 11.5569 3.41032 11.548 3.43266C11.5413 3.44964 11.53 3.45388 11.5097 3.44705C11.4912 3.44078 11.485 3.44687 11.4818 3.45997C11.4719 3.50021 11.4605 3.54008 11.4492 3.58198C11.4279 3.57201 11.4254 3.55374 11.4064 3.54396C11.3871 3.56242 11.3869 3.58401 11.3881 3.60413C11.3913 3.65231 11.3617 3.69254 11.3367 3.73407C11.3345 3.73777 11.3288 3.74386 11.3261 3.74349C11.2853 3.73777 11.2935 3.76195 11.2917 3.77671C11.2841 3.83873 11.27 3.90057 11.2828 3.96314C11.2866 3.98178 11.2811 3.9995 11.2673 4.01611C11.2542 4.0318 11.2443 4.02903 11.2379 4.01408C11.226 3.98658 11.2151 3.95871 11.205 3.93084C11.166 3.82194 11.1395 3.71119 11.139 3.59822C11.1383 3.41992 11.223 3.26838 11.3985 3.14471C11.57 3.02381 11.7603 2.9269 11.9866 2.87282C12.0447 2.85898 12.105 2.84993 12.1608 2.83129C12.1692 2.82852 12.1826 2.82686 12.1816 2.81929C12.1806 2.81154 12.1683 2.80564 12.1579 2.806C12.0889 2.80877 12.017 2.7929 11.9525 2.82612C11.9211 2.84237 11.8868 2.84809 11.8517 2.82705C11.8349 2.81689 11.7464 2.83129 11.7304 2.8444C11.7195 2.85326 11.7089 2.86249 11.699 2.87098C11.6849 2.86821 11.6893 2.86046 11.6861 2.85547C11.6814 2.8479 11.6861 2.83554 11.6735 2.83258C11.6585 2.82908 11.6466 2.83849 11.6372 2.84569C11.6258 2.85436 11.6169 2.86489 11.6076 2.87504C11.5942 2.88925 11.5799 2.89848 11.5554 2.88722C11.5337 2.87725 11.5233 2.89091 11.5129 2.90106C11.501 2.91288 11.4899 2.91786 11.4741 2.90439C11.4623 2.89405 11.4541 2.89608 11.4472 2.909C11.4368 2.92857 11.4232 2.94702 11.4128 2.96659C11.4059 2.97951 11.3975 2.98339 11.3819 2.97453C11.3646 2.96474 11.3523 2.96862 11.3422 2.98191C11.3328 2.99391 11.3199 3.00443 11.3135 3.01809C11.3026 3.04098 11.2828 3.05906 11.2576 3.07438C11.2349 3.08823 11.2127 3.10263 11.1966 3.12145C11.1931 3.1257 11.1865 3.1316 11.1815 3.13142C11.1393 3.12939 11.141 3.15375 11.1348 3.17332C11.1286 3.19289 11.1222 3.21264 11.1168 3.23239C11.1116 3.25177 11.1059 3.26949 11.0758 3.27724C11.0575 3.28185 11.0582 3.29699 11.0585 3.30936C11.0592 3.32947 11.053 3.35273 11.0258 3.35273C10.9957 3.35273 10.9952 3.32597 10.9964 3.30862C11.0157 3.05648 11.1536 2.85252 11.4388 2.71021C11.635 2.61238 11.8549 2.56605 12.0879 2.54925C12.171 2.54335 12.2538 2.53559 12.3351 2.52009C12.363 2.51474 12.3882 2.5068 12.4052 2.48299C12.2943 2.47745 12.1883 2.4481 12.0788 2.47431C12.0652 2.47764 12.0504 2.4828 12.0378 2.47671C11.9985 2.45789 11.9671 2.47154 11.935 2.48779C11.9256 2.49259 11.9125 2.50292 11.9026 2.48908C11.8895 2.47062 11.8727 2.47321 11.8534 2.48133C11.785 2.51031 11.7066 2.5223 11.6333 2.53412C11.5309 2.55036 11.4647 2.60592 11.377 2.63601C11.3659 2.63988 11.3548 2.65317 11.3439 2.64524C11.3308 2.63582 11.3491 2.62641 11.3557 2.61884C11.4642 2.49757 11.6034 2.39937 11.7622 2.31539C11.9414 2.2207 12.1406 2.18674 12.3571 2.20187C12.4623 2.20926 12.5678 2.21738 12.6731 2.22402C12.6926 2.22531 12.7233 2.23196 12.7292 2.2159C12.7337 2.20427 12.7035 2.19578 12.685 2.19135C12.6341 2.17898 12.5945 2.15001 12.5439 2.13819C12.4935 2.12638 12.444 2.11327 12.3976 2.09426C12.3632 2.08023 12.3163 2.09002 12.2881 2.06307C12.2866 2.06159 12.2792 2.06288 12.275 2.06418C12.1949 2.08873 12.1092 2.09519 12.0257 2.10866C12.0024 2.11235 11.9827 2.12195 11.9567 2.13044C11.9604 2.10201 11.9817 2.08485 12.0052 2.07008C12.086 2.01988 12.1836 1.9968 12.2834 1.97964C12.4786 1.94641 12.6588 1.97558 12.8258 2.05587C12.8861 2.08485 12.9477 2.11217 13.0166 2.12915C13.0376 2.13432 13.043 2.13284 13.0433 2.11604C13.0448 2.0483 13.0539 1.98111 13.066 1.91393C13.0692 1.89621 13.0771 1.88846 13.1006 1.89012C13.1273 1.89196 13.1355 1.88403 13.1377 1.86335C13.1426 1.8137 13.1327 1.76294 13.155 1.7144C13.1582 1.7072 13.156 1.69649 13.1691 1.69538C13.1844 1.69428 13.1851 1.70627 13.1898 1.71366C13.2098 1.74485 13.2017 1.77937 13.2089 1.81204C13.2123 1.82754 13.2113 1.8436 13.2136 1.85929C13.2155 1.87424 13.2182 1.88827 13.2405 1.89621C13.2568 1.90211 13.259 1.91577 13.2593 1.92832C13.2598 1.9442 13.2598 1.95989 13.2603 1.97576C13.2612 1.99791 13.2657 2.0184 13.2865 2.03686C13.3084 2.05661 13.3102 2.0819 13.3089 2.107C13.307 2.14982 13.3107 2.15314 13.3631 2.13616C13.4352 2.11272 13.5042 2.08393 13.5709 2.05273C13.708 1.98887 13.8551 1.96229 14.0157 1.98351C14.119 1.99717 14.2124 2.02947 14.3026 2.06805C14.3295 2.0795 14.3495 2.09722 14.3621 2.11881C14.3728 2.13672 14.3651 2.14539 14.3389 2.14336C14.3275 2.14244 14.3164 2.13856 14.3053 2.13579C14.2275 2.11697 14.1459 2.09648 14.0673 2.1153C14.0068 2.12989 13.949 2.13838 13.886 2.13967C13.8348 2.14078 13.7958 2.17012 13.7471 2.18803C13.8027 2.21996 13.8632 2.22052 13.924 2.2183C13.9991 2.21535 14.074 2.20889 14.1491 2.20759C14.3169 2.20464 14.4667 2.24396 14.5944 2.3248C14.6948 2.3883 14.7921 2.45475 14.8838 2.52544C14.9231 2.5559 14.9535 2.59134 14.9784 2.63305C14.9535 2.62973 14.9359 2.61995 14.9179 2.61201C14.8611 2.58709 14.802 2.5679 14.7375 2.55424C14.6797 2.54205 14.6238 2.5212 14.5712 2.49794C14.5529 2.48982 14.5336 2.48317 14.5129 2.47967C14.4835 2.47487 14.4548 2.47228 14.4385 2.49794C14.4318 2.50846 14.4222 2.50809 14.4103 2.50126C14.3972 2.49369 14.3827 2.48779 14.3696 2.48059C14.3523 2.47099 14.3369 2.46379 14.3226 2.4841C14.3135 2.49702 14.2991 2.48871 14.289 2.4841C14.2537 2.46804 14.2196 2.45419 14.179 2.47745C14.1709 2.48207 14.1538 2.47874 14.141 2.47819C14.1014 2.47653 14.0634 2.4793 14.03 2.49757C14.0206 2.50274 14.011 2.50422 14.0001 2.50108C13.9969 2.50015 13.9934 2.49923 13.99 2.49886C13.9705 2.4972 13.9292 2.5188 13.9327 2.53098C13.9366 2.54538 13.9584 2.54464 13.9727 2.54593C14.0416 2.55184 14.1108 2.5559 14.1798 2.5607C14.3191 2.5703 14.4588 2.57823 14.5939 2.60777C14.93 2.68086 15.1714 2.83277 15.2913 3.08251C15.3373 3.17849 15.3476 3.27871 15.3343 3.38466C15.3103 3.36805 15.3007 3.34922 15.2878 3.33243C15.2367 3.26524 15.1865 3.19787 15.1361 3.13031C15.1208 3.10982 15.1045 3.09063 15.0689 3.08915C15.0555 3.0886 15.0558 3.08121 15.0538 3.07438C15.0365 3.01273 14.9784 2.97526 14.9142 2.94093C14.9112 2.93946 14.908 2.93835 14.9048 2.93724C14.8828 2.93004 14.8546 2.93576 14.8366 2.91915C14.8218 2.90568 14.8062 2.89276 14.7906 2.87928C14.7649 2.90697 14.7649 2.90697 14.7363 2.88113C14.7318 2.87707 14.7271 2.87301 14.7227 2.86895C14.692 2.84107 14.6913 2.84071 14.6619 2.87079C14.6532 2.87947 14.6478 2.8815 14.6384 2.87282C14.631 2.86599 14.6231 2.85953 14.6162 2.85233C14.6021 2.83794 14.5922 2.82594 14.5616 2.84015C14.5391 2.85067 14.5052 2.83868 14.4778 2.8527C14.4682 2.85769 14.4523 2.83997 14.4383 2.83406C14.4326 2.83166 14.4276 2.8252 14.4202 2.82852C14.4135 2.83148 14.4145 2.83775 14.4148 2.84274C14.416 2.86802 14.4353 2.88537 14.4615 2.89848C14.5601 2.94795 14.6584 2.99741 14.758 3.04577C14.8882 3.10909 15.0069 3.18089 15.085 3.28444C15.1729 3.40091 15.1971 3.52716 15.1932 3.65803C15.1892 3.79111 15.1467 3.91847 15.0921 4.04417C15.084 4.06263 15.0768 4.05931 15.063 4.0486C15.0345 4.02682 15.0355 4.00135 15.0444 3.97477C15.0481 3.96369 15.0538 3.95299 15.0602 3.94265C15.0696 3.9277 15.0652 3.91681 15.0449 3.9109C15.0229 3.90444 15.0202 3.89208 15.0219 3.87676C15.0239 3.85922 15.0239 3.84169 15.0256 3.82415C15.0274 3.80754 15.0296 3.79222 14.9957 3.79646C14.9826 3.79812 14.9819 3.78945 14.9819 3.78207C14.9819 3.75604 14.9718 3.73223 14.9589 3.70823C14.9448 3.68165 14.9587 3.65268 14.9508 3.62499C14.9461 3.60893 14.9451 3.59213 14.9426 3.57589C14.9379 3.57589 14.9352 3.57534 14.9332 3.57589C14.885 3.59324 14.885 3.59342 14.8803 3.553C14.8789 3.54082 14.8759 3.52845 14.8759 3.51627C14.8761 3.49117 14.87 3.47326 14.8272 3.48305C14.8104 3.48692 14.8092 3.4764 14.8065 3.46754C14.7966 3.43469 14.7857 3.40183 14.7738 3.36436C14.7565 3.38319 14.7432 3.39777 14.7261 3.41641C14.7076 3.37451 14.6911 3.33686 14.6735 3.29699C14.6651 3.30253 14.6597 3.30548 14.655 3.30899C14.6162 3.33723 14.6162 3.33723 14.5949 3.29847C14.5878 3.28554 14.5798 3.27262 14.5742 3.25933C14.5668 3.24161 14.5576 3.22943 14.5277 3.22722C14.5005 3.22519 14.4906 3.20433 14.481 3.18753C14.4731 3.17406 14.4654 3.16649 14.4422 3.16907C14.4084 3.17295 14.3846 3.15892 14.3661 3.13843C14.3555 3.12681 14.3439 3.10576 14.3241 3.1137C14.3028 3.12219 14.3125 3.14286 14.3201 3.15948C14.3389 3.20045 14.3789 3.23109 14.4121 3.26487C14.4795 3.33354 14.5559 3.3974 14.6132 3.47142C14.7316 3.62462 14.7481 3.78686 14.6854 3.95502C14.6399 4.07666 14.5611 4.18574 14.4605 4.28671C14.4462 4.30111 14.4321 4.31643 14.4037 4.3251C14.4056 4.31015 14.4059 4.29815 14.4088 4.28652C14.4135 4.26788 14.4224 4.24887 14.3807 4.24979C14.3686 4.24998 14.3703 4.24278 14.3733 4.23613C14.3789 4.22284 14.3841 4.20937 14.3891 4.19571C14.3933 4.18464 14.3987 4.17061 14.3893 4.1623C14.3592 4.13498 14.3767 4.1097 14.3901 4.08367C14.3999 4.06392 14.4088 4.04399 14.4192 4.02424C14.4276 4.00818 14.4212 4.00264 14.3995 4.0067C14.374 4.01131 14.3696 4.00504 14.3755 3.98658C14.3893 3.94339 14.3999 3.89964 14.4121 3.85645C14.3898 3.85036 14.3718 3.87676 14.3582 3.8618C14.3493 3.85202 14.3582 3.83301 14.3594 3.81824C14.3609 3.80163 14.3624 3.7852 14.3641 3.76675C14.3404 3.77081 14.3342 3.7889 14.3098 3.79849C14.3098 3.74552 14.3098 3.69624 14.3098 3.64492C14.2779 3.65046 14.2774 3.66892 14.2672 3.68147C14.2638 3.68571 14.2628 3.69273 14.2544 3.69291C14.244 3.69328 14.2418 3.68571 14.2396 3.68036C14.2319 3.66172 14.2339 3.64215 14.2319 3.62296C14.2292 3.59564 14.2252 3.59324 14.1956 3.60671C14.1773 3.61502 14.1763 3.60801 14.1746 3.59785C14.1716 3.57958 14.1682 3.56131 14.1654 3.54285C14.1635 3.53048 14.1595 3.52107 14.1397 3.53067C14.1187 3.54082 14.1113 3.53159 14.1046 3.51848C14.0891 3.4884 14.0626 3.46606 14.0206 3.45499C13.9994 3.44945 13.9883 3.45019 13.9922 3.4716C14.0063 3.54728 14.0211 3.62296 14.0308 3.699C14.0577 3.91146 14.0468 4.12188 13.9569 4.32676C13.9131 4.42644 13.8511 4.51983 13.774 4.60769C13.7468 4.6387 13.7127 4.6651 13.6749 4.68872C13.6633 4.68282 13.6692 4.67507 13.6687 4.66879C13.664 4.5669 13.6836 4.46464 13.6717 4.36331C13.6628 4.28837 13.6779 4.22063 13.7172 4.15363C13.7189 4.15067 13.7191 4.14735 13.7211 4.14126C13.6796 4.14532 13.6697 4.17522 13.6364 4.1911C13.6336 4.15326 13.6307 4.11893 13.6285 4.08441C13.627 4.06244 13.6267 4.04048 13.6255 4.01851C13.6233 3.98141 13.6166 3.94671 13.5847 3.91478C13.543 3.87269 13.5504 3.81917 13.5383 3.77025C13.5365 3.76379 13.542 3.75438 13.5321 3.75124C13.5205 3.74755 13.5138 3.75696 13.5059 3.76176C13.4617 3.78963 13.4594 3.83135 13.4431 3.86845C13.4006 3.9648 13.4075 4.06429 13.4125 4.16359C13.4192 4.30037 13.4241 4.43733 13.431 4.57428C13.4478 4.90948 13.4587 5.24487 13.4612 5.58043C13.4622 5.69469 13.4641 5.80876 13.4698 5.92301C13.474 6.00423 13.499 6.08268 13.5469 6.15651C13.5926 6.22683 13.5956 6.2979 13.5543 6.37044C13.5029 6.4607 13.518 6.54782 13.5855 6.62977C13.6346 6.68958 13.6895 6.7468 13.7416 6.80512C13.7587 6.82414 13.7752 6.84352 13.7851 6.8653C13.8079 6.91458 13.7827 6.95076 13.7154 6.96423C13.6413 6.97918 13.5657 6.98767 13.4891 6.9886C13.2726 6.991 13.0561 6.99413 12.8397 6.9897C12.7653 6.98823 12.6921 6.97937 12.6212 6.96294C12.5515 6.94688 12.5288 6.91089 12.557 6.8605C12.5854 6.80992 12.6296 6.76636 12.6716 6.72188C12.7468 6.64232 12.8021 6.55742 12.8046 6.45737C12.8058 6.41178 12.7952 6.36822 12.7685 6.32725C12.7344 6.27501 12.7359 6.2237 12.7747 6.17367C12.8421 6.08692 12.853 5.99075 12.858 5.89385C12.872 5.6131 12.8792 5.33199 12.8866 5.05106C12.8928 4.81239 12.9108 4.57392 12.9222 4.33525C12.9291 4.18685 12.9202 4.03845 12.914 3.89005C12.9123 3.83836 12.8688 3.78022 12.8169 3.75161Z" fill="#127043"/>
<path d="M17.81 6.47159C17.7564 6.48212 17.7057 6.4823 17.6556 6.48581C17.4213 6.50168 17.1868 6.51331 16.9535 6.53749C16.6508 6.56887 16.3498 6.60781 16.0533 6.66411C15.7884 6.71432 15.5329 6.78427 15.2825 6.86604C14.9722 6.96775 14.6697 7.08034 14.3912 7.22579C14.1465 7.35352 13.9306 7.50635 13.7203 7.6638C13.6713 7.70053 13.6232 7.73782 13.5762 7.77584C13.5411 7.80408 13.5404 7.81146 13.5718 7.84155C13.6637 7.93052 13.7564 8.01893 13.8498 8.10698C13.9835 8.23305 14.1315 8.3497 14.278 8.46709C14.2973 8.48241 14.319 8.49589 14.3391 8.51065C14.3566 8.52376 14.3655 8.51951 14.3729 8.50383C14.4087 8.4287 14.4456 8.35358 14.4819 8.27864C14.4972 8.24726 14.514 8.21662 14.5385 8.18819C14.5956 8.12156 14.6816 8.10439 14.772 8.145C14.8627 8.18579 14.9049 8.24707 14.8975 8.32644C14.8943 8.36188 14.8644 8.38662 14.8096 8.39548C14.6798 8.41633 14.621 8.48426 14.5951 8.57323C14.5716 8.65389 14.5951 8.72514 14.6741 8.7866C14.7488 8.84438 14.8254 8.89957 14.9168 8.9422C14.9964 8.9793 15.0152 8.97543 15.0569 8.91322C15.0811 8.87705 15.1061 8.84105 15.1481 8.81411C15.2539 8.74618 15.4175 8.7316 15.544 8.84382C15.6401 8.9291 15.6651 9.03006 15.6505 9.13786C15.6411 9.20689 15.6065 9.26946 15.5462 9.32189C15.4481 9.40735 15.3179 9.42599 15.175 9.4151C15.0248 9.40366 14.8998 9.34957 14.7779 9.28811C14.6395 9.21834 14.4992 9.15078 14.3596 9.08267C14.3176 9.06218 14.3163 9.06292 14.2797 9.08987C14.1945 9.15281 14.1181 9.22277 14.0242 9.27869C13.8994 9.35308 13.7079 9.34625 13.6059 9.263C13.4996 9.17625 13.4937 9.04483 13.6461 8.95254C13.6716 8.93722 13.701 8.93685 13.7292 8.9483C13.7786 8.96841 13.8263 8.99112 13.8767 9.00994C13.9427 9.03468 14.0096 9.0225 14.0573 8.98023C14.087 8.95402 14.0914 8.92522 14.0732 8.8944C14.0405 8.83958 13.9852 8.79731 13.9323 8.75393C13.703 8.56548 13.4734 8.37757 13.2436 8.18948C13.2216 8.1714 13.2006 8.14389 13.1712 8.14223C13.143 8.14057 13.1235 8.16992 13.101 8.18598C12.9006 8.32958 12.717 8.485 12.5356 8.64189C12.4664 8.7017 12.3982 8.76205 12.3293 8.82204C12.306 8.84216 12.2865 8.86394 12.2729 8.88849C12.2529 8.92412 12.2576 8.95752 12.2929 8.9865C12.33 9.01696 12.3752 9.02951 12.4298 9.01659C12.4773 9.00552 12.5183 8.98429 12.5623 8.96768C12.5811 8.96048 12.5999 8.95328 12.6194 8.94737C12.6518 8.93759 12.6826 8.94091 12.7081 8.95863C12.7847 9.01198 12.8124 9.07916 12.7971 9.15484C12.781 9.23366 12.7289 9.2966 12.6223 9.3217C12.523 9.34514 12.4296 9.32189 12.3409 9.28737C12.2457 9.25027 12.1768 9.19176 12.1121 9.12974C12.0925 9.1111 12.07 9.09411 12.0518 9.07473C12.0379 9.05997 12.0256 9.06218 12.0078 9.06938C11.9084 9.1098 11.8192 9.16167 11.7256 9.20874C11.6339 9.2547 11.5471 9.30638 11.4493 9.34533C11.3351 9.39073 11.2133 9.41344 11.0831 9.40993C10.9089 9.40532 10.7781 9.32798 10.7173 9.19231C10.6548 9.05295 10.7092 8.90566 10.8584 8.81004C10.9773 8.734 11.1303 8.74544 11.2276 8.83755C11.262 8.87003 11.2909 8.9051 11.3205 8.9398C11.3482 8.97192 11.3561 8.97487 11.3994 8.95642C11.5299 8.90123 11.6396 8.82739 11.732 8.73953C11.7629 8.71037 11.7688 8.67493 11.7557 8.63931C11.7369 8.58855 11.7154 8.53853 11.6959 8.48795C11.6791 8.44476 11.6428 8.4167 11.5847 8.40415C11.5768 8.40249 11.5694 8.39991 11.5615 8.39806C11.4626 8.3748 11.4367 8.34287 11.455 8.2659C11.4775 8.17158 11.5993 8.11141 11.7221 8.13374C11.7784 8.14408 11.8145 8.17047 11.8333 8.21053C11.8733 8.2958 11.9126 8.38126 11.9527 8.46654C11.9796 8.52431 11.9954 8.52727 12.0503 8.48204C12.2969 8.27808 12.5351 8.06858 12.7595 7.85078C12.7894 7.82162 12.7884 7.81479 12.7597 7.78304C12.6972 7.71382 12.6144 7.65882 12.5354 7.60141C12.3505 7.46722 12.1558 7.34208 11.9502 7.22561C11.7671 7.12187 11.5635 7.04582 11.3584 6.97144C11.1258 6.88708 10.8888 6.80993 10.6449 6.74588C10.3207 6.6606 9.99132 6.59083 9.6503 6.55447C9.4489 6.53306 9.24651 6.51848 9.04437 6.50168C8.92971 6.49208 8.81554 6.48064 8.70113 6.46975C8.68828 6.46846 8.67518 6.46735 8.66406 6.4559C8.70286 6.44335 8.74363 6.44077 8.78292 6.43929C9.11875 6.42637 9.45285 6.39536 9.78992 6.39868C10.1851 6.40256 10.5762 6.43062 10.9607 6.50131C11.2207 6.54912 11.4698 6.61926 11.7107 6.70583C11.9502 6.79203 12.1862 6.88247 12.4027 6.99894C12.5882 7.09861 12.7617 7.20899 12.927 7.32657C12.9943 7.37438 13.0617 7.42218 13.1252 7.47257C13.1512 7.49325 13.168 7.48974 13.191 7.47387C13.2688 7.42034 13.3481 7.36792 13.4247 7.31347C13.7499 7.08256 14.1112 6.89022 14.5135 6.74108C14.7636 6.64824 15.0233 6.57459 15.2914 6.51737C15.5751 6.45664 15.8647 6.42323 16.1591 6.40865C16.44 6.39481 16.7207 6.40127 17.0015 6.41197C17.1505 6.4177 17.2997 6.42194 17.4487 6.43006C17.5553 6.43597 17.6615 6.44705 17.7678 6.45609C17.7806 6.45812 17.795 6.45978 17.81 6.47159ZM15.202 9.23643C15.2161 9.23643 15.2301 9.23698 15.2442 9.23624C15.3633 9.22996 15.4313 9.19213 15.4587 9.117C15.4807 9.05683 15.4404 8.97118 15.3727 8.93519C15.3142 8.904 15.2403 8.92522 15.2099 8.98337C15.1896 9.02194 15.178 9.062 15.1748 9.1039C15.1718 9.14524 15.1488 9.15798 15.0942 9.15355C15.0717 9.1517 15.051 9.14561 15.03 9.14007C14.9 9.10611 14.7962 9.04483 14.7028 8.971C14.6512 8.93021 14.5941 8.89329 14.5405 8.85397C14.5214 8.84013 14.5115 8.84308 14.4994 8.85914C14.4708 8.89661 14.4737 8.92818 14.513 8.96029C14.5758 9.01142 14.643 9.05923 14.7184 9.1002C14.8627 9.17884 15.0201 9.23255 15.202 9.23643ZM10.8935 9.07473C10.8935 9.1829 10.957 9.23716 11.0972 9.24067C11.236 9.24418 11.3677 9.21631 11.4883 9.16481C11.6208 9.10814 11.729 9.02766 11.8427 8.95309C11.8736 8.93279 11.8783 8.90492 11.8642 8.87557C11.8499 8.84567 11.8459 8.84382 11.8113 8.86062C11.7938 8.86929 11.7767 8.87889 11.7609 8.88941C11.6633 8.95402 11.5657 9.01844 11.4693 9.08415C11.4102 9.12439 11.3433 9.1469 11.263 9.14875C11.1985 9.15023 11.178 9.13804 11.1696 9.09098C11.1634 9.05701 11.1547 9.02342 11.1486 8.98946C11.1419 8.9518 11.1149 8.92799 11.065 8.92098C11.0126 8.91359 10.9691 8.92651 10.9388 8.95919C10.9054 8.99481 10.8962 9.03634 10.8935 9.07473ZM13.7608 9.05332C13.7311 9.05314 13.7124 9.06458 13.702 9.08452C13.6807 9.12531 13.7067 9.17182 13.7593 9.1912C13.8552 9.22664 13.9469 9.21557 14.0269 9.16924C14.131 9.10906 14.213 9.03413 14.2662 8.9422C14.3608 8.77867 14.4579 8.61605 14.5548 8.45343C14.5807 8.40969 14.6188 8.37351 14.6818 8.35653C14.7028 8.35081 14.7169 8.33918 14.7302 8.327C14.7596 8.30023 14.7527 8.26849 14.7124 8.24135C14.6781 8.21809 14.6393 8.2192 14.6069 8.24541C14.5746 8.27162 14.5543 8.30356 14.5375 8.33641C14.4656 8.47743 14.3942 8.61845 14.3237 8.76002C14.2696 8.86893 14.1945 8.96823 14.0909 9.05535C14.0487 9.09098 13.9966 9.10353 13.9353 9.09282C13.9091 9.08821 13.8844 9.07935 13.8589 9.0727C13.8273 9.0644 13.7956 9.05406 13.7608 9.05332ZM12.4884 9.20671C12.5176 9.20763 12.5781 9.19176 12.5996 9.17754C12.6347 9.15466 12.6485 9.10353 12.6275 9.07584C12.6097 9.05258 12.5808 9.04963 12.52 9.0644C12.481 9.07381 12.442 9.08359 12.4022 9.09116C12.3411 9.1026 12.2882 9.09079 12.2452 9.05609C12.2124 9.02951 12.1835 9.00072 12.1637 8.96749C12.0547 8.7866 11.9438 8.60664 11.8509 8.42076C11.8207 8.36059 11.7859 8.30226 11.7337 8.2504C11.7159 8.23268 11.6937 8.22289 11.664 8.22769C11.6317 8.23305 11.6099 8.24763 11.6028 8.27292C11.5924 8.30965 11.6102 8.33863 11.6586 8.35413C11.7322 8.37757 11.7814 8.41763 11.8116 8.47171C11.8854 8.60368 11.9603 8.73529 12.0312 8.86819C12.0873 8.97321 12.158 9.06956 12.2771 9.14303C12.3384 9.18087 12.4079 9.20357 12.4884 9.20671ZM14.2405 8.65518C14.2402 8.63506 14.2249 8.61605 14.2031 8.59907C14.0858 8.50696 13.9691 8.4143 13.8512 8.32257C13.8075 8.28842 13.7667 8.25169 13.7148 8.22382C13.7032 8.21754 13.6891 8.21366 13.6793 8.22012C13.6694 8.22659 13.684 8.23341 13.6877 8.24006C13.6909 8.2456 13.6956 8.25077 13.7005 8.25575C13.8416 8.40471 13.983 8.55348 14.1243 8.70243C14.1367 8.71554 14.1512 8.72661 14.171 8.73363C14.1811 8.73713 14.1923 8.74027 14.1989 8.73123C14.2162 8.70834 14.2385 8.68711 14.2405 8.65518ZM12.6377 8.22234C12.6307 8.21846 12.6273 8.22142 12.6231 8.22271C12.5774 8.23637 12.549 8.26479 12.5173 8.29063C12.3896 8.39474 12.2621 8.49884 12.1343 8.60295C12.118 8.61623 12.1061 8.63119 12.1009 8.64872C12.0923 8.6777 12.118 8.71332 12.1595 8.72495C12.1916 8.734 12.1951 8.70594 12.2139 8.69708C12.2149 8.69671 12.2153 8.69579 12.2161 8.69505C12.3522 8.56714 12.4748 8.43239 12.5887 8.29303C12.6075 8.27033 12.627 8.24763 12.6377 8.22234Z" fill="#A67C1D"/>
<path d="M27.1487 2.8148C27.1478 2.81694 27.1466 2.81892 27.146 2.82106C27.1453 2.82281 27.1441 2.82411 27.1414 2.82358C27.1309 2.82144 27.1322 2.82617 27.1332 2.83037C27.1359 2.8422 27.1327 2.85366 27.1287 2.86511C27.1279 2.86763 27.1266 2.86938 27.1225 2.869C27.1159 2.86839 27.1161 2.87076 27.1174 2.87404C27.1191 2.87877 27.1208 2.88351 27.1219 2.88824C27.1228 2.89206 27.1223 2.89572 27.117 2.89832C27.1138 2.89984 27.1135 2.90229 27.1133 2.9048C27.1128 2.90885 27.115 2.91259 27.1156 2.91748C27.1075 2.91458 27.105 2.90954 27.1011 2.90526C27.0994 2.90351 27.0985 2.90022 27.095 2.90114C27.0916 2.90206 27.0936 2.90496 27.0945 2.90702C27.0991 2.91809 27.1036 2.92908 27.1085 2.94007C27.1106 2.94496 27.1106 2.94931 27.1035 2.95229C27.0987 2.95427 27.1006 2.95718 27.1011 2.96C27.1069 2.98557 27.1126 3.01115 27.1114 3.03718C27.1113 3.04039 27.1135 3.0452 27.1093 3.04642C27.1035 3.0481 27.0988 3.04413 27.095 3.04115C27.0731 3.02359 27.056 3.0039 27.0431 2.9826C27.0135 2.93351 27.0037 2.88228 27.0079 2.82938C27.0099 2.80434 27.0181 2.77991 27.0208 2.75495C27.0214 2.74876 27.0224 2.74258 27.0216 2.7364C27.0213 2.73426 27.0213 2.73151 27.0174 2.73113C27.0142 2.73075 27.0114 2.73227 27.0093 2.73411C27.0056 2.73724 27.0058 2.74113 27.0047 2.74479C27.0036 2.74846 27.0035 2.7535 26.9953 2.74846C26.9933 2.74724 26.9911 2.74708 26.9894 2.74838C26.9843 2.7522 26.9786 2.75143 26.9715 2.74853C26.9715 2.75769 26.9715 2.76571 26.9715 2.7738C26.9715 2.77525 26.9726 2.77739 26.9698 2.77785C26.9663 2.77846 26.9663 2.77594 26.9654 2.77441C26.9647 2.77342 26.9646 2.77228 26.9641 2.77121C26.9629 2.7693 26.9636 2.76571 26.9601 2.76586C26.9555 2.76609 26.9554 2.76976 26.9554 2.77228C26.9552 2.77915 26.9566 2.78594 26.9586 2.79266C26.9595 2.79564 26.9597 2.79869 26.9604 2.80213C26.9519 2.80136 26.9495 2.79739 26.947 2.79319C26.9449 2.78945 26.9446 2.78487 26.9376 2.78273C26.9332 2.79121 26.9362 2.79961 26.9351 2.80785C26.9348 2.81052 26.937 2.81495 26.9326 2.81549C26.9274 2.8161 26.9269 2.81159 26.9253 2.80877C26.9235 2.80587 26.9234 2.80067 26.918 2.80129C26.9135 2.80174 26.9145 2.80678 26.9144 2.80991C26.9141 2.81716 26.9181 2.82381 26.9205 2.8306C26.9217 2.83396 26.9228 2.8374 26.9243 2.8419C26.9205 2.84091 26.9181 2.84037 26.9156 2.83969C26.9074 2.83717 26.9048 2.83801 26.9066 2.84411C26.9089 2.85274 26.9127 2.86129 26.9162 2.86976C26.9176 2.87312 26.9184 2.87534 26.9117 2.87534C26.9051 2.87534 26.905 2.8787 26.9053 2.8819C26.9058 2.88732 26.9097 2.89206 26.9119 2.89709C26.9154 2.90542 26.917 2.91351 26.9103 2.92145C26.9085 2.92381 26.9081 2.92656 26.9085 2.92923C26.9089 2.93236 26.9075 2.93443 26.9027 2.93496C26.897 2.93565 26.8978 2.93832 26.8986 2.94099C26.8998 2.94549 26.902 2.94985 26.9016 2.9545C26.8974 2.95481 26.8962 2.95275 26.8949 2.95107C26.8763 2.92565 26.8552 2.90106 26.839 2.87473C26.8102 2.8277 26.8184 2.78273 26.8555 2.73952C26.8667 2.72655 26.8795 2.71441 26.8922 2.70227C26.9015 2.69341 26.91 2.68441 26.9119 2.67318C26.9127 2.6686 26.913 2.6641 26.9097 2.6599C26.9059 2.66066 26.9051 2.6628 26.9037 2.66441C26.9003 2.66837 26.8967 2.67044 26.8904 2.6667C26.8858 2.66387 26.8839 2.66586 26.883 2.66906C26.8824 2.67143 26.8809 2.67379 26.8807 2.67616C26.8803 2.68082 26.877 2.68303 26.8703 2.6825C26.8655 2.68212 26.8636 2.68395 26.8621 2.68677C26.8582 2.69418 26.8539 2.70158 26.8491 2.71006C26.8458 2.70532 26.8431 2.70143 26.84 2.69708C26.8299 2.70548 26.8305 2.71655 26.8219 2.7254C26.8186 2.72258 26.8157 2.72006 26.8122 2.717C26.8089 2.72304 26.8053 2.72846 26.803 2.73411C26.8012 2.73838 26.7982 2.73945 26.7926 2.73777C26.7875 2.73617 26.7859 2.73769 26.785 2.74105C26.7822 2.75113 26.7791 2.76121 26.7762 2.77174C26.7704 2.76922 26.7697 2.76464 26.7646 2.76212C26.7592 2.76678 26.7592 2.7722 26.7596 2.77731C26.7605 2.78945 26.7524 2.79953 26.7457 2.80999C26.7451 2.8109 26.7436 2.81243 26.7428 2.81236C26.7316 2.8109 26.7339 2.81701 26.7334 2.82068C26.7313 2.83625 26.7275 2.85182 26.731 2.86763C26.7319 2.87228 26.7305 2.87679 26.7268 2.88099C26.7232 2.88496 26.7205 2.88419 26.7187 2.88045C26.7155 2.8735 26.7125 2.86648 26.7097 2.85946C26.6991 2.83205 26.6919 2.80411 26.6917 2.77571C26.6915 2.73082 26.7146 2.69265 26.7623 2.6615C26.8091 2.63104 26.8608 2.60661 26.9225 2.59303C26.9383 2.58951 26.9547 2.5873 26.97 2.58257C26.9723 2.58188 26.976 2.58142 26.9757 2.57959C26.9753 2.57768 26.972 2.57615 26.9691 2.57623C26.9503 2.57692 26.9308 2.57295 26.9132 2.58127C26.9046 2.58532 26.8953 2.58677 26.8857 2.5815C26.8812 2.57898 26.8571 2.58257 26.8526 2.58585C26.8497 2.58806 26.8468 2.59043 26.8441 2.59257C26.8404 2.59188 26.8415 2.5899 26.8406 2.58867C26.8393 2.58677 26.8406 2.58364 26.8372 2.58295C26.8331 2.58203 26.8299 2.5844 26.8272 2.58623C26.8241 2.58837 26.8217 2.59104 26.8192 2.59364C26.8155 2.59722 26.8116 2.59951 26.8049 2.59669C26.799 2.59417 26.7962 2.59761 26.7933 2.6002C26.7901 2.60318 26.787 2.60448 26.7828 2.60104C26.7796 2.59845 26.7774 2.59898 26.7755 2.60219C26.7726 2.60707 26.769 2.61181 26.7661 2.61669C26.7642 2.61997 26.7619 2.62089 26.7577 2.61868C26.7529 2.61623 26.7496 2.61723 26.7469 2.62051C26.7443 2.62356 26.7408 2.62616 26.739 2.62959C26.736 2.63532 26.7307 2.6399 26.7238 2.64379C26.7176 2.64723 26.7115 2.65089 26.7071 2.65563C26.7061 2.65669 26.7043 2.65814 26.703 2.65814C26.6915 2.65761 26.6919 2.66379 26.6903 2.66868C26.6886 2.67364 26.6868 2.67853 26.6853 2.68357C26.6839 2.68845 26.6823 2.69288 26.6741 2.69487C26.6692 2.69601 26.6694 2.69983 26.6694 2.70296C26.6696 2.708 26.6678 2.71387 26.6604 2.71387C26.6523 2.71387 26.652 2.70708 26.6525 2.7028C26.6577 2.63929 26.6953 2.58791 26.773 2.55211C26.8264 2.52745 26.8864 2.51584 26.9497 2.51157C26.9723 2.51004 26.9949 2.50813 27.017 2.50424C27.0246 2.50294 27.0315 2.50088 27.0361 2.49493C27.0058 2.49355 26.977 2.48615 26.9471 2.49271C26.9435 2.49355 26.9394 2.49485 26.936 2.49332C26.9253 2.48859 26.9167 2.49203 26.908 2.49615C26.9055 2.49737 26.9019 2.49996 26.8992 2.49653C26.8956 2.49187 26.891 2.49248 26.8858 2.49454C26.8672 2.50187 26.8459 2.50485 26.8258 2.50783C26.7979 2.51195 26.7798 2.52592 26.756 2.53348C26.7531 2.5344 26.75 2.53783 26.747 2.53585C26.7434 2.53348 26.7484 2.53111 26.7502 2.5292C26.7797 2.49867 26.8176 2.47393 26.8609 2.45279C26.9098 2.42897 26.9639 2.42042 27.0229 2.42423C27.0516 2.42607 27.0802 2.42813 27.109 2.42981C27.1143 2.43011 27.1225 2.43179 27.1242 2.42782C27.1254 2.42492 27.1172 2.42278 27.1122 2.42164C27.0983 2.41851 27.0875 2.41126 27.0737 2.40828C27.06 2.4053 27.0465 2.40202 27.0338 2.39721C27.0244 2.39362 27.0117 2.39614 27.004 2.38935C27.0035 2.38896 27.0015 2.38927 27.0004 2.38958C26.9786 2.39576 26.9553 2.39736 26.9326 2.4008C26.9263 2.40171 26.9208 2.40416 26.9138 2.40629C26.9148 2.39912 26.9205 2.39477 26.9269 2.3911C26.9489 2.37843 26.9754 2.37263 27.0027 2.36835C27.0559 2.35995 27.105 2.36736 27.1504 2.38759C27.1669 2.39492 27.1836 2.40179 27.2024 2.40606C27.2081 2.40736 27.2095 2.40698 27.2096 2.40278C27.2101 2.38576 27.2125 2.36881 27.2158 2.35194C27.2167 2.34751 27.2189 2.34553 27.2252 2.34591C27.2325 2.34637 27.2347 2.34438 27.2353 2.33919C27.2366 2.32667 27.234 2.31392 27.24 2.30171C27.2409 2.29987 27.2404 2.2972 27.2439 2.2969C27.2481 2.29659 27.2482 2.29964 27.2495 2.30148C27.255 2.30934 27.2528 2.31804 27.2547 2.32629C27.2556 2.33018 27.2554 2.33423 27.256 2.3382C27.2565 2.34194 27.2573 2.34553 27.2633 2.34751C27.2677 2.34896 27.2682 2.3524 27.2683 2.3556C27.2684 2.35957 27.2684 2.36354 27.2687 2.36759C27.2689 2.37316 27.2702 2.37835 27.2757 2.38301C27.2817 2.38797 27.2822 2.39438 27.2818 2.40072C27.2813 2.41148 27.2823 2.41232 27.2965 2.40805C27.3162 2.40217 27.3349 2.39484 27.3531 2.38706C27.3905 2.37095 27.4305 2.36431 27.4742 2.36965C27.5023 2.37308 27.5279 2.38125 27.5524 2.39095C27.5597 2.39385 27.5652 2.39828 27.5686 2.4037C27.5715 2.4082 27.5694 2.41042 27.5623 2.40988C27.5592 2.40965 27.5563 2.40866 27.5532 2.40797C27.5319 2.40324 27.5097 2.39805 27.4883 2.40286C27.4718 2.40652 27.4561 2.40866 27.4389 2.40897C27.425 2.40919 27.4143 2.41668 27.4011 2.42118C27.4162 2.42927 27.4327 2.42935 27.4493 2.42881C27.4697 2.42805 27.4902 2.42645 27.5106 2.42614C27.5563 2.42538 27.5972 2.4353 27.6319 2.45561C27.6592 2.47164 27.6857 2.48828 27.7107 2.50615C27.7214 2.51378 27.7297 2.52272 27.7364 2.53325C27.7296 2.53241 27.7248 2.52997 27.72 2.52798C27.7045 2.52172 27.6883 2.51691 27.6709 2.51348C27.6551 2.51042 27.6399 2.50516 27.6256 2.49928C27.6206 2.49722 27.6154 2.49554 27.6096 2.4947C27.6017 2.49348 27.5938 2.49279 27.5894 2.49928C27.5875 2.50195 27.585 2.5018 27.5818 2.50012C27.5783 2.49821 27.5743 2.49676 27.5706 2.49493C27.5659 2.49248 27.5618 2.49073 27.5578 2.49577C27.5554 2.49897 27.5514 2.49691 27.5486 2.49577C27.539 2.49172 27.5297 2.48821 27.5187 2.49409C27.5165 2.49523 27.5118 2.49439 27.5083 2.49432C27.4975 2.49393 27.4872 2.49462 27.4781 2.4992C27.4756 2.5005 27.4729 2.50088 27.47 2.50012C27.4692 2.49989 27.4682 2.49966 27.4673 2.49958C27.462 2.4992 27.4507 2.50462 27.4517 2.50768C27.4528 2.51134 27.4587 2.51111 27.4626 2.51142C27.4814 2.51287 27.5002 2.51394 27.519 2.51516C27.5569 2.5176 27.5951 2.51958 27.6319 2.52699C27.7234 2.54539 27.7891 2.58364 27.8217 2.64654C27.8342 2.67074 27.8371 2.69593 27.8335 2.72265C27.8269 2.71845 27.8243 2.71372 27.8209 2.70952C27.8069 2.69265 27.7932 2.67563 27.7795 2.6586C27.7753 2.65341 27.7709 2.6486 27.7612 2.64822C27.7575 2.64807 27.7576 2.64624 27.7571 2.64448C27.7524 2.62898 27.7365 2.61952 27.7191 2.61089C27.7183 2.61051 27.7174 2.6102 27.7165 2.60997C27.7106 2.60814 27.7029 2.60959 27.698 2.60547C27.694 2.60203 27.6897 2.59883 27.6855 2.59547C27.6785 2.60242 27.6785 2.60242 27.6707 2.59593C27.6694 2.59493 27.6682 2.59387 27.667 2.59287C27.6586 2.58585 27.6585 2.58577 27.6504 2.59333C27.6481 2.59554 27.6466 2.596 27.644 2.59379C27.642 2.59203 27.6398 2.59043 27.6379 2.58867C27.6341 2.58501 27.6314 2.58203 27.6231 2.58562C27.6169 2.58829 27.6078 2.58524 27.6003 2.58875C27.5976 2.58997 27.5933 2.58554 27.5894 2.58409C27.5879 2.58348 27.5865 2.58188 27.5844 2.58272C27.5827 2.58341 27.5829 2.58501 27.583 2.58631C27.5833 2.59264 27.5885 2.59707 27.5957 2.60035C27.6226 2.6128 27.6493 2.62524 27.6764 2.63746C27.7119 2.65341 27.7442 2.6715 27.7655 2.69754C27.7895 2.72685 27.796 2.75869 27.795 2.79167C27.7939 2.82518 27.7824 2.85724 27.7675 2.88893C27.7653 2.89358 27.7633 2.89274 27.7595 2.88999C27.7518 2.8845 27.7521 2.87809 27.7544 2.87144C27.7554 2.8687 27.757 2.86595 27.7587 2.86335C27.7613 2.85961 27.7601 2.85686 27.7545 2.85534C27.7486 2.85373 27.7478 2.8506 27.7484 2.84671C27.7489 2.84228 27.7489 2.83785 27.7494 2.83343C27.7498 2.82923 27.7505 2.82541 27.7413 2.82648C27.7377 2.82686 27.7375 2.82472 27.7375 2.82281C27.7375 2.81625 27.7348 2.81029 27.7312 2.80426C27.7274 2.79754 27.7311 2.79022 27.729 2.78327C27.7278 2.77922 27.7275 2.77502 27.7268 2.7709C27.7255 2.7709 27.7248 2.77075 27.7243 2.7709C27.7111 2.77533 27.7111 2.77533 27.7099 2.7651C27.7096 2.76205 27.7087 2.75892 27.7087 2.75586C27.7087 2.74953 27.707 2.74502 27.6954 2.74754C27.6909 2.74853 27.6906 2.74586 27.6898 2.74365C27.687 2.7354 27.6841 2.72708 27.6809 2.71761C27.6763 2.72235 27.6726 2.72601 27.668 2.73075C27.663 2.72021 27.6585 2.71074 27.6536 2.70067C27.6513 2.70204 27.6499 2.7028 27.6486 2.70372C27.6381 2.71082 27.6381 2.71082 27.6322 2.70113C27.6302 2.69784 27.6281 2.69464 27.6266 2.69128C27.6246 2.68677 27.622 2.68372 27.614 2.68318C27.6066 2.68273 27.6039 2.67738 27.6012 2.67318C27.599 2.66975 27.5969 2.66792 27.5907 2.66853C27.5816 2.66952 27.575 2.66601 27.57 2.66082C27.5671 2.65792 27.5639 2.65257 27.5585 2.65456C27.5527 2.65669 27.5553 2.66189 27.5574 2.66608C27.5624 2.67639 27.5734 2.6841 27.5825 2.69265C27.6008 2.7099 27.6216 2.72601 27.6372 2.74464C27.6694 2.78319 27.674 2.82404 27.6568 2.8664C27.6445 2.89702 27.623 2.9245 27.5956 2.94992C27.5917 2.95351 27.5879 2.9574 27.5801 2.95962C27.5807 2.95588 27.5807 2.95282 27.5816 2.94992C27.5829 2.94519 27.5853 2.94046 27.5739 2.94069C27.5706 2.94076 27.5712 2.93893 27.5718 2.93725C27.5734 2.93389 27.5748 2.93046 27.5762 2.9271C27.5773 2.92427 27.5788 2.92076 27.5763 2.9187C27.5681 2.91183 27.5728 2.90549 27.5765 2.89893C27.5792 2.89396 27.5816 2.88893 27.5844 2.88396C27.5868 2.87992 27.585 2.87854 27.579 2.87954C27.5721 2.88068 27.5708 2.87915 27.5725 2.8745C27.5763 2.86366 27.5791 2.85259 27.5825 2.84175C27.5764 2.84022 27.5715 2.84686 27.5678 2.84312C27.5653 2.84068 27.5678 2.83587 27.5681 2.83213C27.5684 2.82793 27.5689 2.82381 27.5694 2.81915C27.563 2.82022 27.5612 2.82472 27.5546 2.82709C27.5546 2.81373 27.5546 2.80136 27.5546 2.78838C27.546 2.78976 27.5459 2.79441 27.543 2.79762C27.542 2.79869 27.5418 2.80045 27.5396 2.80052C27.5367 2.8006 27.5361 2.79869 27.5356 2.79732C27.5335 2.79258 27.534 2.7877 27.5335 2.78281C27.5327 2.77594 27.5317 2.77533 27.5237 2.77869C27.5187 2.78075 27.5183 2.77899 27.5179 2.77647C27.517 2.77189 27.5161 2.76724 27.5154 2.76266C27.5148 2.75953 27.5137 2.75716 27.5083 2.7596C27.5025 2.7622 27.5006 2.75983 27.4987 2.75655C27.4945 2.74899 27.4872 2.74334 27.4758 2.74059C27.4699 2.73922 27.467 2.73937 27.4681 2.74479C27.4719 2.76388 27.4759 2.78289 27.4786 2.80205C27.486 2.85556 27.483 2.90855 27.4584 2.96015C27.4465 2.98527 27.4297 3.00878 27.4086 3.03092C27.4012 3.03871 27.3919 3.04535 27.3816 3.05138C27.3785 3.04985 27.3801 3.04795 27.38 3.04634C27.3786 3.02069 27.3841 2.99489 27.3807 2.96947C27.3783 2.95061 27.3824 2.93351 27.3931 2.91664C27.3936 2.91587 27.3937 2.91503 27.3942 2.91351C27.383 2.9145 27.3803 2.92206 27.3711 2.9261C27.3704 2.91656 27.3696 2.90793 27.369 2.89923C27.3687 2.89373 27.3686 2.88816 27.3683 2.88267C27.3677 2.87335 27.3658 2.86457 27.3572 2.85656C27.3458 2.84595 27.3479 2.83251 27.3446 2.82014C27.3442 2.81846 27.3456 2.8161 27.3429 2.81533C27.3397 2.81442 27.338 2.81678 27.3359 2.818C27.3238 2.82503 27.3233 2.83556 27.3187 2.84488C27.3071 2.86915 27.3091 2.89419 27.3103 2.91916C27.3121 2.95359 27.3135 2.98809 27.3154 3.02252C27.3201 3.10696 27.3229 3.19139 27.3237 3.2759C27.3239 3.30468 27.3245 3.33339 27.326 3.36217C27.3271 3.38263 27.334 3.4024 27.347 3.42095C27.3594 3.43866 27.3603 3.45653 27.349 3.47485C27.3351 3.4976 27.3392 3.51951 27.3575 3.54012C27.3709 3.55516 27.3858 3.56959 27.4001 3.58425C27.4047 3.58906 27.4093 3.59394 27.4119 3.59936C27.4181 3.61173 27.4112 3.62089 27.3929 3.62432C27.3728 3.62807 27.3521 3.6302 27.3312 3.63043C27.2723 3.63104 27.2133 3.63181 27.1544 3.63074C27.1342 3.63036 27.1143 3.62814 27.0949 3.62402C27.0759 3.61997 27.0697 3.61089 27.0775 3.59822C27.0852 3.58547 27.0972 3.57447 27.1086 3.56333C27.1291 3.54333 27.1441 3.52195 27.1449 3.49676C27.1452 3.48531 27.1423 3.47431 27.135 3.46401C27.1258 3.45088 27.1262 3.4379 27.1367 3.4253C27.155 3.40347 27.158 3.37927 27.1594 3.35484C27.1632 3.28415 27.1652 3.21338 27.1672 3.14261C27.1689 3.08253 27.1738 3.02245 27.1769 2.96237C27.1788 2.92496 27.1764 2.88763 27.1747 2.85022C27.1747 2.83663 27.1629 2.82197 27.1487 2.8148Z" fill="black"/>
<path d="M28.5086 3.50268C28.4941 3.50528 28.4802 3.50536 28.4666 3.50627C28.4029 3.51032 28.339 3.51322 28.2754 3.51933C28.193 3.52727 28.111 3.53704 28.0303 3.55116C27.9582 3.56383 27.8886 3.58139 27.8204 3.602C27.7358 3.62758 27.6535 3.65598 27.5777 3.69262C27.511 3.72484 27.4522 3.76331 27.395 3.80294C27.3816 3.81217 27.3686 3.82156 27.3557 3.83118C27.3462 3.83828 27.346 3.84011 27.3545 3.84775C27.3796 3.87012 27.4048 3.89241 27.4302 3.91462C27.4666 3.94638 27.5069 3.9757 27.5468 4.00532C27.552 4.00921 27.558 4.01257 27.5634 4.01631C27.5682 4.01959 27.5706 4.01852 27.5726 4.01455C27.5824 3.99562 27.5924 3.97677 27.6022 3.95783C27.6063 3.94989 27.6109 3.94218 27.6176 3.93508C27.6332 3.91829 27.6566 3.91394 27.6812 3.92424C27.706 3.93455 27.7175 3.94997 27.7154 3.96989C27.7145 3.97883 27.7064 3.98509 27.6914 3.9873C27.656 3.99257 27.64 4.00967 27.6329 4.03204C27.6265 4.05234 27.6329 4.07028 27.6545 4.08578C27.6748 4.10036 27.6957 4.11426 27.7206 4.12494C27.7423 4.13426 27.7474 4.13334 27.7587 4.11769C27.7654 4.10853 27.7721 4.09952 27.7836 4.09273C27.8124 4.07563 27.8569 4.07196 27.8914 4.10021C27.9175 4.12166 27.9243 4.14708 27.9203 4.17426C27.9178 4.19167 27.9083 4.20739 27.8919 4.2206C27.8652 4.24213 27.8298 4.24679 27.7909 4.24404C27.75 4.24114 27.7159 4.22755 27.6828 4.21205C27.6451 4.19449 27.6069 4.17747 27.5688 4.16029C27.5573 4.1551 27.557 4.15533 27.5471 4.16212C27.5238 4.178 27.5031 4.19556 27.4774 4.20968C27.4434 4.22839 27.3913 4.22671 27.3635 4.20571C27.3345 4.18388 27.333 4.15075 27.3744 4.12754C27.3814 4.12365 27.3893 4.12357 27.397 4.12647C27.4104 4.13151 27.4234 4.13724 27.4371 4.14197C27.4551 4.14823 27.4732 4.1451 27.4863 4.13449C27.4943 4.12785 27.4956 4.12067 27.4906 4.11288C27.4817 4.09906 27.4666 4.08845 27.4522 4.07746C27.3898 4.03005 27.3272 3.98264 27.2647 3.93531C27.2587 3.93073 27.2529 3.92386 27.245 3.9234C27.2373 3.92302 27.2321 3.93035 27.2259 3.93447C27.1713 3.97066 27.1213 4.00975 27.0719 4.04929C27.0531 4.06433 27.0344 4.0796 27.0156 4.09464C27.0093 4.09968 27.004 4.10517 27.0003 4.11136C26.9949 4.12036 26.9961 4.12876 27.0057 4.13601C27.0158 4.14365 27.0281 4.14685 27.0429 4.14357C27.0559 4.14075 27.067 4.1354 27.079 4.13128C27.0841 4.12953 27.0893 4.12762 27.0946 4.12617C27.1034 4.12372 27.1118 4.12456 27.1188 4.12899C27.1397 4.14243 27.1472 4.15937 27.143 4.17838C27.1385 4.19823 27.1244 4.21404 27.0954 4.22037C27.0684 4.22625 27.0429 4.22045 27.0188 4.21174C26.993 4.20243 26.9742 4.18762 26.9565 4.17205C26.9512 4.16731 26.945 4.16304 26.9402 4.15823C26.9364 4.15457 26.933 4.15502 26.9282 4.15686C26.9011 4.16701 26.8768 4.18006 26.8514 4.1919C26.8264 4.2035 26.8029 4.21648 26.7761 4.22633C26.745 4.23778 26.7119 4.2435 26.6764 4.24259C26.629 4.24144 26.5934 4.22197 26.5768 4.18777C26.5598 4.15273 26.5746 4.11555 26.6153 4.09151C26.6477 4.07235 26.6894 4.07525 26.7159 4.09845C26.7253 4.10662 26.7331 4.11548 26.7412 4.12426C26.7487 4.13235 26.7509 4.13304 26.7626 4.12846C26.7982 4.11456 26.8281 4.09593 26.8532 4.07387C26.8616 4.06647 26.8632 4.05761 26.8596 4.04868C26.8545 4.03593 26.8486 4.02326 26.8432 4.01058C26.8387 3.99967 26.8287 3.99264 26.8129 3.98944C26.8108 3.98898 26.8087 3.98837 26.8066 3.98791C26.7797 3.98203 26.7727 3.97402 26.7777 3.95463C26.7838 3.93088 26.817 3.91577 26.8504 3.92134C26.8658 3.92394 26.8756 3.93058 26.8807 3.94066C26.8916 3.96211 26.9024 3.98364 26.9132 4.00516C26.9205 4.01967 26.9249 4.02051 26.9397 4.00906C27.0069 3.95768 27.0718 3.90493 27.1329 3.85004C27.1411 3.84271 27.1408 3.84095 27.1329 3.83301C27.1159 3.81561 27.0933 3.80171 27.0718 3.78729C27.0215 3.75347 26.9684 3.72194 26.9124 3.6927C26.8626 3.66659 26.8071 3.64743 26.7513 3.62865C26.6879 3.60742 26.6234 3.58796 26.557 3.57185C26.4686 3.5504 26.379 3.53276 26.286 3.52368C26.2312 3.51826 26.1761 3.51459 26.121 3.51039C26.0899 3.50795 26.0587 3.50505 26.0276 3.50238C26.0242 3.50207 26.0206 3.50177 26.0176 3.49887C26.0282 3.49574 26.0392 3.49505 26.05 3.49467C26.1414 3.49139 26.2324 3.4836 26.3242 3.48444C26.4318 3.48543 26.5383 3.49245 26.6431 3.51032C26.7139 3.52238 26.7817 3.54001 26.8473 3.56185C26.9125 3.58353 26.9767 3.60636 27.0358 3.63567C27.0863 3.66079 27.1336 3.68858 27.1786 3.7182C27.1969 3.73026 27.2153 3.74224 27.2325 3.75499C27.2396 3.76018 27.2441 3.75934 27.2504 3.7553C27.2716 3.74179 27.2932 3.72865 27.3141 3.71491C27.4026 3.65682 27.501 3.60834 27.6105 3.57078C27.6786 3.54742 27.7493 3.52887 27.8224 3.51444C27.8996 3.49917 27.9786 3.4907 28.0587 3.48711C28.1352 3.4836 28.2117 3.48528 28.2881 3.48795C28.3287 3.4894 28.3694 3.49047 28.4099 3.49253C28.439 3.49398 28.4679 3.49681 28.4968 3.4991C28.5006 3.49932 28.5046 3.49971 28.5086 3.50268ZM27.7983 4.19892C27.8022 4.19892 27.806 4.19907 27.8098 4.19892C27.8422 4.19739 27.8607 4.18785 27.8683 4.16892C27.8742 4.15373 27.8633 4.1322 27.8448 4.12311C27.8289 4.11525 27.8088 4.12059 27.8005 4.13525C27.795 4.14495 27.7918 4.1551 27.791 4.16556C27.7901 4.17594 27.7839 4.17915 27.769 4.17808C27.7629 4.17762 27.7572 4.17609 27.7515 4.17472C27.7162 4.16617 27.6879 4.15075 27.6624 4.13212C27.6484 4.12189 27.6328 4.11258 27.6182 4.10265C27.613 4.09914 27.6104 4.0999 27.6071 4.10395C27.5992 4.11342 27.6 4.12136 27.6107 4.12945C27.6279 4.14235 27.6462 4.15441 27.6667 4.16464C27.706 4.18441 27.7488 4.198 27.7983 4.19892ZM26.625 4.15823C26.625 4.18548 26.6424 4.19915 26.6804 4.19999C26.7182 4.20083 26.7541 4.19388 26.787 4.1809C26.8231 4.16663 26.8525 4.1464 26.8835 4.12762C26.8919 4.1225 26.8931 4.11548 26.8893 4.10807C26.8854 4.10052 26.8843 4.10006 26.8749 4.10433C26.8702 4.10647 26.8655 4.10891 26.8612 4.11158C26.8347 4.12785 26.8081 4.14411 26.7818 4.1606C26.7657 4.17075 26.7475 4.1764 26.7256 4.17686C26.708 4.17724 26.7025 4.17419 26.7002 4.16228C26.6985 4.15373 26.6961 4.14525 26.6944 4.1367C26.6926 4.12723 26.6853 4.1212 26.6717 4.11945C26.6574 4.11762 26.6456 4.12082 26.6373 4.12907C26.6282 4.13808 26.6258 4.14853 26.625 4.15823ZM27.4059 4.15289C27.3978 4.15281 27.3927 4.15571 27.3899 4.16075C27.3841 4.17105 27.3911 4.18274 27.4055 4.18762C27.4316 4.19655 27.4565 4.19373 27.4783 4.18205C27.5066 4.16686 27.5289 4.14808 27.5434 4.12487C27.5692 4.08372 27.5957 4.04272 27.622 4.00181C27.6291 3.99081 27.6395 3.98173 27.6566 3.97738C27.6623 3.97593 27.6661 3.97295 27.6697 3.96989C27.6778 3.96318 27.6759 3.95516 27.6649 3.94837C27.6555 3.94256 27.645 3.94279 27.6361 3.94944C27.6273 3.956 27.6218 3.96409 27.6172 3.97234C27.5977 4.00784 27.5782 4.04341 27.559 4.07899C27.5442 4.10639 27.5238 4.13143 27.4957 4.15334C27.4842 4.16228 27.4699 4.16548 27.4533 4.16273C27.4463 4.16159 27.4395 4.1593 27.4326 4.15769C27.4239 4.15563 27.4154 4.15304 27.4059 4.15289ZM27.0594 4.19144C27.0674 4.19167 27.0838 4.1877 27.0897 4.18411C27.0992 4.17831 27.1031 4.16548 27.0973 4.15846C27.0925 4.15258 27.0846 4.15189 27.068 4.15556C27.0574 4.15792 27.0467 4.16044 27.0359 4.16228C27.0193 4.16518 27.0048 4.1622 26.9931 4.15342C26.9841 4.1467 26.9763 4.13945 26.9709 4.13113C26.9413 4.08563 26.911 4.04028 26.8857 3.99341C26.8775 3.97822 26.868 3.96356 26.8537 3.9505C26.8489 3.94608 26.8428 3.94356 26.8347 3.94478C26.8259 3.94608 26.8199 3.94982 26.818 3.95615C26.8151 3.96539 26.8201 3.97272 26.8333 3.97661C26.8533 3.98249 26.8668 3.99257 26.8749 4.00623C26.8951 4.03944 26.9154 4.07265 26.9347 4.10609C26.95 4.1325 26.9692 4.15686 27.0017 4.17525C27.0185 4.18495 27.0374 4.19067 27.0594 4.19144ZM27.5364 4.05257C27.5364 4.04746 27.5322 4.04272 27.5263 4.03845C27.4943 4.01524 27.4626 3.99188 27.4305 3.96883C27.4185 3.96028 27.4075 3.95096 27.3933 3.94394C27.3902 3.94234 27.3864 3.94142 27.3836 3.94302C27.3808 3.94463 27.3848 3.94638 27.3859 3.94806C27.3868 3.94944 27.3881 3.95073 27.3893 3.95203C27.4278 3.98951 27.4663 4.027 27.5047 4.06456C27.5082 4.06784 27.5121 4.07067 27.5174 4.07242C27.5202 4.07334 27.5232 4.0741 27.5251 4.07181C27.5299 4.06593 27.536 4.06059 27.5364 4.05257ZM27.1001 3.94356C27.0982 3.94256 27.0972 3.94333 27.0961 3.94363C27.0836 3.94707 27.0759 3.95424 27.0673 3.96073C27.0324 3.98692 26.9977 4.01318 26.9629 4.03937C26.9585 4.04272 26.9553 4.04647 26.9539 4.05089C26.9515 4.05815 26.9585 4.06715 26.9698 4.07005C26.9785 4.07235 26.9795 4.06525 26.9846 4.06303C26.9848 4.06296 26.985 4.06265 26.9851 4.0625C27.0222 4.03028 27.0557 3.99631 27.0866 3.96127C27.0918 3.95562 27.0971 3.94997 27.1001 3.94356Z" fill="black"/>
<path d="M26.6049 8.11719V6.66264H26.9565V7.2777H26.9757L27.4565 6.66264H27.8705L27.3549 7.31179L27.8798 8.11719H27.4593L27.0971 7.54545L26.9565 7.72301V8.11719H26.6049ZM27.4331 9.09872C27.4284 9.04664 27.4073 9.00616 27.3699 8.97727C27.333 8.94792 27.2802 8.93324 27.2115 8.93324C27.1661 8.93324 27.1282 8.93916 27.0979 8.95099C27.0676 8.96283 27.0449 8.97917 27.0297 9C27.0146 9.02036 27.0068 9.0438 27.0063 9.07031C27.0053 9.09209 27.0096 9.11127 27.0191 9.12784C27.029 9.14441 27.0432 9.15909 27.0617 9.17188C27.0806 9.18419 27.1034 9.19508 27.1299 9.20455C27.1564 9.21402 27.1862 9.2223 27.2194 9.2294L27.3444 9.25781C27.4163 9.27344 27.4798 9.29427 27.5347 9.32031C27.5901 9.34635 27.6365 9.37737 27.6739 9.41335C27.7118 9.44934 27.7404 9.49077 27.7598 9.53764C27.7793 9.58452 27.7892 9.63707 27.7897 9.69531C27.7892 9.78717 27.766 9.866 27.7201 9.93182C27.6741 9.99763 27.6081 10.0481 27.5219 10.0831C27.4362 10.1181 27.3328 10.1357 27.2115 10.1357C27.0899 10.1357 26.9838 10.1174 26.8934 10.081C26.8029 10.0445 26.7326 9.98911 26.6824 9.91477C26.6322 9.84044 26.6064 9.74645 26.605 9.63281H26.9417C26.9445 9.67969 26.957 9.71875 26.9793 9.75C27.0016 9.78125 27.0321 9.80492 27.0709 9.82102C27.1102 9.83712 27.1557 9.84517 27.2073 9.84517C27.2546 9.84517 27.2949 9.83878 27.328 9.82599C27.3616 9.81321 27.3874 9.79545 27.4054 9.77273C27.4234 9.75 27.4327 9.72396 27.4331 9.6946C27.4327 9.66714 27.4241 9.6437 27.4076 9.62429C27.391 9.6044 27.3654 9.58736 27.3309 9.57315C27.2968 9.55848 27.2532 9.54498 27.2002 9.53267L27.0482 9.49716C26.9222 9.46828 26.8231 9.42164 26.7506 9.35724C26.6782 9.29238 26.6422 9.20478 26.6427 9.09446C26.6422 9.0045 26.6663 8.92566 26.7151 8.85795C26.7639 8.79025 26.8313 8.73745 26.9175 8.69957C27.0037 8.6617 27.1019 8.64276 27.2123 8.64276C27.3249 8.64276 27.4227 8.66193 27.5056 8.70028C27.5889 8.73816 27.6535 8.79143 27.6995 8.86009C27.7454 8.92874 27.7688 9.00829 27.7698 9.09872H27.4331ZM26.8502 12.1172H26.4724L26.9631 10.6626H27.4312L27.922 12.1172H27.5441L27.2025 11.0291H27.1911L26.8502 12.1172ZM26.7998 11.5447H27.5896V11.8118H26.7998V11.5447Z" fill="black"/>
<path d="M18.2755 5.29048L18.304 4.97798L18.0447 5.15909L17.9027 4.91051L18.1868 4.77912L17.9027 4.64773L18.0447 4.39915L18.304 4.58026L18.2755 4.26776H18.5596L18.5312 4.58026L18.7905 4.39915L18.9325 4.64773L18.6484 4.77912L18.9325 4.91051L18.7905 5.15909L18.5312 4.97798L18.5596 5.29048H18.2755ZM19.7965 5.29048L19.825 4.97798L19.5657 5.15909L19.4237 4.91051L19.7078 4.77912L19.4237 4.64773L19.5657 4.39915L19.825 4.58026L19.7965 4.26776H20.0806L20.0522 4.58026L20.3115 4.39915L20.4535 4.64773L20.1694 4.77912L20.4535 4.91051L20.3115 5.15909L20.0522 4.97798L20.0806 5.29048H19.7965ZM21.3175 5.29048L21.346 4.97798L21.0867 5.15909L20.9447 4.91051L21.2288 4.77912L20.9447 4.64773L21.0867 4.39915L21.346 4.58026L21.3175 4.26776H21.6016L21.5732 4.58026L21.8325 4.39915L21.9745 4.64773L21.6904 4.77912L21.9745 4.91051L21.8325 5.15909L21.5732 4.97798L21.6016 5.29048H21.3175ZM22.8385 5.29048L22.8669 4.97798L22.6077 5.15909L22.4657 4.91051L22.7498 4.77912L22.4657 4.64773L22.6077 4.39915L22.8669 4.58026L22.8385 4.26776H23.1226L23.0942 4.58026L23.3535 4.39915L23.4955 4.64773L23.2114 4.77912L23.4955 4.91051L23.3535 5.15909L23.0942 4.97798L23.1226 5.29048H22.8385ZM18.2755 8.29048L18.304 7.97798L18.0447 8.15909L17.9027 7.91051L18.1868 7.77912L17.9027 7.64773L18.0447 7.39915L18.304 7.58026L18.2755 7.26776H18.5596L18.5312 7.58026L18.7905 7.39915L18.9325 7.64773L18.6484 7.77912L18.9325 7.91051L18.7905 8.15909L18.5312 7.97798L18.5596 8.29048H18.2755ZM19.7965 8.29048L19.825 7.97798L19.5657 8.15909L19.4237 7.91051L19.7078 7.77912L19.4237 7.64773L19.5657 7.39915L19.825 7.58026L19.7965 7.26776H20.0806L20.0522 7.58026L20.3115 7.39915L20.4535 7.64773L20.1694 7.77912L20.4535 7.91051L20.3115 8.15909L20.0522 7.97798L20.0806 8.29048H19.7965ZM21.3175 8.29048L21.346 7.97798L21.0867 8.15909L20.9447 7.91051L21.2288 7.77912L20.9447 7.64773L21.0867 7.39915L21.346 7.58026L21.3175 7.26776H21.6016L21.5732 7.58026L21.8325 7.39915L21.9745 7.64773L21.6904 7.77912L21.9745 7.91051L21.8325 8.15909L21.5732 7.97798L21.6016 8.29048H21.3175ZM22.8385 8.29048L22.8669 7.97798L22.6077 8.15909L22.4657 7.91051L22.7498 7.77912L22.4657 7.64773L22.6077 7.39915L22.8669 7.58026L22.8385 7.26776H23.1226L23.0942 7.58026L23.3535 7.39915L23.4955 7.64773L23.2114 7.77912L23.4955 7.91051L23.3535 8.15909L23.0942 7.97798L23.1226 8.29048H22.8385Z" fill="black"/>
<path d="M3.16031 5.29048L3.18872 4.97798L2.92949 5.15909L2.78745 4.91051L3.07154 4.77912L2.78745 4.64773L2.92949 4.39915L3.18872 4.58026L3.16031 4.26776H3.44441L3.416 4.58026L3.67523 4.39915L3.81727 4.64773L3.53318 4.77912L3.81727 4.91051L3.67523 5.15909L3.416 4.97798L3.44441 5.29048H3.16031ZM4.68131 5.29048L4.70972 4.97798L4.45049 5.15909L4.30844 4.91051L4.59253 4.77912L4.30844 4.64773L4.45049 4.39915L4.70972 4.58026L4.68131 4.26776H4.9654L4.93699 4.58026L5.19623 4.39915L5.33827 4.64773L5.05418 4.77912L5.33827 4.91051L5.19623 5.15909L4.93699 4.97798L4.9654 5.29048H4.68131ZM6.20231 5.29048L6.23072 4.97798L5.97148 5.15909L5.82944 4.91051L6.11353 4.77912L5.82944 4.64773L5.97148 4.39915L6.23072 4.58026L6.20231 4.26776H6.4864L6.45799 4.58026L6.71722 4.39915L6.85927 4.64773L6.57518 4.77912L6.85927 4.91051L6.71722 5.15909L6.45799 4.97798L6.4864 5.29048H6.20231ZM7.7233 5.29048L7.75171 4.97798L7.49248 5.15909L7.35043 4.91051L7.63452 4.77912L7.35043 4.64773L7.49248 4.39915L7.75171 4.58026L7.7233 4.26776H8.00739L7.97898 4.58026L8.23822 4.39915L8.38026 4.64773L8.09617 4.77912L8.38026 4.91051L8.23822 5.15909L7.97898 4.97798L8.00739 5.29048H7.7233ZM3.16031 8.29048L3.18872 7.97798L2.92949 8.15909L2.78745 7.91051L3.07154 7.77912L2.78745 7.64773L2.92949 7.39915L3.18872 7.58026L3.16031 7.26776H3.44441L3.416 7.58026L3.67523 7.39915L3.81727 7.64773L3.53318 7.77912L3.81727 7.91051L3.67523 8.15909L3.416 7.97798L3.44441 8.29048H3.16031ZM4.68131 8.29048L4.70972 7.97798L4.45049 8.15909L4.30844 7.91051L4.59253 7.77912L4.30844 7.64773L4.45049 7.39915L4.70972 7.58026L4.68131 7.26776H4.9654L4.93699 7.58026L5.19623 7.39915L5.33827 7.64773L5.05418 7.77912L5.33827 7.91051L5.19623 8.15909L4.93699 7.97798L4.9654 8.29048H4.68131ZM6.20231 8.29048L6.23072 7.97798L5.97148 8.15909L5.82944 7.91051L6.11353 7.77912L5.82944 7.64773L5.97148 7.39915L6.23072 7.58026L6.20231 7.26776H6.4864L6.45799 7.58026L6.71722 7.39915L6.85927 7.64773L6.57518 7.77912L6.85927 7.91051L6.71722 8.15909L6.45799 7.97798L6.4864 8.29048H6.20231ZM7.7233 8.29048L7.75171 7.97798L7.49248 8.15909L7.35043 7.91051L7.63452 7.77912L7.35043 7.64773L7.49248 7.39915L7.75171 7.58026L7.7233 7.26776H8.00739L7.97898 7.58026L8.23822 7.39915L8.38026 7.64773L8.09617 7.77912L8.38026 7.91051L8.23822 8.15909L7.97898 7.97798L8.00739 8.29048H7.7233Z" fill="black"/>
</g>
<rect x="0.75" y="0.75" width="29.5" height="11.5" rx="1.25" stroke="black" stroke-width="1.5"/>
<defs>
<clipPath id="clip0_29357_45260">
<rect width="31" height="13" rx="2" fill="white"/>
</clipPath>
</defs>
</svg>
