<svg width="33" height="23" viewBox="0 0 33 23" fill="none" xmlns="http://www.w3.org/2000/svg">
<g clip-path="url(#clip0_29357_45260)">
<rect width="32.2" height="23" rx="2" fill="white"/>
<path d="M25.7676 23.0234L25.7676 1.13991" stroke="black"/>
<path d="M13.3167 8.80429C13.3132 8.8169 13.3095 8.82869 13.3072 8.84102C13.3051 8.85144 13.3007 8.85912 13.2916 8.85583C13.2552 8.84322 13.2594 8.87118 13.2629 8.89586C13.2725 8.96577 13.2615 9.03321 13.2475 9.10093C13.2445 9.11573 13.2403 9.12588 13.2263 9.12369C13.2035 9.12012 13.2039 9.13383 13.2081 9.1533C13.2142 9.18099 13.2198 9.20895 13.2237 9.23719C13.2268 9.25967 13.2254 9.2816 13.2067 9.29668C13.1958 9.30573 13.1944 9.31999 13.1935 9.33479C13.1921 9.35864 13.1995 9.38085 13.2016 9.40964C13.1736 9.39264 13.165 9.36276 13.1515 9.33781C13.1459 9.32739 13.1424 9.30792 13.1303 9.31341C13.1184 9.31889 13.1254 9.33616 13.1284 9.34823C13.1445 9.4132 13.1604 9.47845 13.1769 9.54343C13.1844 9.57222 13.1841 9.59799 13.1597 9.61526C13.1429 9.62705 13.1492 9.64432 13.1513 9.66077C13.1711 9.81184 13.1911 9.96263 13.1869 10.1162C13.1865 10.1351 13.1944 10.1636 13.1797 10.1707C13.1599 10.1806 13.1434 10.1573 13.1305 10.1397C13.0548 10.0361 12.9954 9.92013 12.9506 9.79429C12.8481 9.50477 12.8143 9.20264 12.829 8.89065C12.836 8.74315 12.8644 8.59866 12.8733 8.45171C12.8754 8.41525 12.8791 8.37906 12.8763 8.34232C12.8754 8.32971 12.8751 8.31353 12.8618 8.31107C12.8507 8.30915 12.8409 8.31792 12.8336 8.32861C12.8211 8.34726 12.8218 8.37001 12.818 8.39167C12.8143 8.41305 12.8136 8.44294 12.7854 8.41305C12.7786 8.40593 12.7707 8.40483 12.7647 8.41278C12.747 8.43526 12.7274 8.43087 12.7029 8.41388C12.7029 8.46789 12.7031 8.51532 12.7027 8.56275C12.7027 8.57125 12.7066 8.58386 12.6971 8.58687C12.6847 8.59071 12.685 8.57563 12.6817 8.56686C12.6796 8.56083 12.6791 8.55397 12.677 8.54794C12.6731 8.53643 12.6754 8.51532 12.6631 8.51641C12.6474 8.51778 12.6472 8.53944 12.6467 8.55397C12.6458 8.59455 12.6509 8.63458 12.6579 8.67433C12.661 8.69188 12.6619 8.70997 12.664 8.73026C12.6344 8.72587 12.626 8.70202 12.6178 8.67762C12.6104 8.65541 12.6092 8.62855 12.5852 8.61593C12.5701 8.66583 12.5803 8.71573 12.5764 8.76426C12.5752 8.77988 12.5827 8.80593 12.5675 8.80922C12.5496 8.81278 12.5479 8.78619 12.5421 8.76974C12.5361 8.75247 12.5356 8.72204 12.5169 8.7256C12.5016 8.72862 12.5051 8.75795 12.5046 8.77659C12.5037 8.81909 12.5174 8.8583 12.5258 8.89887C12.53 8.91889 12.5337 8.93917 12.5388 8.96549C12.526 8.95974 12.5172 8.95672 12.509 8.95233C12.4806 8.93725 12.4717 8.94246 12.4776 8.97865C12.4857 9.02965 12.4985 9.07982 12.5111 9.12972C12.516 9.14946 12.5188 9.16262 12.4955 9.16262C12.4729 9.16262 12.4724 9.18236 12.4734 9.20127C12.475 9.23308 12.4887 9.26104 12.4962 9.29093C12.5086 9.34 12.5137 9.3877 12.4908 9.43459C12.4841 9.44857 12.4832 9.46474 12.4846 9.48037C12.4862 9.49901 12.4811 9.51108 12.4647 9.51409C12.4449 9.51793 12.448 9.53383 12.4505 9.54974C12.4547 9.57605 12.4624 9.60183 12.461 9.62952C12.4466 9.63116 12.4421 9.61937 12.4379 9.6095C12.3734 9.45954 12.3005 9.3145 12.2448 9.15933C12.145 8.88187 12.1734 8.61676 12.3018 8.36179C12.3403 8.28529 12.3848 8.21374 12.4291 8.14218C12.4612 8.09009 12.4908 8.0369 12.4974 7.97083C12.4999 7.94396 12.5013 7.91737 12.4897 7.89242C12.4766 7.8968 12.4738 7.90969 12.4692 7.91901C12.4573 7.94259 12.4449 7.95465 12.4235 7.93272C12.4074 7.91627 12.4011 7.92806 12.3979 7.9467C12.3953 7.96069 12.3906 7.97439 12.3897 7.98865C12.3881 8.01607 12.3769 8.02923 12.3536 8.02621C12.3368 8.02402 12.3305 8.03498 12.3252 8.05143C12.3114 8.0953 12.2965 8.13862 12.2799 8.18851C12.2685 8.16055 12.2592 8.13779 12.2487 8.11202C12.2135 8.16137 12.2156 8.2269 12.1858 8.27926C12.1744 8.26254 12.1644 8.24773 12.152 8.22964C12.1406 8.26528 12.1285 8.29736 12.1201 8.33053C12.1138 8.35575 12.1031 8.36206 12.084 8.35192C12.0665 8.34259 12.0607 8.35164 12.0576 8.37111C12.0483 8.43087 12.0376 8.49009 12.0269 8.55233C12.0068 8.53752 12.0045 8.51038 11.9865 8.49585C11.9684 8.52327 11.9681 8.55535 11.9693 8.58523C11.9723 8.65679 11.9444 8.71655 11.9208 8.77824C11.9187 8.78372 11.9134 8.79277 11.9108 8.79222C11.8724 8.78372 11.88 8.81964 11.8784 8.84157C11.8712 8.93369 11.8579 9.02553 11.87 9.11848C11.8735 9.14617 11.8684 9.17249 11.8553 9.19716C11.843 9.22047 11.8337 9.21635 11.8276 9.19415C11.8164 9.1533 11.8062 9.1119 11.7966 9.0705C11.7598 8.90874 11.7349 8.74424 11.7344 8.57646C11.7337 8.31161 11.8136 8.08653 11.9791 7.90284C12.1408 7.72326 12.3203 7.57932 12.5337 7.49899C12.5885 7.47843 12.6453 7.465 12.698 7.43731C12.7059 7.43319 12.7185 7.43073 12.7176 7.41949C12.7167 7.40797 12.705 7.3992 12.6952 7.39975C12.6302 7.40386 12.5624 7.38028 12.5016 7.42963C12.472 7.45376 12.4396 7.46226 12.4065 7.431C12.3906 7.41592 12.3072 7.43731 12.2921 7.45677C12.2818 7.46993 12.2718 7.48364 12.2625 7.49625C12.2492 7.49214 12.2534 7.48063 12.2503 7.47322C12.2459 7.46198 12.2503 7.44361 12.2385 7.43923C12.2242 7.43402 12.2131 7.448 12.2042 7.45869C12.1935 7.47158 12.1851 7.48721 12.1762 7.50228C12.1637 7.52339 12.1501 7.5371 12.1271 7.52038C12.1066 7.50557 12.0968 7.52586 12.087 7.54094C12.0758 7.55849 12.0653 7.56589 12.0504 7.54588C12.0392 7.53052 12.0315 7.53354 12.025 7.55273C12.0152 7.58179 12.0024 7.60921 11.9926 7.63827C11.9861 7.65746 11.9782 7.66322 11.9635 7.65006C11.9472 7.63553 11.9355 7.64128 11.926 7.66102C11.9171 7.67884 11.905 7.69447 11.8989 7.71476C11.8887 7.74876 11.87 7.77562 11.8463 7.79838C11.8248 7.81894 11.8038 7.84033 11.7887 7.86829C11.7854 7.8746 11.7791 7.88337 11.7745 7.8831C11.7346 7.88008 11.7363 7.91627 11.7304 7.94533C11.7246 7.97439 11.7186 8.00373 11.7134 8.03306C11.7085 8.06185 11.7032 8.08817 11.6747 8.09969C11.6575 8.10654 11.6582 8.12902 11.6584 8.14739C11.6591 8.17727 11.6533 8.21182 11.6277 8.21182C11.5992 8.21182 11.5988 8.17206 11.5999 8.14629C11.6181 7.77179 11.7481 7.46884 12.0171 7.25746C12.2021 7.11215 12.4095 7.04333 12.6293 7.01839C12.7076 7.00961 12.7856 6.9981 12.8623 6.97507C12.8886 6.96712 12.9124 6.95533 12.9285 6.91996C12.8239 6.91174 12.7239 6.86814 12.6206 6.90708C12.6078 6.91201 12.5938 6.91969 12.582 6.91064C12.5449 6.88267 12.5153 6.90296 12.485 6.92709C12.4762 6.93422 12.4638 6.94957 12.4545 6.92901C12.4421 6.90159 12.4263 6.90543 12.4081 6.91749C12.3436 6.96054 12.2697 6.97836 12.2005 6.9959C12.104 7.02003 12.0415 7.10255 11.9588 7.14724C11.9483 7.153 11.9378 7.17274 11.9276 7.16095C11.9152 7.14697 11.9325 7.13299 11.9388 7.12175C12.0411 6.94162 12.1723 6.79577 12.3221 6.67102C12.4911 6.53038 12.6789 6.47993 12.883 6.50241C12.9823 6.51338 13.0818 6.52544 13.1811 6.53531C13.1995 6.53723 13.2284 6.5471 13.234 6.52325C13.2382 6.50597 13.2098 6.49336 13.1923 6.48678C13.1443 6.46841 13.107 6.42537 13.0592 6.40782C13.0117 6.39028 12.9651 6.37081 12.9213 6.34257C12.8889 6.32174 12.8446 6.33627 12.818 6.29624C12.8166 6.29405 12.8096 6.29597 12.8057 6.29788C12.7302 6.33435 12.6493 6.34394 12.5705 6.36396C12.5486 6.36944 12.53 6.3837 12.5055 6.39631C12.509 6.35409 12.5291 6.32859 12.5512 6.30666C12.6274 6.23209 12.7195 6.19782 12.8136 6.17232C12.9977 6.12297 13.1676 6.16629 13.3251 6.28555C13.382 6.32859 13.44 6.36917 13.505 6.39439C13.5248 6.40207 13.53 6.39987 13.5302 6.37492C13.5316 6.27431 13.5402 6.17451 13.5516 6.07472C13.5547 6.0484 13.5621 6.03688 13.5843 6.03935C13.6094 6.04209 13.6171 6.0303 13.6192 5.9996C13.6239 5.92585 13.6146 5.85045 13.6355 5.77835C13.6386 5.76765 13.6365 5.75175 13.6488 5.75011C13.6633 5.74846 13.664 5.76628 13.6684 5.77725C13.6873 5.82358 13.6796 5.87485 13.6863 5.92338C13.6896 5.94641 13.6887 5.97026 13.6908 5.99356C13.6926 6.01577 13.6952 6.03661 13.7162 6.0484C13.7315 6.05717 13.7336 6.07746 13.7339 6.0961C13.7343 6.11968 13.7343 6.14298 13.7348 6.16656C13.7357 6.19946 13.7399 6.22989 13.7595 6.25731C13.7802 6.28664 13.7819 6.3242 13.7807 6.36149C13.7788 6.4251 13.7823 6.43003 13.8317 6.40481C13.8998 6.36999 13.9648 6.32722 14.0277 6.28089C14.1571 6.18603 14.2957 6.14655 14.4472 6.17808C14.5446 6.19836 14.6327 6.24634 14.7178 6.30364C14.7432 6.32064 14.762 6.34696 14.7739 6.37904C14.7839 6.40563 14.7767 6.41852 14.752 6.4155C14.7413 6.41413 14.7308 6.40837 14.7203 6.40426C14.6469 6.3763 14.57 6.34586 14.4959 6.37383C14.4388 6.39549 14.3843 6.4081 14.3249 6.41002C14.2766 6.41166 14.2398 6.45525 14.1939 6.48185C14.2463 6.52928 14.3034 6.5301 14.3607 6.52681C14.4316 6.52242 14.5022 6.51283 14.573 6.51091C14.7313 6.50652 14.8725 6.56492 14.993 6.685C15.0876 6.77932 15.1794 6.87801 15.2659 6.98302C15.3029 7.02826 15.3316 7.0809 15.3551 7.14286C15.3316 7.13792 15.315 7.12339 15.298 7.1116C15.2444 7.07459 15.1887 7.04608 15.1279 7.02579C15.0734 7.00769 15.0207 6.97671 14.9711 6.94217C14.9538 6.93011 14.9357 6.92024 14.9161 6.91503C14.8883 6.9079 14.8613 6.90406 14.8459 6.94217C14.8396 6.9578 14.8306 6.95725 14.8194 6.9471C14.807 6.93586 14.7933 6.92709 14.7809 6.9164C14.7646 6.90214 14.7502 6.89145 14.7366 6.92161C14.728 6.9408 14.7145 6.92846 14.7049 6.92161C14.6716 6.89775 14.6395 6.87719 14.6012 6.91174C14.5936 6.91859 14.5775 6.91366 14.5654 6.91283C14.5281 6.91037 14.4922 6.91448 14.4607 6.94162C14.4519 6.9493 14.4428 6.95149 14.4325 6.94683C14.4295 6.94546 14.4262 6.94409 14.423 6.94354C14.4046 6.94107 14.3656 6.97315 14.3689 6.99124C14.3726 7.01263 14.3931 7.01153 14.4067 7.01345C14.4717 7.02222 14.5369 7.02826 14.6019 7.03538C14.7334 7.04964 14.865 7.06143 14.9925 7.1053C15.3094 7.21386 15.5371 7.4395 15.6501 7.81044C15.6935 7.95301 15.7033 8.10188 15.6907 8.25925C15.6681 8.23457 15.659 8.20661 15.6469 8.18166C15.5986 8.08187 15.5513 7.9818 15.5038 7.88145C15.4894 7.85102 15.474 7.82251 15.4404 7.82031C15.4278 7.81949 15.4281 7.80852 15.4262 7.79838C15.4099 7.70681 15.3551 7.65115 15.2945 7.60016C15.2917 7.59797 15.2887 7.59632 15.2857 7.59468C15.2649 7.58398 15.2384 7.59248 15.2214 7.56781C15.2074 7.54779 15.1927 7.5286 15.178 7.50859C15.1538 7.54971 15.1538 7.54971 15.1267 7.51133C15.1225 7.5053 15.1181 7.49927 15.1139 7.49324C15.085 7.45184 15.0843 7.45129 15.0566 7.49598C15.0484 7.50886 15.0433 7.51188 15.0345 7.49899C15.0275 7.48885 15.02 7.47925 15.0135 7.46856C15.0002 7.44718 14.9909 7.42936 14.962 7.45047C14.9408 7.46609 14.9089 7.44827 14.883 7.46911C14.8739 7.47651 14.859 7.45019 14.8457 7.44142C14.8403 7.43786 14.8357 7.42826 14.8287 7.43319C14.8224 7.43758 14.8233 7.4469 14.8236 7.45431C14.8247 7.49187 14.8429 7.51764 14.8676 7.5371C14.9606 7.61058 15.0533 7.68405 15.1473 7.75588C15.2701 7.84992 15.3819 7.95657 15.4556 8.11038C15.5385 8.28337 15.5614 8.4709 15.5576 8.66528C15.5539 8.86296 15.5138 9.05213 15.4623 9.23883C15.4546 9.26625 15.4479 9.26132 15.4348 9.24541C15.408 9.21306 15.409 9.17523 15.4173 9.13575C15.4208 9.1193 15.4262 9.1034 15.4323 9.08804C15.4411 9.06584 15.4369 9.04966 15.4178 9.04089C15.3971 9.03129 15.3945 9.01292 15.3961 8.99017C15.398 8.96412 15.398 8.93808 15.3996 8.91203C15.4013 8.88736 15.4034 8.8646 15.3714 8.87091C15.3591 8.87337 15.3584 8.86049 15.3584 8.84952C15.3584 8.81087 15.3488 8.7755 15.3367 8.73986C15.3234 8.70038 15.3365 8.65733 15.329 8.61621C15.3246 8.59236 15.3237 8.56741 15.3213 8.54328C15.3169 8.54328 15.3143 8.54246 15.3125 8.54328C15.267 8.56905 15.267 8.56933 15.2626 8.50929C15.2612 8.49119 15.2584 8.47282 15.2584 8.45473C15.2586 8.41744 15.2528 8.39085 15.2125 8.40538C15.1967 8.41114 15.1955 8.39551 15.1929 8.38235C15.1836 8.33355 15.1734 8.28475 15.1622 8.22909C15.1459 8.25706 15.1333 8.27871 15.1172 8.3064C15.0997 8.24417 15.0841 8.18824 15.0676 8.12902C15.0596 8.13725 15.0545 8.14163 15.0501 8.14684C15.0135 8.18879 15.0135 8.18879 14.9934 8.13121C14.9867 8.11202 14.9792 8.09283 14.9739 8.07309C14.9669 8.04677 14.9583 8.02868 14.9301 8.02539C14.9044 8.02237 14.8951 7.99139 14.886 7.96644C14.8786 7.94643 14.8713 7.93519 14.8494 7.93903C14.8175 7.94478 14.7951 7.92395 14.7777 7.89351C14.7676 7.87624 14.7567 7.84499 14.738 7.85678C14.718 7.86939 14.7271 7.90009 14.7343 7.92477C14.752 7.98563 14.7898 8.03114 14.821 8.08132C14.8846 8.18331 14.9566 8.27817 15.0107 8.38811C15.1223 8.61566 15.1379 8.85665 15.0787 9.10641C15.0359 9.28709 14.9615 9.44912 14.8667 9.59908C14.8532 9.62047 14.8399 9.64322 14.8131 9.65611C14.8149 9.6339 14.8152 9.61608 14.818 9.59881C14.8224 9.57112 14.8308 9.54288 14.7914 9.54425C14.78 9.54453 14.7816 9.53383 14.7844 9.52396C14.7898 9.50422 14.7947 9.48421 14.7993 9.46392C14.8033 9.44747 14.8084 9.42664 14.7996 9.4143C14.7711 9.37372 14.7877 9.33616 14.8003 9.2975C14.8096 9.26817 14.818 9.23856 14.8278 9.20922C14.8357 9.18537 14.8296 9.17715 14.8091 9.18318C14.7851 9.19003 14.7809 9.18071 14.7865 9.1533C14.7996 9.08914 14.8096 9.02416 14.821 8.96001C14.8 8.95096 14.783 8.99017 14.7702 8.96796C14.7618 8.95343 14.7702 8.92519 14.7714 8.90326C14.7728 8.87858 14.7742 8.85418 14.7758 8.82677C14.7534 8.8328 14.7476 8.85967 14.7245 8.87392C14.7245 8.79524 14.7245 8.72204 14.7245 8.64582C14.6945 8.65404 14.694 8.68146 14.6844 8.7001C14.6812 8.70641 14.6802 8.71683 14.6723 8.7171C14.6625 8.71765 14.6604 8.70641 14.6583 8.69846C14.6511 8.67077 14.653 8.64171 14.6511 8.61319C14.6485 8.57262 14.6448 8.56905 14.6169 8.58907C14.5996 8.6014 14.5987 8.59099 14.597 8.57591C14.5943 8.54877 14.591 8.52162 14.5884 8.49421C14.5866 8.47584 14.5828 8.46186 14.5642 8.47611C14.5444 8.49119 14.5374 8.47748 14.5311 8.45802C14.5164 8.41333 14.4915 8.38015 14.4519 8.3637C14.4318 8.35548 14.4213 8.35658 14.4251 8.38838C14.4383 8.50079 14.4523 8.61319 14.4614 8.72615C14.4868 9.04171 14.4766 9.35426 14.3917 9.65858C14.3505 9.80663 14.292 9.94535 14.2193 10.0759C14.1937 10.1219 14.1615 10.1611 14.1258 10.1962C14.1149 10.1874 14.1205 10.1759 14.12 10.1666C14.1156 10.0153 14.134 9.86338 14.1228 9.71286C14.1144 9.60155 14.1286 9.50093 14.1657 9.40141C14.1673 9.39703 14.1676 9.39209 14.1694 9.38304C14.1303 9.38908 14.1209 9.43349 14.0895 9.45707C14.0869 9.40086 14.0841 9.34987 14.082 9.2986C14.0806 9.26598 14.0804 9.23335 14.0792 9.20073C14.0771 9.14562 14.0708 9.09408 14.0408 9.04665C14.0014 8.98414 14.0084 8.90463 13.997 8.83198C13.9953 8.82238 14.0005 8.8084 13.9911 8.80374C13.9802 8.79825 13.9739 8.81224 13.9664 8.81936C13.9247 8.86076 13.9226 8.92272 13.9073 8.97783C13.8672 9.12094 13.8737 9.26872 13.8784 9.41622C13.8846 9.61937 13.8893 9.8228 13.8958 10.0262C13.9117 10.5241 13.9219 11.0223 13.9243 11.5207C13.9252 11.6904 13.9271 11.8598 13.9324 12.0295C13.9364 12.1502 13.9599 12.2667 14.0051 12.3764C14.0482 12.4808 14.051 12.5864 14.0121 12.6941C13.9636 12.8282 13.9779 12.9576 14.0415 13.0793C14.0879 13.1681 14.1396 13.2531 14.1888 13.3398C14.2048 13.368 14.2205 13.3968 14.2298 13.4291C14.2512 13.5023 14.2274 13.5561 14.1641 13.5761C14.0941 13.5983 14.0228 13.6109 13.9506 13.6123C13.7465 13.6159 13.5423 13.6205 13.3382 13.6139C13.268 13.6117 13.199 13.5986 13.1322 13.5742C13.0664 13.5503 13.045 13.4969 13.0716 13.422C13.0984 13.3469 13.1401 13.2822 13.1797 13.2161C13.2505 13.098 13.3028 12.9718 13.3051 12.8232C13.3062 12.7555 13.2962 12.6908 13.2711 12.63C13.2389 12.5524 13.2403 12.4762 13.2769 12.4019C13.3405 12.273 13.3508 12.1302 13.3554 11.9862C13.3687 11.5692 13.3755 11.1517 13.3824 10.7344C13.3883 10.3799 13.4053 10.0257 13.416 9.67119C13.4225 9.45076 13.4141 9.23034 13.4083 9.00991C13.4067 8.93314 13.3657 8.84678 13.3167 8.80429Z" fill="#127043"/>
<path d="M18.0254 12.843C17.9748 12.8587 17.927 12.8589 17.8797 12.8641C17.6588 12.8877 17.4377 12.905 17.2177 12.9409C16.9322 12.9875 16.6484 13.0454 16.3687 13.129C16.1189 13.2036 15.8779 13.3075 15.6419 13.4289C15.3492 13.58 15.0639 13.7472 14.8013 13.9633C14.5706 14.153 14.3669 14.38 14.1686 14.6139C14.1225 14.6684 14.077 14.7238 14.0327 14.7803C13.9996 14.8222 13.9989 14.8332 14.0285 14.8779C14.1152 15.01 14.2026 15.1413 14.2907 15.2721C14.4168 15.4594 14.5564 15.6326 14.6946 15.807C14.7127 15.8298 14.7333 15.8498 14.7521 15.8717C14.7687 15.8912 14.7771 15.8849 14.7841 15.8616C14.8178 15.75 14.8526 15.6384 14.8868 15.5271C14.9013 15.4805 14.9171 15.435 14.9402 15.3928C14.994 15.2938 15.0751 15.2683 15.1604 15.3286C15.2459 15.3892 15.2858 15.4802 15.2788 15.5981C15.2758 15.6507 15.2476 15.6875 15.1958 15.7006C15.0735 15.7316 15.018 15.8325 14.9936 15.9647C14.9714 16.0845 14.9936 16.1903 15.0681 16.2816C15.1385 16.3674 15.2107 16.4494 15.297 16.5127C15.372 16.5678 15.3897 16.5621 15.4291 16.4697C15.4519 16.4159 15.4755 16.3625 15.5151 16.3224C15.6148 16.2216 15.7691 16.1999 15.8884 16.3666C15.9791 16.4932 16.0026 16.6432 15.9889 16.8033C15.98 16.9059 15.9474 16.9988 15.8905 17.0767C15.798 17.2036 15.6752 17.2313 15.5405 17.2151C15.3988 17.1981 15.2809 17.1178 15.166 17.0265C15.0355 16.9229 14.9031 16.8225 14.7715 16.7214C14.7319 16.6909 14.7307 16.692 14.6962 16.732C14.6158 16.8255 14.5438 16.9294 14.4552 17.0125C14.3376 17.123 14.1569 17.1129 14.0607 16.9892C13.9605 16.8604 13.9549 16.6651 14.0987 16.5281C14.1227 16.5053 14.1504 16.5048 14.177 16.5218C14.2236 16.5516 14.2686 16.5854 14.3161 16.6133C14.3783 16.6501 14.4415 16.632 14.4865 16.5692C14.5144 16.5303 14.5186 16.4875 14.5014 16.4417C14.4706 16.3603 14.4184 16.2975 14.3685 16.2331C14.1523 15.9531 13.9358 15.674 13.7191 15.3947C13.6983 15.3678 13.6785 15.327 13.6508 15.3245C13.6242 15.322 13.6058 15.3656 13.5846 15.3895C13.3956 15.6028 13.2225 15.8336 13.0514 16.0666C12.9862 16.1555 12.9218 16.2451 12.8568 16.3342C12.8349 16.3641 12.8165 16.3965 12.8037 16.4329C12.7848 16.4858 12.7892 16.5355 12.8226 16.5785C12.8575 16.6237 12.9002 16.6424 12.9517 16.6232C12.9964 16.6068 13.0351 16.5752 13.0766 16.5505C13.0943 16.5399 13.112 16.5292 13.1304 16.5204C13.1609 16.5059 13.1901 16.5108 13.2141 16.5371C13.2863 16.6163 13.3124 16.7161 13.298 16.8285C13.2828 16.9456 13.2336 17.0391 13.1332 17.0764C13.0395 17.1112 12.9514 17.0767 12.8678 17.0254C12.7781 16.9703 12.713 16.8834 12.652 16.7913C12.6336 16.7636 12.6124 16.7383 12.5951 16.7096C12.5821 16.6876 12.5704 16.6909 12.5536 16.7016C12.46 16.7617 12.3758 16.8387 12.2875 16.9086C12.2011 16.9769 12.1193 17.0536 12.027 17.1115C11.9193 17.1789 11.8044 17.2127 11.6816 17.2074C11.5173 17.2006 11.394 17.0857 11.3367 16.8842C11.2778 16.6772 11.329 16.4584 11.4698 16.3164C11.5819 16.2035 11.7261 16.2205 11.8179 16.3573C11.8503 16.4055 11.8776 16.4576 11.9056 16.5091C11.9317 16.5569 11.9391 16.5612 11.9799 16.5338C12.1029 16.4518 12.2064 16.3422 12.2936 16.2117C12.3227 16.1684 12.3283 16.1157 12.3159 16.0628C12.2982 15.9874 12.278 15.9131 12.2595 15.838C12.2437 15.7738 12.2094 15.7322 12.1547 15.7135C12.1472 15.7111 12.1402 15.7072 12.1328 15.7045C12.0396 15.6699 12.0151 15.6225 12.0323 15.5082C12.0535 15.3681 12.1684 15.2787 12.2842 15.3119C12.3374 15.3272 12.3714 15.3664 12.3891 15.4259C12.4269 15.5526 12.4639 15.6795 12.5017 15.8062C12.5271 15.892 12.542 15.8964 12.5937 15.8292C12.8263 15.5263 13.0509 15.2151 13.2625 14.8916C13.2907 14.8483 13.2898 14.8381 13.2628 14.791C13.2038 14.6882 13.1257 14.6065 13.0512 14.5212C12.8769 14.3219 12.6932 14.136 12.4993 13.963C12.3267 13.8089 12.1346 13.696 11.9412 13.5855C11.7219 13.4602 11.4984 13.3456 11.2684 13.2504C10.9627 13.1238 10.652 13.0201 10.3304 12.9661C10.1405 12.9343 9.94966 12.9127 9.75904 12.8877C9.65091 12.8735 9.54324 12.8565 9.43535 12.8403C9.42323 12.8384 9.41088 12.8367 9.40039 12.8197C9.43698 12.8011 9.47543 12.7973 9.51248 12.7951C9.82918 12.7759 10.1443 12.7298 10.4621 12.7347C10.8347 12.7405 11.2036 12.7822 11.5663 12.8872C11.8114 12.9582 12.0463 13.0624 12.2735 13.191C12.4993 13.319 12.7219 13.4533 12.926 13.6263C13.101 13.7744 13.2646 13.9383 13.4205 14.113C13.4839 14.184 13.5475 14.255 13.6074 14.3298C13.6319 14.3605 13.6478 14.3553 13.6694 14.3317C13.7428 14.2522 13.8176 14.1744 13.8899 14.0935C14.1966 13.7505 14.5373 13.4648 14.9167 13.2433C15.1525 13.1054 15.3974 12.996 15.6503 12.911C15.9178 12.8208 16.1909 12.7712 16.4685 12.7495C16.7334 12.729 16.9982 12.7386 17.2629 12.7545C17.4034 12.763 17.5442 12.7693 17.6847 12.7814C17.7851 12.7901 17.8853 12.8066 17.9855 12.82C17.9977 12.823 18.0112 12.8255 18.0254 12.843ZM15.5659 16.9497C15.5792 16.9497 15.5925 16.9506 15.6057 16.9495C15.7181 16.9401 15.7822 16.8839 15.808 16.7723C15.8288 16.683 15.7908 16.5558 15.7269 16.5023C15.6717 16.456 15.602 16.4875 15.5734 16.5739C15.5542 16.6312 15.5433 16.6906 15.5403 16.7529C15.5375 16.8143 15.5158 16.8332 15.4643 16.8266C15.4431 16.8239 15.4235 16.8148 15.4037 16.8066C15.2811 16.7562 15.1832 16.6651 15.0952 16.5555C15.0465 16.4949 14.9926 16.4401 14.9421 16.3817C14.9241 16.3611 14.9148 16.3655 14.9034 16.3893C14.8763 16.445 14.8791 16.4919 14.9162 16.5396C14.9754 16.6155 15.0388 16.6865 15.1098 16.7474C15.2459 16.8642 15.3944 16.944 15.5659 16.9497ZM11.5029 16.7096C11.5029 16.8702 11.5628 16.9508 11.6949 16.956C11.8259 16.9612 11.9501 16.9198 12.0638 16.8434C12.1887 16.7592 12.2908 16.6397 12.398 16.5289C12.4271 16.4987 12.4315 16.4573 12.4182 16.4137C12.4047 16.3693 12.401 16.3666 12.3684 16.3915C12.3518 16.4044 12.3357 16.4187 12.3208 16.4343C12.2288 16.5303 12.1367 16.6259 12.0458 16.7235C11.9902 16.7833 11.927 16.8168 11.8513 16.8195C11.7904 16.8217 11.7711 16.8036 11.7632 16.7337C11.7573 16.6832 11.7492 16.6333 11.7434 16.5829C11.7371 16.527 11.7117 16.4916 11.6646 16.4812C11.6152 16.4702 11.5742 16.4894 11.5455 16.5379C11.5141 16.5908 11.5054 16.6525 11.5029 16.7096ZM14.2068 16.6778C14.1789 16.6775 14.1611 16.6945 14.1514 16.7241C14.1313 16.7847 14.1558 16.8538 14.2054 16.8826C14.2958 16.9352 14.3823 16.9187 14.4578 16.8499C14.5559 16.7606 14.6333 16.6492 14.6834 16.5127C14.7726 16.2698 14.8642 16.0283 14.9556 15.7867C14.98 15.7218 15.0159 15.668 15.0754 15.6428C15.0952 15.6343 15.1084 15.617 15.121 15.5989C15.1488 15.5592 15.1422 15.512 15.1042 15.4717C15.0719 15.4372 15.0353 15.4388 15.0047 15.4777C14.9742 15.5167 14.9551 15.5641 14.9393 15.6129C14.8714 15.8224 14.8041 16.0318 14.7377 16.2421C14.6866 16.4039 14.6158 16.5514 14.5182 16.6808C14.4783 16.7337 14.4291 16.7523 14.3713 16.7364C14.3466 16.7296 14.3233 16.7164 14.2993 16.7065C14.2695 16.6942 14.2397 16.6789 14.2068 16.6778ZM13.0069 16.9056C13.0344 16.907 13.0915 16.8834 13.1118 16.8623C13.1449 16.8283 13.1579 16.7523 13.1381 16.7112C13.1213 16.6767 13.0941 16.6723 13.0367 16.6942C12.9999 16.7082 12.9631 16.7227 12.9256 16.734C12.868 16.751 12.8181 16.7334 12.7776 16.6819C12.7466 16.6424 12.7193 16.5996 12.7007 16.5503C12.5979 16.2816 12.4933 16.0143 12.4057 15.7382C12.3772 15.6488 12.3444 15.5622 12.2952 15.4851C12.2784 15.4588 12.2574 15.4443 12.2295 15.4514C12.199 15.4594 12.1784 15.481 12.1717 15.5186C12.1619 15.5732 12.1787 15.6162 12.2244 15.6392C12.2938 15.674 12.3402 15.7335 12.3686 15.8139C12.4383 16.0099 12.5089 16.2054 12.5758 16.4028C12.6287 16.5588 12.6953 16.7019 12.8077 16.811C12.8654 16.8672 12.9309 16.9009 13.0069 16.9056ZM14.6591 16.0864C14.6589 16.0565 14.6445 16.0283 14.624 16.003C14.5133 15.8662 14.4033 15.7286 14.2921 15.5923C14.2509 15.5416 14.2124 15.4871 14.1635 15.4457C14.1525 15.4363 14.1392 15.4306 14.1299 15.4402C14.1206 15.4498 14.1343 15.4599 14.1378 15.4698C14.1409 15.478 14.1453 15.4857 14.15 15.4931C14.283 15.7143 14.4163 15.9353 14.5496 16.1566C14.5613 16.176 14.575 16.1925 14.5937 16.2029C14.6032 16.2081 14.6137 16.2128 14.62 16.1993C14.6363 16.1653 14.6573 16.1338 14.6591 16.0864ZM13.1477 15.4435C13.1411 15.4377 13.1379 15.4421 13.1339 15.444C13.0908 15.4643 13.064 15.5065 13.0342 15.5449C12.9137 15.6995 12.7934 15.8542 12.673 16.0088C12.6576 16.0285 12.6464 16.0507 12.6415 16.0768C12.6333 16.1198 12.6576 16.1728 12.6967 16.19C12.727 16.2035 12.7303 16.1618 12.748 16.1486C12.7489 16.1481 12.7494 16.1467 12.7501 16.1456C12.8785 15.9556 12.9941 15.7555 13.1015 15.5485C13.1192 15.5148 13.1376 15.481 13.1477 15.4435Z" fill="#A67C1D"/>
<path d="M28.2012 4.97882C28.2001 4.98261 28.199 4.98612 28.1983 4.9899C28.1976 4.99301 28.1963 4.9953 28.1936 4.99436C28.1827 4.99058 28.1839 4.99895 28.185 5.00638C28.1878 5.02731 28.1845 5.04757 28.1804 5.06783C28.1795 5.07229 28.1782 5.0754 28.174 5.07472C28.1671 5.07364 28.1673 5.07783 28.1686 5.08364C28.1704 5.09201 28.1721 5.10038 28.1733 5.10876C28.1742 5.11551 28.1737 5.12199 28.1682 5.12659C28.1649 5.12929 28.1645 5.13361 28.1643 5.13807C28.1639 5.14523 28.1661 5.15184 28.1667 5.16049C28.1583 5.15536 28.1557 5.14644 28.1517 5.13888C28.15 5.13577 28.1489 5.12996 28.1454 5.13158C28.1418 5.13321 28.1439 5.13834 28.1448 5.14198C28.1496 5.16157 28.1543 5.18102 28.1594 5.20047C28.1616 5.20911 28.1616 5.21681 28.1542 5.22208C28.1492 5.22559 28.1511 5.23072 28.1517 5.23572C28.1577 5.28097 28.1636 5.32621 28.1624 5.37227C28.1622 5.37794 28.1645 5.38645 28.1602 5.38862C28.1542 5.39159 28.1493 5.38456 28.1454 5.3793C28.1226 5.34823 28.1048 5.31338 28.0914 5.2757C28.0606 5.18885 28.0505 5.09822 28.0549 5.00462C28.057 4.96032 28.0655 4.9171 28.0682 4.87293C28.0689 4.86199 28.0699 4.85105 28.0691 4.84011C28.0688 4.83633 28.0688 4.83147 28.0648 4.83079C28.0614 4.83012 28.0585 4.83282 28.0563 4.83606C28.0525 4.8416 28.0527 4.84849 28.0516 4.85497C28.0504 4.86145 28.0503 4.87037 28.0418 4.86145C28.0397 4.85929 28.0374 4.85902 28.0356 4.86132C28.0303 4.86807 28.0245 4.86672 28.017 4.86159C28.017 4.8778 28.017 4.89198 28.017 4.90629C28.017 4.90886 28.0182 4.91264 28.0153 4.91345C28.0116 4.91453 28.0116 4.91008 28.0107 4.90738C28.01 4.90562 28.0099 4.90359 28.0093 4.9017C28.0082 4.89833 28.0089 4.89198 28.0052 4.89225C28.0005 4.89265 28.0004 4.89914 28.0004 4.90359C28.0001 4.91575 28.0016 4.92777 28.0037 4.93966C28.0046 4.94492 28.0048 4.95033 28.0055 4.9564C27.9967 4.95505 27.9942 4.94803 27.9916 4.9406C27.9895 4.93398 27.9891 4.92588 27.9819 4.9221C27.9773 4.93709 27.9804 4.95195 27.9792 4.96653C27.9789 4.97126 27.9812 4.9791 27.9766 4.98004C27.9712 4.98112 27.9707 4.97315 27.969 4.96815C27.9672 4.96302 27.9671 4.95384 27.9614 4.95492C27.9569 4.95573 27.9579 4.96464 27.9578 4.97018C27.9574 4.98301 27.9616 4.99476 27.9641 5.00678C27.9654 5.01273 27.9665 5.01881 27.968 5.02677C27.9641 5.02502 27.9616 5.02407 27.959 5.02286C27.9504 5.0184 27.9478 5.01989 27.9496 5.03069C27.952 5.04595 27.9559 5.06108 27.9596 5.07607C27.9611 5.08202 27.9619 5.08593 27.9549 5.08593C27.9481 5.08593 27.948 5.09188 27.9482 5.09755C27.9488 5.10714 27.9528 5.11551 27.9551 5.12443C27.9588 5.13915 27.9604 5.15347 27.9535 5.16751C27.9516 5.1717 27.9512 5.17656 27.9516 5.18129C27.952 5.18683 27.9505 5.19047 27.9456 5.19142C27.9396 5.19263 27.9406 5.19736 27.9414 5.20209C27.9426 5.21006 27.9449 5.21776 27.9445 5.226C27.9401 5.22654 27.9388 5.22289 27.9375 5.21992C27.9182 5.17494 27.8962 5.13145 27.8795 5.08485C27.8495 5.00165 27.858 4.9221 27.8966 4.84565C27.9082 4.82269 27.9215 4.80121 27.9347 4.77974C27.9443 4.76407 27.9532 4.74813 27.9551 4.72828C27.9559 4.72017 27.9563 4.7122 27.9528 4.70478C27.9489 4.70613 27.9481 4.70991 27.9466 4.71275C27.9431 4.71977 27.9394 4.72342 27.9329 4.7168C27.928 4.7118 27.9261 4.71531 27.9252 4.72098C27.9245 4.72517 27.923 4.72936 27.9228 4.73355C27.9223 4.74178 27.9189 4.7457 27.912 4.74476C27.9069 4.74408 27.905 4.74732 27.9035 4.75232C27.8993 4.76542 27.8949 4.77852 27.8899 4.79351C27.8865 4.78514 27.8837 4.77825 27.8805 4.77055C27.8699 4.78541 27.8706 4.805 27.8617 4.82066C27.8582 4.81567 27.8553 4.81121 27.8516 4.80581C27.8481 4.81648 27.8445 4.82607 27.842 4.83606C27.8402 4.84362 27.837 4.84552 27.8313 4.84254C27.826 4.83971 27.8243 4.84241 27.8233 4.84835C27.8205 4.86618 27.8173 4.88401 27.8142 4.90265C27.8082 4.89819 27.8075 4.89009 27.8021 4.88563C27.7966 4.89387 27.7966 4.90346 27.7969 4.91251C27.7978 4.93398 27.7895 4.95181 27.7825 4.97032C27.7819 4.97194 27.7803 4.97464 27.7795 4.9745C27.7679 4.97194 27.7703 4.98274 27.7697 4.98923C27.7675 5.01678 27.7636 5.04433 27.7672 5.07229C27.7682 5.08053 27.7667 5.0885 27.7628 5.09593C27.7592 5.10295 27.7563 5.1016 27.7545 5.09498C27.7511 5.08269 27.748 5.07026 27.7452 5.05784C27.7341 5.00935 27.7267 4.95992 27.7264 4.90967C27.7262 4.83025 27.7502 4.76272 27.7998 4.70761C27.8484 4.65372 27.9021 4.6105 27.9662 4.58646C27.9826 4.58025 27.9996 4.57633 28.0155 4.56795C28.0179 4.56674 28.0217 4.56593 28.0214 4.56269C28.021 4.55931 28.0176 4.55661 28.0146 4.55674C27.9951 4.55796 27.9748 4.55094 27.9565 4.56566C27.9476 4.57282 27.9379 4.57538 27.9279 4.56606C27.9232 4.56161 27.8982 4.56795 27.8936 4.57376C27.8905 4.57768 27.8875 4.58187 27.8848 4.58565C27.8809 4.58443 27.882 4.58092 27.8811 4.57876C27.8797 4.57538 27.8811 4.56985 27.8775 4.56863C27.8733 4.56701 27.8699 4.5712 27.8672 4.57444C27.864 4.57822 27.8615 4.58295 27.8588 4.58754C27.855 4.59389 27.851 4.59794 27.844 4.59294C27.8379 4.58848 27.8349 4.59456 27.8319 4.59915C27.8286 4.60442 27.8254 4.60672 27.821 4.60064C27.8177 4.59605 27.8154 4.59699 27.8135 4.60267C27.8105 4.61131 27.8067 4.61969 27.8037 4.62833C27.8018 4.63414 27.7993 4.63576 27.795 4.63184C27.79 4.62752 27.7866 4.62927 27.7837 4.63508C27.7811 4.64049 27.7774 4.64508 27.7756 4.65116C27.7725 4.66129 27.767 4.66939 27.7597 4.67628C27.7533 4.68236 27.747 4.68884 27.7424 4.69721C27.7414 4.6991 27.7395 4.70167 27.7382 4.70167C27.7262 4.70072 27.7267 4.71166 27.7249 4.72031C27.7232 4.72909 27.7214 4.73773 27.7198 4.74665C27.7183 4.75529 27.7167 4.76312 27.7082 4.76664C27.703 4.76866 27.7032 4.77542 27.7032 4.78095C27.7035 4.78987 27.7016 4.80027 27.694 4.80027C27.6855 4.80027 27.6852 4.78825 27.6857 4.78068C27.6911 4.66831 27.7301 4.57741 27.8108 4.51406C27.8664 4.47044 27.9286 4.44991 27.9944 4.44234C28.0179 4.43964 28.0414 4.43626 28.0643 4.42938C28.0722 4.42708 28.0794 4.42343 28.0842 4.4129C28.0527 4.41047 28.0228 4.39737 27.9918 4.40898C27.988 4.41047 27.9837 4.41276 27.9802 4.41006C27.969 4.40169 27.9602 4.40777 27.9511 4.41506C27.9485 4.41722 27.9448 4.42181 27.9419 4.41573C27.9383 4.4075 27.9334 4.40858 27.928 4.41222C27.9088 4.42519 27.8866 4.43046 27.8657 4.43573C27.8368 4.44302 27.8179 4.46774 27.7933 4.48111C27.7902 4.48273 27.7869 4.48881 27.7838 4.48529C27.7802 4.48111 27.7853 4.47692 27.7872 4.47354C27.8178 4.41952 27.8572 4.37576 27.9022 4.33834C27.953 4.2962 28.0092 4.28107 28.0704 4.28783C28.1002 4.29107 28.13 4.29472 28.1598 4.29769C28.1653 4.29823 28.174 4.3012 28.1757 4.29418C28.1769 4.28904 28.1684 4.28526 28.1632 4.28324C28.1488 4.2777 28.1376 4.26487 28.1232 4.2596C28.109 4.25433 28.095 4.24852 28.0818 4.24001C28.072 4.23367 28.0588 4.23812 28.0508 4.2261C28.0503 4.22543 28.0482 4.22597 28.0471 4.22651C28.0245 4.23745 28.0003 4.24028 27.9766 4.24636C27.9701 4.24798 27.9644 4.25231 27.9571 4.25609C27.9581 4.24339 27.9641 4.23569 27.9707 4.22921C27.9936 4.20679 28.0211 4.19652 28.0495 4.18896C28.1047 4.1741 28.1557 4.1872 28.2029 4.223C28.22 4.23596 28.2373 4.24812 28.2568 4.25568C28.2628 4.25798 28.2643 4.2573 28.2644 4.24987C28.2649 4.21975 28.2674 4.18977 28.2709 4.15992C28.2718 4.15209 28.2741 4.14857 28.2806 4.14925C28.2882 4.15006 28.2905 4.14655 28.2911 4.13736C28.2924 4.11521 28.2897 4.09266 28.296 4.07105C28.2969 4.06781 28.2963 4.06308 28.3 4.06254C28.3044 4.062 28.3045 4.0674 28.3059 4.07064C28.3115 4.08455 28.3092 4.09995 28.3113 4.11454C28.3122 4.12143 28.312 4.12858 28.3125 4.13561C28.3131 4.14223 28.3139 4.14857 28.3201 4.15209C28.3247 4.15465 28.3253 4.16073 28.3254 4.1664C28.3255 4.17343 28.3255 4.18045 28.3257 4.18761C28.326 4.19747 28.3273 4.20665 28.3331 4.21489C28.3393 4.22367 28.3397 4.23502 28.3394 4.24623C28.3388 4.26527 28.3398 4.26676 28.3547 4.25919C28.3751 4.24879 28.3945 4.23583 28.4134 4.22205C28.4522 4.19355 28.4938 4.1818 28.5393 4.19126C28.5684 4.19733 28.5949 4.21179 28.6204 4.22894C28.628 4.23407 28.6338 4.24191 28.6373 4.25149C28.6403 4.25946 28.6381 4.26338 28.6308 4.26244C28.6276 4.26203 28.6245 4.26027 28.6212 4.25906C28.5992 4.25068 28.5761 4.2415 28.5538 4.25001C28.5367 4.25649 28.5204 4.26027 28.5025 4.26081C28.4881 4.26122 28.477 4.27446 28.4633 4.28242C28.479 4.29674 28.4961 4.29688 28.5133 4.29593C28.5346 4.29458 28.5558 4.29174 28.577 4.2912C28.6245 4.28985 28.6669 4.30741 28.703 4.34334C28.7313 4.3717 28.7589 4.40115 28.7848 4.43275C28.796 4.44626 28.8046 4.46206 28.8116 4.4807C28.8045 4.47922 28.7995 4.47489 28.7945 4.47138C28.7784 4.46031 28.7616 4.4518 28.7435 4.44572C28.7271 4.44032 28.7114 4.431 28.6964 4.4206C28.6913 4.41695 28.6859 4.41398 28.6799 4.41249C28.6716 4.41033 28.6635 4.40912 28.6589 4.4206C28.6569 4.42533 28.6543 4.42505 28.651 4.42208C28.6473 4.41871 28.6432 4.41614 28.6394 4.4129C28.6344 4.40858 28.6302 4.40547 28.6261 4.41438C28.6235 4.42006 28.6194 4.41641 28.6165 4.41438C28.6065 4.40723 28.5969 4.40101 28.5854 4.41141C28.5831 4.41344 28.5783 4.41195 28.5746 4.41182C28.5634 4.41114 28.5527 4.41236 28.5433 4.42046C28.5406 4.42276 28.5379 4.42343 28.5349 4.42208C28.534 4.42168 28.533 4.42127 28.532 4.42114C28.5265 4.42046 28.5148 4.43005 28.5158 4.43545C28.517 4.44194 28.5231 4.44153 28.5272 4.44207C28.5467 4.44464 28.5662 4.44653 28.5858 4.44869C28.6251 4.45301 28.6648 4.45653 28.703 4.46963C28.798 4.50218 28.8663 4.56985 28.9002 4.68114C28.9132 4.72396 28.9162 4.76853 28.9124 4.8158C28.9056 4.80837 28.9029 4.8 28.8993 4.79257C28.8848 4.76272 28.8706 4.7326 28.8564 4.70248C28.852 4.6933 28.8474 4.68479 28.8373 4.68411C28.8335 4.68384 28.8336 4.6806 28.8331 4.67749C28.8282 4.65007 28.8117 4.63333 28.7936 4.61806C28.7928 4.61739 28.7918 4.61685 28.7909 4.61644C28.7847 4.6132 28.7768 4.61577 28.7716 4.60847C28.7675 4.6024 28.763 4.59672 28.7587 4.59078C28.7514 4.60307 28.7514 4.60307 28.7433 4.59159C28.742 4.58983 28.7408 4.58794 28.7395 4.58619C28.7308 4.57376 28.7306 4.57363 28.7223 4.587C28.7199 4.59092 28.7183 4.59173 28.7156 4.58781C28.7135 4.5847 28.7112 4.58187 28.7093 4.57876C28.7053 4.57228 28.7025 4.56701 28.6939 4.57336C28.6875 4.57808 28.678 4.57268 28.6701 4.57889C28.6674 4.58106 28.6629 4.57322 28.6589 4.57066C28.6573 4.56958 28.6559 4.56674 28.6537 4.56822C28.6519 4.56944 28.6521 4.57228 28.6522 4.57457C28.6526 4.58578 28.658 4.59362 28.6654 4.59942C28.6933 4.62144 28.7211 4.64346 28.7492 4.66507C28.7861 4.6933 28.8196 4.72531 28.8418 4.77136C28.8667 4.82323 28.8735 4.87955 28.8724 4.9379C28.8713 4.99719 28.8593 5.05392 28.8438 5.10997C28.8416 5.11821 28.8395 5.11673 28.8356 5.11187C28.8275 5.10214 28.8279 5.0908 28.8303 5.07904C28.8313 5.07418 28.8329 5.06932 28.8348 5.06473C28.8374 5.05811 28.8362 5.05325 28.8304 5.05054C28.8242 5.04771 28.8234 5.04217 28.824 5.03528C28.8246 5.02745 28.8246 5.01961 28.825 5.01178C28.8255 5.00435 28.8262 4.9976 28.8166 4.99949C28.813 5.00017 28.8127 4.99638 28.8127 4.99301C28.8127 4.98139 28.8099 4.97086 28.8062 4.96019C28.8022 4.9483 28.8061 4.93533 28.8039 4.92304C28.8026 4.91588 28.8023 4.90846 28.8016 4.90116C28.8002 4.90116 28.7995 4.90089 28.799 4.90116C28.7853 4.909 28.7853 4.909 28.784 4.8909C28.7837 4.88549 28.7828 4.87996 28.7828 4.87455C28.7828 4.86334 28.781 4.85537 28.769 4.85983C28.7643 4.86159 28.7639 4.85686 28.7631 4.85294C28.7603 4.83836 28.7573 4.82363 28.754 4.80689C28.7491 4.81526 28.7453 4.82174 28.7405 4.83012C28.7354 4.81148 28.7306 4.79473 28.7256 4.7769C28.7232 4.77933 28.7217 4.78068 28.7203 4.7823C28.7094 4.79487 28.7094 4.79487 28.7033 4.77771C28.7013 4.7719 28.6991 4.76623 28.6975 4.76029C28.6954 4.75232 28.6928 4.74692 28.6844 4.74597C28.6767 4.74516 28.6739 4.73571 28.6712 4.72828C28.6689 4.7222 28.6667 4.71896 28.6603 4.72004C28.6507 4.72179 28.644 4.71558 28.6387 4.7064C28.6357 4.70126 28.6324 4.69181 28.6267 4.69532C28.6208 4.6991 28.6234 4.70829 28.6256 4.71572C28.6309 4.73395 28.6422 4.74759 28.6517 4.76272C28.6707 4.79324 28.6923 4.82174 28.7085 4.8547C28.742 4.92291 28.7467 4.99517 28.7289 5.07013C28.7161 5.12429 28.6938 5.17291 28.6653 5.21789C28.6613 5.22424 28.6573 5.23113 28.6493 5.23505C28.6498 5.22843 28.6498 5.22302 28.6507 5.21789C28.6521 5.20952 28.6546 5.20114 28.6428 5.20155C28.6394 5.20168 28.64 5.19844 28.6406 5.19547C28.6422 5.18953 28.6437 5.18345 28.6451 5.17751C28.6463 5.17251 28.6479 5.1663 28.6452 5.16265C28.6367 5.15049 28.6417 5.13928 28.6455 5.12767C28.6483 5.11889 28.6507 5.10997 28.6537 5.10119C28.6561 5.09404 28.6543 5.09161 28.6481 5.09336C28.6409 5.09539 28.6396 5.09269 28.6413 5.08445C28.6452 5.06527 28.6482 5.04568 28.6517 5.0265C28.6453 5.0238 28.6403 5.03555 28.6364 5.02893C28.6339 5.02461 28.6364 5.0161 28.6367 5.00949C28.6371 5.00206 28.6375 4.99476 28.6381 4.98652C28.6315 4.98841 28.6296 4.99638 28.6227 5.00057C28.6227 4.97693 28.6227 4.95505 28.6227 4.93209C28.6138 4.93452 28.6137 4.94276 28.6107 4.94843C28.6096 4.95033 28.6094 4.95343 28.6071 4.95357C28.6041 4.9537 28.6036 4.95033 28.603 4.94789C28.6008 4.93952 28.6014 4.93088 28.6008 4.92223C28.6 4.91008 28.599 4.909 28.5906 4.91494C28.5854 4.91859 28.5851 4.91548 28.5846 4.91102C28.5837 4.90292 28.5828 4.89468 28.582 4.88658C28.5814 4.88104 28.5803 4.87685 28.5746 4.88117C28.5687 4.88576 28.5666 4.88158 28.5646 4.87577C28.5603 4.8624 28.5527 4.8524 28.5409 4.84754C28.5348 4.84511 28.5317 4.84538 28.5328 4.85497C28.5369 4.88874 28.541 4.92237 28.5437 4.95627C28.5514 5.05095 28.5483 5.14469 28.5229 5.23599C28.5105 5.28043 28.493 5.32203 28.4711 5.3612C28.4634 5.37497 28.4537 5.38672 28.4431 5.39739C28.4398 5.39469 28.4415 5.39132 28.4413 5.38848C28.44 5.3431 28.4456 5.29745 28.4421 5.25247C28.4396 5.21911 28.4439 5.18885 28.455 5.159C28.4555 5.15765 28.4556 5.15617 28.4561 5.15347C28.4444 5.15522 28.4417 5.16859 28.4322 5.17575C28.4313 5.15887 28.4305 5.14361 28.43 5.12821C28.4296 5.11848 28.4295 5.10862 28.4292 5.0989C28.4286 5.08242 28.4266 5.06689 28.4177 5.05271C28.4059 5.03393 28.408 5.01016 28.4046 4.98828C28.4041 4.98531 28.4056 4.98112 28.4029 4.97977C28.3995 4.97815 28.3977 4.98234 28.3955 4.9845C28.383 4.99692 28.3824 5.01556 28.3777 5.03204C28.3657 5.07499 28.3677 5.11929 28.369 5.16346C28.3708 5.22438 28.3723 5.28542 28.3743 5.34634C28.3791 5.49572 28.3821 5.64511 28.3829 5.79462C28.3831 5.84554 28.3837 5.89633 28.3853 5.94725C28.3865 5.98345 28.3936 6.01843 28.4071 6.05125C28.42 6.08258 28.4209 6.11419 28.4092 6.14661C28.3947 6.18686 28.399 6.22562 28.418 6.26209C28.4319 6.28869 28.4474 6.31422 28.4622 6.34016C28.4671 6.34866 28.4718 6.35731 28.4745 6.3669C28.4809 6.38878 28.4738 6.40499 28.4548 6.41107C28.4339 6.41768 28.4124 6.42147 28.3907 6.42187C28.3295 6.42295 28.2682 6.4243 28.207 6.42241C28.186 6.42173 28.1653 6.41782 28.1453 6.41052C28.1255 6.40337 28.1191 6.38729 28.1271 6.36487C28.1351 6.34232 28.1477 6.32287 28.1595 6.30315C28.1807 6.26776 28.1963 6.22994 28.1971 6.18537C28.1975 6.16511 28.1945 6.14566 28.1869 6.12743C28.1773 6.1042 28.1777 6.08123 28.1886 6.05895C28.2077 6.02032 28.2108 5.9775 28.2122 5.93428C28.2162 5.80921 28.2183 5.684 28.2203 5.5588C28.2221 5.4525 28.2272 5.3462 28.2304 5.23991C28.2324 5.17373 28.2299 5.10768 28.2281 5.0415C28.2281 5.01745 28.2159 4.99152 28.2012 4.97882Z" fill="black"/>
<path d="M29.6129 6.19255C29.5977 6.19714 29.5834 6.19728 29.5693 6.1989C29.503 6.20606 29.4367 6.21119 29.3706 6.22199C29.285 6.23604 29.1998 6.25333 29.116 6.27832C29.0412 6.30074 28.9688 6.3318 28.898 6.36827C28.8102 6.41352 28.7246 6.46376 28.6459 6.52859C28.5767 6.58559 28.5156 6.65366 28.4561 6.72376C28.4422 6.74011 28.4287 6.75672 28.4153 6.77374C28.4055 6.7863 28.4052 6.78954 28.4141 6.80305C28.4401 6.84262 28.4663 6.88206 28.4927 6.92136C28.5305 6.97755 28.5724 7.02942 28.6138 7.08182C28.6192 7.08871 28.6254 7.09465 28.6311 7.10127C28.636 7.10708 28.6385 7.10519 28.6406 7.09817C28.6508 7.06467 28.6611 7.03131 28.6714 6.99781C28.6756 6.98377 28.6804 6.97012 28.6873 6.95756C28.7035 6.92785 28.7279 6.92015 28.7535 6.93838C28.7792 6.95662 28.7911 6.9839 28.7889 7.01915C28.788 7.03496 28.7796 7.04603 28.764 7.04995C28.7273 7.05927 28.7106 7.08952 28.7033 7.1291C28.6966 7.16502 28.7033 7.19676 28.7257 7.22418C28.7468 7.24998 28.7685 7.27456 28.7943 7.29347C28.8168 7.30995 28.8222 7.30833 28.8339 7.28064C28.8408 7.26443 28.8478 7.2485 28.8598 7.23647C28.8897 7.20622 28.9359 7.19974 28.9717 7.24971C28.9989 7.28766 29.0059 7.33264 29.0018 7.38072C28.9991 7.41152 28.9893 7.43934 28.9723 7.46271C28.9445 7.5008 28.9078 7.50904 28.8673 7.50417C28.8249 7.49904 28.7895 7.475 28.7551 7.44758C28.7159 7.41652 28.6762 7.3864 28.6367 7.35601C28.6248 7.34682 28.6244 7.34723 28.6141 7.35925C28.59 7.38734 28.5684 7.41841 28.5417 7.44339C28.5064 7.47649 28.4523 7.47351 28.4234 7.43637C28.3933 7.39774 28.3917 7.33912 28.4348 7.29806C28.442 7.29118 28.4502 7.29104 28.4582 7.29617C28.4722 7.30509 28.4856 7.31522 28.4998 7.32359C28.5186 7.33467 28.5374 7.32913 28.5509 7.31035C28.5593 7.2986 28.5606 7.28591 28.5554 7.27213C28.5462 7.24768 28.5305 7.22891 28.5156 7.20946C28.4507 7.12559 28.3857 7.04171 28.3207 6.95797C28.3145 6.94986 28.3086 6.93771 28.3003 6.9369C28.2923 6.93622 28.2869 6.94919 28.2805 6.95648C28.2237 7.0205 28.1718 7.08966 28.1205 7.15962C28.101 7.18623 28.0816 7.21324 28.0621 7.23985C28.0555 7.24877 28.05 7.25849 28.0461 7.26943C28.0405 7.28537 28.0418 7.30023 28.0518 7.31306C28.0622 7.32656 28.0751 7.33224 28.0904 7.32643C28.1039 7.32143 28.1155 7.31198 28.1279 7.30468C28.1332 7.30158 28.1386 7.2982 28.1441 7.29563C28.1532 7.29131 28.162 7.2928 28.1692 7.30063C28.1909 7.3244 28.1987 7.35439 28.1943 7.38802C28.1898 7.42314 28.1751 7.45109 28.145 7.4623C28.1169 7.4727 28.0904 7.46244 28.0654 7.44704C28.0386 7.43056 28.019 7.40436 28.0007 7.37681C27.9952 7.36843 27.9887 7.36087 27.9837 7.35236C27.9798 7.34588 27.9762 7.34669 27.9713 7.34993C27.9432 7.36789 27.9179 7.39099 27.8915 7.41192C27.8655 7.43245 27.8411 7.45542 27.8133 7.47284C27.7809 7.4931 27.7466 7.50323 27.7097 7.50161C27.6605 7.49958 27.6235 7.46514 27.6063 7.40463C27.5886 7.34264 27.604 7.27686 27.6463 7.23431C27.6799 7.20041 27.7232 7.20554 27.7507 7.2466C27.7605 7.26106 27.7686 7.27672 27.777 7.29226C27.7848 7.30657 27.7871 7.30779 27.7993 7.29968C27.8363 7.2751 27.8673 7.24215 27.8933 7.20311C27.902 7.19001 27.9038 7.17434 27.9 7.15854C27.8947 7.13598 27.8886 7.11356 27.883 7.09114C27.8783 7.07183 27.868 7.0594 27.8515 7.05373C27.8494 7.05292 27.8472 7.05184 27.845 7.05103C27.817 7.04063 27.8097 7.02645 27.8149 6.99214C27.8212 6.95013 27.8558 6.92339 27.8905 6.93325C27.9064 6.93784 27.9166 6.94959 27.9219 6.96742C27.9333 7.00538 27.9444 7.04346 27.9557 7.08155C27.9632 7.10722 27.9678 7.1087 27.9832 7.08844C28.053 6.99754 28.1204 6.90421 28.1839 6.8071C28.1924 6.79413 28.1921 6.79103 28.1839 6.77698C28.1662 6.74618 28.1428 6.7216 28.1204 6.69607C28.0682 6.63624 28.0131 6.58046 27.9549 6.52873C27.9031 6.48254 27.8455 6.44863 27.7875 6.41541C27.7217 6.37786 27.6546 6.34342 27.5856 6.31492C27.4939 6.27696 27.4008 6.24576 27.3043 6.22969C27.2473 6.2201 27.19 6.21362 27.1328 6.20619C27.1005 6.20187 27.0681 6.19674 27.0358 6.19201C27.0323 6.19147 27.0285 6.19093 27.0254 6.1858C27.0364 6.18026 27.0479 6.17904 27.059 6.17837C27.154 6.17256 27.2486 6.15878 27.3439 6.16027C27.4557 6.16202 27.5662 6.17445 27.6751 6.20606C27.7487 6.2274 27.819 6.2586 27.8872 6.29722C27.955 6.33558 28.0217 6.37597 28.083 6.42783C28.1355 6.47227 28.1846 6.52143 28.2313 6.57384C28.2504 6.59518 28.2694 6.61639 28.2873 6.63894C28.2947 6.64813 28.2994 6.64664 28.3059 6.63948C28.328 6.61558 28.3504 6.59234 28.3721 6.56803C28.464 6.46525 28.5662 6.37948 28.68 6.31303C28.7507 6.2717 28.8242 6.23888 28.9001 6.21335C28.9803 6.18634 29.0623 6.17134 29.1455 6.165C29.225 6.15878 29.3044 6.16175 29.3839 6.16648C29.426 6.16905 29.4682 6.17094 29.5104 6.17458C29.5406 6.17715 29.5705 6.18215 29.6006 6.1862C29.6045 6.18661 29.6086 6.18728 29.6129 6.19255ZM28.875 7.42435C28.879 7.42435 28.8831 7.42462 28.887 7.42435C28.9206 7.42165 28.9399 7.40477 28.9477 7.37127C28.9539 7.34439 28.9425 7.3063 28.9234 7.29023C28.9068 7.27632 28.8859 7.28577 28.8773 7.31171C28.8716 7.32886 28.8683 7.34682 28.8675 7.36533C28.8665 7.3837 28.8601 7.38937 28.8446 7.38748C28.8383 7.38667 28.8323 7.38397 28.8265 7.38153C28.7897 7.36641 28.7603 7.33912 28.7339 7.30617C28.7194 7.28807 28.7032 7.27159 28.688 7.25403C28.6826 7.24782 28.6799 7.24917 28.6764 7.25633C28.6683 7.27308 28.6691 7.28712 28.6802 7.30144C28.698 7.32427 28.7171 7.34561 28.7383 7.36371C28.7792 7.39869 28.8236 7.42273 28.875 7.42435ZM27.6564 7.35236C27.6564 7.40058 27.6744 7.42476 27.7139 7.42624C27.7531 7.42773 27.7905 7.41544 27.8246 7.39248C27.8621 7.36722 27.8926 7.33142 27.9248 7.2982C27.9335 7.28915 27.9348 7.27672 27.9309 7.26362C27.9268 7.25025 27.9257 7.24944 27.9159 7.257C27.911 7.26079 27.9062 7.26511 27.9017 7.26984C27.8742 7.2986 27.8465 7.32737 27.8192 7.35655C27.8025 7.37451 27.7836 7.38451 27.7608 7.38532C27.7426 7.38599 27.7368 7.38059 27.7344 7.35952C27.7327 7.34439 27.7302 7.3294 27.7285 7.31427C27.7265 7.29752 27.7189 7.28685 27.7048 7.28375C27.69 7.28051 27.6777 7.28618 27.6691 7.30076C27.6597 7.3167 27.6572 7.33521 27.6564 7.35236ZM28.4675 7.34291C28.4591 7.34277 28.4537 7.3479 28.4508 7.35682C28.4449 7.37505 28.4521 7.39572 28.467 7.40436C28.4941 7.42016 28.5201 7.41517 28.5427 7.3945C28.5721 7.36762 28.5952 7.3344 28.6103 7.29334C28.637 7.22054 28.6646 7.14801 28.6919 7.07561C28.6993 7.05616 28.7101 7.04009 28.7279 7.03239C28.7338 7.02982 28.7377 7.02456 28.7415 7.01915C28.7499 7.00727 28.7479 6.99308 28.7365 6.98106C28.7267 6.9708 28.7158 6.9712 28.7066 6.98296C28.6974 6.99457 28.6917 7.00889 28.687 7.02347C28.6667 7.08628 28.6465 7.14922 28.6265 7.21216C28.6111 7.26065 28.59 7.30495 28.5607 7.34372C28.5488 7.35952 28.5339 7.36519 28.5167 7.36033C28.5094 7.3583 28.5024 7.35425 28.4951 7.35141C28.4862 7.34777 28.4773 7.34318 28.4675 7.34291ZM28.1076 7.41111C28.1158 7.41152 28.1329 7.4045 28.139 7.39815C28.1489 7.38788 28.1529 7.36519 28.1469 7.35277C28.1419 7.34237 28.1337 7.34115 28.1165 7.34763C28.1055 7.35182 28.0944 7.35628 28.0831 7.35952C28.0659 7.36465 28.0508 7.35938 28.0387 7.34385C28.0294 7.33197 28.0212 7.31913 28.0156 7.30441C27.9848 7.22391 27.9534 7.14368 27.9271 7.06075C27.9186 7.03388 27.9087 7.00794 27.8939 6.98485C27.8888 6.97701 27.8825 6.97256 27.8742 6.97472C27.865 6.97701 27.8588 6.98363 27.8568 6.99484C27.8538 7.01118 27.859 7.02415 27.8727 7.03104C27.8934 7.04144 27.9074 7.05927 27.9159 7.08344C27.9368 7.1422 27.958 7.20095 27.9781 7.26011C27.9939 7.30684 28.0139 7.34993 28.0476 7.38248C28.0651 7.39963 28.0847 7.40976 28.1076 7.41111ZM28.6031 7.16543C28.6031 7.15638 28.5987 7.14801 28.5925 7.14044C28.5593 7.09938 28.5264 7.05805 28.493 7.01726C28.4806 7.00213 28.4691 6.98566 28.4544 6.97323C28.4512 6.97039 28.4471 6.96877 28.4443 6.97161C28.4414 6.97445 28.4455 6.97755 28.4467 6.98052C28.4476 6.98296 28.449 6.98525 28.4502 6.98755C28.4902 7.05386 28.5302 7.12018 28.5701 7.18663C28.5737 7.19244 28.5778 7.19744 28.5833 7.20055C28.5862 7.20217 28.5893 7.20352 28.5912 7.19947C28.5963 7.18907 28.6026 7.17961 28.6031 7.16543ZM28.1498 6.97255C28.1478 6.9708 28.1468 6.97215 28.1457 6.97269C28.1327 6.97877 28.1247 6.99146 28.1157 7.00294C28.0795 7.04927 28.0435 7.09573 28.0073 7.14206C28.0027 7.14801 27.9994 7.15462 27.9979 7.16246C27.9955 7.17529 28.0027 7.19123 28.0144 7.19636C28.0235 7.20041 28.0245 7.18785 28.0298 7.18393C28.0301 7.1838 28.0303 7.18326 28.0304 7.18299C28.0689 7.12599 28.1036 7.06589 28.1358 7.00389C28.1412 6.9939 28.1467 6.9839 28.1498 6.97255Z" fill="black"/>
<path d="M27.6575 12.8203V11.3658H28.0091V11.9808H28.0283L28.5091 11.3658H28.9232L28.4075 12.0149L28.9324 12.8203H28.5119L28.1497 12.2486L28.0091 12.4261V12.8203H27.6575ZM28.4858 13.8018C28.481 13.7498 28.46 13.7093 28.4225 13.6804C28.3856 13.651 28.3328 13.6364 28.2642 13.6364C28.2187 13.6364 28.1808 13.6423 28.1505 13.6541C28.1202 13.666 28.0975 13.6823 28.0824 13.7031C28.0672 13.7235 28.0594 13.7469 28.0589 13.7734C28.058 13.7952 28.0622 13.8144 28.0717 13.831C28.0816 13.8475 28.0958 13.8622 28.1143 13.875C28.1333 13.8873 28.156 13.8982 28.1825 13.9077C28.209 13.9171 28.2388 13.9254 28.272 13.9325L28.397 13.9609C28.469 13.9766 28.5324 13.9974 28.5873 14.0234C28.6427 14.0495 28.6891 14.0805 28.7265 14.1165C28.7644 14.1525 28.7931 14.1939 28.8125 14.2408C28.8319 14.2876 28.8418 14.3402 28.8423 14.3984C28.8418 14.4903 28.8186 14.5691 28.7727 14.6349C28.7268 14.7008 28.6607 14.7512 28.5745 14.7862C28.4888 14.8213 28.3854 14.8388 28.2642 14.8388C28.1425 14.8388 28.0364 14.8205 27.946 14.7841C27.8556 14.7476 27.7852 14.6922 27.735 14.6179C27.6849 14.5436 27.6591 14.4496 27.6576 14.3359H27.9943C27.9971 14.3828 28.0097 14.4219 28.0319 14.4531C28.0542 14.4844 28.0847 14.508 28.1235 14.5241C28.1628 14.5402 28.2083 14.5483 28.2599 14.5483C28.3073 14.5483 28.3475 14.5419 28.3806 14.5291C28.4143 14.5163 28.4401 14.4986 28.4581 14.4759C28.4761 14.4531 28.4853 14.4271 28.4858 14.3977C28.4853 14.3703 28.4768 14.3468 28.4602 14.3274C28.4436 14.3075 28.4181 14.2905 28.3835 14.2763C28.3494 14.2616 28.3058 14.2481 28.2528 14.2358L28.1008 14.2003C27.9749 14.1714 27.8757 14.1248 27.8032 14.0604C27.7308 13.9955 27.6948 13.9079 27.6953 13.7976C27.6948 13.7076 27.719 13.6288 27.7677 13.5611C27.8165 13.4934 27.884 13.4406 27.9701 13.4027C28.0563 13.3648 28.1546 13.3459 28.2649 13.3459C28.3776 13.3459 28.4753 13.3651 28.5582 13.4034C28.6415 13.4413 28.7062 13.4946 28.7521 13.5632C28.798 13.6319 28.8215 13.7114 28.8224 13.8018H28.4858ZM27.9028 16.8203H27.525L28.0158 15.3658H28.4838L28.9746 16.8203H28.5967L28.2551 15.7322H28.2437L27.9028 16.8203ZM27.8524 16.2479H28.6422V16.5149H27.8524V16.2479Z" fill="black"/>
<path d="M19.0759 10.2045L19.1043 9.89205L18.8451 10.0732L18.703 9.82457L18.9871 9.69318L18.703 9.56179L18.8451 9.31321L19.1043 9.49432L19.0759 9.18182H19.36L19.3316 9.49432L19.5908 9.31321L19.7329 9.56179L19.4488 9.69318L19.7329 9.82457L19.5908 10.0732L19.3316 9.89205L19.36 10.2045H19.0759ZM20.5969 10.2045L20.6253 9.89205L20.3661 10.0732L20.224 9.82457L20.5081 9.69318L20.224 9.56179L20.3661 9.31321L20.6253 9.49432L20.5969 9.18182H20.881L20.8526 9.49432L21.1118 9.31321L21.2539 9.56179L20.9698 9.69318L21.2539 9.82457L21.1118 10.0732L20.8526 9.89205L20.881 10.2045H20.5969ZM22.1179 10.2045L22.1463 9.89205L21.8871 10.0732L21.745 9.82457L22.0291 9.69318L21.745 9.56179L21.8871 9.31321L22.1463 9.49432L22.1179 9.18182H22.402L22.3736 9.49432L22.6328 9.31321L22.7749 9.56179L22.4908 9.69318L22.7749 9.82457L22.6328 10.0732L22.3736 9.89205L22.402 10.2045H22.1179ZM23.6389 10.2045L23.6673 9.89205L23.4081 10.0732L23.266 9.82457L23.5501 9.69318L23.266 9.56179L23.4081 9.31321L23.6673 9.49432L23.6389 9.18182H23.923L23.8946 9.49432L24.1538 9.31321L24.2959 9.56179L24.0118 9.69318L24.2959 9.82457L24.1538 10.0732L23.8946 9.89205L23.923 10.2045H23.6389ZM19.0759 13.2045L19.1043 12.892L18.8451 13.0732L18.703 12.8246L18.9871 12.6932L18.703 12.5618L18.8451 12.3132L19.1043 12.4943L19.0759 12.1818H19.36L19.3316 12.4943L19.5908 12.3132L19.7329 12.5618L19.4488 12.6932L19.7329 12.8246L19.5908 13.0732L19.3316 12.892L19.36 13.2045H19.0759ZM20.5969 13.2045L20.6253 12.892L20.3661 13.0732L20.224 12.8246L20.5081 12.6932L20.224 12.5618L20.3661 12.3132L20.6253 12.4943L20.5969 12.1818H20.881L20.8526 12.4943L21.1118 12.3132L21.2539 12.5618L20.9698 12.6932L21.2539 12.8246L21.1118 13.0732L20.8526 12.892L20.881 13.2045H20.5969ZM22.1179 13.2045L22.1463 12.892L21.8871 13.0732L21.745 12.8246L22.0291 12.6932L21.745 12.5618L21.8871 12.3132L22.1463 12.4943L22.1179 12.1818H22.402L22.3736 12.4943L22.6328 12.3132L22.7749 12.5618L22.4908 12.6932L22.7749 12.8246L22.6328 13.0732L22.3736 12.892L22.402 13.2045H22.1179ZM23.6389 13.2045L23.6673 12.892L23.4081 13.0732L23.266 12.8246L23.5501 12.6932L23.266 12.5618L23.4081 12.3132L23.6673 12.4943L23.6389 12.1818H23.923L23.8946 12.4943L24.1538 12.3132L24.2959 12.5618L24.0118 12.6932L24.2959 12.8246L24.1538 13.0732L23.8946 12.892L23.923 13.2045H23.6389Z" fill="black"/>
<path d="M3.37669 10.2045L3.4051 9.89205L3.14586 10.0732L3.00382 9.82457L3.28791 9.69318L3.00382 9.56179L3.14586 9.31321L3.4051 9.49432L3.37669 9.18182H3.66078L3.63237 9.49432L3.8916 9.31321L4.03365 9.56179L3.74956 9.69318L4.03365 9.82457L3.8916 10.0732L3.63237 9.89205L3.66078 10.2045H3.37669ZM4.89768 10.2045L4.92609 9.89205L4.66686 10.0732L4.52481 9.82457L4.8089 9.69318L4.52481 9.56179L4.66686 9.31321L4.92609 9.49432L4.89768 9.18182H5.18177L5.15336 9.49432L5.4126 9.31321L5.55464 9.56179L5.27055 9.69318L5.55464 9.82457L5.4126 10.0732L5.15336 9.89205L5.18177 10.2045H4.89768ZM6.41868 10.2045L6.44709 9.89205L6.18786 10.0732L6.04581 9.82457L6.3299 9.69318L6.04581 9.56179L6.18786 9.31321L6.44709 9.49432L6.41868 9.18182H6.70277L6.67436 9.49432L6.93359 9.31321L7.07564 9.56179L6.79155 9.69318L7.07564 9.82457L6.93359 10.0732L6.67436 9.89205L6.70277 10.2045H6.41868ZM7.93968 10.2045L7.96808 9.89205L7.70885 10.0732L7.56681 9.82457L7.8509 9.69318L7.56681 9.56179L7.70885 9.31321L7.96808 9.49432L7.93968 9.18182H8.22377L8.19536 9.49432L8.45459 9.31321L8.59664 9.56179L8.31254 9.69318L8.59664 9.82457L8.45459 10.0732L8.19536 9.89205L8.22377 10.2045H7.93968ZM3.37669 13.2045L3.4051 12.892L3.14586 13.0732L3.00382 12.8246L3.28791 12.6932L3.00382 12.5618L3.14586 12.3132L3.4051 12.4943L3.37669 12.1818H3.66078L3.63237 12.4943L3.8916 12.3132L4.03365 12.5618L3.74956 12.6932L4.03365 12.8246L3.8916 13.0732L3.63237 12.892L3.66078 13.2045H3.37669ZM4.89768 13.2045L4.92609 12.892L4.66686 13.0732L4.52481 12.8246L4.8089 12.6932L4.52481 12.5618L4.66686 12.3132L4.92609 12.4943L4.89768 12.1818H5.18177L5.15336 12.4943L5.4126 12.3132L5.55464 12.5618L5.27055 12.6932L5.55464 12.8246L5.4126 13.0732L5.15336 12.892L5.18177 13.2045H4.89768ZM6.41868 13.2045L6.44709 12.892L6.18786 13.0732L6.04581 12.8246L6.3299 12.6932L6.04581 12.5618L6.18786 12.3132L6.44709 12.4943L6.41868 12.1818H6.70277L6.67436 12.4943L6.93359 12.3132L7.07564 12.5618L6.79155 12.6932L7.07564 12.8246L6.93359 13.0732L6.67436 12.892L6.70277 13.2045H6.41868ZM7.93968 13.2045L7.96808 12.892L7.70885 13.0732L7.56681 12.8246L7.8509 12.6932L7.56681 12.5618L7.70885 12.3132L7.96808 12.4943L7.93968 12.1818H8.22377L8.19536 12.4943L8.45459 12.3132L8.59664 12.5618L8.31254 12.6932L8.59664 12.8246L8.45459 13.0732L8.19536 12.892L8.22377 13.2045H7.93968Z" fill="black"/>
</g>
<rect x="1" y="1" width="30.2" height="21" rx="1" stroke="black" stroke-width="2"/>
<defs>
<clipPath id="clip0_29357_45260">
<rect width="32.2" height="23" rx="2" fill="white"/>
</clipPath>
</defs>
</svg>
