<svg width="25" height="13" viewBox="0 0 25 13" fill="none" xmlns="http://www.w3.org/2000/svg">
<g clip-path="url(#clip0_29357_45260)">
<rect width="25" height="12.037" rx="2" fill="white"/>
<path d="M20.0059 12.0508L20.0059 0.598048" stroke="black"/>
<path d="M10.3376 3.47429C10.3346 3.48215 10.3314 3.4895 10.3294 3.49719C10.3276 3.50369 10.3238 3.50847 10.316 3.50642C10.2849 3.49856 10.2885 3.51599 10.2915 3.53137C10.2997 3.57496 10.2903 3.617 10.2784 3.65921C10.2758 3.66844 10.2722 3.67477 10.2602 3.6734C10.2407 3.67118 10.2411 3.67972 10.2447 3.69186C10.2499 3.70912 10.2547 3.72655 10.258 3.74415C10.2606 3.75817 10.2594 3.77184 10.2435 3.78124C10.2341 3.78688 10.2329 3.79577 10.2321 3.805C10.2309 3.81987 10.2373 3.83371 10.2391 3.85166C10.2152 3.84106 10.2078 3.82243 10.1963 3.80688C10.1915 3.80038 10.1885 3.78825 10.1781 3.79167C10.168 3.79509 10.1739 3.80585 10.1765 3.81337C10.1903 3.85388 10.2038 3.89455 10.218 3.93506C10.2244 3.953 10.2242 3.96907 10.2032 3.97984C10.1889 3.98719 10.1943 3.99795 10.1961 4.00821C10.213 4.10238 10.2301 4.19638 10.2266 4.29209C10.2262 4.30388 10.2329 4.32165 10.2204 4.3261C10.2034 4.33225 10.1893 4.31772 10.1783 4.30678C10.1136 4.24218 10.0627 4.16989 10.0245 4.09144C9.9368 3.91096 9.9079 3.72262 9.92045 3.52813C9.92643 3.43618 9.95075 3.34611 9.95832 3.2545C9.96011 3.23177 9.9633 3.20921 9.96091 3.18631C9.96011 3.17845 9.95991 3.16837 9.94855 3.16683C9.93899 3.16563 9.93062 3.1711 9.92444 3.17777C9.91368 3.18939 9.91428 3.20357 9.91109 3.21708C9.9079 3.23041 9.9073 3.24904 9.88319 3.23041C9.87741 3.22596 9.87063 3.22528 9.86545 3.23024C9.85031 3.24425 9.83357 3.24152 9.81264 3.23092C9.81264 3.26459 9.81284 3.29415 9.81244 3.32372C9.81244 3.32902 9.81583 3.33688 9.80766 3.33876C9.7971 3.34115 9.7973 3.33175 9.79451 3.32629C9.79271 3.32253 9.79231 3.31825 9.79052 3.31449C9.78713 3.30731 9.78912 3.29415 9.77856 3.29484C9.76521 3.29569 9.76501 3.30919 9.76461 3.31825C9.76382 3.34355 9.7682 3.3685 9.77418 3.39328C9.77677 3.40422 9.77757 3.4155 9.77936 3.42815C9.75405 3.42541 9.74688 3.41054 9.7399 3.39533C9.73352 3.38149 9.73253 3.36474 9.712 3.35688C9.69905 3.38798 9.70782 3.41909 9.70443 3.44934C9.70343 3.45908 9.70981 3.47532 9.69685 3.47737C9.68151 3.47959 9.68011 3.46301 9.67513 3.45276C9.66995 3.44199 9.66955 3.42302 9.65361 3.42524C9.64046 3.42712 9.64345 3.44541 9.64305 3.45703C9.64225 3.48352 9.65401 3.50796 9.66118 3.53325C9.66477 3.54573 9.66796 3.55838 9.67234 3.57479C9.66138 3.5712 9.65381 3.56932 9.64683 3.56658C9.62252 3.55718 9.61495 3.56043 9.61993 3.58299C9.62691 3.61478 9.63787 3.64605 9.64863 3.67716C9.65281 3.68946 9.6552 3.69767 9.63528 3.69767C9.61594 3.69767 9.61555 3.70997 9.61634 3.72177C9.61774 3.74159 9.6295 3.75902 9.63587 3.77765C9.64644 3.80825 9.65082 3.83798 9.63129 3.86721C9.62551 3.87592 9.62471 3.88601 9.62591 3.89575C9.6273 3.90737 9.62292 3.91489 9.60897 3.91677C9.59203 3.91916 9.59462 3.92908 9.59681 3.93899C9.6004 3.9554 9.60698 3.97146 9.60578 3.98872C9.59343 3.98975 9.58964 3.9824 9.58605 3.97625C9.53085 3.88276 9.46847 3.79235 9.42084 3.69562C9.33555 3.52266 9.35986 3.35739 9.46967 3.19845C9.50255 3.15076 9.54062 3.10616 9.57848 3.06155C9.60598 3.02908 9.63129 2.99592 9.63687 2.95473C9.63906 2.93798 9.64026 2.9214 9.63029 2.90585C9.61913 2.90859 9.61674 2.91662 9.61276 2.92243C9.60259 2.93713 9.59203 2.94465 9.5737 2.93098C9.55995 2.92072 9.55456 2.92807 9.55177 2.93969C9.54958 2.94841 9.5456 2.95695 9.5448 2.96584C9.54341 2.98293 9.53384 2.99114 9.51391 2.98926C9.49956 2.98789 9.49418 2.99472 9.4896 3.00498C9.47784 3.03232 9.46509 3.05933 9.45094 3.09043C9.44117 3.073 9.4332 3.05881 9.42423 3.04275C9.39414 3.07351 9.39593 3.11436 9.37042 3.147C9.36066 3.13658 9.35209 3.12735 9.34153 3.11607C9.33176 3.13829 9.3214 3.15828 9.31423 3.17896C9.30885 3.19469 9.29968 3.19862 9.28334 3.19229C9.26839 3.18648 9.26341 3.19212 9.26082 3.20426C9.25285 3.24152 9.24368 3.27843 9.23451 3.31723C9.21737 3.308 9.21538 3.29108 9.20004 3.28202C9.18449 3.29911 9.18429 3.31911 9.18529 3.33774C9.18788 3.38234 9.16396 3.4196 9.14384 3.45806C9.14204 3.46147 9.13746 3.46711 9.13527 3.46677C9.10238 3.46147 9.10896 3.48386 9.10757 3.49754C9.10139 3.55496 9.09003 3.61221 9.10039 3.67015C9.10338 3.68741 9.099 3.70382 9.08784 3.7192C9.07727 3.73373 9.0693 3.73117 9.06412 3.71732C9.05456 3.69186 9.04579 3.66605 9.03762 3.64024C9.00613 3.53941 8.98481 3.43686 8.98441 3.33227C8.98381 3.16717 9.05216 3.02685 9.19366 2.91235C9.33196 2.8004 9.48541 2.71068 9.66796 2.6606C9.71479 2.64778 9.76342 2.63941 9.80846 2.62215C9.81523 2.61958 9.82599 2.61804 9.8252 2.61104C9.8244 2.60386 9.81443 2.59839 9.80606 2.59873C9.75046 2.60129 9.69247 2.5866 9.64046 2.61736C9.61515 2.6324 9.58745 2.6377 9.55915 2.61821C9.5456 2.60881 9.47425 2.62215 9.4613 2.63428C9.45253 2.64248 9.44396 2.65103 9.43599 2.65889C9.42463 2.65633 9.42822 2.64915 9.42563 2.64453C9.42184 2.63753 9.42563 2.62608 9.41546 2.62334C9.40331 2.62009 9.39374 2.62881 9.38617 2.63548C9.377 2.64351 9.36983 2.65325 9.36225 2.66265C9.35149 2.67581 9.33993 2.68436 9.3202 2.67393C9.30267 2.6647 9.2943 2.67735 9.28593 2.68675C9.27636 2.69769 9.26739 2.7023 9.25464 2.68982C9.24507 2.68025 9.2385 2.68213 9.23292 2.6941C9.22455 2.71221 9.21359 2.7293 9.20522 2.74742C9.19964 2.75938 9.19286 2.76297 9.18031 2.75477C9.16636 2.74571 9.15639 2.7493 9.14822 2.76161C9.14065 2.77271 9.13029 2.78246 9.1251 2.7951C9.11634 2.8163 9.10039 2.83305 9.08007 2.84723C9.06173 2.86005 9.0438 2.87338 9.03084 2.89081C9.02805 2.89474 9.02267 2.90021 9.01868 2.90004C8.98461 2.89816 8.986 2.92072 8.98102 2.93884C8.97604 2.95695 8.97086 2.97524 8.96647 2.99353C8.96229 3.01147 8.9577 3.02788 8.93339 3.03506C8.91864 3.03933 8.91924 3.05335 8.91944 3.0648C8.92004 3.08343 8.91506 3.10496 8.89313 3.10496C8.86882 3.10496 8.86842 3.08018 8.86942 3.06411C8.88496 2.83065 8.99617 2.6418 9.22614 2.51003C9.38437 2.41945 9.56174 2.37655 9.74967 2.361C9.81663 2.35553 9.88339 2.34835 9.94895 2.33399C9.97147 2.32904 9.9918 2.32169 10.0055 2.29964C9.91607 2.29452 9.83058 2.26734 9.74229 2.29161C9.73133 2.29469 9.71937 2.29947 9.70921 2.29383C9.67752 2.2764 9.65222 2.28905 9.62631 2.30409C9.61874 2.30853 9.60817 2.3181 9.6002 2.30528C9.58964 2.28819 9.57609 2.29058 9.56054 2.2981C9.50534 2.32494 9.44217 2.33605 9.38298 2.34698C9.30048 2.36202 9.24707 2.41347 9.17632 2.44133C9.16735 2.44491 9.15838 2.45722 9.14962 2.44987C9.13905 2.44115 9.1538 2.43244 9.15918 2.42543C9.24667 2.31314 9.35887 2.22222 9.48701 2.14446C9.63149 2.05678 9.79211 2.02534 9.96669 2.03935C10.0516 2.04619 10.1367 2.05371 10.2216 2.05986C10.2373 2.06106 10.262 2.06721 10.2668 2.05234C10.2704 2.04157 10.2461 2.03371 10.2311 2.02961C10.1901 2.01816 10.1582 1.99132 10.1173 1.98039C10.0767 1.96945 10.0368 1.95731 9.99937 1.93971C9.97167 1.92672 9.93381 1.93578 9.91109 1.91083C9.90989 1.90946 9.90391 1.91066 9.90053 1.91185C9.83596 1.93458 9.7668 1.94057 9.69945 1.95304C9.68071 1.95646 9.66477 1.96535 9.64385 1.97321C9.64683 1.94689 9.66397 1.93099 9.68291 1.91732C9.74807 1.87083 9.82679 1.84947 9.9073 1.83358C10.0647 1.80281 10.21 1.82982 10.3447 1.90416C10.3934 1.93099 10.443 1.95629 10.4986 1.97201C10.5155 1.9768 10.5199 1.97543 10.5201 1.95988C10.5213 1.89715 10.5287 1.83494 10.5384 1.77273C10.541 1.75633 10.5474 1.74915 10.5663 1.75069C10.5879 1.7524 10.5944 1.74505 10.5962 1.7259C10.6002 1.67993 10.5922 1.63293 10.6102 1.58798C10.6128 1.58132 10.611 1.5714 10.6215 1.57038C10.6339 1.56935 10.6345 1.58046 10.6383 1.5873C10.6544 1.61618 10.6478 1.64814 10.6536 1.67839C10.6564 1.69275 10.6556 1.70762 10.6574 1.72214C10.659 1.73599 10.6612 1.74898 10.6791 1.75633C10.6923 1.7618 10.6941 1.77444 10.6943 1.78606C10.6947 1.80076 10.6947 1.81529 10.6951 1.82999C10.6959 1.8505 10.6995 1.86947 10.7162 1.88656C10.7339 1.90485 10.7353 1.92826 10.7343 1.9515C10.7327 1.99115 10.7357 1.99423 10.778 1.97851C10.8362 1.9568 10.8918 1.93014 10.9456 1.90126C11.0562 1.84212 11.1748 1.81751 11.3043 1.83717C11.3876 1.84981 11.4629 1.87972 11.5357 1.91544C11.5574 1.92604 11.5735 1.94245 11.5837 1.96244C11.5923 1.97902 11.5861 1.98705 11.565 1.98517C11.5558 1.98432 11.5468 1.98073 11.5379 1.97816C11.4751 1.96073 11.4093 1.94176 11.3459 1.95919C11.2971 1.9727 11.2505 1.98056 11.1997 1.98175C11.1584 1.98278 11.1269 2.00995 11.0877 2.02653C11.1325 2.0561 11.1813 2.05661 11.2304 2.05456C11.2909 2.05183 11.3513 2.04584 11.4119 2.04465C11.5472 2.04191 11.668 2.07832 11.771 2.15317C11.8519 2.21197 11.9305 2.27349 12.0044 2.33895C12.0361 2.36715 12.0606 2.39997 12.0807 2.43859C12.0606 2.43551 12.0464 2.42646 12.0319 2.41911C11.9861 2.39603 11.9384 2.37826 11.8864 2.36561C11.8398 2.35433 11.7947 2.33502 11.7523 2.31349C11.7375 2.30597 11.722 2.29981 11.7053 2.29657C11.6815 2.29212 11.6584 2.28973 11.6453 2.31349C11.6399 2.32323 11.6321 2.32289 11.6226 2.31656C11.612 2.30956 11.6002 2.30409 11.5897 2.29742C11.5757 2.28853 11.5634 2.28187 11.5518 2.30067C11.5444 2.31263 11.5329 2.30494 11.5247 2.30067C11.4962 2.2858 11.4687 2.27298 11.436 2.29452C11.4294 2.29879 11.4157 2.29571 11.4053 2.2952C11.3734 2.29366 11.3428 2.29622 11.3159 2.31314C11.3083 2.31793 11.3005 2.3193 11.2917 2.31639C11.2892 2.31554 11.2864 2.31468 11.2836 2.31434C11.2678 2.3128 11.2345 2.3328 11.2373 2.34408C11.2405 2.35741 11.2581 2.35673 11.2696 2.35792C11.3252 2.36339 11.381 2.36715 11.4366 2.37159C11.549 2.38048 11.6616 2.38783 11.7706 2.41518C12.0417 2.48286 12.2364 2.62351 12.333 2.85475C12.3701 2.94362 12.3784 3.03643 12.3677 3.13453C12.3484 3.11915 12.3406 3.10171 12.3302 3.08616C12.289 3.02395 12.2485 2.96157 12.2079 2.89902C12.1955 2.88005 12.1824 2.86227 12.1537 2.8609C12.1429 2.86039 12.1431 2.85355 12.1415 2.84723C12.1275 2.79015 12.0807 2.75545 12.0289 2.72366C12.0265 2.7223 12.0239 2.72127 12.0213 2.72025C12.0036 2.71358 11.9809 2.71888 11.9663 2.7035C11.9544 2.69102 11.9418 2.67906 11.9293 2.66658C11.9085 2.69222 11.9085 2.69222 11.8854 2.66829C11.8818 2.66453 11.878 2.66077 11.8745 2.65701C11.8497 2.6312 11.8491 2.63086 11.8254 2.65872C11.8185 2.66675 11.8141 2.66863 11.8065 2.6606C11.8005 2.65428 11.7941 2.64829 11.7886 2.64163C11.7772 2.6283 11.7692 2.61719 11.7445 2.63035C11.7264 2.64009 11.6991 2.62898 11.677 2.64197C11.6692 2.64659 11.6564 2.63018 11.6451 2.62471C11.6405 2.62249 11.6365 2.61651 11.6305 2.61958C11.6251 2.62232 11.6259 2.62813 11.6261 2.63274C11.6271 2.65616 11.6427 2.67222 11.6638 2.68436C11.7433 2.73016 11.8226 2.77596 11.903 2.82074C12.008 2.87936 12.1036 2.94584 12.1666 3.04172C12.2376 3.14957 12.2571 3.26647 12.2539 3.38764C12.2507 3.51087 12.2164 3.62879 12.1724 3.74518C12.1658 3.76227 12.16 3.75919 12.1489 3.74928C12.126 3.72912 12.1268 3.70553 12.1339 3.68092C12.1369 3.67066 12.1415 3.66075 12.1467 3.65118C12.1543 3.63734 12.1507 3.62725 12.1343 3.62178C12.1166 3.6158 12.1144 3.60435 12.1158 3.59017C12.1174 3.57393 12.1174 3.55769 12.1188 3.54146C12.1202 3.52608 12.122 3.51189 12.0947 3.51582C12.0841 3.51736 12.0835 3.50933 12.0835 3.50249C12.0835 3.47839 12.0753 3.45635 12.065 3.43413C12.0536 3.40952 12.0648 3.38269 12.0584 3.35705C12.0546 3.34218 12.0538 3.32663 12.0518 3.31159C12.048 3.31159 12.0458 3.31107 12.0442 3.31159C12.0054 3.32765 12.0054 3.32782 12.0016 3.29039C12.0004 3.27911 11.998 3.26766 11.998 3.25638C11.9982 3.23314 11.9932 3.21656 11.9588 3.22562C11.9452 3.22921 11.9442 3.21947 11.942 3.21126C11.934 3.18084 11.9253 3.15042 11.9157 3.11573C11.9018 3.13316 11.891 3.14666 11.8772 3.16392C11.8623 3.12513 11.8489 3.09026 11.8348 3.05335C11.828 3.05847 11.8236 3.06121 11.8198 3.06445C11.7886 3.0906 11.7886 3.0906 11.7714 3.05471C11.7656 3.04275 11.7593 3.03079 11.7547 3.01848C11.7487 3.00207 11.7413 2.99079 11.7172 2.98874C11.6953 2.98686 11.6873 2.96755 11.6796 2.952C11.6732 2.93952 11.667 2.93251 11.6483 2.93491C11.621 2.9385 11.6018 2.92551 11.5869 2.90654C11.5783 2.89577 11.5689 2.87629 11.553 2.88363C11.5359 2.8915 11.5436 2.91064 11.5498 2.92602C11.565 2.96396 11.5972 2.99233 11.624 3.02361C11.6784 3.08719 11.7399 3.14632 11.7862 3.21485C11.8816 3.35671 11.895 3.50693 11.8444 3.66263C11.8077 3.77526 11.7441 3.87627 11.663 3.96975C11.6515 3.98308 11.6401 3.99727 11.6172 4.0053C11.6188 3.99146 11.619 3.98035 11.6214 3.96958C11.6251 3.95232 11.6323 3.93472 11.5986 3.93557C11.5889 3.93574 11.5903 3.92908 11.5927 3.92292C11.5972 3.91062 11.6014 3.89814 11.6054 3.8855C11.6088 3.87524 11.6132 3.86225 11.6056 3.85456C11.5813 3.82927 11.5955 3.80585 11.6062 3.78175C11.6142 3.76347 11.6214 3.74501 11.6297 3.72672C11.6365 3.71185 11.6313 3.70673 11.6138 3.71049C11.5933 3.71476 11.5897 3.70895 11.5945 3.69186C11.6056 3.65186 11.6142 3.61136 11.624 3.57137C11.606 3.56573 11.5915 3.59017 11.5805 3.57632C11.5733 3.56727 11.5805 3.54966 11.5815 3.53599C11.5827 3.52061 11.5839 3.5054 11.5853 3.48831C11.5662 3.49207 11.5612 3.50881 11.5414 3.5177C11.5414 3.46865 11.5414 3.42302 11.5414 3.37551C11.5157 3.38063 11.5153 3.39772 11.5072 3.40935C11.5044 3.41328 11.5036 3.41977 11.4968 3.41994C11.4884 3.42028 11.4866 3.41328 11.4848 3.40832C11.4787 3.39106 11.4803 3.37294 11.4787 3.35517C11.4765 3.32987 11.4733 3.32765 11.4494 3.34013C11.4346 3.34782 11.4338 3.34133 11.4324 3.33193C11.43 3.31501 11.4273 3.29809 11.4251 3.28099C11.4235 3.26954 11.4203 3.26083 11.4043 3.26972C11.3874 3.27911 11.3814 3.27057 11.376 3.25844C11.3635 3.23058 11.3422 3.2099 11.3083 3.19964C11.2911 3.19452 11.2822 3.1952 11.2854 3.21502C11.2967 3.2851 11.3087 3.35517 11.3165 3.42558C11.3382 3.6223 11.3294 3.81713 11.2569 4.00684C11.2216 4.09913 11.1716 4.18561 11.1094 4.26696C11.0875 4.29567 11.06 4.32011 11.0295 4.34199C11.0201 4.33652 11.0249 4.32934 11.0245 4.32353C11.0207 4.22919 11.0365 4.13451 11.0269 4.04068C11.0197 3.97129 11.0319 3.90857 11.0636 3.84653C11.065 3.84379 11.0652 3.84072 11.0667 3.83508C11.0333 3.83884 11.0253 3.86652 10.9984 3.88122C10.9962 3.84619 10.9938 3.8144 10.992 3.78244C10.9908 3.7621 10.9906 3.74176 10.9896 3.72142C10.9878 3.68707 10.9824 3.65494 10.9567 3.62537C10.9231 3.58641 10.929 3.53684 10.9193 3.49155C10.9179 3.48557 10.9223 3.47686 10.9143 3.47395C10.9049 3.47053 10.8995 3.47925 10.8932 3.48369C10.8575 3.5095 10.8557 3.54812 10.8425 3.58248C10.8083 3.67169 10.8139 3.76381 10.8178 3.85576C10.8232 3.9824 10.8272 4.10921 10.8328 4.23603C10.8463 4.5464 10.8551 4.85694 10.8571 5.16765C10.8579 5.27344 10.8595 5.37906 10.8641 5.48485C10.8675 5.56005 10.8876 5.63269 10.9263 5.70105C10.9631 5.76616 10.9655 5.83196 10.9322 5.89913C10.8908 5.98271 10.9029 6.06337 10.9573 6.13926C10.997 6.19463 11.0412 6.24761 11.0833 6.30162C11.097 6.31922 11.1104 6.33717 11.1184 6.35733C11.1367 6.40297 11.1164 6.43647 11.0622 6.44894C11.0024 6.46279 10.9414 6.47065 10.8796 6.4715C10.705 6.47372 10.5305 6.47663 10.3559 6.47253C10.2959 6.47116 10.2369 6.46296 10.1797 6.44775C10.1235 6.43288 10.1052 6.39955 10.1279 6.35289C10.1508 6.30606 10.1865 6.26573 10.2204 6.22454C10.281 6.15088 10.3256 6.07226 10.3276 5.97963C10.3286 5.93741 10.32 5.89708 10.2985 5.85914C10.271 5.81077 10.2722 5.76326 10.3035 5.71694C10.3579 5.63662 10.3667 5.54757 10.3706 5.45785C10.382 5.1979 10.3878 4.9376 10.3938 4.67748C10.3987 4.4565 10.4133 4.23569 10.4225 4.0147C10.428 3.87729 10.4209 3.73988 10.4159 3.60247C10.4145 3.55462 10.3794 3.50078 10.3376 3.47429Z" fill="#127043"/>
<path d="M14.3641 5.99352C14.3208 6.00326 14.28 6.00343 14.2395 6.00668C14.0506 6.02138 13.8615 6.03214 13.6733 6.05453C13.4292 6.08359 13.1865 6.11965 12.9473 6.17178C12.7337 6.21826 12.5276 6.28304 12.3258 6.35875C12.0755 6.45292 11.8315 6.55717 11.6069 6.69185C11.4096 6.81012 11.2355 6.95163 11.0659 7.09741C11.0264 7.13142 10.9876 7.16595 10.9497 7.20115C10.9214 7.2273 10.9208 7.23414 10.9461 7.262C11.0202 7.34437 11.095 7.42624 11.1703 7.50776C11.2781 7.62449 11.3975 7.73251 11.5157 7.8412C11.5312 7.85539 11.5487 7.86787 11.5649 7.88154C11.579 7.89367 11.5862 7.88974 11.5922 7.87521C11.6211 7.80565 11.6508 7.7361 11.6801 7.66671C11.6924 7.63765 11.706 7.60928 11.7257 7.58296C11.7717 7.52126 11.8411 7.50537 11.914 7.54297C11.9872 7.58074 12.0212 7.63748 12.0153 7.71097C12.0127 7.74379 11.9886 7.76669 11.9443 7.77489C11.8397 7.7942 11.7923 7.8571 11.7713 7.93948C11.7524 8.01416 11.7713 8.08013 11.8351 8.13704C11.8953 8.19054 11.9571 8.24164 12.0308 8.28112C12.095 8.31547 12.1101 8.31188 12.1438 8.25429C12.1633 8.22079 12.1835 8.18746 12.2173 8.16251C12.3026 8.09962 12.4346 8.08611 12.5366 8.19003C12.6141 8.26899 12.6343 8.36247 12.6225 8.46228C12.6149 8.5262 12.587 8.58414 12.5384 8.63268C12.4593 8.71181 12.3543 8.72907 12.2391 8.71899C12.1179 8.70839 12.0171 8.65831 11.9188 8.6014C11.8072 8.5368 11.694 8.47425 11.5814 8.41118C11.5475 8.39221 11.5466 8.39289 11.5171 8.41785C11.4483 8.47613 11.3867 8.5409 11.311 8.59269C11.2104 8.66156 11.0559 8.65524 10.9736 8.57816C10.8879 8.49783 10.8831 8.37615 11.0061 8.29069C11.0266 8.27651 11.0503 8.27616 11.073 8.28676C11.1129 8.30539 11.1514 8.32641 11.192 8.34384C11.2452 8.36675 11.2992 8.35547 11.3377 8.31633C11.3616 8.29206 11.3652 8.2654 11.3505 8.23686C11.3241 8.1861 11.2795 8.14696 11.2369 8.10679C11.0519 7.9323 10.8668 7.75831 10.6815 7.58416C10.6637 7.56741 10.6468 7.54194 10.6231 7.54041C10.6003 7.53887 10.5846 7.56604 10.5665 7.58091C10.4048 7.71388 10.2568 7.85778 10.1105 8.00305C10.0547 8.05843 9.99969 8.11431 9.94409 8.16986C9.92536 8.18849 9.90962 8.20866 9.89865 8.23139C9.88251 8.26437 9.8863 8.29531 9.9148 8.32214C9.94469 8.35034 9.98116 8.36196 10.0252 8.35C10.0635 8.33974 10.0965 8.32009 10.132 8.30471C10.1472 8.29804 10.1623 8.29138 10.1781 8.28591C10.2042 8.27685 10.2291 8.27992 10.2496 8.29633C10.3114 8.34572 10.3337 8.40793 10.3213 8.47801C10.3084 8.55098 10.2663 8.60926 10.1804 8.63251C10.1003 8.65421 10.025 8.63268 9.95346 8.60072C9.87673 8.56637 9.82113 8.51219 9.76892 8.45476C9.75318 8.4375 9.73504 8.42178 9.72029 8.40383C9.70913 8.39016 9.69917 8.39221 9.68482 8.39888C9.60471 8.4363 9.53277 8.48433 9.45724 8.52791C9.3833 8.57047 9.31335 8.61832 9.23443 8.65438C9.14236 8.69643 9.04412 8.71745 8.93909 8.7142C8.7986 8.70993 8.69317 8.63832 8.64415 8.5127C8.59373 8.38367 8.63757 8.24728 8.75794 8.15875C8.8538 8.08834 8.97716 8.09893 9.05567 8.18422C9.08338 8.2143 9.10669 8.24677 9.13061 8.2789C9.15293 8.30864 9.1593 8.31137 9.19418 8.29428C9.2994 8.24318 9.38788 8.17482 9.46242 8.09346C9.48733 8.06646 9.49211 8.03365 9.48155 8.00066C9.4664 7.95366 9.44907 7.90734 9.43332 7.86052C9.41977 7.82052 9.39048 7.79455 9.34364 7.78292C9.33727 7.78139 9.33129 7.77899 9.32491 7.77728C9.2452 7.75575 9.22427 7.72618 9.23902 7.65491C9.25715 7.56758 9.3554 7.51186 9.45445 7.53254C9.49988 7.54211 9.52898 7.56655 9.54412 7.60364C9.57641 7.6826 9.6081 7.76173 9.64038 7.84069C9.6621 7.89418 9.67486 7.89692 9.7191 7.85505C9.91799 7.66619 10.1101 7.47221 10.291 7.27054C10.3152 7.24354 10.3144 7.23722 10.2912 7.20782C10.2408 7.14373 10.1741 7.0928 10.1103 7.03965C9.96123 6.9154 9.80419 6.79952 9.63839 6.69168C9.49072 6.59563 9.3265 6.52521 9.1611 6.45634C8.97357 6.37823 8.78245 6.30679 8.58576 6.24749C8.32429 6.16853 8.05865 6.10393 7.78363 6.07026C7.62121 6.05043 7.458 6.03693 7.29498 6.02138C7.20251 6.01249 7.11044 6.00189 7.01817 5.99181C7.00781 5.99061 6.99725 5.98959 6.98828 5.97899C7.01957 5.96737 7.05245 5.96498 7.08414 5.96361C7.35497 5.95165 7.6244 5.92293 7.89623 5.92601C8.21489 5.9296 8.53036 5.95558 8.84045 6.02104C9.05009 6.0653 9.25098 6.13025 9.44528 6.2104C9.63839 6.29022 9.82871 6.37396 10.0033 6.4818C10.1529 6.57409 10.2928 6.6763 10.4262 6.78516C10.4804 6.82943 10.5348 6.87369 10.586 6.92035C10.6069 6.93949 10.6205 6.93625 10.639 6.92155C10.7018 6.87199 10.7657 6.82345 10.8275 6.77303C11.0898 6.55922 11.3811 6.38114 11.7056 6.24304C11.9073 6.15708 12.1167 6.08889 12.3329 6.0359C12.5617 5.97968 12.7953 5.94874 13.0326 5.93524C13.2592 5.92242 13.4856 5.9284 13.712 5.93832C13.8322 5.94361 13.9525 5.94754 14.0727 5.95506C14.1586 5.96053 14.2443 5.97079 14.33 5.97916C14.3403 5.98104 14.3519 5.98258 14.3641 5.99352ZM12.2608 8.55355C12.2722 8.55355 12.2835 8.55406 12.2949 8.55338C12.3909 8.54757 12.4457 8.51253 12.4679 8.44297C12.4856 8.38725 12.4531 8.30795 12.3985 8.27463C12.3513 8.24574 12.2917 8.2654 12.2672 8.31923C12.2508 8.35495 12.2415 8.39204 12.2389 8.43084C12.2365 8.46912 12.2179 8.48091 12.1739 8.47681C12.1558 8.4751 12.139 8.46946 12.1221 8.46433C12.0173 8.43289 11.9336 8.37615 11.8582 8.30778C11.8166 8.27001 11.7705 8.23583 11.7273 8.19943C11.712 8.18661 11.704 8.18934 11.6942 8.20421C11.6711 8.23891 11.6735 8.26813 11.7052 8.29787C11.7558 8.34521 11.81 8.38948 11.8708 8.42742C11.9872 8.50022 12.1141 8.54996 12.2608 8.55355ZM8.78624 8.40383C8.78624 8.50398 8.83746 8.55423 8.95045 8.55748C9.06245 8.56073 9.16867 8.53492 9.26592 8.48724C9.37274 8.43477 9.46003 8.36025 9.5517 8.2912C9.57661 8.2724 9.58039 8.2466 9.56904 8.21942C9.55748 8.19174 9.55429 8.19003 9.52639 8.20558C9.51224 8.21361 9.49849 8.2225 9.48573 8.23224C9.40702 8.29206 9.3283 8.35171 9.25058 8.41255C9.20295 8.44981 9.14894 8.47066 9.08417 8.47237C9.03216 8.47373 9.01562 8.46245 9.00884 8.41887C9.00386 8.38743 8.99689 8.35632 8.9919 8.32487C8.98652 8.29001 8.9648 8.26796 8.92454 8.26147C8.8823 8.25463 8.84722 8.26659 8.82271 8.29684C8.79581 8.32983 8.78843 8.36828 8.78624 8.40383ZM11.0986 8.38401C11.0746 8.38384 11.0595 8.39443 11.0511 8.41289C11.034 8.45066 11.0549 8.49373 11.0974 8.51168C11.1747 8.54449 11.2486 8.53423 11.3132 8.49134C11.3971 8.43562 11.4632 8.36623 11.5061 8.28112C11.5824 8.1297 11.6607 7.97913 11.7389 7.82856C11.7598 7.78805 11.7905 7.75455 11.8413 7.73883C11.8582 7.73353 11.8696 7.72276 11.8804 7.71148C11.9041 7.6867 11.8985 7.65731 11.866 7.63218C11.8383 7.61065 11.807 7.61167 11.7809 7.63594C11.7548 7.66021 11.7385 7.68978 11.7249 7.7202C11.6669 7.85077 11.6093 7.98135 11.5525 8.11243C11.5089 8.21327 11.4483 8.30522 11.3648 8.38589C11.3307 8.41887 11.2887 8.43049 11.2393 8.42058C11.2181 8.41631 11.1982 8.4081 11.1777 8.40195C11.1522 8.39426 11.1267 8.38469 11.0986 8.38401ZM10.0724 8.52603C10.0959 8.52689 10.1448 8.51219 10.1621 8.49903C10.1904 8.47784 10.2016 8.43049 10.1846 8.40486C10.1703 8.38332 10.147 8.38059 10.0979 8.39426C10.0665 8.40298 10.035 8.41204 10.0029 8.41904C9.95366 8.42964 9.91101 8.4187 9.87633 8.38657C9.84983 8.36196 9.82651 8.3353 9.81057 8.30453C9.72268 8.13705 9.63321 7.97041 9.55827 7.79831C9.53396 7.74259 9.50586 7.68858 9.46381 7.64056C9.44946 7.62415 9.43153 7.61509 9.40761 7.61954C9.38151 7.62449 9.36397 7.63799 9.35819 7.66141C9.34982 7.69542 9.36417 7.72225 9.40323 7.73661C9.46262 7.75831 9.50227 7.7954 9.52659 7.84548C9.58617 7.96768 9.64656 8.08953 9.70375 8.21259C9.74899 8.30983 9.80599 8.39905 9.90204 8.46707C9.95147 8.5021 10.0075 8.52313 10.0724 8.52603ZM11.4854 8.01536C11.4852 7.99673 11.4728 7.97913 11.4553 7.9634C11.3606 7.87812 11.2666 7.79232 11.1715 7.70738C11.1362 7.67576 11.1033 7.64175 11.0615 7.61595C11.0521 7.61014 11.0408 7.60655 11.0328 7.61253C11.0248 7.61851 11.0366 7.62483 11.0396 7.63099C11.0422 7.63611 11.0459 7.6409 11.0499 7.64551C11.1637 7.78344 11.2777 7.92119 11.3917 8.05911C11.4017 8.07125 11.4134 8.0815 11.4294 8.08799C11.4375 8.09124 11.4465 8.09415 11.4519 8.08577C11.4658 8.06458 11.4838 8.04493 11.4854 8.01536ZM10.1928 7.61458C10.1872 7.61099 10.1844 7.61373 10.181 7.61492C10.1442 7.62757 10.1213 7.65389 10.0957 7.67782C9.99272 7.77421 9.88989 7.8706 9.78686 7.96699C9.7737 7.9793 9.76414 7.99314 9.75995 8.00938C9.75298 8.03621 9.7737 8.06919 9.80718 8.07996C9.83309 8.08834 9.83588 8.06236 9.85103 8.05415C9.85182 8.05381 9.85222 8.05296 9.85282 8.05227C9.96263 7.93384 10.0615 7.80907 10.1533 7.68004C10.1685 7.65902 10.1842 7.63799 10.1928 7.61458Z" fill="#A67C1D"/>
<path d="M21.8945 2.60456C21.8937 2.60654 21.8928 2.60838 21.8922 2.61035C21.8917 2.61198 21.8907 2.61318 21.8886 2.61269C21.8801 2.61071 21.8811 2.61509 21.8819 2.61898C21.8841 2.62993 21.8815 2.64054 21.8783 2.65114C21.8776 2.65347 21.8766 2.6551 21.8733 2.65475C21.868 2.65418 21.8682 2.65637 21.8691 2.65941C21.8706 2.66379 21.8719 2.66818 21.8728 2.67256C21.8735 2.67609 21.8732 2.67949 21.8689 2.68189C21.8663 2.6833 21.866 2.68557 21.8659 2.6879C21.8655 2.69164 21.8673 2.69511 21.8677 2.69963C21.8612 2.69695 21.8592 2.69228 21.856 2.68832C21.8547 2.6867 21.8539 2.68366 21.8511 2.6845C21.8484 2.68535 21.85 2.68804 21.8507 2.68995C21.8544 2.7002 21.8581 2.71038 21.862 2.72056C21.8637 2.72508 21.8637 2.72911 21.858 2.73186C21.8541 2.7337 21.8556 2.73639 21.856 2.739C21.8607 2.76268 21.8653 2.78636 21.8643 2.81047C21.8642 2.81344 21.866 2.81789 21.8626 2.81902C21.858 2.82058 21.8542 2.8169 21.8511 2.81414C21.8335 2.79789 21.8197 2.77965 21.8093 2.75993C21.7854 2.71448 21.7775 2.66705 21.7809 2.61806C21.7825 2.59487 21.7891 2.57225 21.7912 2.54914C21.7918 2.54341 21.7926 2.53769 21.792 2.53196C21.7917 2.52998 21.7917 2.52744 21.7886 2.52709C21.786 2.52673 21.7837 2.52815 21.782 2.52984C21.779 2.53274 21.7792 2.53635 21.7783 2.53974C21.7774 2.54313 21.7773 2.5478 21.7707 2.54313C21.7691 2.542 21.7674 2.54186 21.7659 2.54306C21.7618 2.5466 21.7573 2.54589 21.7515 2.5432C21.7515 2.55168 21.7515 2.55911 21.7515 2.5666C21.7515 2.56794 21.7524 2.56992 21.7502 2.57035C21.7473 2.57091 21.7473 2.56858 21.7466 2.56716C21.7461 2.56625 21.746 2.56519 21.7455 2.5642C21.7446 2.56243 21.7452 2.55911 21.7423 2.55925C21.7387 2.55946 21.7386 2.56285 21.7386 2.56519C21.7384 2.57155 21.7395 2.57784 21.7412 2.58406C21.7419 2.58682 21.742 2.58964 21.7426 2.59282C21.7357 2.59212 21.7338 2.58844 21.7318 2.58455C21.7301 2.58109 21.7298 2.57685 21.7242 2.57487C21.7207 2.58272 21.7231 2.59049 21.7222 2.59813C21.7219 2.6006 21.7237 2.6047 21.7201 2.60519C21.7159 2.60576 21.7156 2.60159 21.7142 2.59897C21.7128 2.59629 21.7127 2.59148 21.7083 2.59205C21.7048 2.59247 21.7056 2.59714 21.7055 2.60003C21.7052 2.60675 21.7084 2.6129 21.7104 2.61919C21.7114 2.6223 21.7123 2.62548 21.7134 2.62965C21.7104 2.62873 21.7084 2.62824 21.7065 2.6276C21.6998 2.62527 21.6977 2.62605 21.6992 2.6317C21.701 2.63969 21.7041 2.64761 21.7069 2.65545C21.7081 2.65856 21.7087 2.66061 21.7033 2.66061C21.698 2.66061 21.6979 2.66372 21.6981 2.66669C21.6985 2.67171 21.7017 2.67609 21.7034 2.68076C21.7063 2.68846 21.7075 2.69596 21.7022 2.70331C21.7007 2.7055 21.7004 2.70804 21.7007 2.71052C21.701 2.71342 21.6999 2.71532 21.696 2.71582C21.6914 2.71646 21.6921 2.71893 21.6928 2.7214C21.6937 2.72557 21.6955 2.7296 21.6952 2.73392C21.6918 2.7342 21.6908 2.73229 21.6897 2.73073C21.6747 2.7072 21.6577 2.68443 21.6447 2.66005C21.6214 2.6165 21.628 2.57487 21.658 2.53486C21.667 2.52284 21.6773 2.51161 21.6876 2.50037C21.6951 2.49217 21.7019 2.48383 21.7034 2.47343C21.7041 2.46919 21.7043 2.46502 21.7017 2.46113C21.6986 2.46184 21.698 2.46382 21.6969 2.46531C21.6941 2.46898 21.6912 2.47089 21.6862 2.46743C21.6824 2.46481 21.6809 2.46665 21.6802 2.46962C21.6796 2.47181 21.6785 2.474 21.6783 2.47619C21.678 2.4805 21.6753 2.48255 21.6699 2.48206C21.666 2.4817 21.6645 2.4834 21.6633 2.48602C21.6601 2.49287 21.6567 2.49973 21.6528 2.50758C21.6501 2.50319 21.648 2.49959 21.6455 2.49556C21.6373 2.50333 21.6378 2.51358 21.6309 2.52178C21.6282 2.51917 21.6259 2.51684 21.623 2.51401C21.6204 2.51959 21.6175 2.52461 21.6156 2.52984C21.6142 2.5338 21.6117 2.53479 21.6073 2.53324C21.6032 2.53175 21.6018 2.53316 21.6011 2.53627C21.5989 2.54561 21.5964 2.55494 21.594 2.56469C21.5894 2.56236 21.5888 2.55812 21.5846 2.55578C21.5804 2.5601 21.5804 2.56512 21.5806 2.56985C21.5813 2.58109 21.5748 2.59042 21.5694 2.60011C21.5689 2.60095 21.5677 2.60237 21.5671 2.6023C21.5581 2.60095 21.5599 2.60661 21.5595 2.61C21.5578 2.62442 21.5548 2.63884 21.5575 2.65347C21.5583 2.65779 21.5572 2.66196 21.5541 2.66584C21.5513 2.66952 21.5491 2.66881 21.5476 2.66535C21.5451 2.65892 21.5426 2.65241 21.5404 2.64591C21.5319 2.62053 21.5261 2.59466 21.5259 2.56837C21.5257 2.5268 21.5443 2.49146 21.5828 2.46262C21.6206 2.43442 21.6623 2.4118 21.712 2.39921C21.7248 2.39596 21.7379 2.39391 21.7503 2.38953C21.7522 2.38889 21.7551 2.38847 21.7549 2.38677C21.7546 2.38501 21.7519 2.38359 21.7496 2.38366C21.7345 2.3843 21.7187 2.38062 21.7045 2.38833C21.6976 2.39207 21.6901 2.39342 21.6823 2.38854C21.6787 2.38621 21.6592 2.38953 21.6557 2.39257C21.6533 2.39462 21.6509 2.39681 21.6488 2.39879C21.6458 2.39815 21.6467 2.39632 21.646 2.39518C21.6449 2.39342 21.646 2.39052 21.6432 2.38988C21.6399 2.38903 21.6373 2.39123 21.6352 2.39292C21.6327 2.3949 21.6307 2.39738 21.6287 2.39978C21.6257 2.4031 21.6226 2.40522 21.6172 2.40261C21.6124 2.40027 21.6101 2.40345 21.6078 2.40586C21.6052 2.40861 21.6027 2.40982 21.5993 2.40664C21.5968 2.40423 21.595 2.40473 21.5935 2.4077C21.5911 2.41222 21.5882 2.4166 21.5859 2.42113C21.5844 2.42417 21.5825 2.42501 21.5791 2.42296C21.5753 2.4207 21.5726 2.42162 21.5704 2.42466C21.5683 2.42749 21.5655 2.42989 21.564 2.43307C21.5616 2.43837 21.5574 2.44262 21.5517 2.44622C21.5467 2.4494 21.5418 2.45279 21.5383 2.45718C21.5375 2.45817 21.5361 2.45951 21.535 2.45951C21.5257 2.45901 21.5261 2.46474 21.5247 2.46926C21.5234 2.47386 21.522 2.47838 21.5207 2.48305C21.5196 2.48757 21.5183 2.49167 21.5117 2.49351C21.5077 2.49457 21.5079 2.4981 21.5079 2.501C21.5081 2.50567 21.5066 2.51111 21.5007 2.51111C21.4941 2.51111 21.4939 2.50482 21.4942 2.50086C21.4984 2.44205 21.5287 2.39448 21.5914 2.36133C21.6345 2.33849 21.6829 2.32775 21.7339 2.32379C21.7522 2.32238 21.7704 2.32061 21.7882 2.317C21.7944 2.3158 21.7999 2.31389 21.8036 2.30838C21.7792 2.30711 21.7559 2.30025 21.7319 2.30633C21.7289 2.30711 21.7256 2.30831 21.7229 2.3069C21.7142 2.30251 21.7074 2.30569 21.7003 2.30951C21.6983 2.31064 21.6954 2.31305 21.6932 2.30987C21.6903 2.30555 21.6866 2.30612 21.6824 2.30803C21.6674 2.31481 21.6502 2.31757 21.634 2.32033C21.6115 2.32414 21.5969 2.33708 21.5778 2.34408C21.5754 2.34493 21.5729 2.34811 21.5705 2.34627C21.5676 2.34408 21.5716 2.34189 21.573 2.34012C21.5968 2.31184 21.6274 2.28894 21.6624 2.26936C21.7018 2.24731 21.7454 2.23939 21.7929 2.24293C21.8161 2.24462 21.8392 2.24653 21.8624 2.24809C21.8667 2.24837 21.8733 2.24992 21.8747 2.24625C21.8757 2.24356 21.8691 2.24158 21.865 2.24052C21.8538 2.23762 21.8451 2.23091 21.8339 2.22815C21.8229 2.22539 21.812 2.22236 21.8018 2.2179C21.7942 2.21458 21.7839 2.21691 21.7777 2.21062C21.7773 2.21027 21.7757 2.21055 21.7748 2.21083C21.7573 2.21656 21.7385 2.21804 21.7201 2.22122C21.715 2.22207 21.7107 2.22433 21.705 2.22631C21.7058 2.21967 21.7104 2.21564 21.7156 2.21225C21.7333 2.20051 21.7547 2.19514 21.7767 2.19118C21.8196 2.18341 21.8592 2.19026 21.8958 2.209C21.9091 2.21578 21.9225 2.22214 21.9377 2.2261C21.9423 2.2273 21.9435 2.22695 21.9436 2.22306C21.9439 2.2073 21.9459 2.19161 21.9486 2.17598C21.9493 2.17189 21.9511 2.17005 21.9561 2.1704C21.962 2.17082 21.9638 2.16899 21.9643 2.16418C21.9653 2.15259 21.9632 2.14078 21.9681 2.12947C21.9688 2.12778 21.9684 2.1253 21.9712 2.12502C21.9746 2.12474 21.9747 2.12756 21.9758 2.12926C21.9801 2.13654 21.9783 2.1446 21.9799 2.15223C21.9807 2.15584 21.9805 2.15959 21.9809 2.16326C21.9814 2.16672 21.982 2.17005 21.9868 2.17189C21.9904 2.17323 21.9908 2.17641 21.9909 2.17938C21.991 2.18305 21.991 2.18673 21.9912 2.19048C21.9914 2.19564 21.9924 2.20044 21.9969 2.20475C22.0017 2.20935 22.0021 2.21529 22.0018 2.22115C22.0013 2.23112 22.0021 2.2319 22.0136 2.22794C22.0295 2.2225 22.0446 2.21571 22.0593 2.2085C22.0894 2.19359 22.1217 2.18744 22.157 2.19238C22.1796 2.19556 22.2002 2.20313 22.22 2.21211C22.2259 2.21479 22.2303 2.21889 22.2331 2.22391C22.2354 2.22808 22.2337 2.23013 22.228 2.22964C22.2255 2.22942 22.2231 2.2285 22.2206 2.22787C22.2035 2.22349 22.1856 2.21868 22.1683 2.22313C22.155 2.22653 22.1423 2.2285 22.1284 2.22879C22.1172 2.229 22.1087 2.23593 22.098 2.2401C22.1102 2.24759 22.1235 2.24766 22.1368 2.24717C22.1533 2.24646 22.1698 2.24497 22.1863 2.24469C22.2231 2.24399 22.2561 2.25317 22.2841 2.27198C22.3061 2.28682 22.3275 2.30223 22.3476 2.31877C22.3563 2.32584 22.363 2.33411 22.3684 2.34387C22.3629 2.34309 22.359 2.34083 22.3551 2.33899C22.3426 2.33319 22.3296 2.32874 22.3155 2.32556C22.3028 2.32273 22.2906 2.31785 22.279 2.31241C22.275 2.3105 22.2708 2.30895 22.2662 2.30817C22.2597 2.30704 22.2534 2.3064 22.2498 2.31241C22.2483 2.31488 22.2463 2.31474 22.2437 2.31319C22.2408 2.31142 22.2376 2.31008 22.2347 2.30838C22.2309 2.30612 22.2276 2.30449 22.2244 2.30916C22.2224 2.31213 22.2192 2.31022 22.217 2.30916C22.2092 2.30541 22.2017 2.30216 22.1928 2.3076C22.191 2.30866 22.1873 2.30789 22.1844 2.30782C22.1757 2.30746 22.1674 2.3081 22.1601 2.31234C22.158 2.31354 22.1559 2.31389 22.1536 2.31319C22.1529 2.31298 22.1521 2.31276 22.1514 2.31269C22.1471 2.31234 22.138 2.31736 22.1388 2.32019C22.1397 2.32358 22.1444 2.32337 22.1476 2.32365C22.1628 2.32499 22.1779 2.32598 22.1931 2.32711C22.2236 2.32937 22.2544 2.33121 22.2841 2.33807C22.3579 2.35511 22.4109 2.39052 22.4372 2.44876C22.4473 2.47117 22.4496 2.4945 22.4467 2.51924C22.4414 2.51535 22.4393 2.51097 22.4365 2.50708C22.4253 2.49146 22.4142 2.4757 22.4032 2.45993C22.3998 2.45513 22.3962 2.45067 22.3884 2.45032C22.3854 2.45018 22.3855 2.44848 22.3851 2.44686C22.3813 2.43251 22.3685 2.42374 22.3544 2.41575C22.3538 2.4154 22.3531 2.41512 22.3524 2.41491C22.3475 2.41321 22.3414 2.41455 22.3374 2.41074C22.3342 2.40755 22.3307 2.40459 22.3273 2.40148C22.3217 2.40791 22.3217 2.40791 22.3154 2.4019C22.3144 2.40098 22.3134 2.39999 22.3124 2.39907C22.3056 2.39257 22.3056 2.3925 22.299 2.3995C22.2972 2.40155 22.2959 2.40197 22.2939 2.39992C22.2923 2.39829 22.2905 2.39681 22.289 2.39518C22.2859 2.39179 22.2837 2.38903 22.277 2.39236C22.272 2.39483 22.2646 2.392 22.2586 2.39525C22.2564 2.39639 22.253 2.39229 22.2498 2.39094C22.2486 2.39038 22.2475 2.38889 22.2458 2.38967C22.2444 2.39031 22.2446 2.39179 22.2447 2.39299C22.2449 2.39886 22.2491 2.40296 22.2549 2.406C22.2766 2.41752 22.2982 2.42904 22.32 2.44035C22.3486 2.45513 22.3746 2.47188 22.3918 2.49598C22.4112 2.52313 22.4164 2.5526 22.4156 2.58314C22.4147 2.61417 22.4055 2.64386 22.3934 2.6732C22.3917 2.67751 22.3901 2.67673 22.387 2.67418C22.3808 2.6691 22.3811 2.66316 22.3829 2.65701C22.3837 2.65446 22.385 2.65192 22.3864 2.64952C22.3885 2.64605 22.3875 2.64351 22.383 2.64209C22.3782 2.64061 22.3776 2.63771 22.378 2.63411C22.3785 2.63001 22.3785 2.62591 22.3788 2.62181C22.3792 2.61792 22.3797 2.61438 22.3723 2.61537C22.3695 2.61573 22.3693 2.61375 22.3693 2.61198C22.3693 2.6059 22.3671 2.60039 22.3642 2.5948C22.3611 2.58858 22.3641 2.5818 22.3624 2.57536C22.3614 2.57162 22.3612 2.56773 22.3606 2.56391C22.3596 2.56391 22.359 2.56377 22.3586 2.56391C22.348 2.56801 22.348 2.56801 22.347 2.55854C22.3467 2.55571 22.346 2.55282 22.346 2.54999C22.346 2.54412 22.3447 2.53995 22.3353 2.54228C22.3317 2.5432 22.3314 2.54073 22.3308 2.53868C22.3286 2.53104 22.3262 2.52334 22.3236 2.51457C22.3199 2.51896 22.317 2.52235 22.3132 2.52673C22.3092 2.51698 22.3056 2.50821 22.3016 2.49888C22.2998 2.50015 22.2986 2.50086 22.2975 2.50171C22.2891 2.50828 22.2891 2.50828 22.2843 2.49931C22.2827 2.49627 22.281 2.4933 22.2798 2.49019C22.2782 2.48602 22.2761 2.48319 22.2696 2.48269C22.2637 2.48227 22.2615 2.47732 22.2594 2.47343C22.2576 2.47025 22.2559 2.46856 22.2509 2.46912C22.2435 2.47004 22.2383 2.46679 22.2342 2.46198C22.2318 2.4593 22.2293 2.45435 22.2249 2.45619C22.2203 2.45817 22.2223 2.46297 22.224 2.46686C22.2281 2.4764 22.2369 2.48354 22.2442 2.49146C22.259 2.50743 22.2758 2.52235 22.2884 2.5396C22.3144 2.57529 22.318 2.61311 22.3042 2.65234C22.2942 2.68069 22.2769 2.70613 22.2548 2.72967C22.2517 2.733 22.2486 2.7366 22.2424 2.73865C22.2428 2.73519 22.2428 2.73236 22.2435 2.72967C22.2446 2.72529 22.2465 2.72091 22.2374 2.72112C22.2347 2.72119 22.2351 2.71949 22.2357 2.71794C22.2369 2.71483 22.2381 2.71165 22.2391 2.70854C22.24 2.70592 22.2413 2.70267 22.2392 2.70076C22.2326 2.6944 22.2365 2.68853 22.2394 2.68245C22.2416 2.67786 22.2435 2.67319 22.2458 2.6686C22.2477 2.66485 22.2463 2.66358 22.2415 2.6645C22.2359 2.66556 22.2349 2.66415 22.2362 2.65984C22.2392 2.6498 22.2416 2.63955 22.2442 2.62951C22.2393 2.6281 22.2354 2.63425 22.2324 2.63078C22.2304 2.62852 22.2324 2.62407 22.2326 2.6206C22.2329 2.61672 22.2333 2.6129 22.2337 2.60859C22.2285 2.60958 22.2271 2.61375 22.2218 2.61594C22.2218 2.60357 22.2218 2.59212 22.2218 2.5801C22.2148 2.58137 22.2147 2.58568 22.2124 2.58865C22.2116 2.58964 22.2114 2.59127 22.2096 2.59134C22.2073 2.59141 22.2069 2.58964 22.2064 2.58837C22.2047 2.58399 22.2052 2.57946 22.2047 2.57494C22.2041 2.56858 22.2033 2.56801 22.1968 2.57112C22.1928 2.57303 22.1925 2.57141 22.1922 2.56907C22.1915 2.56483 22.1907 2.56052 22.1901 2.55628C22.1897 2.55338 22.1888 2.55119 22.1844 2.55345C22.1798 2.55586 22.1782 2.55366 22.1767 2.55062C22.1733 2.54363 22.1674 2.5384 22.1582 2.53585C22.1535 2.53458 22.1511 2.53472 22.152 2.53974C22.1551 2.55741 22.1583 2.57501 22.1604 2.59275C22.1664 2.6423 22.164 2.69136 22.1442 2.73915C22.1346 2.7624 22.121 2.78417 22.104 2.80467C22.098 2.81188 22.0906 2.81803 22.0823 2.82362C22.0798 2.8222 22.081 2.82044 22.0809 2.81895C22.0799 2.7952 22.0842 2.77131 22.0816 2.74777C22.0796 2.73031 22.0829 2.71448 22.0915 2.69885C22.0919 2.69815 22.092 2.69737 22.0924 2.69596C22.0833 2.69688 22.0812 2.70387 22.0738 2.70762C22.0732 2.69878 22.0726 2.6908 22.0721 2.68274C22.0718 2.67765 22.0718 2.67249 22.0715 2.6674C22.071 2.65877 22.0695 2.65065 22.0626 2.64322C22.0534 2.6334 22.0551 2.62096 22.0524 2.60951C22.0521 2.60795 22.0532 2.60576 22.0511 2.60505C22.0485 2.6042 22.0471 2.6064 22.0454 2.60753C22.0357 2.61403 22.0352 2.62378 22.0316 2.63241C22.0222 2.65489 22.0238 2.67807 22.0248 2.70119C22.0262 2.73307 22.0274 2.76502 22.0289 2.7969C22.0326 2.87508 22.0349 2.95326 22.0356 3.03151C22.0357 3.05815 22.0362 3.08473 22.0374 3.11138C22.0383 3.13033 22.0439 3.14863 22.0544 3.16581C22.0644 3.18221 22.0651 3.19875 22.056 3.21572C22.0447 3.23678 22.048 3.25707 22.0628 3.27615C22.0736 3.29008 22.0857 3.30344 22.0972 3.31701C22.1009 3.32146 22.1046 3.32599 22.1067 3.33101C22.1117 3.34246 22.1062 3.35094 22.0914 3.35412C22.0751 3.35758 22.0585 3.35956 22.0416 3.35978C21.9941 3.36034 21.9465 3.36105 21.899 3.36006C21.8827 3.3597 21.8667 3.35765 21.8511 3.35384C21.8357 3.35009 21.8307 3.34168 21.837 3.32995C21.8432 3.31814 21.8529 3.30796 21.8621 3.29764C21.8786 3.27912 21.8907 3.25933 21.8913 3.236C21.8916 3.2254 21.8893 3.21522 21.8834 3.20568C21.8759 3.19352 21.8763 3.1815 21.8847 3.16984C21.8995 3.14962 21.902 3.12722 21.903 3.1046C21.9061 3.03914 21.9077 2.97361 21.9093 2.90809C21.9107 2.85246 21.9147 2.79683 21.9172 2.7412C21.9187 2.70656 21.9167 2.67199 21.9154 2.63736C21.9154 2.62477 21.9059 2.6112 21.8945 2.60456Z" fill="black"/>
<path d="M22.9914 3.23961C22.9796 3.24201 22.9684 3.24208 22.9575 3.24293C22.906 3.24668 22.8545 3.24936 22.8033 3.25502C22.7368 3.26237 22.6706 3.27142 22.6056 3.2845C22.5475 3.29623 22.4913 3.31249 22.4363 3.33157C22.3681 3.35525 22.3017 3.38155 22.2406 3.41548C22.1868 3.44531 22.1394 3.48093 22.0932 3.51762C22.0824 3.52617 22.0719 3.53487 22.0616 3.54377C22.0539 3.55035 22.0537 3.55204 22.0606 3.55911C22.0808 3.57982 22.1012 3.60046 22.1217 3.62103C22.151 3.65044 22.1835 3.67758 22.2157 3.70501C22.2199 3.70862 22.2247 3.71173 22.2291 3.71519C22.2329 3.71823 22.2349 3.71724 22.2365 3.71356C22.2444 3.69603 22.2524 3.67857 22.2604 3.66104C22.2637 3.65369 22.2674 3.64655 22.2727 3.63998C22.2853 3.62443 22.3042 3.6204 22.3241 3.62994C22.3441 3.63948 22.3533 3.65376 22.3516 3.67221C22.3509 3.68048 22.3444 3.68628 22.3323 3.68833C22.3038 3.69321 22.2908 3.70904 22.2851 3.72975C22.28 3.74855 22.2851 3.76516 22.3025 3.77951C22.3189 3.79302 22.3358 3.80588 22.3558 3.81578C22.3733 3.8244 22.3775 3.82355 22.3866 3.80906C22.3919 3.80058 22.3974 3.79224 22.4066 3.78595C22.4299 3.77011 22.4657 3.76672 22.4935 3.79287C22.5147 3.81274 22.5201 3.83628 22.5169 3.86144C22.5148 3.87756 22.5072 3.89212 22.494 3.90435C22.4724 3.92428 22.4439 3.92859 22.4125 3.92605C22.3795 3.92336 22.3521 3.91078 22.3253 3.89643C22.2949 3.88017 22.2641 3.86441 22.2334 3.8485C22.2242 3.8437 22.2239 3.84391 22.2159 3.8502C22.1972 3.8649 22.1804 3.88116 22.1597 3.89424C22.1323 3.91156 22.0903 3.91 22.0678 3.89056C22.0445 3.87035 22.0432 3.83967 22.0766 3.81818C22.0823 3.81457 22.0887 3.8145 22.0948 3.81719C22.1057 3.82186 22.1161 3.82716 22.1272 3.83154C22.1417 3.83734 22.1563 3.83444 22.1668 3.82461C22.1734 3.81846 22.1743 3.81182 22.1703 3.80461C22.1632 3.79181 22.151 3.78199 22.1394 3.77181C22.089 3.72791 22.0386 3.68402 21.9881 3.64019C21.9833 3.63595 21.9787 3.62959 21.9723 3.62916C21.966 3.62881 21.9618 3.6356 21.9568 3.63941C21.9128 3.67292 21.8725 3.70911 21.8327 3.74573C21.8175 3.75965 21.8025 3.77379 21.7873 3.78771C21.7822 3.79238 21.778 3.79747 21.7749 3.80319C21.7706 3.81154 21.7715 3.81931 21.7793 3.82603C21.7874 3.83309 21.7974 3.83606 21.8093 3.83302C21.8198 3.83041 21.8288 3.82546 21.8384 3.82164C21.8425 3.82002 21.8467 3.81825 21.851 3.81691C21.8581 3.81465 21.8649 3.81542 21.8705 3.81952C21.8873 3.83196 21.8934 3.84766 21.89 3.86526C21.8864 3.88364 21.875 3.89827 21.8517 3.90413C21.8298 3.90958 21.8093 3.90421 21.7899 3.89615C21.769 3.88752 21.7539 3.87381 21.7396 3.85939C21.7353 3.85501 21.7304 3.85105 21.7264 3.8466C21.7234 3.8432 21.7206 3.84363 21.7168 3.84532C21.695 3.85472 21.6754 3.86681 21.6549 3.87777C21.6347 3.88851 21.6157 3.90053 21.5942 3.90965C21.569 3.92025 21.5424 3.92555 21.5138 3.9247C21.4755 3.92364 21.4468 3.90562 21.4334 3.87395C21.4197 3.84151 21.4317 3.80708 21.4645 3.78482C21.4906 3.76707 21.5242 3.76976 21.5456 3.79125C21.5532 3.79881 21.5595 3.80701 21.566 3.81514C21.5721 3.82263 21.5738 3.82327 21.5833 3.81903C21.612 3.80616 21.636 3.78892 21.6563 3.76849C21.6631 3.76163 21.6644 3.75343 21.6615 3.74516C21.6574 3.73336 21.6526 3.72162 21.6483 3.70989C21.6446 3.69978 21.6366 3.69328 21.6238 3.69031C21.6221 3.68988 21.6205 3.68932 21.6188 3.68889C21.597 3.68345 21.5914 3.67603 21.5954 3.65807C21.6003 3.63609 21.6271 3.62209 21.6541 3.62725C21.6664 3.62966 21.6744 3.63581 21.6785 3.64514C21.6873 3.665 21.6959 3.68494 21.7047 3.70487C21.7106 3.7183 21.7141 3.71908 21.7261 3.70847C21.7803 3.6609 21.8326 3.61206 21.8819 3.56123C21.8885 3.55445 21.8882 3.55282 21.8819 3.54547C21.8682 3.52935 21.85 3.51649 21.8326 3.50313C21.792 3.47181 21.7493 3.44262 21.7041 3.41555C21.6639 3.39137 21.6191 3.37363 21.5741 3.35624C21.523 3.33659 21.471 3.31857 21.4174 3.30365C21.3462 3.28379 21.2739 3.26746 21.1989 3.25905C21.1547 3.25403 21.1102 3.25064 21.0659 3.24675C21.0407 3.24449 21.0156 3.2418 20.9905 3.23933C20.9878 3.23904 20.9848 3.23876 20.9824 3.23607C20.991 3.23318 20.9999 3.23254 21.0085 3.23219C21.0823 3.22915 21.1557 3.22194 21.2297 3.22271C21.3165 3.22363 21.4023 3.23014 21.4868 3.24668C21.544 3.25785 21.5986 3.27417 21.6516 3.29439C21.7041 3.31447 21.7559 3.3356 21.8035 3.36274C21.8443 3.386 21.8824 3.41173 21.9187 3.43916C21.9335 3.45033 21.9483 3.46142 21.9622 3.47323C21.9679 3.47803 21.9716 3.47726 21.9766 3.47351C21.9937 3.461 22.0111 3.44884 22.028 3.43612C22.0994 3.38233 22.1787 3.33744 22.267 3.30266C22.3219 3.28103 22.379 3.26385 22.4379 3.25049C22.5002 3.23636 22.5639 3.22851 22.6285 3.22519C22.6902 3.22194 22.7518 3.22349 22.8135 3.22597C22.8462 3.22731 22.879 3.2283 22.9118 3.23021C22.9352 3.23155 22.9585 3.23417 22.9818 3.23629C22.9848 3.2365 22.9881 3.23685 22.9914 3.23961ZM22.4185 3.88427C22.4216 3.88427 22.4247 3.88441 22.4277 3.88427C22.4539 3.88286 22.4688 3.87402 22.4749 3.85649C22.4797 3.84243 22.4709 3.82249 22.456 3.81408C22.4432 3.8068 22.4269 3.81175 22.4203 3.82532C22.4158 3.8343 22.4132 3.8437 22.4126 3.85338C22.4119 3.863 22.4069 3.86596 22.3949 3.86497C22.39 3.86455 22.3853 3.86314 22.3808 3.86186C22.3523 3.85395 22.3294 3.83967 22.3089 3.82242C22.2976 3.81295 22.285 3.80433 22.2733 3.79514C22.2691 3.79188 22.2669 3.79259 22.2643 3.79634C22.2579 3.8051 22.2586 3.81245 22.2672 3.81995C22.281 3.83189 22.2958 3.84306 22.3123 3.85253C22.3441 3.87084 22.3785 3.88342 22.4185 3.88427ZM21.4723 3.8466C21.4723 3.87183 21.4863 3.88448 21.517 3.88526C21.5474 3.88604 21.5764 3.87961 21.6029 3.86759C21.632 3.85437 21.6557 3.83564 21.6807 3.81825C21.6875 3.81351 21.6885 3.80701 21.6854 3.80015C21.6823 3.79316 21.6814 3.79273 21.6738 3.79669C21.67 3.79867 21.6663 3.80093 21.6628 3.80341C21.6414 3.81846 21.6199 3.83352 21.5987 3.84879C21.5858 3.85819 21.5711 3.86342 21.5534 3.86384C21.5392 3.8642 21.5348 3.86137 21.5329 3.85034C21.5316 3.84243 21.5296 3.83458 21.5283 3.82666C21.5268 3.8179 21.5209 3.81231 21.5099 3.81069C21.4984 3.80899 21.4889 3.81196 21.4822 3.81959C21.4749 3.82793 21.4729 3.83762 21.4723 3.8466ZM22.102 3.84165C22.0955 3.84158 22.0914 3.84426 22.0891 3.84893C22.0845 3.85847 22.0901 3.86929 22.1017 3.87381C22.1227 3.88208 22.1429 3.87946 22.1604 3.86865C22.1833 3.85458 22.2013 3.83719 22.2129 3.81571C22.2337 3.77761 22.2551 3.73965 22.2763 3.70176C22.282 3.69158 22.2904 3.68317 22.3042 3.67914C22.3088 3.6778 22.3119 3.67504 22.3148 3.67221C22.3213 3.66599 22.3198 3.65857 22.3109 3.65228C22.3033 3.64691 22.2948 3.64712 22.2877 3.65327C22.2806 3.65935 22.2761 3.66684 22.2725 3.67447C22.2567 3.70734 22.241 3.74028 22.2255 3.77322C22.2136 3.7986 22.1972 3.82178 22.1744 3.84207C22.1652 3.85034 22.1537 3.85331 22.1403 3.85077C22.1346 3.84971 22.1291 3.84759 22.1235 3.8461C22.1166 3.84419 22.1097 3.84179 22.102 3.84165ZM21.8226 3.87734C21.829 3.87756 21.8423 3.87388 21.847 3.87056C21.8547 3.86519 21.8578 3.85331 21.8532 3.84681C21.8493 3.84136 21.8429 3.84073 21.8296 3.84412C21.821 3.84631 21.8124 3.84865 21.8036 3.85034C21.7903 3.85303 21.7786 3.85027 21.7691 3.84214C21.7619 3.83592 21.7556 3.82921 21.7512 3.8215C21.7273 3.77937 21.7029 3.73738 21.6825 3.69398C21.6759 3.67992 21.6682 3.66634 21.6567 3.65426C21.6528 3.65016 21.6479 3.64782 21.6414 3.64896C21.6343 3.65016 21.6295 3.65362 21.6279 3.65949C21.6256 3.66804 21.6296 3.67483 21.6402 3.67843C21.6564 3.68387 21.6672 3.69321 21.6738 3.70586C21.6901 3.73661 21.7065 3.76736 21.7221 3.79832C21.7344 3.82277 21.7499 3.84532 21.7761 3.86236C21.7896 3.87134 21.8049 3.87664 21.8226 3.87734ZM22.2073 3.74877C22.2073 3.74403 22.2039 3.73965 22.1991 3.73569C22.1734 3.7142 22.1478 3.69257 22.1218 3.67122C22.1122 3.6633 22.1033 3.65468 22.0919 3.64818C22.0894 3.64669 22.0863 3.64585 22.084 3.64733C22.0818 3.64881 22.085 3.65044 22.0859 3.652C22.0866 3.65327 22.0877 3.65447 22.0887 3.65567C22.1197 3.69038 22.1507 3.72509 22.1817 3.75986C22.1845 3.7629 22.1877 3.76552 22.192 3.76714C22.1942 3.76799 22.1966 3.7687 22.1981 3.76658C22.2021 3.76114 22.207 3.75619 22.2073 3.74877ZM21.8554 3.64782C21.8539 3.64691 21.8531 3.64761 21.8522 3.6479C21.8421 3.65108 21.8359 3.65772 21.8289 3.66373C21.8009 3.68797 21.7729 3.71229 21.7448 3.73654C21.7412 3.73965 21.7386 3.74311 21.7375 3.74721C21.7356 3.75393 21.7412 3.76227 21.7503 3.76495C21.7574 3.76707 21.7582 3.7605 21.7623 3.75845C21.7624 3.75838 21.7626 3.7581 21.7627 3.75795C21.7926 3.72812 21.8196 3.69667 21.8445 3.66422C21.8487 3.65899 21.853 3.65376 21.8554 3.64782Z" fill="black"/>
<path d="M21.5977 6.62891V5.17436H21.9492V5.78942H21.9684L22.4492 5.17436H22.8633L22.3477 5.82351L22.8725 6.62891H22.4521L22.0899 6.05717L21.9492 6.23473V6.62891H21.5977ZM22.4259 7.61044C22.4211 7.55836 22.4001 7.51787 22.3627 7.48899C22.3257 7.45964 22.2729 7.44496 22.2043 7.44496C22.1588 7.44496 22.121 7.45088 22.0907 7.46271C22.0604 7.47455 22.0376 7.49089 22.0225 7.51172C22.0073 7.53208 21.9995 7.55552 21.999 7.58203C21.9981 7.60381 22.0024 7.62299 22.0118 7.63956C22.0218 7.65613 22.036 7.67081 22.0544 7.68359C22.0734 7.6959 22.0961 7.70679 22.1226 7.71626C22.1491 7.72573 22.179 7.73402 22.2121 7.74112L22.3371 7.76953C22.4091 7.78516 22.4725 7.80599 22.5274 7.83203C22.5828 7.85807 22.6292 7.88909 22.6666 7.92507C22.7045 7.96106 22.7332 8.00249 22.7526 8.04936C22.772 8.09624 22.7819 8.14879 22.7824 8.20703C22.7819 8.29889 22.7587 8.37772 22.7128 8.44354C22.6669 8.50935 22.6008 8.55978 22.5147 8.59482C22.429 8.62985 22.3255 8.64737 22.2043 8.64737C22.0826 8.64737 21.9765 8.62914 21.8861 8.59268C21.7957 8.55623 21.7254 8.50083 21.6752 8.42649C21.625 8.35215 21.5992 8.25817 21.5978 8.14453H21.9344C21.9372 8.19141 21.9498 8.23047 21.972 8.26172C21.9943 8.29297 22.0248 8.31664 22.0637 8.33274C22.103 8.34884 22.1484 8.35689 22.2 8.35689C22.2474 8.35689 22.2876 8.3505 22.3208 8.33771C22.3544 8.32493 22.3802 8.30717 22.3982 8.28445C22.4162 8.26172 22.4254 8.23568 22.4259 8.20632C22.4254 8.17886 22.4169 8.15542 22.4003 8.13601C22.3837 8.11612 22.3582 8.09908 22.3236 8.08487C22.2895 8.07019 22.246 8.0567 22.1929 8.04439L22.0409 8.00888C21.915 7.98 21.8158 7.93336 21.7434 7.86896C21.6709 7.8041 21.6349 7.7165 21.6354 7.60618C21.6349 7.51622 21.6591 7.43738 21.7078 7.36967C21.7566 7.30196 21.8241 7.24917 21.9103 7.21129C21.9964 7.17341 22.0947 7.15447 22.205 7.15447C22.3177 7.15447 22.4155 7.17365 22.4983 7.212C22.5817 7.24988 22.6463 7.30315 22.6922 7.3718C22.7381 7.44046 22.7616 7.52 22.7625 7.61044H22.4259ZM21.843 10.6289H21.4651L21.9559 9.17436H22.4239L22.9147 10.6289H22.5369L22.1952 9.54084H22.1839L21.843 10.6289ZM21.7925 10.0565H22.5823V10.3235H21.7925V10.0565Z" fill="black"/>
<path d="M14.7527 5.07457L14.7755 4.82457L14.5681 4.96946L14.4544 4.7706L14.6817 4.66548L14.4544 4.56037L14.5681 4.36151L14.7755 4.50639L14.7527 4.25639H14.98L14.9573 4.50639L15.1647 4.36151L15.2783 4.56037L15.051 4.66548L15.2783 4.7706L15.1647 4.96946L14.9573 4.82457L14.98 5.07457H14.7527ZM15.9695 5.07457L15.9922 4.82457L15.7849 4.96946L15.6712 4.7706L15.8985 4.66548L15.6712 4.56037L15.7849 4.36151L15.9922 4.50639L15.9695 4.25639H16.1968L16.1741 4.50639L16.3815 4.36151L16.4951 4.56037L16.2678 4.66548L16.4951 4.7706L16.3815 4.96946L16.1741 4.82457L16.1968 5.07457H15.9695ZM17.1863 5.07457L17.209 4.82457L17.0017 4.96946L16.888 4.7706L17.1153 4.66548L16.888 4.56037L17.0017 4.36151L17.209 4.50639L17.1863 4.25639H17.4136L17.3909 4.50639L17.5983 4.36151L17.7119 4.56037L17.4846 4.66548L17.7119 4.7706L17.5983 4.96946L17.3909 4.82457L17.4136 5.07457H17.1863ZM18.4031 5.07457L18.4258 4.82457L18.2185 4.96946L18.1048 4.7706L18.3321 4.66548L18.1048 4.56037L18.2185 4.36151L18.4258 4.50639L18.4031 4.25639H18.6304L18.6077 4.50639L18.815 4.36151L18.9287 4.56037L18.7014 4.66548L18.9287 4.7706L18.815 4.96946L18.6077 4.82457L18.6304 5.07457H18.4031ZM14.7527 7.07457L14.7755 6.82457L14.5681 6.96946L14.4544 6.7706L14.6817 6.66548L14.4544 6.56037L14.5681 6.36151L14.7755 6.50639L14.7527 6.25639H14.98L14.9573 6.50639L15.1647 6.36151L15.2783 6.56037L15.051 6.66548L15.2783 6.7706L15.1647 6.96946L14.9573 6.82457L14.98 7.07457H14.7527ZM15.9695 7.07457L15.9922 6.82457L15.7849 6.96946L15.6712 6.7706L15.8985 6.66548L15.6712 6.56037L15.7849 6.36151L15.9922 6.50639L15.9695 6.25639H16.1968L16.1741 6.50639L16.3815 6.36151L16.4951 6.56037L16.2678 6.66548L16.4951 6.7706L16.3815 6.96946L16.1741 6.82457L16.1968 7.07457H15.9695ZM17.1863 7.07457L17.209 6.82457L17.0017 6.96946L16.888 6.7706L17.1153 6.66548L16.888 6.56037L17.0017 6.36151L17.209 6.50639L17.1863 6.25639H17.4136L17.3909 6.50639L17.5983 6.36151L17.7119 6.56037L17.4846 6.66548L17.7119 6.7706L17.5983 6.96946L17.3909 6.82457L17.4136 7.07457H17.1863ZM18.4031 7.07457L18.4258 6.82457L18.2185 6.96946L18.1048 6.7706L18.3321 6.66548L18.1048 6.56037L18.2185 6.36151L18.4258 6.50639L18.4031 6.25639H18.6304L18.6077 6.50639L18.815 6.36151L18.9287 6.56037L18.7014 6.66548L18.9287 6.7706L18.815 6.96946L18.6077 6.82457L18.6304 7.07457H18.4031Z" fill="black"/>
<path d="M2.56327 5.07457L2.586 4.82457L2.37861 4.96946L2.26498 4.7706L2.49225 4.66548L2.26498 4.56037L2.37861 4.36151L2.586 4.50639L2.56327 4.25639H2.79054L2.76782 4.50639L2.9752 4.36151L3.08884 4.56037L2.86157 4.66548L3.08884 4.7706L2.9752 4.96946L2.76782 4.82457L2.79054 5.07457H2.56327ZM3.78007 5.07457L3.8028 4.82457L3.59541 4.96946L3.48177 4.7706L3.70905 4.66548L3.48177 4.56037L3.59541 4.36151L3.8028 4.50639L3.78007 4.25639H4.00734L3.98461 4.50639L4.192 4.36151L4.30564 4.56037L4.07836 4.66548L4.30564 4.7706L4.192 4.96946L3.98461 4.82457L4.00734 5.07457H3.78007ZM4.99687 5.07457L5.01959 4.82457L4.81221 4.96946L4.69857 4.7706L4.92584 4.66548L4.69857 4.56037L4.81221 4.36151L5.01959 4.50639L4.99687 4.25639H5.22414L5.20141 4.50639L5.4088 4.36151L5.52243 4.56037L5.29516 4.66548L5.52243 4.7706L5.4088 4.96946L5.20141 4.82457L5.22414 5.07457H4.99687ZM6.21366 5.07457L6.23639 4.82457L6.029 4.96946L5.91537 4.7706L6.14264 4.66548L5.91537 4.56037L6.029 4.36151L6.23639 4.50639L6.21366 4.25639H6.44094L6.41821 4.50639L6.62559 4.36151L6.73923 4.56037L6.51196 4.66548L6.73923 4.7706L6.62559 4.96946L6.41821 4.82457L6.44094 5.07457H6.21366ZM2.56327 7.07457L2.586 6.82457L2.37861 6.96946L2.26498 6.7706L2.49225 6.66548L2.26498 6.56037L2.37861 6.36151L2.586 6.50639L2.56327 6.25639H2.79054L2.76782 6.50639L2.9752 6.36151L3.08884 6.56037L2.86157 6.66548L3.08884 6.7706L2.9752 6.96946L2.76782 6.82457L2.79054 7.07457H2.56327ZM3.78007 7.07457L3.8028 6.82457L3.59541 6.96946L3.48177 6.7706L3.70905 6.66548L3.48177 6.56037L3.59541 6.36151L3.8028 6.50639L3.78007 6.25639H4.00734L3.98461 6.50639L4.192 6.36151L4.30564 6.56037L4.07836 6.66548L4.30564 6.7706L4.192 6.96946L3.98461 6.82457L4.00734 7.07457H3.78007ZM4.99687 7.07457L5.01959 6.82457L4.81221 6.96946L4.69857 6.7706L4.92584 6.66548L4.69857 6.56037L4.81221 6.36151L5.01959 6.50639L4.99687 6.25639H5.22414L5.20141 6.50639L5.4088 6.36151L5.52243 6.56037L5.29516 6.66548L5.52243 6.7706L5.4088 6.96946L5.20141 6.82457L5.22414 7.07457H4.99687ZM6.21366 7.07457L6.23639 6.82457L6.029 6.96946L5.91537 6.7706L6.14264 6.66548L5.91537 6.56037L6.029 6.36151L6.23639 6.50639L6.21366 6.25639H6.44094L6.41821 6.50639L6.62559 6.36151L6.73923 6.56037L6.51196 6.66548L6.73923 6.7706L6.62559 6.96946L6.41821 6.82457L6.44094 7.07457H6.21366Z" fill="black"/>
</g>
<rect x="0.5" y="0.5" width="24" height="11.037" rx="1.5" stroke="black"/>
<defs>
<clipPath id="clip0_29357_45260">
<rect width="25" height="12.037" rx="2" fill="white"/>
</clipPath>
</defs>
</svg>
