<svg width="55" height="18" viewBox="0 0 55 18" fill="none" xmlns="http://www.w3.org/2000/svg">
<rect x="0.25" y="0.25" width="54.5" height="17.5" rx="1.75" fill="white"/>
<rect x="0.25" y="0.25" width="54.5" height="17.5" rx="1.75" stroke="black" stroke-width="0.5"/>
<line x1="47.75" y1="18" x2="47.75" stroke="black" stroke-width="0.5"/>
<path d="M51.0204 2.90589C51.0191 2.91005 51.0176 2.91391 51.0167 2.91807C51.0158 2.92148 51.0142 2.92401 51.0106 2.92297C50.9965 2.91881 50.9982 2.92801 50.9995 2.93618C51.0032 2.9592 50.9989 2.98147 50.9936 3.00375C50.9924 3.00865 50.9907 3.01206 50.9853 3.01132C50.9763 3.01013 50.9766 3.01474 50.9783 3.02112C50.9807 3.03033 50.9829 3.03954 50.9844 3.04874C50.9856 3.05617 50.985 3.0633 50.9778 3.06834C50.9735 3.07131 50.9731 3.07607 50.9728 3.08097C50.9722 3.08884 50.9752 3.09611 50.9759 3.10562C50.9651 3.09998 50.9616 3.09017 50.9564 3.08186C50.9542 3.07844 50.9529 3.07206 50.9483 3.07384C50.9437 3.07562 50.9463 3.08126 50.9475 3.08527C50.9538 3.10681 50.9599 3.12819 50.9664 3.14957C50.9692 3.15908 50.9692 3.16754 50.9597 3.17333C50.9532 3.17719 50.9557 3.18284 50.9564 3.18833C50.9642 3.23808 50.9719 3.28782 50.9703 3.33846C50.9701 3.3447 50.9731 3.35406 50.9674 3.35643C50.9597 3.3597 50.9533 3.35198 50.9483 3.34618C50.9189 3.31203 50.8959 3.27372 50.8785 3.23229C50.8387 3.1368 50.8256 3.03716 50.8313 2.93425C50.8339 2.88554 50.8449 2.83803 50.8485 2.78947C50.8494 2.77744 50.8507 2.76541 50.8497 2.75338C50.8492 2.74922 50.8492 2.74388 50.844 2.74314C50.8397 2.74239 50.8359 2.74536 50.833 2.74893C50.8281 2.75502 50.8284 2.76259 50.827 2.76972C50.8255 2.77684 50.8253 2.78664 50.8143 2.77684C50.8117 2.77447 50.8087 2.77417 50.8063 2.7767C50.7995 2.78412 50.7919 2.78264 50.7823 2.77699C50.7823 2.79481 50.7823 2.8104 50.7823 2.82614C50.7823 2.82897 50.7837 2.83312 50.78 2.83402C50.7753 2.8352 50.7753 2.8303 50.7741 2.82733C50.7732 2.8254 50.7731 2.82318 50.7723 2.8211C50.7708 2.81738 50.7717 2.8104 50.767 2.8107C50.7609 2.81115 50.7607 2.81828 50.7607 2.82318C50.7604 2.83654 50.7624 2.84976 50.765 2.86282C50.7662 2.86862 50.7665 2.87456 50.7674 2.88124C50.756 2.87975 50.7527 2.87203 50.7494 2.86386C50.7466 2.85659 50.7462 2.84768 50.7368 2.84352C50.7309 2.86 50.7349 2.87634 50.7334 2.89238C50.733 2.89757 50.7359 2.90619 50.73 2.90723C50.723 2.90841 50.7224 2.89965 50.7202 2.89416C50.7178 2.88851 50.7177 2.87842 50.7104 2.8796C50.7044 2.8805 50.7058 2.8903 50.7056 2.89639C50.7052 2.91049 50.7105 2.92341 50.7138 2.93663C50.7154 2.94316 50.7169 2.94984 50.7188 2.95861C50.7138 2.95668 50.7105 2.95564 50.7073 2.9543C50.6961 2.9494 50.6927 2.95103 50.6951 2.96291C50.6982 2.97969 50.7033 2.99632 50.708 3.01281C50.7099 3.01934 50.711 3.02365 50.7019 3.02365C50.6932 3.02365 50.693 3.03018 50.6933 3.03642C50.6941 3.04696 50.6992 3.05617 50.7022 3.06597C50.707 3.08216 50.709 3.0979 50.7001 3.11334C50.6976 3.11794 50.6972 3.12329 50.6976 3.12849C50.6982 3.13458 50.6963 3.13859 50.6899 3.13962C50.6822 3.14096 50.6834 3.14616 50.6844 3.15136C50.686 3.16012 50.689 3.16858 50.6884 3.17764C50.6828 3.17823 50.6811 3.17422 50.6793 3.17096C50.6544 3.12151 50.626 3.07369 50.6044 3.02246C50.5656 2.93098 50.5766 2.84352 50.6265 2.75947C50.6415 2.73422 50.6587 2.71061 50.6758 2.687C50.6883 2.66978 50.6997 2.65225 50.7022 2.63042C50.7033 2.62151 50.7037 2.61275 50.6992 2.60459C50.6942 2.60607 50.6932 2.61023 50.6912 2.61335C50.6866 2.62107 50.6819 2.62508 50.6734 2.6178C50.6672 2.61231 50.6646 2.61617 50.6635 2.62241C50.6626 2.62701 50.6606 2.63161 50.6603 2.63622C50.6597 2.64527 50.6553 2.64958 50.6464 2.64854C50.6398 2.6478 50.6373 2.65136 50.6354 2.65686C50.63 2.67126 50.6243 2.68567 50.6179 2.70215C50.6134 2.69294 50.6099 2.68537 50.6057 2.6769C50.592 2.69324 50.5929 2.71477 50.5813 2.732C50.5769 2.7265 50.573 2.7216 50.5683 2.71566C50.5638 2.72739 50.5591 2.73794 50.5559 2.74893C50.5536 2.75724 50.5494 2.75932 50.542 2.75605C50.5352 2.75294 50.5329 2.75591 50.5317 2.76244C50.528 2.78204 50.5239 2.80164 50.5199 2.82214C50.5121 2.81724 50.5112 2.80833 50.5043 2.80343C50.4971 2.81248 50.4971 2.82303 50.4976 2.83298C50.4988 2.85659 50.4879 2.87619 50.4789 2.89653C50.4781 2.89832 50.4761 2.90129 50.475 2.90114C50.46 2.89832 50.4631 2.91019 50.4624 2.91732C50.4596 2.94762 50.4545 2.97791 50.4591 3.00865C50.4605 3.01771 50.4585 3.02647 50.4535 3.03464C50.4487 3.04236 50.445 3.04087 50.4426 3.0336C50.4383 3.02008 50.4343 3.00642 50.4306 2.99276C50.4164 2.93945 50.4067 2.8851 50.4064 2.82986C50.4061 2.74254 50.4371 2.66829 50.5013 2.60771C50.5641 2.54845 50.6336 2.50093 50.7165 2.4745C50.7377 2.46767 50.7597 2.46336 50.7803 2.45416C50.7834 2.45282 50.7883 2.45193 50.7879 2.44837C50.7875 2.44465 50.783 2.44168 50.7791 2.44183C50.7539 2.44317 50.7276 2.43545 50.704 2.45163C50.6924 2.4595 50.6799 2.46232 50.667 2.45208C50.6609 2.44718 50.6286 2.45416 50.6226 2.46054C50.6186 2.46485 50.6148 2.46945 50.6112 2.47361C50.6061 2.47227 50.6076 2.46841 50.6064 2.46604C50.6047 2.46232 50.6064 2.45624 50.6018 2.4549C50.5963 2.45312 50.592 2.45772 50.5885 2.46129C50.5843 2.46544 50.581 2.47064 50.5776 2.47569C50.5727 2.48267 50.5675 2.48712 50.5585 2.48163C50.5506 2.47673 50.5467 2.48341 50.5429 2.48846C50.5386 2.49425 50.5344 2.49678 50.5288 2.49009C50.5245 2.48505 50.5215 2.48608 50.519 2.49232C50.5151 2.50183 50.5102 2.51103 50.5063 2.52054C50.5038 2.52692 50.5007 2.5287 50.4951 2.5244C50.4887 2.51965 50.4842 2.52158 50.4805 2.52796C50.4771 2.5339 50.4723 2.53895 50.47 2.54563C50.466 2.55677 50.4588 2.56568 50.4495 2.57325C50.4412 2.57994 50.433 2.58706 50.4271 2.59627C50.4257 2.59835 50.4233 2.60117 50.4216 2.60117C50.4061 2.60013 50.4067 2.61216 50.4045 2.62166C50.4023 2.63132 50.3999 2.64082 50.3978 2.65062C50.3959 2.66012 50.3938 2.66874 50.3828 2.6726C50.3761 2.67483 50.3764 2.68225 50.3764 2.68834C50.3767 2.69814 50.3743 2.70957 50.3644 2.70957C50.3534 2.70957 50.3531 2.69636 50.3537 2.68804C50.3607 2.56449 50.4112 2.46455 50.5156 2.39491C50.5874 2.34694 50.6679 2.32437 50.753 2.31605C50.7834 2.31308 50.8137 2.30937 50.8434 2.3018C50.8537 2.29927 50.8629 2.29527 50.8691 2.28368C50.8284 2.28101 50.7897 2.2666 50.7496 2.27938C50.7447 2.28101 50.7392 2.28353 50.7346 2.28056C50.7202 2.27136 50.7088 2.27804 50.697 2.28606C50.6936 2.28843 50.6889 2.29348 50.6851 2.2868C50.6804 2.27774 50.6742 2.27893 50.6672 2.28294C50.6422 2.2972 50.6136 2.30299 50.5865 2.30878C50.5491 2.3168 50.5248 2.34397 50.4928 2.35867C50.4888 2.36046 50.4847 2.36714 50.4807 2.36328C50.4759 2.35867 50.4826 2.35407 50.485 2.35036C50.5246 2.29096 50.5755 2.24285 50.6338 2.20171C50.6994 2.15538 50.7722 2.13875 50.8513 2.14617C50.8899 2.14974 50.9284 2.15375 50.967 2.15701C50.9741 2.15761 50.9853 2.16087 50.9875 2.15315C50.9891 2.14751 50.9781 2.14335 50.9713 2.14112C50.9527 2.13504 50.9382 2.12093 50.9196 2.11514C50.9012 2.10935 50.8831 2.10296 50.866 2.09361C50.8534 2.08663 50.8363 2.09153 50.8259 2.07831C50.8253 2.07757 50.8226 2.07816 50.8212 2.07876C50.7919 2.09078 50.7606 2.0939 50.73 2.10058C50.7215 2.10237 50.7142 2.10712 50.7047 2.11128C50.7061 2.09732 50.7138 2.08885 50.7224 2.08172C50.752 2.05707 50.7876 2.04579 50.8243 2.03747C50.8957 2.02114 50.9616 2.03554 51.0227 2.07489C51.0448 2.08915 51.0672 2.10251 51.0925 2.11083C51.1002 2.11336 51.1021 2.11261 51.1023 2.10445C51.1029 2.07133 51.1061 2.03836 51.1106 2.00555C51.1118 1.99693 51.1147 1.99307 51.1232 1.99381C51.133 1.99471 51.136 1.99084 51.1367 1.98075C51.1385 1.95639 51.1349 1.93159 51.1431 1.90783C51.1443 1.90427 51.1436 1.89907 51.1483 1.89848C51.1539 1.89788 51.1541 1.90382 51.1559 1.90739C51.1632 1.92268 51.1602 1.93961 51.1629 1.95565C51.164 1.96322 51.1637 1.97109 51.1645 1.97882C51.1652 1.98609 51.1663 1.99307 51.1743 1.99693C51.1802 1.99975 51.181 2.00644 51.1811 2.01267C51.1813 2.0204 51.1813 2.02812 51.1816 2.03599C51.1819 2.04683 51.1836 2.05693 51.1911 2.06598C51.1991 2.07564 51.1997 2.08811 51.1992 2.10044C51.1985 2.12137 51.1998 2.12301 51.219 2.11469C51.2454 2.10326 51.2705 2.089 51.295 2.07385C51.3452 2.04252 51.399 2.0296 51.4578 2.04C51.4955 2.04668 51.5298 2.06257 51.5628 2.08143C51.5726 2.08707 51.58 2.09568 51.5846 2.10623C51.5885 2.11499 51.5856 2.1193 51.5761 2.11826C51.572 2.11781 51.568 2.11588 51.5638 2.11454C51.5353 2.10534 51.5054 2.09524 51.4766 2.10459C51.4545 2.11172 51.4334 2.11588 51.4103 2.11647C51.3915 2.11692 51.3773 2.13147 51.3595 2.14023C51.3798 2.15597 51.4019 2.15612 51.4242 2.15508C51.4517 2.1536 51.4792 2.15048 51.5066 2.14989C51.568 2.1484 51.6229 2.16771 51.6695 2.20721C51.7062 2.23839 51.7419 2.27076 51.7754 2.30551C51.7898 2.32036 51.801 2.33774 51.81 2.35823C51.8008 2.3566 51.7944 2.35184 51.7879 2.34798C51.7671 2.33581 51.7454 2.32645 51.722 2.31977C51.7007 2.31383 51.6804 2.30358 51.6611 2.29215C51.6544 2.28814 51.6474 2.28487 51.6397 2.28324C51.629 2.28086 51.6185 2.27952 51.6125 2.29215C51.61 2.29734 51.6066 2.29705 51.6023 2.29378C51.5975 2.29007 51.5922 2.28725 51.5873 2.28368C51.5809 2.27893 51.5754 2.27551 51.57 2.28532C51.5668 2.29155 51.5614 2.28754 51.5577 2.28532C51.5448 2.27745 51.5323 2.27061 51.5175 2.28205C51.5145 2.28428 51.5083 2.28264 51.5035 2.28249C51.489 2.28175 51.4751 2.28309 51.463 2.292C51.4596 2.29452 51.456 2.29527 51.4521 2.29378C51.4509 2.29333 51.4496 2.29289 51.4484 2.29274C51.4413 2.292 51.4261 2.30254 51.4275 2.30848C51.429 2.31561 51.4368 2.31516 51.4422 2.31576C51.4674 2.31858 51.4927 2.32066 51.5179 2.32303C51.5689 2.32779 51.6201 2.33165 51.6695 2.34605C51.7925 2.38184 51.8808 2.45624 51.9247 2.5786C51.9414 2.62567 51.9453 2.67468 51.9404 2.72665C51.9316 2.71848 51.9281 2.70928 51.9235 2.70111C51.9048 2.66829 51.8863 2.63518 51.8679 2.60206C51.8623 2.59196 51.8563 2.58261 51.8433 2.58187C51.8384 2.58157 51.8385 2.578 51.8378 2.57459C51.8315 2.54444 51.8102 2.52603 51.7867 2.50925C51.7857 2.50851 51.7845 2.50791 51.7833 2.50747C51.7753 2.5039 51.765 2.50673 51.7583 2.49871C51.753 2.49202 51.7472 2.48579 51.7416 2.47925C51.7322 2.49277 51.7322 2.49277 51.7217 2.48014C51.72 2.47821 51.7184 2.47614 51.7168 2.47421C51.7055 2.46054 51.7053 2.4604 51.6945 2.4751C51.6914 2.4794 51.6893 2.48029 51.6859 2.47599C51.6832 2.47257 51.6802 2.46945 51.6777 2.46604C51.6725 2.45891 51.6689 2.45312 51.6578 2.4601C51.6495 2.4653 51.6372 2.45936 51.6271 2.46619C51.6235 2.46856 51.6177 2.45995 51.6125 2.45713C51.6104 2.45594 51.6086 2.45282 51.6058 2.45446C51.6035 2.45579 51.6037 2.45891 51.6039 2.46143C51.6043 2.47376 51.6113 2.48237 51.621 2.48876C51.6571 2.51296 51.693 2.53717 51.7294 2.56093C51.777 2.59196 51.8204 2.62716 51.8491 2.6778C51.8813 2.73482 51.8901 2.79674 51.8887 2.86089C51.8872 2.92608 51.8718 2.98845 51.8517 3.05008C51.8488 3.05914 51.8461 3.05751 51.841 3.05216C51.8307 3.04147 51.8311 3.02899 51.8342 3.01607C51.8356 3.01073 51.8376 3.00538 51.84 3.00033C51.8434 2.99306 51.8418 2.98771 51.8344 2.98474C51.8263 2.98162 51.8253 2.97553 51.826 2.96796C51.8268 2.95935 51.8268 2.95073 51.8274 2.94212C51.828 2.93395 51.8289 2.92653 51.8165 2.92861C51.8118 2.92935 51.8115 2.92519 51.8115 2.92148C51.8115 2.90871 51.8078 2.89713 51.803 2.8854C51.7978 2.87233 51.8029 2.85807 51.8001 2.84456C51.7984 2.83669 51.798 2.82852 51.7971 2.8205C51.7953 2.8205 51.7944 2.8202 51.7937 2.8205C51.776 2.82911 51.776 2.82912 51.7744 2.80922C51.7739 2.80328 51.7727 2.79719 51.7727 2.79125C51.7727 2.77892 51.7705 2.77016 51.7549 2.77506C51.7488 2.77699 51.7484 2.7718 51.7473 2.76749C51.7436 2.75145 51.7398 2.73526 51.7355 2.71685C51.7292 2.72606 51.7243 2.73319 51.7181 2.74239C51.7114 2.7219 51.7053 2.70349 51.6988 2.68388C51.6957 2.68656 51.6937 2.68804 51.692 2.68982C51.6778 2.70363 51.6778 2.70363 51.67 2.68478C51.6673 2.67839 51.6645 2.67215 51.6624 2.66562C51.6597 2.65686 51.6563 2.65092 51.6455 2.64988C51.6355 2.64899 51.632 2.63859 51.6284 2.63042C51.6254 2.62374 51.6226 2.62018 51.6143 2.62137C51.602 2.6233 51.5932 2.61647 51.5864 2.60637C51.5825 2.60073 51.5782 2.59033 51.5709 2.59419C51.5632 2.59835 51.5666 2.60845 51.5694 2.61661C51.5763 2.63666 51.591 2.65166 51.6032 2.66829C51.6278 2.70185 51.6557 2.73319 51.6767 2.76942C51.72 2.84441 51.7261 2.92386 51.7031 3.00627C51.6865 3.06582 51.6577 3.11928 51.6208 3.16873C51.6156 3.17571 51.6104 3.18328 51.6 3.18759C51.6008 3.18031 51.6008 3.17437 51.602 3.16873C51.6037 3.15952 51.607 3.15032 51.5917 3.15076C51.5873 3.15091 51.588 3.14735 51.5889 3.14408C51.591 3.13755 51.5929 3.13086 51.5947 3.12433C51.5962 3.11883 51.5983 3.112 51.5948 3.10799C51.5838 3.09463 51.5902 3.0823 51.5951 3.06953C51.5988 3.05988 51.602 3.05008 51.6058 3.04043C51.6089 3.03256 51.6066 3.02988 51.5986 3.03182C51.5892 3.03404 51.5876 3.03107 51.5898 3.02201C51.5948 3.00093 51.5987 2.9794 51.6032 2.95831C51.595 2.95534 51.5885 2.96826 51.5834 2.96098C51.5801 2.95623 51.5834 2.94687 51.5838 2.9396C51.5843 2.93143 51.5849 2.92341 51.5856 2.91435C51.577 2.91643 51.5746 2.92519 51.5657 2.9298C51.5657 2.90381 51.5657 2.87975 51.5657 2.85451C51.5542 2.85718 51.554 2.86624 51.5501 2.87248C51.5488 2.87456 51.5485 2.87797 51.5455 2.87812C51.5417 2.87827 51.5409 2.87456 51.5402 2.87188C51.5374 2.86268 51.5381 2.85317 51.5374 2.84367C51.5363 2.8303 51.535 2.82912 51.5242 2.83565C51.5175 2.83966 51.517 2.83624 51.5164 2.83134C51.5152 2.82243 51.5141 2.81337 51.513 2.80446C51.5123 2.79838 51.5108 2.79377 51.5035 2.79852C51.4958 2.80357 51.4931 2.79897 51.4906 2.79259C51.485 2.77788 51.4751 2.76689 51.4599 2.76155C51.452 2.75888 51.448 2.75917 51.4495 2.76972C51.4547 2.80684 51.46 2.84382 51.4636 2.88109C51.4735 2.98519 51.4695 3.08824 51.4365 3.18863C51.4205 3.23748 51.3979 3.28322 51.3696 3.32629C51.3596 3.34143 51.3471 3.35435 51.3333 3.36608C51.3292 3.36311 51.3313 3.3594 51.3311 3.35628C51.3293 3.30639 51.3366 3.25619 51.3321 3.20675C51.3289 3.17007 51.3344 3.1368 51.3488 3.10398C51.3494 3.1025 51.3495 3.10087 51.3503 3.0979C51.3351 3.09983 51.3316 3.11453 51.3192 3.1224C51.3182 3.10384 51.3171 3.08706 51.3164 3.07013C51.316 3.05943 51.3158 3.04859 51.3154 3.0379C51.3146 3.01979 51.3121 3.00271 51.3005 2.98712C51.2852 2.96648 51.288 2.94034 51.2836 2.91628C51.283 2.91302 51.2849 2.90841 51.2814 2.90693C51.2771 2.90515 51.2747 2.90975 51.2719 2.91213C51.2557 2.92579 51.2549 2.94628 51.2488 2.9644C51.2332 3.01162 51.2359 3.06033 51.2376 3.10889C51.2399 3.17586 51.2419 3.24298 51.2444 3.30995C51.2506 3.47419 51.2545 3.63843 51.2555 3.80282C51.2558 3.8588 51.2566 3.91463 51.2586 3.97062C51.2601 4.01042 51.2693 4.04888 51.2869 4.08496C51.3035 4.11941 51.3047 4.15416 51.2895 4.1898C51.2708 4.23405 51.2763 4.27667 51.301 4.31677C51.3189 4.34602 51.339 4.37409 51.3581 4.4026C51.3644 4.41195 51.3705 4.42146 51.374 4.432C51.3823 4.45606 51.3731 4.47388 51.3485 4.48056C51.3215 4.48784 51.2937 4.49199 51.2656 4.49244C51.1865 4.49363 51.1072 4.49511 51.028 4.49303C51.0008 4.49229 50.9741 4.48799 50.9481 4.47997C50.9226 4.4721 50.9143 4.45443 50.9247 4.42977C50.9351 4.40498 50.9512 4.38359 50.9665 4.36191C50.994 4.323 51.0142 4.28142 51.0153 4.23242C51.0157 4.21015 51.0118 4.18876 51.002 4.16872C50.9896 4.14317 50.9902 4.11793 51.0043 4.09343C51.0289 4.05096 51.0329 4.00388 51.0347 3.95636C51.0399 3.81885 51.0426 3.6812 51.0452 3.54354C51.0475 3.42667 51.0542 3.3098 51.0583 3.19293C51.0608 3.12017 51.0576 3.04756 51.0553 2.97479C51.0553 2.94836 51.0395 2.91985 51.0204 2.90589Z" fill="black"/>
<path d="M52.8468 4.23874C52.8272 4.24379 52.8087 4.24394 52.7904 4.24572C52.7047 4.25359 52.6189 4.25923 52.5335 4.27111C52.4227 4.28655 52.3126 4.30556 52.2041 4.33304C52.1073 4.35769 52.0138 4.39184 51.9221 4.43193C51.8085 4.48168 51.6979 4.53692 51.596 4.6082C51.5065 4.67087 51.4275 4.74571 51.3506 4.82278C51.3326 4.84075 51.3151 4.85901 51.2979 4.87773C51.2851 4.89154 51.2848 4.8951 51.2962 4.90995C51.3299 4.95346 51.3638 4.99682 51.398 5.04003C51.4468 5.10181 51.501 5.15883 51.5546 5.21645C51.5616 5.22402 51.5696 5.23056 51.5769 5.23783C51.5833 5.24422 51.5865 5.24214 51.5892 5.23442C51.6024 5.19759 51.6158 5.16091 51.629 5.12408C51.6345 5.10864 51.6407 5.09364 51.6497 5.07983C51.6706 5.04716 51.7021 5.0387 51.7352 5.05874C51.7685 5.07879 51.7839 5.10879 51.7811 5.14755C51.7799 5.16492 51.769 5.1771 51.7489 5.1814C51.7013 5.19165 51.6798 5.22491 51.6703 5.26842C51.6617 5.30792 51.6703 5.34282 51.6993 5.37297C51.7266 5.40133 51.7546 5.42836 51.7881 5.44915C51.8172 5.46726 51.8241 5.46548 51.8393 5.43504C51.8482 5.41722 51.8573 5.3997 51.8727 5.38648C51.9115 5.35322 51.9712 5.34609 52.0175 5.40103C52.0527 5.44276 52.0617 5.49221 52.0564 5.54508C52.053 5.57893 52.0402 5.60952 52.0182 5.63521C51.9823 5.67709 51.9348 5.68615 51.8825 5.6808C51.8276 5.67516 51.7818 5.64873 51.7373 5.61858C51.6866 5.58443 51.6353 5.55131 51.5842 5.5179C51.5687 5.5078 51.5683 5.50825 51.5549 5.52146C51.5237 5.55235 51.4958 5.58651 51.4614 5.61398C51.4156 5.65036 51.3457 5.64709 51.3083 5.60626C51.2694 5.56379 51.2673 5.49934 51.323 5.45419C51.3323 5.44662 51.343 5.44647 51.3533 5.45212C51.3714 5.46192 51.3887 5.47305 51.4072 5.48226C51.4314 5.49444 51.4557 5.48835 51.4732 5.46771C51.4841 5.45479 51.4857 5.44083 51.479 5.42568C51.4672 5.3988 51.4468 5.37816 51.4275 5.35678C51.3436 5.26456 51.2596 5.17234 51.1755 5.08028C51.1675 5.07137 51.1598 5.058 51.1491 5.05711C51.1387 5.05637 51.1317 5.07062 51.1234 5.07864C51.05 5.14903 50.9829 5.22506 50.9165 5.30198C50.8913 5.33124 50.8662 5.36094 50.8409 5.39019C50.8325 5.39999 50.8253 5.41068 50.8203 5.42271C50.813 5.44024 50.8147 5.45657 50.8276 5.47068C50.8411 5.48553 50.8577 5.49176 50.8776 5.48538C50.895 5.47988 50.91 5.46949 50.926 5.46147C50.9329 5.45806 50.9398 5.45434 50.947 5.45152C50.9588 5.44677 50.9701 5.4484 50.9795 5.45702C51.0076 5.48315 51.0176 5.51612 51.012 5.55309C51.0061 5.5917 50.9871 5.62244 50.9482 5.63477C50.9118 5.6462 50.8776 5.63492 50.8452 5.61799C50.8105 5.59987 50.7852 5.57106 50.7615 5.54077C50.7544 5.53156 50.746 5.52325 50.7395 5.51389C50.7345 5.50676 50.7299 5.50765 50.7235 5.51122C50.6871 5.53097 50.6544 5.55636 50.6203 5.57938C50.5867 5.60195 50.5551 5.62719 50.5191 5.64635C50.4773 5.66863 50.4329 5.67976 50.3852 5.67798C50.3215 5.67575 50.2737 5.63789 50.2514 5.57136C50.2285 5.5032 50.2484 5.43088 50.3031 5.3841C50.3466 5.34683 50.4026 5.35247 50.4382 5.39762C50.4508 5.41351 50.4614 5.43073 50.4722 5.44781C50.4823 5.46355 50.4853 5.46489 50.501 5.45598C50.5488 5.42895 50.5889 5.39272 50.6226 5.3498C50.6339 5.3354 50.6362 5.31817 50.6313 5.3008C50.6244 5.276 50.6166 5.25135 50.6093 5.2267C50.6032 5.20546 50.5898 5.1918 50.5686 5.18556C50.5658 5.18467 50.5629 5.18348 50.5601 5.18259C50.5239 5.17116 50.5145 5.15556 50.5212 5.11785C50.5294 5.07166 50.5741 5.04226 50.6189 5.0531C50.6396 5.05815 50.6528 5.07107 50.6596 5.09067C50.6743 5.1324 50.6887 5.17428 50.7033 5.21615C50.7131 5.24437 50.719 5.246 50.7389 5.22373C50.8292 5.12379 50.9164 5.02117 50.9985 4.9144C51.0095 4.90015 51.009 4.89673 50.9985 4.88129C50.9756 4.84743 50.9453 4.82041 50.9164 4.79234C50.8488 4.72655 50.7775 4.66522 50.7022 4.60835C50.6353 4.55756 50.5607 4.52029 50.4857 4.48376C50.4006 4.44248 50.3139 4.40461 50.2247 4.37328C50.106 4.33155 49.9856 4.29725 49.8607 4.27958C49.787 4.26903 49.7129 4.2619 49.639 4.25374C49.5971 4.24899 49.5552 4.24334 49.5135 4.23814C49.5089 4.23755 49.504 4.23696 49.5 4.23131C49.5143 4.22523 49.5291 4.22389 49.5435 4.22315C49.6663 4.21676 49.7887 4.20161 49.9119 4.20325C50.0566 4.20518 50.1996 4.21884 50.3403 4.25359C50.4355 4.27705 50.5266 4.31135 50.6148 4.35382C50.7024 4.396 50.7887 4.4404 50.868 4.49742C50.9358 4.54628 50.9994 4.60033 51.0598 4.65795C51.0845 4.68141 51.1091 4.70472 51.1323 4.72952C51.1418 4.73962 51.1479 4.73799 51.1563 4.73012C51.1849 4.70383 51.2138 4.67829 51.2419 4.65156C51.3608 4.53856 51.493 4.44426 51.6402 4.3712C51.7316 4.32576 51.8267 4.28967 51.9248 4.26161C52.0286 4.23191 52.1347 4.21542 52.2423 4.20845C52.3451 4.20161 52.4478 4.20488 52.5506 4.21008C52.6051 4.2129 52.6597 4.21498 52.7142 4.21899C52.7533 4.22181 52.7921 4.2273 52.831 4.23176C52.836 4.23221 52.8414 4.23295 52.8468 4.23874ZM51.8925 5.59304C51.8976 5.59304 51.9028 5.59334 51.9079 5.59304C51.9514 5.59007 51.9764 5.57151 51.9864 5.53468C51.9945 5.50513 51.9798 5.46325 51.955 5.44558C51.9336 5.43029 51.9066 5.44068 51.8954 5.46919C51.888 5.48805 51.8837 5.5078 51.8826 5.52815C51.8815 5.54834 51.8731 5.55458 51.8531 5.5525C51.8449 5.55161 51.8372 5.54864 51.8296 5.54597C51.7821 5.52933 51.7441 5.49934 51.7099 5.4631C51.6911 5.44321 51.6701 5.42509 51.6505 5.40578C51.6436 5.39895 51.64 5.40044 51.6355 5.40831C51.625 5.42672 51.626 5.44217 51.6404 5.45791C51.6635 5.483 51.6881 5.50647 51.7156 5.52636C51.7685 5.56483 51.8259 5.59126 51.8925 5.59304ZM50.3161 5.51389C50.3161 5.5669 50.3395 5.59349 50.3905 5.59512C50.4413 5.59675 50.4896 5.58324 50.5337 5.55799C50.5823 5.53023 50.6218 5.49087 50.6633 5.45434C50.6746 5.44439 50.6763 5.43073 50.6712 5.41633C50.666 5.40163 50.6645 5.40073 50.6519 5.40905C50.6455 5.41321 50.6393 5.41796 50.6335 5.42316C50.5978 5.45479 50.5621 5.48642 50.5267 5.51849C50.5052 5.53824 50.4807 5.54923 50.4513 5.55012C50.4277 5.55087 50.4202 5.54493 50.4171 5.52176C50.4149 5.50513 50.4116 5.48865 50.4094 5.47201C50.4069 5.4536 50.3971 5.44187 50.3788 5.43845C50.3597 5.43489 50.3438 5.44113 50.3326 5.45716C50.3205 5.47469 50.3172 5.49503 50.3161 5.51389ZM51.3653 5.5035C51.3544 5.50335 51.3475 5.50899 51.3438 5.51879C51.336 5.53884 51.3454 5.56156 51.3647 5.57106C51.3997 5.58844 51.4333 5.58294 51.4625 5.56022C51.5006 5.53067 51.5306 5.49414 51.55 5.449C51.5846 5.36896 51.6203 5.28921 51.6556 5.20962C51.6651 5.18823 51.6791 5.17056 51.7021 5.1621C51.7098 5.15928 51.7148 5.15349 51.7197 5.14755C51.7306 5.13448 51.7281 5.11889 51.7132 5.10567C51.7006 5.09438 51.6865 5.09483 51.6746 5.10775C51.6627 5.12052 51.6553 5.13626 51.6492 5.1523C51.6229 5.22135 51.5968 5.29055 51.571 5.35975C51.5511 5.41306 51.5237 5.46177 51.4859 5.50439C51.4704 5.52176 51.4513 5.528 51.429 5.52265C51.4195 5.52042 51.4104 5.51597 51.4011 5.51285C51.3895 5.50884 51.3781 5.50379 51.3653 5.5035ZM50.8997 5.57849C50.9104 5.57893 50.9326 5.57121 50.9404 5.56423C50.9532 5.55295 50.9584 5.528 50.9507 5.51434C50.9441 5.5029 50.9336 5.50157 50.9113 5.50869C50.8971 5.5133 50.8827 5.5182 50.8681 5.52176C50.8458 5.5274 50.8264 5.52161 50.8106 5.50453C50.7986 5.49147 50.7881 5.47736 50.7808 5.46117C50.741 5.37267 50.7003 5.28446 50.6663 5.19328C50.6553 5.16373 50.6425 5.13522 50.6234 5.10983C50.6169 5.10122 50.6087 5.09631 50.5978 5.09869C50.586 5.10122 50.5779 5.10849 50.5754 5.12082C50.5716 5.13878 50.5782 5.15304 50.5959 5.16061C50.6228 5.17205 50.6409 5.19165 50.6519 5.21823C50.6789 5.28283 50.7062 5.34742 50.7322 5.41247C50.7527 5.46385 50.7786 5.51122 50.8222 5.54701C50.8448 5.56587 50.8702 5.577 50.8997 5.57849ZM51.5407 5.30837C51.5407 5.29842 51.535 5.28921 51.527 5.2809C51.4841 5.23575 51.4415 5.19031 51.3982 5.14547C51.3822 5.12884 51.3674 5.11072 51.3484 5.09706C51.3442 5.09394 51.339 5.09216 51.3353 5.09527C51.3316 5.09839 51.3369 5.10181 51.3384 5.10508C51.3396 5.10775 51.3414 5.11027 51.343 5.1128C51.3947 5.18571 51.4464 5.25862 51.498 5.33168C51.5026 5.33807 51.508 5.34356 51.5151 5.34698C51.5188 5.34876 51.5228 5.35025 51.5254 5.34579C51.5319 5.33436 51.5401 5.32396 51.5407 5.30837ZM50.9544 5.09631C50.9519 5.09438 50.9505 5.09587 50.949 5.09646C50.9323 5.10315 50.9219 5.1171 50.9103 5.12973C50.8635 5.18066 50.8169 5.23174 50.7701 5.28268C50.7642 5.28921 50.7599 5.29649 50.7579 5.3051C50.7548 5.31921 50.7642 5.33673 50.7793 5.34238C50.791 5.34683 50.7924 5.33302 50.7992 5.32871C50.7995 5.32857 50.7998 5.32797 50.8 5.32767C50.8497 5.26501 50.8947 5.19893 50.9363 5.13077C50.9433 5.11978 50.9504 5.10879 50.9544 5.09631Z" fill="black"/>
<path d="M50.3595 10V8.18182H50.799V8.95064H50.823L51.424 8.18182H51.9416L51.297 8.99325L51.9531 10H51.4275L50.9748 9.28533L50.799 9.50728V10H50.3595ZM51.3948 11.7269C51.3889 11.6618 51.3625 11.6112 51.3158 11.5751C51.2696 11.5384 51.2036 11.5201 51.1178 11.5201C51.061 11.5201 51.0136 11.5275 50.9758 11.5423C50.9379 11.5571 50.9095 11.5775 50.8905 11.6035C50.8716 11.629 50.8618 11.6583 50.8612 11.6914C50.8601 11.7186 50.8654 11.7426 50.8772 11.7633C50.8896 11.784 50.9074 11.8024 50.9305 11.8184C50.9542 11.8337 50.9826 11.8474 51.0157 11.8592C51.0489 11.871 51.0861 11.8814 51.1276 11.8903L51.2838 11.9258C51.3738 11.9453 51.4531 11.9714 51.5218 12.0039C51.591 12.0365 51.649 12.0752 51.6958 12.1202C51.7431 12.1652 51.7789 12.217 51.8032 12.2756C51.8274 12.3342 51.8399 12.3999 51.8405 12.4727C51.8399 12.5875 51.8109 12.686 51.7535 12.7683C51.6961 12.8506 51.6135 12.9136 51.5058 12.9574C51.3986 13.0012 51.2693 13.0231 51.1178 13.0231C50.9657 13.0231 50.8331 13.0003 50.7201 12.9547C50.607 12.9092 50.5191 12.8399 50.4564 12.747C50.3937 12.6541 50.3614 12.5366 50.3596 12.3945H50.7805C50.784 12.4531 50.7997 12.502 50.8275 12.541C50.8553 12.5801 50.8935 12.6097 50.942 12.6298C50.9912 12.6499 51.048 12.66 51.1125 12.66C51.1717 12.66 51.222 12.652 51.2634 12.636C51.3054 12.62 51.3377 12.5978 51.3602 12.5694C51.3827 12.541 51.3942 12.5085 51.3948 12.4718C51.3942 12.4374 51.3836 12.4081 51.3628 12.3839C51.3421 12.359 51.3102 12.3377 51.267 12.32C51.2243 12.3016 51.1699 12.2847 51.1036 12.2694L50.9136 12.225C50.7562 12.1889 50.6322 12.1306 50.5416 12.0501C50.4511 11.969 50.4061 11.8595 50.4067 11.7216C50.4061 11.6091 50.4363 11.5106 50.4972 11.426C50.5582 11.3413 50.6425 11.2753 50.7503 11.228C50.858 11.1806 50.9808 11.157 51.1187 11.157C51.2596 11.157 51.3818 11.1809 51.4854 11.2289C51.5895 11.2762 51.6703 11.3428 51.7277 11.4286C51.7851 11.5144 51.8144 11.6139 51.8156 11.7269H51.3948ZM50.6661 16H50.1938L50.8073 14.1818H51.3924L52.0058 16H51.5335L51.1065 14.6399H51.0923L50.6661 16ZM50.6031 15.2844H51.5903V15.6183H50.6031V15.2844Z" fill="black"/>
<path d="M49.7741 7.005C49.7308 7.005 49.6931 6.99933 49.6611 6.988C49.6298 6.976 49.6051 6.95667 49.5871 6.93C49.5691 6.90333 49.5591 6.867 49.5571 6.821L49.5391 6.439H49.6581L49.6741 6.784C49.6761 6.81267 49.6811 6.83467 49.6891 6.85C49.6978 6.86467 49.7098 6.87467 49.7251 6.88C49.7405 6.88467 49.7601 6.887 49.7841 6.887C49.8048 6.887 49.8195 6.89267 49.8281 6.904C49.8375 6.91467 49.8421 6.928 49.8421 6.944C49.8421 6.96067 49.8361 6.975 49.8241 6.987C49.8121 6.999 49.7955 7.005 49.7741 7.005ZM49.6031 6.906C49.5605 6.91667 49.5195 6.92167 49.4801 6.921C49.4408 6.92033 49.4055 6.91367 49.3741 6.901C49.3428 6.88833 49.3178 6.87033 49.2991 6.847C49.2811 6.823 49.2721 6.793 49.2721 6.757C49.2721 6.72433 49.2798 6.69433 49.2951 6.667C49.3105 6.63967 49.3315 6.61567 49.3581 6.595C49.3855 6.57367 49.4171 6.556 49.4531 6.542C49.4891 6.52733 49.5281 6.51667 49.5701 6.51L49.5841 6.63C49.5535 6.63133 49.5261 6.63533 49.5021 6.642C49.4781 6.64867 49.4578 6.65767 49.4411 6.669C49.4245 6.67967 49.4115 6.69133 49.4021 6.704C49.3935 6.71667 49.3891 6.73 49.3891 6.744C49.3891 6.75667 49.3935 6.767 49.4021 6.775C49.4115 6.783 49.4235 6.78933 49.4381 6.794C49.4528 6.79867 49.4691 6.80133 49.4871 6.802C49.5058 6.80267 49.5241 6.802 49.5421 6.8C49.5608 6.79733 49.5785 6.793 49.5951 6.787L49.6031 6.906ZM49.5961 6.332C49.5788 6.332 49.5641 6.326 49.5521 6.314C49.5401 6.30133 49.5341 6.28667 49.5341 6.27C49.5341 6.25333 49.5401 6.23867 49.5521 6.226C49.5641 6.21333 49.5788 6.207 49.5961 6.207C49.6128 6.207 49.6271 6.21333 49.6391 6.226C49.6511 6.23867 49.6571 6.25333 49.6571 6.27C49.6571 6.28667 49.6511 6.30133 49.6391 6.314C49.6271 6.326 49.6128 6.332 49.5961 6.332ZM49.4371 6.331C49.4198 6.331 49.4048 6.325 49.3921 6.313C49.3801 6.301 49.3741 6.28667 49.3741 6.27C49.3741 6.25333 49.3801 6.23867 49.3921 6.226C49.4041 6.21333 49.4191 6.207 49.4371 6.207C49.4538 6.207 49.4681 6.21333 49.4801 6.226C49.4921 6.23867 49.4981 6.25333 49.4981 6.27C49.4981 6.28667 49.4921 6.301 49.4801 6.313C49.4681 6.325 49.4538 6.331 49.4371 6.331ZM49.7744 7.005L49.7844 6.887C49.8244 6.887 49.8551 6.88533 49.8764 6.882C49.8977 6.878 49.9127 6.87033 49.9214 6.859C49.9307 6.847 49.9354 6.82967 49.9354 6.807C49.9354 6.789 49.9327 6.76767 49.9274 6.743C49.9221 6.71833 49.9154 6.69233 49.9074 6.665C49.8994 6.63767 49.8907 6.612 49.8814 6.588L49.9984 6.553C50.0071 6.575 50.0151 6.60067 50.0224 6.63C50.0304 6.65867 50.0371 6.688 50.0424 6.718C50.0477 6.74733 50.0504 6.775 50.0504 6.801C50.0504 6.84167 50.0441 6.87533 50.0314 6.902C50.0194 6.92867 50.0014 6.94967 49.9774 6.965C49.9541 6.97967 49.9251 6.99 49.8904 6.996C49.8564 7.002 49.8177 7.005 49.7744 7.005ZM49.9984 7.221C49.9811 7.221 49.9661 7.21467 49.9534 7.202C49.9414 7.19 49.9354 7.17567 49.9354 7.159C49.9354 7.14233 49.9414 7.12767 49.9534 7.115C49.9654 7.10233 49.9804 7.096 49.9984 7.096C50.0151 7.096 50.0291 7.10233 50.0404 7.115C50.0524 7.12767 50.0584 7.14233 50.0584 7.159C50.0584 7.17567 50.0524 7.19 50.0404 7.202C50.0284 7.21467 50.0144 7.221 49.9984 7.221ZM49.8384 7.221C49.8211 7.221 49.8064 7.21467 49.7944 7.202C49.7824 7.19 49.7764 7.17567 49.7764 7.159C49.7764 7.14233 49.7824 7.12767 49.7944 7.115C49.8064 7.10233 49.8211 7.096 49.8384 7.096C49.8551 7.096 49.8694 7.10233 49.8814 7.115C49.8934 7.12767 49.8994 7.14233 49.8994 7.159C49.8994 7.17567 49.8934 7.19 49.8814 7.202C49.8694 7.21467 49.8551 7.221 49.8384 7.221ZM50.1454 6.958L50.1914 6.853C50.2114 6.863 50.233 6.87133 50.2564 6.878C50.2797 6.884 50.3044 6.887 50.3304 6.887C50.3577 6.887 50.3797 6.88433 50.3964 6.879C50.4137 6.87367 50.4264 6.866 50.4344 6.856C50.443 6.84533 50.4474 6.833 50.4474 6.819C50.4474 6.807 50.444 6.79133 50.4374 6.772C50.4314 6.752 50.419 6.72567 50.4004 6.693C50.3824 6.65967 50.3554 6.61767 50.3194 6.567L50.4194 6.501C50.4527 6.54767 50.4804 6.592 50.5024 6.634C50.525 6.67533 50.542 6.71333 50.5534 6.748C50.5654 6.782 50.5714 6.81167 50.5714 6.837C50.5714 6.86833 50.563 6.89667 50.5464 6.922C50.5297 6.94733 50.5044 6.96767 50.4704 6.983C50.4364 6.99833 50.3927 7.006 50.3394 7.006C50.3187 7.006 50.2967 7.004 50.2734 7C50.25 6.99667 50.227 6.99167 50.2044 6.985C50.1824 6.97767 50.1627 6.96867 50.1454 6.958ZM50.6693 7.23L50.6453 7.112C50.6893 7.106 50.7286 7.09867 50.7633 7.09C50.798 7.08133 50.8273 7.069 50.8513 7.053C50.876 7.037 50.8943 7.01567 50.9063 6.989C50.919 6.96167 50.9253 6.927 50.9253 6.885C50.9253 6.84367 50.9183 6.81 50.9043 6.784C50.891 6.758 50.873 6.745 50.8503 6.745C50.8363 6.745 50.824 6.75 50.8133 6.76C50.8033 6.77 50.7956 6.78267 50.7903 6.798C50.785 6.81267 50.7823 6.827 50.7823 6.841C50.7823 6.84967 50.7843 6.85767 50.7883 6.865C50.7923 6.87167 50.7996 6.87733 50.8103 6.882C50.8216 6.886 50.8376 6.88867 50.8583 6.89C50.8796 6.89133 50.9076 6.89033 50.9423 6.887H51.1263C51.147 6.887 51.162 6.89267 51.1713 6.904C51.1806 6.91467 51.1853 6.928 51.1853 6.944C51.1853 6.96067 51.179 6.975 51.1663 6.987C51.1543 6.999 51.1376 7.005 51.1163 7.005H50.8543C50.817 7.005 50.784 7.00033 50.7553 6.991C50.7273 6.98167 50.7053 6.96667 50.6893 6.946C50.6733 6.92467 50.6653 6.89667 50.6653 6.862C50.6653 6.83267 50.6703 6.804 50.6803 6.776C50.6903 6.74733 50.7036 6.72133 50.7203 6.698C50.7376 6.67467 50.758 6.65633 50.7813 6.643C50.8046 6.629 50.83 6.622 50.8573 6.622C50.894 6.622 50.926 6.633 50.9533 6.655C50.9813 6.677 51.0033 6.70767 51.0193 6.747C51.0353 6.78567 51.0433 6.83067 51.0433 6.882C51.0433 6.952 51.0286 7.01167 50.9993 7.061C50.97 7.111 50.9273 7.15 50.8713 7.178C50.8153 7.20667 50.748 7.224 50.6693 7.23ZM51.1142 7.005L51.1242 6.887C51.1682 6.887 51.2082 6.88367 51.2442 6.877C51.2809 6.86967 51.3135 6.86033 51.3422 6.849C51.3715 6.83767 51.3962 6.82433 51.4162 6.809C51.4362 6.79367 51.4512 6.77767 51.4612 6.761C51.4719 6.74433 51.4772 6.728 51.4772 6.712C51.4772 6.70333 51.4745 6.695 51.4692 6.687C51.4645 6.67833 51.4562 6.67133 51.4442 6.666C51.4329 6.66067 51.4172 6.658 51.3972 6.658C51.3865 6.658 51.3739 6.65933 51.3592 6.662C51.3452 6.66467 51.3312 6.66867 51.3172 6.674C51.3039 6.67867 51.2919 6.68467 51.2812 6.692C51.2972 6.704 51.3132 6.71767 51.3292 6.733C51.3452 6.74833 51.3615 6.76467 51.3782 6.782C51.3949 6.79933 51.4109 6.817 51.4262 6.835C51.4402 6.843 51.4562 6.85033 51.4742 6.857C51.4922 6.86367 51.5115 6.86933 51.5322 6.874C51.5529 6.878 51.5745 6.88133 51.5972 6.884C51.6199 6.886 51.6429 6.887 51.6662 6.887C51.6869 6.887 51.7019 6.89267 51.7112 6.904C51.7205 6.91467 51.7252 6.928 51.7252 6.944C51.7252 6.96067 51.7189 6.975 51.7062 6.987C51.6942 6.999 51.6775 7.005 51.6562 7.005C51.6089 7.005 51.5652 7.00133 51.5252 6.994C51.4852 6.986 51.4485 6.97433 51.4152 6.959C51.3825 6.943 51.3532 6.92367 51.3272 6.901C51.3179 6.88633 51.3062 6.87133 51.2922 6.856C51.2782 6.84 51.2632 6.82433 51.2472 6.809C51.2312 6.79367 51.2155 6.78067 51.2002 6.77C51.1969 6.76667 51.1929 6.76 51.1882 6.75C51.1842 6.73933 51.1805 6.72833 51.1772 6.717C51.1745 6.705 51.1732 6.69633 51.1732 6.691C51.1732 6.67767 51.1799 6.663 51.1932 6.647C51.2072 6.631 51.2259 6.616 51.2492 6.602C51.2725 6.58733 51.2985 6.57533 51.3272 6.566C51.3559 6.55667 51.3852 6.552 51.4152 6.552C51.4559 6.552 51.4892 6.558 51.5152 6.57C51.5412 6.582 51.5605 6.59833 51.5732 6.619C51.5865 6.639 51.5932 6.66167 51.5932 6.687C51.5932 6.71767 51.5859 6.74833 51.5712 6.779C51.5572 6.80967 51.5365 6.83867 51.5092 6.866C51.4825 6.89267 51.4495 6.91667 51.4102 6.938C51.3715 6.95867 51.3272 6.975 51.2772 6.987C51.2272 6.999 51.1729 7.005 51.1142 7.005ZM51.6562 7.005L51.6663 6.887C51.6883 6.887 51.7059 6.88533 51.7193 6.882C51.7333 6.87867 51.7446 6.87067 51.7533 6.858C51.7626 6.84467 51.7709 6.825 51.7783 6.799C51.7856 6.77233 51.7939 6.73567 51.8032 6.689L51.9123 6.712C51.9096 6.72733 51.9059 6.74633 51.9013 6.769C51.8966 6.79167 51.8943 6.81167 51.8943 6.829C51.8943 6.841 51.8966 6.85133 51.9013 6.86C51.9066 6.86867 51.9156 6.87533 51.9283 6.88C51.9409 6.88467 51.9583 6.887 51.9803 6.887C51.9983 6.887 52.0136 6.88533 52.0263 6.882C52.0389 6.878 52.0496 6.86967 52.0583 6.857C52.0669 6.84433 52.0746 6.824 52.0813 6.796C52.0879 6.768 52.0949 6.73 52.1023 6.682L52.2133 6.701C52.2106 6.715 52.2079 6.73067 52.2053 6.748C52.2026 6.76533 52.2003 6.782 52.1983 6.798C52.1963 6.81333 52.1953 6.826 52.1953 6.836C52.1953 6.84467 52.1976 6.853 52.2023 6.861C52.2069 6.869 52.2159 6.87533 52.2293 6.88C52.2426 6.88467 52.2619 6.887 52.2873 6.887C52.3186 6.887 52.3416 6.88033 52.3563 6.867C52.3709 6.85367 52.3783 6.83333 52.3783 6.806C52.3783 6.79067 52.3779 6.77433 52.3773 6.757C52.3766 6.739 52.3753 6.71933 52.3733 6.698C52.3719 6.676 52.3693 6.651 52.3653 6.623L52.4733 6.615C52.4773 6.671 52.4819 6.71667 52.4873 6.752C52.4933 6.78733 52.5013 6.815 52.5113 6.835C52.5219 6.85433 52.5356 6.868 52.5523 6.876C52.5696 6.88333 52.5926 6.887 52.6213 6.887C52.6419 6.887 52.6569 6.89267 52.6662 6.904C52.6756 6.91467 52.6803 6.928 52.6803 6.944C52.6803 6.96067 52.6743 6.975 52.6623 6.987C52.6503 6.999 52.6333 7.005 52.6113 7.005C52.5913 7.005 52.5719 7.003 52.5533 6.999C52.5346 6.99433 52.5173 6.98733 52.5013 6.978C52.4853 6.968 52.4713 6.955 52.4593 6.939C52.4473 6.92233 52.4383 6.90233 52.4323 6.879L52.4503 6.885C52.4416 6.917 52.4293 6.94167 52.4133 6.959C52.3973 6.97633 52.3779 6.98833 52.3553 6.995C52.3326 7.00167 52.3066 7.005 52.2773 7.005C52.2479 7.005 52.2223 7.00133 52.2003 6.994C52.1789 6.986 52.1619 6.97367 52.1493 6.957C52.1373 6.93967 52.1303 6.91667 52.1283 6.888H52.1623C52.1496 6.922 52.1349 6.94733 52.1183 6.964C52.1023 6.98067 52.0826 6.99167 52.0593 6.997C52.0366 7.00233 52.0073 7.005 51.9713 7.005C51.9506 7.005 51.9299 7.00267 51.9093 6.998C51.8886 6.99267 51.8699 6.98133 51.8533 6.964C51.8373 6.94667 51.8263 6.91967 51.8203 6.883L51.8653 6.879C51.8526 6.91633 51.8363 6.944 51.8163 6.962C51.7963 6.97933 51.7729 6.991 51.7463 6.997C51.7196 7.00233 51.6896 7.005 51.6562 7.005ZM52.6113 7.005L52.6213 6.887C52.6547 6.887 52.6783 6.88367 52.6923 6.877C52.7063 6.87033 52.7147 6.858 52.7173 6.84C52.72 6.822 52.7207 6.796 52.7193 6.762L52.7003 6.275H52.8193L52.8393 6.765C52.8407 6.80233 52.839 6.836 52.8343 6.866C52.8303 6.89533 52.8207 6.92033 52.8053 6.941C52.79 6.96167 52.7667 6.97767 52.7353 6.989C52.7047 6.99967 52.6633 7.005 52.6113 7.005ZM52.9795 7L52.9585 6.275H53.0765L53.0965 7H52.9795Z" fill="black"/>
<path d="M25.1788 6.60701C25.1759 6.61571 25.1729 6.62385 25.171 6.63236C25.1693 6.63955 25.1657 6.64484 25.1583 6.64257C25.1288 6.63387 25.1322 6.65316 25.1351 6.67018C25.1428 6.71841 25.1339 6.76494 25.1226 6.81166C25.1201 6.82187 25.1167 6.82887 25.1054 6.82735C25.0868 6.8249 25.0872 6.83435 25.0906 6.84778C25.0955 6.86688 25.1001 6.88617 25.1033 6.90566C25.1058 6.92116 25.1046 6.93629 25.0895 6.9467C25.0806 6.95294 25.0795 6.96277 25.0787 6.97299C25.0776 6.98944 25.0836 7.00476 25.0853 7.02462C25.0626 7.01289 25.0556 6.99228 25.0447 6.97507C25.0401 6.96788 25.0373 6.95445 25.0275 6.95823C25.0178 6.96202 25.0235 6.97393 25.0259 6.98225C25.039 7.02708 25.0519 7.07209 25.0653 7.11692C25.0713 7.13678 25.0711 7.15455 25.0513 7.16647C25.0377 7.1746 25.0428 7.18652 25.0445 7.19787C25.0606 7.30208 25.0768 7.4061 25.0734 7.51202C25.073 7.52507 25.0795 7.54474 25.0676 7.54965C25.0515 7.55646 25.038 7.54039 25.0276 7.52828C24.9662 7.45679 24.9179 7.37679 24.8816 7.28997C24.7984 7.09025 24.771 6.88182 24.7829 6.66659C24.7886 6.56484 24.8117 6.46516 24.8188 6.36379C24.8205 6.33863 24.8236 6.31367 24.8213 6.28833C24.8205 6.27963 24.8204 6.26847 24.8096 6.26676C24.8005 6.26544 24.7926 6.27149 24.7867 6.27887C24.7765 6.29173 24.777 6.30743 24.774 6.32237C24.771 6.33712 24.7704 6.35774 24.7475 6.33712C24.7421 6.3322 24.7356 6.33145 24.7307 6.33693C24.7163 6.35244 24.7004 6.34942 24.6806 6.33769C24.6806 6.37495 24.6808 6.40767 24.6804 6.44039C24.6804 6.44625 24.6836 6.45495 24.6759 6.45703C24.6658 6.45968 24.666 6.44928 24.6634 6.44323C24.6617 6.43906 24.6613 6.43434 24.6596 6.43018C24.6564 6.42223 24.6583 6.40767 24.6482 6.40842C24.6356 6.40937 24.6354 6.42431 24.635 6.43434C24.6342 6.46233 24.6384 6.48994 24.6441 6.51737C24.6465 6.52947 24.6473 6.54195 24.649 6.55595C24.625 6.55292 24.6182 6.53647 24.6116 6.51963C24.6055 6.50432 24.6046 6.48578 24.5851 6.47708C24.5728 6.5115 24.5811 6.54592 24.5779 6.5794C24.5769 6.59018 24.583 6.60815 24.5707 6.61042C24.5561 6.61288 24.5548 6.59453 24.5501 6.58318C24.5452 6.57127 24.5448 6.55027 24.5297 6.55273C24.5172 6.55481 24.52 6.57505 24.5196 6.58791C24.5189 6.61723 24.53 6.64427 24.5368 6.67227C24.5403 6.68607 24.5433 6.70007 24.5474 6.71822C24.537 6.71425 24.5298 6.71217 24.5232 6.70915C24.5002 6.69874 24.493 6.70234 24.4977 6.7273C24.5043 6.76248 24.5147 6.79709 24.5249 6.83152C24.5289 6.84513 24.5312 6.85421 24.5123 6.85421C24.4939 6.85421 24.4935 6.86783 24.4943 6.88088C24.4956 6.90282 24.5068 6.92211 24.5128 6.94273C24.5229 6.97658 24.527 7.00949 24.5085 7.04183C24.503 7.05148 24.5022 7.06264 24.5034 7.07342C24.5047 7.08628 24.5005 7.0946 24.4873 7.09668C24.4712 7.09933 24.4737 7.1103 24.4758 7.12127C24.4792 7.13942 24.4854 7.1572 24.4843 7.1763C24.4725 7.17744 24.4689 7.16931 24.4655 7.1625C24.4132 7.05904 24.354 6.95899 24.3088 6.85194C24.2278 6.66054 24.2509 6.47765 24.3551 6.30175C24.3863 6.24899 24.4224 6.19962 24.4584 6.15026C24.4845 6.11432 24.5085 6.07763 24.5138 6.03205C24.5159 6.01352 24.517 5.99517 24.5075 5.97796C24.4969 5.98098 24.4947 5.98987 24.4909 5.9963C24.4812 6.01257 24.4712 6.02089 24.4538 6.00576C24.4408 5.99441 24.4357 6.00255 24.433 6.01541C24.4309 6.02505 24.4271 6.03451 24.4264 6.04434C24.4251 6.06326 24.416 6.07234 24.3971 6.07026C24.3835 6.06874 24.3784 6.07631 24.374 6.08766C24.3628 6.11792 24.3507 6.1478 24.3373 6.18222C24.328 6.16293 24.3205 6.14723 24.312 6.12945C24.2834 6.1635 24.2851 6.2087 24.2609 6.24482C24.2516 6.23329 24.2435 6.22307 24.2335 6.21059C24.2242 6.23518 24.2144 6.25731 24.2076 6.28019C24.2025 6.29759 24.1938 6.30194 24.1782 6.29495C24.1641 6.28851 24.1593 6.29476 24.1569 6.30818C24.1493 6.34942 24.1406 6.39027 24.1319 6.4332C24.1156 6.42299 24.1138 6.40426 24.0992 6.39424C24.0844 6.41315 24.0843 6.43528 24.0852 6.4559C24.0877 6.50526 24.065 6.54649 24.0459 6.58905C24.0442 6.59283 24.0398 6.59907 24.0377 6.59869C24.0065 6.59283 24.0128 6.61761 24.0114 6.63274C24.0056 6.69629 23.9948 6.75964 24.0046 6.82376C24.0075 6.84286 24.0033 6.86102 23.9927 6.87804C23.9827 6.89412 23.9751 6.89128 23.9702 6.87596C23.9611 6.84778 23.9528 6.81922 23.945 6.79066C23.9152 6.67907 23.8949 6.56559 23.8946 6.44984C23.894 6.26714 23.9589 6.11186 24.0931 5.98515C24.2244 5.86126 24.37 5.76197 24.5433 5.70655C24.5877 5.69237 24.6339 5.6831 24.6766 5.664C24.683 5.66116 24.6933 5.65946 24.6925 5.6517C24.6917 5.64376 24.6823 5.63771 24.6743 5.63809C24.6216 5.64092 24.5665 5.62466 24.5172 5.6587C24.4932 5.67535 24.4669 5.68121 24.44 5.65965C24.4271 5.64925 24.3594 5.664 24.3471 5.67743C24.3388 5.6865 24.3307 5.69596 24.3231 5.70466C24.3123 5.70182 24.3157 5.69388 24.3133 5.68877C24.3097 5.68102 24.3133 5.66835 24.3036 5.66532C24.2921 5.66173 24.283 5.67137 24.2758 5.67875C24.2671 5.68764 24.2603 5.69842 24.2531 5.70882C24.2429 5.72339 24.232 5.73284 24.2132 5.7213C24.1966 5.71109 24.1887 5.72509 24.1807 5.73549C24.1716 5.74759 24.1631 5.7527 24.151 5.73889C24.1419 5.7283 24.1357 5.73038 24.1304 5.74362C24.1225 5.76367 24.1121 5.78258 24.1041 5.80263C24.0988 5.81587 24.0924 5.81984 24.0805 5.81076C24.0672 5.80074 24.0578 5.80471 24.05 5.81833C24.0428 5.83062 24.033 5.8414 24.0281 5.8554C24.0198 5.87885 24.0046 5.89739 23.9853 5.91309C23.9679 5.92727 23.9509 5.94202 23.9386 5.96131C23.936 5.96566 23.9309 5.97172 23.9271 5.97153C23.8947 5.96945 23.8961 5.99441 23.8913 6.01446C23.8866 6.03451 23.8817 6.05475 23.8775 6.07498C23.8736 6.09484 23.8692 6.113 23.8461 6.12094C23.8321 6.12567 23.8327 6.14118 23.8329 6.15385C23.8335 6.17447 23.8287 6.1983 23.8079 6.1983C23.7849 6.1983 23.7845 6.17087 23.7854 6.1531C23.8002 5.89474 23.9057 5.68575 24.124 5.53993C24.2741 5.43969 24.4425 5.39221 24.6208 5.375C24.6844 5.36895 24.7477 5.36101 24.81 5.34512C24.8313 5.33963 24.8506 5.3315 24.8637 5.3071C24.7787 5.30143 24.6976 5.27136 24.6138 5.29821C24.6034 5.30162 24.5921 5.30691 24.5824 5.30067C24.5524 5.28138 24.5283 5.29538 24.5037 5.31202C24.4966 5.31694 24.4865 5.32753 24.479 5.31335C24.4689 5.29443 24.4561 5.29708 24.4413 5.3054C24.3889 5.3351 24.329 5.34739 24.2728 5.35949C24.1945 5.37614 24.1438 5.43307 24.0767 5.4639C24.0682 5.46787 24.0597 5.48148 24.0513 5.47335C24.0413 5.46371 24.0553 5.45406 24.0604 5.44631C24.1434 5.32205 24.2499 5.22143 24.3715 5.13537C24.5087 5.03835 24.6611 5.00355 24.8268 5.01905C24.9074 5.02662 24.9881 5.03494 25.0687 5.04175C25.0836 5.04307 25.1071 5.04988 25.1116 5.03343C25.115 5.02151 25.092 5.01281 25.0778 5.00827C25.0388 4.9956 25.0085 4.96591 24.9698 4.9538C24.9312 4.9417 24.8934 4.92827 24.8578 4.90879C24.8315 4.89442 24.7956 4.90444 24.774 4.87683C24.7729 4.87531 24.7672 4.87664 24.764 4.87796C24.7027 4.90312 24.6371 4.90974 24.5732 4.92354C24.5554 4.92732 24.5403 4.93716 24.5204 4.94586C24.5232 4.91673 24.5395 4.89914 24.5575 4.88401C24.6193 4.83257 24.694 4.80893 24.7704 4.79134C24.9198 4.75729 25.0577 4.78718 25.1856 4.86945C25.2317 4.89914 25.2788 4.92714 25.3316 4.94454C25.3477 4.94983 25.3518 4.94832 25.352 4.93111C25.3531 4.8617 25.3601 4.79285 25.3694 4.72401C25.3719 4.70585 25.3779 4.69791 25.3959 4.69961C25.4163 4.7015 25.4226 4.69337 25.4243 4.67218C25.428 4.62131 25.4205 4.5693 25.4375 4.51955C25.44 4.51218 25.4383 4.50121 25.4483 4.50007C25.46 4.49894 25.4606 4.51123 25.4642 4.5188C25.4795 4.55076 25.4732 4.58613 25.4787 4.61961C25.4814 4.63549 25.4806 4.65195 25.4823 4.66802C25.4838 4.68334 25.4859 4.69772 25.5029 4.70585C25.5154 4.7119 25.5171 4.7259 25.5173 4.73876C25.5177 4.75502 25.5177 4.7711 25.5181 4.78737C25.5188 4.81006 25.5222 4.83106 25.5381 4.84997C25.5549 4.87021 25.5563 4.89612 25.5553 4.92184C25.5538 4.96572 25.5567 4.96912 25.5967 4.95172C25.652 4.9277 25.7047 4.8982 25.7558 4.86623C25.8608 4.80079 25.9733 4.77356 26.0962 4.79531C26.1753 4.80931 26.2468 4.8424 26.3158 4.88193C26.3364 4.89366 26.3518 4.91182 26.3614 4.93394C26.3695 4.95229 26.3637 4.96118 26.3436 4.9591C26.3349 4.95815 26.3264 4.95418 26.3179 4.95134C26.2583 4.93205 26.1959 4.91106 26.1358 4.93035C26.0894 4.94529 26.0452 4.95399 25.997 4.95532C25.9578 4.95645 25.9279 4.98652 25.8907 5.00487C25.9332 5.03759 25.9796 5.03816 26.0261 5.03589C26.0836 5.03286 26.1409 5.02624 26.1984 5.02492C26.3268 5.02189 26.4414 5.06218 26.5392 5.14502C26.616 5.21008 26.6905 5.27817 26.7607 5.3506C26.7907 5.38181 26.814 5.41812 26.8331 5.46087C26.814 5.45746 26.8006 5.44744 26.7868 5.43931C26.7433 5.41377 26.6981 5.3941 26.6487 5.38011C26.6044 5.36763 26.5617 5.34625 26.5214 5.32242C26.5074 5.3141 26.4927 5.30729 26.4768 5.3037C26.4543 5.29878 26.4323 5.29613 26.4199 5.32242C26.4147 5.3332 26.4074 5.33283 26.3983 5.32583C26.3883 5.31807 26.3771 5.31202 26.3671 5.30464C26.3538 5.29481 26.3421 5.28743 26.3312 5.30824C26.3242 5.32148 26.3132 5.31297 26.3054 5.30824C26.2784 5.29178 26.2523 5.2776 26.2213 5.30143C26.215 5.30616 26.202 5.30275 26.1921 5.30219C26.1619 5.30048 26.1327 5.30332 26.1072 5.32205C26.1 5.32734 26.0927 5.32885 26.0843 5.32564C26.0819 5.32469 26.0792 5.32375 26.0766 5.32337C26.0616 5.32167 26.0301 5.3438 26.0327 5.35628C26.0357 5.37103 26.0524 5.37027 26.0633 5.3716C26.1161 5.37765 26.1691 5.38181 26.2218 5.38673C26.3285 5.39656 26.4354 5.4047 26.5388 5.43496C26.796 5.50985 26.9808 5.66551 27.0726 5.92141C27.1077 6.01976 27.1157 6.12246 27.1055 6.23102C27.0871 6.214 27.0797 6.1947 27.0699 6.17749C27.0308 6.10865 26.9924 6.03962 26.9538 5.97039C26.942 5.9494 26.9296 5.92973 26.9023 5.92822C26.8921 5.92765 26.8923 5.92008 26.8908 5.91309C26.8776 5.84992 26.8331 5.81152 26.7839 5.77634C26.7817 5.77483 26.7792 5.77369 26.7767 5.77256C26.7599 5.76518 26.7384 5.77105 26.7245 5.75402C26.7132 5.74022 26.7013 5.72698 26.6894 5.71317C26.6697 5.74154 26.6697 5.74154 26.6478 5.71506C26.6444 5.7109 26.6408 5.70674 26.6374 5.70258C26.6139 5.67402 26.6133 5.67364 26.5908 5.70447C26.5842 5.71336 26.58 5.71544 26.5729 5.70655C26.5672 5.69955 26.5611 5.69294 26.5558 5.68556C26.5451 5.67081 26.5375 5.65851 26.514 5.67308C26.4968 5.68386 26.4709 5.67156 26.4499 5.68594C26.4425 5.69104 26.4304 5.67289 26.4197 5.66683C26.4153 5.66438 26.4115 5.65776 26.4059 5.66116C26.4008 5.66419 26.4015 5.67062 26.4017 5.67572C26.4026 5.70164 26.4174 5.71941 26.4374 5.73284C26.5129 5.78353 26.5882 5.83422 26.6644 5.88377C26.7641 5.94864 26.8549 6.02222 26.9146 6.12832C26.982 6.24766 27.0005 6.37703 26.9975 6.51112C26.9944 6.64749 26.9619 6.77799 26.9201 6.90679C26.9139 6.9257 26.9084 6.9223 26.8978 6.91133C26.876 6.88901 26.8768 6.86291 26.8836 6.83568C26.8864 6.82433 26.8908 6.81336 26.8957 6.80277C26.9029 6.78745 26.8995 6.77629 26.884 6.77024C26.8672 6.76362 26.8651 6.75094 26.8664 6.73525C26.8679 6.71728 26.8679 6.69931 26.8692 6.68134C26.8706 6.66432 26.8723 6.64862 26.8463 6.65297C26.8363 6.65468 26.8358 6.64579 26.8358 6.63822C26.8358 6.61155 26.828 6.58716 26.8182 6.56257C26.8074 6.53533 26.818 6.50564 26.8119 6.47727C26.8083 6.46081 26.8076 6.4436 26.8057 6.42696C26.8021 6.42696 26.8 6.42639 26.7985 6.42696C26.7616 6.44474 26.7616 6.44493 26.758 6.40351C26.7569 6.39102 26.7546 6.37835 26.7546 6.36587C26.7548 6.34015 26.7501 6.3218 26.7174 6.33183C26.7045 6.3358 26.7036 6.32502 26.7015 6.31594C26.6939 6.28227 26.6856 6.24861 26.6765 6.21021C26.6633 6.2295 26.6531 6.24445 26.64 6.26355C26.6258 6.22062 26.6131 6.18203 26.5997 6.14118C26.5933 6.14685 26.5891 6.14988 26.5855 6.15347C26.5558 6.18241 26.5558 6.18241 26.5396 6.14269C26.5341 6.12945 26.528 6.11621 26.5237 6.1026C26.518 6.08444 26.511 6.07196 26.4881 6.06969C26.4673 6.06761 26.4598 6.04624 26.4524 6.02902C26.4463 6.01522 26.4405 6.00746 26.4227 6.01011C26.3968 6.01408 26.3786 5.99971 26.3644 5.97871C26.3563 5.9668 26.3474 5.94524 26.3323 5.95337C26.316 5.96207 26.3234 5.98325 26.3293 6.00028C26.3436 6.04226 26.3743 6.07366 26.3996 6.10827C26.4513 6.17863 26.5097 6.24407 26.5536 6.31991C26.6442 6.47689 26.6568 6.64314 26.6088 6.81544C26.574 6.94008 26.5137 7.05186 26.4367 7.15531C26.4257 7.17006 26.4149 7.18576 26.3932 7.19465C26.3947 7.17933 26.3949 7.16704 26.3972 7.15512C26.4008 7.13602 26.4076 7.11654 26.3756 7.11748C26.3663 7.11767 26.3677 7.1103 26.3699 7.10349C26.3743 7.08987 26.3782 7.07606 26.382 7.06207C26.3852 7.05072 26.3894 7.03635 26.3822 7.02784C26.3591 6.99984 26.3726 6.97393 26.3828 6.94726C26.3903 6.92703 26.3972 6.9066 26.4051 6.88636C26.4115 6.86991 26.4066 6.86424 26.39 6.8684C26.3705 6.87312 26.3671 6.86669 26.3716 6.84778C26.3822 6.80352 26.3903 6.7587 26.3996 6.71444C26.3826 6.7082 26.3688 6.73525 26.3584 6.71993C26.3516 6.7099 26.3584 6.69042 26.3593 6.67529C26.3605 6.65827 26.3616 6.64144 26.3629 6.62252C26.3448 6.62668 26.34 6.64522 26.3213 6.65505C26.3213 6.60077 26.3213 6.55027 26.3213 6.4977C26.2969 6.50337 26.2965 6.52228 26.2888 6.53514C26.2861 6.53949 26.2854 6.54668 26.2789 6.54687C26.271 6.54725 26.2693 6.53949 26.2676 6.53401C26.2617 6.51491 26.2633 6.49486 26.2617 6.47519C26.2597 6.4472 26.2566 6.44474 26.2339 6.45855C26.2199 6.46706 26.2192 6.45987 26.2179 6.44947C26.2156 6.43074 26.2129 6.41202 26.2109 6.3931C26.2093 6.38043 26.2063 6.37079 26.1912 6.38062C26.1751 6.39102 26.1694 6.38157 26.1643 6.36814C26.1524 6.33731 26.1322 6.31443 26.1 6.30308C26.0838 6.2974 26.0753 6.29816 26.0783 6.3201C26.0891 6.39764 26.1004 6.47519 26.1078 6.55311C26.1284 6.7708 26.1201 6.98642 26.0512 7.19635C26.0178 7.29848 25.9703 7.39419 25.9113 7.48421C25.8905 7.51599 25.8644 7.54303 25.8354 7.56724C25.8265 7.56119 25.8311 7.55325 25.8307 7.54682C25.8271 7.44241 25.8421 7.33764 25.833 7.2338C25.8262 7.15701 25.8377 7.0876 25.8678 7.01895C25.8691 7.01592 25.8693 7.01252 25.8708 7.00627C25.839 7.01044 25.8315 7.04107 25.8059 7.05734C25.8038 7.01857 25.8016 6.98339 25.7999 6.94802C25.7987 6.92551 25.7986 6.90301 25.7976 6.8805C25.7959 6.84248 25.7908 6.80693 25.7664 6.77421C25.7344 6.73109 25.7401 6.67624 25.7308 6.62612C25.7295 6.6195 25.7337 6.60985 25.7261 6.60664C25.7172 6.60285 25.7121 6.6125 25.7061 6.61742C25.6722 6.64598 25.6705 6.68872 25.658 6.72674C25.6255 6.82546 25.6308 6.92741 25.6346 7.02916C25.6397 7.16931 25.6435 7.30964 25.6488 7.44998C25.6616 7.79345 25.6699 8.1371 25.6718 8.48094C25.6726 8.59802 25.6741 8.7149 25.6785 8.83197C25.6817 8.91519 25.7008 8.99557 25.7375 9.07123C25.7725 9.14329 25.7747 9.2161 25.7431 9.29043C25.7038 9.38292 25.7153 9.47219 25.767 9.55616C25.8046 9.61744 25.8466 9.67608 25.8865 9.73584C25.8995 9.75532 25.9122 9.77518 25.9198 9.7975C25.9372 9.848 25.9179 9.88507 25.8665 9.89887C25.8097 9.91419 25.7518 9.92289 25.6932 9.92384C25.5275 9.9263 25.3618 9.92951 25.1962 9.92497C25.1392 9.92346 25.0833 9.91438 25.029 9.89755C24.9756 9.88109 24.9582 9.84421 24.9798 9.79258C25.0015 9.74076 25.0354 9.69612 25.0676 9.65054C25.125 9.56903 25.1674 9.48202 25.1693 9.37951C25.1703 9.3328 25.1621 9.28816 25.1417 9.24618C25.1156 9.19265 25.1167 9.14007 25.1464 9.08882C25.1981 8.99992 25.2064 8.90139 25.2102 8.80209C25.2209 8.51442 25.2264 8.22637 25.2321 7.93851C25.2368 7.69396 25.2506 7.4496 25.2593 7.20505C25.2646 7.05299 25.2578 6.90093 25.2531 6.74886C25.2518 6.69591 25.2185 6.63633 25.1788 6.60701Z" fill="#127043"/>
<path d="M29 9.39918C28.959 9.40996 28.9202 9.41015 28.8818 9.41374C28.7025 9.43001 28.523 9.44192 28.3445 9.4667C28.1128 9.49885 27.8824 9.53876 27.6555 9.59645C27.4527 9.64789 27.2571 9.71957 27.0655 9.80336C26.828 9.90757 26.5965 10.0229 26.3833 10.172C26.1961 10.3029 26.0308 10.4595 25.8698 10.6208C25.8324 10.6584 25.7955 10.6966 25.7596 10.7356C25.7327 10.7645 25.7322 10.7721 25.7562 10.8029C25.8265 10.8941 25.8975 10.9847 25.969 11.0749C26.0713 11.2041 26.1846 11.3236 26.2967 11.4439C26.3115 11.4596 26.3281 11.4734 26.3434 11.4885C26.3569 11.502 26.3637 11.4976 26.3693 11.4815C26.3968 11.4046 26.425 11.3276 26.4528 11.2508C26.4645 11.2186 26.4773 11.1872 26.4961 11.1581C26.5398 11.0898 26.6056 11.0723 26.6748 11.1139C26.7442 11.1557 26.7766 11.2184 26.7709 11.2998C26.7684 11.3361 26.7455 11.3614 26.7035 11.3705C26.6043 11.3919 26.5592 11.4615 26.5394 11.5526C26.5214 11.6353 26.5394 11.7083 26.5999 11.7713C26.657 11.8305 26.7157 11.887 26.7856 11.9307C26.8465 11.9687 26.8609 11.9648 26.8929 11.901C26.9114 11.864 26.9305 11.8271 26.9627 11.7995C27.0436 11.7299 27.1688 11.7149 27.2657 11.8299C27.3392 11.9173 27.3583 12.0208 27.3472 12.1312C27.34 12.2019 27.3135 12.2661 27.2674 12.3198C27.1923 12.4073 27.0926 12.4264 26.9833 12.4153C26.8683 12.4036 26.7726 12.3481 26.6793 12.2852C26.5734 12.2137 26.466 12.1444 26.3591 12.0747C26.327 12.0537 26.326 12.0544 26.298 12.082C26.2328 12.1465 26.1744 12.2182 26.1025 12.2755C26.007 12.3517 25.8604 12.3447 25.7823 12.2594C25.701 12.1705 25.6964 12.0359 25.8131 11.9413C25.8326 11.9256 25.8551 11.9252 25.8767 11.937C25.9145 11.9576 25.951 11.9808 25.9896 12.0001C26.0401 12.0255 26.0913 12.013 26.1278 11.9697C26.1505 11.9428 26.1539 11.9133 26.1399 11.8817C26.115 11.8256 26.0726 11.7823 26.0321 11.7378C25.8566 11.5447 25.6809 11.3522 25.505 11.1594C25.4882 11.1409 25.4721 11.1127 25.4496 11.111C25.428 11.1093 25.4131 11.1394 25.3959 11.1558C25.2425 11.303 25.102 11.4622 24.9631 11.623C24.9102 11.6843 24.858 11.7461 24.8052 11.8076C24.7874 11.8282 24.7725 11.8505 24.7621 11.8757C24.7468 11.9122 24.7504 11.9464 24.7774 11.9761C24.8058 12.0073 24.8404 12.0202 24.8822 12.0069C24.9185 11.9956 24.9499 11.9738 24.9836 11.9568C24.9979 11.9494 25.0123 11.9421 25.0273 11.936C25.052 11.926 25.0757 11.9294 25.0952 11.9476C25.1538 12.0022 25.175 12.0711 25.1632 12.1486C25.151 12.2294 25.111 12.2939 25.0295 12.3196C24.9535 12.3436 24.882 12.3198 24.8141 12.2844C24.7413 12.2464 24.6885 12.1864 24.639 12.1229C24.624 12.1038 24.6068 12.0864 24.5928 12.0665C24.5822 12.0514 24.5728 12.0537 24.5592 12.061C24.4831 12.1025 24.4148 12.1556 24.3432 12.2038C24.273 12.2509 24.2066 12.3039 24.1317 12.3438C24.0443 12.3903 23.9511 12.4136 23.8514 12.41C23.7181 12.4053 23.618 12.326 23.5715 12.187C23.5237 12.0442 23.5653 11.8933 23.6795 11.7953C23.7705 11.7174 23.8875 11.7291 23.9621 11.8235C23.9884 11.8568 24.0105 11.8927 24.0332 11.9283C24.0544 11.9612 24.0604 11.9642 24.0935 11.9453C24.1934 11.8887 24.2773 11.8131 24.3481 11.7231C24.3717 11.6932 24.3763 11.6569 24.3662 11.6204C24.3519 11.5683 24.3354 11.5171 24.3205 11.4653C24.3076 11.421 24.2798 11.3923 24.2354 11.3794C24.2293 11.3777 24.2236 11.3751 24.2176 11.3732C24.1419 11.3493 24.1221 11.3166 24.1361 11.2377C24.1533 11.1411 24.2465 11.0794 24.3405 11.1023C24.3836 11.1129 24.4113 11.14 24.4256 11.181C24.4563 11.2684 24.4863 11.3559 24.517 11.4433C24.5376 11.5025 24.5497 11.5056 24.5917 11.4592C24.7804 11.2502 24.9628 11.0356 25.1345 10.8124C25.1574 10.7825 25.1566 10.7755 25.1347 10.743C25.0868 10.672 25.0235 10.6157 24.963 10.5569C24.8215 10.4194 24.6724 10.2911 24.5151 10.1718C24.3749 10.0655 24.2191 9.98757 24.0621 9.91135C23.8841 9.82492 23.7028 9.74586 23.5161 9.68023C23.2679 9.59285 23.0158 9.52136 22.7548 9.4841C22.6007 9.46216 22.4458 9.44722 22.2911 9.43001C22.2033 9.42017 22.1159 9.40845 22.0284 9.39729C22.0185 9.39596 22.0085 9.39483 22 9.3831C22.0297 9.37024 22.0609 9.36759 22.091 9.36608C22.348 9.35284 22.6037 9.32107 22.8617 9.32447C23.1641 9.32844 23.4635 9.35719 23.7578 9.42963C23.9568 9.47862 24.1474 9.55049 24.3318 9.63919C24.5151 9.72751 24.6957 9.82019 24.8614 9.93953C25.0034 10.0417 25.1362 10.1548 25.2627 10.2752C25.3142 10.3242 25.3658 10.3732 25.4144 10.4248C25.4343 10.446 25.4471 10.4424 25.4647 10.4262C25.5243 10.3713 25.585 10.3176 25.6436 10.2618C25.8925 10.0252 26.1691 9.82813 26.477 9.67531C26.6684 9.58018 26.8671 9.50472 27.0724 9.44608C27.2895 9.38386 27.5111 9.34963 27.7364 9.33469C27.9514 9.3205 28.1663 9.32712 28.3812 9.33809C28.4952 9.34395 28.6094 9.3483 28.7235 9.35663C28.805 9.36268 28.8863 9.37403 28.9677 9.38329C28.9775 9.38537 28.9885 9.38708 29 9.39918ZM27.0039 12.2322C27.0147 12.2322 27.0255 12.2328 27.0362 12.232C27.1274 12.2256 27.1794 12.1868 27.2004 12.1098C27.2172 12.0482 27.1864 11.9604 27.1346 11.9235C27.0898 11.8916 27.0332 11.9133 27.0099 11.9729C26.9944 12.0124 26.9855 12.0535 26.9831 12.0964C26.9808 12.1388 26.9632 12.1518 26.9214 12.1473C26.9042 12.1454 26.8883 12.1391 26.8723 12.1335C26.7728 12.0987 26.6933 12.0359 26.6218 11.9602C26.5823 11.9184 26.5386 11.8806 26.4976 11.8403C26.483 11.8261 26.4755 11.8292 26.4662 11.8456C26.4442 11.884 26.4465 11.9164 26.4766 11.9493C26.5246 12.0016 26.5761 12.0506 26.6338 12.0926C26.7442 12.1732 26.8647 12.2282 27.0039 12.2322ZM23.7064 12.0665C23.7064 12.1774 23.755 12.233 23.8622 12.2366C23.9685 12.2401 24.0693 12.2116 24.1616 12.1588C24.263 12.1008 24.3458 12.0183 24.4328 11.9419C24.4565 11.9211 24.4601 11.8925 24.4493 11.8624C24.4383 11.8318 24.4353 11.8299 24.4088 11.8471C24.3954 11.856 24.3823 11.8659 24.3702 11.8766C24.2955 11.9428 24.2208 12.0088 24.147 12.0762C24.1018 12.1174 24.0506 12.1405 23.9891 12.1424C23.9397 12.1439 23.924 12.1314 23.9176 12.0832C23.9129 12.0484 23.9063 12.0139 23.9015 11.9791C23.8964 11.9406 23.8758 11.9162 23.8376 11.909C23.7975 11.9014 23.7642 11.9146 23.741 11.9481C23.7154 11.9846 23.7084 12.0272 23.7064 12.0665ZM25.9009 12.0446C25.8782 12.0444 25.8638 12.0561 25.8559 12.0765C25.8396 12.1183 25.8594 12.166 25.8997 12.1859C25.9731 12.2222 26.0433 12.2108 26.1046 12.1634C26.1842 12.1017 26.247 12.0249 26.2876 11.9307C26.3601 11.7632 26.4344 11.5965 26.5086 11.4299C26.5284 11.3851 26.5575 11.348 26.6058 11.3306C26.6218 11.3247 26.6326 11.3128 26.6428 11.3003C26.6653 11.2729 26.66 11.2404 26.6292 11.2126C26.6029 11.1888 26.5732 11.1899 26.5485 11.2167C26.5237 11.2436 26.5082 11.2763 26.4953 11.31C26.4403 11.4545 26.3856 11.599 26.3317 11.744C26.2903 11.8556 26.2328 11.9574 26.1535 12.0467C26.1212 12.0832 26.0813 12.096 26.0344 12.0851C26.0143 12.0803 25.9954 12.0713 25.976 12.0644C25.9517 12.0559 25.9275 12.0453 25.9009 12.0446ZM24.927 12.2018C24.9493 12.2027 24.9957 12.1864 25.0121 12.1719C25.039 12.1484 25.0496 12.096 25.0335 12.0677C25.0199 12.0438 24.9978 12.0408 24.9512 12.0559C24.9213 12.0656 24.8915 12.0756 24.861 12.0834C24.8143 12.0951 24.7738 12.083 24.7409 12.0474C24.7158 12.0202 24.6936 11.9907 24.6785 11.9566C24.5951 11.7713 24.5102 11.5869 24.4391 11.3964C24.416 11.3348 24.3893 11.275 24.3494 11.2219C24.3358 11.2037 24.3188 11.1937 24.2961 11.1986C24.2713 11.2041 24.2547 11.219 24.2492 11.2449C24.2412 11.2826 24.2548 11.3123 24.2919 11.3281C24.3483 11.3522 24.3859 11.3932 24.409 11.4486C24.4655 11.5839 24.5228 11.7187 24.5771 11.8549C24.6201 11.9625 24.6742 12.0612 24.7653 12.1365C24.8122 12.1753 24.8654 12.1985 24.927 12.2018ZM26.268 11.6366C26.2678 11.616 26.2561 11.5965 26.2394 11.5791C26.1496 11.4847 26.0603 11.3898 25.9701 11.2958C25.9366 11.2608 25.9054 11.2232 25.8657 11.1946C25.8568 11.1882 25.846 11.1842 25.8385 11.1908C25.8309 11.1975 25.842 11.2045 25.8449 11.2113C25.8473 11.2169 25.8509 11.2222 25.8547 11.2273C25.9627 11.38 26.0709 11.5324 26.1791 11.685C26.1885 11.6985 26.1997 11.7098 26.2148 11.717C26.2226 11.7206 26.2311 11.7238 26.2362 11.7145C26.2494 11.6911 26.2665 11.6693 26.268 11.6366ZM25.0413 11.1931C25.036 11.1891 25.0333 11.1922 25.0301 11.1935C24.9951 11.2075 24.9734 11.2366 24.9491 11.2631C24.8514 11.3698 24.7538 11.4764 24.656 11.5831C24.6435 11.5967 24.6344 11.612 24.6305 11.63C24.6238 11.6597 24.6435 11.6962 24.6753 11.7081C24.6999 11.7174 24.7025 11.6886 24.7169 11.6796C24.7177 11.6792 24.718 11.6782 24.7186 11.6775C24.8228 11.5464 24.9166 11.4083 25.0038 11.2655C25.0182 11.2423 25.0331 11.219 25.0413 11.1931Z" fill="#A67C1D"/>
<path d="M7.81001 7.56818L7.85636 6.97692L7.36417 7.3141L7.12926 6.90181L7.663 6.64773L7.12926 6.39364L7.36417 5.98136L7.85636 6.31854L7.81001 5.72727H8.28143L8.23509 6.31854L8.72727 5.98136L8.96218 6.39364L8.42844 6.64773L8.96218 6.90181L8.72727 7.3141L8.23509 6.97692L8.28143 7.56818H7.81001ZM10.4467 7.56818L10.4931 6.97692L10.0009 7.3141L9.76598 6.90181L10.2997 6.64773L9.76598 6.39364L10.0009 5.98136L10.4931 6.31854L10.4467 5.72727H10.9181L10.8718 6.31854L11.364 5.98136L11.5989 6.39364L11.0652 6.64773L11.5989 6.90181L11.364 7.3141L10.8718 6.97692L10.9181 7.56818H10.4467ZM13.0835 7.56818L13.1298 6.97692L12.6376 7.3141L12.4027 6.90181L12.9364 6.64773L12.4027 6.39364L12.6376 5.98136L13.1298 6.31854L13.0835 5.72727H13.5549L13.5085 6.31854L14.0007 5.98136L14.2356 6.39364L13.7019 6.64773L14.2356 6.90181L14.0007 7.3141L13.5085 6.97692L13.5549 7.56818H13.0835ZM15.7202 7.56818L15.7665 6.97692L15.2743 7.3141L15.0394 6.90181L15.5732 6.64773L15.0394 6.39364L15.2743 5.98136L15.7665 6.31854L15.7202 5.72727H16.1916L16.1452 6.31854L16.6374 5.98136L16.8723 6.39364L16.3386 6.64773L16.8723 6.90181L16.6374 7.3141L16.1452 6.97692L16.1916 7.56818H15.7202ZM7.81001 12.5682L7.85636 11.9769L7.36417 12.3141L7.12926 11.9018L7.663 11.6477L7.12926 11.3936L7.36417 10.9814L7.85636 11.3185L7.81001 10.7273H8.28143L8.23509 11.3185L8.72727 10.9814L8.96218 11.3936L8.42844 11.6477L8.96218 11.9018L8.72727 12.3141L8.23509 11.9769L8.28143 12.5682H7.81001ZM10.4467 12.5682L10.4931 11.9769L10.0009 12.3141L9.76598 11.9018L10.2997 11.6477L9.76598 11.3936L10.0009 10.9814L10.4931 11.3185L10.4467 10.7273H10.9181L10.8718 11.3185L11.364 10.9814L11.5989 11.3936L11.0652 11.6477L11.5989 11.9018L11.364 12.3141L10.8718 11.9769L10.9181 12.5682H10.4467ZM13.0835 12.5682L13.1298 11.9769L12.6376 12.3141L12.4027 11.9018L12.9364 11.6477L12.4027 11.3936L12.6376 10.9814L13.1298 11.3185L13.0835 10.7273H13.5549L13.5085 11.3185L14.0007 10.9814L14.2356 11.3936L13.7019 11.6477L14.2356 11.9018L14.0007 12.3141L13.5085 11.9769L13.5549 12.5682H13.0835ZM15.7202 12.5682L15.7665 11.9769L15.2743 12.3141L15.0394 11.9018L15.5732 11.6477L15.0394 11.3936L15.2743 10.9814L15.7665 11.3185L15.7202 10.7273H16.1916L16.1452 11.3185L16.6374 10.9814L16.8723 11.3936L16.3386 11.6477L16.8723 11.9018L16.6374 12.3141L16.1452 11.9769L16.1916 12.5682H15.7202Z" fill="black"/>
<path d="M33.81 7.56818L33.8564 6.97692L33.3642 7.3141L33.1293 6.90181L33.663 6.64773L33.1293 6.39364L33.3642 5.98136L33.8564 6.31854L33.81 5.72727H34.2814L34.2351 6.31854L34.7273 5.98136L34.9622 6.39364L34.4284 6.64773L34.9622 6.90181L34.7273 7.3141L34.2351 6.97692L34.2814 7.56818H33.81ZM36.4467 7.56818L36.4931 6.97692L36.0009 7.3141L35.766 6.90181L36.2997 6.64773L35.766 6.39364L36.0009 5.98136L36.4931 6.31854L36.4467 5.72727H36.9181L36.8718 6.31854L37.364 5.98136L37.5989 6.39364L37.0652 6.64773L37.5989 6.90181L37.364 7.3141L36.8718 6.97692L36.9181 7.56818H36.4467ZM39.0835 7.56818L39.1298 6.97692L38.6376 7.3141L38.4027 6.90181L38.9364 6.64773L38.4027 6.39364L38.6376 5.98136L39.1298 6.31854L39.0835 5.72727H39.5549L39.5085 6.31854L40.0007 5.98136L40.2356 6.39364L39.7019 6.64773L40.2356 6.90181L40.0007 7.3141L39.5085 6.97692L39.5549 7.56818H39.0835ZM41.7202 7.56818L41.7665 6.97692L41.2743 7.3141L41.0394 6.90181L41.5732 6.64773L41.0394 6.39364L41.2743 5.98136L41.7665 6.31854L41.7202 5.72727H42.1916L42.1452 6.31854L42.6374 5.98136L42.8723 6.39364L42.3386 6.64773L42.8723 6.90181L42.6374 7.3141L42.1452 6.97692L42.1916 7.56818H41.7202ZM33.81 12.5682L33.8564 11.9769L33.3642 12.3141L33.1293 11.9018L33.663 11.6477L33.1293 11.3936L33.3642 10.9814L33.8564 11.3185L33.81 10.7273H34.2814L34.2351 11.3185L34.7273 10.9814L34.9622 11.3936L34.4284 11.6477L34.9622 11.9018L34.7273 12.3141L34.2351 11.9769L34.2814 12.5682H33.81ZM36.4467 12.5682L36.4931 11.9769L36.0009 12.3141L35.766 11.9018L36.2997 11.6477L35.766 11.3936L36.0009 10.9814L36.4931 11.3185L36.4467 10.7273H36.9181L36.8718 11.3185L37.364 10.9814L37.5989 11.3936L37.0652 11.6477L37.5989 11.9018L37.364 12.3141L36.8718 11.9769L36.9181 12.5682H36.4467ZM39.0835 12.5682L39.1298 11.9769L38.6376 12.3141L38.4027 11.9018L38.9364 11.6477L38.4027 11.3936L38.6376 10.9814L39.1298 11.3185L39.0835 10.7273H39.5549L39.5085 11.3185L40.0007 10.9814L40.2356 11.3936L39.7019 11.6477L40.2356 11.9018L40.0007 12.3141L39.5085 11.9769L39.5549 12.5682H39.0835ZM41.7202 12.5682L41.7665 11.9769L41.2743 12.3141L41.0394 11.9018L41.5732 11.6477L41.0394 11.3936L41.2743 10.9814L41.7665 11.3185L41.7202 10.7273H42.1916L42.1452 11.3185L42.6374 10.9814L42.8723 11.3936L42.3386 11.6477L42.8723 11.9018L42.6374 12.3141L42.1452 11.9769L42.1916 12.5682H41.7202Z" fill="black"/>
</svg>
