<svg width="25" height="13" viewBox="0 0 25 13" fill="none" xmlns="http://www.w3.org/2000/svg">
<g clip-path="url(#clip0_29357_45260)">
<rect width="25" height="12.037" rx="2" fill="white"/>
<path d="M20.0059 12.0508L20.0059 0.598048" stroke="black" stroke-width="0.5"/>
<path d="M21.912 1.97956C21.9112 1.98154 21.9103 1.98338 21.9098 1.98535C21.9093 1.98698 21.9083 1.98818 21.9062 1.98769C21.8977 1.98571 21.8987 1.99009 21.8995 1.99398C21.9017 2.00493 21.8991 2.01554 21.8959 2.02614C21.8952 2.02847 21.8942 2.0301 21.8909 2.02975C21.8856 2.02918 21.8857 2.03137 21.8867 2.03441C21.8882 2.03879 21.8895 2.04318 21.8904 2.04756C21.8911 2.05109 21.8907 2.05449 21.8865 2.05689C21.8839 2.0583 21.8836 2.06057 21.8834 2.0629C21.8831 2.06664 21.8849 2.07011 21.8853 2.07463C21.8788 2.07195 21.8767 2.06728 21.8736 2.06332C21.8723 2.0617 21.8715 2.05866 21.8687 2.0595C21.866 2.06035 21.8676 2.06304 21.8683 2.06495C21.872 2.0752 21.8757 2.08538 21.8796 2.09556C21.8813 2.10008 21.8813 2.10411 21.8756 2.10686C21.8717 2.1087 21.8732 2.11139 21.8736 2.114C21.8783 2.13768 21.8829 2.16136 21.8819 2.18547C21.8818 2.18844 21.8836 2.19289 21.8802 2.19402C21.8756 2.19558 21.8718 2.1919 21.8687 2.18914C21.8511 2.17289 21.8373 2.15465 21.8268 2.13493C21.8029 2.08948 21.7951 2.04205 21.7985 1.99306C21.8001 1.96987 21.8067 1.94725 21.8088 1.92414C21.8094 1.91841 21.8102 1.91269 21.8095 1.90696C21.8093 1.90498 21.8093 1.90244 21.8061 1.90209C21.8036 1.90173 21.8012 1.90315 21.7996 1.90484C21.7966 1.90774 21.7968 1.91135 21.7959 1.91474C21.795 1.91813 21.7949 1.9228 21.7883 1.91813C21.7867 1.917 21.7849 1.91686 21.7835 1.91806C21.7794 1.9216 21.7749 1.92089 21.7691 1.9182C21.7691 1.92668 21.7691 1.93411 21.7691 1.9416C21.7691 1.94294 21.77 1.94492 21.7677 1.94535C21.7649 1.94591 21.7649 1.94358 21.7642 1.94216C21.7636 1.94125 21.7635 1.94019 21.7631 1.9392C21.7622 1.93743 21.7627 1.93411 21.7599 1.93425C21.7562 1.93446 21.7561 1.93785 21.7561 1.94019C21.756 1.94655 21.7571 1.95284 21.7587 1.95906C21.7594 1.96182 21.7596 1.96464 21.7602 1.96782C21.7533 1.96712 21.7513 1.96344 21.7494 1.95955C21.7477 1.95609 21.7474 1.95185 21.7418 1.94987C21.7382 1.95772 21.7406 1.96549 21.7397 1.97313C21.7395 1.9756 21.7413 1.9797 21.7377 1.98019C21.7335 1.98076 21.7331 1.97659 21.7318 1.97397C21.7304 1.97129 21.7303 1.96648 21.7259 1.96705C21.7224 1.96747 21.7232 1.97214 21.7231 1.97503C21.7228 1.98175 21.726 1.9879 21.728 1.99419C21.729 1.9973 21.7298 2.00048 21.731 2.00465C21.728 2.00373 21.726 2.00324 21.7241 2.0026C21.7174 2.00027 21.7153 2.00105 21.7167 2.0067C21.7186 2.01469 21.7216 2.02261 21.7245 2.03045C21.7257 2.03356 21.7263 2.03561 21.7208 2.03561C21.7156 2.03561 21.7155 2.03872 21.7157 2.04169C21.7161 2.04671 21.7192 2.05109 21.721 2.05576C21.7239 2.06346 21.7251 2.07096 21.7198 2.07831C21.7183 2.0805 21.718 2.08304 21.7183 2.08552C21.7186 2.08842 21.7175 2.09032 21.7136 2.09082C21.709 2.09146 21.7097 2.09393 21.7103 2.0964C21.7113 2.10057 21.7131 2.1046 21.7127 2.10892C21.7093 2.1092 21.7084 2.10729 21.7073 2.10573C21.6923 2.0822 21.6753 2.05943 21.6623 2.03505C21.639 1.9915 21.6456 1.94987 21.6756 1.90986C21.6846 1.89784 21.6949 1.88661 21.7052 1.87537C21.7126 1.86717 21.7195 1.85883 21.721 1.84843C21.7216 1.84419 21.7219 1.84002 21.7192 1.83613C21.7162 1.83684 21.7156 1.83882 21.7144 1.84031C21.7117 1.84398 21.7088 1.84589 21.7037 1.84243C21.7 1.83981 21.6985 1.84165 21.6978 1.84462C21.6972 1.84681 21.6961 1.849 21.6959 1.85119C21.6955 1.8555 21.6929 1.85755 21.6875 1.85706C21.6836 1.8567 21.6821 1.8584 21.6809 1.86102C21.6777 1.86787 21.6742 1.87473 21.6704 1.88258C21.6677 1.87819 21.6656 1.87459 21.6631 1.87056C21.6549 1.87833 21.6554 1.88858 21.6485 1.89678C21.6458 1.89417 21.6435 1.89184 21.6406 1.88901C21.638 1.89459 21.6351 1.89961 21.6332 1.90484C21.6318 1.9088 21.6293 1.90979 21.6248 1.90824C21.6207 1.90675 21.6194 1.90816 21.6187 1.91127C21.6165 1.92061 21.614 1.92994 21.6116 1.93969C21.6069 1.93736 21.6064 1.93312 21.6022 1.93078C21.5979 1.9351 21.5979 1.94012 21.5982 1.94485C21.5989 1.95609 21.5924 1.96542 21.587 1.97511C21.5865 1.97595 21.5853 1.97737 21.5846 1.9773C21.5756 1.97595 21.5775 1.98161 21.5771 1.985C21.5754 1.99942 21.5723 2.01384 21.5751 2.02847C21.5759 2.03279 21.5748 2.03696 21.5717 2.04084C21.5689 2.04452 21.5666 2.04381 21.5652 2.04035C21.5626 2.03392 21.5602 2.02741 21.558 2.02091C21.5494 1.99553 21.5436 1.96966 21.5435 1.94337C21.5433 1.9018 21.5619 1.86646 21.6004 1.83762C21.6381 1.80942 21.6798 1.7868 21.7296 1.77421C21.7423 1.77096 21.7555 1.76891 21.7679 1.76453C21.7698 1.76389 21.7727 1.76347 21.7725 1.76177C21.7722 1.76001 21.7695 1.75859 21.7672 1.75866C21.752 1.7593 21.7363 1.75562 21.7221 1.76333C21.7151 1.76707 21.7077 1.76842 21.6999 1.76354C21.6962 1.76121 21.6768 1.76453 21.6732 1.76757C21.6708 1.76962 21.6685 1.77181 21.6664 1.77379C21.6634 1.77315 21.6642 1.77132 21.6635 1.77018C21.6625 1.76842 21.6635 1.76552 21.6608 1.76488C21.6575 1.76403 21.6549 1.76623 21.6527 1.76792C21.6503 1.7699 21.6483 1.77238 21.6462 1.77478C21.6433 1.7781 21.6402 1.78022 21.6347 1.77761C21.63 1.77527 21.6277 1.77845 21.6254 1.78086C21.6228 1.78361 21.6203 1.78482 21.6169 1.78164C21.6143 1.77923 21.6125 1.77973 21.611 1.7827C21.6087 1.78722 21.6058 1.7916 21.6035 1.79613C21.6019 1.79917 21.6001 1.80001 21.5967 1.79796C21.5928 1.7957 21.5902 1.79662 21.5879 1.79966C21.5859 1.80249 21.583 1.80489 21.5816 1.80807C21.5792 1.81337 21.5749 1.81762 21.5693 1.82122C21.5643 1.8244 21.5594 1.82779 21.5559 1.83218C21.5551 1.83317 21.5536 1.83451 21.5526 1.83451C21.5433 1.83401 21.5436 1.83974 21.5423 1.84426C21.541 1.84886 21.5395 1.85338 21.5383 1.85805C21.5371 1.86257 21.5359 1.86667 21.5293 1.86851C21.5253 1.86957 21.5255 1.8731 21.5255 1.876C21.5256 1.88067 21.5242 1.88611 21.5182 1.88611C21.5116 1.88611 21.5115 1.87982 21.5118 1.87586C21.516 1.81705 21.5463 1.76948 21.609 1.73633C21.6521 1.71349 21.7004 1.70275 21.7515 1.69879C21.7698 1.69738 21.788 1.69561 21.8058 1.692C21.8119 1.6908 21.8175 1.68889 21.8212 1.68338C21.7968 1.68211 21.7735 1.67525 21.7495 1.68133C21.7465 1.68211 21.7432 1.68331 21.7405 1.6819C21.7318 1.67751 21.7249 1.68069 21.7179 1.68451C21.7159 1.68564 21.713 1.68805 21.7108 1.68487C21.7079 1.68055 21.7042 1.68112 21.7 1.68303C21.685 1.68981 21.6678 1.69257 21.6516 1.69533C21.6291 1.69914 21.6145 1.71208 21.5953 1.71908C21.5929 1.71993 21.5904 1.72311 21.588 1.72127C21.5852 1.71908 21.5892 1.71689 21.5906 1.71512C21.6144 1.68684 21.645 1.66394 21.6799 1.64436C21.7193 1.62231 21.763 1.61439 21.8105 1.61793C21.8337 1.61962 21.8568 1.62153 21.88 1.62309C21.8842 1.62337 21.8909 1.62492 21.8923 1.62125C21.8932 1.61856 21.8866 1.61658 21.8825 1.61552C21.8714 1.61262 21.8627 1.60591 21.8515 1.60315C21.8405 1.60039 21.8296 1.59736 21.8193 1.5929C21.8118 1.58958 21.8015 1.59191 21.7953 1.58562C21.7949 1.58527 21.7933 1.58555 21.7924 1.58583C21.7749 1.59156 21.7561 1.59304 21.7377 1.59622C21.7326 1.59707 21.7282 1.59933 21.7225 1.60131C21.7233 1.59467 21.728 1.59064 21.7331 1.58725C21.7509 1.57551 21.7723 1.57014 21.7943 1.56618C21.8372 1.55841 21.8767 1.56526 21.9134 1.584C21.9267 1.59078 21.9401 1.59714 21.9553 1.6011C21.9599 1.6023 21.9611 1.60195 21.9612 1.59806C21.9615 1.5823 21.9635 1.56661 21.9661 1.55098C21.9669 1.54689 21.9686 1.54505 21.9737 1.5454C21.9796 1.54582 21.9814 1.54399 21.9818 1.53918C21.9829 1.52759 21.9808 1.51578 21.9857 1.50447C21.9864 1.50278 21.9859 1.5003 21.9888 1.50002C21.9922 1.49974 21.9923 1.50256 21.9933 1.50426C21.9977 1.51154 21.9959 1.5196 21.9975 1.52723C21.9982 1.53084 21.9981 1.53459 21.9985 1.53826C21.9989 1.54172 21.9996 1.54505 22.0044 1.54689C22.008 1.54823 22.0084 1.55141 22.0085 1.55438C22.0086 1.55805 22.0086 1.56173 22.0088 1.56548C22.0089 1.57064 22.01 1.57544 22.0145 1.57975C22.0193 1.58435 22.0196 1.59029 22.0194 1.59615C22.0189 1.60612 22.0197 1.6069 22.0312 1.60294C22.0471 1.5975 22.0621 1.59071 22.0769 1.5835C22.107 1.56859 22.1392 1.56244 22.1745 1.56738C22.1972 1.57056 22.2178 1.57813 22.2376 1.58711C22.2434 1.58979 22.2479 1.59389 22.2507 1.59891C22.253 1.60308 22.2513 1.60513 22.2456 1.60464C22.2431 1.60442 22.2407 1.6035 22.2382 1.60287C22.2211 1.59849 22.2032 1.59368 22.1859 1.59813C22.1726 1.60153 22.1599 1.6035 22.146 1.60379C22.1348 1.604 22.1262 1.61093 22.1155 1.6151C22.1277 1.62259 22.141 1.62266 22.1544 1.62217C22.1709 1.62146 22.1874 1.61997 22.2039 1.61969C22.2407 1.61899 22.2737 1.62817 22.3017 1.64698C22.3237 1.66182 22.3451 1.67723 22.3652 1.69377C22.3739 1.70084 22.3805 1.70911 22.386 1.71887C22.3804 1.71809 22.3766 1.71583 22.3727 1.71399C22.3602 1.70819 22.3472 1.70374 22.3331 1.70056C22.3204 1.69773 22.3082 1.69285 22.2966 1.68741C22.2926 1.6855 22.2884 1.68395 22.2837 1.68317C22.2773 1.68204 22.271 1.6814 22.2674 1.68741C22.2659 1.68988 22.2639 1.68974 22.2613 1.68819C22.2584 1.68642 22.2552 1.68508 22.2523 1.68338C22.2484 1.68112 22.2451 1.67949 22.2419 1.68416C22.24 1.68713 22.2368 1.68522 22.2345 1.68416C22.2268 1.68041 22.2193 1.67716 22.2104 1.6826C22.2086 1.68366 22.2049 1.68289 22.202 1.68282C22.1933 1.68246 22.185 1.6831 22.1777 1.68734C22.1756 1.68854 22.1735 1.68889 22.1712 1.68819C22.1704 1.68798 22.1696 1.68776 22.1689 1.68769C22.1647 1.68734 22.1556 1.69236 22.1564 1.69519C22.1573 1.69858 22.162 1.69837 22.1652 1.69865C22.1803 1.69999 22.1955 1.70098 22.2106 1.70211C22.2412 1.70437 22.272 1.70621 22.3017 1.71307C22.3755 1.73011 22.4285 1.76552 22.4548 1.82376C22.4649 1.84617 22.4672 1.8695 22.4642 1.89424C22.459 1.89035 22.4568 1.88597 22.4541 1.88208C22.4428 1.86646 22.4318 1.8507 22.4207 1.83493C22.4173 1.83013 22.4138 1.82567 22.4059 1.82532C22.403 1.82518 22.4031 1.82348 22.4026 1.82186C22.3989 1.80751 22.3861 1.79874 22.372 1.79075C22.3714 1.7904 22.3706 1.79012 22.3699 1.78991C22.3651 1.78821 22.359 1.78955 22.355 1.78574C22.3517 1.78255 22.3483 1.77959 22.3449 1.77648C22.3393 1.78291 22.3393 1.78291 22.3329 1.7769C22.332 1.77598 22.331 1.77499 22.33 1.77407C22.3232 1.76757 22.3231 1.7675 22.3166 1.7745C22.3148 1.77655 22.3135 1.77697 22.3115 1.77492C22.3099 1.77329 22.3081 1.77181 22.3066 1.77018C22.3034 1.76679 22.3013 1.76403 22.2946 1.76736C22.2896 1.76983 22.2822 1.767 22.2762 1.77025C22.274 1.77139 22.2705 1.76729 22.2674 1.76594C22.2662 1.76538 22.2651 1.76389 22.2634 1.76467C22.262 1.76531 22.2622 1.76679 22.2623 1.76799C22.2625 1.77386 22.2667 1.77796 22.2725 1.781C22.2942 1.79252 22.3157 1.80404 22.3376 1.81535C22.3662 1.83013 22.3922 1.84688 22.4094 1.87098C22.4288 1.89813 22.434 1.9276 22.4332 1.95814C22.4323 1.98917 22.4231 2.01886 22.411 2.0482C22.4092 2.05251 22.4076 2.05173 22.4046 2.04918C22.3984 2.0441 22.3986 2.03816 22.4005 2.03201C22.4013 2.02946 22.4026 2.02692 22.404 2.02452C22.406 2.02105 22.405 2.01851 22.4006 2.01709C22.3958 2.01561 22.3952 2.01271 22.3956 2.00911C22.396 2.00501 22.396 2.00091 22.3964 1.99681C22.3968 1.99292 22.3973 1.98938 22.3899 1.99037C22.387 1.99073 22.3869 1.98875 22.3869 1.98698C22.3869 1.9809 22.3846 1.97539 22.3818 1.9698C22.3787 1.96358 22.3817 1.9568 22.38 1.95036C22.379 1.94662 22.3788 1.94273 22.3782 1.93891C22.3771 1.93891 22.3766 1.93877 22.3762 1.93891C22.3656 1.94301 22.3656 1.94301 22.3646 1.93354C22.3643 1.93071 22.3636 1.92782 22.3636 1.92499C22.3636 1.91912 22.3623 1.91495 22.3529 1.91728C22.3493 1.9182 22.349 1.91573 22.3484 1.91368C22.3461 1.90604 22.3438 1.89834 22.3412 1.88957C22.3375 1.89396 22.3345 1.89735 22.3308 1.90173C22.3268 1.89198 22.3231 1.88321 22.3192 1.87388C22.3173 1.87515 22.3162 1.87586 22.3151 1.87671C22.3066 1.88328 22.3066 1.88328 22.3019 1.87431C22.3003 1.87127 22.2986 1.8683 22.2974 1.86519C22.2958 1.86102 22.2937 1.85819 22.2872 1.85769C22.2812 1.85727 22.2791 1.85232 22.277 1.84843C22.2752 1.84525 22.2735 1.84356 22.2685 1.84412C22.2611 1.84504 22.2558 1.84179 22.2517 1.83698C22.2494 1.8343 22.2468 1.82935 22.2425 1.83119C22.2378 1.83317 22.2399 1.83797 22.2416 1.84186C22.2457 1.8514 22.2545 1.85854 22.2618 1.86646C22.2766 1.88243 22.2934 1.89735 22.3059 1.9146C22.332 1.95029 22.3356 1.98811 22.3218 2.02734C22.3118 2.05569 22.2945 2.08113 22.2724 2.10467C22.2693 2.108 22.2662 2.1116 22.2599 2.11365C22.2604 2.11019 22.2604 2.10736 22.2611 2.10467C22.2622 2.10029 22.2641 2.09591 22.2549 2.09612C22.2523 2.09619 22.2527 2.09449 22.2533 2.09294C22.2545 2.08983 22.2557 2.08665 22.2567 2.08354C22.2576 2.08092 22.2589 2.07767 22.2568 2.07576C22.2502 2.0694 22.2541 2.06353 22.257 2.05745C22.2592 2.05286 22.2611 2.04819 22.2634 2.0436C22.2653 2.03985 22.2639 2.03858 22.259 2.0395C22.2534 2.04056 22.2524 2.03915 22.2538 2.03484C22.2568 2.0248 22.2591 2.01455 22.2618 2.00451C22.2569 2.0031 22.253 2.00925 22.25 2.00578C22.248 2.00352 22.25 1.99907 22.2502 1.9956C22.2505 1.99172 22.2508 1.9879 22.2513 1.98359C22.2461 1.98458 22.2447 1.98875 22.2393 1.99094C22.2393 1.97857 22.2393 1.96712 22.2393 1.9551C22.2324 1.95637 22.2323 1.96068 22.23 1.96365C22.2292 1.96464 22.229 1.96627 22.2272 1.96634C22.2249 1.96641 22.2245 1.96464 22.224 1.96337C22.2223 1.95899 22.2228 1.95446 22.2223 1.94994C22.2217 1.94358 22.2209 1.94301 22.2144 1.94612C22.2104 1.94803 22.2101 1.94641 22.2098 1.94407C22.209 1.93983 22.2083 1.93552 22.2077 1.93128C22.2073 1.92838 22.2064 1.92619 22.202 1.92845C22.1974 1.93086 22.1958 1.92866 22.1942 1.92562C22.1909 1.91863 22.185 1.9134 22.1758 1.91085C22.1711 1.90958 22.1687 1.90972 22.1696 1.91474C22.1727 1.93241 22.1759 1.95001 22.178 1.96775C22.184 2.0173 22.1816 2.06636 22.1618 2.11415C22.1522 2.1374 22.1386 2.15917 22.1216 2.17967C22.1156 2.18688 22.1081 2.19303 22.0999 2.19862C22.0974 2.1972 22.0986 2.19544 22.0985 2.19395C22.0974 2.1702 22.1018 2.14631 22.0991 2.12277C22.0972 2.10531 22.1005 2.08948 22.1091 2.07385C22.1095 2.07315 22.1096 2.07237 22.11 2.07096C22.1009 2.07188 22.0988 2.07887 22.0914 2.08262C22.0908 2.07378 22.0901 2.0658 22.0897 2.05774C22.0894 2.05265 22.0893 2.04749 22.0891 2.0424C22.0886 2.03377 22.0871 2.02565 22.0802 2.01822C22.071 2.0084 22.0727 1.99596 22.07 1.98451C22.0696 1.98295 22.0708 1.98076 22.0687 1.98005C22.0661 1.9792 22.0646 1.9814 22.0629 1.98253C22.0532 1.98903 22.0528 1.99878 22.0491 2.00741C22.0398 2.02989 22.0414 2.05307 22.0424 2.07619C22.0438 2.10807 22.0449 2.14002 22.0465 2.1719C22.0502 2.25008 22.0525 2.32826 22.0531 2.40651C22.0533 2.43315 22.0538 2.45973 22.055 2.48638C22.0559 2.50533 22.0614 2.52363 22.072 2.54081C22.0819 2.55721 22.0826 2.57375 22.0736 2.59072C22.0623 2.61178 22.0656 2.63207 22.0804 2.65115C22.0912 2.66508 22.1032 2.67844 22.1147 2.69201C22.1185 2.69646 22.1221 2.70099 22.1243 2.70601C22.1293 2.71746 22.1237 2.72594 22.1089 2.72912C22.0927 2.73258 22.0761 2.73456 22.0592 2.73478C22.0117 2.73534 21.9641 2.73605 21.9166 2.73506C21.9003 2.7347 21.8842 2.73265 21.8686 2.72884C21.8533 2.72509 21.8483 2.71668 21.8546 2.70495C21.8608 2.69314 21.8705 2.68296 21.8797 2.67264C21.8962 2.65412 21.9083 2.63433 21.9089 2.611C21.9092 2.6004 21.9069 2.59022 21.901 2.58068C21.8935 2.56852 21.8939 2.5565 21.9023 2.54484C21.9171 2.52462 21.9195 2.50222 21.9206 2.4796C21.9237 2.41414 21.9253 2.34861 21.9269 2.28309C21.9283 2.22746 21.9323 2.17183 21.9348 2.1162C21.9363 2.08156 21.9343 2.04699 21.933 2.01236C21.933 1.99977 21.9235 1.9862 21.912 1.97956Z" fill="black"/>
<path d="M23.0089 2.61461C22.9972 2.61701 22.986 2.61708 22.9751 2.61793C22.9236 2.62168 22.8721 2.62436 22.8209 2.63002C22.7544 2.63737 22.6882 2.64642 22.6232 2.6595C22.565 2.67123 22.5089 2.68749 22.4539 2.70657C22.3857 2.73025 22.3193 2.75655 22.2581 2.79048C22.2044 2.82031 22.157 2.85593 22.1108 2.89262C22.1 2.90117 22.0895 2.90987 22.0792 2.91877C22.0715 2.92535 22.0713 2.92704 22.0782 2.93411C22.0984 2.95482 22.1187 2.97546 22.1392 2.99603C22.1686 3.02544 22.2011 3.05258 22.2333 3.08001C22.2375 3.08362 22.2423 3.08673 22.2466 3.09019C22.2505 3.09323 22.2524 3.09224 22.254 3.08856C22.262 3.07103 22.27 3.05357 22.2779 3.03604C22.2812 3.02869 22.285 3.02155 22.2903 3.01498C22.3029 2.99943 22.3218 2.9954 22.3417 3.00494C22.3616 3.01448 22.3709 3.02876 22.3692 3.04721C22.3685 3.05548 22.362 3.06128 22.3499 3.06333C22.3213 3.06821 22.3084 3.08404 22.3027 3.10475C22.2975 3.12355 22.3027 3.14016 22.3201 3.15451C22.3365 3.16802 22.3533 3.18088 22.3734 3.19078C22.3909 3.1994 22.3951 3.19855 22.4041 3.18406C22.4095 3.17558 22.4149 3.16724 22.4242 3.16095C22.4475 3.14511 22.4833 3.14172 22.5111 3.16787C22.5322 3.18774 22.5377 3.21128 22.5345 3.23644C22.5324 3.25256 22.5247 3.26712 22.5116 3.27935C22.49 3.29928 22.4615 3.30359 22.4301 3.30105C22.3971 3.29836 22.3697 3.28578 22.3429 3.27143C22.3125 3.25517 22.2817 3.23941 22.251 3.2235C22.2417 3.2187 22.2415 3.21891 22.2335 3.2252C22.2147 3.2399 22.198 3.25616 22.1773 3.26924C22.1498 3.28656 22.1079 3.285 22.0854 3.26556C22.062 3.24535 22.0608 3.21467 22.0942 3.19318C22.0998 3.18957 22.1063 3.1895 22.1124 3.19219C22.1233 3.19686 22.1337 3.20216 22.1448 3.20654C22.1593 3.21234 22.1739 3.20944 22.1844 3.19961C22.1909 3.19346 22.1919 3.18682 22.1879 3.17961C22.1808 3.16681 22.1686 3.15699 22.157 3.14681C22.1066 3.10291 22.0562 3.05902 22.0057 3.01519C22.0009 3.01095 21.9963 3.00459 21.9898 3.00416C21.9836 3.00381 21.9794 3.0106 21.9744 3.01441C21.9304 3.04792 21.8901 3.08411 21.8503 3.12073C21.8351 3.13465 21.82 3.14879 21.8049 3.16271C21.7998 3.16738 21.7955 3.17247 21.7925 3.17819C21.7881 3.18654 21.7891 3.19431 21.7969 3.20103C21.805 3.20809 21.815 3.21106 21.8269 3.20802C21.8373 3.20541 21.8463 3.20046 21.856 3.19664C21.8601 3.19502 21.8643 3.19325 21.8685 3.19191C21.8757 3.18965 21.8824 3.19042 21.8881 3.19452C21.9049 3.20696 21.911 3.22266 21.9076 3.24026C21.904 3.25864 21.8926 3.27327 21.8692 3.27913C21.8474 3.28458 21.8269 3.27921 21.8075 3.27115C21.7866 3.26252 21.7715 3.24881 21.7572 3.23439C21.7529 3.23001 21.7479 3.22605 21.744 3.2216C21.741 3.2182 21.7382 3.21863 21.7344 3.22032C21.7125 3.22972 21.6929 3.24181 21.6724 3.25277C21.6523 3.26351 21.6333 3.27553 21.6117 3.28465C21.5866 3.29525 21.5599 3.30055 21.5313 3.2997C21.4931 3.29864 21.4644 3.28062 21.451 3.24895C21.4373 3.21651 21.4492 3.18208 21.482 3.15982C21.5082 3.14207 21.5418 3.14476 21.5632 3.16625C21.5707 3.17381 21.5771 3.18201 21.5836 3.19014C21.5896 3.19763 21.5914 3.19827 21.6009 3.19403C21.6296 3.18116 21.6536 3.16392 21.6739 3.14349C21.6806 3.13663 21.682 3.12843 21.679 3.12016C21.6749 3.10836 21.6702 3.09662 21.6658 3.08489C21.6622 3.07478 21.6542 3.06828 21.6414 3.06531C21.6397 3.06488 21.638 3.06432 21.6363 3.06389C21.6146 3.05845 21.609 3.05103 21.613 3.03307C21.6179 3.01109 21.6447 2.99709 21.6716 3.00225C21.684 3.00466 21.692 3.01081 21.6961 3.02014C21.7049 3.04 21.7135 3.05994 21.7223 3.07987C21.7281 3.0933 21.7317 3.09408 21.7437 3.08347C21.7978 3.0359 21.8502 2.98706 21.8995 2.93623C21.9061 2.92945 21.9058 2.92782 21.8995 2.92047C21.8857 2.90435 21.8676 2.89149 21.8502 2.87813C21.8096 2.84681 21.7668 2.81762 21.7216 2.79055C21.6814 2.76637 21.6367 2.74863 21.5917 2.73124C21.5406 2.71159 21.4885 2.69357 21.435 2.67865C21.3638 2.65879 21.2915 2.64246 21.2165 2.63405C21.1723 2.62903 21.1278 2.62564 21.0834 2.62175C21.0583 2.61949 21.0332 2.6168 21.0081 2.61433C21.0053 2.61404 21.0024 2.61376 21 2.61107C21.0086 2.60818 21.0175 2.60754 21.0261 2.60719C21.0998 2.60415 21.1733 2.59694 21.2473 2.59771C21.3341 2.59863 21.4199 2.60514 21.5044 2.62168C21.5616 2.63285 21.6162 2.64917 21.6691 2.66939C21.7217 2.68947 21.7735 2.7106 21.8211 2.73774C21.8618 2.761 21.9 2.78673 21.9363 2.81416C21.9511 2.82533 21.9659 2.83642 21.9798 2.84823C21.9855 2.85303 21.9891 2.85226 21.9942 2.84851C22.0113 2.836 22.0287 2.82384 22.0456 2.81112C22.117 2.75733 22.1963 2.71244 22.2846 2.67766C22.3395 2.65603 22.3966 2.63885 22.4555 2.62549C22.5178 2.61136 22.5814 2.60351 22.6461 2.60019C22.7077 2.59694 22.7694 2.59849 22.8311 2.60097C22.8638 2.60231 22.8966 2.6033 22.9293 2.60521C22.9528 2.60655 22.976 2.60917 22.9994 2.61129C23.0024 2.6115 23.0056 2.61185 23.0089 2.61461ZM22.4361 3.25927C22.4392 3.25927 22.4423 3.25941 22.4453 3.25927C22.4714 3.25786 22.4864 3.24902 22.4925 3.23149C22.4973 3.21743 22.4885 3.19749 22.4736 3.18908C22.4607 3.1818 22.4445 3.18675 22.4378 3.20032C22.4334 3.2093 22.4308 3.2187 22.4302 3.22838C22.4295 3.238 22.4245 3.24096 22.4124 3.23997C22.4075 3.23955 22.4029 3.23814 22.3984 3.23686C22.3698 3.22895 22.347 3.21467 22.3265 3.19742C22.3152 3.18795 22.3026 3.17933 22.2909 3.17014C22.2867 3.16688 22.2845 3.16759 22.2819 3.17134C22.2755 3.1801 22.2761 3.18745 22.2848 3.19495C22.2986 3.20689 22.3134 3.21806 22.3299 3.22753C22.3616 3.24584 22.3961 3.25842 22.4361 3.25927ZM21.4899 3.2216C21.4899 3.24683 21.5039 3.25948 21.5345 3.26026C21.565 3.26104 21.594 3.25461 21.6205 3.24259C21.6496 3.22937 21.6733 3.21064 21.6983 3.19325C21.7051 3.18851 21.706 3.18201 21.703 3.17515C21.6999 3.16816 21.699 3.16773 21.6914 3.17169C21.6876 3.17367 21.6838 3.17593 21.6804 3.17841C21.659 3.19346 21.6375 3.20852 21.6163 3.22379C21.6034 3.23319 21.5886 3.23842 21.571 3.23884C21.5568 3.2392 21.5524 3.23637 21.5505 3.22534C21.5492 3.21743 21.5472 3.20958 21.5459 3.20166C21.5443 3.1929 21.5385 3.18731 21.5275 3.18569C21.516 3.18399 21.5065 3.18696 21.4998 3.19459C21.4925 3.20293 21.4905 3.21262 21.4899 3.2216ZM22.1196 3.21665C22.1131 3.21658 22.1089 3.21926 22.1067 3.22393C22.1021 3.23347 22.1077 3.24429 22.1193 3.24881C22.1403 3.25708 22.1605 3.25446 22.178 3.24365C22.2008 3.22958 22.2188 3.21219 22.2305 3.19071C22.2513 3.15261 22.2727 3.11465 22.2939 3.07676C22.2996 3.06658 22.308 3.05817 22.3218 3.05414C22.3264 3.0528 22.3295 3.05004 22.3324 3.04721C22.3389 3.04099 22.3374 3.03357 22.3285 3.02728C22.3209 3.02191 22.3124 3.02212 22.3053 3.02827C22.2982 3.03435 22.2937 3.04184 22.2901 3.04947C22.2743 3.08234 22.2586 3.11528 22.2431 3.14822C22.2311 3.1736 22.2147 3.19678 22.192 3.21707C22.1827 3.22534 22.1712 3.22831 22.1579 3.22577C22.1522 3.22471 22.1467 3.22259 22.1411 3.2211C22.1342 3.21919 22.1273 3.21679 22.1196 3.21665ZM21.8402 3.25234C21.8466 3.25256 21.8599 3.24888 21.8646 3.24556C21.8723 3.24019 21.8754 3.22831 21.8708 3.22181C21.8668 3.21636 21.8605 3.21573 21.8471 3.21912C21.8386 3.22131 21.8299 3.22365 21.8212 3.22534C21.8078 3.22803 21.7962 3.22527 21.7867 3.21714C21.7795 3.21092 21.7732 3.20421 21.7688 3.1965C21.7449 3.15437 21.7205 3.11238 21.7001 3.06898C21.6935 3.05492 21.6858 3.04134 21.6743 3.02926C21.6704 3.02516 21.6655 3.02282 21.659 3.02396C21.6518 3.02516 21.647 3.02862 21.6455 3.03449C21.6432 3.04304 21.6472 3.04983 21.6578 3.05343C21.674 3.05887 21.6848 3.06821 21.6914 3.08086C21.7076 3.11161 21.724 3.14236 21.7396 3.17332C21.7519 3.19777 21.7675 3.22032 21.7937 3.23736C21.8072 3.24634 21.8225 3.25164 21.8402 3.25234ZM22.2249 3.12377C22.2249 3.11903 22.2215 3.11465 22.2167 3.11069C22.1909 3.0892 22.1654 3.06757 22.1394 3.04622C22.1298 3.0383 22.1209 3.02968 22.1095 3.02318C22.107 3.02169 22.1038 3.02085 22.1016 3.02233C22.0994 3.02381 22.1026 3.02544 22.1035 3.027C22.1042 3.02827 22.1053 3.02947 22.1063 3.03067C22.1373 3.06538 22.1683 3.10009 22.1993 3.13486C22.2021 3.1379 22.2053 3.14052 22.2096 3.14214C22.2118 3.14299 22.2142 3.1437 22.2157 3.14158C22.2196 3.13614 22.2245 3.13119 22.2249 3.12377ZM21.873 3.02282C21.8715 3.02191 21.8707 3.02261 21.8698 3.0229C21.8597 3.02608 21.8535 3.03272 21.8465 3.03873C21.8184 3.06297 21.7905 3.08729 21.7624 3.11154C21.7588 3.11465 21.7562 3.11811 21.7551 3.12221C21.7532 3.12893 21.7588 3.13727 21.7679 3.13995C21.7749 3.14207 21.7757 3.1355 21.7798 3.13345C21.78 3.13338 21.7802 3.1331 21.7803 3.13295C21.8101 3.10312 21.8372 3.07167 21.8621 3.03922C21.8663 3.03399 21.8706 3.02876 21.873 3.02282Z" fill="black"/>
<path d="M21.4004 6V4.54545H21.752V5.16051H21.7711L22.252 4.54545H22.666L22.1504 5.1946L22.6753 6H22.2548L21.8926 5.42827L21.752 5.60582V6H21.4004ZM22.2286 6.98153C22.2239 6.92945 22.2028 6.88897 22.1654 6.86009C22.1285 6.83073 22.0757 6.81605 22.007 6.81605C21.9616 6.81605 21.9237 6.82197 21.8934 6.83381C21.8631 6.84564 21.8404 6.86198 21.8252 6.88281C21.8101 6.90317 21.8022 6.92661 21.8018 6.95312C21.8008 6.97491 21.8051 6.99408 21.8146 7.01065C21.8245 7.02723 21.8387 7.0419 21.8572 7.05469C21.8761 7.067 21.8988 7.07789 21.9254 7.08736C21.9519 7.09683 21.9817 7.10511 22.0148 7.11222L22.1398 7.14062C22.2118 7.15625 22.2753 7.17708 22.3302 7.20312C22.3856 7.22917 22.432 7.26018 22.4694 7.29616C22.5073 7.33215 22.5359 7.37358 22.5553 7.42045C22.5747 7.46733 22.5847 7.51989 22.5852 7.57812C22.5847 7.66998 22.5615 7.74882 22.5155 7.81463C22.4696 7.88045 22.4036 7.93087 22.3174 7.96591C22.2317 8.00095 22.1282 8.01847 22.007 8.01847C21.8853 8.01847 21.7793 8.00024 21.6888 7.96378C21.5984 7.92732 21.5281 7.87192 21.4779 7.79759C21.4277 7.72325 21.4019 7.62926 21.4005 7.51562H21.7371C21.74 7.5625 21.7525 7.60156 21.7748 7.63281C21.797 7.66406 21.8276 7.68774 21.8664 7.70384C21.9057 7.71993 21.9512 7.72798 22.0028 7.72798C22.0501 7.72798 22.0904 7.72159 22.1235 7.70881C22.1571 7.69602 22.1829 7.67827 22.2009 7.65554C22.2189 7.63281 22.2281 7.60677 22.2286 7.57741C22.2281 7.54995 22.2196 7.52652 22.203 7.5071C22.1865 7.48722 22.1609 7.47017 22.1263 7.45597C22.0923 7.44129 22.0487 7.42779 21.9957 7.41548L21.8437 7.37997C21.7177 7.35109 21.6185 7.30445 21.5461 7.24006C21.4736 7.17519 21.4377 7.08759 21.4381 6.97727C21.4377 6.88731 21.4618 6.80848 21.5106 6.74077C21.5593 6.67306 21.6268 6.62027 21.713 6.58239C21.7992 6.54451 21.8974 6.52557 22.0077 6.52557C22.1204 6.52557 22.2182 6.54474 22.3011 6.5831C22.3844 6.62098 22.449 6.67424 22.495 6.7429C22.5409 6.81155 22.5643 6.8911 22.5653 6.98153H22.2286ZM21.6457 10H21.2679L21.7586 8.54545H22.2267L22.7174 10H22.3396L21.998 8.91193H21.9866L21.6457 10ZM21.5953 9.42756H22.385V9.6946H21.5953V9.42756Z" fill="black"/>
<path d="M14.7527 5.56286L14.7755 5.31286L14.5681 5.45774L14.4544 5.25888L14.6817 5.15376L14.4544 5.04865L14.5681 4.84979L14.7755 4.99467L14.7527 4.74467H14.98L14.9573 4.99467L15.1647 4.84979L15.2783 5.04865L15.051 5.15376L15.2783 5.25888L15.1647 5.45774L14.9573 5.31286L14.98 5.56286H14.7527ZM15.9695 5.56286L15.9922 5.31286L15.7849 5.45774L15.6712 5.25888L15.8985 5.15376L15.6712 5.04865L15.7849 4.84979L15.9922 4.99467L15.9695 4.74467H16.1968L16.1741 4.99467L16.3815 4.84979L16.4951 5.04865L16.2678 5.15376L16.4951 5.25888L16.3815 5.45774L16.1741 5.31286L16.1968 5.56286H15.9695ZM17.1863 5.56286L17.209 5.31286L17.0017 5.45774L16.888 5.25888L17.1153 5.15376L16.888 5.04865L17.0017 4.84979L17.209 4.99467L17.1863 4.74467H17.4136L17.3909 4.99467L17.5983 4.84979L17.7119 5.04865L17.4846 5.15376L17.7119 5.25888L17.5983 5.45774L17.3909 5.31286L17.4136 5.56286H17.1863ZM18.4031 5.56286L18.4258 5.31286L18.2185 5.45774L18.1048 5.25888L18.3321 5.15376L18.1048 5.04865L18.2185 4.84979L18.4258 4.99467L18.4031 4.74467H18.6304L18.6077 4.99467L18.815 4.84979L18.9287 5.04865L18.7014 5.15376L18.9287 5.25888L18.815 5.45774L18.6077 5.31286L18.6304 5.56286H18.4031ZM14.7527 7.56286L14.7755 7.31286L14.5681 7.45774L14.4544 7.25888L14.6817 7.15376L14.4544 7.04865L14.5681 6.84979L14.7755 6.99467L14.7527 6.74467H14.98L14.9573 6.99467L15.1647 6.84979L15.2783 7.04865L15.051 7.15376L15.2783 7.25888L15.1647 7.45774L14.9573 7.31286L14.98 7.56286H14.7527ZM15.9695 7.56286L15.9922 7.31286L15.7849 7.45774L15.6712 7.25888L15.8985 7.15376L15.6712 7.04865L15.7849 6.84979L15.9922 6.99467L15.9695 6.74467H16.1968L16.1741 6.99467L16.3815 6.84979L16.4951 7.04865L16.2678 7.15376L16.4951 7.25888L16.3815 7.45774L16.1741 7.31286L16.1968 7.56286H15.9695ZM17.1863 7.56286L17.209 7.31286L17.0017 7.45774L16.888 7.25888L17.1153 7.15376L16.888 7.04865L17.0017 6.84979L17.209 6.99467L17.1863 6.74467H17.4136L17.3909 6.99467L17.5983 6.84979L17.7119 7.04865L17.4846 7.15376L17.7119 7.25888L17.5983 7.45774L17.3909 7.31286L17.4136 7.56286H17.1863ZM18.4031 7.56286L18.4258 7.31286L18.2185 7.45774L18.1048 7.25888L18.3321 7.15376L18.1048 7.04865L18.2185 6.84979L18.4258 6.99467L18.4031 6.74467H18.6304L18.6077 6.99467L18.815 6.84979L18.9287 7.04865L18.7014 7.15376L18.9287 7.25888L18.815 7.45774L18.6077 7.31286L18.6304 7.56286H18.4031Z" fill="black"/>
<path d="M2.56327 5.56286L2.586 5.31286L2.37861 5.45774L2.26498 5.25888L2.49225 5.15376L2.26498 5.04865L2.37861 4.84979L2.586 4.99467L2.56327 4.74467H2.79054L2.76782 4.99467L2.9752 4.84979L3.08884 5.04865L2.86157 5.15376L3.08884 5.25888L2.9752 5.45774L2.76782 5.31286L2.79054 5.56286H2.56327ZM3.78007 5.56286L3.8028 5.31286L3.59541 5.45774L3.48177 5.25888L3.70905 5.15376L3.48177 5.04865L3.59541 4.84979L3.8028 4.99467L3.78007 4.74467H4.00734L3.98461 4.99467L4.192 4.84979L4.30564 5.04865L4.07836 5.15376L4.30564 5.25888L4.192 5.45774L3.98461 5.31286L4.00734 5.56286H3.78007ZM4.99687 5.56286L5.01959 5.31286L4.81221 5.45774L4.69857 5.25888L4.92584 5.15376L4.69857 5.04865L4.81221 4.84979L5.01959 4.99467L4.99687 4.74467H5.22414L5.20141 4.99467L5.4088 4.84979L5.52243 5.04865L5.29516 5.15376L5.52243 5.25888L5.4088 5.45774L5.20141 5.31286L5.22414 5.56286H4.99687ZM6.21366 5.56286L6.23639 5.31286L6.029 5.45774L5.91537 5.25888L6.14264 5.15376L5.91537 5.04865L6.029 4.84979L6.23639 4.99467L6.21366 4.74467H6.44094L6.41821 4.99467L6.62559 4.84979L6.73923 5.04865L6.51196 5.15376L6.73923 5.25888L6.62559 5.45774L6.41821 5.31286L6.44094 5.56286H6.21366ZM2.56327 7.56286L2.586 7.31286L2.37861 7.45774L2.26498 7.25888L2.49225 7.15376L2.26498 7.04865L2.37861 6.84979L2.586 6.99467L2.56327 6.74467H2.79054L2.76782 6.99467L2.9752 6.84979L3.08884 7.04865L2.86157 7.15376L3.08884 7.25888L2.9752 7.45774L2.76782 7.31286L2.79054 7.56286H2.56327ZM3.78007 7.56286L3.8028 7.31286L3.59541 7.45774L3.48177 7.25888L3.70905 7.15376L3.48177 7.04865L3.59541 6.84979L3.8028 6.99467L3.78007 6.74467H4.00734L3.98461 6.99467L4.192 6.84979L4.30564 7.04865L4.07836 7.15376L4.30564 7.25888L4.192 7.45774L3.98461 7.31286L4.00734 7.56286H3.78007ZM4.99687 7.56286L5.01959 7.31286L4.81221 7.45774L4.69857 7.25888L4.92584 7.15376L4.69857 7.04865L4.81221 6.84979L5.01959 6.99467L4.99687 6.74467H5.22414L5.20141 6.99467L5.4088 6.84979L5.52243 7.04865L5.29516 7.15376L5.52243 7.25888L5.4088 7.45774L5.20141 7.31286L5.22414 7.56286H4.99687ZM6.21366 7.56286L6.23639 7.31286L6.029 7.45774L5.91537 7.25888L6.14264 7.15376L5.91537 7.04865L6.029 6.84979L6.23639 6.99467L6.21366 6.74467H6.44094L6.41821 6.99467L6.62559 6.84979L6.73923 7.04865L6.51196 7.15376L6.73923 7.25888L6.62559 7.45774L6.41821 7.31286L6.44094 7.56286H6.21366Z" fill="black"/>
<path d="M10.3943 3.90398C10.3917 3.91184 10.389 3.91919 10.3873 3.92688C10.3857 3.93338 10.3824 3.93816 10.3757 3.93611C10.3489 3.92825 10.352 3.94568 10.3545 3.96106C10.3616 4.00464 10.3535 4.04669 10.3432 4.0889C10.3409 4.09813 10.3378 4.10445 10.3275 4.10309C10.3106 4.10086 10.311 4.10941 10.3141 4.12154C10.3185 4.13881 10.3227 4.15624 10.3256 4.17384C10.3278 4.18786 10.3268 4.20153 10.313 4.21093C10.3049 4.21657 10.3039 4.22546 10.3032 4.23469C10.3022 4.24955 10.3077 4.2634 10.3092 4.28134C10.2886 4.27075 10.2822 4.25212 10.2722 4.23657C10.2681 4.23007 10.2655 4.21794 10.2565 4.22135C10.2477 4.22477 10.2529 4.23554 10.2551 4.24306C10.267 4.28357 10.2787 4.32424 10.291 4.36475C10.2965 4.38269 10.2963 4.39876 10.2782 4.40952C10.2658 4.41687 10.2705 4.42764 10.272 4.43789C10.2867 4.53207 10.3015 4.62606 10.2984 4.72177C10.298 4.73357 10.3039 4.75134 10.293 4.75578C10.2784 4.76194 10.2662 4.74741 10.2567 4.73647C10.2007 4.67187 10.1568 4.59957 10.1237 4.52113C10.0479 4.34065 10.0229 4.15231 10.0338 3.95782C10.0389 3.86587 10.06 3.7758 10.0665 3.68419C10.0681 3.66146 10.0708 3.6389 10.0687 3.616C10.0681 3.60814 10.0679 3.59805 10.0581 3.59652C10.0498 3.59532 10.0426 3.60079 10.0372 3.60745C10.0279 3.61908 10.0284 3.63326 10.0257 3.64676C10.0229 3.66009 10.0224 3.67872 10.0016 3.66009C9.99657 3.65565 9.99071 3.65497 9.98623 3.65992C9.97314 3.67394 9.95867 3.6712 9.94058 3.66061C9.94058 3.69428 9.94075 3.72384 9.94041 3.75341C9.94041 3.75871 9.94334 3.76657 9.93627 3.76845C9.92714 3.77084 9.92732 3.76144 9.9249 3.75597C9.92335 3.75221 9.92301 3.74794 9.92146 3.74418C9.91853 3.737 9.92025 3.72384 9.91112 3.72453C9.89958 3.72538 9.89941 3.73888 9.89906 3.74794C9.89838 3.77323 9.90217 3.79819 9.90733 3.82297C9.90957 3.83391 9.91026 3.84519 9.91181 3.85783C9.88993 3.8551 9.88373 3.84023 9.8777 3.82502C9.87219 3.81118 9.87133 3.79443 9.85359 3.78657C9.84239 3.81767 9.84997 3.84878 9.84704 3.87903C9.84618 3.88877 9.85169 3.905 9.84049 3.90706C9.82723 3.90928 9.82602 3.8927 9.82172 3.88244C9.81724 3.87168 9.81689 3.85271 9.80311 3.85493C9.79174 3.85681 9.79433 3.8751 9.79398 3.88672C9.79329 3.91321 9.80346 3.93765 9.80966 3.96294C9.81276 3.97542 9.81552 3.98807 9.81931 4.00447C9.80983 4.00088 9.80328 3.999 9.79725 3.99627C9.77624 3.98687 9.76969 3.99012 9.774 4.01268C9.78003 4.04447 9.7895 4.07574 9.79881 4.10685C9.80242 4.11915 9.80449 4.12736 9.78726 4.12736C9.77055 4.12736 9.77021 4.13966 9.7709 4.15145C9.7721 4.17128 9.78227 4.18871 9.78778 4.20734C9.79691 4.23793 9.8007 4.26767 9.78382 4.2969C9.77882 4.30561 9.77813 4.3157 9.77917 4.32544C9.78037 4.33706 9.77658 4.34458 9.76452 4.34646C9.74988 4.34885 9.75212 4.35876 9.75402 4.36868C9.75712 4.38508 9.7628 4.40115 9.76177 4.41841C9.75109 4.41944 9.74781 4.41209 9.74471 4.40594C9.697 4.31245 9.64308 4.22204 9.6019 4.1253C9.52817 3.95235 9.54919 3.78708 9.64411 3.62813C9.67253 3.58045 9.70544 3.53584 9.73817 3.49124C9.76194 3.45876 9.78382 3.42561 9.78864 3.38442C9.79054 3.36767 9.79157 3.35109 9.78296 3.33554C9.77331 3.33827 9.77124 3.34631 9.7678 3.35212C9.75901 3.36682 9.74988 3.37434 9.73403 3.36066C9.72215 3.35041 9.7175 3.35776 9.71508 3.36938C9.71319 3.3781 9.70974 3.38664 9.70905 3.39553C9.70785 3.41262 9.69958 3.42082 9.68235 3.41894C9.66995 3.41758 9.6653 3.42441 9.66134 3.43467C9.65117 3.46201 9.64015 3.48901 9.62792 3.52012C9.61948 3.50269 9.61258 3.4885 9.60483 3.47244C9.57882 3.5032 9.58037 3.54405 9.55832 3.57669C9.54988 3.56627 9.54247 3.55704 9.53334 3.54576C9.5249 3.56797 9.51594 3.58797 9.50974 3.60865C9.50509 3.62437 9.49717 3.6283 9.48304 3.62198C9.47012 3.61617 9.46581 3.62181 9.46357 3.63394C9.45668 3.6712 9.44876 3.70812 9.44083 3.74691C9.42602 3.73769 9.4243 3.72077 9.41103 3.71171C9.3976 3.7288 9.39742 3.74879 9.39828 3.76742C9.40052 3.81203 9.37985 3.84929 9.36245 3.88774C9.3609 3.89116 9.35694 3.8968 9.35505 3.89646C9.32662 3.89116 9.33231 3.91355 9.3311 3.92722C9.32576 3.98465 9.31594 4.0419 9.3249 4.09984C9.32748 4.1171 9.32369 4.13351 9.31405 4.14889C9.30492 4.16342 9.29802 4.16085 9.29355 4.14701C9.28528 4.12154 9.2777 4.09574 9.27063 4.06993C9.24342 3.96909 9.22498 3.86655 9.22464 3.76195C9.22412 3.59686 9.28321 3.45654 9.40552 3.34203C9.52507 3.23009 9.65772 3.14036 9.81552 3.09029C9.856 3.07747 9.89803 3.06909 9.93696 3.05183C9.94282 3.04927 9.95212 3.04773 9.95143 3.04072C9.95074 3.03355 9.94213 3.02808 9.9349 3.02842C9.88683 3.03098 9.8367 3.01628 9.79174 3.04705C9.76986 3.06209 9.74592 3.06739 9.72146 3.0479C9.70974 3.0385 9.64807 3.05183 9.63687 3.06397C9.62929 3.07217 9.62189 3.08072 9.615 3.08858C9.60518 3.08601 9.60828 3.07884 9.60604 3.07422C9.60277 3.06721 9.60604 3.05576 9.59725 3.05303C9.58674 3.04978 9.57848 3.0585 9.57193 3.06516C9.56401 3.0732 9.5578 3.08294 9.55126 3.09234C9.54196 3.1055 9.53196 3.11404 9.51491 3.10362C9.49975 3.09439 9.49251 3.10704 9.48528 3.11644C9.47701 3.12737 9.46926 3.13199 9.45823 3.11951C9.44996 3.10994 9.44428 3.11182 9.43946 3.12378C9.43222 3.1419 9.42275 3.15899 9.41551 3.17711C9.41069 3.18907 9.40483 3.19266 9.39398 3.18446C9.38192 3.1754 9.37331 3.17899 9.36624 3.19129C9.3597 3.2024 9.35074 3.21214 9.34626 3.22479C9.33868 3.24598 9.3249 3.26273 9.30733 3.27692C9.29148 3.28974 9.27597 3.30307 9.26478 3.3205C9.26237 3.32443 9.25771 3.3299 9.25427 3.32973C9.22481 3.32785 9.22602 3.35041 9.22171 3.36853C9.2174 3.38664 9.21293 3.40493 9.20914 3.42322C9.20552 3.44116 9.20156 3.45757 9.18054 3.46475C9.16779 3.46902 9.16831 3.48303 9.16848 3.49448C9.169 3.51311 9.16469 3.53465 9.14574 3.53465C9.12472 3.53465 9.12438 3.50987 9.12524 3.4938C9.13868 3.26034 9.2348 3.07149 9.4336 2.93972C9.57038 2.84914 9.7237 2.80624 9.88614 2.79069C9.94403 2.78522 10.0017 2.77804 10.0584 2.76368C10.0779 2.75873 10.0954 2.75138 10.1073 2.72933C10.03 2.7242 9.95609 2.69703 9.87977 2.7213C9.8703 2.72437 9.85996 2.72916 9.85117 2.72352C9.82378 2.70609 9.80191 2.71873 9.77951 2.73377C9.77297 2.73822 9.76384 2.74779 9.75694 2.73497C9.74781 2.71788 9.7361 2.72027 9.72266 2.72779C9.67495 2.75462 9.62034 2.76573 9.56917 2.77667C9.49785 2.79171 9.45169 2.84315 9.39053 2.87101C9.38278 2.8746 9.37503 2.88691 9.36745 2.87956C9.35832 2.87084 9.37107 2.86213 9.37572 2.85512C9.45134 2.74283 9.54833 2.65191 9.6591 2.57415C9.78399 2.48647 9.92284 2.45502 10.0737 2.46904C10.1471 2.47587 10.2207 2.48339 10.2941 2.48955C10.3077 2.49074 10.329 2.4969 10.3332 2.48203C10.3363 2.47126 10.3153 2.4634 10.3023 2.4593C10.2669 2.44784 10.2393 2.42101 10.204 2.41007C10.1688 2.39914 10.1344 2.387 10.102 2.3694C10.0781 2.35641 10.0453 2.36547 10.0257 2.34051C10.0246 2.33915 10.0195 2.34034 10.0166 2.34154C9.96074 2.36427 9.90096 2.37025 9.84273 2.38273C9.82654 2.38615 9.81276 2.39503 9.79467 2.4029C9.79726 2.37658 9.81207 2.36068 9.82844 2.34701C9.88477 2.30052 9.95281 2.27916 10.0224 2.26326C10.1585 2.2325 10.2841 2.2595 10.4005 2.33385C10.4426 2.36068 10.4855 2.38598 10.5335 2.4017C10.5482 2.40648 10.552 2.40512 10.5521 2.38957C10.5532 2.32684 10.5595 2.26463 10.568 2.20242C10.5702 2.18601 10.5757 2.17884 10.5921 2.18037C10.6107 2.18208 10.6164 2.17473 10.6179 2.15559C10.6214 2.10962 10.6145 2.06262 10.63 2.01767C10.6322 2.011 10.6307 2.00109 10.6398 2.00007C10.6505 1.99904 10.651 2.01015 10.6543 2.01699C10.6682 2.04587 10.6626 2.07783 10.6675 2.10808C10.67 2.12244 10.6693 2.13731 10.6708 2.15183C10.6722 2.16568 10.6741 2.17867 10.6896 2.18601C10.701 2.19148 10.7025 2.20413 10.7027 2.21575C10.703 2.23045 10.703 2.24498 10.7034 2.25968C10.7041 2.28018 10.7072 2.29915 10.7216 2.31625C10.737 2.33453 10.7382 2.35795 10.7373 2.38119C10.7359 2.42084 10.7385 2.42392 10.775 2.40819C10.8253 2.38649 10.8734 2.35983 10.9199 2.33094C11.0155 2.27181 11.118 2.2472 11.23 2.26685C11.302 2.2795 11.3671 2.30941 11.43 2.34513C11.4488 2.35573 11.4627 2.37213 11.4715 2.39213C11.4789 2.40871 11.4736 2.41674 11.4553 2.41486C11.4474 2.41401 11.4396 2.41042 11.4319 2.40785C11.3776 2.39042 11.3208 2.37145 11.266 2.38888C11.2238 2.40238 11.1835 2.41025 11.1396 2.41144C11.1039 2.41247 11.0767 2.43964 11.0427 2.45622C11.0815 2.48579 11.1237 2.4863 11.1661 2.48425C11.2185 2.48151 11.2707 2.47553 11.323 2.47434C11.44 2.4716 11.5444 2.508 11.6334 2.58286C11.7034 2.64165 11.7713 2.70318 11.8352 2.76864C11.8626 2.79684 11.8838 2.82965 11.9012 2.86828C11.8838 2.8652 11.8715 2.85614 11.8589 2.84879C11.8193 2.82572 11.7782 2.80795 11.7332 2.7953C11.6929 2.78402 11.6539 2.76471 11.6173 2.74317C11.6045 2.73565 11.5911 2.7295 11.5766 2.72625C11.5561 2.72181 11.5361 2.71942 11.5247 2.74317C11.5201 2.75292 11.5134 2.75257 11.5051 2.74625C11.496 2.73924 11.4858 2.73377 11.4767 2.72711C11.4646 2.71822 11.4539 2.71156 11.444 2.73036C11.4376 2.74232 11.4276 2.73463 11.4205 2.73036C11.3959 2.71549 11.3721 2.70267 11.3439 2.7242C11.3382 2.72848 11.3263 2.7254 11.3173 2.72489C11.2898 2.72335 11.2632 2.72591 11.24 2.74283C11.2334 2.74762 11.2267 2.74898 11.2191 2.74608C11.2169 2.74522 11.2145 2.74437 11.2121 2.74403C11.1985 2.74249 11.1697 2.76249 11.1721 2.77377C11.1749 2.7871 11.19 2.78641 11.2 2.78761C11.2481 2.79308 11.2963 2.79684 11.3444 2.80128C11.4415 2.81017 11.5389 2.81752 11.6331 2.84486C11.8674 2.91254 12.0357 3.0532 12.1192 3.28444C12.1513 3.37331 12.1585 3.46611 12.1492 3.56421C12.1325 3.54883 12.1258 3.5314 12.1168 3.51585C12.0812 3.45364 12.0462 3.39126 12.0111 3.3287C12.0004 3.30973 11.989 3.29196 11.9642 3.29059C11.9549 3.29008 11.9551 3.28324 11.9537 3.27692C11.9416 3.21984 11.9012 3.18514 11.8564 3.15335C11.8543 3.15198 11.8521 3.15096 11.8498 3.14993C11.8345 3.14327 11.8148 3.14857 11.8023 3.13318C11.7919 3.12071 11.7811 3.10875 11.7702 3.09627C11.7523 3.1219 11.7523 3.12191 11.7323 3.09798C11.7292 3.09422 11.726 3.09046 11.7229 3.0867C11.7015 3.06089 11.701 3.06055 11.6805 3.08841C11.6744 3.09644 11.6707 3.09832 11.6641 3.09029C11.6589 3.08396 11.6534 3.07798 11.6486 3.07132C11.6388 3.05799 11.6319 3.04688 11.6105 3.06004C11.5949 3.06978 11.5713 3.05867 11.5521 3.07166C11.5454 3.07627 11.5344 3.05987 11.5246 3.0544C11.5206 3.05217 11.5172 3.04619 11.512 3.04927C11.5073 3.052 11.508 3.05781 11.5082 3.06243C11.5091 3.08584 11.5225 3.10191 11.5408 3.11404C11.6095 3.15985 11.6781 3.20565 11.7475 3.25043C11.8383 3.30905 11.921 3.37553 11.9754 3.47141C12.0367 3.57925 12.0536 3.69616 12.0509 3.81733C12.0481 3.94055 12.0185 4.05848 11.9804 4.17487C11.9747 4.19196 11.9697 4.18888 11.9601 4.17897C11.9403 4.1588 11.9409 4.13522 11.9471 4.11061C11.9497 4.10035 11.9537 4.09044 11.9582 4.08087C11.9647 4.06702 11.9616 4.05694 11.9475 4.05147C11.9322 4.04549 11.9303 4.03404 11.9315 4.01985C11.9328 4.00362 11.9328 3.98738 11.9341 3.97115C11.9353 3.95576 11.9368 3.94158 11.9132 3.94551C11.9041 3.94705 11.9036 3.93902 11.9036 3.93218C11.9036 3.90808 11.8965 3.88603 11.8875 3.86382C11.8777 3.83921 11.8874 3.81237 11.8819 3.78674C11.8786 3.77187 11.8779 3.75631 11.8762 3.74127C11.8729 3.74127 11.871 3.74076 11.8696 3.74127C11.836 3.75734 11.836 3.75751 11.8328 3.72008C11.8317 3.7088 11.8297 3.69735 11.8297 3.68607C11.8298 3.66283 11.8255 3.64625 11.7957 3.65531C11.784 3.6589 11.7831 3.64916 11.7813 3.64095C11.7744 3.61053 11.7668 3.58011 11.7585 3.54541C11.7465 3.56285 11.7372 3.57635 11.7253 3.59361C11.7123 3.55481 11.7008 3.51995 11.6886 3.48303C11.6827 3.48816 11.6789 3.49089 11.6757 3.49414C11.6486 3.52029 11.6486 3.52029 11.6338 3.4844C11.6288 3.47244 11.6233 3.46047 11.6193 3.44817C11.6142 3.43176 11.6078 3.42048 11.5869 3.41843C11.568 3.41655 11.5611 3.39724 11.5544 3.38168C11.5489 3.36921 11.5435 3.3622 11.5273 3.36459C11.5037 3.36818 11.4872 3.35519 11.4743 3.33622C11.4669 3.32546 11.4588 3.30597 11.445 3.31332C11.4302 3.32118 11.4369 3.34033 11.4422 3.35571C11.4553 3.39365 11.4832 3.42202 11.5063 3.4533C11.5533 3.51687 11.6066 3.57601 11.6465 3.64454C11.7291 3.78639 11.7406 3.93662 11.6968 4.09232C11.6651 4.20495 11.6102 4.30595 11.5401 4.39944C11.5301 4.41277 11.5203 4.42696 11.5005 4.43499C11.5018 4.42115 11.502 4.41004 11.5041 4.39927C11.5073 4.38201 11.5136 4.3644 11.4844 4.36526C11.476 4.36543 11.4772 4.35876 11.4793 4.35261C11.4832 4.34031 11.4869 4.32783 11.4903 4.31518C11.4932 4.30493 11.497 4.29194 11.4905 4.28425C11.4695 4.25895 11.4817 4.23554 11.491 4.21144C11.4979 4.19316 11.5041 4.1747 11.5113 4.15641C11.5172 4.14154 11.5127 4.13641 11.4975 4.14017C11.4798 4.14445 11.4767 4.13864 11.4808 4.12154C11.4905 4.08155 11.4979 4.04105 11.5063 4.00105C11.4908 3.99541 11.4782 4.01985 11.4688 4.00601C11.4626 3.99695 11.4688 3.97935 11.4696 3.96568C11.4707 3.9503 11.4717 3.93508 11.4729 3.91799C11.4564 3.92175 11.4521 3.9385 11.435 3.94739C11.435 3.89834 11.435 3.85271 11.435 3.80519C11.4128 3.81032 11.4124 3.82741 11.4054 3.83903C11.403 3.84297 11.4023 3.84946 11.3964 3.84963C11.3892 3.84997 11.3876 3.84297 11.3861 3.83801C11.3807 3.82075 11.3821 3.80263 11.3807 3.78486C11.3788 3.75956 11.3761 3.75734 11.3554 3.76982C11.3427 3.77751 11.342 3.77101 11.3408 3.76161C11.3387 3.74469 11.3363 3.72777 11.3344 3.71068C11.333 3.69923 11.3303 3.69052 11.3165 3.6994C11.3018 3.7088 11.2967 3.70026 11.292 3.68812C11.2812 3.66026 11.2627 3.63958 11.2334 3.62933C11.2186 3.6242 11.2109 3.62489 11.2136 3.64471C11.2235 3.71478 11.2338 3.78486 11.2405 3.85527C11.2593 4.05199 11.2517 4.24682 11.189 4.43653C11.1585 4.52882 11.1153 4.6153 11.0615 4.69665C11.0426 4.72536 11.0188 4.7498 10.9924 4.77168C10.9843 4.76621 10.9885 4.75903 10.9881 4.75322C10.9849 4.65888 10.9985 4.5642 10.9902 4.47037C10.984 4.40098 10.9945 4.33826 11.0219 4.27622C11.0231 4.27348 11.0233 4.27041 11.0247 4.26477C10.9957 4.26853 10.9888 4.29621 10.9656 4.31091C10.9637 4.27587 10.9616 4.24409 10.9601 4.21213C10.959 4.19179 10.9589 4.17145 10.958 4.15111C10.9564 4.11676 10.9518 4.08463 10.9296 4.05506C10.9005 4.01609 10.9056 3.96653 10.8972 3.92124C10.896 3.91526 10.8998 3.90654 10.8929 3.90364C10.8848 3.90022 10.8801 3.90894 10.8746 3.91338C10.8438 3.93919 10.8422 3.97781 10.8309 4.01216C10.8012 4.10138 10.8061 4.1935 10.8095 4.28545C10.8141 4.41209 10.8176 4.5389 10.8224 4.66571C10.8341 4.97608 10.8417 5.28662 10.8434 5.59733C10.8441 5.70313 10.8455 5.80875 10.8495 5.91454C10.8524 5.98974 10.8698 6.06237 10.9032 6.13074C10.9351 6.19585 10.9371 6.26165 10.9084 6.32882C10.8725 6.41239 10.8831 6.49306 10.9301 6.56894C10.9644 6.62432 11.0026 6.6773 11.039 6.73131C11.0508 6.74891 11.0624 6.76686 11.0693 6.78702C11.0851 6.83265 11.0676 6.86615 11.0207 6.87863C10.969 6.89247 10.9163 6.90033 10.8629 6.90119C10.712 6.90341 10.5611 6.90632 10.4102 6.90221C10.3583 6.90085 10.3073 6.89264 10.2579 6.87743C10.2093 6.86256 10.1935 6.82924 10.2131 6.78258C10.2329 6.73575 10.2638 6.69542 10.293 6.65423C10.3454 6.58057 10.384 6.50195 10.3857 6.40932C10.3866 6.3671 10.3792 6.32677 10.3606 6.28883C10.3368 6.24046 10.3378 6.19295 10.3649 6.14663C10.4119 6.0663 10.4195 5.97726 10.4229 5.88753C10.4327 5.62758 10.4377 5.36729 10.4429 5.10717C10.4472 4.88619 10.4598 4.66537 10.4677 4.44439C10.4725 4.30698 10.4663 4.16957 10.462 4.03216C10.4608 3.98431 10.4305 3.93047 10.3943 3.90398Z" fill="#127043"/>
<path d="M13.8758 6.42321C13.8384 6.43295 13.8031 6.43312 13.7681 6.43637C13.6048 6.45106 13.4413 6.46183 13.2787 6.48422C13.0677 6.51328 12.8578 6.54934 12.6511 6.60146C12.4665 6.64795 12.2883 6.71272 12.1138 6.78844C11.8975 6.88261 11.6866 6.98686 11.4925 7.12154C11.3219 7.2398 11.1714 7.38132 11.0248 7.5271C10.9906 7.56111 10.9571 7.59563 10.9243 7.63084C10.8999 7.65699 10.8993 7.66383 10.9212 7.69168C10.9853 7.77406 11.0499 7.85593 11.115 7.93745C11.2082 8.05418 11.3114 8.16219 11.4136 8.27089C11.427 8.28508 11.4422 8.29755 11.4561 8.31123C11.4683 8.32336 11.4745 8.31943 11.4797 8.3049C11.5047 8.23534 11.5304 8.16578 11.5557 8.09639C11.5664 8.06734 11.5781 8.03897 11.5951 8.01265C11.6349 7.95095 11.6949 7.93506 11.7579 7.97266C11.8211 8.01043 11.8506 8.06717 11.8454 8.14066C11.8432 8.17347 11.8224 8.19638 11.7841 8.20458C11.6937 8.22389 11.6527 8.28679 11.6346 8.36916C11.6182 8.44385 11.6346 8.50982 11.6897 8.56673C11.7417 8.62023 11.7951 8.67133 11.8589 8.71081C11.9143 8.74516 11.9274 8.74157 11.9565 8.68398C11.9734 8.65048 11.9908 8.61715 12.0201 8.5922C12.0938 8.5293 12.2079 8.5158 12.2961 8.61971C12.3631 8.69867 12.3805 8.79216 12.3703 8.89197C12.3638 8.95589 12.3397 9.01383 12.2976 9.06237C12.2292 9.1415 12.1385 9.15876 12.0389 9.14867C11.9342 9.13808 11.847 9.088 11.7621 9.03109C11.6656 8.96649 11.5677 8.90393 11.4704 8.84087C11.4411 8.8219 11.4403 8.82258 11.4148 8.84753C11.3553 8.90581 11.3021 8.97059 11.2366 9.02237C11.1496 9.09125 11.0161 9.08492 10.945 9.00785C10.8709 8.92752 10.8668 8.80583 10.9731 8.72038C10.9908 8.70619 11.0113 8.70585 11.031 8.71645C11.0654 8.73508 11.0987 8.7561 11.1338 8.77353C11.1798 8.79643 11.2265 8.78515 11.2597 8.74602C11.2804 8.72175 11.2835 8.69508 11.2708 8.66654C11.248 8.61578 11.2094 8.57665 11.1726 8.53648C11.0127 8.36198 10.8527 8.188 10.6925 8.01385C10.6771 7.9971 10.6625 7.97163 10.642 7.97009C10.6223 7.96856 10.6087 7.99573 10.5931 8.0106C10.4533 8.14356 10.3254 8.28747 10.1989 8.43274C10.1507 8.48811 10.1031 8.544 10.0551 8.59955C10.0389 8.61818 10.0253 8.63834 10.0158 8.66107C10.0018 8.69406 10.0051 8.72499 10.0297 8.75183C10.0556 8.78003 10.0871 8.79165 10.1252 8.77968C10.1583 8.76943 10.1868 8.74977 10.2175 8.73439C10.2306 8.72773 10.2437 8.72106 10.2573 8.71559C10.2799 8.70654 10.3014 8.70961 10.3192 8.72602C10.3726 8.77541 10.3918 8.83762 10.3812 8.90769C10.37 8.98067 10.3336 9.03895 10.2594 9.06219C10.1901 9.0839 10.125 9.06237 10.0632 9.03041C9.99684 8.99605 9.94878 8.94188 9.90364 8.88445C9.89003 8.86719 9.87436 8.85147 9.86161 8.83352C9.85196 8.81985 9.84335 8.8219 9.83095 8.82856C9.76169 8.86599 9.69951 8.91402 9.63422 8.9576C9.57031 9.00016 9.50984 9.04801 9.44162 9.08407C9.36203 9.12611 9.27711 9.14714 9.18632 9.14389C9.06487 9.13962 8.97374 9.06801 8.93137 8.94239C8.88778 8.81335 8.92568 8.67697 9.02973 8.58844C9.11259 8.51802 9.21923 8.52862 9.2871 8.6139C9.31104 8.64398 9.3312 8.67646 9.35187 8.70859C9.37116 8.73832 9.37668 8.74106 9.40682 8.72397C9.49778 8.67287 9.57427 8.6045 9.6387 8.52315C9.66023 8.49615 9.66436 8.46333 9.65523 8.43035C9.64214 8.38335 9.62715 8.33703 9.61354 8.2902C9.60183 8.25021 9.57651 8.22423 9.53602 8.21261C9.53051 8.21107 9.52534 8.20868 9.51983 8.20697C9.45092 8.18544 9.43284 8.15587 9.44558 8.0846C9.46126 7.99727 9.54619 7.94155 9.6318 7.96223C9.67108 7.9718 9.69623 7.99624 9.70933 8.03333C9.73723 8.11229 9.76462 8.19142 9.79253 8.27038C9.81131 8.32387 9.82233 8.32661 9.86058 8.28473C10.0325 8.09588 10.1986 7.9019 10.355 7.70023C10.3758 7.67323 10.3751 7.6669 10.3552 7.63751C10.3116 7.57342 10.2539 7.52249 10.1987 7.46933C10.0699 7.34508 9.93413 7.22921 9.79081 7.12137C9.66316 7.02532 9.52121 6.9549 9.37823 6.88602C9.21612 6.80792 9.05092 6.73648 8.88089 6.67718C8.65488 6.59822 8.42525 6.53361 8.18752 6.49994C8.04712 6.48012 7.90603 6.46662 7.76512 6.45106C7.68519 6.44218 7.6056 6.43158 7.52584 6.4215C7.51688 6.4203 7.50775 6.41928 7.5 6.40868C7.52705 6.39706 7.55547 6.39467 7.58286 6.3933C7.81697 6.38133 8.04988 6.35262 8.28485 6.3557C8.5603 6.35929 8.833 6.38526 9.10105 6.45072C9.28227 6.49499 9.45592 6.55993 9.62388 6.64009C9.79081 6.7199 9.95532 6.80365 10.1062 6.91149C10.2356 7.00378 10.3565 7.10598 10.4718 7.21485C10.5186 7.25912 10.5657 7.30338 10.6099 7.35004C10.628 7.36918 10.6397 7.36593 10.6558 7.35124C10.71 7.30167 10.7653 7.25313 10.8187 7.20272C11.0454 6.98891 11.2973 6.81083 11.5777 6.67273C11.7521 6.58677 11.9331 6.51857 12.12 6.46559C12.3178 6.40936 12.5197 6.37843 12.7249 6.36493C12.9207 6.35211 13.1164 6.35809 13.3121 6.368C13.416 6.3733 13.52 6.37723 13.6239 6.38475C13.6982 6.39022 13.7722 6.40048 13.8463 6.40885C13.8553 6.41073 13.8653 6.41227 13.8758 6.42321ZM12.0577 8.98324C12.0675 8.98324 12.0773 8.98375 12.0871 8.98306C12.1702 8.97725 12.2175 8.94222 12.2367 8.87266C12.252 8.81694 12.2239 8.73764 12.1767 8.70431C12.1359 8.67543 12.0844 8.69508 12.0632 8.74892C12.0491 8.78464 12.041 8.82173 12.0387 8.86052C12.0367 8.89881 12.0206 8.9106 11.9826 8.9065C11.9669 8.90479 11.9524 8.89915 11.9378 8.89402C11.8472 8.86257 11.7748 8.80583 11.7097 8.73747C11.6737 8.6997 11.6339 8.66552 11.5965 8.62911C11.5832 8.6163 11.5764 8.61903 11.5679 8.6339C11.5479 8.66859 11.55 8.69782 11.5774 8.72756C11.6211 8.7749 11.668 8.81916 11.7205 8.85711C11.8211 8.92991 11.9309 8.97965 12.0577 8.98324ZM9.05419 8.83352C9.05419 8.93367 9.09847 8.98392 9.19614 8.98717C9.29296 8.99041 9.38477 8.96461 9.46884 8.91692C9.56118 8.86445 9.63663 8.78994 9.71587 8.72089C9.7374 8.70209 9.74068 8.67628 9.73086 8.64911C9.72087 8.62142 9.71811 8.61971 9.69399 8.63527C9.68176 8.6433 9.66988 8.65219 9.65885 8.66193C9.59081 8.72175 9.52276 8.78139 9.45558 8.84224C9.4144 8.87949 9.36772 8.90034 9.31173 8.90205C9.26677 8.90342 9.25247 8.89214 9.24662 8.84856C9.24231 8.81711 9.23628 8.78601 9.23197 8.75456C9.22732 8.7197 9.20854 8.69765 9.17375 8.69115C9.13723 8.68432 9.10691 8.69628 9.08572 8.72653C9.06246 8.75952 9.05609 8.79797 9.05419 8.83352ZM11.053 8.81369C11.0323 8.81352 11.0192 8.82412 11.012 8.84258C10.9972 8.88035 11.0153 8.92342 11.052 8.94136C11.1188 8.97418 11.1827 8.96392 11.2385 8.92102C11.3111 8.86531 11.3683 8.79592 11.4053 8.71081C11.4713 8.55938 11.539 8.40881 11.6065 8.25824C11.6246 8.21774 11.6511 8.18424 11.695 8.16852C11.7097 8.16322 11.7195 8.15245 11.7288 8.14117C11.7493 8.11639 11.7445 8.08699 11.7164 8.06187C11.6925 8.04034 11.6654 8.04136 11.6429 8.06563C11.6203 8.0899 11.6062 8.11947 11.5944 8.14989C11.5443 8.28046 11.4945 8.41104 11.4454 8.54212C11.4077 8.64296 11.3553 8.73491 11.2832 8.81557C11.2537 8.84856 11.2174 8.86018 11.1746 8.85027C11.1564 8.846 11.1391 8.83779 11.1214 8.83164C11.0993 8.82395 11.0773 8.81438 11.053 8.81369ZM10.166 8.95572C10.1863 8.95657 10.2285 8.94188 10.2435 8.92872C10.268 8.90752 10.2776 8.86018 10.263 8.83455C10.2506 8.81301 10.2304 8.81028 10.1881 8.82395C10.1608 8.83267 10.1336 8.84172 10.1059 8.84873C10.0633 8.85933 10.0265 8.84839 9.99649 8.81626C9.97358 8.79165 9.95343 8.76499 9.93965 8.73422C9.86368 8.56673 9.78633 8.4001 9.72156 8.22799C9.70054 8.17228 9.67625 8.11827 9.6399 8.07025C9.6275 8.05384 9.61199 8.04478 9.59132 8.04922C9.56875 8.05418 9.5536 8.06768 9.5486 8.0911C9.54136 8.12511 9.55377 8.15194 9.58753 8.1663C9.63887 8.188 9.67315 8.22509 9.69417 8.27516C9.74567 8.39736 9.79787 8.51922 9.84731 8.64227C9.88642 8.73952 9.93568 8.82873 10.0187 8.89676C10.0614 8.93179 10.1098 8.95281 10.166 8.95572ZM11.3874 8.44505C11.3872 8.42642 11.3765 8.40881 11.3614 8.39309C11.2795 8.30781 11.1982 8.22201 11.1161 8.13707C11.0856 8.10545 11.0571 8.07144 11.021 8.04563C11.0129 8.03982 11.0031 8.03623 10.9962 8.04222C10.9893 8.0482 10.9994 8.05452 11.002 8.06067C11.0043 8.0658 11.0075 8.07059 11.011 8.0752C11.1093 8.21312 11.2079 8.35088 11.3064 8.4888C11.315 8.50093 11.3252 8.51119 11.339 8.51768C11.346 8.52093 11.3538 8.52383 11.3584 8.51546C11.3705 8.49427 11.386 8.47461 11.3874 8.44505ZM10.2701 8.04427C10.2652 8.04068 10.2628 8.04341 10.2599 8.04461C10.228 8.05726 10.2082 8.08358 10.1862 8.1075C10.0971 8.2039 10.0082 8.30029 9.91915 8.39668C9.90778 8.40898 9.89951 8.42283 9.89589 8.43906C9.88986 8.4659 9.90778 8.49888 9.93672 8.50965C9.95911 8.51802 9.96152 8.49205 9.97462 8.48384C9.97531 8.4835 9.97565 8.48265 9.97617 8.48196C10.0711 8.36352 10.1565 8.23876 10.2359 8.10972C10.249 8.0887 10.2626 8.06768 10.2701 8.04427Z" fill="#A67C1D"/>
</g>
<rect x="0.6" y="0.6" width="23.8" height="10.837" rx="1.4" stroke="black" stroke-width="1.2"/>
<defs>
<clipPath id="clip0_29357_45260">
<rect width="25" height="12.037" rx="2" fill="white"/>
</clipPath>
</defs>
</svg>
