<svg width="33" height="23" viewBox="0 0 33 23" fill="none" xmlns="http://www.w3.org/2000/svg">
<g clip-path="url(#clip0_29357_45260)">
<rect width="32.2" height="23" rx="2" fill="white"/>
<path d="M25.7676 23.0234L25.7676 1.13991" stroke="black"/>
<path d="M13.3152 6.63806C13.3113 6.65309 13.3072 6.66713 13.3046 6.68182C13.3023 6.69423 13.2974 6.70338 13.2874 6.69946C13.2474 6.68444 13.252 6.71775 13.2559 6.74714C13.2664 6.83041 13.2543 6.91075 13.2389 6.99141C13.2356 7.00904 13.231 7.02113 13.2156 7.01851C13.1904 7.01427 13.1909 7.0306 13.1955 7.05378C13.2022 7.08677 13.2084 7.12008 13.2127 7.15371C13.2161 7.18049 13.2145 7.20661 13.194 7.22458C13.1819 7.23535 13.1804 7.25233 13.1794 7.26997C13.1778 7.29838 13.186 7.32483 13.1884 7.35912C13.1576 7.33887 13.1481 7.30328 13.1332 7.27356C13.127 7.26115 13.1232 7.23797 13.1098 7.2445C13.0967 7.25103 13.1044 7.2716 13.1078 7.28597C13.1255 7.36337 13.1429 7.44109 13.1611 7.51848C13.1694 7.55277 13.1691 7.58347 13.1421 7.60405C13.1237 7.61809 13.1306 7.63866 13.1329 7.65825C13.1547 7.83819 13.1768 8.0178 13.1722 8.20068C13.1717 8.22321 13.1804 8.25718 13.1642 8.26567C13.1424 8.27742 13.1242 8.24966 13.1101 8.22876C13.0266 8.10532 12.9612 7.96719 12.9119 7.81729C12.799 7.47244 12.7617 7.11256 12.7779 6.74093C12.7856 6.56524 12.8169 6.39314 12.8267 6.2181C12.829 6.17467 12.8331 6.13156 12.83 6.0878C12.829 6.07278 12.8287 6.05351 12.8141 6.05057C12.8018 6.04829 12.791 6.05874 12.7831 6.07147C12.7692 6.09368 12.77 6.12079 12.7659 6.14658C12.7617 6.17206 12.761 6.20765 12.7299 6.17206C12.7225 6.16357 12.7137 6.16226 12.7071 6.17173C12.6876 6.19851 12.666 6.19328 12.6391 6.17304C12.6391 6.23737 12.6393 6.29386 12.6388 6.35036C12.6388 6.36048 12.6432 6.37551 12.6326 6.3791C12.619 6.38367 12.6193 6.36571 12.6157 6.35526C12.6134 6.34807 12.6129 6.33991 12.6106 6.33273C12.6062 6.31901 12.6088 6.29387 12.5952 6.29517C12.578 6.2968 12.5777 6.3226 12.5772 6.33991C12.5762 6.38824 12.5818 6.43592 12.5895 6.48327C12.5929 6.50417 12.5939 6.52573 12.5962 6.54989C12.5636 6.54467 12.5544 6.51626 12.5454 6.48719C12.5372 6.46074 12.5359 6.42874 12.5094 6.41371C12.4927 6.47315 12.504 6.53258 12.4997 6.59039C12.4984 6.609 12.5066 6.64002 12.4899 6.64394C12.4702 6.64819 12.4684 6.61651 12.4619 6.59692C12.4553 6.57634 12.4548 6.54009 12.4342 6.54434C12.4173 6.54793 12.4211 6.58288 12.4206 6.60508C12.4196 6.6557 12.4347 6.7024 12.444 6.75073C12.4486 6.77457 12.4527 6.79873 12.4584 6.83009C12.4442 6.82323 12.4345 6.81964 12.4255 6.81441C12.3942 6.79645 12.3844 6.80265 12.3908 6.84576C12.3998 6.9065 12.4139 6.96626 12.4278 7.0257C12.4332 7.04921 12.4363 7.06489 12.4106 7.06489C12.3857 7.06489 12.3852 7.0884 12.3862 7.11093C12.388 7.14881 12.4032 7.18212 12.4114 7.21772C12.425 7.27617 12.4306 7.333 12.4055 7.38884C12.398 7.40549 12.397 7.42476 12.3985 7.44337C12.4003 7.46558 12.3947 7.47995 12.3767 7.48354C12.3549 7.48811 12.3582 7.50705 12.3611 7.526C12.3657 7.55735 12.3742 7.58804 12.3726 7.62103C12.3567 7.62299 12.3518 7.60894 12.3472 7.59719C12.2761 7.41856 12.1958 7.2458 12.1344 7.06097C12.0246 6.73048 12.0559 6.41469 12.1973 6.11099C12.2397 6.01988 12.2887 5.93464 12.3375 5.84941C12.3729 5.78736 12.4055 5.72401 12.4127 5.64531C12.4155 5.6133 12.417 5.58163 12.4042 5.55191C12.3898 5.55713 12.3867 5.57248 12.3816 5.58359C12.3685 5.61167 12.3549 5.62604 12.3313 5.59991C12.3136 5.58032 12.3067 5.59436 12.3031 5.61657C12.3002 5.63322 12.2951 5.64955 12.2941 5.66653C12.2923 5.69919 12.28 5.71486 12.2543 5.71127C12.2358 5.70866 12.2289 5.72172 12.223 5.74132C12.2078 5.79357 12.1914 5.84516 12.1732 5.9046C12.1606 5.87129 12.1503 5.84418 12.1388 5.81349C12.1 5.87227 12.1023 5.95032 12.0695 6.01269C12.0569 5.99277 12.0459 5.97514 12.0323 5.95358C12.0197 5.99604 12.0063 6.03425 11.9971 6.07376C11.9902 6.1038 11.9784 6.11132 11.9573 6.09923C11.9381 6.08813 11.9316 6.09891 11.9283 6.12209C11.918 6.19328 11.9062 6.26382 11.8944 6.33795C11.8724 6.32032 11.8698 6.28799 11.85 6.27068C11.83 6.30334 11.8297 6.34154 11.831 6.37714C11.8344 6.46237 11.8036 6.53356 11.7776 6.60704C11.7753 6.61357 11.7694 6.62435 11.7666 6.6237C11.7242 6.61357 11.7327 6.65635 11.7309 6.68248C11.723 6.7922 11.7083 6.9016 11.7217 7.01231C11.7255 7.04529 11.7199 7.07664 11.7055 7.10603C11.6919 7.13379 11.6816 7.12889 11.675 7.10244C11.6626 7.05378 11.6513 7.00447 11.6408 6.95516C11.6003 6.76249 11.5728 6.56655 11.5723 6.36669C11.5715 6.05123 11.6596 5.78312 11.8418 5.56432C12.0199 5.35042 12.2176 5.17897 12.4527 5.08329C12.513 5.05879 12.5757 5.04279 12.6337 5.00981C12.6424 5.00491 12.6563 5.00197 12.6552 4.98858C12.6542 4.97487 12.6414 4.96442 12.6306 4.96507C12.559 4.96997 12.4843 4.94188 12.4173 5.00067C12.3847 5.0294 12.349 5.03953 12.3126 5.0023C12.2951 4.98434 12.2032 5.00981 12.1865 5.033C12.1752 5.04867 12.1642 5.065 12.1539 5.08002C12.1393 5.07512 12.1439 5.06141 12.1406 5.05259C12.1357 5.0392 12.1406 5.01732 12.1275 5.0121C12.1118 5.00589 12.0995 5.02255 12.0898 5.03528C12.078 5.05063 12.0687 5.06924 12.059 5.08721C12.0451 5.11235 12.0302 5.12868 12.0048 5.10876C11.9822 5.09112 11.9714 5.11529 11.9606 5.13325C11.9483 5.15415 11.9368 5.16297 11.9204 5.13913C11.908 5.12084 11.8996 5.12443 11.8924 5.14729C11.8816 5.18191 11.8675 5.21457 11.8567 5.24918C11.8495 5.27204 11.8408 5.2789 11.8246 5.26322C11.8066 5.24592 11.7938 5.25277 11.7833 5.27629C11.7735 5.29751 11.7602 5.31613 11.7535 5.34029C11.7422 5.38079 11.7217 5.41279 11.6955 5.4399C11.6719 5.46439 11.6488 5.48986 11.6321 5.52317C11.6285 5.53068 11.6216 5.54113 11.6164 5.54081C11.5725 5.53721 11.5743 5.58032 11.5679 5.61494C11.5615 5.64955 11.5548 5.68449 11.5492 5.71944C11.5438 5.75373 11.5379 5.78508 11.5066 5.79879C11.4876 5.80696 11.4884 5.83373 11.4886 5.85561C11.4894 5.89121 11.483 5.93236 11.4547 5.93236C11.4234 5.93236 11.4229 5.88501 11.4242 5.85431C11.4442 5.40822 11.5874 5.04737 11.8836 4.79558C12.0874 4.6225 12.3159 4.54054 12.5579 4.51082C12.6442 4.50037 12.7302 4.48665 12.8146 4.45922C12.8436 4.44975 12.8698 4.43571 12.8875 4.39358C12.7723 4.38378 12.6622 4.33186 12.5484 4.37823C12.5343 4.38411 12.5189 4.39325 12.5058 4.38248C12.465 4.34917 12.4324 4.37333 12.3991 4.40207C12.3893 4.41056 12.3757 4.42885 12.3654 4.40436C12.3518 4.3717 12.3344 4.37627 12.3144 4.39064C12.2433 4.44191 12.1619 4.46314 12.0857 4.48404C11.9794 4.51278 11.9106 4.61107 11.8195 4.6643C11.8079 4.67116 11.7964 4.69467 11.7851 4.68063C11.7715 4.66398 11.7905 4.64732 11.7974 4.63393C11.9101 4.41938 12.0546 4.24565 12.2196 4.09706C12.4057 3.92953 12.6126 3.86944 12.8375 3.89622C12.9468 3.90928 13.0564 3.92365 13.1658 3.93541C13.186 3.9377 13.2179 3.94945 13.224 3.92104C13.2287 3.90047 13.1973 3.88545 13.1781 3.87761C13.1252 3.85573 13.0841 3.80446 13.0315 3.78356C12.9792 3.76266 12.9278 3.73947 12.8796 3.70583C12.8439 3.68102 12.7951 3.69832 12.7659 3.65065C12.7643 3.64803 12.7566 3.65032 12.7523 3.6526C12.6691 3.69604 12.58 3.70747 12.4933 3.73131C12.4691 3.73784 12.4486 3.75482 12.4216 3.76984C12.4255 3.71955 12.4476 3.68918 12.472 3.66305C12.5559 3.57423 12.6573 3.53341 12.761 3.50304C12.9638 3.44426 13.1509 3.49585 13.3244 3.63791C13.387 3.68918 13.4509 3.73751 13.5225 3.76756C13.5444 3.7767 13.55 3.77409 13.5503 3.74437C13.5518 3.62452 13.5613 3.50565 13.5739 3.38678C13.5772 3.35543 13.5854 3.34171 13.6098 3.34465C13.6375 3.34792 13.646 3.33388 13.6483 3.2973C13.6535 3.20946 13.6432 3.11965 13.6663 3.03376C13.6696 3.02103 13.6673 3.00209 13.6809 3.00013C13.6968 2.99817 13.6976 3.01939 13.7025 3.03246C13.7233 3.08765 13.7148 3.14871 13.7222 3.20652C13.7258 3.23395 13.7248 3.26236 13.7271 3.29012C13.7292 3.31657 13.732 3.34139 13.7551 3.35543C13.772 3.36588 13.7744 3.39005 13.7746 3.41225C13.7751 3.44034 13.7751 3.46809 13.7756 3.49618C13.7767 3.53537 13.7813 3.57162 13.8028 3.60427C13.8257 3.63922 13.8275 3.68395 13.8262 3.72837C13.8241 3.80413 13.828 3.81001 13.8824 3.77996C13.9574 3.73849 14.029 3.68755 14.0983 3.63236C14.2407 3.51937 14.3935 3.47234 14.5603 3.5099C14.6676 3.53406 14.7646 3.59121 14.8583 3.65946C14.8863 3.67971 14.9071 3.71106 14.9202 3.74927C14.9312 3.78094 14.9233 3.79629 14.896 3.7927C14.8842 3.79107 14.8727 3.78421 14.8611 3.77931C14.7803 3.746 14.6956 3.70975 14.614 3.74306C14.5511 3.76886 14.491 3.78388 14.4256 3.78617C14.3724 3.78813 14.3319 3.84005 14.2813 3.87173C14.3391 3.92823 14.4019 3.92921 14.4651 3.92529C14.5431 3.92006 14.6209 3.90863 14.6989 3.90635C14.8732 3.90112 15.0287 3.97068 15.1615 4.11371C15.2657 4.22605 15.3668 4.34362 15.462 4.46869C15.5028 4.52257 15.5344 4.58528 15.5603 4.65908C15.5344 4.6532 15.5162 4.63589 15.4974 4.62185C15.4384 4.57776 15.3771 4.5438 15.3101 4.51964C15.25 4.49808 15.192 4.46118 15.1373 4.42003C15.1183 4.40566 15.0983 4.39391 15.0767 4.3877C15.0462 4.37921 15.0164 4.37464 14.9995 4.42003C14.9926 4.43865 14.9825 4.43799 14.9702 4.42591C14.9566 4.41252 14.9415 4.40207 14.9279 4.38934C14.9099 4.37235 14.894 4.35962 14.8791 4.39554C14.8696 4.4184 14.8547 4.4037 14.8442 4.39554C14.8075 4.36713 14.7721 4.34264 14.73 4.38378C14.7215 4.39195 14.7038 4.38607 14.6904 4.38509C14.6494 4.38215 14.6098 4.38705 14.5752 4.41938C14.5654 4.42852 14.5554 4.43114 14.5441 4.42558C14.5408 4.42395 14.5372 4.42232 14.5336 4.42167C14.5133 4.41873 14.4705 4.45693 14.4741 4.47849C14.4782 4.50396 14.5008 4.50265 14.5156 4.50494C14.5873 4.51539 14.6591 4.52257 14.7307 4.53107C14.8755 4.54805 15.0205 4.56209 15.1609 4.61434C15.51 4.74366 15.7608 5.01242 15.8853 5.45427C15.933 5.62408 15.9438 5.8014 15.93 5.98885C15.9051 5.95946 15.895 5.92615 15.8817 5.89643C15.8286 5.77756 15.7765 5.65837 15.7241 5.53885C15.7082 5.5026 15.6912 5.46863 15.6543 5.46602C15.6404 5.46504 15.6407 5.45198 15.6386 5.4399C15.6207 5.33082 15.5603 5.26453 15.4936 5.20379C15.4905 5.20118 15.4872 5.19922 15.4838 5.19726C15.461 5.18452 15.4317 5.19465 15.413 5.16525C15.3976 5.14142 15.3814 5.11856 15.3653 5.09472C15.3386 5.1437 15.3386 5.1437 15.3088 5.09798C15.3042 5.0908 15.2993 5.08361 15.2947 5.07643C15.2628 5.02712 15.2621 5.02646 15.2315 5.0797C15.2225 5.09504 15.2169 5.09864 15.2071 5.08329C15.1994 5.0712 15.1912 5.05977 15.184 5.04704C15.1694 5.02157 15.1591 5.00034 15.1273 5.02549C15.104 5.0441 15.0688 5.02287 15.0403 5.04769C15.0303 5.05651 15.0139 5.02516 14.9992 5.01471C14.9933 5.01046 14.9882 4.99903 14.9805 5.00491C14.9736 5.01014 14.9746 5.02124 14.9748 5.03006C14.9761 5.0748 14.9962 5.10549 15.0234 5.12868C15.1258 5.2162 15.2279 5.30372 15.3314 5.38928C15.4666 5.50129 15.5899 5.62832 15.671 5.81153C15.7623 6.01759 15.7875 6.24096 15.7834 6.4725C15.7793 6.70795 15.7351 6.93328 15.6784 7.15567C15.6699 7.18833 15.6625 7.18245 15.6481 7.16351C15.6186 7.12497 15.6196 7.07991 15.6289 7.03288C15.6327 7.01329 15.6386 6.99435 15.6453 6.97606C15.655 6.94961 15.6504 6.93034 15.6294 6.91989C15.6065 6.90846 15.6037 6.88658 15.6055 6.85948C15.6076 6.82845 15.6076 6.79743 15.6094 6.7664C15.6112 6.73701 15.6135 6.70991 15.5783 6.71742C15.5647 6.72036 15.5639 6.70501 15.5639 6.69195C15.5639 6.6459 15.5534 6.60378 15.5401 6.56132C15.5254 6.5143 15.5398 6.46303 15.5316 6.41404C15.5267 6.38563 15.5257 6.35591 15.5231 6.32717C15.5182 6.32717 15.5154 6.32619 15.5134 6.32717C15.4633 6.35787 15.4633 6.3582 15.4584 6.28668C15.4569 6.26513 15.4538 6.24325 15.4538 6.22169C15.4541 6.17728 15.4477 6.1456 15.4032 6.16291C15.3858 6.16977 15.3845 6.15116 15.3817 6.13548C15.3714 6.07735 15.3601 6.01922 15.3478 5.95293C15.3298 5.98624 15.316 6.01204 15.2983 6.04502C15.279 5.97089 15.2618 5.90427 15.2436 5.83373C15.2349 5.84353 15.2292 5.84876 15.2243 5.85496C15.184 5.90493 15.184 5.90493 15.162 5.83635C15.1545 5.81349 15.1463 5.79063 15.1404 5.76712C15.1327 5.73576 15.1232 5.71421 15.0921 5.71029C15.0639 5.7067 15.0536 5.6698 15.0436 5.64008C15.0354 5.61624 15.0275 5.60285 15.0033 5.60742C14.9682 5.61428 14.9435 5.58946 14.9243 5.55321C14.9132 5.53264 14.9012 5.49541 14.8806 5.50945C14.8586 5.52448 14.8686 5.56105 14.8765 5.59044C14.896 5.66294 14.9376 5.71715 14.972 5.77691C15.0421 5.89839 15.1214 6.01139 15.181 6.14234C15.3039 6.41339 15.3211 6.70044 15.2559 6.99794C15.2087 7.21315 15.1268 7.40615 15.0223 7.58478C15.0074 7.61025 14.9928 7.63735 14.9633 7.6527C14.9653 7.62625 14.9656 7.60502 14.9687 7.58445C14.9736 7.55147 14.9828 7.51783 14.9394 7.51946C14.9268 7.51979 14.9286 7.50706 14.9317 7.4953C14.9376 7.47179 14.943 7.44795 14.9482 7.42378C14.9525 7.40419 14.9582 7.37937 14.9484 7.36467C14.9171 7.31634 14.9353 7.2716 14.9492 7.22556C14.9594 7.19061 14.9687 7.15534 14.9795 7.1204C14.9882 7.09199 14.9815 7.08219 14.9589 7.08938C14.9325 7.09754 14.9279 7.08644 14.934 7.05378C14.9484 6.97737 14.9594 6.89997 14.972 6.82355C14.9489 6.81278 14.9302 6.85948 14.9161 6.83302C14.9068 6.81572 14.9161 6.78208 14.9174 6.75596C14.9189 6.72656 14.9204 6.6975 14.9222 6.66484C14.8976 6.67203 14.8912 6.70403 14.8658 6.72101C14.8658 6.62729 14.8658 6.5401 14.8658 6.44931C14.8326 6.45911 14.8321 6.49176 14.8216 6.51397C14.818 6.52148 14.817 6.53389 14.8083 6.53422C14.7975 6.53487 14.7952 6.52148 14.7929 6.51201C14.7849 6.47903 14.787 6.44441 14.7849 6.41045C14.7821 6.36212 14.778 6.35787 14.7472 6.38171C14.7282 6.39641 14.7272 6.384 14.7254 6.36604C14.7223 6.33371 14.7187 6.30138 14.7159 6.26872C14.7138 6.24684 14.7097 6.23018 14.6892 6.24717C14.6673 6.26513 14.6596 6.2488 14.6527 6.22561C14.6365 6.17238 14.6091 6.13287 14.5654 6.11327C14.5434 6.10348 14.5318 6.10478 14.5359 6.14267C14.5506 6.27656 14.566 6.41045 14.576 6.54499C14.6039 6.92087 14.5927 7.29315 14.4992 7.65564C14.4538 7.83199 14.3894 7.99723 14.3093 8.15267C14.281 8.20754 14.2456 8.25424 14.2063 8.29604C14.1943 8.28559 14.2004 8.27187 14.1999 8.26077C14.1951 8.0805 14.2153 7.89959 14.203 7.7203C14.1938 7.58772 14.2094 7.46787 14.2502 7.34932C14.252 7.3441 14.2523 7.33822 14.2543 7.32744C14.2112 7.33463 14.201 7.38753 14.1663 7.41562C14.1635 7.34867 14.1604 7.28793 14.1581 7.22686C14.1565 7.188 14.1563 7.14914 14.155 7.11028C14.1527 7.04464 14.1458 6.98324 14.1127 6.92675C14.0693 6.85229 14.077 6.75759 14.0644 6.67105C14.0626 6.65962 14.0683 6.64296 14.058 6.63741C14.0459 6.63088 14.039 6.64753 14.0308 6.65603C13.9848 6.70534 13.9825 6.77914 13.9656 6.84478C13.9214 7.01525 13.9286 7.19127 13.9338 7.36696C13.9407 7.60894 13.9458 7.85125 13.953 8.09357C13.9705 8.68661 13.9818 9.27998 13.9843 9.87367C13.9853 10.0758 13.9874 10.2776 13.9933 10.4798C13.9977 10.6235 14.0236 10.7623 14.0734 10.8929C14.1209 11.0173 14.124 11.143 14.0811 11.2714C14.0277 11.4311 14.0434 11.5852 14.1134 11.7302C14.1645 11.836 14.2215 11.9372 14.2756 12.0404C14.2934 12.0741 14.3106 12.1084 14.3208 12.1469C14.3444 12.2341 14.3183 12.2981 14.2484 12.3219C14.1714 12.3484 14.0929 12.3634 14.0133 12.365C13.7885 12.3693 13.5636 12.3748 13.3388 12.367C13.2615 12.3644 13.1855 12.3487 13.1119 12.3196C13.0395 12.2912 13.0159 12.2276 13.0451 12.1384C13.0746 12.0489 13.1206 11.9719 13.1642 11.8932C13.2423 11.7524 13.2998 11.6022 13.3023 11.4252C13.3036 11.3445 13.2926 11.2675 13.2648 11.195C13.2294 11.1025 13.231 11.0118 13.2713 10.9233C13.3413 10.7698 13.3526 10.5996 13.3578 10.4282C13.3724 9.93148 13.3798 9.43412 13.3875 8.93709C13.394 8.51484 13.4127 8.09291 13.4245 7.67066C13.4317 7.40811 13.4224 7.14555 13.416 6.88299C13.4142 6.79155 13.3691 6.68868 13.3152 6.63806Z" fill="#127043"/>
<path d="M18.5 11.4497C18.4443 11.4684 18.3917 11.4687 18.3396 11.4749C18.0962 11.503 17.8527 11.5235 17.6103 11.5663C17.2959 11.6218 16.9833 11.6907 16.6753 11.7904C16.4001 11.8792 16.1347 12.0029 15.8747 12.1476C15.5523 12.3276 15.2381 12.5268 14.9488 12.7841C14.6947 13.0101 14.4704 13.2805 14.2519 13.559C14.2011 13.624 14.1511 13.69 14.1023 13.7573C14.0658 13.8072 14.0651 13.8203 14.0977 13.8735C14.1932 14.0309 14.2894 14.1873 14.3864 14.3431C14.5253 14.5662 14.6791 14.7725 14.8313 14.9802C14.8513 15.0073 14.8739 15.0312 14.8947 15.0573C14.9129 15.0805 14.9221 15.073 14.9298 15.0452C14.967 14.9123 15.0053 14.7794 15.043 14.6468C15.0589 14.5913 15.0764 14.5371 15.1018 14.4868C15.1611 14.3689 15.2504 14.3385 15.3444 14.4104C15.4386 14.4826 15.4825 14.591 15.4748 14.7314C15.4714 14.7941 15.4404 14.8379 15.3834 14.8535C15.2486 14.8904 15.1875 15.0106 15.1606 15.168C15.1362 15.3107 15.1606 15.4368 15.2427 15.5455C15.3202 15.6477 15.3998 15.7454 15.4948 15.8208C15.5774 15.8865 15.5969 15.8796 15.6403 15.7696C15.6655 15.7055 15.6914 15.6419 15.735 15.5942C15.8449 15.474 16.0148 15.4482 16.1462 15.6468C16.2461 15.7976 16.272 15.9763 16.2569 16.167C16.2471 16.2891 16.2112 16.3998 16.1485 16.4926C16.0466 16.6438 15.9114 16.6768 15.763 16.6575C15.607 16.6372 15.4771 16.5416 15.3505 16.4328C15.2068 16.3094 15.061 16.1898 14.916 16.0693C14.8723 16.0331 14.8711 16.0344 14.8331 16.0821C14.7445 16.1934 14.6652 16.3172 14.5677 16.4162C14.438 16.5478 14.2391 16.5357 14.1331 16.3884C14.0227 16.2349 14.0166 16.0024 14.1749 15.8391C14.2014 15.812 14.2319 15.8114 14.2612 15.8316C14.3125 15.8672 14.3621 15.9074 14.4144 15.9407C14.483 15.9844 14.5525 15.9629 14.602 15.8881C14.6329 15.8417 14.6375 15.7908 14.6185 15.7362C14.5846 15.6393 14.5271 15.5645 14.4722 15.4877C14.234 15.1543 13.9955 14.8219 13.7568 14.4891C13.734 14.4571 13.7121 14.4084 13.6816 14.4055C13.6523 14.4025 13.6321 14.4545 13.6087 14.4829C13.4005 14.737 13.2098 15.0119 13.0214 15.2895C12.9495 15.3953 12.8787 15.5021 12.8071 15.6082C12.783 15.6438 12.7627 15.6824 12.7486 15.7258C12.7278 15.7888 12.7326 15.8479 12.7694 15.8992C12.8079 15.9531 12.8548 15.9753 12.9116 15.9524C12.9608 15.9328 13.0034 15.8953 13.0491 15.8659C13.0686 15.8532 13.0881 15.8404 13.1084 15.83C13.1421 15.8127 13.1741 15.8185 13.2006 15.8499C13.2801 15.9443 13.3089 16.0631 13.293 16.197C13.2763 16.3365 13.2221 16.4478 13.1115 16.4922C13.0083 16.5337 12.9113 16.4926 12.8191 16.4315C12.7203 16.3659 12.6487 16.2623 12.5815 16.1526C12.5612 16.1196 12.5378 16.0896 12.5188 16.0553C12.5045 16.0292 12.4916 16.0331 12.4731 16.0458C12.37 16.1173 12.2773 16.2091 12.18 16.2924C12.0848 16.3737 11.9947 16.4651 11.893 16.534C11.7745 16.6144 11.6479 16.6545 11.5126 16.6483C11.3317 16.6402 11.1959 16.5033 11.1328 16.2633C11.0678 16.0168 11.1243 15.7562 11.2793 15.587C11.4028 15.4525 11.5617 15.4727 11.6628 15.6357C11.6985 15.6931 11.7285 15.7552 11.7593 15.8166C11.7881 15.8734 11.7963 15.8786 11.8412 15.846C11.9767 15.7483 12.0907 15.6177 12.1867 15.4623C12.2188 15.4107 12.2249 15.348 12.2113 15.2849C12.1918 15.1951 12.1695 15.1066 12.1492 15.0171C12.1318 14.9407 12.094 14.8911 12.0337 14.8689C12.0255 14.8659 12.0178 14.8614 12.0096 14.8581C11.9069 14.817 11.88 14.7605 11.8989 14.6243C11.9223 14.4574 12.0489 14.351 12.1764 14.3905C12.2349 14.4088 12.2724 14.4555 12.2919 14.5263C12.3335 14.6772 12.3743 14.8284 12.4159 14.9793C12.4439 15.0815 12.4603 15.0867 12.5173 15.0067C12.7735 14.6458 13.0209 14.2752 13.254 13.8898C13.285 13.8382 13.284 13.8262 13.2542 13.77C13.1893 13.6475 13.1033 13.5502 13.0212 13.4487C12.8292 13.2112 12.6269 12.9898 12.4133 12.7838C12.2231 12.6002 12.0116 12.4657 11.7986 12.3341C11.5571 12.1848 11.3109 12.0483 11.0576 11.935C10.7208 11.7841 10.3786 11.6607 10.0244 11.5964C9.81522 11.5585 9.605 11.5327 9.39503 11.503C9.27593 11.486 9.15735 11.4657 9.0385 11.4465C9.02515 11.4442 9.01155 11.4422 9 11.422C9.0403 11.3998 9.08265 11.3952 9.12346 11.3926C9.47229 11.3697 9.81932 11.3149 10.1694 11.3208C10.5799 11.3276 10.9862 11.3772 11.3856 11.5023C11.6556 11.5869 11.9143 11.711 12.1646 11.8642C12.4133 12.0167 12.6585 12.1767 12.8833 12.3827C13.0761 12.5591 13.2563 12.7544 13.428 12.9624C13.4978 13.047 13.5679 13.1316 13.6339 13.2207C13.6608 13.2573 13.6783 13.2511 13.7021 13.223C13.783 13.1283 13.8654 13.0355 13.9449 12.9392C14.2827 12.5307 14.658 12.1904 15.0759 11.9265C15.3356 11.7623 15.6054 11.632 15.8839 11.5307C16.1786 11.4233 16.4794 11.3642 16.7851 11.3384C17.077 11.3139 17.3686 11.3253 17.6601 11.3443C17.8149 11.3544 17.97 11.3619 18.1247 11.3763C18.2354 11.3867 18.3457 11.4063 18.4561 11.4223C18.4695 11.4259 18.4843 11.4288 18.5 11.4497ZM15.791 16.3414C15.8056 16.3414 15.8203 16.3423 15.8349 16.341C15.9586 16.3299 16.0292 16.263 16.0577 16.1301C16.0805 16.0236 16.0387 15.8721 15.9684 15.8084C15.9075 15.7532 15.8308 15.7908 15.7992 15.8936C15.7782 15.9619 15.7661 16.0328 15.7628 16.1069C15.7597 16.18 15.7358 16.2026 15.6791 16.1947C15.6557 16.1915 15.6342 16.1807 15.6123 16.1709C15.4773 16.1108 15.3695 16.0024 15.2725 15.8718C15.2189 15.7996 15.1596 15.7343 15.1039 15.6647C15.0841 15.6402 15.0738 15.6455 15.0613 15.6739C15.0315 15.7402 15.0346 15.796 15.0754 15.8528C15.1406 15.9433 15.2104 16.0279 15.2887 16.1004C15.4386 16.2395 15.6021 16.3345 15.791 16.3414ZM11.3158 16.0553C11.3158 16.2467 11.3817 16.3427 11.5273 16.3489C11.6715 16.3551 11.8083 16.3058 11.9336 16.2147C12.0712 16.1144 12.1836 15.972 12.3017 15.8401C12.3338 15.8042 12.3386 15.7549 12.324 15.7029C12.3091 15.65 12.305 15.6468 12.2691 15.6765C12.2509 15.6918 12.2331 15.7088 12.2167 15.7274C12.1153 15.8417 12.0139 15.9557 11.9138 16.072C11.8525 16.1431 11.7829 16.183 11.6995 16.1862C11.6325 16.1889 11.6112 16.1673 11.6025 16.084C11.5961 16.0239 11.5871 15.9645 11.5807 15.9044C11.5737 15.8378 11.5458 15.7957 11.4939 15.7833C11.4395 15.7702 11.3943 15.7931 11.3627 15.8509C11.3281 15.9139 11.3186 15.9874 11.3158 16.0553ZM14.294 16.0174C14.2632 16.0171 14.2437 16.0373 14.2329 16.0726C14.2109 16.1448 14.2378 16.2271 14.2925 16.2614C14.3921 16.3241 14.4873 16.3045 14.5705 16.2225C14.6785 16.116 14.7638 15.9835 14.8189 15.8208C14.9173 15.5315 15.0181 15.2438 15.1187 14.9561C15.1457 14.8787 15.1852 14.8147 15.2507 14.7846C15.2725 14.7745 15.2871 14.7539 15.301 14.7324C15.3315 14.685 15.3243 14.6289 15.2825 14.5809C15.2468 14.5397 15.2065 14.5417 15.1729 14.588C15.1393 14.6344 15.1182 14.6909 15.1008 14.749C15.0261 14.9985 14.9519 15.248 14.8788 15.4985C14.8225 15.6912 14.7445 15.8669 14.637 16.021C14.5931 16.084 14.5389 16.1062 14.4752 16.0873C14.448 16.0791 14.4224 16.0635 14.3959 16.0517C14.3631 16.037 14.3302 16.0187 14.294 16.0174ZM12.9724 16.2888C13.0027 16.2904 13.0656 16.2623 13.0879 16.2372C13.1243 16.1967 13.1387 16.1062 13.1169 16.0573C13.0984 16.0161 13.0684 16.0109 13.0052 16.037C12.9647 16.0537 12.9241 16.071 12.8828 16.0844C12.8194 16.1046 12.7645 16.0837 12.7198 16.0223C12.6857 15.9753 12.6556 15.9243 12.6351 15.8656C12.5219 15.5455 12.4067 15.2271 12.3102 14.8983C12.2788 14.7918 12.2426 14.6886 12.1885 14.5969C12.17 14.5655 12.1469 14.5482 12.1161 14.5567C12.0825 14.5662 12.0599 14.592 12.0524 14.6367C12.0417 14.7017 12.0601 14.753 12.1105 14.7804C12.1869 14.8219 12.238 14.8927 12.2693 14.9884C12.3461 15.2219 12.4239 15.4547 12.4975 15.6899C12.5558 15.8757 12.6292 16.0462 12.7529 16.1761C12.8166 16.2431 12.8887 16.2832 12.9724 16.2888ZM14.7923 15.313C14.792 15.2774 14.7761 15.2438 14.7535 15.2137C14.6316 15.0508 14.5104 14.8868 14.388 14.7245C14.3425 14.6641 14.3002 14.5991 14.2463 14.5498C14.2342 14.5387 14.2196 14.5319 14.2093 14.5433C14.1991 14.5547 14.2142 14.5668 14.2181 14.5786C14.2214 14.5884 14.2263 14.5975 14.2314 14.6063C14.378 14.8699 14.5248 15.1331 14.6716 15.3966C14.6844 15.4198 14.6996 15.4394 14.7201 15.4518C14.7306 15.458 14.7422 15.4636 14.7491 15.4476C14.7671 15.4071 14.7902 15.3695 14.7923 15.313ZM13.1274 14.5472C13.1202 14.5404 13.1166 14.5456 13.1123 14.5479C13.0648 14.572 13.0353 14.6223 13.0024 14.668C12.8697 14.8522 12.7373 15.0364 12.6046 15.2206C12.5876 15.2441 12.5753 15.2706 12.5699 15.3016C12.5609 15.3529 12.5876 15.4159 12.6307 15.4365C12.6641 15.4525 12.6677 15.4028 12.6872 15.3871C12.6882 15.3865 12.6888 15.3849 12.6895 15.3836C12.831 15.1572 12.9583 14.9188 13.0766 14.6723C13.0961 14.6321 13.1164 14.592 13.1274 14.5472Z" fill="#A67C1D"/>
<path d="M28.2012 4.97882C28.2001 4.98261 28.199 4.98612 28.1983 4.9899C28.1976 4.99301 28.1963 4.9953 28.1936 4.99436C28.1827 4.99058 28.1839 4.99895 28.185 5.00638C28.1878 5.02731 28.1845 5.04757 28.1804 5.06783C28.1795 5.07229 28.1782 5.0754 28.174 5.07472C28.1671 5.07364 28.1673 5.07783 28.1686 5.08364C28.1704 5.09201 28.1721 5.10038 28.1733 5.10876C28.1742 5.11551 28.1737 5.12199 28.1682 5.12659C28.1649 5.12929 28.1645 5.13361 28.1643 5.13807C28.1639 5.14523 28.1661 5.15184 28.1667 5.16049C28.1583 5.15536 28.1557 5.14644 28.1517 5.13888C28.15 5.13577 28.1489 5.12996 28.1454 5.13158C28.1418 5.13321 28.1439 5.13834 28.1448 5.14198C28.1496 5.16157 28.1543 5.18102 28.1594 5.20047C28.1616 5.20911 28.1616 5.21681 28.1542 5.22208C28.1492 5.22559 28.1511 5.23072 28.1517 5.23572C28.1577 5.28097 28.1636 5.32621 28.1624 5.37227C28.1622 5.37794 28.1645 5.38645 28.1602 5.38862C28.1542 5.39159 28.1493 5.38456 28.1454 5.3793C28.1226 5.34823 28.1048 5.31338 28.0914 5.2757C28.0606 5.18885 28.0505 5.09822 28.0549 5.00462C28.057 4.96032 28.0655 4.9171 28.0682 4.87293C28.0689 4.86199 28.0699 4.85105 28.0691 4.84011C28.0688 4.83633 28.0688 4.83147 28.0648 4.83079C28.0614 4.83012 28.0585 4.83282 28.0563 4.83606C28.0525 4.8416 28.0527 4.84849 28.0516 4.85497C28.0504 4.86145 28.0503 4.87037 28.0418 4.86145C28.0397 4.85929 28.0374 4.85902 28.0356 4.86132C28.0303 4.86807 28.0245 4.86672 28.017 4.86159C28.017 4.8778 28.017 4.89198 28.017 4.90629C28.017 4.90886 28.0182 4.91264 28.0153 4.91345C28.0116 4.91453 28.0116 4.91008 28.0107 4.90738C28.01 4.90562 28.0099 4.90359 28.0093 4.9017C28.0082 4.89833 28.0089 4.89198 28.0052 4.89225C28.0005 4.89265 28.0004 4.89914 28.0004 4.90359C28.0001 4.91575 28.0016 4.92777 28.0037 4.93966C28.0046 4.94492 28.0048 4.95033 28.0055 4.9564C27.9967 4.95505 27.9942 4.94803 27.9916 4.9406C27.9895 4.93398 27.9891 4.92588 27.9819 4.9221C27.9773 4.93709 27.9804 4.95195 27.9792 4.96653C27.9789 4.97126 27.9812 4.9791 27.9766 4.98004C27.9712 4.98112 27.9707 4.97315 27.969 4.96815C27.9672 4.96302 27.9671 4.95384 27.9614 4.95492C27.9569 4.95573 27.9579 4.96464 27.9578 4.97018C27.9574 4.98301 27.9616 4.99476 27.9641 5.00678C27.9654 5.01273 27.9665 5.01881 27.968 5.02677C27.9641 5.02502 27.9616 5.02407 27.959 5.02286C27.9504 5.0184 27.9478 5.01989 27.9496 5.03069C27.952 5.04595 27.9559 5.06108 27.9596 5.07607C27.9611 5.08202 27.9619 5.08593 27.9549 5.08593C27.9481 5.08593 27.948 5.09188 27.9482 5.09755C27.9488 5.10714 27.9528 5.11551 27.9551 5.12443C27.9588 5.13915 27.9604 5.15347 27.9535 5.16751C27.9516 5.1717 27.9512 5.17656 27.9516 5.18129C27.952 5.18683 27.9505 5.19047 27.9456 5.19142C27.9396 5.19263 27.9406 5.19736 27.9414 5.20209C27.9426 5.21006 27.9449 5.21776 27.9445 5.226C27.9401 5.22654 27.9388 5.22289 27.9375 5.21992C27.9182 5.17494 27.8962 5.13145 27.8795 5.08485C27.8495 5.00165 27.858 4.9221 27.8966 4.84565C27.9082 4.82269 27.9215 4.80121 27.9347 4.77974C27.9443 4.76407 27.9532 4.74813 27.9551 4.72828C27.9559 4.72017 27.9563 4.7122 27.9528 4.70478C27.9489 4.70613 27.9481 4.70991 27.9466 4.71275C27.9431 4.71977 27.9394 4.72342 27.9329 4.7168C27.928 4.7118 27.9261 4.71531 27.9252 4.72098C27.9245 4.72517 27.923 4.72936 27.9228 4.73355C27.9223 4.74178 27.9189 4.7457 27.912 4.74476C27.9069 4.74408 27.905 4.74732 27.9035 4.75232C27.8993 4.76542 27.8949 4.77852 27.8899 4.79351C27.8865 4.78514 27.8837 4.77825 27.8805 4.77055C27.8699 4.78541 27.8706 4.805 27.8617 4.82066C27.8582 4.81567 27.8553 4.81121 27.8516 4.80581C27.8481 4.81648 27.8445 4.82607 27.842 4.83606C27.8402 4.84362 27.837 4.84552 27.8313 4.84254C27.826 4.83971 27.8243 4.84241 27.8233 4.84835C27.8205 4.86618 27.8173 4.88401 27.8142 4.90265C27.8082 4.89819 27.8075 4.89009 27.8021 4.88563C27.7966 4.89387 27.7966 4.90346 27.7969 4.91251C27.7978 4.93398 27.7895 4.95181 27.7825 4.97032C27.7819 4.97194 27.7803 4.97464 27.7795 4.9745C27.7679 4.97194 27.7703 4.98274 27.7697 4.98923C27.7675 5.01678 27.7636 5.04433 27.7672 5.07229C27.7682 5.08053 27.7667 5.0885 27.7628 5.09593C27.7592 5.10295 27.7563 5.1016 27.7545 5.09498C27.7511 5.08269 27.748 5.07026 27.7452 5.05784C27.7341 5.00935 27.7267 4.95992 27.7264 4.90967C27.7262 4.83025 27.7502 4.76272 27.7998 4.70761C27.8484 4.65372 27.9021 4.6105 27.9662 4.58646C27.9826 4.58025 27.9996 4.57633 28.0155 4.56795C28.0179 4.56674 28.0217 4.56593 28.0214 4.56269C28.021 4.55931 28.0176 4.55661 28.0146 4.55674C27.9951 4.55796 27.9748 4.55094 27.9565 4.56566C27.9476 4.57282 27.9379 4.57538 27.9279 4.56606C27.9232 4.56161 27.8982 4.56795 27.8936 4.57376C27.8905 4.57768 27.8875 4.58187 27.8848 4.58565C27.8809 4.58443 27.882 4.58092 27.8811 4.57876C27.8797 4.57538 27.8811 4.56985 27.8775 4.56863C27.8733 4.56701 27.8699 4.5712 27.8672 4.57444C27.864 4.57822 27.8615 4.58295 27.8588 4.58754C27.855 4.59389 27.851 4.59794 27.844 4.59294C27.8379 4.58848 27.8349 4.59456 27.8319 4.59915C27.8286 4.60442 27.8254 4.60672 27.821 4.60064C27.8177 4.59605 27.8154 4.59699 27.8135 4.60267C27.8105 4.61131 27.8067 4.61969 27.8037 4.62833C27.8018 4.63414 27.7993 4.63576 27.795 4.63184C27.79 4.62752 27.7866 4.62927 27.7837 4.63508C27.7811 4.64049 27.7774 4.64508 27.7756 4.65116C27.7725 4.66129 27.767 4.66939 27.7597 4.67628C27.7533 4.68236 27.747 4.68884 27.7424 4.69721C27.7414 4.6991 27.7395 4.70167 27.7382 4.70167C27.7262 4.70072 27.7267 4.71166 27.7249 4.72031C27.7232 4.72909 27.7214 4.73773 27.7198 4.74665C27.7183 4.75529 27.7167 4.76312 27.7082 4.76664C27.703 4.76866 27.7032 4.77542 27.7032 4.78095C27.7035 4.78987 27.7016 4.80027 27.694 4.80027C27.6855 4.80027 27.6852 4.78825 27.6857 4.78068C27.6911 4.66831 27.7301 4.57741 27.8108 4.51406C27.8664 4.47044 27.9286 4.44991 27.9944 4.44234C28.0179 4.43964 28.0414 4.43626 28.0643 4.42938C28.0722 4.42708 28.0794 4.42343 28.0842 4.4129C28.0527 4.41047 28.0228 4.39737 27.9918 4.40898C27.988 4.41047 27.9837 4.41276 27.9802 4.41006C27.969 4.40169 27.9602 4.40777 27.9511 4.41506C27.9485 4.41722 27.9448 4.42181 27.9419 4.41573C27.9383 4.4075 27.9334 4.40858 27.928 4.41222C27.9088 4.42519 27.8866 4.43046 27.8657 4.43573C27.8368 4.44302 27.8179 4.46774 27.7933 4.48111C27.7902 4.48273 27.7869 4.48881 27.7838 4.48529C27.7802 4.48111 27.7853 4.47692 27.7872 4.47354C27.8178 4.41952 27.8572 4.37576 27.9022 4.33834C27.953 4.2962 28.0092 4.28107 28.0704 4.28783C28.1002 4.29107 28.13 4.29472 28.1598 4.29769C28.1653 4.29823 28.174 4.3012 28.1757 4.29418C28.1769 4.28904 28.1684 4.28526 28.1632 4.28324C28.1488 4.2777 28.1376 4.26487 28.1232 4.2596C28.109 4.25433 28.095 4.24852 28.0818 4.24001C28.072 4.23367 28.0588 4.23812 28.0508 4.2261C28.0503 4.22543 28.0482 4.22597 28.0471 4.22651C28.0245 4.23745 28.0003 4.24028 27.9766 4.24636C27.9701 4.24798 27.9644 4.25231 27.9571 4.25609C27.9581 4.24339 27.9641 4.23569 27.9707 4.22921C27.9936 4.20679 28.0211 4.19652 28.0495 4.18896C28.1047 4.1741 28.1557 4.1872 28.2029 4.223C28.22 4.23596 28.2373 4.24812 28.2568 4.25568C28.2628 4.25798 28.2643 4.2573 28.2644 4.24987C28.2649 4.21975 28.2674 4.18977 28.2709 4.15992C28.2718 4.15209 28.2741 4.14857 28.2806 4.14925C28.2882 4.15006 28.2905 4.14655 28.2911 4.13736C28.2924 4.11521 28.2897 4.09266 28.296 4.07105C28.2969 4.06781 28.2963 4.06308 28.3 4.06254C28.3044 4.062 28.3045 4.0674 28.3059 4.07064C28.3115 4.08455 28.3092 4.09995 28.3113 4.11454C28.3122 4.12143 28.312 4.12858 28.3125 4.13561C28.3131 4.14223 28.3139 4.14857 28.3201 4.15209C28.3247 4.15465 28.3253 4.16073 28.3254 4.1664C28.3255 4.17343 28.3255 4.18045 28.3257 4.18761C28.326 4.19747 28.3273 4.20665 28.3331 4.21489C28.3393 4.22367 28.3397 4.23502 28.3394 4.24623C28.3388 4.26527 28.3398 4.26676 28.3547 4.25919C28.3751 4.24879 28.3945 4.23583 28.4134 4.22205C28.4522 4.19355 28.4938 4.1818 28.5393 4.19126C28.5684 4.19733 28.5949 4.21179 28.6204 4.22894C28.628 4.23407 28.6338 4.24191 28.6373 4.25149C28.6403 4.25946 28.6381 4.26338 28.6308 4.26244C28.6276 4.26203 28.6245 4.26027 28.6212 4.25906C28.5992 4.25068 28.5761 4.2415 28.5538 4.25001C28.5367 4.25649 28.5204 4.26027 28.5025 4.26081C28.4881 4.26122 28.477 4.27446 28.4633 4.28242C28.479 4.29674 28.4961 4.29688 28.5133 4.29593C28.5346 4.29458 28.5558 4.29174 28.577 4.2912C28.6245 4.28985 28.6669 4.30741 28.703 4.34334C28.7313 4.3717 28.7589 4.40115 28.7848 4.43275C28.796 4.44626 28.8046 4.46206 28.8116 4.4807C28.8045 4.47922 28.7995 4.47489 28.7945 4.47138C28.7784 4.46031 28.7616 4.4518 28.7435 4.44572C28.7271 4.44032 28.7114 4.431 28.6964 4.4206C28.6913 4.41695 28.6859 4.41398 28.6799 4.41249C28.6716 4.41033 28.6635 4.40912 28.6589 4.4206C28.6569 4.42533 28.6543 4.42505 28.651 4.42208C28.6473 4.41871 28.6432 4.41614 28.6394 4.4129C28.6344 4.40858 28.6302 4.40547 28.6261 4.41438C28.6235 4.42006 28.6194 4.41641 28.6165 4.41438C28.6065 4.40723 28.5969 4.40101 28.5854 4.41141C28.5831 4.41344 28.5783 4.41195 28.5746 4.41182C28.5634 4.41114 28.5527 4.41236 28.5433 4.42046C28.5406 4.42276 28.5379 4.42343 28.5349 4.42208C28.534 4.42168 28.533 4.42127 28.532 4.42114C28.5265 4.42046 28.5148 4.43005 28.5158 4.43545C28.517 4.44194 28.5231 4.44153 28.5272 4.44207C28.5467 4.44464 28.5662 4.44653 28.5858 4.44869C28.6251 4.45301 28.6648 4.45653 28.703 4.46963C28.798 4.50218 28.8663 4.56985 28.9002 4.68114C28.9132 4.72396 28.9162 4.76853 28.9124 4.8158C28.9056 4.80837 28.9029 4.8 28.8993 4.79257C28.8848 4.76272 28.8706 4.7326 28.8564 4.70248C28.852 4.6933 28.8474 4.68479 28.8373 4.68411C28.8335 4.68384 28.8336 4.6806 28.8331 4.67749C28.8282 4.65007 28.8117 4.63333 28.7936 4.61806C28.7928 4.61739 28.7918 4.61685 28.7909 4.61644C28.7847 4.6132 28.7768 4.61577 28.7716 4.60847C28.7675 4.6024 28.763 4.59672 28.7587 4.59078C28.7514 4.60307 28.7514 4.60307 28.7433 4.59159C28.742 4.58983 28.7408 4.58794 28.7395 4.58619C28.7308 4.57376 28.7306 4.57363 28.7223 4.587C28.7199 4.59092 28.7183 4.59173 28.7156 4.58781C28.7135 4.5847 28.7112 4.58187 28.7093 4.57876C28.7053 4.57228 28.7025 4.56701 28.6939 4.57336C28.6875 4.57808 28.678 4.57268 28.6701 4.57889C28.6674 4.58106 28.6629 4.57322 28.6589 4.57066C28.6573 4.56958 28.6559 4.56674 28.6537 4.56822C28.6519 4.56944 28.6521 4.57228 28.6522 4.57457C28.6526 4.58578 28.658 4.59362 28.6654 4.59942C28.6933 4.62144 28.7211 4.64346 28.7492 4.66507C28.7861 4.6933 28.8196 4.72531 28.8418 4.77136C28.8667 4.82323 28.8735 4.87955 28.8724 4.9379C28.8713 4.99719 28.8593 5.05392 28.8438 5.10997C28.8416 5.11821 28.8395 5.11673 28.8356 5.11187C28.8275 5.10214 28.8279 5.0908 28.8303 5.07904C28.8313 5.07418 28.8329 5.06932 28.8348 5.06473C28.8374 5.05811 28.8362 5.05325 28.8304 5.05054C28.8242 5.04771 28.8234 5.04217 28.824 5.03528C28.8246 5.02745 28.8246 5.01961 28.825 5.01178C28.8255 5.00435 28.8262 4.9976 28.8166 4.99949C28.813 5.00017 28.8127 4.99638 28.8127 4.99301C28.8127 4.98139 28.8099 4.97086 28.8062 4.96019C28.8022 4.9483 28.8061 4.93533 28.8039 4.92304C28.8026 4.91588 28.8023 4.90846 28.8016 4.90116C28.8002 4.90116 28.7995 4.90089 28.799 4.90116C28.7853 4.909 28.7853 4.909 28.784 4.8909C28.7837 4.88549 28.7828 4.87996 28.7828 4.87455C28.7828 4.86334 28.781 4.85537 28.769 4.85983C28.7643 4.86159 28.7639 4.85686 28.7631 4.85294C28.7603 4.83836 28.7573 4.82363 28.754 4.80689C28.7491 4.81526 28.7453 4.82174 28.7405 4.83012C28.7354 4.81148 28.7306 4.79473 28.7256 4.7769C28.7232 4.77933 28.7217 4.78068 28.7203 4.7823C28.7094 4.79487 28.7094 4.79487 28.7033 4.77771C28.7013 4.7719 28.6991 4.76623 28.6975 4.76029C28.6954 4.75232 28.6928 4.74692 28.6844 4.74597C28.6767 4.74516 28.6739 4.73571 28.6712 4.72828C28.6689 4.7222 28.6667 4.71896 28.6603 4.72004C28.6507 4.72179 28.644 4.71558 28.6387 4.7064C28.6357 4.70126 28.6324 4.69181 28.6267 4.69532C28.6208 4.6991 28.6234 4.70829 28.6256 4.71572C28.6309 4.73395 28.6422 4.74759 28.6517 4.76272C28.6707 4.79324 28.6923 4.82174 28.7085 4.8547C28.742 4.92291 28.7467 4.99517 28.7289 5.07013C28.7161 5.12429 28.6938 5.17291 28.6653 5.21789C28.6613 5.22424 28.6573 5.23113 28.6493 5.23505C28.6498 5.22843 28.6498 5.22302 28.6507 5.21789C28.6521 5.20952 28.6546 5.20114 28.6428 5.20155C28.6394 5.20168 28.64 5.19844 28.6406 5.19547C28.6422 5.18953 28.6437 5.18345 28.6451 5.17751C28.6463 5.17251 28.6479 5.1663 28.6452 5.16265C28.6367 5.15049 28.6417 5.13928 28.6455 5.12767C28.6483 5.11889 28.6507 5.10997 28.6537 5.10119C28.6561 5.09404 28.6543 5.09161 28.6481 5.09336C28.6409 5.09539 28.6396 5.09269 28.6413 5.08445C28.6452 5.06527 28.6482 5.04568 28.6517 5.0265C28.6453 5.0238 28.6403 5.03555 28.6364 5.02893C28.6339 5.02461 28.6364 5.0161 28.6367 5.00949C28.6371 5.00206 28.6375 4.99476 28.6381 4.98652C28.6315 4.98841 28.6296 4.99638 28.6227 5.00057C28.6227 4.97693 28.6227 4.95505 28.6227 4.93209C28.6138 4.93452 28.6137 4.94276 28.6107 4.94843C28.6096 4.95033 28.6094 4.95343 28.6071 4.95357C28.6041 4.9537 28.6036 4.95033 28.603 4.94789C28.6008 4.93952 28.6014 4.93088 28.6008 4.92223C28.6 4.91008 28.599 4.909 28.5906 4.91494C28.5854 4.91859 28.5851 4.91548 28.5846 4.91102C28.5837 4.90292 28.5828 4.89468 28.582 4.88658C28.5814 4.88104 28.5803 4.87685 28.5746 4.88117C28.5687 4.88576 28.5666 4.88158 28.5646 4.87577C28.5603 4.8624 28.5527 4.8524 28.5409 4.84754C28.5348 4.84511 28.5317 4.84538 28.5328 4.85497C28.5369 4.88874 28.541 4.92237 28.5437 4.95627C28.5514 5.05095 28.5483 5.14469 28.5229 5.23599C28.5105 5.28043 28.493 5.32203 28.4711 5.3612C28.4634 5.37497 28.4537 5.38672 28.4431 5.39739C28.4398 5.39469 28.4415 5.39132 28.4413 5.38848C28.44 5.3431 28.4456 5.29745 28.4421 5.25247C28.4396 5.21911 28.4439 5.18885 28.455 5.159C28.4555 5.15765 28.4556 5.15617 28.4561 5.15347C28.4444 5.15522 28.4417 5.16859 28.4322 5.17575C28.4313 5.15887 28.4305 5.14361 28.43 5.12821C28.4296 5.11848 28.4295 5.10862 28.4292 5.0989C28.4286 5.08242 28.4266 5.06689 28.4177 5.05271C28.4059 5.03393 28.408 5.01016 28.4046 4.98828C28.4041 4.98531 28.4056 4.98112 28.4029 4.97977C28.3995 4.97815 28.3977 4.98234 28.3955 4.9845C28.383 4.99692 28.3824 5.01556 28.3777 5.03204C28.3657 5.07499 28.3677 5.11929 28.369 5.16346C28.3708 5.22438 28.3723 5.28542 28.3743 5.34634C28.3791 5.49572 28.3821 5.64511 28.3829 5.79462C28.3831 5.84554 28.3837 5.89633 28.3853 5.94725C28.3865 5.98345 28.3936 6.01843 28.4071 6.05125C28.42 6.08258 28.4209 6.11419 28.4092 6.14661C28.3947 6.18686 28.399 6.22562 28.418 6.26209C28.4319 6.28869 28.4474 6.31422 28.4622 6.34016C28.4671 6.34866 28.4718 6.35731 28.4745 6.3669C28.4809 6.38878 28.4738 6.40499 28.4548 6.41107C28.4339 6.41768 28.4124 6.42147 28.3907 6.42187C28.3295 6.42295 28.2682 6.4243 28.207 6.42241C28.186 6.42173 28.1653 6.41782 28.1453 6.41052C28.1255 6.40337 28.1191 6.38729 28.1271 6.36487C28.1351 6.34232 28.1477 6.32287 28.1595 6.30315C28.1807 6.26776 28.1963 6.22994 28.1971 6.18537C28.1975 6.16511 28.1945 6.14566 28.1869 6.12743C28.1773 6.1042 28.1777 6.08123 28.1886 6.05895C28.2077 6.02032 28.2108 5.9775 28.2122 5.93428C28.2162 5.80921 28.2183 5.684 28.2203 5.5588C28.2221 5.4525 28.2272 5.3462 28.2304 5.23991C28.2324 5.17373 28.2299 5.10768 28.2281 5.0415C28.2281 5.01745 28.2159 4.99152 28.2012 4.97882Z" fill="black"/>
<path d="M29.6129 6.19255C29.5977 6.19714 29.5834 6.19728 29.5693 6.1989C29.503 6.20606 29.4367 6.21119 29.3706 6.22199C29.285 6.23604 29.1998 6.25333 29.116 6.27832C29.0412 6.30074 28.9688 6.3318 28.898 6.36827C28.8102 6.41352 28.7246 6.46376 28.6459 6.52859C28.5767 6.58559 28.5156 6.65366 28.4561 6.72376C28.4422 6.74011 28.4287 6.75672 28.4153 6.77374C28.4055 6.7863 28.4052 6.78954 28.4141 6.80305C28.4401 6.84262 28.4663 6.88206 28.4927 6.92136C28.5305 6.97755 28.5724 7.02942 28.6138 7.08182C28.6192 7.08871 28.6254 7.09465 28.6311 7.10127C28.636 7.10708 28.6385 7.10519 28.6406 7.09817C28.6508 7.06467 28.6611 7.03131 28.6714 6.99781C28.6756 6.98377 28.6804 6.97012 28.6873 6.95756C28.7035 6.92785 28.7279 6.92015 28.7535 6.93838C28.7792 6.95662 28.7911 6.9839 28.7889 7.01915C28.788 7.03496 28.7796 7.04603 28.764 7.04995C28.7273 7.05927 28.7106 7.08952 28.7033 7.1291C28.6966 7.16502 28.7033 7.19676 28.7257 7.22418C28.7468 7.24998 28.7685 7.27456 28.7943 7.29347C28.8168 7.30995 28.8222 7.30833 28.8339 7.28064C28.8408 7.26443 28.8478 7.2485 28.8598 7.23647C28.8897 7.20622 28.9359 7.19974 28.9717 7.24971C28.9989 7.28766 29.0059 7.33264 29.0018 7.38072C28.9991 7.41152 28.9893 7.43934 28.9723 7.46271C28.9445 7.5008 28.9078 7.50904 28.8673 7.50417C28.8249 7.49904 28.7895 7.475 28.7551 7.44758C28.7159 7.41652 28.6762 7.3864 28.6367 7.35601C28.6248 7.34682 28.6244 7.34723 28.6141 7.35925C28.59 7.38734 28.5684 7.41841 28.5417 7.44339C28.5064 7.47649 28.4523 7.47351 28.4234 7.43637C28.3933 7.39774 28.3917 7.33912 28.4348 7.29806C28.442 7.29118 28.4502 7.29104 28.4582 7.29617C28.4722 7.30509 28.4856 7.31522 28.4998 7.32359C28.5186 7.33467 28.5374 7.32913 28.5509 7.31035C28.5593 7.2986 28.5606 7.28591 28.5554 7.27213C28.5462 7.24768 28.5305 7.22891 28.5156 7.20946C28.4507 7.12559 28.3857 7.04171 28.3207 6.95797C28.3145 6.94986 28.3086 6.93771 28.3003 6.9369C28.2923 6.93622 28.2869 6.94919 28.2805 6.95648C28.2237 7.0205 28.1718 7.08966 28.1205 7.15962C28.101 7.18623 28.0816 7.21324 28.0621 7.23985C28.0555 7.24877 28.05 7.25849 28.0461 7.26943C28.0405 7.28537 28.0418 7.30023 28.0518 7.31306C28.0622 7.32656 28.0751 7.33224 28.0904 7.32643C28.1039 7.32143 28.1155 7.31198 28.1279 7.30468C28.1332 7.30158 28.1386 7.2982 28.1441 7.29563C28.1532 7.29131 28.162 7.2928 28.1692 7.30063C28.1909 7.3244 28.1987 7.35439 28.1943 7.38802C28.1898 7.42314 28.1751 7.45109 28.145 7.4623C28.1169 7.4727 28.0904 7.46244 28.0654 7.44704C28.0386 7.43056 28.019 7.40436 28.0007 7.37681C27.9952 7.36843 27.9887 7.36087 27.9837 7.35236C27.9798 7.34588 27.9762 7.34669 27.9713 7.34993C27.9432 7.36789 27.9179 7.39099 27.8915 7.41192C27.8655 7.43245 27.8411 7.45542 27.8133 7.47284C27.7809 7.4931 27.7466 7.50323 27.7097 7.50161C27.6605 7.49958 27.6235 7.46514 27.6063 7.40463C27.5886 7.34264 27.604 7.27686 27.6463 7.23431C27.6799 7.20041 27.7232 7.20554 27.7507 7.2466C27.7605 7.26106 27.7686 7.27672 27.777 7.29226C27.7848 7.30657 27.7871 7.30779 27.7993 7.29968C27.8363 7.2751 27.8673 7.24215 27.8933 7.20311C27.902 7.19001 27.9038 7.17434 27.9 7.15854C27.8947 7.13598 27.8886 7.11356 27.883 7.09114C27.8783 7.07183 27.868 7.0594 27.8515 7.05373C27.8494 7.05292 27.8472 7.05184 27.845 7.05103C27.817 7.04063 27.8097 7.02645 27.8149 6.99214C27.8212 6.95013 27.8558 6.92339 27.8905 6.93325C27.9064 6.93784 27.9166 6.94959 27.9219 6.96742C27.9333 7.00538 27.9444 7.04346 27.9557 7.08155C27.9632 7.10722 27.9678 7.1087 27.9832 7.08844C28.053 6.99754 28.1204 6.90421 28.1839 6.8071C28.1924 6.79413 28.1921 6.79103 28.1839 6.77698C28.1662 6.74618 28.1428 6.7216 28.1204 6.69607C28.0682 6.63624 28.0131 6.58046 27.9549 6.52873C27.9031 6.48254 27.8455 6.44863 27.7875 6.41541C27.7217 6.37786 27.6546 6.34342 27.5856 6.31492C27.4939 6.27696 27.4008 6.24576 27.3043 6.22969C27.2473 6.2201 27.19 6.21362 27.1328 6.20619C27.1005 6.20187 27.0681 6.19674 27.0358 6.19201C27.0323 6.19147 27.0285 6.19093 27.0254 6.1858C27.0364 6.18026 27.0479 6.17904 27.059 6.17837C27.154 6.17256 27.2486 6.15878 27.3439 6.16027C27.4557 6.16202 27.5662 6.17445 27.6751 6.20606C27.7487 6.2274 27.819 6.2586 27.8872 6.29722C27.955 6.33558 28.0217 6.37597 28.083 6.42783C28.1355 6.47227 28.1846 6.52143 28.2313 6.57384C28.2504 6.59518 28.2694 6.61639 28.2873 6.63894C28.2947 6.64813 28.2994 6.64664 28.3059 6.63948C28.328 6.61558 28.3504 6.59234 28.3721 6.56803C28.464 6.46525 28.5662 6.37948 28.68 6.31303C28.7507 6.2717 28.8242 6.23888 28.9001 6.21335C28.9803 6.18634 29.0623 6.17134 29.1455 6.165C29.225 6.15878 29.3044 6.16175 29.3839 6.16648C29.426 6.16905 29.4682 6.17094 29.5104 6.17458C29.5406 6.17715 29.5705 6.18215 29.6006 6.1862C29.6045 6.18661 29.6086 6.18728 29.6129 6.19255ZM28.875 7.42435C28.879 7.42435 28.8831 7.42462 28.887 7.42435C28.9206 7.42165 28.9399 7.40477 28.9477 7.37127C28.9539 7.34439 28.9425 7.3063 28.9234 7.29023C28.9068 7.27632 28.8859 7.28577 28.8773 7.31171C28.8716 7.32886 28.8683 7.34682 28.8675 7.36533C28.8665 7.3837 28.8601 7.38937 28.8446 7.38748C28.8383 7.38667 28.8323 7.38397 28.8265 7.38153C28.7897 7.36641 28.7603 7.33912 28.7339 7.30617C28.7194 7.28807 28.7032 7.27159 28.688 7.25403C28.6826 7.24782 28.6799 7.24917 28.6764 7.25633C28.6683 7.27308 28.6691 7.28712 28.6802 7.30144C28.698 7.32427 28.7171 7.34561 28.7383 7.36371C28.7792 7.39869 28.8236 7.42273 28.875 7.42435ZM27.6564 7.35236C27.6564 7.40058 27.6744 7.42476 27.7139 7.42624C27.7531 7.42773 27.7905 7.41544 27.8246 7.39248C27.8621 7.36722 27.8926 7.33142 27.9248 7.2982C27.9335 7.28915 27.9348 7.27672 27.9309 7.26362C27.9268 7.25025 27.9257 7.24944 27.9159 7.257C27.911 7.26079 27.9062 7.26511 27.9017 7.26984C27.8742 7.2986 27.8465 7.32737 27.8192 7.35655C27.8025 7.37451 27.7836 7.38451 27.7608 7.38532C27.7426 7.38599 27.7368 7.38059 27.7344 7.35952C27.7327 7.34439 27.7302 7.3294 27.7285 7.31427C27.7265 7.29752 27.7189 7.28685 27.7048 7.28375C27.69 7.28051 27.6777 7.28618 27.6691 7.30076C27.6597 7.3167 27.6572 7.33521 27.6564 7.35236ZM28.4675 7.34291C28.4591 7.34277 28.4537 7.3479 28.4508 7.35682C28.4449 7.37505 28.4521 7.39572 28.467 7.40436C28.4941 7.42016 28.5201 7.41517 28.5427 7.3945C28.5721 7.36762 28.5952 7.3344 28.6103 7.29334C28.637 7.22054 28.6646 7.14801 28.6919 7.07561C28.6993 7.05616 28.7101 7.04009 28.7279 7.03239C28.7338 7.02982 28.7377 7.02456 28.7415 7.01915C28.7499 7.00727 28.7479 6.99308 28.7365 6.98106C28.7267 6.9708 28.7158 6.9712 28.7066 6.98296C28.6974 6.99457 28.6917 7.00889 28.687 7.02347C28.6667 7.08628 28.6465 7.14922 28.6265 7.21216C28.6111 7.26065 28.59 7.30495 28.5607 7.34372C28.5488 7.35952 28.5339 7.36519 28.5167 7.36033C28.5094 7.3583 28.5024 7.35425 28.4951 7.35141C28.4862 7.34777 28.4773 7.34318 28.4675 7.34291ZM28.1076 7.41111C28.1158 7.41152 28.1329 7.4045 28.139 7.39815C28.1489 7.38788 28.1529 7.36519 28.1469 7.35277C28.1419 7.34237 28.1337 7.34115 28.1165 7.34763C28.1055 7.35182 28.0944 7.35628 28.0831 7.35952C28.0659 7.36465 28.0508 7.35938 28.0387 7.34385C28.0294 7.33197 28.0212 7.31913 28.0156 7.30441C27.9848 7.22391 27.9534 7.14368 27.9271 7.06075C27.9186 7.03388 27.9087 7.00794 27.8939 6.98485C27.8888 6.97701 27.8825 6.97256 27.8742 6.97472C27.865 6.97701 27.8588 6.98363 27.8568 6.99484C27.8538 7.01118 27.859 7.02415 27.8727 7.03104C27.8934 7.04144 27.9074 7.05927 27.9159 7.08344C27.9368 7.1422 27.958 7.20095 27.9781 7.26011C27.9939 7.30684 28.0139 7.34993 28.0476 7.38248C28.0651 7.39963 28.0847 7.40976 28.1076 7.41111ZM28.6031 7.16543C28.6031 7.15638 28.5987 7.14801 28.5925 7.14044C28.5593 7.09938 28.5264 7.05805 28.493 7.01726C28.4806 7.00213 28.4691 6.98566 28.4544 6.97323C28.4512 6.97039 28.4471 6.96877 28.4443 6.97161C28.4414 6.97445 28.4455 6.97755 28.4467 6.98052C28.4476 6.98296 28.449 6.98525 28.4502 6.98755C28.4902 7.05386 28.5302 7.12018 28.5701 7.18663C28.5737 7.19244 28.5778 7.19744 28.5833 7.20055C28.5862 7.20217 28.5893 7.20352 28.5912 7.19947C28.5963 7.18907 28.6026 7.17961 28.6031 7.16543ZM28.1498 6.97255C28.1478 6.9708 28.1468 6.97215 28.1457 6.97269C28.1327 6.97877 28.1247 6.99146 28.1157 7.00294C28.0795 7.04927 28.0435 7.09573 28.0073 7.14206C28.0027 7.14801 27.9994 7.15462 27.9979 7.16246C27.9955 7.17529 28.0027 7.19123 28.0144 7.19636C28.0235 7.20041 28.0245 7.18785 28.0298 7.18393C28.0301 7.1838 28.0303 7.18326 28.0304 7.18299C28.0689 7.12599 28.1036 7.06589 28.1358 7.00389C28.1412 6.9939 28.1467 6.9839 28.1498 6.97255Z" fill="black"/>
<path d="M27.6575 12.8203V11.3658H28.0091V11.9808H28.0283L28.5091 11.3658H28.9232L28.4075 12.0149L28.9324 12.8203H28.5119L28.1497 12.2486L28.0091 12.4261V12.8203H27.6575ZM28.4858 13.8018C28.481 13.7498 28.46 13.7093 28.4225 13.6804C28.3856 13.651 28.3328 13.6364 28.2642 13.6364C28.2187 13.6364 28.1808 13.6423 28.1505 13.6541C28.1202 13.666 28.0975 13.6823 28.0824 13.7031C28.0672 13.7235 28.0594 13.7469 28.0589 13.7734C28.058 13.7952 28.0622 13.8144 28.0717 13.831C28.0816 13.8475 28.0958 13.8622 28.1143 13.875C28.1333 13.8873 28.156 13.8982 28.1825 13.9077C28.209 13.9171 28.2388 13.9254 28.272 13.9325L28.397 13.9609C28.469 13.9766 28.5324 13.9974 28.5873 14.0234C28.6427 14.0495 28.6891 14.0805 28.7265 14.1165C28.7644 14.1525 28.7931 14.1939 28.8125 14.2408C28.8319 14.2876 28.8418 14.3402 28.8423 14.3984C28.8418 14.4903 28.8186 14.5691 28.7727 14.6349C28.7268 14.7008 28.6607 14.7512 28.5745 14.7862C28.4888 14.8213 28.3854 14.8388 28.2642 14.8388C28.1425 14.8388 28.0364 14.8205 27.946 14.7841C27.8556 14.7476 27.7852 14.6922 27.735 14.6179C27.6849 14.5436 27.6591 14.4496 27.6576 14.3359H27.9943C27.9971 14.3828 28.0097 14.4219 28.0319 14.4531C28.0542 14.4844 28.0847 14.508 28.1235 14.5241C28.1628 14.5402 28.2083 14.5483 28.2599 14.5483C28.3073 14.5483 28.3475 14.5419 28.3806 14.5291C28.4143 14.5163 28.4401 14.4986 28.4581 14.4759C28.4761 14.4531 28.4853 14.4271 28.4858 14.3977C28.4853 14.3703 28.4768 14.3468 28.4602 14.3274C28.4436 14.3075 28.4181 14.2905 28.3835 14.2763C28.3494 14.2616 28.3058 14.2481 28.2528 14.2358L28.1008 14.2003C27.9749 14.1714 27.8757 14.1248 27.8032 14.0604C27.7308 13.9955 27.6948 13.9079 27.6953 13.7976C27.6948 13.7076 27.719 13.6288 27.7677 13.5611C27.8165 13.4934 27.884 13.4406 27.9701 13.4027C28.0563 13.3648 28.1546 13.3459 28.2649 13.3459C28.3776 13.3459 28.4753 13.3651 28.5582 13.4034C28.6415 13.4413 28.7062 13.4946 28.7521 13.5632C28.798 13.6319 28.8215 13.7114 28.8224 13.8018H28.4858ZM27.9028 16.8203H27.525L28.0158 15.3658H28.4838L28.9746 16.8203H28.5967L28.2551 15.7322H28.2437L27.9028 16.8203ZM27.8524 16.2479H28.6422V16.5149H27.8524V16.2479Z" fill="black"/>
<path d="M19.0759 10.2045L19.1043 9.89205L18.8451 10.0732L18.703 9.82457L18.9871 9.69318L18.703 9.56179L18.8451 9.31321L19.1043 9.49432L19.0759 9.18182H19.36L19.3316 9.49432L19.5908 9.31321L19.7329 9.56179L19.4488 9.69318L19.7329 9.82457L19.5908 10.0732L19.3316 9.89205L19.36 10.2045H19.0759ZM20.5969 10.2045L20.6253 9.89205L20.3661 10.0732L20.224 9.82457L20.5081 9.69318L20.224 9.56179L20.3661 9.31321L20.6253 9.49432L20.5969 9.18182H20.881L20.8526 9.49432L21.1118 9.31321L21.2539 9.56179L20.9698 9.69318L21.2539 9.82457L21.1118 10.0732L20.8526 9.89205L20.881 10.2045H20.5969ZM22.1179 10.2045L22.1463 9.89205L21.8871 10.0732L21.745 9.82457L22.0291 9.69318L21.745 9.56179L21.8871 9.31321L22.1463 9.49432L22.1179 9.18182H22.402L22.3736 9.49432L22.6328 9.31321L22.7749 9.56179L22.4908 9.69318L22.7749 9.82457L22.6328 10.0732L22.3736 9.89205L22.402 10.2045H22.1179ZM23.6389 10.2045L23.6673 9.89205L23.4081 10.0732L23.266 9.82457L23.5501 9.69318L23.266 9.56179L23.4081 9.31321L23.6673 9.49432L23.6389 9.18182H23.923L23.8946 9.49432L24.1538 9.31321L24.2959 9.56179L24.0118 9.69318L24.2959 9.82457L24.1538 10.0732L23.8946 9.89205L23.923 10.2045H23.6389ZM19.0759 13.2045L19.1043 12.892L18.8451 13.0732L18.703 12.8246L18.9871 12.6932L18.703 12.5618L18.8451 12.3132L19.1043 12.4943L19.0759 12.1818H19.36L19.3316 12.4943L19.5908 12.3132L19.7329 12.5618L19.4488 12.6932L19.7329 12.8246L19.5908 13.0732L19.3316 12.892L19.36 13.2045H19.0759ZM20.5969 13.2045L20.6253 12.892L20.3661 13.0732L20.224 12.8246L20.5081 12.6932L20.224 12.5618L20.3661 12.3132L20.6253 12.4943L20.5969 12.1818H20.881L20.8526 12.4943L21.1118 12.3132L21.2539 12.5618L20.9698 12.6932L21.2539 12.8246L21.1118 13.0732L20.8526 12.892L20.881 13.2045H20.5969ZM22.1179 13.2045L22.1463 12.892L21.8871 13.0732L21.745 12.8246L22.0291 12.6932L21.745 12.5618L21.8871 12.3132L22.1463 12.4943L22.1179 12.1818H22.402L22.3736 12.4943L22.6328 12.3132L22.7749 12.5618L22.4908 12.6932L22.7749 12.8246L22.6328 13.0732L22.3736 12.892L22.402 13.2045H22.1179ZM23.6389 13.2045L23.6673 12.892L23.4081 13.0732L23.266 12.8246L23.5501 12.6932L23.266 12.5618L23.4081 12.3132L23.6673 12.4943L23.6389 12.1818H23.923L23.8946 12.4943L24.1538 12.3132L24.2959 12.5618L24.0118 12.6932L24.2959 12.8246L24.1538 13.0732L23.8946 12.892L23.923 13.2045H23.6389Z" fill="black"/>
<path d="M3.37669 10.2045L3.4051 9.89205L3.14586 10.0732L3.00382 9.82457L3.28791 9.69318L3.00382 9.56179L3.14586 9.31321L3.4051 9.49432L3.37669 9.18182H3.66078L3.63237 9.49432L3.8916 9.31321L4.03365 9.56179L3.74956 9.69318L4.03365 9.82457L3.8916 10.0732L3.63237 9.89205L3.66078 10.2045H3.37669ZM4.89768 10.2045L4.92609 9.89205L4.66686 10.0732L4.52481 9.82457L4.8089 9.69318L4.52481 9.56179L4.66686 9.31321L4.92609 9.49432L4.89768 9.18182H5.18177L5.15336 9.49432L5.4126 9.31321L5.55464 9.56179L5.27055 9.69318L5.55464 9.82457L5.4126 10.0732L5.15336 9.89205L5.18177 10.2045H4.89768ZM6.41868 10.2045L6.44709 9.89205L6.18786 10.0732L6.04581 9.82457L6.3299 9.69318L6.04581 9.56179L6.18786 9.31321L6.44709 9.49432L6.41868 9.18182H6.70277L6.67436 9.49432L6.93359 9.31321L7.07564 9.56179L6.79155 9.69318L7.07564 9.82457L6.93359 10.0732L6.67436 9.89205L6.70277 10.2045H6.41868ZM7.93968 10.2045L7.96808 9.89205L7.70885 10.0732L7.56681 9.82457L7.8509 9.69318L7.56681 9.56179L7.70885 9.31321L7.96808 9.49432L7.93968 9.18182H8.22377L8.19536 9.49432L8.45459 9.31321L8.59664 9.56179L8.31254 9.69318L8.59664 9.82457L8.45459 10.0732L8.19536 9.89205L8.22377 10.2045H7.93968ZM3.37669 13.2045L3.4051 12.892L3.14586 13.0732L3.00382 12.8246L3.28791 12.6932L3.00382 12.5618L3.14586 12.3132L3.4051 12.4943L3.37669 12.1818H3.66078L3.63237 12.4943L3.8916 12.3132L4.03365 12.5618L3.74956 12.6932L4.03365 12.8246L3.8916 13.0732L3.63237 12.892L3.66078 13.2045H3.37669ZM4.89768 13.2045L4.92609 12.892L4.66686 13.0732L4.52481 12.8246L4.8089 12.6932L4.52481 12.5618L4.66686 12.3132L4.92609 12.4943L4.89768 12.1818H5.18177L5.15336 12.4943L5.4126 12.3132L5.55464 12.5618L5.27055 12.6932L5.55464 12.8246L5.4126 13.0732L5.15336 12.892L5.18177 13.2045H4.89768ZM6.41868 13.2045L6.44709 12.892L6.18786 13.0732L6.04581 12.8246L6.3299 12.6932L6.04581 12.5618L6.18786 12.3132L6.44709 12.4943L6.41868 12.1818H6.70277L6.67436 12.4943L6.93359 12.3132L7.07564 12.5618L6.79155 12.6932L7.07564 12.8246L6.93359 13.0732L6.67436 12.892L6.70277 13.2045H6.41868ZM7.93968 13.2045L7.96808 12.892L7.70885 13.0732L7.56681 12.8246L7.8509 12.6932L7.56681 12.5618L7.70885 12.3132L7.96808 12.4943L7.93968 12.1818H8.22377L8.19536 12.4943L8.45459 12.3132L8.59664 12.5618L8.31254 12.6932L8.59664 12.8246L8.45459 13.0732L8.19536 12.892L8.22377 13.2045H7.93968Z" fill="black"/>
</g>
<rect x="1" y="1" width="30.2" height="21" rx="1" stroke="black" stroke-width="2"/>
<defs>
<clipPath id="clip0_29357_45260">
<rect width="32.2" height="23" rx="2" fill="white"/>
</clipPath>
</defs>
</svg>
