<svg width="32" height="16" viewBox="0 0 32 16" fill="none" xmlns="http://www.w3.org/2000/svg">
<g clip-path="url(#clip0_29357_45260)">
<rect width="32" height="16" rx="2" fill="white"/>
<path d="M25.6074 16.0156L25.6074 0.7923" stroke="black"/>
<path d="M13.2311 4.61677C13.2273 4.62722 13.2232 4.63698 13.2207 4.64721C13.2184 4.65584 13.2135 4.6622 13.2036 4.65947C13.1638 4.64902 13.1684 4.6722 13.1722 4.69264C13.1827 4.75057 13.1707 4.80646 13.1554 4.86257C13.1521 4.87484 13.1475 4.88324 13.1322 4.88143C13.1072 4.87847 13.1077 4.88983 13.1123 4.90596C13.1189 4.9289 13.125 4.95208 13.1294 4.97548C13.1327 4.9941 13.1311 5.01228 13.1107 5.02477C13.0987 5.03227 13.0972 5.04408 13.0962 5.05635C13.0947 5.07611 13.1028 5.09452 13.1051 5.11837C13.0745 5.10428 13.0651 5.07952 13.0503 5.05885C13.0442 5.05022 13.0403 5.03409 13.0271 5.03863C13.0141 5.04317 13.0217 5.05749 13.025 5.06748C13.0426 5.12132 13.06 5.17539 13.0781 5.22923C13.0863 5.25308 13.086 5.27444 13.0592 5.28875C13.0408 5.29852 13.0477 5.31283 13.05 5.32646C13.0717 5.45164 13.0936 5.57658 13.0891 5.7038C13.0885 5.71948 13.0972 5.7431 13.0811 5.74901C13.0595 5.75719 13.0414 5.73788 13.0273 5.72334C12.9444 5.63747 12.8794 5.54137 12.8304 5.4371C12.7182 5.1972 12.6812 4.94685 12.6972 4.68833C12.7049 4.5661 12.736 4.44638 12.7457 4.32462C12.748 4.2944 12.7521 4.26442 12.749 4.23397C12.748 4.22352 12.7478 4.21012 12.7332 4.20808C12.721 4.20649 12.7103 4.21376 12.7023 4.22261C12.6886 4.23806 12.6893 4.25692 12.6853 4.27487C12.6812 4.29259 12.6804 4.31735 12.6495 4.29259C12.6421 4.28668 12.6335 4.28577 12.6268 4.29236C12.6075 4.31099 12.586 4.30735 12.5592 4.29327C12.5592 4.33802 12.5595 4.37732 12.559 4.41662C12.559 4.42367 12.5633 4.43412 12.5529 4.43661C12.5393 4.4398 12.5396 4.4273 12.536 4.42003C12.5337 4.41503 12.5332 4.40935 12.5309 4.40436C12.5266 4.39481 12.5291 4.37732 12.5156 4.37823C12.4985 4.37937 12.4983 4.39731 12.4978 4.40935C12.4967 4.44298 12.5024 4.47614 12.51 4.50908C12.5133 4.52362 12.5143 4.53862 12.5166 4.55543C12.4842 4.55179 12.4751 4.53203 12.4661 4.51181C12.458 4.49341 12.4567 4.47115 12.4304 4.4607C12.4138 4.50204 12.4251 4.54339 12.4207 4.5836C12.4195 4.59655 12.4276 4.61813 12.411 4.62085C12.3914 4.62381 12.3896 4.60177 12.3832 4.58814C12.3766 4.57383 12.3761 4.54861 12.3557 4.55157C12.3388 4.55406 12.3427 4.57837 12.3422 4.59382C12.3411 4.62903 12.3562 4.66152 12.3654 4.69514C12.37 4.71172 12.374 4.72854 12.3797 4.75034C12.3656 4.74557 12.3559 4.74307 12.347 4.73944C12.3159 4.72695 12.3062 4.73126 12.3126 4.76125C12.3215 4.8035 12.3355 4.84508 12.3493 4.88642C12.3547 4.90278 12.3577 4.91368 12.3322 4.91368C12.3075 4.91368 12.307 4.93004 12.308 4.94572C12.3098 4.97207 12.3248 4.99524 12.333 5.02C12.3465 5.06067 12.3521 5.1002 12.3271 5.13904C12.3197 5.15063 12.3187 5.16403 12.3202 5.17698C12.322 5.19243 12.3164 5.20242 12.2985 5.20492C12.2769 5.2081 12.2802 5.22128 12.283 5.23446C12.2876 5.25627 12.296 5.27762 12.2945 5.30056C12.2786 5.30193 12.2738 5.29216 12.2692 5.28398C12.1986 5.15972 12.1187 5.03954 12.0577 4.91096C11.9486 4.68106 11.9797 4.46138 12.1202 4.2501C12.1623 4.18672 12.211 4.12743 12.2595 4.06814C12.2947 4.02497 12.3271 3.9809 12.3343 3.92615C12.3371 3.90389 12.3386 3.88185 12.3258 3.86118C12.3116 3.86481 12.3085 3.87549 12.3034 3.88321C12.2904 3.90275 12.2769 3.91275 12.2534 3.89457C12.2358 3.88094 12.2289 3.89071 12.2253 3.90616C12.2225 3.91775 12.2174 3.9291 12.2164 3.94092C12.2146 3.96363 12.2024 3.97454 12.1769 3.97204C12.1585 3.97022 12.1516 3.97931 12.1457 3.99294C12.1307 4.02929 12.1144 4.06518 12.0963 4.10653C12.0838 4.08336 12.0736 4.0645 12.0621 4.04315C12.0236 4.08404 12.0259 4.13833 11.9932 4.18172C11.9807 4.16787 11.9697 4.1556 11.9562 4.1406C11.9437 4.17014 11.9305 4.19672 11.9213 4.22421C11.9144 4.24511 11.9027 4.25033 11.8817 4.24193C11.8626 4.2342 11.8562 4.2417 11.8529 4.25783C11.8427 4.30735 11.831 4.35642 11.8192 4.40799C11.7973 4.39572 11.7947 4.37323 11.7751 4.36119C11.7552 4.38391 11.755 4.41049 11.7562 4.43525C11.7595 4.49454 11.7289 4.54407 11.7032 4.59518C11.7009 4.59973 11.695 4.60722 11.6922 4.60677C11.6501 4.59973 11.6585 4.62949 11.6567 4.64766C11.6488 4.72399 11.6343 4.8001 11.6476 4.87711C11.6514 4.90005 11.6458 4.92186 11.6315 4.94231C11.618 4.96162 11.6078 4.95821 11.6011 4.93981C11.5889 4.90596 11.5777 4.87166 11.5672 4.83735C11.5269 4.70332 11.4996 4.56701 11.4991 4.42798C11.4983 4.20853 11.5858 4.02202 11.7669 3.86981C11.944 3.72101 12.1404 3.60174 12.374 3.53518C12.434 3.51814 12.4962 3.50701 12.5539 3.48407C12.5626 3.48066 12.5763 3.47861 12.5753 3.4693C12.5743 3.45976 12.5615 3.45249 12.5508 3.45294C12.4797 3.45635 12.4054 3.43681 12.3388 3.47771C12.3065 3.4977 12.271 3.50474 12.2348 3.47884C12.2174 3.46635 12.1261 3.48407 12.1095 3.5002C12.0983 3.5111 12.0873 3.52246 12.0771 3.53291C12.0626 3.5295 12.0672 3.51996 12.0639 3.51383C12.059 3.50451 12.0639 3.48929 12.0509 3.48566C12.0353 3.48134 12.0231 3.49293 12.0134 3.50179C12.0016 3.51246 11.9924 3.52541 11.9827 3.53791C11.969 3.5554 11.9542 3.56676 11.9289 3.5529C11.9065 3.54063 11.8958 3.55744 11.885 3.56994C11.8728 3.58448 11.8613 3.59061 11.845 3.57403C11.8328 3.56131 11.8243 3.5638 11.8172 3.57971C11.8065 3.60379 11.7925 3.62651 11.7817 3.65059C11.7746 3.66649 11.7659 3.67126 11.7499 3.66035C11.732 3.64831 11.7192 3.65308 11.7088 3.66944C11.6991 3.68421 11.6858 3.69716 11.6792 3.71397C11.668 3.74214 11.6476 3.7644 11.6215 3.78326C11.5981 3.8003 11.5751 3.81801 11.5585 3.84119C11.555 3.84641 11.5481 3.85368 11.543 3.85345C11.4994 3.85096 11.5011 3.88094 11.4948 3.90502C11.4884 3.9291 11.4818 3.95341 11.4761 3.97772C11.4708 4.00157 11.4649 4.02338 11.4338 4.03292C11.4149 4.0386 11.4157 4.05723 11.4159 4.07245C11.4167 4.09721 11.4103 4.12584 11.3823 4.12584C11.3512 4.12584 11.3506 4.0929 11.3519 4.07154C11.3718 3.76122 11.5142 3.51019 11.8085 3.33504C12.0111 3.21464 12.2381 3.15761 12.4786 3.13694C12.5643 3.12967 12.6498 3.12013 12.7337 3.10105C12.7625 3.09446 12.7886 3.08469 12.8062 3.05539C12.6916 3.04857 12.5822 3.01245 12.4692 3.04471C12.4552 3.0488 12.4399 3.05516 12.4269 3.04766C12.3863 3.02449 12.3539 3.0413 12.3207 3.06129C12.311 3.0672 12.2975 3.07992 12.2873 3.06288C12.2738 3.04016 12.2565 3.04334 12.2366 3.05334C12.1659 3.08901 12.085 3.10377 12.0093 3.11831C11.9037 3.1383 11.8353 3.20668 11.7448 3.24371C11.7333 3.24848 11.7218 3.26484 11.7106 3.25507C11.6971 3.24349 11.7159 3.2319 11.7228 3.22259C11.8348 3.07333 11.9784 2.95247 12.1424 2.84911C12.3274 2.73257 12.533 2.69077 12.7564 2.7094C12.8651 2.71848 12.974 2.72848 13.0827 2.73666C13.1028 2.73825 13.1345 2.74643 13.1406 2.72666C13.1452 2.71235 13.1141 2.7019 13.0949 2.69645C13.0424 2.68123 13.0016 2.64556 12.9493 2.63102C12.8972 2.61648 12.8462 2.60035 12.7983 2.57695C12.7628 2.55969 12.7143 2.57173 12.6853 2.53856C12.6837 2.53674 12.6761 2.53833 12.6717 2.53992C12.5891 2.57014 12.5006 2.57809 12.4144 2.59467C12.3904 2.59922 12.37 2.61103 12.3432 2.62148C12.347 2.58649 12.3689 2.56537 12.3932 2.54719C12.4766 2.4854 12.5774 2.457 12.6804 2.43588C12.8819 2.39498 13.0679 2.43088 13.2403 2.5297C13.3026 2.56537 13.3661 2.59899 13.4372 2.61989C13.4589 2.62625 13.4645 2.62443 13.4648 2.60376C13.4663 2.52039 13.4758 2.43769 13.4883 2.355C13.4916 2.33319 13.4997 2.32365 13.524 2.3257C13.5515 2.32797 13.5599 2.3182 13.5622 2.29276C13.5673 2.23165 13.5571 2.16917 13.5801 2.10942C13.5834 2.10057 13.5811 2.08739 13.5946 2.08603C13.6105 2.08466 13.6112 2.09943 13.6161 2.10852C13.6367 2.14691 13.6283 2.18939 13.6357 2.2296C13.6393 2.24868 13.6383 2.26845 13.6406 2.28776C13.6426 2.30616 13.6454 2.32342 13.6684 2.33319C13.6852 2.34046 13.6875 2.35727 13.6877 2.37272C13.6883 2.39226 13.6883 2.41157 13.6888 2.43111C13.6898 2.45837 13.6944 2.48358 13.7158 2.5063C13.7385 2.53061 13.7403 2.56173 13.739 2.59263C13.737 2.64533 13.7408 2.64942 13.7949 2.62852C13.8694 2.59967 13.9405 2.56423 14.0094 2.52584C14.151 2.44724 14.3028 2.41452 14.4686 2.44065C14.5752 2.45746 14.6716 2.49721 14.7647 2.54469C14.7925 2.55878 14.8132 2.58059 14.8262 2.60717C14.8372 2.6292 14.8293 2.63988 14.8022 2.63738C14.7905 2.63625 14.779 2.63147 14.7675 2.62807C14.6872 2.6049 14.603 2.57968 14.5219 2.60285C14.4594 2.6208 14.3997 2.63125 14.3346 2.63284C14.2818 2.6342 14.2415 2.67032 14.1913 2.69236C14.2487 2.73166 14.3112 2.73234 14.3739 2.72961C14.4515 2.72598 14.5288 2.71803 14.6063 2.71644C14.7795 2.7128 14.9341 2.76119 15.066 2.8607C15.1695 2.93884 15.27 3.02063 15.3647 3.10764C15.4052 3.14512 15.4366 3.18874 15.4624 3.24008C15.4366 3.23599 15.4185 3.22395 15.3999 3.21418C15.3412 3.18351 15.2802 3.15989 15.2137 3.14308C15.154 3.12808 15.0963 3.10241 15.042 3.07379C15.0231 3.06379 15.0032 3.05561 14.9818 3.0513C14.9514 3.04539 14.9218 3.04221 14.905 3.07379C14.8981 3.08674 14.8882 3.08628 14.8759 3.07788C14.8624 3.06856 14.8474 3.06129 14.8338 3.05243C14.816 3.04062 14.8002 3.03176 14.7854 3.05675C14.7759 3.07265 14.7611 3.06243 14.7507 3.05675C14.7142 3.03698 14.679 3.01995 14.6372 3.04857C14.6288 3.05425 14.6112 3.05016 14.5979 3.04948C14.5571 3.04743 14.5178 3.05084 14.4834 3.07333C14.4737 3.07969 14.4637 3.08151 14.4525 3.07765C14.4492 3.07651 14.4456 3.07538 14.442 3.07492C14.4219 3.07288 14.3793 3.09946 14.3829 3.11445C14.3869 3.13217 14.4094 3.13126 14.4242 3.13285C14.4953 3.14012 14.5668 3.14512 14.6379 3.15103C14.7818 3.16284 14.9259 3.17261 15.0655 3.20896C15.4124 3.29892 15.6616 3.48588 15.7853 3.79325C15.8328 3.91138 15.8435 4.03474 15.8297 4.16514C15.805 4.14469 15.795 4.12152 15.7817 4.10085C15.7289 4.01816 15.6772 3.93524 15.6251 3.85209C15.6093 3.82687 15.5925 3.80325 15.5557 3.80143C15.542 3.80075 15.5422 3.79166 15.5402 3.78326C15.5223 3.70738 15.4624 3.66126 15.3961 3.61901C15.393 3.61719 15.3897 3.61583 15.3864 3.61446C15.3637 3.60561 15.3346 3.61265 15.316 3.5922C15.3007 3.57562 15.2846 3.55972 15.2685 3.54313C15.242 3.57721 15.242 3.57721 15.2124 3.5454C15.2078 3.54041 15.203 3.53541 15.1984 3.53041C15.1667 3.49611 15.166 3.49565 15.1356 3.53268C15.1267 3.54336 15.1211 3.54586 15.1114 3.53518C15.1037 3.52678 15.0956 3.51882 15.0884 3.50996C15.0739 3.49224 15.0637 3.47748 15.032 3.49497C15.0088 3.50792 14.9739 3.49315 14.9456 3.51042C14.9356 3.51655 14.9193 3.49474 14.9048 3.48747C14.8989 3.48452 14.8938 3.47657 14.8861 3.48066C14.8793 3.48429 14.8803 3.49202 14.8805 3.49815C14.8818 3.52927 14.9017 3.55063 14.9287 3.56676C15.0305 3.62764 15.132 3.68852 15.2348 3.74804C15.3693 3.82597 15.4917 3.91434 15.5723 4.04178C15.6631 4.18513 15.6881 4.34052 15.684 4.50159C15.68 4.66538 15.6361 4.82213 15.5797 4.97684C15.5713 4.99956 15.5639 4.99547 15.5496 4.98229C15.5203 4.95548 15.5213 4.92413 15.5305 4.89142C15.5343 4.87779 15.5402 4.86461 15.5468 4.85189C15.5565 4.83349 15.5519 4.82009 15.531 4.81282C15.5083 4.80487 15.5055 4.78965 15.5073 4.77079C15.5093 4.74921 15.5093 4.72763 15.5111 4.70605C15.5129 4.6856 15.5152 4.66674 15.4802 4.67197C15.4667 4.67401 15.4659 4.66334 15.4659 4.65425C15.4659 4.62222 15.4555 4.59291 15.4422 4.56338C15.4277 4.53067 15.442 4.495 15.4338 4.46092C15.429 4.44116 15.4279 4.42049 15.4254 4.40049C15.4205 4.40049 15.4177 4.39981 15.4157 4.40049C15.366 4.42185 15.366 4.42208 15.3611 4.37232C15.3596 4.35733 15.3565 4.34211 15.3565 4.32712C15.3568 4.29622 15.3504 4.27418 15.3063 4.28622C15.2889 4.29099 15.2876 4.27805 15.2848 4.26714C15.2746 4.2267 15.2634 4.18627 15.2512 4.14015C15.2333 4.16332 15.2195 4.18127 15.2019 4.20421C15.1828 4.15264 15.1657 4.1063 15.1476 4.05723C15.1389 4.06405 15.1333 4.06768 15.1285 4.072C15.0884 4.10676 15.0884 4.10676 15.0665 4.05905C15.0591 4.04315 15.0509 4.02724 15.0451 4.01089C15.0374 3.98908 15.028 3.97408 14.9971 3.97136C14.969 3.96886 14.9588 3.94319 14.9489 3.92252C14.9407 3.90593 14.9328 3.89662 14.9088 3.8998C14.8739 3.90457 14.8494 3.8873 14.8303 3.86209C14.8193 3.84777 14.8073 3.82188 14.7869 3.83165C14.765 3.8421 14.7749 3.86754 14.7828 3.88798C14.8022 3.93842 14.8435 3.97613 14.8777 4.0177C14.9474 4.10221 15.0262 4.18081 15.0854 4.27191C15.2075 4.46047 15.2246 4.66016 15.1598 4.86711C15.1129 5.01682 15.0315 5.15108 14.9277 5.27535C14.9129 5.29307 14.8984 5.31192 14.869 5.3226C14.8711 5.3042 14.8713 5.28943 14.8744 5.27512C14.8793 5.25218 14.8884 5.22878 14.8453 5.22991C14.8328 5.23014 14.8346 5.22128 14.8377 5.2131C14.8435 5.19675 14.8489 5.18016 14.854 5.16335C14.8583 5.14972 14.8639 5.13245 14.8543 5.12223C14.8231 5.08861 14.8412 5.05749 14.855 5.02545C14.8652 5.00115 14.8744 4.97661 14.8851 4.9523C14.8938 4.93254 14.8872 4.92572 14.8647 4.93072C14.8384 4.9364 14.8338 4.92868 14.84 4.90596C14.8543 4.8528 14.8652 4.79896 14.8777 4.7458C14.8548 4.7383 14.8361 4.77079 14.8221 4.75239C14.8129 4.74035 14.8221 4.71695 14.8234 4.69878C14.8249 4.67833 14.8264 4.65811 14.8282 4.63539C14.8037 4.64039 14.7974 4.66265 14.7721 4.67447C14.7721 4.60927 14.7721 4.54861 14.7721 4.48546C14.7392 4.49227 14.7387 4.51499 14.7282 4.53044C14.7247 4.53566 14.7236 4.5443 14.715 4.54452C14.7043 4.54498 14.702 4.53566 14.6997 4.52908C14.6918 4.50613 14.6938 4.48205 14.6918 4.45842C14.689 4.4248 14.6849 4.42185 14.6543 4.43843C14.6354 4.44865 14.6344 4.44002 14.6326 4.42753C14.6295 4.40504 14.626 4.38255 14.6231 4.35983C14.6211 4.34461 14.617 4.33302 14.5966 4.34484C14.5749 4.35733 14.5673 4.34597 14.5604 4.32984C14.5443 4.29281 14.517 4.26532 14.4737 4.25169C14.4517 4.24488 14.4402 4.24579 14.4443 4.27214C14.4589 4.36528 14.4742 4.45842 14.4841 4.55202C14.5119 4.8135 14.5007 5.07248 14.4079 5.32465C14.3627 5.44732 14.2987 5.56227 14.2191 5.67041C14.191 5.70857 14.1558 5.74106 14.1168 5.77014C14.1048 5.76287 14.1109 5.75333 14.1104 5.7456C14.1056 5.6202 14.1257 5.49435 14.1135 5.36963C14.1043 5.27739 14.1199 5.19402 14.1604 5.11155C14.1622 5.10792 14.1625 5.10383 14.1645 5.09633C14.1216 5.10133 14.1114 5.13813 14.077 5.15767C14.0742 5.1111 14.0711 5.06885 14.0688 5.02636C14.0673 4.99933 14.0671 4.9723 14.0658 4.94526C14.0635 4.8996 14.0566 4.85689 14.0237 4.81759C13.9806 4.76579 13.9882 4.69991 13.9757 4.63971C13.9739 4.63176 13.9796 4.62017 13.9694 4.61631C13.9574 4.61177 13.9505 4.62335 13.9423 4.62926C13.8967 4.66356 13.8944 4.71491 13.8775 4.76057C13.8337 4.87915 13.8408 5.0016 13.8459 5.12382C13.8528 5.29216 13.8579 5.46072 13.865 5.62929C13.8824 6.04184 13.8936 6.45462 13.8961 6.86762C13.8972 7.00825 13.8992 7.14864 13.9051 7.28926C13.9094 7.38922 13.9352 7.48577 13.9847 7.57664C14.0319 7.66319 14.0349 7.75066 13.9923 7.83994C13.9393 7.95103 13.9548 8.05825 14.0245 8.15912C14.0752 8.23272 14.1318 8.30315 14.1857 8.37494C14.2033 8.39834 14.2204 8.42219 14.2306 8.449C14.254 8.50965 14.228 8.55418 14.1586 8.57076C14.0821 8.58916 14.0041 8.59961 13.925 8.60075C13.7015 8.6037 13.4781 8.60756 13.2546 8.60211C13.1778 8.60029 13.1023 8.58939 13.0291 8.56917C12.9572 8.54941 12.9337 8.50511 12.9628 8.44309C12.9921 8.38084 13.0378 8.32723 13.0811 8.27248C13.1587 8.17457 13.2158 8.07007 13.2184 7.94694C13.2197 7.89082 13.2087 7.83721 13.1811 7.78678C13.1459 7.72249 13.1475 7.65933 13.1875 7.59777C13.2572 7.49099 13.2684 7.37264 13.2735 7.25337C13.288 6.90783 13.2954 6.56185 13.3031 6.21608C13.3094 5.92235 13.3281 5.62883 13.3398 5.3351C13.3469 5.15245 13.3378 4.9698 13.3314 4.78715C13.3296 4.72354 13.2847 4.65198 13.2311 4.61677Z" fill="#127043"/>
<path d="M18.3844 7.96504C18.329 7.97799 18.2767 7.97822 18.2249 7.98253C17.9831 8.00207 17.741 8.01638 17.5002 8.04614C17.1877 8.08476 16.877 8.1327 16.5709 8.20198C16.2975 8.26378 16.0337 8.34988 15.7753 8.45051C15.4549 8.57569 15.1427 8.71427 14.8552 8.89328C14.6027 9.05049 14.3798 9.23859 14.1627 9.43237C14.1122 9.47758 14.0624 9.52347 14.014 9.57026C13.9777 9.60502 13.977 9.61411 14.0094 9.65114C14.1043 9.76064 14.1999 9.86946 14.2963 9.97782C14.4343 10.133 14.5871 10.2766 14.7384 10.421C14.7583 10.4399 14.7808 10.4565 14.8014 10.4747C14.8195 10.4908 14.8287 10.4856 14.8364 10.4662C14.8733 10.3738 14.9114 10.2813 14.9489 10.1891C14.9647 10.1505 14.982 10.1128 15.0073 10.0778C15.0662 9.99577 15.155 9.97464 15.2483 10.0246C15.3419 10.0748 15.3856 10.1502 15.3779 10.2479C15.3746 10.2915 15.3437 10.322 15.2871 10.3329C15.1532 10.3586 15.0925 10.4422 15.0657 10.5517C15.0414 10.6509 15.0657 10.7386 15.1473 10.8143C15.2243 10.8854 15.3034 10.9533 15.3978 11.0058C15.4799 11.0515 15.4993 11.0467 15.5424 10.9701C15.5674 10.9256 15.5932 10.8813 15.6366 10.8481C15.7457 10.7645 15.9146 10.7466 16.0452 10.8847C16.1444 10.9897 16.1702 11.1139 16.1552 11.2466C16.1455 11.3316 16.1097 11.4086 16.0475 11.4731C15.9462 11.5783 15.8118 11.6012 15.6644 11.5878C15.5093 11.5737 15.3802 11.5072 15.2544 11.4315C15.1116 11.3456 14.9667 11.2625 14.8226 11.1787C14.7792 11.1535 14.7779 11.1544 14.7402 11.1875C14.6522 11.265 14.5734 11.3511 14.4764 11.4199C14.3476 11.5115 14.1499 11.5031 14.0446 11.4006C13.9349 11.2938 13.9288 11.1321 14.0862 11.0185C14.1124 10.9997 14.1428 10.9992 14.1719 11.0133C14.2229 11.038 14.2721 11.066 14.3241 11.0892C14.3923 11.1196 14.4614 11.1046 14.5106 11.0526C14.5412 11.0203 14.5458 10.9849 14.5269 10.947C14.4933 10.8795 14.4361 10.8275 14.3815 10.7741C14.1448 10.5421 13.9078 10.3109 13.6706 10.0794C13.6479 10.0571 13.6262 10.0233 13.5959 10.0212C13.5668 10.0192 13.5466 10.0553 13.5234 10.075C13.3166 10.2518 13.127 10.4431 12.9398 10.6362C12.8684 10.7098 12.798 10.7841 12.7268 10.8579C12.7028 10.8827 12.6827 10.9095 12.6686 10.9397C12.648 10.9835 12.6528 11.0246 12.6893 11.0603C12.7276 11.0978 12.7742 11.1132 12.8306 11.0973C12.8796 11.0837 12.9219 11.0576 12.9673 11.0371C12.9867 11.0283 13.0061 11.0194 13.0263 11.0122C13.0597 11.0001 13.0916 11.0042 13.1178 11.026C13.1969 11.0917 13.2255 11.1744 13.2097 11.2675C13.1931 11.3645 13.1393 11.442 13.0293 11.4729C12.9268 11.5017 12.8304 11.4731 12.7388 11.4306C12.6406 11.3849 12.5694 11.3129 12.5026 11.2366C12.4824 11.2137 12.4592 11.1928 12.4403 11.1689C12.4261 11.1507 12.4133 11.1535 12.3949 11.1623C12.2924 11.2121 12.2003 11.2759 12.1036 11.3338C12.009 11.3904 11.9194 11.454 11.8184 11.5019C11.7006 11.5578 11.5748 11.5858 11.4404 11.5815C11.2606 11.5758 11.1256 11.4806 11.0629 11.3136C10.9983 11.1421 11.0545 10.9608 11.2085 10.8431C11.3312 10.7495 11.4891 10.7636 11.5896 10.877C11.6251 10.917 11.6549 10.9601 11.6855 11.0028C11.7141 11.0424 11.7223 11.046 11.7669 11.0233C11.9016 10.9554 12.0149 10.8645 12.1103 10.7564C12.1421 10.7205 12.1483 10.6768 12.1347 10.633C12.1154 10.5705 12.0932 10.509 12.073 10.4467C12.0557 10.3936 12.0182 10.359 11.9582 10.3436C11.9501 10.3415 11.9424 10.3383 11.9342 10.3361C11.8322 10.3075 11.8054 10.2681 11.8243 10.1734C11.8475 10.0573 11.9733 9.98327 12.1001 10.0108C12.1582 10.0235 12.1955 10.056 12.2148 10.1053C12.2562 10.2102 12.2967 10.3154 12.338 10.4204C12.3659 10.4915 12.3822 10.4951 12.4388 10.4394C12.6934 10.1884 12.9393 9.93057 13.1709 9.6625C13.2018 9.6266 13.2007 9.6182 13.1712 9.57912C13.1066 9.49393 13.0212 9.42623 12.9395 9.35558C12.7487 9.19043 12.5477 9.0364 12.3355 8.89305C12.1465 8.76538 11.9363 8.67178 11.7246 8.58023C11.4845 8.47641 11.2399 8.38145 10.9881 8.30262C10.6535 8.19767 10.3134 8.11179 9.96141 8.06704C9.75351 8.04069 9.5446 8.02274 9.33594 8.00207C9.21758 7.99026 9.09973 7.97617 8.98162 7.96277C8.96836 7.96118 8.95484 7.95981 8.94336 7.94573C8.98341 7.93028 9.0255 7.9271 9.06606 7.92528C9.41272 7.90938 9.75759 7.87122 10.1055 7.8753C10.5134 7.88008 10.9172 7.91461 11.3141 8.00161C11.5825 8.06045 11.8396 8.14678 12.0883 8.25333C12.3355 8.35942 12.5791 8.47073 12.8026 8.61408C12.9941 8.73676 13.1732 8.87261 13.3439 9.01732C13.4132 9.07616 13.4829 9.135 13.5484 9.19701C13.5752 9.22246 13.5926 9.21814 13.6163 9.1986C13.6966 9.13272 13.7785 9.06821 13.8576 9.00119C14.1933 8.71699 14.5662 8.48027 14.9815 8.29672C15.2397 8.18245 15.5077 8.0918 15.7845 8.02138C16.0774 7.94664 16.3763 7.90552 16.6801 7.88757C16.9702 7.87053 17.2599 7.87849 17.5497 7.89166C17.7035 7.8987 17.8576 7.90393 18.0114 7.91392C18.1214 7.92119 18.231 7.93482 18.3407 7.94596C18.354 7.94846 18.3688 7.9505 18.3844 7.96504ZM15.6922 11.3679C15.7067 11.3679 15.7213 11.3686 15.7358 11.3677C15.8587 11.36 15.9289 11.3134 15.9572 11.2209C15.9799 11.1469 15.9383 11.0415 15.8684 10.9972C15.808 10.9588 15.7317 10.9849 15.7003 11.0564C15.6794 11.1039 15.6674 11.1532 15.6641 11.2048C15.6611 11.2557 15.6373 11.2714 15.581 11.2659C15.5577 11.2636 15.5363 11.2561 15.5146 11.2493C15.3805 11.2075 15.2733 11.1321 15.1769 11.0412C15.1236 10.991 15.0647 10.9456 15.0093 10.8972C14.9897 10.8802 14.9795 10.8838 14.967 10.9036C14.9374 10.9497 14.9404 10.9885 14.981 11.0281C15.0458 11.091 15.1152 11.1498 15.193 11.2003C15.3419 11.297 15.5044 11.3631 15.6922 11.3679ZM11.2447 11.1689C11.2447 11.302 11.3103 11.3688 11.4549 11.3731C11.5983 11.3774 11.7343 11.3431 11.8587 11.2798C11.9955 11.21 12.1072 11.111 12.2245 11.0192C12.2564 10.9942 12.2613 10.9599 12.2467 10.9238C12.2319 10.887 12.2278 10.8847 12.1921 10.9054C12.174 10.9161 12.1564 10.9279 12.1401 10.9408C12.0393 11.0203 11.9386 11.0996 11.8391 11.1805C11.7781 11.23 11.709 11.2577 11.6261 11.26C11.5595 11.2618 11.5384 11.2468 11.5297 11.1889C11.5233 11.1471 11.5144 11.1057 11.508 11.0639C11.5011 11.0176 11.4733 10.9883 11.4218 10.9797C11.3677 10.9706 11.3228 10.9865 11.2914 11.0267C11.257 11.0705 11.2476 11.1216 11.2447 11.1689ZM14.2045 11.1425C14.1739 11.1423 14.1545 11.1564 14.1438 11.1809C14.1219 11.2311 14.1486 11.2884 14.203 11.3122C14.302 11.3559 14.3966 11.3422 14.4792 11.2852C14.5866 11.2112 14.6713 11.1189 14.7262 11.0058C14.8239 10.8045 14.9241 10.6044 15.0241 10.4042C15.0509 10.3504 15.0902 10.3059 15.1552 10.285C15.1769 10.2779 15.1914 10.2636 15.2052 10.2486C15.2356 10.2157 15.2284 10.1766 15.1868 10.1432C15.1514 10.1146 15.1113 10.1159 15.0779 10.1482C15.0445 10.1805 15.0236 10.2198 15.0062 10.2602C14.932 10.4338 14.8583 10.6073 14.7856 10.7816C14.7297 10.9156 14.6522 11.0378 14.5453 11.145C14.5017 11.1889 14.4479 11.2043 14.3846 11.1912C14.3576 11.1855 14.3321 11.1746 14.3058 11.1664C14.2731 11.1562 14.2405 11.1435 14.2045 11.1425ZM12.8911 11.3313C12.9212 11.3325 12.9837 11.3129 13.0059 11.2954C13.0421 11.2673 13.0564 11.2043 13.0347 11.1703C13.0163 11.1416 12.9865 11.138 12.9237 11.1562C12.8834 11.1678 12.8431 11.1798 12.802 11.1891C12.739 11.2032 12.6845 11.1887 12.6401 11.146C12.6061 11.1132 12.5763 11.0778 12.5559 11.0369C12.4434 10.8143 12.3289 10.5928 12.233 10.364C12.2018 10.29 12.1659 10.2182 12.112 10.1543C12.0937 10.1325 12.0707 10.1205 12.0401 10.1264C12.0067 10.133 11.9842 10.1509 11.9768 10.182C11.9661 10.2273 11.9845 10.2629 12.0345 10.282C12.1105 10.3109 12.1613 10.3602 12.1924 10.4267C12.2687 10.5891 12.346 10.7511 12.4192 10.9147C12.4771 11.044 12.55 11.1625 12.673 11.253C12.7362 11.2995 12.8079 11.3275 12.8911 11.3313ZM14.6996 10.6525C14.6994 10.6278 14.6836 10.6044 14.6611 10.5835C14.5399 10.4701 14.4195 10.3561 14.2979 10.2432C14.2527 10.2011 14.2106 10.1559 14.1571 10.1216C14.1451 10.1139 14.1305 10.1091 14.1203 10.1171C14.1101 10.125 14.1252 10.1334 14.129 10.1416C14.1323 10.1484 14.1372 10.1548 14.1423 10.1609C14.2879 10.3443 14.4338 10.5274 14.5797 10.7107C14.5925 10.7268 14.6075 10.7404 14.628 10.7491C14.6384 10.7534 14.6499 10.7573 14.6568 10.7461C14.6746 10.718 14.6976 10.6918 14.6996 10.6525ZM13.0451 10.1198C13.038 10.115 13.0344 10.1187 13.0301 10.1203C12.9829 10.1371 12.9536 10.1721 12.9209 10.2039C12.789 10.332 12.6574 10.4601 12.5255 10.5882C12.5087 10.6046 12.4965 10.623 12.4911 10.6446C12.4822 10.6802 12.5087 10.7241 12.5516 10.7384C12.5847 10.7495 12.5883 10.715 12.6077 10.7041C12.6087 10.7036 12.6092 10.7025 12.61 10.7016C12.7505 10.5442 12.877 10.3783 12.9946 10.2068C13.014 10.1789 13.0342 10.1509 13.0451 10.1198Z" fill="#A67C1D"/>
<path d="M28.0261 3.46166C28.0251 3.46429 28.0239 3.46674 28.0232 3.46937C28.0225 3.47153 28.0213 3.47313 28.0186 3.47247C28.0077 3.46984 28.009 3.47566 28.01 3.48083C28.0129 3.49539 28.0095 3.50949 28.0054 3.52358C28.0045 3.52668 28.0033 3.52884 27.999 3.52837C27.9922 3.52762 27.9924 3.53053 27.9937 3.53457C27.9955 3.5404 27.9972 3.54623 27.9984 3.55205C27.9993 3.55675 27.9988 3.56126 27.9933 3.56445C27.99 3.56633 27.9897 3.56934 27.9895 3.57244C27.989 3.57742 27.9913 3.58202 27.9919 3.58804C27.9835 3.58447 27.9809 3.57827 27.9769 3.573C27.9752 3.57084 27.9742 3.5668 27.9706 3.56793C27.9671 3.56906 27.9692 3.57263 27.9701 3.57516C27.9749 3.58879 27.9795 3.60232 27.9846 3.61585C27.9867 3.62186 27.9867 3.62722 27.9794 3.63088C27.9744 3.63333 27.9763 3.6369 27.9769 3.64037C27.9828 3.67185 27.9888 3.70332 27.9875 3.73536C27.9874 3.73931 27.9897 3.74523 27.9854 3.74673C27.9794 3.7488 27.9745 3.74392 27.9706 3.74025C27.948 3.71864 27.9304 3.6944 27.917 3.66818C27.8864 3.60777 27.8764 3.54472 27.8807 3.47961C27.8828 3.44879 27.8912 3.41872 27.894 3.388C27.8947 3.38039 27.8957 3.37278 27.8949 3.36517C27.8945 3.36254 27.8945 3.35915 27.8905 3.35868C27.8872 3.35821 27.8843 3.36009 27.8821 3.36235C27.8783 3.3662 27.8786 3.37099 27.8774 3.3755C27.8763 3.38001 27.8762 3.38621 27.8677 3.38001C27.8657 3.37851 27.8634 3.37832 27.8616 3.37992C27.8563 3.38462 27.8505 3.38368 27.8431 3.38011C27.8431 3.39138 27.8431 3.40125 27.8431 3.41121C27.8431 3.41299 27.8442 3.41562 27.8414 3.41619C27.8377 3.41694 27.8377 3.41384 27.8368 3.41196C27.8361 3.41074 27.836 3.40933 27.8354 3.40801C27.8343 3.40566 27.835 3.40125 27.8313 3.40143C27.8267 3.40172 27.8265 3.40623 27.8265 3.40933C27.8263 3.41778 27.8278 3.42615 27.8298 3.43441C27.8308 3.43808 27.831 3.44184 27.8317 3.44607C27.8229 3.44513 27.8204 3.44024 27.8179 3.43507C27.8157 3.43047 27.8154 3.42483 27.8082 3.4222C27.8036 3.43263 27.8067 3.44296 27.8055 3.45311C27.8052 3.4564 27.8075 3.46185 27.8029 3.46251C27.7976 3.46326 27.7971 3.45772 27.7954 3.45424C27.7936 3.45067 27.7935 3.44428 27.7879 3.44503C27.7833 3.4456 27.7843 3.4518 27.7842 3.45565C27.7839 3.46458 27.788 3.47275 27.7905 3.48111C27.7917 3.48525 27.7929 3.48947 27.7944 3.49502C27.7905 3.4938 27.788 3.49314 27.7855 3.49229C27.7769 3.48919 27.7743 3.49023 27.7761 3.49774C27.7785 3.50836 27.7824 3.51888 27.786 3.52931C27.7875 3.53345 27.7883 3.53617 27.7814 3.53617C27.7746 3.53617 27.7745 3.54031 27.7747 3.54425C27.7753 3.55092 27.7793 3.55675 27.7816 3.56295C27.7852 3.57319 27.7868 3.58315 27.78 3.59292C27.778 3.59584 27.7777 3.59922 27.778 3.60251C27.7785 3.60636 27.777 3.6089 27.7721 3.60955C27.7662 3.6104 27.7671 3.61369 27.7679 3.61698C27.7691 3.62252 27.7714 3.62788 27.771 3.63361C27.7666 3.63398 27.7654 3.63145 27.764 3.62938C27.7448 3.59809 27.7231 3.56784 27.7064 3.53542C27.6766 3.47754 27.6851 3.4222 27.7234 3.36902C27.7349 3.35305 27.7482 3.33811 27.7613 3.32317C27.7709 3.31227 27.7796 3.30118 27.7816 3.28737C27.7824 3.28173 27.7827 3.27619 27.7793 3.27102C27.7754 3.27196 27.7746 3.27459 27.7731 3.27656C27.7696 3.28145 27.766 3.28399 27.7595 3.27938C27.7547 3.27591 27.7527 3.27835 27.7518 3.28229C27.7511 3.28521 27.7496 3.28812 27.7494 3.29103C27.749 3.29676 27.7455 3.29949 27.7387 3.29883C27.7337 3.29836 27.7317 3.30062 27.7302 3.30409C27.7261 3.31321 27.7217 3.32232 27.7168 3.33275C27.7134 3.32693 27.7106 3.32213 27.7074 3.31678C27.6969 3.32711 27.6976 3.34074 27.6887 3.35164C27.6853 3.34816 27.6823 3.34506 27.6787 3.3413C27.6752 3.34872 27.6716 3.3554 27.6692 3.36235C27.6674 3.36761 27.6642 3.36892 27.6585 3.36686C27.6532 3.36488 27.6515 3.36676 27.6506 3.3709C27.6478 3.3833 27.6446 3.3957 27.6415 3.40867C27.6355 3.40557 27.6349 3.39993 27.6295 3.39683C27.624 3.40256 27.624 3.40923 27.6244 3.41553C27.6253 3.43047 27.6169 3.44287 27.61 3.45574C27.6094 3.45687 27.6078 3.45875 27.607 3.45866C27.5955 3.45687 27.5979 3.46439 27.5973 3.4689C27.5952 3.48806 27.5913 3.50723 27.5948 3.52668C27.5958 3.53241 27.5944 3.53796 27.5905 3.54312C27.5868 3.54801 27.584 3.54707 27.5821 3.54247C27.5788 3.53392 27.5758 3.52527 27.5729 3.51663C27.562 3.4829 27.5545 3.44851 27.5543 3.41356C27.5541 3.35831 27.5779 3.31133 27.6272 3.27299C27.6755 3.2355 27.7289 3.20544 27.7925 3.18871C27.8089 3.18439 27.8257 3.18166 27.8416 3.17584C27.844 3.17499 27.8478 3.17443 27.8474 3.17217C27.8471 3.16983 27.8437 3.16795 27.8407 3.16804C27.8213 3.16889 27.8011 3.164 27.783 3.17424C27.7741 3.17922 27.7645 3.18101 27.7545 3.17452C27.7499 3.17142 27.725 3.17584 27.7204 3.17988C27.7174 3.1826 27.7144 3.18552 27.7116 3.18815C27.7078 3.1873 27.7089 3.18486 27.708 3.18336C27.7066 3.18101 27.708 3.17715 27.7045 3.17631C27.7002 3.17518 27.6969 3.17809 27.6942 3.18035C27.691 3.18298 27.6885 3.18627 27.6859 3.18946C27.6821 3.19388 27.6781 3.1967 27.6711 3.19322C27.6651 3.19012 27.6621 3.19435 27.6592 3.19754C27.6559 3.20121 27.6527 3.20281 27.6483 3.19858C27.645 3.19538 27.6427 3.19604 27.6408 3.19999C27.6378 3.206 27.6341 3.21183 27.6311 3.21784C27.6292 3.22188 27.6268 3.22301 27.6224 3.22028C27.6175 3.21727 27.6141 3.2185 27.6112 3.22254C27.6086 3.2263 27.605 3.22949 27.6031 3.23372C27.6001 3.24077 27.5946 3.2464 27.5874 3.25119C27.581 3.25542 27.5747 3.25993 27.5702 3.26576C27.5691 3.26707 27.5673 3.26886 27.5659 3.26886C27.5541 3.2682 27.5545 3.27581 27.5528 3.28183C27.5511 3.28793 27.5493 3.29395 27.5477 3.30015C27.5462 3.30616 27.5446 3.31161 27.5362 3.31405C27.531 3.31546 27.5313 3.32016 27.5313 3.32401C27.5315 3.33021 27.5297 3.33745 27.522 3.33745C27.5136 3.33745 27.5134 3.32909 27.5138 3.32382C27.5192 3.24565 27.558 3.18242 27.6382 3.13835C27.6934 3.108 27.7552 3.09372 27.8206 3.08846C27.844 3.08658 27.8673 3.08423 27.8901 3.07944C27.898 3.07784 27.905 3.0753 27.9098 3.06797C27.8786 3.06628 27.8488 3.05717 27.818 3.06525C27.8142 3.06628 27.81 3.06788 27.8065 3.066C27.7954 3.06018 27.7866 3.0644 27.7776 3.06948C27.775 3.07098 27.7713 3.07418 27.7685 3.06995C27.7648 3.06422 27.76 3.06497 27.7547 3.0675C27.7355 3.07652 27.7135 3.08019 27.6927 3.08385C27.664 3.08893 27.6452 3.10612 27.6207 3.11542C27.6176 3.11655 27.6144 3.12078 27.6114 3.11834C27.6077 3.11542 27.6128 3.11251 27.6147 3.11016C27.6451 3.07258 27.6843 3.04214 27.729 3.01611C27.7794 2.98679 27.8353 2.97627 27.8961 2.98097C27.9258 2.98322 27.9553 2.98576 27.985 2.98783C27.9905 2.9882 27.999 2.99027 28.0008 2.98538C28.002 2.98181 27.9936 2.97918 27.9883 2.97777C27.9741 2.97392 27.9629 2.965 27.9486 2.96133C27.9345 2.95767 27.9205 2.95363 27.9074 2.94771C27.8977 2.94329 27.8846 2.94639 27.8766 2.93803C27.8762 2.93756 27.8741 2.93794 27.873 2.93831C27.8505 2.94592 27.8264 2.94789 27.8029 2.95212C27.7964 2.95325 27.7908 2.95626 27.7835 2.95889C27.7846 2.95006 27.7905 2.9447 27.7971 2.94019C27.8198 2.92459 27.8472 2.91745 27.8754 2.91219C27.9302 2.90185 27.9809 2.91097 28.0278 2.93587C28.0448 2.94489 28.062 2.95334 28.0814 2.95861C28.0874 2.9602 28.0888 2.95973 28.089 2.95457C28.0894 2.93361 28.0919 2.91275 28.0953 2.89199C28.0963 2.88654 28.0985 2.8841 28.105 2.88457C28.1126 2.88513 28.1149 2.88269 28.1154 2.8763C28.1168 2.86089 28.1141 2.8452 28.1203 2.83016C28.1212 2.82791 28.1207 2.82462 28.1243 2.82424C28.1287 2.82387 28.1288 2.82763 28.1301 2.82988C28.1357 2.83956 28.1334 2.85027 28.1355 2.86042C28.1364 2.86521 28.1362 2.87019 28.1368 2.87508C28.1373 2.87968 28.1381 2.8841 28.1443 2.88654C28.1488 2.88832 28.1494 2.89255 28.1495 2.8965C28.1496 2.90139 28.1496 2.90627 28.1499 2.91125C28.1501 2.91811 28.1515 2.9245 28.1572 2.93023C28.1633 2.93634 28.1638 2.94423 28.1635 2.95203C28.1629 2.96528 28.1639 2.96631 28.1786 2.96105C28.1989 2.95381 28.2182 2.94479 28.237 2.93521C28.2756 2.91539 28.3169 2.90721 28.3621 2.91379C28.3911 2.91802 28.4174 2.92807 28.4428 2.94C28.4503 2.94357 28.456 2.94902 28.4595 2.95569C28.4625 2.96124 28.4603 2.96396 28.453 2.9633C28.4498 2.96302 28.4467 2.9618 28.4436 2.96096C28.4216 2.95513 28.3987 2.94874 28.3766 2.95466C28.3596 2.95917 28.3434 2.9618 28.3256 2.96218C28.3112 2.96246 28.3003 2.97167 28.2866 2.97721C28.3022 2.98717 28.3192 2.98726 28.3363 2.98661C28.3574 2.98567 28.3785 2.98369 28.3996 2.98332C28.4467 2.98238 28.489 2.99459 28.5248 3.01959C28.553 3.03932 28.5803 3.0598 28.6061 3.08179C28.6172 3.09118 28.6258 3.10218 28.6327 3.11514C28.6256 3.11411 28.6207 3.1111 28.6157 3.10866C28.5997 3.10095 28.5831 3.09503 28.5651 3.09081C28.5487 3.08705 28.5331 3.08057 28.5183 3.07333C28.5131 3.07079 28.5078 3.06873 28.5019 3.06769C28.4936 3.06619 28.4855 3.06534 28.481 3.07333C28.479 3.07662 28.4764 3.07643 28.4731 3.07436C28.4695 3.07201 28.4653 3.07023 28.4616 3.06797C28.4567 3.06497 28.4525 3.06281 28.4483 3.06901C28.4458 3.07295 28.4417 3.07042 28.4389 3.06901C28.4289 3.06403 28.4194 3.05971 28.408 3.06694C28.4057 3.06835 28.4009 3.06732 28.3972 3.06722C28.386 3.06675 28.3754 3.0676 28.3661 3.07324C28.3635 3.07483 28.3607 3.0753 28.3578 3.07436C28.3568 3.07408 28.3558 3.0738 28.3549 3.07371C28.3494 3.07324 28.3378 3.07991 28.3388 3.08367C28.34 3.08818 28.346 3.08789 28.3501 3.08827C28.3695 3.09005 28.3889 3.09137 28.4083 3.09287C28.4474 3.09588 28.4868 3.09832 28.5248 3.10744C28.6193 3.13008 28.6871 3.17715 28.7208 3.25458C28.7337 3.28436 28.7367 3.31537 28.7329 3.34825C28.7262 3.34309 28.7234 3.33726 28.7199 3.33209C28.7055 3.31133 28.6914 3.29038 28.6772 3.26942C28.6729 3.26303 28.6683 3.25711 28.6583 3.25664C28.6545 3.25646 28.6546 3.2542 28.6541 3.25204C28.6493 3.23297 28.6328 3.22132 28.6148 3.2107C28.614 3.21023 28.6131 3.20985 28.6122 3.20957C28.606 3.20732 28.5981 3.2091 28.593 3.20403C28.5889 3.1998 28.5845 3.19585 28.5801 3.19172C28.5729 3.20027 28.5729 3.20027 28.5648 3.19228C28.5636 3.19106 28.5623 3.18975 28.5611 3.18852C28.5524 3.17988 28.5523 3.17979 28.544 3.18909C28.5416 3.19181 28.54 3.19238 28.5373 3.18965C28.5353 3.18749 28.533 3.18552 28.5311 3.18336C28.5271 3.17885 28.5243 3.17518 28.5158 3.1796C28.5094 3.18289 28.4999 3.17913 28.4922 3.18345C28.4894 3.18495 28.485 3.1795 28.481 3.17772C28.4794 3.17697 28.478 3.17499 28.4758 3.17603C28.474 3.17687 28.4742 3.17885 28.4744 3.18044C28.4747 3.18824 28.4801 3.19369 28.4875 3.19773C28.5152 3.21305 28.5428 3.22836 28.5708 3.2434C28.6074 3.26303 28.6407 3.2853 28.6627 3.31734C28.6875 3.35342 28.6942 3.3926 28.6932 3.43319C28.692 3.47444 28.6802 3.5139 28.6648 3.5529C28.6625 3.55863 28.6604 3.55759 28.6566 3.55421C28.6486 3.54745 28.6489 3.53955 28.6513 3.53138C28.6523 3.528 28.6539 3.52462 28.6558 3.52142C28.6584 3.51682 28.6571 3.51343 28.6514 3.51155C28.6453 3.50958 28.6445 3.50573 28.645 3.50094C28.6456 3.49549 28.6456 3.49004 28.6461 3.48459C28.6465 3.47942 28.6472 3.47472 28.6377 3.47604C28.6341 3.47651 28.6339 3.47388 28.6339 3.47153C28.6339 3.46345 28.631 3.45612 28.6274 3.4487C28.6234 3.44043 28.6272 3.43141 28.6251 3.42286C28.6238 3.41788 28.6235 3.41271 28.6228 3.40764C28.6214 3.40764 28.6207 3.40745 28.6202 3.40764C28.6066 3.41309 28.6066 3.41309 28.6053 3.4005C28.605 3.39674 28.6041 3.39288 28.6041 3.38913C28.6041 3.38133 28.6024 3.37578 28.5904 3.37888C28.5857 3.38011 28.5854 3.37682 28.5846 3.37409C28.5817 3.36395 28.5788 3.3537 28.5754 3.34205C28.5707 3.34788 28.5669 3.35239 28.5621 3.35821C28.557 3.34525 28.5523 3.3336 28.5473 3.32119C28.5449 3.32289 28.5434 3.32382 28.542 3.32495C28.5312 3.33369 28.5312 3.33369 28.5251 3.32176C28.5231 3.31772 28.5209 3.31377 28.5193 3.30964C28.5173 3.30409 28.5146 3.30033 28.5063 3.29968C28.4987 3.29911 28.4959 3.29254 28.4932 3.28737C28.4909 3.28314 28.4887 3.28089 28.4823 3.28164C28.4729 3.28286 28.4661 3.27854 28.4609 3.27215C28.4579 3.26858 28.4546 3.262 28.449 3.26444C28.4431 3.26707 28.4457 3.27346 28.4479 3.27863C28.4531 3.29131 28.4644 3.3008 28.4738 3.31133C28.4927 3.33256 28.5142 3.35239 28.5303 3.37531C28.5636 3.42276 28.5683 3.47303 28.5506 3.52518C28.5378 3.56286 28.5157 3.59668 28.4874 3.62797C28.4834 3.63239 28.4794 3.63718 28.4714 3.6399C28.472 3.6353 28.472 3.63154 28.4729 3.62797C28.4742 3.62214 28.4768 3.61632 28.465 3.6166C28.4616 3.61669 28.4621 3.61444 28.4628 3.61237C28.4644 3.60824 28.4659 3.60401 28.4673 3.59988C28.4684 3.5964 28.47 3.59208 28.4674 3.58954C28.459 3.58108 28.4639 3.57329 28.4676 3.56521C28.4705 3.5591 28.4729 3.5529 28.4758 3.54679C28.4782 3.54181 28.4764 3.54012 28.4703 3.54134C28.4631 3.54275 28.4618 3.54087 28.4635 3.53514C28.4674 3.5218 28.4704 3.50817 28.4738 3.49483C28.4675 3.49295 28.4625 3.50113 28.4586 3.49652C28.4561 3.49351 28.4586 3.4876 28.459 3.48299C28.4593 3.47782 28.4598 3.47275 28.4603 3.46702C28.4537 3.46833 28.4519 3.47388 28.445 3.47679C28.445 3.46035 28.445 3.44513 28.445 3.42915C28.4361 3.43084 28.436 3.43658 28.4331 3.44052C28.432 3.44184 28.4318 3.444 28.4295 3.44409C28.4266 3.44419 28.426 3.44184 28.4254 3.44015C28.4232 3.43432 28.4238 3.42831 28.4232 3.42229C28.4224 3.41384 28.4214 3.41309 28.4131 3.41722C28.408 3.41976 28.4076 3.4176 28.4072 3.4145C28.4062 3.40886 28.4053 3.40313 28.4045 3.39749C28.404 3.39364 28.4028 3.39072 28.3972 3.39373C28.3913 3.39692 28.3892 3.39401 28.3873 3.38997C28.383 3.38067 28.3754 3.37372 28.3637 3.37033C28.3576 3.36864 28.3546 3.36883 28.3557 3.3755C28.3597 3.39899 28.3638 3.42239 28.3665 3.44597C28.3742 3.51184 28.3711 3.57704 28.3458 3.64056C28.3335 3.67147 28.3161 3.70041 28.2943 3.72766C28.2867 3.73724 28.2771 3.74542 28.2665 3.75284C28.2633 3.75096 28.2649 3.74861 28.2648 3.74664C28.2634 3.71507 28.269 3.68331 28.2656 3.65202C28.2631 3.62882 28.2673 3.60777 28.2783 3.587C28.2788 3.58606 28.2789 3.58503 28.2795 3.58315C28.2678 3.58437 28.2651 3.59367 28.2556 3.59865C28.2548 3.58691 28.254 3.57629 28.2535 3.56558C28.2531 3.55882 28.253 3.55196 28.2527 3.54519C28.2521 3.53373 28.2502 3.52292 28.2413 3.51306C28.2295 3.5 28.2317 3.48346 28.2283 3.46824C28.2278 3.46617 28.2293 3.46326 28.2265 3.46232C28.2232 3.46119 28.2214 3.46411 28.2192 3.46561C28.2068 3.47425 28.2062 3.48722 28.2016 3.49868C28.1896 3.52856 28.1916 3.55938 28.1929 3.5901C28.1947 3.63248 28.1962 3.67495 28.1981 3.71732C28.2029 3.82124 28.2059 3.92516 28.2067 4.02917C28.2069 4.0646 28.2075 4.09993 28.2091 4.13535C28.2102 4.16053 28.2173 4.18486 28.2308 4.2077C28.2435 4.2295 28.2445 4.25148 28.2328 4.27403C28.2184 4.30203 28.2227 4.329 28.2416 4.35437C28.2554 4.37288 28.2708 4.39063 28.2855 4.40867C28.2903 4.41459 28.295 4.42061 28.2977 4.42728C28.3041 4.4425 28.2971 4.45378 28.2781 4.458C28.2574 4.46261 28.236 4.46524 28.2145 4.46552C28.1536 4.46627 28.0927 4.46721 28.0319 4.4659C28.011 4.46543 27.9905 4.4627 27.9705 4.45763C27.9509 4.45265 27.9445 4.44147 27.9525 4.42587C27.9605 4.41018 27.9729 4.39665 27.9847 4.38293C28.0058 4.35831 28.0213 4.332 28.0221 4.301C28.0224 4.2869 28.0195 4.27337 28.0119 4.26069C28.0024 4.24453 28.0028 4.22856 28.0136 4.21305C28.0326 4.18618 28.0357 4.1564 28.037 4.12633C28.041 4.03932 28.0431 3.95222 28.0451 3.86512C28.0469 3.79118 28.052 3.71723 28.0552 3.64328C28.0571 3.59725 28.0546 3.5513 28.0529 3.50526C28.0529 3.48853 28.0407 3.47049 28.0261 3.46166Z" fill="black"/>
<path d="M29.4289 4.30769C29.4138 4.31088 29.3995 4.31098 29.3855 4.31211C29.3197 4.31709 29.2537 4.32066 29.1881 4.32817C29.103 4.33794 29.0183 4.34997 28.9351 4.36735C28.8607 4.38295 28.7888 4.40456 28.7184 4.42993C28.6311 4.46141 28.5461 4.49636 28.4678 4.54146C28.399 4.58111 28.3383 4.62847 28.2792 4.67723C28.2654 4.6886 28.252 4.70016 28.2387 4.712C28.2289 4.72073 28.2287 4.72299 28.2375 4.73238C28.2634 4.75991 28.2894 4.78735 28.3156 4.81469C28.3532 4.85378 28.3948 4.88986 28.436 4.92632C28.4414 4.93111 28.4475 4.93524 28.4531 4.93985C28.458 4.94389 28.4605 4.94257 28.4626 4.93768C28.4728 4.91438 28.483 4.89118 28.4932 4.86787C28.4974 4.8581 28.5022 4.84861 28.509 4.83987C28.5251 4.8192 28.5493 4.81385 28.5747 4.82653C28.6003 4.83922 28.6122 4.8582 28.61 4.88272C28.6091 4.89371 28.6008 4.90142 28.5852 4.90414C28.5487 4.91063 28.5322 4.93167 28.5249 4.9592C28.5183 4.98419 28.5249 5.00627 28.5471 5.02535C28.5681 5.04329 28.5897 5.0604 28.6154 5.07355C28.6377 5.08501 28.6431 5.08388 28.6547 5.06462C28.6616 5.05335 28.6685 5.04226 28.6804 5.0339C28.7102 5.01285 28.756 5.00834 28.7916 5.04311C28.8187 5.06951 28.8256 5.1008 28.8215 5.13425C28.8189 5.15567 28.8091 5.17503 28.7922 5.19128C28.7646 5.21778 28.7281 5.22351 28.6879 5.22013C28.6457 5.21655 28.6106 5.19983 28.5763 5.18076C28.5374 5.15915 28.498 5.13819 28.4587 5.11705C28.4469 5.11066 28.4465 5.11095 28.4362 5.11931C28.4123 5.13885 28.3908 5.16046 28.3644 5.17784C28.3292 5.20086 28.2755 5.1988 28.2467 5.17296C28.2168 5.14609 28.2152 5.10531 28.258 5.07674C28.2652 5.07195 28.2734 5.07186 28.2813 5.07543C28.2952 5.08163 28.3086 5.08868 28.3227 5.0945C28.3413 5.10221 28.36 5.09835 28.3735 5.08529C28.3818 5.07712 28.3831 5.06829 28.3779 5.0587C28.3688 5.0417 28.3532 5.02864 28.3383 5.01511C28.2739 4.95676 28.2093 4.89841 28.1447 4.84016C28.1386 4.83452 28.1326 4.82606 28.1244 4.8255C28.1164 4.82503 28.1111 4.83405 28.1047 4.83912C28.0483 4.88366 27.9968 4.93177 27.9458 4.98044C27.9264 4.99895 27.9071 5.01774 27.8877 5.03625C27.8812 5.04245 27.8757 5.04921 27.8718 5.05683C27.8662 5.06791 27.8675 5.07825 27.8774 5.08717C27.8878 5.09657 27.9006 5.10052 27.9159 5.09648C27.9292 5.093 27.9407 5.08642 27.9531 5.08135C27.9583 5.07919 27.9637 5.07684 27.9691 5.07505C27.9783 5.07205 27.9869 5.07308 27.9941 5.07853C28.0157 5.09507 28.0235 5.11593 28.0191 5.13932C28.0146 5.16375 27.9999 5.1832 27.9701 5.191C27.9421 5.19823 27.9159 5.19109 27.891 5.18038C27.8643 5.16892 27.8449 5.15069 27.8266 5.13152C27.8212 5.1257 27.8148 5.12043 27.8098 5.11452C27.8059 5.11001 27.8023 5.11057 27.7974 5.11282C27.7695 5.12532 27.7444 5.14139 27.7181 5.15595C27.6924 5.17023 27.6681 5.18621 27.6404 5.19833C27.6083 5.21242 27.5742 5.21947 27.5375 5.21834C27.4886 5.21693 27.4518 5.19297 27.4347 5.15088C27.4172 5.10775 27.4325 5.06199 27.4744 5.0324C27.5079 5.00881 27.5509 5.01238 27.5783 5.04095C27.588 5.051 27.5961 5.0619 27.6044 5.0727C27.6121 5.08266 27.6144 5.08351 27.6265 5.07787C27.6633 5.06077 27.6941 5.03785 27.72 5.01069C27.7286 5.00158 27.7303 4.99068 27.7266 4.97968C27.7213 4.96399 27.7153 4.9484 27.7097 4.9328C27.705 4.91936 27.6948 4.91072 27.6784 4.90677C27.6763 4.90621 27.6741 4.90546 27.6719 4.90489C27.6441 4.89766 27.6369 4.88779 27.642 4.86393C27.6483 4.83471 27.6827 4.8161 27.7171 4.82296C27.733 4.82616 27.7431 4.83433 27.7484 4.84673C27.7597 4.87313 27.7707 4.89963 27.7819 4.92613C27.7894 4.94398 27.794 4.94501 27.8093 4.93092C27.8787 4.86769 27.9456 4.80276 28.0087 4.7352C28.0172 4.72618 28.0168 4.72402 28.0087 4.71425C27.9912 4.69283 27.9679 4.67573 27.9456 4.65797C27.8937 4.61635 27.839 4.57754 27.7811 4.54155C27.7297 4.50942 27.6724 4.48584 27.6148 4.46272C27.5494 4.4366 27.4828 4.41264 27.4142 4.39282C27.323 4.36641 27.2305 4.34471 27.1346 4.33353C27.078 4.32686 27.021 4.32235 26.9642 4.31718C26.932 4.31417 26.8999 4.3106 26.8678 4.30731C26.8643 4.30694 26.8605 4.30656 26.8574 4.30299C26.8684 4.29914 26.8798 4.29829 26.8909 4.29782C26.9852 4.29378 27.0792 4.2842 27.1739 4.28523C27.285 4.28646 27.3949 4.2951 27.5031 4.31709C27.5762 4.33193 27.6461 4.35364 27.7139 4.38051C27.7812 4.40719 27.8475 4.43529 27.9084 4.47137C27.9606 4.50228 28.0094 4.53648 28.0559 4.57294C28.0748 4.58778 28.0937 4.60253 28.1115 4.61822C28.1188 4.62461 28.1235 4.62358 28.13 4.6186C28.1519 4.60197 28.1742 4.58581 28.1957 4.5689C28.2871 4.49739 28.3887 4.43773 28.5017 4.3915C28.572 4.36275 28.645 4.33992 28.7204 4.32216C28.8002 4.30337 28.8817 4.29294 28.9644 4.28852C29.0433 4.2842 29.1223 4.28627 29.2012 4.28956C29.2431 4.29134 29.2851 4.29266 29.327 4.29519C29.357 4.29698 29.3867 4.30046 29.4166 4.30327C29.4205 4.30356 29.4246 4.30403 29.4289 4.30769ZM28.6956 5.1646C28.6996 5.1646 28.7036 5.16478 28.7074 5.1646C28.7409 5.16272 28.76 5.15097 28.7678 5.12767C28.774 5.10897 28.7627 5.08248 28.7436 5.07129C28.7272 5.06162 28.7064 5.06819 28.6979 5.08623C28.6922 5.09817 28.6888 5.11066 28.688 5.12354C28.6871 5.13631 28.6807 5.14026 28.6653 5.13895C28.6591 5.13838 28.6531 5.1365 28.6473 5.13481C28.6108 5.12429 28.5816 5.10531 28.5554 5.08238C28.5409 5.06979 28.5248 5.05833 28.5097 5.04611C28.5044 5.04179 28.5016 5.04273 28.4982 5.04771C28.4901 5.05936 28.4909 5.06913 28.502 5.07909C28.5196 5.09497 28.5386 5.10982 28.5597 5.12241C28.6003 5.14674 28.6445 5.16347 28.6956 5.1646ZM27.4845 5.11452C27.4845 5.14806 27.5024 5.16488 27.5416 5.16591C27.5807 5.16694 27.6177 5.15839 27.6516 5.14242C27.6889 5.12485 27.7193 5.09995 27.7512 5.07684C27.7599 5.07054 27.7612 5.0619 27.7573 5.05278C27.7533 5.04348 27.7521 5.04292 27.7424 5.04818C27.7375 5.05081 27.7327 5.05382 27.7283 5.05711C27.7009 5.07712 27.6734 5.09713 27.6463 5.11743C27.6297 5.12992 27.6109 5.13688 27.5883 5.13744C27.5702 5.13791 27.5645 5.13415 27.5621 5.1195C27.5603 5.10897 27.5578 5.09854 27.5561 5.08802C27.5542 5.07637 27.5467 5.06895 27.5326 5.06678C27.5179 5.06453 27.5057 5.06848 27.4971 5.07862C27.4878 5.08971 27.4853 5.10258 27.4845 5.11452ZM28.2905 5.10794C28.2822 5.10784 28.2769 5.11142 28.274 5.11762C28.2681 5.1303 28.2753 5.14468 28.2901 5.15069C28.317 5.16168 28.3428 5.15821 28.3653 5.14383C28.3945 5.12513 28.4175 5.10202 28.4325 5.07346C28.4591 5.02281 28.4864 4.97236 28.5136 4.92199C28.5209 4.90846 28.5316 4.89728 28.5493 4.89193C28.5552 4.89014 28.5591 4.88648 28.5629 4.88272C28.5712 4.87445 28.5693 4.86458 28.5579 4.85622C28.5482 4.84908 28.5373 4.84936 28.5282 4.85754C28.5191 4.86562 28.5134 4.87558 28.5087 4.88573C28.4885 4.92942 28.4684 4.9732 28.4486 5.01699C28.4333 5.05072 28.4123 5.08154 28.3832 5.1085C28.3713 5.1195 28.3566 5.12344 28.3395 5.12006C28.3322 5.11865 28.3252 5.11583 28.318 5.11386C28.3091 5.11132 28.3004 5.10813 28.2905 5.10794ZM27.9329 5.15539C27.9411 5.15567 27.9581 5.15078 27.9641 5.14637C27.9739 5.13923 27.9779 5.12344 27.972 5.1148C27.967 5.10756 27.9589 5.10672 27.9418 5.11123C27.9308 5.11414 27.9197 5.11724 27.9086 5.1195C27.8914 5.12307 27.8765 5.1194 27.8644 5.1086C27.8552 5.10033 27.8471 5.0914 27.8415 5.08116C27.8109 5.02516 27.7796 4.96935 27.7535 4.91166C27.7451 4.89296 27.7353 4.87492 27.7205 4.85885C27.7155 4.8534 27.7092 4.8503 27.7009 4.85181C27.6918 4.8534 27.6856 4.85801 27.6837 4.86581C27.6807 4.87718 27.6859 4.8862 27.6994 4.89099C27.7201 4.89822 27.734 4.91062 27.7424 4.92744C27.7632 4.96832 27.7842 5.00919 27.8042 5.05034C27.8199 5.08285 27.8398 5.11282 27.8733 5.13547C27.8906 5.1474 27.9102 5.15445 27.9329 5.15539ZM28.4253 4.98448C28.4253 4.97818 28.421 4.97236 28.4148 4.96709C28.3818 4.93853 28.3491 4.90978 28.3159 4.8814C28.3036 4.87088 28.2921 4.85942 28.2775 4.85077C28.2743 4.8488 28.2703 4.84767 28.2675 4.84965C28.2646 4.85162 28.2688 4.85378 28.2699 4.85585C28.2708 4.85754 28.2722 4.85913 28.2734 4.86073C28.3131 4.90687 28.3528 4.953 28.3925 4.99923C28.3961 5.00327 28.4002 5.00674 28.4057 5.00891C28.4085 5.01003 28.4116 5.01097 28.4135 5.00815C28.4186 5.00092 28.4248 4.99434 28.4253 4.98448ZM27.9748 4.8503C27.9729 4.84908 27.9719 4.85002 27.9707 4.8504C27.9578 4.85463 27.9499 4.86346 27.941 4.87144C27.905 4.90367 27.8692 4.93599 27.8333 4.96822C27.8287 4.97236 27.8254 4.97696 27.8239 4.98241C27.8215 4.99134 27.8287 5.00242 27.8403 5.00599C27.8493 5.00881 27.8504 5.00007 27.8556 4.99735C27.8558 4.99725 27.8561 4.99688 27.8562 4.99669C27.8944 4.95704 27.929 4.91523 27.9609 4.8721C27.9663 4.86515 27.9718 4.8582 27.9748 4.8503Z" fill="black"/>
<path d="M27.4824 9.52734V8.0728H27.834V8.68786H27.8532L28.334 8.0728H28.7481L28.2324 8.72195L28.7573 9.52734H28.3368L27.9746 8.95561L27.834 9.13317V9.52734H27.4824ZM28.3106 10.5089C28.3059 10.4568 28.2848 10.4163 28.2474 10.3874C28.2105 10.3581 28.1577 10.3434 28.0891 10.3434C28.0436 10.3434 28.0057 10.3493 27.9754 10.3612C27.9451 10.373 27.9224 10.3893 27.9072 10.4102C27.8921 10.4305 27.8843 10.454 27.8838 10.4805C27.8829 10.5022 27.8871 10.5214 27.8966 10.538C27.9065 10.5546 27.9207 10.5692 27.9392 10.582C27.9581 10.5943 27.9809 10.6052 28.0074 10.6147C28.0339 10.6242 28.0637 10.6325 28.0969 10.6396L28.2219 10.668C28.2938 10.6836 28.3573 10.7044 28.4122 10.7305C28.4676 10.7565 28.514 10.7875 28.5514 10.8235C28.5893 10.8595 28.6179 10.9009 28.6374 10.9478C28.6568 10.9947 28.6667 11.0472 28.6672 11.1055C28.6667 11.1973 28.6435 11.2762 28.5976 11.342C28.5517 11.4078 28.4856 11.4582 28.3994 11.4933C28.3137 11.5283 28.2103 11.5458 28.0891 11.5458C27.9674 11.5458 27.8613 11.5276 27.7709 11.4911C27.6804 11.4547 27.6101 11.3993 27.5599 11.3249C27.5097 11.2506 27.4839 11.1566 27.4825 11.043H27.8192C27.822 11.0898 27.8346 11.1289 27.8568 11.1602C27.8791 11.1914 27.9096 11.2151 27.9484 11.2312C27.9877 11.2473 28.0332 11.2553 28.0848 11.2553C28.1321 11.2553 28.1724 11.2489 28.2055 11.2362C28.2392 11.2234 28.265 11.2056 28.2829 11.1829C28.3009 11.1602 28.3102 11.1341 28.3106 11.1048C28.3102 11.0773 28.3017 11.0539 28.2851 11.0344C28.2685 11.0146 28.2429 10.9975 28.2084 10.9833C28.1743 10.9686 28.1307 10.9551 28.0777 10.9428L27.9257 10.9073C27.7998 10.8784 27.7006 10.8318 27.6281 10.7674C27.5557 10.7025 27.5197 10.6149 27.5202 10.5046C27.5197 10.4147 27.5438 10.3358 27.5926 10.2681C27.6414 10.2004 27.7088 10.1476 27.795 10.1097C27.8812 10.0719 27.9794 10.0529 28.0898 10.0529C28.2025 10.0529 28.3002 10.0721 28.3831 10.1104C28.4664 10.1483 28.5311 10.2016 28.577 10.2702C28.6229 10.3389 28.6463 10.4184 28.6473 10.5089H28.3106ZM27.7277 13.5273H27.3499L27.8407 12.0728H28.3087L28.7995 13.5273H28.4216L28.08 12.4393H28.0686L27.7277 13.5273ZM27.6773 12.9549H28.4671V13.2219H27.6773V12.9549Z" fill="black"/>
<path d="M18.9428 6.46626L18.9712 6.15376L18.712 6.33487L18.57 6.08629L18.8541 5.9549L18.57 5.82351L18.712 5.57493L18.9712 5.75604L18.9428 5.44354H19.2269L19.1985 5.75604L19.4578 5.57493L19.5998 5.82351L19.3157 5.9549L19.5998 6.08629L19.4578 6.33487L19.1985 6.15376L19.2269 6.46626H18.9428ZM20.4638 6.46626L20.4922 6.15376L20.233 6.33487L20.091 6.08629L20.3751 5.9549L20.091 5.82351L20.233 5.57493L20.4922 5.75604L20.4638 5.44354H20.7479L20.7195 5.75604L20.9787 5.57493L21.1208 5.82351L20.8367 5.9549L21.1208 6.08629L20.9787 6.33487L20.7195 6.15376L20.7479 6.46626H20.4638ZM21.9848 6.46626L22.0132 6.15376L21.754 6.33487L21.612 6.08629L21.8961 5.9549L21.612 5.82351L21.754 5.57493L22.0132 5.75604L21.9848 5.44354H22.2689L22.2405 5.75604L22.4997 5.57493L22.6418 5.82351L22.3577 5.9549L22.6418 6.08629L22.4997 6.33487L22.2405 6.15376L22.2689 6.46626H21.9848ZM23.5058 6.46626L23.5342 6.15376L23.275 6.33487L23.133 6.08629L23.417 5.9549L23.133 5.82351L23.275 5.57493L23.5342 5.75604L23.5058 5.44354H23.7899L23.7615 5.75604L24.0207 5.57493L24.1628 5.82351L23.8787 5.9549L24.1628 6.08629L24.0207 6.33487L23.7615 6.15376L23.7899 6.46626H23.5058ZM18.9428 9.46626L18.9712 9.15376L18.712 9.33487L18.57 9.08629L18.8541 8.9549L18.57 8.82351L18.712 8.57493L18.9712 8.75604L18.9428 8.44354H19.2269L19.1985 8.75604L19.4578 8.57493L19.5998 8.82351L19.3157 8.9549L19.5998 9.08629L19.4578 9.33487L19.1985 9.15376L19.2269 9.46626H18.9428ZM20.4638 9.46626L20.4922 9.15376L20.233 9.33487L20.091 9.08629L20.3751 8.9549L20.091 8.82351L20.233 8.57493L20.4922 8.75604L20.4638 8.44354H20.7479L20.7195 8.75604L20.9787 8.57493L21.1208 8.82351L20.8367 8.9549L21.1208 9.08629L20.9787 9.33487L20.7195 9.15376L20.7479 9.46626H20.4638ZM21.9848 9.46626L22.0132 9.15376L21.754 9.33487L21.612 9.08629L21.8961 8.9549L21.612 8.82351L21.754 8.57493L22.0132 8.75604L21.9848 8.44354H22.2689L22.2405 8.75604L22.4997 8.57493L22.6418 8.82351L22.3577 8.9549L22.6418 9.08629L22.4997 9.33487L22.2405 9.15376L22.2689 9.46626H21.9848ZM23.5058 9.46626L23.5342 9.15376L23.275 9.33487L23.133 9.08629L23.417 8.9549L23.133 8.82351L23.275 8.57493L23.5342 8.75604L23.5058 8.44354H23.7899L23.7615 8.75604L24.0207 8.57493L24.1628 8.82351L23.8787 8.9549L24.1628 9.08629L24.0207 9.33487L23.7615 9.15376L23.7899 9.46626H23.5058Z" fill="black"/>
<path d="M3.33932 6.46626L3.36773 6.15376L3.1085 6.33487L2.96645 6.08629L3.25054 5.9549L2.96645 5.82351L3.1085 5.57493L3.36773 5.75604L3.33932 5.44354H3.62341L3.595 5.75604L3.85424 5.57493L3.99628 5.82351L3.71219 5.9549L3.99628 6.08629L3.85424 6.33487L3.595 6.15376L3.62341 6.46626H3.33932ZM4.86032 6.46626L4.88873 6.15376L4.6295 6.33487L4.48745 6.08629L4.77154 5.9549L4.48745 5.82351L4.6295 5.57493L4.88873 5.75604L4.86032 5.44354H5.14441L5.116 5.75604L5.37523 5.57493L5.51728 5.82351L5.23319 5.9549L5.51728 6.08629L5.37523 6.33487L5.116 6.15376L5.14441 6.46626H4.86032ZM6.38131 6.46626L6.40972 6.15376L6.15049 6.33487L6.00845 6.08629L6.29254 5.9549L6.00845 5.82351L6.15049 5.57493L6.40972 5.75604L6.38131 5.44354H6.66541L6.637 5.75604L6.89623 5.57493L7.03828 5.82351L6.75418 5.9549L7.03828 6.08629L6.89623 6.33487L6.637 6.15376L6.66541 6.46626H6.38131ZM7.90231 6.46626L7.93072 6.15376L7.67149 6.33487L7.52944 6.08629L7.81353 5.9549L7.52944 5.82351L7.67149 5.57493L7.93072 5.75604L7.90231 5.44354H8.1864L8.15799 5.75604L8.41723 5.57493L8.55927 5.82351L8.27518 5.9549L8.55927 6.08629L8.41723 6.33487L8.15799 6.15376L8.1864 6.46626H7.90231ZM3.33932 9.46626L3.36773 9.15376L3.1085 9.33487L2.96645 9.08629L3.25054 8.9549L2.96645 8.82351L3.1085 8.57493L3.36773 8.75604L3.33932 8.44354H3.62341L3.595 8.75604L3.85424 8.57493L3.99628 8.82351L3.71219 8.9549L3.99628 9.08629L3.85424 9.33487L3.595 9.15376L3.62341 9.46626H3.33932ZM4.86032 9.46626L4.88873 9.15376L4.6295 9.33487L4.48745 9.08629L4.77154 8.9549L4.48745 8.82351L4.6295 8.57493L4.88873 8.75604L4.86032 8.44354H5.14441L5.116 8.75604L5.37523 8.57493L5.51728 8.82351L5.23319 8.9549L5.51728 9.08629L5.37523 9.33487L5.116 9.15376L5.14441 9.46626H4.86032ZM6.38131 9.46626L6.40972 9.15376L6.15049 9.33487L6.00845 9.08629L6.29254 8.9549L6.00845 8.82351L6.15049 8.57493L6.40972 8.75604L6.38131 8.44354H6.66541L6.637 8.75604L6.89623 8.57493L7.03828 8.82351L6.75418 8.9549L7.03828 9.08629L6.89623 9.33487L6.637 9.15376L6.66541 9.46626H6.38131ZM7.90231 9.46626L7.93072 9.15376L7.67149 9.33487L7.52944 9.08629L7.81353 8.9549L7.52944 8.82351L7.67149 8.57493L7.93072 8.75604L7.90231 8.44354H8.1864L8.15799 8.75604L8.41723 8.57493L8.55927 8.82351L8.27518 8.9549L8.55927 9.08629L8.41723 9.33487L8.15799 9.15376L8.1864 9.46626H7.90231Z" fill="black"/>
</g>
<rect x="0.75" y="0.75" width="30.5" height="14.5" rx="1.25" stroke="black" stroke-width="1.5"/>
<defs>
<clipPath id="clip0_29357_45260">
<rect width="32" height="16" rx="2" fill="white"/>
</clipPath>
</defs>
</svg>
