<svg width="83" height="27" viewBox="0 0 83 27" fill="none" xmlns="http://www.w3.org/2000/svg">
<rect x="0.5" y="0.5" width="81.5" height="26" rx="1.5" fill="white"/>
<rect x="0.5" y="0.5" width="81.5" height="26" rx="1.5" stroke="black"/>
<path d="M72 26.5V0.5" stroke="black" stroke-width="0.5"/>
<path d="M76.5316 4.36664C76.5296 4.37288 76.5274 4.37867 76.5261 4.38491C76.5247 4.39003 76.5223 4.39382 76.5169 4.39226C76.4958 4.38602 76.4982 4.39983 76.5002 4.41209C76.5058 4.44661 76.4994 4.48002 76.4913 4.51344C76.4896 4.52079 76.4871 4.52591 76.4789 4.5248C76.4655 4.52301 76.4659 4.52992 76.4684 4.5395C76.472 4.55331 76.4753 4.56712 76.4775 4.58093C76.4793 4.59207 76.4784 4.60276 76.4677 4.61033C76.4613 4.61478 76.4606 4.62191 76.4601 4.62926C76.4593 4.64107 76.4637 4.65198 76.4648 4.66624C76.4486 4.65778 76.4434 4.64307 76.4356 4.6306C76.4323 4.62548 76.4303 4.6159 76.4234 4.61857C76.4165 4.62124 76.4205 4.62971 76.4223 4.63572C76.4316 4.66802 76.4408 4.7001 76.4506 4.73217C76.4548 4.74643 76.4548 4.75912 76.4405 4.76781C76.4307 4.7736 76.4345 4.78207 76.4356 4.79031C76.4472 4.86493 76.4588 4.93955 76.4564 5.01551C76.4561 5.02486 76.4606 5.0389 76.4521 5.04246C76.4405 5.04736 76.431 5.03578 76.4234 5.02709C76.3793 4.97586 76.3448 4.91839 76.3187 4.85624C76.259 4.71302 76.2394 4.56355 76.2479 4.40919C76.2519 4.33613 76.2684 4.26485 76.2737 4.19201C76.275 4.17397 76.277 4.15593 76.2755 4.13788C76.2748 4.13165 76.2748 4.12363 76.267 4.12252C76.2606 4.1214 76.2548 4.12586 76.2505 4.1312C76.2432 4.14034 76.2436 4.15169 76.2414 4.16239C76.2392 4.17308 76.239 4.18778 76.2225 4.17308C76.2185 4.16951 76.214 4.16907 76.2104 4.17286C76.2002 4.18399 76.1888 4.18176 76.1744 4.1733C76.1744 4.20003 76.1744 4.22342 76.1744 4.24703C76.1744 4.25126 76.1766 4.2575 76.171 4.25884C76.1639 4.26062 76.1639 4.25327 76.1621 4.24881C76.1608 4.24592 76.1606 4.24258 76.1594 4.23946C76.1572 4.23389 76.1585 4.22342 76.1514 4.22386C76.1423 4.22453 76.1421 4.23523 76.1421 4.24258C76.1416 4.26262 76.1445 4.28245 76.1485 4.30205C76.1503 4.31074 76.1508 4.31965 76.1521 4.32967C76.1349 4.32744 76.13 4.31586 76.1251 4.30361C76.1209 4.29269 76.1202 4.27933 76.1062 4.27309C76.0973 4.29782 76.1033 4.32232 76.1011 4.34638C76.1004 4.35417 76.1049 4.36709 76.096 4.36865C76.0855 4.37043 76.0846 4.35729 76.0813 4.34905C76.0777 4.34058 76.0775 4.32544 76.0666 4.32722C76.0576 4.32856 76.0596 4.34326 76.0594 4.35239C76.0588 4.37355 76.0668 4.39293 76.0717 4.41275C76.0741 4.42255 76.0764 4.43258 76.0793 4.44572C76.0717 4.44283 76.0668 4.44127 76.0619 4.43926C76.0452 4.43191 76.04 4.43436 76.0436 4.45218C76.0483 4.47735 76.0559 4.5023 76.063 4.52702C76.0659 4.53682 76.0674 4.54328 76.0539 4.54328C76.0407 4.54328 76.0405 4.55308 76.0409 4.56244C76.0421 4.57826 76.0498 4.59207 76.0543 4.60677C76.0614 4.63105 76.0645 4.65466 76.0512 4.67782C76.0474 4.68473 76.0467 4.69275 76.0474 4.70054C76.0483 4.70968 76.0454 4.71569 76.0358 4.71725C76.0242 4.71925 76.026 4.72705 76.0276 4.73485C76.03 4.74799 76.0345 4.76069 76.0336 4.77427C76.0251 4.77516 76.0227 4.76915 76.02 4.76425C75.9826 4.69007 75.94 4.61835 75.9075 4.5415C75.8494 4.40429 75.8659 4.27309 75.9407 4.14702C75.9632 4.10915 75.989 4.07373 76.0147 4.03832C76.0334 4.01248 76.0505 3.98619 76.0543 3.95345C76.0559 3.94008 76.0565 3.92694 76.0498 3.91469C76.0423 3.91692 76.0407 3.92316 76.0378 3.92783C76.0309 3.93942 76.0238 3.94543 76.0111 3.93452C76.0017 3.92627 75.9979 3.93207 75.9962 3.94142C75.9948 3.94833 75.9919 3.95523 75.9915 3.96214C75.9906 3.97572 75.9839 3.98218 75.9706 3.98063C75.9607 3.97951 75.957 3.98486 75.9541 3.9931C75.946 4.01471 75.9374 4.03631 75.9278 4.06104C75.9211 4.04723 75.9158 4.03587 75.9095 4.02317C75.889 4.04767 75.8904 4.07997 75.873 4.10581C75.8663 4.09757 75.8605 4.09022 75.8534 4.08131C75.8467 4.0989 75.8396 4.11472 75.8349 4.1312C75.8313 4.14368 75.8251 4.14679 75.814 4.14189C75.8037 4.13722 75.8004 4.14167 75.7986 4.15147C75.793 4.18087 75.7868 4.21028 75.7808 4.24102C75.7692 4.23367 75.7679 4.2203 75.7574 4.21295C75.7467 4.22654 75.7467 4.24235 75.7474 4.25728C75.7491 4.29269 75.7329 4.3221 75.7193 4.35261C75.7182 4.35529 75.7151 4.35974 75.7135 4.35952C75.691 4.35529 75.6957 4.3731 75.6946 4.3838C75.6903 4.42924 75.6828 4.47468 75.6897 4.52079C75.6917 4.53437 75.6888 4.54752 75.6812 4.55977C75.6741 4.57135 75.6685 4.56912 75.6649 4.55821C75.6585 4.53794 75.6525 4.51745 75.6469 4.49695C75.6255 4.41699 75.611 4.33546 75.6106 4.2526C75.6101 4.12162 75.6567 4.01025 75.7529 3.91937C75.8471 3.83049 75.9514 3.75921 76.0757 3.71957C76.1075 3.70932 76.1405 3.70286 76.1715 3.68905C76.1761 3.68704 76.1835 3.68571 76.1828 3.68036C76.1822 3.67479 76.1755 3.67034 76.1697 3.67056C76.1318 3.67257 76.0924 3.66098 76.057 3.68526C76.0396 3.69707 76.0209 3.7013 76.0015 3.68593C75.9924 3.67858 75.9438 3.68905 75.9349 3.69863C75.9289 3.70509 75.9231 3.71199 75.9178 3.71823C75.9102 3.71622 75.9124 3.71043 75.9106 3.70687C75.908 3.7013 75.9106 3.69217 75.9037 3.69016C75.8955 3.68749 75.889 3.69439 75.8837 3.69974C75.8774 3.70598 75.8725 3.71377 75.8674 3.72135C75.8601 3.73182 75.8523 3.7385 75.8387 3.73026C75.8269 3.72291 75.8211 3.73293 75.8153 3.7405C75.8088 3.74919 75.8026 3.75298 75.7941 3.74295C75.7877 3.73538 75.7832 3.73694 75.7794 3.7463C75.7736 3.76055 75.7663 3.77436 75.7605 3.78862C75.7567 3.7982 75.752 3.80087 75.7436 3.79441C75.734 3.78728 75.7273 3.79018 75.7217 3.79976C75.7166 3.80866 75.7095 3.81624 75.7059 3.82626C75.6999 3.84297 75.6892 3.85633 75.6752 3.86769C75.6627 3.87772 75.6505 3.88841 75.6416 3.90222C75.6395 3.90534 75.636 3.90957 75.6333 3.90957C75.6101 3.90801 75.611 3.92605 75.6077 3.94031C75.6044 3.95479 75.6008 3.96904 75.5977 3.98374C75.5948 3.998 75.5917 4.01092 75.5752 4.01671C75.5652 4.02005 75.5656 4.03119 75.5656 4.04032C75.566 4.05502 75.5625 4.07217 75.5476 4.07217C75.5311 4.07217 75.5306 4.05235 75.5315 4.03988C75.542 3.85455 75.6177 3.70464 75.7743 3.60017C75.8821 3.52823 76.0028 3.49437 76.1305 3.48189C76.1761 3.47744 76.2216 3.47187 76.2661 3.46051C76.2815 3.45672 76.2953 3.45071 76.3047 3.43334C76.2436 3.42933 76.1855 3.40772 76.1254 3.42688C76.118 3.42933 76.1098 3.43311 76.1029 3.42866C76.0813 3.41485 76.0641 3.42487 76.0465 3.4369C76.0414 3.44046 76.0343 3.44804 76.0287 3.43801C76.0216 3.42443 76.0122 3.42621 76.0017 3.43222C75.9643 3.45361 75.9213 3.46229 75.8808 3.47098C75.8247 3.48301 75.7881 3.52377 75.7402 3.54582C75.7342 3.5485 75.728 3.55852 75.722 3.55273C75.7148 3.54582 75.7249 3.53892 75.7284 3.53335C75.7879 3.44425 75.8643 3.37208 75.9516 3.31038C76.0501 3.24088 76.1592 3.21594 76.2779 3.22707C76.3359 3.23242 76.3935 3.23843 76.4515 3.24333C76.4622 3.24422 76.4789 3.24912 76.4822 3.23754C76.4847 3.22908 76.4682 3.22284 76.4579 3.2195C76.4301 3.21037 76.4082 3.1892 76.3804 3.18052C76.3528 3.17183 76.3256 3.16225 76.3 3.14822C76.2811 3.13775 76.2554 3.1451 76.2399 3.12528C76.239 3.12416 76.235 3.12505 76.2327 3.12595C76.1888 3.14399 76.1418 3.14867 76.096 3.15869C76.0833 3.16136 76.0723 3.16849 76.0581 3.17473C76.0601 3.15379 76.0717 3.14109 76.0846 3.1304C76.1289 3.09342 76.1824 3.0765 76.2374 3.06402C76.3445 3.03952 76.4434 3.06113 76.535 3.12015C76.5682 3.14154 76.6018 3.16158 76.6397 3.17406C76.6513 3.17785 76.6542 3.17673 76.6544 3.16448C76.6553 3.11481 76.6602 3.06536 76.6669 3.01613C76.6686 3.00321 76.6731 2.99742 76.6858 2.99853C76.7005 2.99987 76.7049 2.99408 76.7061 2.97893C76.7087 2.9424 76.7034 2.9052 76.7156 2.86956C76.7174 2.86422 76.7163 2.85642 76.7234 2.85553C76.7319 2.85464 76.7321 2.86355 76.7348 2.8689C76.7457 2.89184 76.7413 2.91723 76.7453 2.94129C76.747 2.95265 76.7466 2.96445 76.7477 2.97604C76.7488 2.98695 76.7504 2.99742 76.7624 3.00321C76.7713 3.00744 76.7724 3.01747 76.7727 3.02682C76.7729 3.03841 76.7729 3.04999 76.7733 3.06179C76.7738 3.07806 76.7764 3.0932 76.7876 3.10679C76.7996 3.12127 76.8005 3.13998 76.7998 3.15847C76.7987 3.18987 76.8007 3.19232 76.8295 3.17985C76.8691 3.1627 76.9068 3.14131 76.9435 3.11859C77.0188 3.0716 77.0994 3.05222 77.1876 3.06781C77.2442 3.07783 77.2957 3.10167 77.3451 3.12996C77.3598 3.13842 77.371 3.15134 77.3779 3.16715C77.3837 3.1803 77.3794 3.18676 77.3652 3.1852C77.3589 3.18453 77.3529 3.18163 77.3467 3.17963C77.3039 3.16582 77.2591 3.15067 77.2159 3.1647C77.1827 3.1754 77.1511 3.18163 77.1164 3.18252C77.0883 3.18319 77.0669 3.20502 77.0402 3.21816C77.0707 3.24177 77.1039 3.242 77.1373 3.24044C77.1785 3.23821 77.2197 3.23353 77.2609 3.23264C77.3529 3.23041 77.4353 3.25937 77.5053 3.31862C77.5603 3.3654 77.6138 3.41396 77.6641 3.46608C77.6857 3.48835 77.7024 3.51442 77.716 3.54516C77.7022 3.54271 77.6926 3.53558 77.6828 3.52979C77.6516 3.51152 77.6191 3.49749 77.5839 3.48746C77.5521 3.47855 77.5215 3.46318 77.4926 3.44603C77.4826 3.44002 77.4721 3.43512 77.4605 3.43267C77.4445 3.4291 77.4287 3.4271 77.4197 3.44603C77.416 3.45383 77.4108 3.45338 77.4044 3.44848C77.3972 3.44291 77.3892 3.43868 77.3819 3.43334C77.3723 3.42621 77.3641 3.42108 77.356 3.43579C77.3511 3.44514 77.3431 3.43913 77.3375 3.43579C77.3182 3.42398 77.2995 3.41373 77.2772 3.43089C77.2727 3.43423 77.2634 3.43178 77.2562 3.43155C77.2344 3.43044 77.2137 3.43245 77.1954 3.44581C77.1903 3.4496 77.185 3.45071 77.1792 3.44848C77.1774 3.44781 77.1754 3.44715 77.1736 3.44692C77.1629 3.44581 77.1402 3.46162 77.1422 3.47053C77.1444 3.48123 77.1562 3.48056 77.1643 3.48145C77.2021 3.48568 77.24 3.4888 77.2779 3.49236C77.3543 3.49949 77.4311 3.50528 77.5053 3.52689C77.6897 3.58057 77.8222 3.69217 77.888 3.87571C77.9131 3.94632 77.9189 4.01983 77.9116 4.09779C77.8984 4.08554 77.8931 4.07173 77.8862 4.05948C77.8581 4.01025 77.8305 3.96058 77.8029 3.91091C77.7944 3.89576 77.7855 3.88173 77.7659 3.88061C77.7585 3.88017 77.7588 3.87482 77.7576 3.8697C77.7483 3.82448 77.7162 3.79686 77.681 3.77169C77.6795 3.77057 77.6777 3.76968 77.6759 3.76902C77.6639 3.76367 77.6485 3.7679 77.6385 3.75587C77.6305 3.74585 77.6218 3.73649 77.6133 3.72669C77.5993 3.74696 77.5993 3.74696 77.5835 3.72803C77.581 3.72513 77.5786 3.72202 77.5761 3.71912C77.5592 3.69863 77.559 3.69841 77.5427 3.72046C77.538 3.72692 77.5349 3.72825 77.5298 3.72179C77.5258 3.71667 77.5213 3.71199 77.5175 3.70687C77.5097 3.69618 77.5044 3.68749 77.4877 3.69796C77.4752 3.70576 77.4567 3.69685 77.4416 3.70709C77.4362 3.71066 77.4275 3.69774 77.4197 3.6935C77.4166 3.69172 77.4139 3.68704 77.4097 3.6895C77.4062 3.6915 77.4066 3.69618 77.4068 3.69996C77.4075 3.71845 77.418 3.73137 77.4324 3.74095C77.4866 3.77726 77.5405 3.81356 77.595 3.8492C77.6665 3.89576 77.7316 3.94855 77.7746 4.02451C77.8229 4.11004 77.8361 4.20293 77.8341 4.29915C77.8318 4.39694 77.8087 4.49049 77.7786 4.58293C77.7741 4.59652 77.7701 4.59407 77.7625 4.58605C77.747 4.57001 77.7476 4.5513 77.7523 4.53192C77.7543 4.5239 77.7574 4.51589 77.761 4.50831C77.7661 4.4974 77.7637 4.48938 77.7525 4.48492C77.7405 4.48025 77.7389 4.47111 77.7401 4.45975C77.7412 4.44683 77.7412 4.43391 77.7421 4.421C77.7429 4.40874 77.7443 4.39761 77.7258 4.40073C77.7187 4.40184 77.7182 4.3956 77.7182 4.39003C77.7182 4.37088 77.7127 4.3535 77.7055 4.33591C77.6977 4.31631 77.7053 4.29492 77.7011 4.27465C77.6986 4.26285 77.698 4.25059 77.6966 4.23857C77.6939 4.23857 77.6926 4.23812 77.6915 4.23857C77.665 4.25148 77.665 4.25149 77.6625 4.22164C77.6619 4.21273 77.6601 4.20359 77.6601 4.19468C77.6601 4.1762 77.6567 4.16305 77.6334 4.1704C77.6242 4.1733 77.6236 4.16551 77.622 4.15905C77.6164 4.13499 77.6106 4.11071 77.6042 4.08309C77.5948 4.0969 77.5875 4.10759 77.5781 4.1214C77.5681 4.09066 77.559 4.06304 77.5492 4.03364C77.5445 4.03765 77.5416 4.03988 77.5389 4.04255C77.5178 4.06326 77.5178 4.06326 77.5059 4.03498C77.5019 4.0254 77.4977 4.01604 77.4946 4.00624C77.4906 3.9931 77.4855 3.98419 77.4692 3.98263C77.4543 3.98129 77.4489 3.9657 77.4436 3.95345C77.4391 3.94343 77.4349 3.93808 77.4224 3.93986C77.4039 3.94276 77.3908 3.93251 77.3805 3.91736C77.3747 3.9089 77.3683 3.89331 77.3574 3.8991C77.3458 3.90534 77.3509 3.92048 77.3551 3.93273C77.3654 3.96281 77.3874 3.9853 77.4057 4.01025C77.4427 4.06059 77.4846 4.10759 77.516 4.16194C77.581 4.27443 77.5901 4.3936 77.5556 4.51722C77.5307 4.60654 77.4875 4.68673 77.4322 4.76091C77.4244 4.77138 77.4166 4.78274 77.401 4.7892C77.4021 4.77828 77.4021 4.76937 77.4039 4.76091C77.4066 4.7471 77.4115 4.73329 77.3886 4.73396C77.3819 4.73418 77.383 4.72883 77.3843 4.72393C77.3874 4.71413 77.3903 4.70411 77.393 4.69431C77.3952 4.68606 77.3984 4.67582 77.3932 4.6698C77.3768 4.64976 77.3863 4.63127 77.3937 4.61211C77.3992 4.59763 77.4039 4.58293 77.4097 4.56845C77.4144 4.55665 77.4108 4.55264 77.3988 4.55553C77.3848 4.55888 77.3823 4.55442 77.3857 4.54083C77.3932 4.5092 77.399 4.47691 77.4057 4.44528C77.3935 4.44082 77.3837 4.4602 77.3761 4.44928C77.3712 4.44216 77.3761 4.42812 77.3768 4.41721C77.3774 4.40496 77.3783 4.39293 77.3794 4.37934C77.3665 4.38246 77.3629 4.3956 77.3496 4.40251C77.3496 4.36353 77.3496 4.32744 77.3496 4.28958C77.3322 4.29358 77.332 4.30717 77.3262 4.31653C77.3242 4.31965 77.3237 4.32477 77.3193 4.32499C77.3135 4.32521 77.3124 4.31965 77.3113 4.31564C77.307 4.30183 77.3081 4.28757 77.307 4.27331C77.3055 4.25327 77.3035 4.25149 77.2872 4.26129C77.2772 4.2673 77.2765 4.26218 77.2756 4.25483C77.2738 4.24146 77.2721 4.22787 77.2705 4.21451C77.2694 4.20538 77.2672 4.19847 77.2562 4.2056C77.2447 4.21317 77.2407 4.20627 77.2369 4.19669C77.2284 4.17464 77.2137 4.15815 77.1908 4.15014C77.179 4.14613 77.1729 4.14657 77.1752 4.16239C77.183 4.21807 77.191 4.27354 77.1963 4.32945C77.2113 4.48559 77.2052 4.64018 77.1558 4.79076C77.1317 4.86404 77.0979 4.93264 77.0553 4.99724C77.0404 5.01996 77.0217 5.03934 77.001 5.05694C76.9947 5.05248 76.9979 5.04691 76.9976 5.04224C76.995 4.96739 77.0059 4.8921 76.9992 4.81793C76.9943 4.76291 77.0025 4.71302 77.0241 4.66379C77.025 4.66156 77.0253 4.65911 77.0264 4.65466C77.0037 4.65755 76.9983 4.6796 76.9798 4.69141C76.9783 4.66357 76.9767 4.6384 76.9756 4.613C76.9749 4.59696 76.9747 4.5807 76.974 4.56467C76.9729 4.53749 76.9691 4.51188 76.9518 4.48849C76.9288 4.45753 76.933 4.41832 76.9264 4.38224C76.9255 4.37734 76.9284 4.37043 76.923 4.3682C76.9166 4.36553 76.913 4.37244 76.9088 4.376C76.8845 4.39649 76.8834 4.42723 76.8742 4.45441C76.8508 4.52524 76.8549 4.5983 76.8573 4.67114C76.8609 4.7716 76.8638 4.87228 76.8676 4.97274C76.8769 5.2191 76.8827 5.46546 76.8843 5.71204C76.8847 5.79601 76.8858 5.87976 76.8889 5.96374C76.8912 6.02344 76.905 6.08113 76.9313 6.13526C76.9562 6.18693 76.958 6.23906 76.9353 6.29251C76.9072 6.35889 76.9154 6.42282 76.9524 6.48296C76.9794 6.52684 77.0094 6.56894 77.0382 6.61171C77.0475 6.62574 77.0567 6.64 77.062 6.65581C77.0745 6.6919 77.0607 6.71863 77.0237 6.72865C76.9832 6.73957 76.9415 6.7458 76.8994 6.74647C76.7807 6.74825 76.6617 6.75048 76.543 6.74736C76.5022 6.74625 76.4622 6.73979 76.4232 6.72776C76.3849 6.71596 76.3724 6.68945 76.388 6.65247C76.4036 6.61528 76.4278 6.5832 76.4508 6.55068C76.492 6.49232 76.5223 6.42995 76.5239 6.35644C76.5245 6.32303 76.5187 6.29096 76.504 6.26089C76.4853 6.22257 76.4862 6.18471 76.5074 6.14795C76.5443 6.08425 76.5504 6.01364 76.553 5.94236C76.5608 5.73609 76.5648 5.52961 76.5688 5.32312C76.5722 5.14782 76.5822 4.97252 76.5885 4.79721C76.5922 4.68807 76.5873 4.57915 76.584 4.47C76.584 4.43035 76.5602 4.38758 76.5316 4.36664Z" fill="black"/>
<path d="M79.2703 6.36592C79.2409 6.37349 79.213 6.37372 79.1856 6.37639C79.0571 6.3882 78.9284 6.39666 78.8003 6.41448C78.6341 6.43764 78.4688 6.46616 78.3062 6.50737C78.161 6.54434 78.0207 6.59557 77.8832 6.65571C77.7128 6.73033 77.5469 6.8132 77.3941 6.92011C77.2598 7.01411 77.1413 7.12638 77.0259 7.24198C76.9989 7.26894 76.9726 7.29633 76.9468 7.3244C76.9276 7.34512 76.9272 7.35046 76.9443 7.37274C76.9949 7.438 77.0457 7.50304 77.0969 7.56786C77.1702 7.66053 77.2515 7.74606 77.3319 7.83249C77.3424 7.84385 77.3544 7.85365 77.3653 7.86456C77.3749 7.87414 77.3798 7.87102 77.3838 7.85944C77.4037 7.8042 77.4237 7.74918 77.4435 7.69394C77.4518 7.67077 77.4611 7.64827 77.4745 7.62756C77.5059 7.57855 77.5531 7.56586 77.6028 7.59593C77.6527 7.626 77.6758 7.67099 77.6716 7.72913C77.6698 7.75519 77.6536 7.77346 77.6233 7.77992C77.552 7.79529 77.5197 7.84518 77.5054 7.91045C77.4925 7.9697 77.5054 8.02204 77.5489 8.06726C77.5899 8.10981 77.632 8.15035 77.6821 8.18153C77.7257 8.20871 77.7362 8.20603 77.7589 8.16037C77.7723 8.13364 77.7859 8.10736 77.809 8.08753C77.8672 8.03764 77.9567 8.02694 78.0262 8.10936C78.079 8.17195 78.0926 8.24613 78.0846 8.32543C78.0795 8.37621 78.0603 8.4221 78.0273 8.46063C77.9734 8.52345 77.9022 8.53703 77.8238 8.52902C77.7413 8.52055 77.6727 8.4809 77.6059 8.43568C77.5299 8.38445 77.4529 8.33478 77.3763 8.28466C77.3531 8.26952 77.3524 8.27018 77.3324 8.29001C77.2856 8.33634 77.2437 8.38757 77.192 8.42878C77.1234 8.48335 77.0185 8.47845 76.9624 8.4172C76.904 8.35349 76.9009 8.25682 76.9844 8.1891C76.9985 8.17774 77.0145 8.17752 77.0299 8.18599C77.0571 8.20069 77.0831 8.21739 77.1107 8.2312C77.147 8.24947 77.1836 8.24034 77.2099 8.20937C77.2261 8.18999 77.2286 8.16906 77.2185 8.14634C77.2007 8.10602 77.1702 8.07506 77.1413 8.04298C77.0154 7.90466 76.8893 7.76633 76.7633 7.62823C76.7512 7.61486 76.7396 7.59481 76.7236 7.59348C76.708 7.59236 76.6975 7.61375 76.6851 7.62578C76.575 7.73136 76.4744 7.84541 76.3748 7.96079C76.3369 8.00467 76.2993 8.04922 76.2614 8.0931C76.2487 8.1078 76.238 8.12384 76.2304 8.14188C76.2195 8.16817 76.222 8.19267 76.2414 8.21383C76.2616 8.2361 76.2866 8.24546 76.3164 8.23588C76.3425 8.22764 76.365 8.21205 76.389 8.20002C76.3993 8.1949 76.4098 8.18933 76.4204 8.18509C76.4383 8.17797 76.4552 8.18042 76.4692 8.19334C76.5113 8.23254 76.5265 8.28199 76.518 8.33745C76.5091 8.39537 76.4806 8.44148 76.4222 8.45996C76.3677 8.47712 76.3164 8.46019 76.2679 8.43479C76.2157 8.40762 76.1779 8.36441 76.1422 8.31897C76.1315 8.30515 76.1191 8.29268 76.1093 8.27865C76.1017 8.26796 76.0948 8.26929 76.0852 8.27464C76.0306 8.30426 75.9816 8.34235 75.9304 8.37688C75.8801 8.41074 75.8326 8.4486 75.7787 8.47734C75.7159 8.51075 75.6493 8.52746 75.5778 8.52478C75.4822 8.52144 75.4105 8.46464 75.3771 8.36485C75.3428 8.26261 75.3726 8.15413 75.4546 8.08397C75.5199 8.02806 75.6039 8.03652 75.6573 8.10424C75.6762 8.12807 75.6921 8.15391 75.7083 8.17953C75.7235 8.20314 75.7279 8.20514 75.7515 8.19178C75.8233 8.15124 75.8834 8.09689 75.934 8.03251C75.9509 8.01091 75.9542 7.98507 75.9469 7.95901C75.9366 7.92181 75.9248 7.88483 75.9139 7.84786C75.9048 7.816 75.8847 7.79551 75.8529 7.78615C75.8487 7.78482 75.8444 7.78304 75.8402 7.7817C75.7858 7.76455 75.7718 7.74116 75.7818 7.68458C75.7941 7.61531 75.8611 7.5712 75.9284 7.58746C75.9594 7.59504 75.9792 7.61442 75.9894 7.64382C76.0115 7.70641 76.0331 7.76923 76.0549 7.83204C76.0696 7.87436 76.0785 7.87681 76.1084 7.8434C76.2438 7.69349 76.3746 7.53957 76.4977 7.37942C76.5142 7.35804 76.5136 7.35291 76.4977 7.32975C76.4634 7.27896 76.418 7.23842 76.3746 7.19632C76.2732 7.09764 76.1663 7.00565 76.0534 6.92034C75.9529 6.84416 75.8411 6.78825 75.7286 6.73345C75.601 6.67153 75.4709 6.61473 75.337 6.56773C75.159 6.50514 74.9784 6.45368 74.7911 6.42718C74.6806 6.41136 74.5694 6.40067 74.4585 6.38842C74.3957 6.38129 74.3329 6.37283 74.2703 6.36503C74.2634 6.36414 74.256 6.36325 74.25 6.35478C74.2714 6.34565 74.2937 6.34365 74.3153 6.34253C74.4995 6.33295 74.683 6.31023 74.8679 6.31268C75.0849 6.31558 75.2994 6.33607 75.5105 6.3882C75.6533 6.42339 75.7898 6.47484 75.9222 6.53855C76.0536 6.60181 76.183 6.66841 76.3019 6.75395C76.4037 6.82723 76.4991 6.90831 76.5897 6.99474C76.6267 7.02993 76.6637 7.0649 76.6984 7.1021C76.7127 7.11725 76.7218 7.1148 76.7345 7.10299C76.7773 7.06356 76.8207 7.02525 76.8628 6.98516C77.0412 6.81565 77.2395 6.6742 77.4602 6.56461C77.5974 6.49645 77.74 6.44232 77.8872 6.40022C78.0429 6.35567 78.202 6.33095 78.3635 6.32048C78.5176 6.31023 78.6717 6.31513 78.8259 6.32293C78.9076 6.32716 78.9896 6.33028 79.0714 6.33629C79.1299 6.34053 79.1881 6.34877 79.2464 6.35545C79.254 6.35612 79.262 6.35723 79.2703 6.36592ZM77.8387 8.39737C77.8465 8.39737 77.8543 8.39782 77.8618 8.39737C77.9271 8.39292 77.9645 8.36507 77.9797 8.30983C77.9917 8.26551 77.9697 8.20269 77.9325 8.17618C77.9004 8.15324 77.8598 8.16883 77.8431 8.2116C77.832 8.23989 77.8255 8.26952 77.824 8.30003C77.8222 8.33033 77.8097 8.33968 77.7796 8.33656C77.7674 8.33523 77.7558 8.33077 77.7445 8.32676C77.6732 8.30181 77.6162 8.25682 77.5649 8.20247C77.5366 8.17262 77.5052 8.14545 77.4758 8.11649C77.4654 8.10624 77.46 8.10847 77.4533 8.12028C77.4375 8.1479 77.4391 8.17106 77.4607 8.19467C77.4952 8.23232 77.5322 8.26751 77.5734 8.29736C77.6527 8.35505 77.7389 8.3947 77.8387 8.39737ZM75.4742 8.27865C75.4742 8.35817 75.5092 8.39804 75.5858 8.40049C75.662 8.40294 75.7344 8.38267 75.8005 8.3448C75.8734 8.30315 75.9326 8.24412 75.995 8.18933C76.0119 8.1744 76.0144 8.15391 76.0068 8.1323C75.999 8.11025 75.9968 8.10891 75.9778 8.12139C75.9683 8.12763 75.9589 8.13475 75.9502 8.14255C75.8968 8.18999 75.8431 8.23744 75.7901 8.28555C75.7578 8.31518 75.721 8.33166 75.6769 8.333C75.6415 8.33411 75.6304 8.3252 75.6257 8.29045C75.6223 8.26551 75.6174 8.24078 75.6141 8.21583C75.6103 8.18821 75.5956 8.17062 75.5682 8.16549C75.5395 8.16015 75.5156 8.1695 75.4989 8.19356C75.4807 8.21984 75.4758 8.25036 75.4742 8.27865ZM77.0479 8.26306C77.0317 8.26283 77.0212 8.2713 77.0156 8.286C77.004 8.31607 77.0181 8.35015 77.047 8.36441C77.0996 8.39047 77.1499 8.38223 77.1938 8.34814C77.2508 8.30382 77.2958 8.24902 77.325 8.18131C77.3769 8.06125 77.4304 7.94163 77.4834 7.82224C77.4976 7.79016 77.5186 7.76366 77.5531 7.75096C77.5647 7.74673 77.5723 7.73804 77.5796 7.72913C77.5959 7.70953 77.5921 7.68614 77.5698 7.66632C77.5509 7.64939 77.5297 7.65006 77.5119 7.66944C77.4941 7.68859 77.4829 7.7122 77.4738 7.73626C77.4344 7.83984 77.3952 7.94364 77.3564 8.04744C77.3266 8.1274 77.2856 8.20046 77.2288 8.26439C77.2056 8.29045 77.1769 8.29981 77.1435 8.29179C77.1292 8.28845 77.1156 8.28177 77.1016 8.27709C77.0842 8.27107 77.0671 8.2635 77.0479 8.26306ZM76.3496 8.37554C76.3656 8.37621 76.3988 8.36463 76.4106 8.35416C76.4298 8.33723 76.4376 8.29981 76.426 8.27932C76.4162 8.26217 76.4004 8.26016 76.367 8.27085C76.3456 8.27776 76.324 8.28511 76.3022 8.29045C76.2688 8.29892 76.2396 8.29023 76.216 8.26461C76.1979 8.24501 76.1821 8.22385 76.1712 8.19957C76.1115 8.06682 76.0505 7.9345 75.9995 7.79774C75.983 7.75341 75.9638 7.71064 75.9351 7.67255C75.9253 7.65964 75.913 7.65228 75.8968 7.65585C75.8789 7.65964 75.8669 7.67055 75.8631 7.68904C75.8573 7.71599 75.8674 7.73737 75.8939 7.74873C75.9342 7.76589 75.9614 7.79529 75.9778 7.83516C76.0184 7.93205 76.0594 8.02895 76.0984 8.12651C76.1291 8.20358 76.1679 8.27464 76.2333 8.32832C76.2672 8.35661 76.3053 8.37332 76.3496 8.37554ZM77.311 7.97037C77.311 7.95544 77.3025 7.94163 77.2905 7.92916C77.2261 7.86144 77.1622 7.79328 77.0974 7.72601C77.0733 7.70107 77.051 7.67389 77.0225 7.6534C77.0163 7.64872 77.0085 7.64605 77.0029 7.65072C76.9974 7.6554 77.0054 7.66053 77.0076 7.66543C77.0094 7.66944 77.0121 7.67322 77.0145 7.67701C77.092 7.78638 77.1695 7.89575 77.2471 8.00534C77.254 8.01492 77.262 8.02316 77.2727 8.02828C77.2782 8.03095 77.2843 8.03318 77.288 8.0265C77.2978 8.00935 77.3101 7.99376 77.311 7.97037ZM76.4316 7.65228C76.4278 7.64939 76.4258 7.65162 76.4236 7.65251C76.3984 7.66253 76.3828 7.68347 76.3654 7.7024C76.2953 7.7788 76.2253 7.85543 76.1552 7.93183C76.1462 7.94163 76.1398 7.95255 76.1369 7.96547C76.1322 7.98663 76.1462 8.01291 76.169 8.02138C76.1866 8.02806 76.1886 8.00734 76.1988 8.00088C76.1993 8.00066 76.1997 7.99977 76.1999 7.99932C76.2745 7.90532 76.342 7.8062 76.4044 7.70396C76.4149 7.68748 76.4256 7.67099 76.4316 7.65228Z" fill="black"/>
<path d="M75.3643 16V13.4545H75.9795V14.5309H76.0131L76.8545 13.4545H77.5791L76.6768 14.5906L77.5953 16H76.8595L76.2256 14.9995L75.9795 15.3102V16H75.3643ZM76.8137 18.2177C76.8054 18.1265 76.7685 18.0557 76.703 18.0051C76.6384 17.9538 76.546 17.9281 76.4259 17.9281C76.3463 17.9281 76.28 17.9384 76.227 17.9592C76.174 17.9799 76.1342 18.0085 76.1077 18.0449C76.0812 18.0806 76.0675 18.1216 76.0667 18.168C76.065 18.2061 76.0725 18.2396 76.089 18.2686C76.1064 18.2976 76.1313 18.3233 76.1636 18.3457C76.1968 18.3672 76.2365 18.3863 76.2829 18.4029C76.3293 18.4194 76.3815 18.4339 76.4395 18.4464L76.6583 18.4961C76.7842 18.5234 76.8953 18.5599 76.9914 18.6055C77.0883 18.651 77.1695 18.7053 77.235 18.7683C77.3013 18.8313 77.3514 18.9038 77.3854 18.9858C77.4194 19.0678 77.4368 19.1598 77.4376 19.2617C77.4368 19.4225 77.3962 19.5604 77.3158 19.6756C77.2354 19.7908 77.1198 19.879 76.969 19.9403C76.819 20.0017 76.638 20.0323 76.4259 20.0323C76.2129 20.0323 76.0273 20.0004 75.8691 19.9366C75.7108 19.8728 75.5877 19.7759 75.4999 19.6458C75.4121 19.5157 75.3669 19.3512 75.3644 19.1523H75.9536C75.9585 19.2344 75.9805 19.3027 76.0194 19.3574C76.0584 19.4121 76.1118 19.4535 76.1798 19.4817C76.2486 19.5099 76.3281 19.524 76.4184 19.524C76.5013 19.524 76.5717 19.5128 76.6297 19.4904C76.6885 19.468 76.7337 19.437 76.7652 19.3972C76.7967 19.3574 76.8128 19.3118 76.8137 19.2605C76.8128 19.2124 76.7979 19.1714 76.7689 19.1374C76.7399 19.1026 76.6952 19.0728 76.6347 19.0479C76.575 19.0223 76.4988 18.9986 76.406 18.9771L76.14 18.915C75.9196 18.8644 75.746 18.7828 75.6192 18.6701C75.4925 18.5566 75.4295 18.4033 75.4303 18.2102C75.4295 18.0528 75.4717 17.9148 75.5571 17.7963C75.6424 17.6779 75.7605 17.5855 75.9113 17.5192C76.0621 17.4529 76.234 17.4197 76.4271 17.4197C76.6243 17.4197 76.7954 17.4533 76.9404 17.5204C77.0863 17.5867 77.1994 17.6799 77.2797 17.8001C77.3601 17.9202 77.4011 18.0594 77.4028 18.2177H76.8137ZM75.7935 24H75.1323L75.9912 21.4545H76.8102L77.6691 24H77.0079L76.41 22.0959H76.3901L75.7935 24ZM75.7053 22.9982H77.0874V23.4656H75.7053V22.9982Z" fill="black"/>
<path d="M74.3624 10.0075C74.2974 10.0075 74.2409 9.999 74.1929 9.982C74.1459 9.964 74.1089 9.935 74.0819 9.895C74.0549 9.855 74.0399 9.8005 74.0369 9.7315L74.0099 9.1585H74.1884L74.2124 9.676C74.2154 9.719 74.2229 9.752 74.2349 9.775C74.2479 9.797 74.2659 9.812 74.2889 9.82C74.3119 9.827 74.3414 9.8305 74.3774 9.8305C74.4084 9.8305 74.4304 9.839 74.4434 9.856C74.4574 9.872 74.4644 9.892 74.4644 9.916C74.4644 9.941 74.4554 9.9625 74.4374 9.9805C74.4194 9.9985 74.3944 10.0075 74.3624 10.0075ZM74.1059 9.859C74.0419 9.875 73.9804 9.8825 73.9214 9.8815C73.8624 9.8805 73.8094 9.8705 73.7624 9.8515C73.7154 9.8325 73.6779 9.8055 73.6499 9.7705C73.6229 9.7345 73.6094 9.6895 73.6094 9.6355C73.6094 9.5865 73.6209 9.5415 73.6439 9.5005C73.6669 9.4595 73.6984 9.4235 73.7384 9.3925C73.7794 9.3605 73.8269 9.334 73.8809 9.313C73.9349 9.291 73.9934 9.275 74.0564 9.265L74.0774 9.445C74.0314 9.447 73.9904 9.453 73.9544 9.463C73.9184 9.473 73.8879 9.4865 73.8629 9.5035C73.8379 9.5195 73.8184 9.537 73.8044 9.556C73.7914 9.575 73.7849 9.595 73.7849 9.616C73.7849 9.635 73.7914 9.6505 73.8044 9.6625C73.8184 9.6745 73.8364 9.684 73.8584 9.691C73.8804 9.698 73.9049 9.702 73.9319 9.703C73.9599 9.704 73.9874 9.703 74.0144 9.7C74.0424 9.696 74.0689 9.6895 74.0939 9.6805L74.1059 9.859ZM74.0954 8.998C74.0694 8.998 74.0474 8.989 74.0294 8.971C74.0114 8.952 74.0024 8.93 74.0024 8.905C74.0024 8.88 74.0114 8.858 74.0294 8.839C74.0474 8.82 74.0694 8.8105 74.0954 8.8105C74.1204 8.8105 74.1419 8.82 74.1599 8.839C74.1779 8.858 74.1869 8.88 74.1869 8.905C74.1869 8.93 74.1779 8.952 74.1599 8.971C74.1419 8.989 74.1204 8.998 74.0954 8.998ZM73.8569 8.9965C73.8309 8.9965 73.8084 8.9875 73.7894 8.9695C73.7714 8.9515 73.7624 8.93 73.7624 8.905C73.7624 8.88 73.7714 8.858 73.7894 8.839C73.8074 8.82 73.8299 8.8105 73.8569 8.8105C73.8819 8.8105 73.9034 8.82 73.9214 8.839C73.9394 8.858 73.9484 8.88 73.9484 8.905C73.9484 8.93 73.9394 8.9515 73.9214 8.9695C73.9034 8.9875 73.8819 8.9965 73.8569 8.9965ZM74.3628 10.0075L74.3778 9.8305C74.4378 9.8305 74.4838 9.828 74.5158 9.823C74.5478 9.817 74.5703 9.8055 74.5833 9.7885C74.5973 9.7705 74.6043 9.7445 74.6043 9.7105C74.6043 9.6835 74.6003 9.6515 74.5923 9.6145C74.5843 9.5775 74.5743 9.5385 74.5623 9.4975C74.5503 9.4565 74.5373 9.418 74.5233 9.382L74.6988 9.3295C74.7118 9.3625 74.7238 9.401 74.7348 9.445C74.7468 9.488 74.7568 9.532 74.7648 9.577C74.7728 9.621 74.7768 9.6625 74.7768 9.7015C74.7768 9.7625 74.7673 9.813 74.7483 9.853C74.7303 9.893 74.7033 9.9245 74.6673 9.9475C74.6323 9.9695 74.5888 9.985 74.5368 9.994C74.4858 10.003 74.4278 10.0075 74.3628 10.0075ZM74.6988 10.3315C74.6728 10.3315 74.6503 10.322 74.6313 10.303C74.6133 10.285 74.6043 10.2635 74.6043 10.2385C74.6043 10.2135 74.6133 10.1915 74.6313 10.1725C74.6493 10.1535 74.6718 10.144 74.6988 10.144C74.7238 10.144 74.7448 10.1535 74.7618 10.1725C74.7798 10.1915 74.7888 10.2135 74.7888 10.2385C74.7888 10.2635 74.7798 10.285 74.7618 10.303C74.7438 10.322 74.7228 10.3315 74.6988 10.3315ZM74.4588 10.3315C74.4328 10.3315 74.4108 10.322 74.3928 10.303C74.3748 10.285 74.3658 10.2635 74.3658 10.2385C74.3658 10.2135 74.3748 10.1915 74.3928 10.1725C74.4108 10.1535 74.4328 10.144 74.4588 10.144C74.4838 10.144 74.5053 10.1535 74.5233 10.1725C74.5413 10.1915 74.5503 10.2135 74.5503 10.2385C74.5503 10.2635 74.5413 10.285 74.5233 10.303C74.5053 10.322 74.4838 10.3315 74.4588 10.3315ZM74.9192 9.937L74.9882 9.7795C75.0182 9.7945 75.0507 9.807 75.0857 9.817C75.1207 9.826 75.1577 9.8305 75.1967 9.8305C75.2377 9.8305 75.2707 9.8265 75.2957 9.8185C75.3217 9.8105 75.3407 9.799 75.3527 9.784C75.3657 9.768 75.3722 9.7495 75.3722 9.7285C75.3722 9.7105 75.3672 9.687 75.3572 9.658C75.3482 9.628 75.3297 9.5885 75.3017 9.5395C75.2747 9.4895 75.2342 9.4265 75.1802 9.3505L75.3302 9.2515C75.3802 9.3215 75.4217 9.388 75.4547 9.451C75.4887 9.513 75.5142 9.57 75.5312 9.622C75.5492 9.673 75.5582 9.7175 75.5582 9.7555C75.5582 9.8025 75.5457 9.845 75.5207 9.883C75.4957 9.921 75.4577 9.9515 75.4067 9.9745C75.3557 9.9975 75.2902 10.009 75.2102 10.009C75.1792 10.009 75.1462 10.006 75.1112 10C75.0762 9.995 75.0417 9.9875 75.0077 9.9775C74.9747 9.9665 74.9452 9.953 74.9192 9.937ZM75.7051 10.345L75.6691 10.168C75.7351 10.159 75.7941 10.148 75.8461 10.135C75.8981 10.122 75.9421 10.1035 75.9781 10.0795C76.0151 10.0555 76.0426 10.0235 76.0606 9.9835C76.0796 9.9425 76.0891 9.8905 76.0891 9.8275C76.0891 9.7655 76.0786 9.715 76.0576 9.676C76.0376 9.637 76.0106 9.6175 75.9766 9.6175C75.9556 9.6175 75.9371 9.625 75.9211 9.64C75.9061 9.655 75.8946 9.674 75.8866 9.697C75.8786 9.719 75.8746 9.7405 75.8746 9.7615C75.8746 9.7745 75.8776 9.7865 75.8836 9.7975C75.8896 9.8075 75.9006 9.816 75.9166 9.823C75.9336 9.829 75.9576 9.833 75.9886 9.835C76.0206 9.837 76.0626 9.8355 76.1146 9.8305H76.3906C76.4216 9.8305 76.4441 9.839 76.4581 9.856C76.4721 9.872 76.4791 9.892 76.4791 9.916C76.4791 9.941 76.4696 9.9625 76.4506 9.9805C76.4326 9.9985 76.4076 10.0075 76.3756 10.0075H75.9826C75.9266 10.0075 75.8771 10.0005 75.8341 9.9865C75.7921 9.9725 75.7591 9.95 75.7351 9.919C75.7111 9.887 75.6991 9.845 75.6991 9.793C75.6991 9.749 75.7066 9.706 75.7216 9.664C75.7366 9.621 75.7566 9.582 75.7816 9.547C75.8076 9.512 75.8381 9.4845 75.8731 9.4645C75.9081 9.4435 75.9461 9.433 75.9871 9.433C76.0421 9.433 76.0901 9.4495 76.1311 9.4825C76.1731 9.5155 76.2061 9.5615 76.2301 9.6205C76.2541 9.6785 76.2661 9.746 76.2661 9.823C76.2661 9.928 76.2441 10.0175 76.2001 10.0915C76.1561 10.1665 76.0921 10.225 76.0081 10.267C75.9241 10.31 75.8231 10.336 75.7051 10.345ZM76.3725 10.0075L76.3875 9.8305C76.4535 9.8305 76.5135 9.8255 76.5675 9.8155C76.6225 9.8045 76.6715 9.7905 76.7145 9.7735C76.7585 9.7565 76.7955 9.7365 76.8255 9.7135C76.8555 9.6905 76.878 9.6665 76.893 9.6415C76.909 9.6165 76.917 9.592 76.917 9.568C76.917 9.555 76.913 9.5425 76.905 9.5305C76.898 9.5175 76.8855 9.507 76.8675 9.499C76.8505 9.491 76.827 9.487 76.797 9.487C76.781 9.487 76.762 9.489 76.74 9.493C76.719 9.497 76.698 9.503 76.677 9.511C76.657 9.518 76.639 9.527 76.623 9.538C76.647 9.556 76.671 9.5765 76.695 9.5995C76.719 9.6225 76.7435 9.647 76.7685 9.673C76.7935 9.699 76.8175 9.7255 76.8405 9.7525C76.8615 9.7645 76.8855 9.7755 76.9125 9.7855C76.9395 9.7955 76.9685 9.804 76.9995 9.811C77.0305 9.817 77.063 9.822 77.097 9.826C77.131 9.829 77.1655 9.8305 77.2005 9.8305C77.2315 9.8305 77.254 9.839 77.268 9.856C77.282 9.872 77.289 9.892 77.289 9.916C77.289 9.941 77.2795 9.9625 77.2605 9.9805C77.2425 9.9985 77.2175 10.0075 77.1855 10.0075C77.1145 10.0075 77.049 10.002 76.989 9.991C76.929 9.979 76.874 9.9615 76.824 9.9385C76.775 9.9145 76.731 9.8855 76.692 9.8515C76.678 9.8295 76.6605 9.807 76.6395 9.784C76.6185 9.76 76.596 9.7365 76.572 9.7135C76.548 9.6905 76.5245 9.671 76.5015 9.655C76.4965 9.65 76.4905 9.64 76.4835 9.625C76.4775 9.609 76.472 9.5925 76.467 9.5755C76.463 9.5575 76.461 9.5445 76.461 9.5365C76.461 9.5165 76.471 9.4945 76.491 9.4705C76.512 9.4465 76.54 9.424 76.575 9.403C76.61 9.381 76.649 9.363 76.692 9.349C76.735 9.335 76.779 9.328 76.824 9.328C76.885 9.328 76.935 9.337 76.974 9.355C77.013 9.373 77.042 9.3975 77.061 9.4285C77.081 9.4585 77.091 9.4925 77.091 9.5305C77.091 9.5765 77.08 9.6225 77.058 9.6685C77.037 9.7145 77.006 9.758 76.965 9.799C76.925 9.839 76.8755 9.875 76.8165 9.907C76.7585 9.938 76.692 9.9625 76.617 9.9805C76.542 9.9985 76.4605 10.0075 76.3725 10.0075ZM77.1855 10.0075L77.2005 9.8305C77.2335 9.8305 77.26 9.828 77.28 9.823C77.301 9.818 77.318 9.806 77.331 9.787C77.345 9.767 77.3575 9.7375 77.3685 9.6985C77.3795 9.6585 77.392 9.6035 77.406 9.5335L77.5695 9.568C77.5655 9.591 77.56 9.6195 77.553 9.6535C77.546 9.6875 77.5425 9.7175 77.5425 9.7435C77.5425 9.7615 77.546 9.777 77.553 9.79C77.561 9.803 77.5745 9.813 77.5935 9.82C77.6125 9.827 77.6385 9.8305 77.6715 9.8305C77.6985 9.8305 77.7215 9.828 77.7405 9.823C77.7595 9.817 77.7755 9.8045 77.7885 9.7855C77.8015 9.7665 77.813 9.736 77.823 9.694C77.833 9.652 77.8435 9.595 77.8545 9.523L78.021 9.5515C78.017 9.5725 78.013 9.596 78.009 9.622C78.005 9.648 78.0015 9.673 77.9985 9.697C77.9955 9.72 77.994 9.739 77.994 9.754C77.994 9.767 77.9975 9.7795 78.0045 9.7915C78.0115 9.8035 78.025 9.813 78.045 9.82C78.065 9.827 78.094 9.8305 78.132 9.8305C78.179 9.8305 78.2135 9.8205 78.2355 9.8005C78.2575 9.7805 78.2685 9.75 78.2685 9.709C78.2685 9.686 78.268 9.6615 78.267 9.6355C78.266 9.6085 78.264 9.579 78.261 9.547C78.259 9.514 78.255 9.4765 78.249 9.4345L78.411 9.4225C78.417 9.5065 78.424 9.575 78.432 9.628C78.441 9.681 78.453 9.7225 78.468 9.7525C78.484 9.7815 78.5045 9.802 78.5295 9.814C78.5555 9.825 78.59 9.8305 78.633 9.8305C78.664 9.8305 78.6865 9.839 78.7005 9.856C78.7145 9.872 78.7215 9.892 78.7215 9.916C78.7215 9.941 78.7125 9.9625 78.6945 9.9805C78.6765 9.9985 78.651 10.0075 78.618 10.0075C78.588 10.0075 78.559 10.0045 78.531 9.9985C78.503 9.9915 78.477 9.981 78.453 9.967C78.429 9.952 78.408 9.9325 78.39 9.9085C78.372 9.8835 78.3585 9.8535 78.3495 9.8185L78.3765 9.8275C78.3635 9.8755 78.345 9.9125 78.321 9.9385C78.297 9.9645 78.268 9.9825 78.234 9.9925C78.2 10.0025 78.161 10.0075 78.117 10.0075C78.073 10.0075 78.0345 10.002 78.0015 9.991C77.9695 9.979 77.944 9.9605 77.925 9.9355C77.907 9.9095 77.8965 9.875 77.8935 9.832H77.9445C77.9255 9.883 77.9035 9.921 77.8785 9.946C77.8545 9.971 77.825 9.9875 77.79 9.9955C77.756 10.0035 77.712 10.0075 77.658 10.0075C77.627 10.0075 77.596 10.004 77.565 9.997C77.534 9.989 77.506 9.972 77.481 9.946C77.457 9.92 77.4405 9.8795 77.4315 9.8245L77.499 9.8185C77.48 9.8745 77.4555 9.916 77.4255 9.943C77.3955 9.969 77.3605 9.9865 77.3205 9.9955C77.2805 10.0035 77.2355 10.0075 77.1855 10.0075ZM78.6182 10.0075L78.6332 9.8305C78.6832 9.8305 78.7187 9.8255 78.7397 9.8155C78.7607 9.8055 78.7732 9.787 78.7772 9.76C78.7812 9.733 78.7822 9.694 78.7802 9.643L78.7517 8.9125H78.9302L78.9602 9.6475C78.9622 9.7035 78.9597 9.754 78.9527 9.799C78.9467 9.843 78.9322 9.8805 78.9092 9.9115C78.8862 9.9425 78.8512 9.9665 78.8042 9.9835C78.7582 9.9995 78.6962 10.0075 78.6182 10.0075ZM79.1705 10L79.139 8.9125H79.316L79.346 10H79.1705Z" fill="black"/>
<path d="M37.7681 9.91052C37.7639 9.92357 37.7594 9.93577 37.7565 9.94854C37.754 9.95932 37.7486 9.96726 37.7375 9.96386C37.6932 9.95081 37.6984 9.97974 37.7026 10.0053C37.7142 10.0776 37.7009 10.1474 37.6839 10.2175C37.6802 10.2328 37.6751 10.2433 37.6581 10.241C37.6303 10.2373 37.6308 10.2515 37.6359 10.2717C37.6433 10.3003 37.6501 10.3293 37.6549 10.3585C37.6586 10.3817 37.6569 10.4044 37.6342 10.42C37.6209 10.4294 37.6192 10.4442 37.6181 10.4595C37.6164 10.4842 37.6254 10.5071 37.628 10.5369C37.594 10.5193 37.5835 10.4884 37.567 10.4626C37.5602 10.4518 37.5559 10.4317 37.5412 10.4374C37.5267 10.443 37.5352 10.4609 37.5389 10.4734C37.5585 10.5406 37.5778 10.6081 37.5979 10.6754C37.607 10.7052 37.6067 10.7318 37.5769 10.7497C37.5565 10.7619 37.5642 10.7798 37.5667 10.7968C37.5908 10.9531 37.6152 11.1092 37.6101 11.268C37.6096 11.2876 37.6192 11.3171 37.6013 11.3245C37.5772 11.3347 37.5571 11.3106 37.5415 11.2924C37.4493 11.1852 37.3769 11.0652 37.3225 10.935C37.1976 10.6354 37.1565 10.3227 37.1744 9.99989C37.1829 9.84726 37.2175 9.69775 37.2283 9.54568C37.2308 9.50795 37.2354 9.4705 37.232 9.43249C37.2308 9.41944 37.2305 9.4027 37.2144 9.40015C37.2007 9.39816 37.1888 9.40724 37.18 9.4183C37.1647 9.43759 37.1656 9.46114 37.161 9.48355C37.1565 9.50568 37.1556 9.53661 37.1213 9.50568C37.1131 9.49831 37.1034 9.49717 37.0961 9.5054C37.0745 9.52866 37.0507 9.52412 37.0209 9.50653C37.0209 9.56242 37.0212 9.6115 37.0206 9.66058C37.0206 9.66938 37.0254 9.68243 37.0138 9.68555C36.9988 9.68952 36.999 9.67392 36.9951 9.66484C36.9925 9.6586 36.9919 9.6515 36.9894 9.64526C36.9846 9.63335 36.9874 9.6115 36.9724 9.61264C36.9534 9.61406 36.9531 9.63647 36.9525 9.6515C36.9514 9.69349 36.9576 9.73491 36.9661 9.77605C36.9698 9.7942 36.9709 9.81293 36.9735 9.83392C36.9375 9.82938 36.9273 9.8047 36.9173 9.77945C36.9083 9.75647 36.9068 9.72867 36.8776 9.71562C36.8592 9.76725 36.8717 9.81889 36.8668 9.8691C36.8654 9.88527 36.8745 9.91222 36.8561 9.91563C36.8342 9.91932 36.8322 9.8918 36.8251 9.87478C36.8178 9.8569 36.8172 9.82541 36.7945 9.8291C36.7758 9.83222 36.78 9.86258 36.7795 9.88187C36.7783 9.92584 36.7951 9.96641 36.8053 10.0084C36.8104 10.0291 36.8149 10.0501 36.8212 10.0773C36.8056 10.0714 36.7948 10.0683 36.7848 10.0637C36.7502 10.0481 36.7395 10.0535 36.7465 10.091C36.7565 10.1437 36.7721 10.1956 36.7874 10.2473C36.7934 10.2677 36.7968 10.2813 36.7684 10.2813C36.7409 10.2813 36.7403 10.3017 36.7414 10.3213C36.7434 10.3542 36.7602 10.3832 36.7692 10.4141C36.7843 10.4649 36.7905 10.5142 36.7627 10.5627C36.7545 10.5772 36.7534 10.594 36.7551 10.6101C36.757 10.6294 36.7508 10.6419 36.7309 10.645C36.7068 10.649 36.7105 10.6654 36.7136 10.6819C36.7187 10.7091 36.7281 10.7358 36.7264 10.7645C36.7088 10.7662 36.7034 10.754 36.6983 10.7437C36.6197 10.5886 36.5309 10.4385 36.4631 10.2779C36.3417 9.99081 36.3763 9.71647 36.5326 9.45263C36.5794 9.37348 36.6336 9.29943 36.6875 9.22539C36.7267 9.17148 36.7627 9.11645 36.7707 9.04808C36.7738 9.02027 36.7755 8.99275 36.7613 8.96694C36.7454 8.97148 36.742 8.98481 36.7363 8.99446C36.7219 9.01885 36.7068 9.03134 36.6807 9.00864C36.6611 8.99162 36.6535 9.00382 36.6495 9.02311C36.6464 9.03758 36.6407 9.05176 36.6396 9.06652C36.6376 9.09489 36.624 9.1085 36.5956 9.10538C36.5752 9.10311 36.5675 9.11446 36.561 9.13148C36.5443 9.17687 36.5261 9.2217 36.506 9.27333C36.4921 9.2444 36.4807 9.22085 36.468 9.19418C36.4251 9.24525 36.4277 9.31305 36.3914 9.36724C36.3775 9.34993 36.3653 9.33461 36.3502 9.31589C36.3363 9.35277 36.3216 9.38596 36.3113 9.42029C36.3037 9.44639 36.2906 9.45291 36.2674 9.44242C36.2461 9.43277 36.239 9.44213 36.2353 9.46228C36.224 9.52412 36.2109 9.5854 36.1979 9.6498C36.1735 9.63448 36.1706 9.6064 36.1488 9.59136C36.1267 9.61973 36.1264 9.65292 36.1278 9.68385C36.1315 9.75789 36.0974 9.81974 36.0688 9.88357C36.0662 9.88924 36.0597 9.89861 36.0566 9.89804C36.0098 9.88924 36.0191 9.92641 36.0172 9.9491C36.0084 10.0444 35.9922 10.1395 36.0069 10.2356C36.0112 10.2643 36.005 10.2915 35.9891 10.3171C35.974 10.3412 35.9627 10.3369 35.9553 10.3139C35.9417 10.2717 35.9292 10.2288 35.9176 10.186C35.8727 10.0186 35.8424 9.84839 35.8418 9.67477C35.841 9.40071 35.9383 9.1678 36.1397 8.97772C36.3366 8.79189 36.555 8.64295 36.8149 8.55983C36.8816 8.53855 36.9508 8.52465 37.0149 8.496C37.0246 8.49174 37.0399 8.48919 37.0388 8.47756C37.0376 8.46564 37.0234 8.45656 37.0115 8.45713C36.9324 8.46138 36.8498 8.43699 36.7758 8.48805C36.7397 8.51302 36.7003 8.52181 36.66 8.48947C36.6407 8.47387 36.5392 8.496 36.5207 8.51614C36.5082 8.52976 36.496 8.54394 36.4847 8.55699C36.4685 8.55274 36.4736 8.54082 36.4699 8.53316C36.4645 8.52153 36.4699 8.50252 36.4555 8.49798C36.4382 8.49259 36.4245 8.50706 36.4138 8.51812C36.4007 8.53146 36.3905 8.54763 36.3797 8.56323C36.3644 8.58508 36.3479 8.59926 36.3199 8.58196C36.2949 8.56664 36.283 8.58763 36.2711 8.60323C36.2574 8.62139 36.2447 8.62905 36.2265 8.60834C36.2129 8.59245 36.2035 8.59557 36.1956 8.61543C36.1837 8.64551 36.1681 8.67388 36.1562 8.70395C36.1482 8.72381 36.1386 8.72976 36.1207 8.71615C36.1008 8.70111 36.0867 8.70707 36.075 8.72749C36.0642 8.74594 36.0495 8.76211 36.0421 8.7831C36.0296 8.81828 36.0069 8.84608 35.978 8.86963C35.9519 8.89091 35.9264 8.91303 35.9079 8.94197C35.904 8.9485 35.8963 8.95758 35.8906 8.95729C35.8421 8.95417 35.8441 8.99162 35.837 9.02169C35.8299 9.05176 35.8225 9.08212 35.8163 9.11248C35.8103 9.14226 35.8038 9.1695 35.7692 9.18141C35.7482 9.18851 35.7491 9.21177 35.7493 9.23078C35.7502 9.2617 35.7431 9.29745 35.7119 9.29745C35.6773 9.29745 35.6767 9.25631 35.6781 9.22964C35.7003 8.84211 35.8586 8.52862 36.186 8.30989C36.4112 8.15953 36.6637 8.08832 36.9312 8.0625C37.0266 8.05343 37.1216 8.04151 37.2149 8.01768C37.247 8.00945 37.2759 7.99725 37.2955 7.96066C37.1681 7.95214 37.0464 7.90704 36.9207 7.94732C36.9051 7.95243 36.8881 7.96037 36.8736 7.95101C36.8285 7.92207 36.7925 7.94307 36.7556 7.96803C36.7448 7.97541 36.7298 7.99129 36.7185 7.97002C36.7034 7.94165 36.6841 7.94562 36.662 7.9581C36.5834 8.00264 36.4935 8.02108 36.4092 8.03924C36.2918 8.06421 36.2157 8.1496 36.115 8.19584C36.1023 8.2018 36.0895 8.22223 36.077 8.21003C36.062 8.19556 36.083 8.18109 36.0906 8.16946C36.2152 7.98307 36.3749 7.83214 36.5573 7.70306C36.763 7.55752 36.9917 7.50532 37.2402 7.52858C37.361 7.53993 37.4822 7.55241 37.603 7.56263C37.6254 7.56461 37.6606 7.57482 37.6674 7.55014C37.6725 7.53227 37.6379 7.51922 37.6167 7.51241C37.5582 7.4934 37.5128 7.44886 37.4547 7.43071C37.3968 7.41255 37.34 7.39241 37.2867 7.36318C37.2473 7.34162 37.1934 7.35666 37.161 7.31524C37.1593 7.31297 37.1508 7.31496 37.146 7.31694C37.0541 7.35467 36.9556 7.3646 36.8597 7.38531C36.8331 7.39099 36.8104 7.40574 36.7806 7.41879C36.7848 7.3751 36.8092 7.34872 36.8362 7.32602C36.929 7.24885 37.041 7.21339 37.1556 7.18701C37.3798 7.13594 37.5866 7.18077 37.7784 7.30418C37.8476 7.34872 37.9182 7.3907 37.9974 7.4168C38.0215 7.42475 38.0277 7.42248 38.028 7.39666C38.0297 7.29254 38.0402 7.18928 38.0541 7.08601C38.0578 7.05878 38.0669 7.04686 38.0938 7.04941C38.1245 7.05225 38.1338 7.04005 38.1364 7.00828C38.1421 6.93196 38.1307 6.85394 38.1562 6.77933C38.1599 6.76827 38.1574 6.75181 38.1724 6.75011C38.19 6.74841 38.1909 6.76685 38.1962 6.7782C38.2192 6.82614 38.2099 6.87919 38.2181 6.92941C38.2221 6.95324 38.2209 6.97792 38.2235 7.00204C38.2258 7.02501 38.2289 7.04658 38.2544 7.05878C38.2731 7.06785 38.2757 7.08885 38.276 7.10814C38.2765 7.13254 38.2765 7.15665 38.2771 7.18105C38.2782 7.21509 38.2833 7.24658 38.3072 7.27495C38.3324 7.30531 38.3344 7.34418 38.333 7.38276C38.3307 7.44858 38.335 7.45368 38.3951 7.42758C38.478 7.39155 38.5571 7.3473 38.6337 7.29935C38.7912 7.20119 38.96 7.16034 39.1444 7.19296C39.263 7.21396 39.3702 7.26361 39.4737 7.3229C39.5047 7.34049 39.5276 7.36772 39.5421 7.40092C39.5543 7.42844 39.5455 7.44177 39.5154 7.43865C39.5024 7.43723 39.4896 7.43127 39.4769 7.42702C39.3875 7.39808 39.2939 7.36659 39.2037 7.39553C39.1342 7.41794 39.0678 7.43099 38.9954 7.43297C38.9367 7.43468 38.8919 7.47978 38.836 7.5073C38.8998 7.55638 38.9693 7.55723 39.0391 7.55383C39.1254 7.54929 39.2113 7.53936 39.2976 7.53738C39.4902 7.53284 39.6621 7.59326 39.8088 7.71753C39.924 7.81512 40.0358 7.91725 40.141 8.02591C40.1861 8.07272 40.221 8.12719 40.2497 8.1913C40.221 8.1862 40.2009 8.17116 40.1802 8.15896C40.1149 8.12066 40.0471 8.09116 39.9731 8.07016C39.9067 8.05144 39.8426 8.01938 39.7821 7.98364C39.7611 7.97115 39.739 7.96094 39.7152 7.95555C39.6814 7.94817 39.6485 7.9442 39.6298 7.98364C39.6221 7.99981 39.6111 7.99924 39.5974 7.98874C39.5824 7.97711 39.5657 7.96803 39.5506 7.95697C39.5308 7.94222 39.5132 7.93115 39.4967 7.96236C39.4862 7.98222 39.4698 7.96945 39.4581 7.96236C39.4176 7.93768 39.3784 7.9164 39.3319 7.95214C39.3225 7.95924 39.303 7.95413 39.2882 7.95328C39.2428 7.95073 39.1991 7.95498 39.1608 7.98307C39.15 7.99101 39.139 7.99328 39.1265 7.98846C39.1228 7.98704 39.1188 7.98562 39.1149 7.98505C39.0925 7.9825 39.0451 8.01569 39.049 8.03442C39.0536 8.05655 39.0786 8.05541 39.095 8.0574C39.1742 8.06648 39.2536 8.07272 39.3327 8.08009C39.4928 8.09485 39.653 8.10704 39.8082 8.15244C40.1941 8.26478 40.4712 8.49827 40.6088 8.88211C40.6616 9.02963 40.6735 9.18368 40.6582 9.34653C40.6307 9.32099 40.6196 9.29206 40.6049 9.26624C40.5461 9.16297 40.4885 9.05942 40.4307 8.95559C40.4131 8.9241 40.3944 8.89459 40.3535 8.89232C40.3382 8.89147 40.3385 8.88013 40.3362 8.86963C40.3163 8.77487 40.2497 8.71728 40.1759 8.66451C40.1725 8.66224 40.1688 8.66054 40.1651 8.65884C40.1399 8.64778 40.1075 8.65657 40.0868 8.63104C40.0698 8.61033 40.0519 8.59047 40.0341 8.56976C40.0045 8.61231 40.0045 8.61231 39.9716 8.5726C39.9665 8.56635 39.9611 8.56011 39.956 8.55387C39.9209 8.51103 39.92 8.51047 39.8862 8.55671C39.8763 8.57004 39.8701 8.57316 39.8593 8.55983C39.8508 8.54933 39.8417 8.5394 39.8338 8.52834C39.8176 8.50621 39.8062 8.48777 39.7711 8.50961C39.7452 8.52578 39.7064 8.50734 39.6749 8.52891C39.6638 8.53657 39.6457 8.50933 39.6295 8.50025C39.623 8.49656 39.6173 8.48663 39.6088 8.49174C39.6011 8.49628 39.6023 8.50593 39.6025 8.51359C39.604 8.55245 39.6261 8.57912 39.6562 8.59926C39.7694 8.67529 39.8823 8.75133 39.9966 8.82565C40.1461 8.92296 40.2823 9.03332 40.3719 9.19248C40.4729 9.37149 40.5007 9.56554 40.4962 9.76669C40.4917 9.97123 40.4429 10.167 40.3802 10.3602C40.3708 10.3886 40.3626 10.3834 40.3467 10.367C40.3141 10.3335 40.3152 10.2944 40.3254 10.2535C40.3297 10.2365 40.3362 10.22 40.3436 10.2042C40.3543 10.1812 40.3492 10.1644 40.326 10.1554C40.3007 10.1454 40.2976 10.1264 40.2996 10.1029C40.3019 10.0759 40.3019 10.049 40.3039 10.022C40.3058 9.99648 40.3084 9.97294 40.2695 9.97946C40.2545 9.98201 40.2536 9.96868 40.2536 9.95733C40.2536 9.91733 40.242 9.88073 40.2273 9.84385C40.2111 9.803 40.227 9.75846 40.2179 9.7159C40.2125 9.69122 40.2114 9.66541 40.2085 9.64044C40.2031 9.64044 40.2 9.63959 40.1977 9.64044C40.1424 9.66711 40.1424 9.66739 40.137 9.60526C40.1353 9.58654 40.1319 9.56753 40.1319 9.5488C40.1322 9.51022 40.1251 9.4827 40.076 9.49774C40.0567 9.5037 40.0553 9.48753 40.0522 9.47391C40.0409 9.42341 40.0284 9.37291 40.0148 9.31532C39.9949 9.34426 39.9796 9.36667 39.96 9.39532C39.9387 9.33092 39.9197 9.27305 39.8996 9.21177C39.8899 9.22028 39.8837 9.22482 39.8783 9.23021C39.8338 9.27362 39.8338 9.27362 39.8094 9.21404C39.8011 9.19418 39.7921 9.17432 39.7855 9.1539C39.777 9.12666 39.7665 9.10794 39.7322 9.10453C39.701 9.10141 39.6896 9.06935 39.6786 9.04354C39.6695 9.02283 39.6607 9.01119 39.634 9.01517C39.5952 9.02112 39.5679 8.99956 39.5467 8.96807C39.5345 8.9502 39.5211 8.91786 39.4984 8.93006C39.474 8.94311 39.4851 8.97488 39.4939 9.00041C39.5155 9.0634 39.5614 9.11049 39.5994 9.16241C39.6769 9.26794 39.7645 9.3661 39.8304 9.47987C39.9662 9.71534 39.9853 9.96471 39.9132 10.2232C39.861 10.4101 39.7705 10.5778 39.655 10.733C39.6386 10.7551 39.6224 10.7786 39.5898 10.792C39.592 10.769 39.5923 10.7506 39.5957 10.7327C39.6011 10.704 39.6113 10.6748 39.5634 10.6762C39.5495 10.6765 39.5515 10.6654 39.5549 10.6552C39.5614 10.6348 39.5674 10.6141 39.573 10.5931C39.5779 10.5761 39.5841 10.5545 39.5733 10.5418C39.5387 10.4998 39.5589 10.4609 39.5742 10.4209C39.5855 10.3905 39.5957 10.3599 39.6077 10.3295C39.6173 10.3049 39.6099 10.2964 39.585 10.3026C39.5557 10.3097 39.5506 10.3 39.5574 10.2717C39.5733 10.2053 39.5855 10.138 39.5994 10.0717C39.5739 10.0623 39.5532 10.1029 39.5376 10.0799C39.5274 10.0649 39.5376 10.0356 39.539 10.0129C39.5407 9.9874 39.5424 9.96215 39.5444 9.93378C39.5172 9.94003 39.5101 9.96783 39.482 9.98258C39.482 9.90116 39.482 9.82541 39.482 9.74654C39.4454 9.75505 39.4448 9.78342 39.4332 9.80272C39.4292 9.80924 39.4281 9.82002 39.4184 9.8203C39.4065 9.82087 39.404 9.80924 39.4014 9.80101C39.3926 9.77236 39.3949 9.74229 39.3926 9.71278C39.3895 9.6708 39.3849 9.66711 39.3509 9.68782C39.3299 9.70058 39.3288 9.6898 39.3268 9.6742C39.3234 9.64611 39.3194 9.61803 39.3163 9.58966C39.314 9.57065 39.3095 9.55618 39.2868 9.57093C39.2627 9.58654 39.2542 9.57235 39.2465 9.55221C39.2286 9.50597 39.1983 9.47164 39.15 9.45462C39.1256 9.44611 39.1129 9.44724 39.1174 9.48015C39.1336 9.59647 39.1506 9.71278 39.1617 9.82967C39.1926 10.1562 39.1801 10.4796 39.0769 10.7945C39.0266 10.9477 38.9554 11.0913 38.8669 11.2263C38.8357 11.274 38.7966 11.3145 38.7531 11.3509C38.7398 11.3418 38.7466 11.3299 38.7461 11.3202C38.7407 11.1636 38.7631 11.0065 38.7495 10.8507C38.7392 10.7355 38.7566 10.6314 38.8017 10.5284C38.8036 10.5239 38.8039 10.5188 38.8062 10.5094C38.7585 10.5157 38.7472 10.5616 38.7089 10.586C38.7058 10.5279 38.7024 10.4751 38.6998 10.422C38.6981 10.3883 38.6978 10.3545 38.6964 10.3208C38.6939 10.2637 38.6862 10.2104 38.6496 10.1613C38.6017 10.0966 38.6102 10.0144 38.5963 9.93918C38.5943 9.92925 38.6005 9.91478 38.5892 9.90995C38.5758 9.90428 38.5682 9.91875 38.5591 9.92612C38.5083 9.96896 38.5058 10.0331 38.487 10.0901C38.4382 10.2382 38.4462 10.3911 38.4519 10.5437C38.4595 10.754 38.4652 10.9645 38.4731 11.175C38.4924 11.6902 38.5049 12.2056 38.5078 12.7214C38.5089 12.897 38.5112 13.0724 38.5177 13.248C38.5225 13.3728 38.5512 13.4934 38.6062 13.6068C38.6587 13.7149 38.6621 13.8242 38.6147 13.9356C38.5557 14.0744 38.573 14.2083 38.6504 14.3342C38.7069 14.4262 38.7699 14.5141 38.8297 14.6038C38.8493 14.633 38.8683 14.6628 38.8797 14.6962C38.9058 14.772 38.8768 14.8276 38.7997 14.8483C38.7146 14.8713 38.6278 14.8843 38.5398 14.8858C38.2913 14.8894 38.0428 14.8943 37.7942 14.8875C37.7089 14.8852 37.6249 14.8716 37.5435 14.8463C37.4635 14.8216 37.4374 14.7663 37.4697 14.6889C37.5023 14.6111 37.5531 14.5442 37.6013 14.4758C37.6876 14.3535 37.7511 14.223 37.754 14.0693C37.7554 13.9992 37.7432 13.9322 37.7125 13.8693C37.6734 13.789 37.6751 13.7101 37.7196 13.6332C37.7971 13.4999 37.8096 13.3521 37.8152 13.2031C37.8314 12.7716 37.8396 12.3396 37.8481 11.9078C37.8552 11.5409 37.876 11.1744 37.889 10.8076C37.8969 10.5795 37.8867 10.3514 37.8796 10.1233C37.8777 10.0439 37.8277 9.9545 37.7681 9.91052Z" fill="#127043"/>
<path d="M43.5 14.0968C43.4384 14.113 43.3803 14.1133 43.3227 14.1187C43.0537 14.1431 42.7845 14.1609 42.5167 14.1981C42.1692 14.2463 41.8236 14.3062 41.4832 14.3927C41.1791 14.4699 40.8857 14.5774 40.5983 14.7031C40.242 14.8594 39.8947 15.0325 39.575 15.256C39.2942 15.4523 39.0462 15.6872 38.8048 15.9292C38.7486 15.9857 38.6933 16.043 38.6394 16.1014C38.5991 16.1448 38.5982 16.1562 38.6343 16.2024C38.7398 16.3392 38.8462 16.4751 38.9534 16.6104C39.1069 16.8042 39.2769 16.9835 39.4451 17.1639C39.4672 17.1874 39.4922 17.2081 39.5152 17.2308C39.5353 17.251 39.5455 17.2445 39.554 17.2203C39.5952 17.1049 39.6374 16.9894 39.6791 16.8742C39.6967 16.826 39.716 16.7789 39.7441 16.7352C39.8096 16.6328 39.9084 16.6064 40.0122 16.6688C40.1163 16.7315 40.1648 16.8257 40.1563 16.9477C40.1526 17.0022 40.1183 17.0402 40.0553 17.0538C39.9064 17.0859 39.8389 17.1903 39.8091 17.327C39.7821 17.451 39.8091 17.5605 39.8999 17.655C39.9855 17.7438 40.0735 17.8286 40.1784 17.8941C40.2698 17.9512 40.2914 17.9452 40.3393 17.8496C40.3671 17.794 40.3958 17.7387 40.444 17.6972C40.5654 17.5928 40.7532 17.5704 40.8985 17.7429C41.0088 17.874 41.0375 18.0292 41.0208 18.1949C41.01 18.301 40.9703 18.3971 40.901 18.4777C40.7884 18.6091 40.6389 18.6377 40.4749 18.621C40.3024 18.6034 40.1589 18.5203 40.019 18.4258C39.8601 18.3185 39.699 18.2147 39.5387 18.11C39.4905 18.0785 39.4891 18.0797 39.4471 18.1211C39.3492 18.2178 39.2615 18.3254 39.1537 18.4113C39.0105 18.5256 38.7906 18.5152 38.6734 18.3872C38.5514 18.2539 38.5446 18.0519 38.7197 17.91C38.7489 17.8865 38.7826 17.8859 38.815 17.9035C38.8717 17.9344 38.9265 17.9693 38.9844 17.9983C39.0601 18.0363 39.137 18.0175 39.1917 17.9526C39.2258 17.9123 39.2309 17.868 39.2099 17.8207C39.1724 17.7364 39.1089 17.6714 39.0482 17.6048C38.7849 17.3151 38.5214 17.0263 38.2575 16.7372C38.2323 16.7094 38.2082 16.6671 38.1744 16.6646C38.1421 16.662 38.1196 16.7071 38.0938 16.7318C37.8637 16.9525 37.653 17.1914 37.4447 17.4326C37.3653 17.5245 37.287 17.6172 37.2078 17.7094C37.1812 17.7404 37.1588 17.7738 37.1431 17.8116C37.1202 17.8663 37.1256 17.9177 37.1661 17.9622C37.2087 18.009 37.2606 18.0283 37.3233 18.0085C37.3778 17.9914 37.4249 17.9588 37.4754 17.9333C37.4969 17.9222 37.5185 17.9112 37.5409 17.9021C37.5781 17.887 37.6135 17.8921 37.6427 17.9194C37.7307 18.0014 37.7625 18.1046 37.7449 18.221C37.7264 18.3421 37.6666 18.4388 37.5443 18.4774C37.4303 18.5135 37.323 18.4777 37.2212 18.4247C37.1119 18.3676 37.0328 18.2777 36.9585 18.1824C36.936 18.1537 36.9102 18.1276 36.8892 18.0978C36.8733 18.0751 36.8592 18.0785 36.8387 18.0896C36.7247 18.1517 36.6223 18.2315 36.5148 18.3038C36.4095 18.3744 36.3099 18.4539 36.1976 18.5137C36.0665 18.5835 35.9266 18.6184 35.7771 18.613C35.5771 18.6059 35.427 18.4871 35.3573 18.2785C35.2855 18.0644 35.3479 17.838 35.5193 17.691C35.6557 17.5741 35.8313 17.5917 35.9431 17.7333C35.9825 17.7832 36.0157 17.8371 36.0498 17.8904C36.0815 17.9398 36.0906 17.9443 36.1403 17.916C36.2901 17.8312 36.416 17.7177 36.5221 17.5826C36.5576 17.5378 36.5644 17.4833 36.5494 17.4286C36.5278 17.3506 36.5031 17.2737 36.4807 17.1959C36.4614 17.1296 36.4197 17.0864 36.353 17.0671C36.344 17.0646 36.3355 17.0606 36.3264 17.0578C36.2129 17.022 36.1831 16.973 36.2041 16.8547C36.2299 16.7097 36.3698 16.6172 36.5108 16.6515C36.5755 16.6674 36.6169 16.708 36.6384 16.7695C36.6844 16.9006 36.7295 17.032 36.7755 17.163C36.8064 17.2518 36.8246 17.2564 36.8875 17.1869C37.1707 16.8734 37.4442 16.5514 37.7018 16.2166C37.7361 16.1718 37.7349 16.1613 37.702 16.1125C37.6303 16.0061 37.5352 15.9216 37.4444 15.8333C37.2322 15.6271 37.0087 15.4347 36.7726 15.2557C36.5624 15.0963 36.3286 14.9794 36.0932 14.8651C35.8262 14.7354 35.5541 14.6168 35.2741 14.5184C34.9019 14.3873 34.5237 14.2801 34.1322 14.2242C33.901 14.1913 33.6687 14.1689 33.4366 14.1431C33.305 14.1283 33.1739 14.1107 33.0426 14.094C33.0278 14.092 33.0128 14.0903 33 14.0727C33.0445 14.0534 33.0914 14.0494 33.1365 14.0472C33.522 14.0273 33.9056 13.9796 34.2925 13.9848C34.7462 13.9907 35.1953 14.0338 35.6367 14.1425C35.9352 14.216 36.2211 14.3238 36.4977 14.4568C36.7726 14.5893 37.0436 14.7283 37.2921 14.9073C37.5051 15.0605 37.7043 15.2302 37.8941 15.4109C37.9713 15.4844 38.0487 15.5579 38.1216 15.6353C38.1514 15.6671 38.1707 15.6617 38.1971 15.6373C38.2865 15.555 38.3775 15.4745 38.4655 15.3908C38.8388 15.0359 39.2536 14.7402 39.7154 14.511C40.0026 14.3683 40.3007 14.2551 40.6085 14.1672C40.9342 14.0738 41.2667 14.0225 41.6046 14.0001C41.9272 13.9788 42.2495 13.9887 42.5717 14.0052C42.7428 14.014 42.9142 14.0205 43.0852 14.033C43.2075 14.0421 43.3295 14.0591 43.4515 14.073C43.4662 14.0761 43.4827 14.0787 43.5 14.0968ZM40.5058 18.3464C40.522 18.3464 40.5382 18.3472 40.5543 18.3461C40.6911 18.3364 40.7691 18.2783 40.8006 18.1628C40.8258 18.0703 40.7796 17.9387 40.7019 17.8834C40.6346 17.8354 40.5498 17.868 40.5149 17.9574C40.4917 18.0167 40.4783 18.0783 40.4746 18.1427C40.4712 18.2062 40.4448 18.2258 40.3821 18.219C40.3563 18.2161 40.3325 18.2068 40.3084 18.1983C40.1592 18.1461 40.04 18.0519 39.9328 17.9384C39.8735 17.8757 39.8079 17.819 39.7464 17.7585C39.7245 17.7372 39.7132 17.7418 39.6993 17.7665C39.6664 17.8241 39.6698 17.8726 39.7149 17.9219C39.7869 18.0005 39.8641 18.074 39.9506 18.137C40.1163 18.2578 40.297 18.3404 40.5058 18.3464ZM35.5595 18.0978C35.5595 18.2641 35.6324 18.3475 35.7933 18.3529C35.9527 18.3583 36.104 18.3154 36.2424 18.2363C36.3945 18.1492 36.5187 18.0255 36.6492 17.9109C36.6847 17.8797 36.6901 17.8368 36.6739 17.7917C36.6575 17.7458 36.6529 17.7429 36.6132 17.7687C36.5931 17.7821 36.5735 17.7968 36.5553 17.813C36.4433 17.9123 36.3312 18.0113 36.2206 18.1123C36.1528 18.1741 36.0759 18.2088 35.9837 18.2116C35.9096 18.2139 35.8861 18.1951 35.8764 18.1228C35.8693 18.0706 35.8594 18.019 35.8523 17.9668C35.8447 17.9089 35.8137 17.8723 35.7564 17.8615C35.6963 17.8502 35.6463 17.87 35.6115 17.9202C35.5732 17.975 35.5627 18.0388 35.5595 18.0978ZM38.8513 18.0649C38.8173 18.0646 38.7957 18.0822 38.7838 18.1129C38.7594 18.1756 38.7892 18.2471 38.8496 18.2768C38.9597 18.3313 39.0649 18.3143 39.1568 18.2431C39.2763 18.1506 39.3705 18.0354 39.4315 17.8941C39.5401 17.6428 39.6516 17.3928 39.7628 17.1429C39.7926 17.0757 39.8363 17.0201 39.9086 16.994C39.9328 16.9852 39.9489 16.9673 39.9643 16.9486C39.998 16.9074 39.9901 16.8586 39.9438 16.8169C39.9044 16.7812 39.8599 16.7829 39.8227 16.8232C39.7855 16.8635 39.7623 16.9125 39.743 16.963C39.6604 17.1798 39.5784 17.3965 39.4976 17.6141C39.4354 17.7815 39.3492 17.9341 39.2303 18.068C39.1818 18.1228 39.1219 18.1421 39.0516 18.1256C39.0215 18.1185 38.9932 18.1049 38.9639 18.0947C38.9276 18.0819 38.8913 18.0661 38.8513 18.0649ZM37.3905 18.3007C37.424 18.3021 37.4935 18.2777 37.5182 18.2559C37.5585 18.2207 37.5744 18.1421 37.5503 18.0995C37.5298 18.0638 37.4966 18.0592 37.4268 18.0819C37.382 18.0964 37.3372 18.1114 37.2915 18.1231C37.2214 18.1407 37.1607 18.1225 37.1114 18.0692C37.0736 18.0283 37.0404 17.9841 37.0178 17.933C36.8926 17.655 36.7653 17.3784 36.6586 17.0927C36.624 17.0002 36.584 16.9105 36.5241 16.8308C36.5037 16.8036 36.4782 16.7886 36.4441 16.7959C36.4069 16.8042 36.382 16.8266 36.3738 16.8654C36.3618 16.9219 36.3823 16.9664 36.4379 16.9903C36.5224 17.0263 36.5789 17.0879 36.6135 17.171C36.6983 17.3738 36.7843 17.5761 36.8657 17.7804C36.9301 17.9418 37.0112 18.0899 37.148 18.2028C37.2183 18.261 37.298 18.2959 37.3905 18.3007ZM39.402 17.453C39.4017 17.4221 39.3841 17.3928 39.3591 17.3667C39.2244 17.2252 39.0905 17.0828 38.9551 16.9418C38.9049 16.8893 38.8581 16.8328 38.7985 16.79C38.7852 16.7803 38.769 16.7744 38.7577 16.7843C38.7463 16.7942 38.7631 16.8047 38.7673 16.8149C38.771 16.8235 38.7764 16.8314 38.7821 16.8391C38.9441 17.068 39.1063 17.2967 39.2686 17.5256C39.2828 17.5458 39.2995 17.5628 39.3222 17.5736C39.3339 17.5789 39.3466 17.5838 39.3543 17.5699C39.3742 17.5347 39.3997 17.5021 39.402 17.453ZM37.5619 16.7877C37.5539 16.7817 37.55 16.7863 37.5451 16.7883C37.4927 16.8093 37.46 16.853 37.4237 16.8927C37.2771 17.0527 37.1307 17.2127 36.984 17.3727C36.9653 17.3931 36.9516 17.4161 36.9457 17.4431C36.9358 17.4876 36.9653 17.5423 37.0129 17.5602C37.0498 17.5741 37.0538 17.531 37.0753 17.5174C37.0765 17.5168 37.077 17.5154 37.0779 17.5143C37.2342 17.3177 37.3749 17.1106 37.5057 16.8964C37.5273 16.8615 37.5497 16.8266 37.5619 16.7877Z" fill="#A67C1D"/>
<path d="M10.1974 10.9318L10.2712 10.1193L9.59721 10.5902L9.22789 9.94389L9.96653 9.60227L9.22789 9.26065L9.59721 8.61435L10.2712 9.08523L10.1974 8.27273H10.936L10.8621 9.08523L11.5361 8.61435L11.9055 9.26065L11.1668 9.60227L11.9055 9.94389L11.5361 10.5902L10.8621 10.1193L10.936 10.9318H10.1974ZM14.1519 10.9318L14.2258 10.1193L13.5518 10.5902L13.1825 9.94389L13.9211 9.60227L13.1825 9.26065L13.5518 8.61435L14.2258 9.08523L14.1519 8.27273H14.8906L14.8167 9.08523L15.4907 8.61435L15.86 9.26065L15.1214 9.60227L15.86 9.94389L15.4907 10.5902L14.8167 10.1193L14.8906 10.9318H14.1519ZM18.1065 10.9318L18.1804 10.1193L17.5064 10.5902L17.1371 9.94389L17.8757 9.60227L17.1371 9.26065L17.5064 8.61435L18.1804 9.08523L18.1065 8.27273H18.8452L18.7713 9.08523L19.4453 8.61435L19.8146 9.26065L19.076 9.60227L19.8146 9.94389L19.4453 10.5902L18.7713 10.1193L18.8452 10.9318H18.1065ZM22.0611 10.9318L22.135 10.1193L21.461 10.5902L21.0917 9.94389L21.8303 9.60227L21.0917 9.26065L21.461 8.61435L22.135 9.08523L22.0611 8.27273H22.7998L22.7259 9.08523L23.3999 8.61435L23.7692 9.26065L23.0306 9.60227L23.7692 9.94389L23.3999 10.5902L22.7259 10.1193L22.7998 10.9318H22.0611ZM10.1974 17.9318L10.2712 17.1193L9.59721 17.5902L9.22789 16.9439L9.96653 16.6023L9.22789 16.2607L9.59721 15.6143L10.2712 16.0852L10.1974 15.2727H10.936L10.8621 16.0852L11.5361 15.6143L11.9055 16.2607L11.1668 16.6023L11.9055 16.9439L11.5361 17.5902L10.8621 17.1193L10.936 17.9318H10.1974ZM14.1519 17.9318L14.2258 17.1193L13.5518 17.5902L13.1825 16.9439L13.9211 16.6023L13.1825 16.2607L13.5518 15.6143L14.2258 16.0852L14.1519 15.2727H14.8906L14.8167 16.0852L15.4907 15.6143L15.86 16.2607L15.1214 16.6023L15.86 16.9439L15.4907 17.5902L14.8167 17.1193L14.8906 17.9318H14.1519ZM18.1065 17.9318L18.1804 17.1193L17.5064 17.5902L17.1371 16.9439L17.8757 16.6023L17.1371 16.2607L17.5064 15.6143L18.1804 16.0852L18.1065 15.2727H18.8452L18.7713 16.0852L19.4453 15.6143L19.8146 16.2607L19.076 16.6023L19.8146 16.9439L19.4453 17.5902L18.7713 17.1193L18.8452 17.9318H18.1065ZM22.0611 17.9318L22.135 17.1193L21.461 17.5902L21.0917 16.9439L21.8303 16.6023L21.0917 16.2607L21.461 15.6143L22.135 16.0852L22.0611 15.2727H22.7998L22.7259 16.0852L23.3999 15.6143L23.7692 16.2607L23.0306 16.6023L23.7692 16.9439L23.3999 17.5902L22.7259 17.1193L22.7998 17.9318H22.0611Z" fill="black"/>
<path d="M51.1974 10.9318L51.2712 10.1193L50.5972 10.5902L50.2279 9.94389L50.9665 9.60227L50.2279 9.26065L50.5972 8.61435L51.2712 9.08523L51.1974 8.27273H51.936L51.8621 9.08523L52.5361 8.61435L52.9055 9.26065L52.1668 9.60227L52.9055 9.94389L52.5361 10.5902L51.8621 10.1193L51.936 10.9318H51.1974ZM55.1519 10.9318L55.2258 10.1193L54.5518 10.5902L54.1825 9.94389L54.9211 9.60227L54.1825 9.26065L54.5518 8.61435L55.2258 9.08523L55.1519 8.27273H55.8906L55.8167 9.08523L56.4907 8.61435L56.86 9.26065L56.1214 9.60227L56.86 9.94389L56.4907 10.5902L55.8167 10.1193L55.8906 10.9318H55.1519ZM59.1065 10.9318L59.1804 10.1193L58.5064 10.5902L58.1371 9.94389L58.8757 9.60227L58.1371 9.26065L58.5064 8.61435L59.1804 9.08523L59.1065 8.27273H59.8452L59.7713 9.08523L60.4453 8.61435L60.8146 9.26065L60.076 9.60227L60.8146 9.94389L60.4453 10.5902L59.7713 10.1193L59.8452 10.9318H59.1065ZM63.0611 10.9318L63.135 10.1193L62.461 10.5902L62.0917 9.94389L62.8303 9.60227L62.0917 9.26065L62.461 8.61435L63.135 9.08523L63.0611 8.27273H63.7998L63.7259 9.08523L64.3999 8.61435L64.7692 9.26065L64.0306 9.60227L64.7692 9.94389L64.3999 10.5902L63.7259 10.1193L63.7998 10.9318H63.0611ZM51.1974 17.9318L51.2712 17.1193L50.5972 17.5902L50.2279 16.9439L50.9665 16.6023L50.2279 16.2607L50.5972 15.6143L51.2712 16.0852L51.1974 15.2727H51.936L51.8621 16.0852L52.5361 15.6143L52.9055 16.2607L52.1668 16.6023L52.9055 16.9439L52.5361 17.5902L51.8621 17.1193L51.936 17.9318H51.1974ZM55.1519 17.9318L55.2258 17.1193L54.5518 17.5902L54.1825 16.9439L54.9211 16.6023L54.1825 16.2607L54.5518 15.6143L55.2258 16.0852L55.1519 15.2727H55.8906L55.8167 16.0852L56.4907 15.6143L56.86 16.2607L56.1214 16.6023L56.86 16.9439L56.4907 17.5902L55.8167 17.1193L55.8906 17.9318H55.1519ZM59.1065 17.9318L59.1804 17.1193L58.5064 17.5902L58.1371 16.9439L58.8757 16.6023L58.1371 16.2607L58.5064 15.6143L59.1804 16.0852L59.1065 15.2727H59.8452L59.7713 16.0852L60.4453 15.6143L60.8146 16.2607L60.076 16.6023L60.8146 16.9439L60.4453 17.5902L59.7713 17.1193L59.8452 17.9318H59.1065ZM63.0611 17.9318L63.135 17.1193L62.461 17.5902L62.0917 16.9439L62.8303 16.6023L62.0917 16.2607L62.461 15.6143L63.135 16.0852L63.0611 15.2727H63.7998L63.7259 16.0852L64.3999 15.6143L64.7692 16.2607L64.0306 16.6023L64.7692 16.9439L64.3999 17.5902L63.7259 17.1193L63.7998 17.9318H63.0611Z" fill="black"/>
</svg>
