<svg width="42" height="17" viewBox="0 0 42 17" fill="none" xmlns="http://www.w3.org/2000/svg">
<g clip-path="url(#clip0_29357_45260)">
<rect width="42" height="17" rx="2" fill="white"/>
<path d="M33.6113 17.0156V0.840841" stroke="black"/>
<path d="M17.3654 4.90775C17.3604 4.91886 17.355 4.92924 17.3517 4.9401C17.3486 4.94927 17.3423 4.95603 17.3292 4.95313C17.277 4.94203 17.283 4.96665 17.288 4.98837C17.3018 5.04992 17.286 5.1093 17.2659 5.16892C17.2616 5.18196 17.2556 5.19089 17.2355 5.18896C17.2027 5.18582 17.2033 5.19789 17.2094 5.21502C17.2181 5.2394 17.2261 5.26402 17.2318 5.28888C17.2361 5.30868 17.2341 5.32799 17.2074 5.34126C17.1916 5.34923 17.1896 5.36178 17.1883 5.37481C17.1863 5.39581 17.197 5.41536 17.2 5.44071C17.1598 5.42574 17.1474 5.39943 17.128 5.37747C17.12 5.3683 17.115 5.35116 17.0975 5.35599C17.0805 5.36081 17.0905 5.37602 17.0949 5.38664C17.118 5.44385 17.1407 5.50129 17.1645 5.5585C17.1752 5.58384 17.1749 5.60653 17.1397 5.62174C17.1156 5.63212 17.1247 5.64733 17.1277 5.66181C17.1561 5.79481 17.1849 5.92756 17.1789 6.06273C17.1782 6.07939 17.1896 6.10449 17.1685 6.11076C17.1401 6.11945 17.1163 6.09894 17.0979 6.08349C16.9891 5.99225 16.9037 5.89015 16.8394 5.77936C16.6921 5.52447 16.6436 5.25847 16.6646 4.98379C16.6747 4.85393 16.7155 4.72672 16.7283 4.59735C16.7313 4.56524 16.7366 4.53338 16.7326 4.50104C16.7313 4.48994 16.7309 4.47569 16.7119 4.47352C16.6958 4.47183 16.6817 4.47956 16.6713 4.48897C16.6533 4.50538 16.6543 4.52542 16.6489 4.54449C16.6436 4.56331 16.6425 4.58962 16.602 4.56331C16.5923 4.55704 16.5809 4.55607 16.5722 4.56307C16.5468 4.58286 16.5187 4.579 16.4835 4.56404C16.4835 4.61159 16.4839 4.65335 16.4832 4.6951C16.4832 4.70259 16.4889 4.71369 16.4751 4.71634C16.4574 4.71972 16.4577 4.70645 16.4531 4.69872C16.45 4.69341 16.4494 4.68738 16.4464 4.68207C16.4407 4.67193 16.444 4.65335 16.4263 4.65431C16.4038 4.65552 16.4035 4.67459 16.4028 4.68738C16.4015 4.7231 16.4089 4.75834 16.4189 4.79334C16.4233 4.80879 16.4246 4.82472 16.4276 4.84258C16.3851 4.83872 16.373 4.81772 16.3613 4.79624C16.3506 4.77669 16.3489 4.75303 16.3144 4.74193C16.2927 4.78586 16.3074 4.82979 16.3017 4.87251C16.3 4.88627 16.3108 4.9092 16.289 4.9121C16.2632 4.91524 16.2609 4.89182 16.2525 4.87734C16.2438 4.86213 16.2431 4.83534 16.2163 4.83848C16.1942 4.84113 16.1993 4.86696 16.1986 4.88338C16.1973 4.92079 16.217 4.95531 16.2291 4.99103C16.2351 5.00865 16.2405 5.02651 16.2478 5.04968C16.2294 5.04461 16.2167 5.04196 16.205 5.0381C16.1641 5.02482 16.1514 5.02941 16.1598 5.06127C16.1715 5.10616 16.1899 5.15034 16.208 5.19427C16.215 5.21164 16.219 5.22323 16.1855 5.22323C16.1531 5.22323 16.1524 5.24061 16.1537 5.25726C16.1561 5.28526 16.1758 5.30988 16.1865 5.33619C16.2043 5.3794 16.2117 5.4214 16.1788 5.46267C16.1691 5.47498 16.1678 5.48923 16.1698 5.50298C16.1722 5.5194 16.1648 5.53002 16.1414 5.53267C16.1129 5.53605 16.1172 5.55005 16.1209 5.56405C16.127 5.58722 16.138 5.60991 16.136 5.63429C16.1152 5.63574 16.1089 5.62536 16.1028 5.61667C16.0101 5.48464 15.9053 5.35695 15.8253 5.22033C15.682 4.97606 15.7229 4.74265 15.9073 4.51818C15.9626 4.45083 16.0265 4.38783 16.0901 4.32484C16.1363 4.27897 16.1788 4.23215 16.1882 4.17398C16.1919 4.15032 16.1939 4.12691 16.1772 4.10494C16.1584 4.10881 16.1544 4.12015 16.1477 4.12836C16.1306 4.14911 16.1129 4.15974 16.0821 4.14043C16.059 4.12594 16.0499 4.13632 16.0453 4.15274C16.0416 4.16505 16.0349 4.17711 16.0335 4.18967C16.0312 4.2138 16.0151 4.22539 15.9817 4.22273C15.9575 4.2208 15.9485 4.23046 15.9408 4.24494C15.9211 4.28356 15.8996 4.3217 15.8759 4.36563C15.8594 4.34101 15.8461 4.32097 15.831 4.29828C15.7804 4.34173 15.7834 4.39942 15.7406 4.44552C15.7242 4.4308 15.7098 4.41776 15.692 4.40183C15.6756 4.43321 15.6582 4.46145 15.6462 4.49066C15.6371 4.51287 15.6217 4.51842 15.5943 4.50949C15.5692 4.50128 15.5608 4.50925 15.5565 4.52638C15.5431 4.579 15.5277 4.63114 15.5123 4.68593C15.4835 4.6729 15.4801 4.649 15.4543 4.63621C15.4282 4.66035 15.4279 4.68859 15.4296 4.7149C15.4339 4.77789 15.3937 4.83051 15.3599 4.88482C15.3569 4.88965 15.3492 4.89762 15.3455 4.89713C15.2903 4.88965 15.3013 4.92127 15.299 4.94058C15.2886 5.02168 15.2695 5.10254 15.2869 5.18437C15.292 5.20875 15.2846 5.23192 15.2658 5.25364C15.2481 5.27416 15.2347 5.27054 15.226 5.25099C15.2099 5.21502 15.1952 5.17858 15.1815 5.14213C15.1286 4.99972 15.0928 4.85489 15.0921 4.70717C15.0911 4.474 15.2059 4.27584 15.4436 4.11412C15.676 3.95602 15.9338 3.82929 16.2405 3.75857C16.3191 3.74047 16.4008 3.72864 16.4765 3.70426C16.4879 3.70064 16.5059 3.69847 16.5046 3.68857C16.5033 3.67843 16.4865 3.67071 16.4725 3.67119C16.3791 3.67481 16.2816 3.65406 16.1942 3.6975C16.1517 3.71874 16.1052 3.72623 16.0577 3.69871C16.0349 3.68543 15.915 3.70426 15.8933 3.7214C15.8785 3.73299 15.8641 3.74505 15.8507 3.75616C15.8317 3.75254 15.8377 3.7424 15.8333 3.73588C15.827 3.72599 15.8333 3.70981 15.8163 3.70595C15.7958 3.70137 15.7798 3.71368 15.767 3.72309C15.7516 3.73443 15.7396 3.74819 15.7269 3.76147C15.7088 3.78005 15.6894 3.79212 15.6562 3.7774C15.6268 3.76436 15.6127 3.78223 15.5986 3.7955C15.5826 3.81095 15.5675 3.81747 15.5461 3.79985C15.53 3.78633 15.519 3.78898 15.5096 3.80588C15.4955 3.83147 15.4771 3.8556 15.463 3.88119C15.4537 3.89809 15.4423 3.90315 15.4212 3.89157C15.3978 3.87878 15.381 3.88384 15.3673 3.90122C15.3546 3.91691 15.3372 3.93067 15.3285 3.94853C15.3137 3.97846 15.2869 4.00212 15.2528 4.02215C15.222 4.04025 15.1919 4.05908 15.1701 4.0837C15.1654 4.08925 15.1564 4.09698 15.1497 4.09674C15.0924 4.09408 15.0948 4.12594 15.0864 4.15153C15.078 4.17711 15.0693 4.20294 15.062 4.22877C15.0549 4.25411 15.0472 4.27728 15.0064 4.28742C14.9816 4.29346 14.9826 4.31325 14.9829 4.32942C14.9839 4.35573 14.9756 4.38614 14.9387 4.38614C14.8979 4.38614 14.8972 4.35115 14.8989 4.32846C14.925 3.99874 15.1118 3.73202 15.4982 3.54592C15.764 3.41799 16.062 3.35741 16.3777 3.33544C16.4902 3.32772 16.6024 3.31758 16.7125 3.2973C16.7504 3.2903 16.7845 3.27993 16.8076 3.24879C16.6573 3.24155 16.5136 3.20317 16.3653 3.23744C16.3469 3.24179 16.3268 3.24855 16.3098 3.24058C16.2565 3.21596 16.214 3.23382 16.1705 3.25506C16.1578 3.26134 16.14 3.27486 16.1266 3.25675C16.1089 3.23262 16.0861 3.236 16.06 3.24662C15.9673 3.28451 15.8611 3.3002 15.7617 3.31565C15.6231 3.33689 15.5334 3.40954 15.4145 3.44889C15.3994 3.45396 15.3844 3.47134 15.3696 3.46096C15.3519 3.44865 15.3767 3.43634 15.3857 3.42644C15.5327 3.26786 15.7212 3.13945 15.9365 3.02962C16.1792 2.9058 16.449 2.86138 16.7423 2.88117C16.8849 2.89083 17.0279 2.90145 17.1705 2.91014C17.197 2.91183 17.2385 2.92052 17.2465 2.89952C17.2526 2.88431 17.2117 2.87321 17.1866 2.86742C17.1176 2.85124 17.0641 2.81335 16.9954 2.7979C16.9271 2.78245 16.8602 2.76532 16.7972 2.74045C16.7507 2.72211 16.6871 2.7349 16.6489 2.69966C16.6469 2.69773 16.6369 2.69942 16.6312 2.70111C16.5227 2.73321 16.4065 2.74166 16.2934 2.75928C16.2619 2.76411 16.2351 2.77666 16.1999 2.78776C16.205 2.75059 16.2338 2.72814 16.2656 2.70883C16.375 2.64318 16.5073 2.61301 16.6425 2.59056C16.907 2.54711 17.1511 2.58525 17.3774 2.69025C17.4591 2.72814 17.5425 2.76387 17.6359 2.78607C17.6644 2.79283 17.6717 2.7909 17.6721 2.76894C17.6741 2.68035 17.6865 2.59249 17.7029 2.50463C17.7072 2.48146 17.7179 2.47132 17.7497 2.47349C17.7859 2.47591 17.7969 2.46553 17.8 2.43849C17.8066 2.37356 17.7933 2.30719 17.8234 2.24371C17.8277 2.23429 17.8247 2.22029 17.8425 2.21884C17.8632 2.2174 17.8642 2.23308 17.8706 2.24274C17.8977 2.28353 17.8867 2.32867 17.8964 2.37139C17.9011 2.39167 17.8997 2.41267 17.9027 2.43318C17.9054 2.45274 17.9091 2.47108 17.9392 2.48146C17.9613 2.48918 17.9643 2.50704 17.9647 2.52346C17.9653 2.54422 17.9653 2.56473 17.966 2.58549C17.9674 2.61446 17.9734 2.64125 18.0015 2.66539C18.0313 2.69121 18.0336 2.72428 18.032 2.75711C18.0293 2.81311 18.0343 2.81745 18.1053 2.79525C18.2031 2.76459 18.2965 2.72694 18.3869 2.68614C18.5727 2.60263 18.7719 2.56787 18.9895 2.59563C19.1294 2.61349 19.256 2.65573 19.3782 2.70618C19.4147 2.72114 19.4418 2.74432 19.4589 2.77256C19.4733 2.79597 19.4629 2.80731 19.4274 2.80466C19.412 2.80345 19.397 2.79838 19.3819 2.79476C19.2764 2.77014 19.1659 2.74335 19.0595 2.76797C18.9774 2.78704 18.8991 2.79814 18.8137 2.79983C18.7444 2.80128 18.6915 2.83966 18.6256 2.86307C18.7009 2.90483 18.7829 2.90555 18.8653 2.90266C18.9671 2.8988 19.0685 2.89035 19.1703 2.88866C19.3976 2.8848 19.6005 2.93621 19.7736 3.04193C19.9095 3.12496 20.0414 3.21186 20.1657 3.3043C20.2189 3.34413 20.2601 3.39048 20.2939 3.44503C20.2601 3.44068 20.2363 3.42789 20.2119 3.41751C20.1349 3.38492 20.0548 3.35982 19.9675 3.34196C19.8891 3.32603 19.8134 3.29875 19.7421 3.26834C19.7174 3.25772 19.6912 3.24903 19.6631 3.24444C19.6233 3.23817 19.5844 3.23479 19.5623 3.26834C19.5533 3.2821 19.5402 3.28162 19.5242 3.27268C19.5064 3.26279 19.4867 3.25506 19.4689 3.24565C19.4455 3.2331 19.4247 3.22369 19.4053 3.25024C19.3929 3.26713 19.3735 3.25627 19.3598 3.25024C19.3119 3.22924 19.2657 3.21113 19.2108 3.24155C19.1998 3.24758 19.1767 3.24324 19.1592 3.24251C19.1057 3.24034 19.0541 3.24396 19.0089 3.26786C18.9962 3.27462 18.9831 3.27655 18.9684 3.27244C18.9641 3.27124 18.9594 3.27003 18.9547 3.26955C18.9282 3.26737 18.8723 3.29561 18.877 3.31155C18.8824 3.33037 18.9118 3.32941 18.9312 3.3311C19.0247 3.33882 19.1184 3.34413 19.2118 3.35041C19.4006 3.36296 19.5898 3.37334 19.7729 3.41196C20.2283 3.50754 20.5554 3.70619 20.7177 4.03277C20.78 4.15829 20.7941 4.28935 20.776 4.4279C20.7435 4.40618 20.7305 4.38156 20.7131 4.35959C20.6437 4.27173 20.5758 4.18363 20.5075 4.09529C20.4867 4.0685 20.4646 4.04339 20.4164 4.04146C20.3983 4.04074 20.3987 4.03108 20.396 4.02215C20.3726 3.94153 20.2939 3.89253 20.2068 3.84764C20.2028 3.84571 20.1985 3.84426 20.1941 3.84281C20.1643 3.8334 20.1261 3.84088 20.1017 3.81916C20.0816 3.80154 20.0605 3.78464 20.0394 3.76702C20.0046 3.80323 20.0046 3.80323 19.9658 3.76943C19.9598 3.76412 19.9534 3.75881 19.9474 3.7535C19.9058 3.71705 19.9048 3.71657 19.865 3.75592C19.8533 3.76726 19.8459 3.76992 19.8332 3.75857C19.8232 3.74964 19.8124 3.74119 19.8031 3.73178C19.784 3.71295 19.7706 3.69726 19.7291 3.71585C19.6986 3.72961 19.6527 3.71392 19.6156 3.73226C19.6025 3.73878 19.5811 3.71561 19.562 3.70788C19.5543 3.70474 19.5476 3.6963 19.5376 3.70064C19.5285 3.7045 19.5299 3.71271 19.5302 3.71923C19.5319 3.7523 19.558 3.77498 19.5935 3.79212C19.7271 3.85681 19.8603 3.9215 19.9952 3.98474C20.1717 4.06753 20.3324 4.16142 20.4382 4.29684C20.5574 4.44914 20.5902 4.61424 20.5848 4.78538C20.5795 4.95941 20.5219 5.12596 20.4479 5.29033C20.4368 5.31447 20.4271 5.31013 20.4084 5.29613C20.3699 5.26764 20.3712 5.23433 20.3833 5.19958C20.3883 5.18509 20.396 5.17109 20.4047 5.15758C20.4174 5.13803 20.4114 5.12378 20.3839 5.11606C20.3541 5.10761 20.3505 5.09144 20.3528 5.07141C20.3555 5.04848 20.3555 5.02555 20.3578 5.00261C20.3602 4.98089 20.3632 4.96086 20.3173 4.96641C20.2996 4.96858 20.2986 4.95724 20.2986 4.94758C20.2986 4.91355 20.2848 4.88241 20.2674 4.85103C20.2483 4.81627 20.2671 4.77838 20.2564 4.74217C20.25 4.72117 20.2487 4.69921 20.2453 4.67797C20.239 4.67797 20.2353 4.67724 20.2326 4.67797C20.1673 4.70066 20.1673 4.7009 20.161 4.64804C20.159 4.6321 20.1549 4.61593 20.1549 4.6C20.1553 4.56718 20.1469 4.54376 20.089 4.55655C20.0662 4.56162 20.0645 4.54787 20.0609 4.53628C20.0475 4.49331 20.0327 4.45035 20.0167 4.40135C19.9932 4.42597 19.9752 4.44504 19.9521 4.46942C19.9269 4.41463 19.9045 4.36539 19.8807 4.31325C19.8694 4.32049 19.862 4.32435 19.8556 4.32894C19.8031 4.36587 19.8031 4.36587 19.7743 4.31518C19.7646 4.29828 19.7538 4.28139 19.7461 4.26401C19.7361 4.24084 19.7237 4.22491 19.6832 4.22201C19.6464 4.21935 19.633 4.19208 19.6199 4.17011C19.6092 4.15249 19.5988 4.1426 19.5674 4.14598C19.5215 4.15105 19.4894 4.1327 19.4642 4.10591C19.4498 4.0907 19.4341 4.06319 19.4073 4.07356C19.3785 4.08467 19.3916 4.1117 19.402 4.13343C19.4274 4.18701 19.4817 4.22708 19.5265 4.27125C19.6179 4.36104 19.7214 4.44456 19.799 4.54135C19.9594 4.74169 19.9818 4.95386 19.8968 5.17375C19.8352 5.33281 19.7284 5.47547 19.5921 5.6075C19.5727 5.62633 19.5536 5.64636 19.5151 5.6577C19.5178 5.63815 19.5181 5.62246 19.5222 5.60726C19.5285 5.58288 19.5406 5.55802 19.484 5.55922C19.4676 5.55947 19.4699 5.55005 19.474 5.54136C19.4817 5.52398 19.4887 5.50636 19.4954 5.4885C19.5011 5.47402 19.5084 5.45567 19.4957 5.44481C19.4549 5.40909 19.4786 5.37602 19.4967 5.34199C19.5101 5.31616 19.5222 5.29009 19.5362 5.26426C19.5476 5.24326 19.5389 5.23602 19.5094 5.24133C19.475 5.24737 19.4689 5.23916 19.477 5.21502C19.4957 5.15854 19.5101 5.10134 19.5265 5.04485C19.4964 5.03689 19.4719 5.07141 19.4535 5.05186C19.4415 5.03906 19.4535 5.0142 19.4552 4.99489C19.4572 4.97317 19.4592 4.95168 19.4616 4.92755C19.4294 4.93286 19.4211 4.95651 19.3879 4.96906C19.3879 4.89979 19.3879 4.83534 19.3879 4.76824C19.3447 4.77548 19.3441 4.79962 19.3303 4.81603C19.3256 4.82158 19.3243 4.83076 19.3129 4.831C19.2989 4.83148 19.2958 4.82158 19.2928 4.81458C19.2824 4.79021 19.2851 4.76462 19.2824 4.73952C19.2788 4.70379 19.2734 4.70066 19.2332 4.71828C19.2085 4.72914 19.2071 4.71997 19.2048 4.70669C19.2008 4.68279 19.1961 4.6589 19.1924 4.63476C19.1897 4.61859 19.1844 4.60628 19.1576 4.61883C19.1291 4.6321 19.1191 4.62004 19.11 4.6029C19.0889 4.56355 19.0531 4.53435 18.9962 4.51987C18.9674 4.51262 18.9523 4.51359 18.9577 4.54159C18.9768 4.64055 18.9969 4.73952 19.0099 4.83896C19.0464 5.11678 19.0317 5.39195 18.9098 5.65988C18.8506 5.79022 18.7665 5.91235 18.6621 6.02725C18.6252 6.0678 18.579 6.10232 18.5278 6.13321C18.5121 6.12549 18.5201 6.11535 18.5194 6.10714C18.5131 5.9739 18.5395 5.84018 18.5235 5.70767C18.5114 5.60967 18.5318 5.52109 18.5851 5.43347C18.5874 5.42961 18.5877 5.42526 18.5904 5.4173C18.5342 5.42261 18.5208 5.46171 18.4756 5.48247C18.4719 5.43299 18.4679 5.38809 18.4649 5.34295C18.4629 5.31423 18.4625 5.28551 18.4608 5.25678C18.4578 5.20827 18.4488 5.16289 18.4056 5.12113C18.349 5.0661 18.3591 4.9961 18.3427 4.93213C18.3403 4.92369 18.3477 4.91138 18.3343 4.90727C18.3186 4.90244 18.3095 4.91475 18.2988 4.92103C18.2389 4.95748 18.2359 5.01203 18.2138 5.06054C18.1562 5.18654 18.1656 5.31664 18.1723 5.4465C18.1813 5.62536 18.188 5.80446 18.1974 5.98356C18.2201 6.4219 18.2349 6.86047 18.2382 7.29929C18.2395 7.4487 18.2422 7.59787 18.2499 7.74728C18.2556 7.85349 18.2894 7.95607 18.3544 8.05262C18.4163 8.14458 18.4203 8.23751 18.3644 8.33237C18.2948 8.45041 18.3152 8.56434 18.4066 8.67151C18.4732 8.74971 18.5476 8.82454 18.6182 8.90081C18.6413 8.92567 18.6637 8.95102 18.6771 8.9795C18.7079 9.04395 18.6738 9.09126 18.5827 9.10888C18.4823 9.12843 18.3798 9.13953 18.276 9.14074C17.9828 9.14387 17.6895 9.14798 17.3962 9.14219C17.2954 9.14025 17.1963 9.12867 17.1002 9.10719C17.0058 9.08619 16.975 9.03912 17.0132 8.97322C17.0517 8.90709 17.1116 8.85012 17.1685 8.79195C17.2703 8.68792 17.3453 8.57689 17.3486 8.44606C17.3503 8.38644 17.3359 8.32948 17.2998 8.27589C17.2536 8.20758 17.2556 8.14048 17.3081 8.07507C17.3995 7.96162 17.4143 7.83587 17.421 7.70915C17.44 7.34201 17.4498 6.9744 17.4598 6.60703C17.4682 6.29493 17.4926 5.98308 17.508 5.67098C17.5174 5.47692 17.5053 5.28285 17.497 5.08879C17.4946 5.0212 17.4357 4.94517 17.3654 4.90775Z" fill="#127043"/>
<path d="M24.1296 8.46285C24.0569 8.47661 23.9883 8.47685 23.9203 8.48144C23.6029 8.5022 23.2852 8.51741 22.9692 8.54903C22.559 8.59006 22.1512 8.64099 21.7495 8.71461C21.3906 8.78026 21.0444 8.87174 20.7052 8.97867C20.2847 9.11167 19.8749 9.25891 19.4976 9.44911C19.1662 9.61614 18.8736 9.816 18.5886 10.0219C18.5223 10.0699 18.4571 10.1187 18.3934 10.1684C18.3459 10.2053 18.3449 10.215 18.3874 10.2543C18.512 10.3707 18.6375 10.4863 18.7641 10.6014C18.9452 10.7663 19.1457 10.9188 19.3443 11.0724C19.3704 11.0924 19.3999 11.11 19.427 11.1293C19.4507 11.1465 19.4628 11.1409 19.4728 11.1204C19.5214 11.0221 19.5713 10.9239 19.6205 10.8259C19.6413 10.7849 19.664 10.7448 19.6972 10.7076C19.7745 10.6205 19.891 10.5981 20.0135 10.6512C20.1364 10.7045 20.1937 10.7846 20.1836 10.8884C20.1793 10.9348 20.1388 10.9671 20.0644 10.9787C19.8887 11.006 19.809 11.0948 19.7738 11.2111C19.742 11.3166 19.7738 11.4098 19.881 11.4902C19.9821 11.5657 20.0859 11.6379 20.2097 11.6937C20.3175 11.7422 20.343 11.7371 20.3996 11.6558C20.4324 11.6084 20.4662 11.5614 20.5231 11.5261C20.6664 11.4373 20.888 11.4182 21.0595 11.565C21.1897 11.6765 21.2235 11.8085 21.2038 11.9495C21.191 12.0398 21.1442 12.1216 21.0625 12.1902C20.9296 12.3019 20.7531 12.3263 20.5596 12.3121C20.356 12.2971 20.1866 12.2264 20.0216 12.146C19.8341 12.0547 19.6439 11.9664 19.4548 11.8773C19.3978 11.8505 19.3962 11.8515 19.3466 11.8868C19.2311 11.9691 19.1277 12.0605 19.0004 12.1337C18.8314 12.231 18.5719 12.222 18.4336 12.1132C18.2897 11.9997 18.2816 11.8279 18.4882 11.7072C18.5227 11.6871 18.5625 11.6867 18.6007 11.7016C18.6676 11.7279 18.7323 11.7576 18.8006 11.7822C18.89 11.8146 18.9807 11.7986 19.0453 11.7434C19.0855 11.7091 19.0915 11.6714 19.0667 11.6311C19.0225 11.5594 18.9475 11.5042 18.8759 11.4474C18.5652 11.201 18.2542 10.9553 17.9428 10.7093C17.913 10.6857 17.8846 10.6497 17.8447 10.6475C17.8065 10.6454 17.7801 10.6837 17.7496 10.7047C17.4781 10.8925 17.2293 11.0958 16.9836 11.3009C16.8899 11.3791 16.7975 11.4581 16.704 11.5365C16.6726 11.5628 16.6461 11.5913 16.6277 11.6234C16.6006 11.67 16.607 11.7137 16.6548 11.7516C16.705 11.7914 16.7663 11.8078 16.8403 11.7909C16.9046 11.7764 16.9602 11.7487 17.0198 11.727C17.0452 11.7175 17.0707 11.7081 17.0971 11.7004C17.141 11.6876 17.1828 11.692 17.2173 11.7151C17.3211 11.7849 17.3586 11.8728 17.3378 11.9717C17.3161 12.0748 17.2454 12.1571 17.1011 12.1899C16.9665 12.2206 16.84 12.1902 16.7198 12.145C16.5909 12.0965 16.4975 12.02 16.4098 11.9389C16.3833 11.9145 16.3528 11.8923 16.3281 11.867C16.3093 11.8476 16.2926 11.8505 16.2685 11.86C16.1339 11.9128 16.013 11.9806 15.8861 12.0422C15.7619 12.1023 15.6444 12.1699 15.5118 12.2208C15.3571 12.2802 15.1921 12.3099 15.0156 12.3053C14.7796 12.2993 14.6025 12.1981 14.5201 12.0207C14.4354 11.8385 14.5091 11.6459 14.7113 11.5208C14.8723 11.4214 15.0796 11.4363 15.2115 11.5568C15.258 11.5993 15.2972 11.6451 15.3374 11.6905C15.3749 11.7325 15.3856 11.7364 15.4442 11.7122C15.621 11.6401 15.7696 11.5435 15.8948 11.4286C15.9367 11.3905 15.9447 11.3441 15.927 11.2976C15.9015 11.2312 15.8724 11.1658 15.8459 11.0996C15.8232 11.0431 15.774 11.0065 15.6953 10.99C15.6846 10.9879 15.6745 10.9845 15.6638 10.9821C15.5299 10.9517 15.4947 10.9099 15.5195 10.8093C15.55 10.6859 15.715 10.6072 15.8814 10.6364C15.9578 10.6499 16.0067 10.6845 16.0321 10.7368C16.0863 10.8484 16.1396 10.9601 16.1938 11.0716C16.2303 11.1472 16.2517 11.151 16.3261 11.0919C16.6602 10.8252 16.9829 10.5512 17.2869 10.2664C17.3274 10.2283 17.3261 10.2193 17.2873 10.1778C17.2026 10.0873 17.0904 10.0154 16.9833 9.94031C16.7328 9.76483 16.469 9.60118 16.1905 9.44887C15.9424 9.31322 15.6665 9.21377 15.3886 9.1165C15.0736 9.00619 14.7525 8.90529 14.422 8.82154C13.9828 8.71002 13.5365 8.61878 13.0745 8.57123C12.8016 8.54323 12.5274 8.52416 12.2535 8.5022C12.0982 8.48965 11.9435 8.47468 11.7885 8.46044C11.7711 8.45875 11.7533 8.4573 11.7383 8.44234C11.7908 8.42592 11.8461 8.42254 11.8993 8.42061C12.3543 8.40372 12.807 8.36317 13.2636 8.36751C13.799 8.37258 14.329 8.40927 14.8499 8.50172C15.2021 8.56423 15.5396 8.65595 15.866 8.76916C16.1905 8.88188 16.5102 9.00015 16.8035 9.15246C17.0549 9.2828 17.2899 9.42715 17.5139 9.5809C17.605 9.64342 17.6964 9.70593 17.7824 9.77183C17.8176 9.79886 17.8404 9.79428 17.8715 9.77352C17.977 9.70352 18.0844 9.63497 18.1882 9.56376C18.6288 9.2618 19.1183 9.01029 19.6633 8.81526C20.0022 8.69385 20.354 8.59754 20.7173 8.52271C21.1016 8.4433 21.494 8.39961 21.8928 8.38055C22.2735 8.36244 22.6538 8.37089 23.0341 8.38489C23.236 8.39237 23.4382 8.39792 23.6401 8.40855C23.7844 8.41627 23.9284 8.43075 24.0723 8.44258C24.0897 8.44523 24.1092 8.44741 24.1296 8.46285ZM20.5961 12.0784C20.6152 12.0784 20.6343 12.0791 20.6534 12.0782C20.8147 12.07 20.9068 12.0205 20.944 11.9222C20.9738 11.8435 20.9192 11.7315 20.8274 11.6845C20.7481 11.6437 20.648 11.6714 20.6068 11.7475C20.5794 11.7979 20.5636 11.8503 20.5593 11.9051C20.5553 11.9592 20.5241 11.9758 20.4501 11.97C20.4197 11.9676 20.3915 11.9596 20.3631 11.9524C20.187 11.908 20.0464 11.8279 19.9198 11.7313C19.8498 11.678 19.7725 11.6297 19.6998 11.5783C19.6741 11.5602 19.6607 11.564 19.6443 11.585C19.6054 11.634 19.6094 11.6753 19.6627 11.7173C19.7477 11.7842 19.8388 11.8467 19.9409 11.9003C20.1364 12.0031 20.3497 12.0733 20.5961 12.0784ZM14.7589 11.867C14.7589 12.0084 14.8449 12.0794 15.0347 12.084C15.2229 12.0885 15.4013 12.0521 15.5647 11.9847C15.7442 11.9106 15.8908 11.8054 16.0448 11.7079C16.0867 11.6813 16.093 11.6449 16.0739 11.6065C16.0545 11.5674 16.0492 11.565 16.0023 11.587C15.9785 11.5983 15.9554 11.6109 15.934 11.6246C15.8018 11.7091 15.6695 11.7933 15.5389 11.8793C15.4589 11.9319 15.3682 11.9613 15.2594 11.9637C15.172 11.9657 15.1442 11.9497 15.1328 11.8882C15.1245 11.8438 15.1127 11.7999 15.1044 11.7554C15.0953 11.7062 15.0588 11.6751 14.9912 11.6659C14.9202 11.6562 14.8613 11.6731 14.8201 11.7159C14.7749 11.7624 14.7625 11.8168 14.7589 11.867ZM18.6435 11.839C18.6034 11.8387 18.5779 11.8537 18.5639 11.8798C18.5351 11.9331 18.5702 11.9939 18.6415 12.0193C18.7714 12.0656 18.8956 12.0511 19.0041 11.9905C19.1451 11.9119 19.2562 11.8139 19.3282 11.6937C19.4564 11.4798 19.588 11.2671 19.7193 11.0545C19.7544 10.9973 19.806 10.95 19.8913 10.9278C19.9198 10.9203 19.9389 10.9051 19.957 10.8891C19.9968 10.8542 19.9874 10.8126 19.9329 10.7772C19.8863 10.7467 19.8338 10.7482 19.7899 10.7825C19.746 10.8167 19.7186 10.8585 19.6958 10.9015C19.5984 11.0859 19.5016 11.2703 19.4062 11.4554C19.3329 11.5978 19.2311 11.7277 19.0908 11.8416C19.0336 11.8882 18.9629 11.9046 18.8799 11.8906C18.8444 11.8846 18.8109 11.873 18.7765 11.8643C18.7336 11.8534 18.6907 11.8399 18.6435 11.839ZM16.9197 12.0395C16.9592 12.0407 17.0412 12.02 17.0703 12.0014C17.1179 11.9715 17.1366 11.9046 17.1081 11.8684C17.084 11.838 17.0449 11.8341 16.9625 11.8534C16.9096 11.8658 16.8567 11.8785 16.8028 11.8884C16.7201 11.9034 16.6485 11.888 16.5902 11.8426C16.5457 11.8078 16.5065 11.7702 16.4797 11.7267C16.3321 11.4902 16.1818 11.2548 16.0559 11.0118C16.015 10.9331 15.9678 10.8568 15.8972 10.789C15.8731 10.7658 15.8429 10.753 15.8028 10.7593C15.7589 10.7663 15.7294 10.7854 15.7197 10.8184C15.7057 10.8665 15.7298 10.9044 15.7954 10.9246C15.8952 10.9553 15.9618 11.0077 16.0026 11.0784C16.1027 11.251 16.2042 11.4231 16.3003 11.5969C16.3763 11.7342 16.472 11.8602 16.6334 11.9563C16.7164 12.0057 16.8105 12.0354 16.9197 12.0395ZM19.2934 11.3183C19.2931 11.292 19.2723 11.2671 19.2428 11.2449C19.0838 11.1245 18.9258 11.0033 18.7661 10.8834C18.7068 10.8387 18.6516 10.7907 18.5813 10.7542C18.5655 10.746 18.5465 10.7409 18.5331 10.7494C18.5197 10.7578 18.5394 10.7668 18.5444 10.7755C18.5488 10.7827 18.5552 10.7895 18.5619 10.796C18.753 10.9908 18.9445 11.1853 19.136 11.3801C19.1528 11.3972 19.1725 11.4117 19.1993 11.4209C19.213 11.4255 19.2281 11.4296 19.2371 11.4178C19.2606 11.3878 19.2907 11.3601 19.2934 11.3183ZM17.1219 10.7523C17.1125 10.7472 17.1078 10.7511 17.1021 10.7528C17.0402 10.7706 17.0017 10.8078 16.9588 10.8416C16.7857 10.9777 16.613 11.1139 16.4399 11.25C16.4178 11.2674 16.4017 11.2869 16.3947 11.3099C16.383 11.3478 16.4178 11.3943 16.474 11.4096C16.5176 11.4214 16.5222 11.3847 16.5477 11.3731C16.549 11.3726 16.5497 11.3714 16.5507 11.3705C16.7352 11.2032 16.9012 11.027 17.0556 10.8447C17.081 10.815 17.1075 10.7854 17.1219 10.7523Z" fill="#A67C1D"/>
<path d="M36.7839 3.67728C36.7825 3.68008 36.781 3.68267 36.7801 3.68547C36.7792 3.68777 36.7776 3.68946 36.774 3.68876C36.7598 3.68597 36.7614 3.69216 36.7628 3.69765C36.7665 3.71312 36.7622 3.7281 36.7568 3.74307C36.7556 3.74637 36.7539 3.74866 36.7484 3.74816C36.7394 3.74737 36.7397 3.75046 36.7413 3.75475C36.7437 3.76094 36.746 3.76713 36.7475 3.77332C36.7487 3.77831 36.7481 3.7831 36.7409 3.7865C36.7366 3.7885 36.7361 3.79169 36.7358 3.79499C36.7352 3.80028 36.7382 3.80517 36.7389 3.81156C36.728 3.80776 36.7246 3.80117 36.7193 3.79558C36.7171 3.79329 36.7157 3.78899 36.7111 3.79019C36.7065 3.79139 36.7091 3.79518 36.7103 3.79788C36.7166 3.81236 36.7228 3.82673 36.7294 3.84111C36.7322 3.8475 36.7322 3.85319 36.7226 3.85708C36.716 3.85968 36.7186 3.86347 36.7193 3.86716C36.7271 3.90061 36.7349 3.93405 36.7333 3.96809C36.7331 3.97229 36.7361 3.97857 36.7304 3.98017C36.7226 3.98237 36.7162 3.97718 36.7111 3.97328C36.6814 3.95032 36.6582 3.92457 36.6407 3.89671C36.6006 3.83252 36.5874 3.76553 36.5931 3.69635C36.5958 3.66361 36.6069 3.63166 36.6105 3.59902C36.6114 3.59093 36.6127 3.58284 36.6117 3.57476C36.6112 3.57196 36.6112 3.56837 36.606 3.56787C36.6016 3.56737 36.5977 3.56937 36.5949 3.57176C36.5899 3.57586 36.5902 3.58095 36.5888 3.58574C36.5873 3.59053 36.5871 3.59712 36.576 3.59053C36.5733 3.58893 36.5703 3.58873 36.5679 3.59043C36.561 3.59542 36.5534 3.59442 36.5437 3.59063C36.5437 3.60261 36.5437 3.61309 36.5437 3.62367C36.5437 3.62557 36.5452 3.62837 36.5414 3.62897C36.5366 3.62976 36.5366 3.62647 36.5354 3.62447C36.5345 3.62318 36.5344 3.62168 36.5336 3.62028C36.5321 3.61778 36.533 3.61309 36.5283 3.61329C36.5221 3.61359 36.522 3.61838 36.522 3.62168C36.5217 3.63066 36.5236 3.63955 36.5263 3.64833C36.5275 3.65223 36.5278 3.65622 36.5287 3.66071C36.5172 3.65971 36.5139 3.65452 36.5106 3.64903C36.5077 3.64414 36.5073 3.63815 36.4979 3.63535C36.4919 3.64644 36.4959 3.65742 36.4944 3.6682C36.494 3.67169 36.497 3.67748 36.491 3.67818C36.4839 3.67898 36.4833 3.67309 36.4811 3.6694C36.4787 3.6656 36.4785 3.65882 36.4712 3.65961C36.4652 3.66021 36.4666 3.6668 36.4664 3.67089C36.466 3.68038 36.4713 3.68906 36.4746 3.69795C36.4763 3.70234 36.4778 3.70683 36.4797 3.71272C36.4746 3.71143 36.4713 3.71073 36.4681 3.70983C36.4568 3.70653 36.4534 3.70763 36.4558 3.71562C36.4589 3.7269 36.464 3.73808 36.4688 3.74916C36.4708 3.75355 36.4718 3.75645 36.4627 3.75645C36.4538 3.75645 36.4537 3.76084 36.454 3.76504C36.4547 3.77212 36.46 3.77831 36.463 3.7849C36.4678 3.79578 36.4699 3.80637 36.4609 3.81675C36.4583 3.81984 36.4579 3.82344 36.4583 3.82693C36.4589 3.83102 36.457 3.83372 36.4505 3.83442C36.4427 3.83532 36.4439 3.83881 36.445 3.84231C36.4466 3.8482 36.4496 3.85389 36.449 3.85998C36.4433 3.86037 36.4417 3.85768 36.4399 3.85548C36.4147 3.82224 36.3861 3.79009 36.3643 3.75565C36.3252 3.69416 36.3363 3.63535 36.3866 3.57885C36.4017 3.56188 36.4191 3.54601 36.4363 3.53013C36.4489 3.51855 36.4604 3.50677 36.463 3.4921C36.464 3.48611 36.4645 3.48022 36.46 3.47473C36.4549 3.47572 36.4538 3.47852 36.4519 3.48062C36.4472 3.48581 36.4424 3.4885 36.4339 3.48361C36.4276 3.47992 36.4251 3.48251 36.4239 3.48671C36.423 3.4898 36.421 3.4929 36.4207 3.49599C36.4201 3.50208 36.4156 3.50498 36.4067 3.50428C36.4001 3.50378 36.3975 3.50617 36.3956 3.50987C36.3902 3.51955 36.3843 3.52923 36.3779 3.54032C36.3734 3.53413 36.3698 3.52903 36.3656 3.52334C36.3519 3.53433 36.3527 3.5488 36.3411 3.56038C36.3366 3.55669 36.3327 3.55339 36.3279 3.5494C36.3234 3.55729 36.3186 3.56437 36.3155 3.57176C36.3131 3.57735 36.3089 3.57875 36.3014 3.57655C36.2945 3.57446 36.2923 3.57645 36.2911 3.58085C36.2873 3.59402 36.2831 3.6072 36.2791 3.62098C36.2713 3.61768 36.2704 3.61169 36.2634 3.6084C36.2562 3.61449 36.2562 3.62158 36.2566 3.62827C36.2578 3.64414 36.2469 3.65732 36.2377 3.67099C36.237 3.67219 36.2349 3.67419 36.2339 3.67409C36.2187 3.67219 36.2219 3.68018 36.2211 3.68497C36.2183 3.70534 36.2132 3.7257 36.2178 3.74637C36.2192 3.75246 36.2172 3.75835 36.2121 3.76384C36.2073 3.76903 36.2036 3.76803 36.2012 3.76314C36.1969 3.75405 36.1928 3.74487 36.1891 3.73569C36.1747 3.69985 36.165 3.66331 36.1647 3.62617C36.1644 3.56747 36.1957 3.51755 36.2604 3.47682C36.3237 3.43699 36.3938 3.40504 36.4773 3.38727C36.4988 3.38268 36.5209 3.37979 36.5417 3.3736C36.5449 3.3727 36.5498 3.3721 36.5494 3.3697C36.5489 3.36721 36.5444 3.36521 36.5405 3.36531C36.5151 3.36621 36.4886 3.36102 36.4648 3.3719C36.4531 3.37719 36.4405 3.37909 36.4275 3.3722C36.4213 3.3689 36.3887 3.3736 36.3827 3.37789C36.3787 3.38078 36.3748 3.38388 36.3712 3.38667C36.3661 3.38578 36.3676 3.38318 36.3664 3.38158C36.3646 3.37909 36.3664 3.37499 36.3617 3.3741C36.3562 3.3729 36.3519 3.37599 36.3483 3.37839C36.3441 3.38118 36.3408 3.38468 36.3373 3.38807C36.3324 3.39276 36.3271 3.39576 36.318 3.39207C36.3101 3.38877 36.3062 3.39326 36.3023 3.39666C36.2979 3.40055 36.2937 3.40225 36.2881 3.39776C36.2837 3.39436 36.2807 3.39506 36.2782 3.39925C36.2743 3.40564 36.2693 3.41183 36.2654 3.41822C36.2629 3.42251 36.2598 3.42371 36.2541 3.42082C36.2476 3.41762 36.2431 3.41892 36.2394 3.42321C36.2359 3.42721 36.2312 3.4306 36.2288 3.43509C36.2247 3.44258 36.2175 3.44857 36.2081 3.45366C36.1997 3.45815 36.1915 3.46295 36.1855 3.46914C36.1841 3.47053 36.1817 3.47243 36.1799 3.47243C36.1644 3.47173 36.165 3.47982 36.1627 3.48621C36.1605 3.4927 36.1581 3.49908 36.156 3.50567C36.154 3.51206 36.1519 3.51785 36.1409 3.52045C36.1341 3.52195 36.1344 3.52694 36.1344 3.53103C36.1347 3.53762 36.1323 3.54531 36.1223 3.54531C36.1112 3.54531 36.1109 3.53642 36.1115 3.53083C36.1185 3.44777 36.1695 3.38058 36.2747 3.33376C36.3472 3.30152 36.4284 3.28634 36.5142 3.28075C36.5449 3.27876 36.5754 3.27626 36.6054 3.27117C36.6157 3.26947 36.625 3.26678 36.6313 3.25899C36.5902 3.25719 36.5512 3.24751 36.5107 3.25609C36.5058 3.25719 36.5003 3.25889 36.4956 3.25689C36.4811 3.2507 36.4696 3.2552 36.4577 3.26059C36.4543 3.26218 36.4495 3.26558 36.4457 3.26109C36.441 3.255 36.4347 3.2558 36.4276 3.25849C36.4025 3.26808 36.3736 3.27197 36.3463 3.27586C36.3086 3.28125 36.284 3.29952 36.2518 3.30941C36.2478 3.3106 36.2436 3.3151 36.2395 3.3125C36.2347 3.30941 36.2415 3.30631 36.2439 3.30381C36.2839 3.26388 36.3352 3.23154 36.3939 3.20388C36.4601 3.17274 36.5335 3.16155 36.6133 3.16655C36.6522 3.16894 36.691 3.17164 36.73 3.17383C36.7372 3.17423 36.7484 3.17643 36.7506 3.17124C36.7523 3.16744 36.7412 3.16465 36.7343 3.16315C36.7156 3.15906 36.7009 3.14957 36.6822 3.14568C36.6636 3.14179 36.6454 3.1375 36.6281 3.13121C36.6154 3.12651 36.5982 3.12981 36.5877 3.12092C36.5871 3.12042 36.5844 3.12082 36.5829 3.12122C36.5534 3.12931 36.5218 3.13141 36.491 3.1359C36.4824 3.1371 36.4751 3.14029 36.4655 3.14309C36.4669 3.1337 36.4746 3.12801 36.4833 3.12322C36.5131 3.10665 36.5491 3.09906 36.5861 3.09347C36.6581 3.08249 36.7246 3.09217 36.7861 3.11863C36.8084 3.12821 36.831 3.1372 36.8565 3.14279C36.8643 3.14448 36.8662 3.14398 36.8664 3.13849C36.867 3.11623 36.8703 3.09407 36.8748 3.07201C36.876 3.06622 36.879 3.06362 36.8875 3.06412C36.8974 3.06472 36.9004 3.06212 36.9011 3.05533C36.9029 3.03896 36.8993 3.02229 36.9076 3.00632C36.9088 3.00392 36.908 3.00043 36.9128 3.00003C36.9185 2.99963 36.9186 3.00362 36.9204 3.00602C36.9278 3.0163 36.9248 3.02768 36.9275 3.03846C36.9287 3.04355 36.9284 3.04885 36.9291 3.05404C36.9299 3.05893 36.9309 3.06362 36.939 3.06622C36.945 3.06811 36.9457 3.07261 36.9459 3.0768C36.946 3.08199 36.946 3.08718 36.9463 3.09247C36.9466 3.09976 36.9484 3.10655 36.9559 3.11264C36.964 3.11913 36.9646 3.12751 36.9642 3.1358C36.9634 3.14987 36.9648 3.15097 36.9841 3.14538C37.0107 3.1377 37.036 3.12811 37.0608 3.11793C37.1114 3.09686 37.1656 3.08818 37.2249 3.09517C37.2629 3.09966 37.2975 3.11034 37.3307 3.12302C37.3406 3.12681 37.3481 3.1326 37.3528 3.13969C37.3567 3.14558 37.3538 3.14848 37.3442 3.14778C37.34 3.14748 37.336 3.14618 37.3318 3.14528C37.303 3.13909 37.2729 3.1323 37.2439 3.13859C37.2216 3.14339 37.2003 3.14618 37.177 3.14658C37.1581 3.14688 37.1437 3.15666 37.1257 3.16255C37.1463 3.17314 37.1686 3.17323 37.191 3.17254C37.2187 3.17154 37.2464 3.16944 37.2741 3.16904C37.336 3.16804 37.3914 3.18102 37.4384 3.20758C37.4754 3.22854 37.5113 3.2503 37.5452 3.27367C37.5597 3.28365 37.5709 3.29533 37.5801 3.30911C37.5708 3.30801 37.5644 3.30481 37.5578 3.30222C37.5368 3.29403 37.5149 3.28774 37.4913 3.28325C37.4699 3.27926 37.4493 3.27237 37.4299 3.26468C37.4231 3.26199 37.4161 3.25979 37.4083 3.25869C37.3975 3.25709 37.3869 3.2562 37.3809 3.26468C37.3784 3.26818 37.3749 3.26798 37.3706 3.26578C37.3658 3.26328 37.3604 3.26139 37.3555 3.25899C37.349 3.2558 37.3435 3.2535 37.3381 3.26009C37.3348 3.26428 37.3294 3.26159 37.3257 3.26009C37.3126 3.2548 37.3 3.25021 37.2851 3.25789C37.2821 3.25939 37.2758 3.25829 37.271 3.25819C37.2563 3.25769 37.2424 3.25859 37.2301 3.26458C37.2267 3.26628 37.2231 3.26678 37.2192 3.26578C37.218 3.26548 37.2166 3.26518 37.2154 3.26508C37.2083 3.26458 37.193 3.27167 37.1943 3.27566C37.1958 3.28045 37.2038 3.28015 37.2092 3.28055C37.2346 3.28245 37.2601 3.28385 37.2855 3.28545C37.3369 3.28864 37.3886 3.29124 37.4384 3.30092C37.5624 3.32498 37.6515 3.37499 37.6957 3.45726C37.7126 3.4889 37.7165 3.52185 37.7116 3.55679C37.7027 3.5513 37.6991 3.54511 37.6945 3.53962C37.6756 3.51755 37.657 3.49529 37.6385 3.47303C37.6328 3.46624 37.6268 3.45995 37.6136 3.45945C37.6087 3.45925 37.6088 3.45686 37.6081 3.45456C37.6018 3.43429 37.5802 3.42192 37.5566 3.41063C37.5555 3.41014 37.5543 3.40974 37.5531 3.40944C37.545 3.40704 37.5347 3.40894 37.528 3.40355C37.5226 3.39905 37.5167 3.39486 37.511 3.39047C37.5016 3.39955 37.5016 3.39955 37.491 3.39107C37.4893 3.38977 37.4877 3.38837 37.486 3.38707C37.4747 3.37789 37.4745 3.37779 37.4636 3.38767C37.4604 3.39057 37.4583 3.39117 37.4549 3.38827C37.4522 3.38598 37.4492 3.38388 37.4467 3.38158C37.4414 3.37679 37.4378 3.3729 37.4266 3.37759C37.4182 3.38108 37.4058 3.37709 37.3956 3.38168C37.392 3.38328 37.3862 3.37749 37.3809 3.37559C37.3788 3.37479 37.377 3.3727 37.3742 3.3738C37.3718 3.3747 37.3721 3.37679 37.3722 3.37849C37.3727 3.38677 37.3797 3.39256 37.3894 3.39686C37.4258 3.41313 37.4621 3.4294 37.4988 3.44538C37.5468 3.46624 37.5906 3.4899 37.6195 3.52394C37.652 3.56228 37.6608 3.60391 37.6594 3.64703C37.6579 3.69086 37.6424 3.73279 37.6222 3.77422C37.6192 3.78031 37.6165 3.77921 37.6114 3.77562C37.6009 3.76843 37.6013 3.76004 37.6045 3.75136C37.6058 3.74776 37.6079 3.74417 37.6103 3.74078C37.6138 3.73589 37.6121 3.73229 37.6046 3.73029C37.5965 3.7282 37.5955 3.72411 37.5962 3.71901C37.597 3.71322 37.597 3.70743 37.5976 3.70164C37.5982 3.69615 37.5991 3.69116 37.5867 3.69256C37.5819 3.69306 37.5816 3.69026 37.5816 3.68777C37.5816 3.67918 37.5778 3.67139 37.573 3.66351C37.5678 3.65472 37.5729 3.64514 37.57 3.63605C37.5684 3.63076 37.5679 3.62527 37.567 3.61988C37.5653 3.61988 37.5644 3.61968 37.5636 3.61988C37.5458 3.62567 37.5458 3.62567 37.5441 3.61229C37.5437 3.6083 37.5425 3.60421 37.5425 3.60021C37.5425 3.59193 37.5402 3.58604 37.5245 3.58933C37.5184 3.59063 37.5179 3.58714 37.5169 3.58424C37.5131 3.57346 37.5092 3.56258 37.5049 3.5502C37.4986 3.55639 37.4937 3.56118 37.4874 3.56737C37.4806 3.55359 37.4745 3.54121 37.4679 3.52804C37.4648 3.52983 37.4628 3.53083 37.461 3.53203C37.4468 3.54131 37.4468 3.54131 37.4389 3.52864C37.4362 3.52434 37.4333 3.52015 37.4312 3.51576C37.4285 3.50987 37.4251 3.50587 37.4142 3.50517C37.4041 3.50458 37.4005 3.49759 37.3969 3.4921C37.3939 3.4876 37.3911 3.48521 37.3827 3.48601C37.3703 3.4873 37.3614 3.48271 37.3546 3.47592C37.3507 3.47213 37.3463 3.46514 37.339 3.46774C37.3312 3.47053 37.3346 3.47732 37.3375 3.48281C37.3444 3.49629 37.3592 3.50637 37.3715 3.51755C37.3963 3.54012 37.4245 3.56118 37.4456 3.58554C37.4893 3.63595 37.4955 3.68936 37.4723 3.74477C37.4555 3.7848 37.4264 3.82074 37.3893 3.85399C37.3841 3.85868 37.3788 3.86377 37.3683 3.86666C37.3691 3.86177 37.3691 3.85778 37.3703 3.85399C37.3721 3.8478 37.3754 3.84161 37.3599 3.84191C37.3555 3.84201 37.3562 3.83961 37.3571 3.83741C37.3592 3.83302 37.3611 3.82853 37.3629 3.82414C37.3644 3.82044 37.3665 3.81585 37.3631 3.81315C37.352 3.80417 37.3585 3.79588 37.3634 3.7873C37.3671 3.78081 37.3703 3.77422 37.3742 3.76773C37.3773 3.76244 37.3749 3.76064 37.3668 3.76194C37.3574 3.76344 37.3558 3.76144 37.358 3.75535C37.3631 3.74118 37.367 3.7267 37.3715 3.71252C37.3632 3.71053 37.3567 3.71921 37.3516 3.71432C37.3483 3.71113 37.3516 3.70484 37.352 3.69995C37.3525 3.69445 37.3531 3.68906 37.3538 3.68297C37.3451 3.68437 37.3427 3.69026 37.3337 3.69336C37.3337 3.67589 37.3337 3.65971 37.3337 3.64274C37.3221 3.64454 37.3219 3.65063 37.318 3.65482C37.3167 3.65622 37.3164 3.65852 37.3134 3.65862C37.3095 3.65871 37.3087 3.65622 37.308 3.65442C37.3051 3.64823 37.3059 3.64184 37.3051 3.63545C37.3041 3.62647 37.3027 3.62567 37.2918 3.63006C37.2851 3.63276 37.2846 3.63046 37.284 3.62717C37.2828 3.62118 37.2816 3.61509 37.2806 3.6091C37.2798 3.60501 37.2783 3.60191 37.271 3.60511C37.2632 3.6085 37.2605 3.60541 37.258 3.60111C37.2523 3.59123 37.2424 3.58384 37.227 3.58025C37.219 3.57845 37.215 3.57865 37.2165 3.58574C37.2217 3.6107 37.2271 3.63555 37.2307 3.66061C37.2407 3.73059 37.2367 3.79988 37.2035 3.86736C37.1873 3.90021 37.1645 3.93096 37.1359 3.95991C37.1259 3.97009 37.1133 3.97877 37.0994 3.98666C37.0952 3.98466 37.0973 3.98217 37.0971 3.98007C37.0953 3.94653 37.1027 3.91279 37.0982 3.87954C37.0949 3.85488 37.1004 3.83252 37.115 3.81046C37.1156 3.80946 37.1157 3.80836 37.1165 3.80637C37.1012 3.80766 37.0976 3.81755 37.0852 3.82284C37.0841 3.81036 37.0831 3.79908 37.0823 3.7877C37.0819 3.78051 37.0817 3.77322 37.0813 3.76603C37.0805 3.75385 37.078 3.74237 37.0663 3.73189C37.0509 3.71802 37.0537 3.70044 37.0492 3.68427C37.0486 3.68208 37.0506 3.67898 37.047 3.67798C37.0426 3.67678 37.0402 3.67988 37.0374 3.68148C37.0211 3.69066 37.0203 3.70444 37.0142 3.71662C36.9985 3.74836 37.0012 3.78111 37.0028 3.81375C37.0052 3.85878 37.0071 3.9039 37.0097 3.94892C37.016 4.05934 37.0199 4.16975 37.0209 4.28027C37.0212 4.3179 37.022 4.35544 37.0241 4.39307C37.0256 4.41983 37.0348 4.44569 37.0525 4.46995C37.0693 4.49311 37.0705 4.51647 37.0552 4.54043C37.0363 4.57018 37.0419 4.59883 37.0667 4.62578C37.0849 4.64545 37.1051 4.66432 37.1244 4.68348C37.1307 4.68977 37.1368 4.69616 37.1404 4.70325C37.1488 4.71942 37.1395 4.7314 37.1147 4.7359C37.0874 4.74079 37.0594 4.74358 37.0311 4.74388C36.9513 4.74468 36.8713 4.74568 36.7915 4.74428C36.7641 4.74378 36.7372 4.74089 36.7109 4.7355C36.6852 4.73021 36.6768 4.71833 36.6873 4.70175C36.6978 4.68508 36.7141 4.67071 36.7295 4.65613C36.7572 4.62997 36.7776 4.60202 36.7786 4.56908C36.7791 4.5541 36.7752 4.53973 36.7653 4.52625C36.7527 4.50908 36.7533 4.49211 36.7675 4.47564C36.7924 4.44708 36.7965 4.41544 36.7982 4.38349C36.8035 4.29105 36.8062 4.1985 36.8089 4.10596C36.8111 4.02739 36.8179 3.94883 36.8221 3.87026C36.8246 3.82134 36.8213 3.77252 36.8191 3.72361C36.8191 3.70584 36.803 3.68667 36.7839 3.67728Z" fill="black"/>
<path d="M38.625 4.57472C38.6052 4.57812 38.5865 4.57822 38.5681 4.57942C38.4817 4.58471 38.3951 4.5885 38.309 4.59649C38.1973 4.60687 38.0862 4.61965 37.9769 4.63812C37.8793 4.65469 37.7849 4.67765 37.6925 4.7046C37.578 4.73805 37.4664 4.77518 37.3637 4.8231C37.2734 4.86523 37.1937 4.91555 37.1161 4.96736C37.098 4.97944 37.0804 4.99172 37.063 5.0043C37.0501 5.01358 37.0498 5.01598 37.0613 5.02596C37.0953 5.05521 37.1295 5.08436 37.1639 5.11341C37.2132 5.15494 37.2678 5.19328 37.3219 5.23201C37.3289 5.2371 37.337 5.2415 37.3444 5.24639C37.3508 5.25068 37.3541 5.24928 37.3568 5.24409C37.3701 5.21933 37.3836 5.19468 37.3969 5.16992C37.4025 5.15954 37.4088 5.14945 37.4177 5.14017C37.4389 5.11821 37.4706 5.11252 37.504 5.12599C37.5375 5.13947 37.5531 5.15964 37.5503 5.18569C37.5491 5.19737 37.5381 5.20556 37.5178 5.20845C37.4699 5.21534 37.4481 5.2377 37.4386 5.26695C37.4299 5.29351 37.4386 5.31697 37.4678 5.33724C37.4953 5.3563 37.5236 5.37447 37.5573 5.38845C37.5867 5.40063 37.5937 5.39943 37.609 5.37897C37.618 5.36699 37.6271 5.35521 37.6427 5.34632C37.6817 5.32396 37.7419 5.31917 37.7887 5.3561C37.8242 5.38416 37.8333 5.4174 37.8279 5.45294C37.8245 5.4757 37.8116 5.49627 37.7894 5.51354C37.7532 5.54169 37.7053 5.54778 37.6525 5.54419C37.5971 5.54039 37.551 5.52262 37.5061 5.50236C37.455 5.4794 37.4032 5.45713 37.3517 5.43467C37.3361 5.42788 37.3357 5.42818 37.3222 5.43707C37.2908 5.45783 37.2626 5.48079 37.2279 5.49926C37.1817 5.52372 37.1112 5.52152 37.0735 5.49407C37.0342 5.46552 37.0321 5.42219 37.0883 5.39184C37.0977 5.38675 37.1085 5.38665 37.1188 5.39045C37.1371 5.39703 37.1546 5.40452 37.1732 5.41071C37.1976 5.4189 37.2222 5.4148 37.2398 5.40093C37.2508 5.39224 37.2524 5.38286 37.2457 5.37268C37.2337 5.35461 37.2132 5.34073 37.1937 5.32635C37.1091 5.26436 37.0244 5.20236 36.9396 5.14047C36.9315 5.13448 36.9237 5.12549 36.9129 5.12489C36.9025 5.12439 36.8954 5.13398 36.887 5.13937C36.8131 5.18669 36.7454 5.2378 36.6784 5.28952C36.653 5.30918 36.6277 5.32915 36.6022 5.34882C36.5937 5.35541 36.5865 5.36259 36.5814 5.37068C36.5741 5.38246 36.5757 5.39344 36.5887 5.40292C36.6024 5.41291 36.6191 5.4171 36.6392 5.41281C36.6567 5.40911 36.6718 5.40213 36.688 5.39674C36.6949 5.39444 36.7019 5.39194 36.7091 5.39005C36.7211 5.38685 36.7325 5.38795 36.7419 5.39374C36.7702 5.41131 36.7804 5.43347 36.7747 5.45833C36.7687 5.48429 36.7496 5.50495 36.7103 5.51324C36.6736 5.52093 36.6392 5.51334 36.6066 5.50196C36.5715 5.48978 36.5461 5.47041 36.5221 5.45004C36.5149 5.44386 36.5065 5.43826 36.4999 5.43198C36.4948 5.42718 36.4902 5.42778 36.4838 5.43018C36.4471 5.44346 36.4141 5.46053 36.3797 5.476C36.3458 5.49118 36.314 5.50815 36.2777 5.52103C36.2355 5.536 36.1907 5.54349 36.1426 5.54229C36.0784 5.54079 36.0302 5.51533 36.0077 5.47061C35.9847 5.42479 36.0047 5.37617 36.0598 5.34472C36.1037 5.31967 36.1602 5.32346 36.1961 5.35381C36.2088 5.36449 36.2195 5.37607 36.2304 5.38755C36.2406 5.39813 36.2436 5.39903 36.2594 5.39304C36.3077 5.37487 36.3481 5.35051 36.3821 5.32166C36.3935 5.31198 36.3957 5.3004 36.3908 5.28872C36.3839 5.27205 36.3759 5.25547 36.3686 5.2389C36.3625 5.22463 36.349 5.21544 36.3276 5.21125C36.3247 5.21065 36.3219 5.20985 36.319 5.20925C36.2825 5.20156 36.2731 5.19108 36.2798 5.16573C36.288 5.13468 36.3331 5.11491 36.3783 5.1222C36.3992 5.12559 36.4125 5.13428 36.4194 5.14746C36.4342 5.17551 36.4487 5.20366 36.4634 5.23181C36.4733 5.25078 36.4793 5.25188 36.4993 5.23691C36.5904 5.16972 36.6783 5.10073 36.7611 5.02896C36.7722 5.01937 36.7717 5.01708 36.7611 5.00669C36.738 4.98393 36.7075 4.96576 36.6783 4.9469C36.6102 4.90267 36.5383 4.86144 36.4624 4.8232C36.3948 4.78906 36.3196 4.764 36.244 4.73945C36.1582 4.71169 36.0708 4.68624 35.9808 4.66517C35.8611 4.63712 35.7397 4.61406 35.6137 4.60218C35.5395 4.59509 35.4647 4.5903 35.3902 4.58481C35.3479 4.58161 35.3057 4.57782 35.2636 4.57432C35.259 4.57392 35.254 4.57353 35.25 4.56973C35.2644 4.56564 35.2794 4.56474 35.2939 4.56424C35.4177 4.55995 35.5411 4.54977 35.6654 4.55086C35.8113 4.55216 35.9555 4.56135 36.0974 4.58471C36.1934 4.60048 36.2852 4.62354 36.3742 4.65209C36.4625 4.68044 36.5495 4.71029 36.6295 4.74863C36.6979 4.78147 36.762 4.81781 36.8229 4.85655C36.8478 4.87232 36.8727 4.88799 36.896 4.90467C36.9056 4.91145 36.9117 4.91036 36.9203 4.90507C36.949 4.8874 36.9782 4.87022 37.0065 4.85225C37.1265 4.77628 37.2598 4.71289 37.4082 4.66377C37.5004 4.63322 37.5962 4.60897 37.6952 4.5901C37.7999 4.57013 37.9068 4.55905 38.0154 4.55436C38.119 4.54977 38.2226 4.55196 38.3263 4.55546C38.3812 4.55735 38.4363 4.55875 38.4913 4.56145C38.5307 4.56334 38.5697 4.56704 38.609 4.57003C38.6141 4.57033 38.6195 4.57083 38.625 4.57472ZM37.6626 5.48519C37.6678 5.48519 37.6731 5.48539 37.6781 5.48519C37.722 5.48319 37.7472 5.47071 37.7574 5.44595C37.7655 5.42609 37.7506 5.39793 37.7256 5.38605C37.7041 5.37577 37.6768 5.38276 37.6656 5.40193C37.6581 5.4146 37.6537 5.42788 37.6527 5.44156C37.6515 5.45514 37.6431 5.45933 37.6229 5.45793C37.6147 5.45733 37.6069 5.45534 37.5992 5.45354C37.5513 5.44236 37.513 5.42219 37.4785 5.39783C37.4595 5.38446 37.4384 5.37228 37.4186 5.3593C37.4116 5.35471 37.408 5.3557 37.4035 5.361C37.3929 5.37337 37.3939 5.38376 37.4085 5.39434C37.4317 5.41121 37.4565 5.42698 37.4842 5.44036C37.5375 5.46622 37.5955 5.48399 37.6626 5.48519ZM36.073 5.43198C36.073 5.46762 36.0965 5.48549 36.148 5.48658C36.1992 5.48768 36.2479 5.4786 36.2924 5.46163C36.3414 5.44296 36.3812 5.4165 36.4231 5.39194C36.4345 5.38525 36.4361 5.37607 36.4311 5.36639C36.4258 5.3565 36.4243 5.3559 36.4116 5.36149C36.4051 5.36429 36.3989 5.36748 36.393 5.37098C36.3571 5.39224 36.321 5.41351 36.2854 5.43507C36.2636 5.44835 36.2389 5.45574 36.2093 5.45633C36.1855 5.45683 36.178 5.45284 36.1748 5.43727C36.1726 5.42609 36.1693 5.415 36.1671 5.40382C36.1645 5.39144 36.1546 5.38356 36.1362 5.38126C36.1169 5.37887 36.1009 5.38306 36.0896 5.39384C36.0774 5.40562 36.0741 5.4193 36.073 5.43198ZM37.131 5.42499C37.12 5.42489 37.113 5.42868 37.1093 5.43527C37.1015 5.44875 37.1109 5.46402 37.1304 5.47041C37.1657 5.48209 37.1996 5.4784 37.2291 5.46312C37.2674 5.44326 37.2976 5.4187 37.3173 5.38835C37.3521 5.33454 37.3881 5.28093 37.4237 5.22742C37.4333 5.21305 37.4474 5.20117 37.4706 5.19547C37.4784 5.19358 37.4835 5.18968 37.4884 5.18569C37.4994 5.17691 37.4968 5.16642 37.4818 5.15754C37.4691 5.14995 37.4549 5.15025 37.4429 5.15894C37.4309 5.16752 37.4234 5.1781 37.4173 5.18889C37.3908 5.23531 37.3644 5.28183 37.3384 5.32835C37.3183 5.36419 37.2908 5.39694 37.2526 5.42559C37.237 5.43727 37.2177 5.44146 37.1952 5.43787C37.1856 5.43637 37.1765 5.43337 37.1671 5.43128C37.1554 5.42858 37.1439 5.42519 37.131 5.42499ZM36.6615 5.4754C36.6723 5.4757 36.6946 5.47051 36.7025 5.46582C36.7154 5.45823 36.7207 5.44146 36.7129 5.43228C36.7063 5.42459 36.6957 5.42369 36.6732 5.42848C36.6588 5.43158 36.6443 5.43487 36.6296 5.43727C36.6072 5.44106 36.5875 5.43717 36.5717 5.42569C36.5595 5.4169 36.5489 5.40742 36.5416 5.39654C36.5014 5.33704 36.4604 5.27774 36.4261 5.21644C36.415 5.19657 36.4022 5.17741 36.3828 5.16033C36.3762 5.15454 36.368 5.15125 36.3571 5.15285C36.3451 5.15454 36.337 5.15944 36.3345 5.16772C36.3306 5.1798 36.3373 5.18939 36.3551 5.19448C36.3822 5.20216 36.4005 5.21534 36.4116 5.23321C36.4388 5.27664 36.4664 5.32006 36.4926 5.36379C36.5133 5.39833 36.5393 5.43018 36.5833 5.45424C36.6061 5.46692 36.6317 5.4744 36.6615 5.4754ZM37.3078 5.29381C37.3078 5.28712 37.3021 5.28093 37.294 5.27534C37.2508 5.24499 37.2078 5.21444 37.1642 5.18429C37.148 5.17311 37.1331 5.16093 37.1139 5.15175C37.1097 5.14965 37.1045 5.14845 37.1007 5.15055C37.097 5.15265 37.1024 5.15494 37.1039 5.15714C37.1051 5.15894 37.1069 5.16063 37.1085 5.16233C37.1606 5.21135 37.2127 5.26037 37.2648 5.30948C37.2695 5.31378 37.2749 5.31747 37.2821 5.31977C37.2858 5.32096 37.2899 5.32196 37.2924 5.31897C37.299 5.31128 37.3072 5.30429 37.3078 5.29381ZM36.7166 5.15125C36.7141 5.14995 36.7127 5.15095 36.7112 5.15135C36.6943 5.15584 36.6838 5.16523 36.6721 5.17371C36.625 5.20795 36.578 5.2423 36.5308 5.27654C36.5248 5.28093 36.5205 5.28582 36.5185 5.29161C36.5154 5.3011 36.5248 5.31288 36.5401 5.31667C36.5519 5.31967 36.5532 5.31038 36.5601 5.30749C36.5604 5.30739 36.5607 5.30699 36.5609 5.30679C36.6111 5.26466 36.6564 5.22023 36.6984 5.17441C36.7054 5.16702 36.7126 5.15964 36.7166 5.15125Z" fill="black"/>
<path d="M36.2556 9.99609V8.54155H36.6072V9.15661H36.6263L37.1072 8.54155H37.5212L37.0056 9.1907L37.5305 9.99609H37.11L36.7478 9.42436L36.6072 9.60192V9.99609H36.2556ZM37.0838 10.9776C37.0791 10.9255 37.058 10.8851 37.0206 10.8562C36.9837 10.8268 36.9309 10.8121 36.8622 10.8121C36.8168 10.8121 36.7789 10.8181 36.7486 10.8299C36.7183 10.8417 36.6955 10.8581 36.6804 10.8789C36.6652 10.8993 36.6574 10.9227 36.657 10.9492C36.656 10.971 36.6603 10.9902 36.6697 11.0067C36.6797 11.0233 36.6939 11.038 36.7124 11.0508C36.7313 11.0631 36.754 11.074 36.7805 11.0835C36.8071 11.0929 36.8369 11.1012 36.87 11.1083L36.995 11.1367C37.067 11.1523 37.1304 11.1732 37.1854 11.1992C37.2408 11.2253 37.2872 11.2563 37.3246 11.2923C37.3625 11.3282 37.3911 11.3697 37.4105 11.4165C37.4299 11.4634 37.4399 11.516 37.4403 11.5742C37.4399 11.6661 37.4167 11.7449 37.3707 11.8107C37.3248 11.8765 37.2588 11.927 37.1726 11.962C37.0869 11.997 36.9834 12.0146 36.8622 12.0146C36.7405 12.0146 36.6345 11.9963 36.544 11.9599C36.4536 11.9234 36.3833 11.868 36.3331 11.7937C36.2829 11.7193 36.2571 11.6254 36.2557 11.5117H36.5923C36.5952 11.5586 36.6077 11.5977 36.63 11.6289C36.6522 11.6602 36.6828 11.6838 36.7216 11.6999C36.7609 11.716 36.8063 11.7241 36.858 11.7241C36.9053 11.7241 36.9455 11.7177 36.9787 11.7049C37.0123 11.6921 37.0381 11.6744 37.0561 11.6516C37.0741 11.6289 37.0833 11.6029 37.0838 11.5735C37.0833 11.546 37.0748 11.5226 37.0582 11.5032C37.0417 11.4833 37.0161 11.4663 36.9815 11.4521C36.9474 11.4374 36.9039 11.4239 36.8509 11.4116L36.6989 11.3761C36.5729 11.3472 36.4737 11.3005 36.4013 11.2362C36.3288 11.1713 36.2929 11.0837 36.2933 10.9734C36.2929 10.8834 36.317 10.8046 36.3658 10.7369C36.4145 10.6692 36.482 10.6164 36.5682 10.5785C36.6544 10.5406 36.7526 10.5217 36.8629 10.5217C36.9756 10.5217 37.0734 10.5408 37.1562 10.5792C37.2396 10.6171 37.3042 10.6703 37.3501 10.739C37.3961 10.8076 37.4195 10.8872 37.4205 10.9776H37.0838ZM36.5009 13.9961H36.123L36.6138 12.5415H37.0819L37.5726 13.9961H37.1948L36.8532 12.908H36.8418L36.5009 13.9961ZM36.4505 13.4237H37.2402V13.6907H36.4505V13.4237Z" fill="black"/>
<path d="M24.65 6.53871L24.6898 6.10121L24.3268 6.35476L24.128 6.00675L24.5257 5.8228L24.128 5.63885L24.3268 5.29084L24.6898 5.54439L24.65 5.10689H25.0477L25.008 5.54439L25.3709 5.29084L25.5697 5.63885L25.172 5.8228L25.5697 6.00675L25.3709 6.35476L25.008 6.10121L25.0477 6.53871H24.65ZM26.7794 6.53871L26.8192 6.10121L26.4562 6.35476L26.2574 6.00675L26.6551 5.8228L26.2574 5.63885L26.4562 5.29084L26.8192 5.54439L26.7794 5.10689H27.1771L27.1374 5.54439L27.5003 5.29084L27.6991 5.63885L27.3014 5.8228L27.6991 6.00675L27.5003 6.35476L27.1374 6.10121L27.1771 6.53871H26.7794ZM28.9088 6.53871L28.9486 6.10121L28.5856 6.35476L28.3868 6.00675L28.7845 5.8228L28.3868 5.63885L28.5856 5.29084L28.9486 5.54439L28.9088 5.10689H29.3065L29.2667 5.54439L29.6297 5.29084L29.8285 5.63885L29.4308 5.8228L29.8285 6.00675L29.6297 6.35476L29.2667 6.10121L29.3065 6.53871H28.9088ZM31.0382 6.53871L31.078 6.10121L30.715 6.35476L30.5162 6.00675L30.9139 5.8228L30.5162 5.63885L30.715 5.29084L31.078 5.54439L31.0382 5.10689H31.4359L31.3961 5.54439L31.7591 5.29084L31.9579 5.63885L31.5602 5.8228L31.9579 6.00675L31.7591 6.35476L31.3961 6.10121L31.4359 6.53871H31.0382ZM24.65 10.5387L24.6898 10.1012L24.3268 10.3548L24.128 10.0067L24.5257 9.8228L24.128 9.63885L24.3268 9.29084L24.6898 9.54439L24.65 9.10689H25.0477L25.008 9.54439L25.3709 9.29084L25.5697 9.63885L25.172 9.8228L25.5697 10.0067L25.3709 10.3548L25.008 10.1012L25.0477 10.5387H24.65ZM26.7794 10.5387L26.8192 10.1012L26.4562 10.3548L26.2574 10.0067L26.6551 9.8228L26.2574 9.63885L26.4562 9.29084L26.8192 9.54439L26.7794 9.10689H27.1771L27.1374 9.54439L27.5003 9.29084L27.6991 9.63885L27.3014 9.8228L27.6991 10.0067L27.5003 10.3548L27.1374 10.1012L27.1771 10.5387H26.7794ZM28.9088 10.5387L28.9486 10.1012L28.5856 10.3548L28.3868 10.0067L28.7845 9.8228L28.3868 9.63885L28.5856 9.29084L28.9486 9.54439L28.9088 9.10689H29.3065L29.2667 9.54439L29.6297 9.29084L29.8285 9.63885L29.4308 9.8228L29.8285 10.0067L29.6297 10.3548L29.2667 10.1012L29.3065 10.5387H28.9088ZM31.0382 10.5387L31.078 10.1012L30.715 10.3548L30.5162 10.0067L30.9139 9.8228L30.5162 9.63885L30.715 9.29084L31.078 9.54439L31.0382 9.10689H31.4359L31.3961 9.54439L31.7591 9.29084L31.9579 9.63885L31.5602 9.8228L31.9579 10.0067L31.7591 10.3548L31.3961 10.1012L31.4359 10.5387H31.0382Z" fill="black"/>
<path d="M4.17149 6.53871L4.21126 6.10121L3.84833 6.35476L3.64947 6.00675L4.0472 5.8228L3.64947 5.63885L3.84833 5.29084L4.21126 5.54439L4.17149 5.10689H4.56921L4.52944 5.54439L4.89237 5.29084L5.09123 5.63885L4.6935 5.8228L5.09123 6.00675L4.89237 6.35476L4.52944 6.10121L4.56921 6.53871H4.17149ZM6.30088 6.53871L6.34065 6.10121L5.97773 6.35476L5.77886 6.00675L6.17659 5.8228L5.77886 5.63885L5.97773 5.29084L6.34065 5.54439L6.30088 5.10689H6.69861L6.65883 5.54439L7.02176 5.29084L7.22062 5.63885L6.8229 5.8228L7.22062 6.00675L7.02176 6.35476L6.65883 6.10121L6.69861 6.53871H6.30088ZM8.43027 6.53871L8.47005 6.10121L8.10712 6.35476L7.90826 6.00675L8.30598 5.8228L7.90826 5.63885L8.10712 5.29084L8.47005 5.54439L8.43027 5.10689H8.828L8.78823 5.54439L9.15115 5.29084L9.35002 5.63885L8.95229 5.8228L9.35002 6.00675L9.15115 6.35476L8.78823 6.10121L8.828 6.53871H8.43027ZM10.5597 6.53871L10.5994 6.10121L10.2365 6.35476L10.0377 6.00675L10.4354 5.8228L10.0377 5.63885L10.2365 5.29084L10.5994 5.54439L10.5597 5.10689H10.9574L10.9176 5.54439L11.2805 5.29084L11.4794 5.63885L11.0817 5.8228L11.4794 6.00675L11.2805 6.35476L10.9176 6.10121L10.9574 6.53871H10.5597ZM4.17149 10.5387L4.21126 10.1012L3.84833 10.3548L3.64947 10.0067L4.0472 9.8228L3.64947 9.63885L3.84833 9.29084L4.21126 9.54439L4.17149 9.10689H4.56921L4.52944 9.54439L4.89237 9.29084L5.09123 9.63885L4.6935 9.8228L5.09123 10.0067L4.89237 10.3548L4.52944 10.1012L4.56921 10.5387H4.17149ZM6.30088 10.5387L6.34065 10.1012L5.97773 10.3548L5.77886 10.0067L6.17659 9.8228L5.77886 9.63885L5.97773 9.29084L6.34065 9.54439L6.30088 9.10689H6.69861L6.65883 9.54439L7.02176 9.29084L7.22062 9.63885L6.8229 9.8228L7.22062 10.0067L7.02176 10.3548L6.65883 10.1012L6.69861 10.5387H6.30088ZM8.43027 10.5387L8.47005 10.1012L8.10712 10.3548L7.90826 10.0067L8.30598 9.8228L7.90826 9.63885L8.10712 9.29084L8.47005 9.54439L8.43027 9.10689H8.828L8.78823 9.54439L9.15115 9.29084L9.35002 9.63885L8.95229 9.8228L9.35002 10.0067L9.15115 10.3548L8.78823 10.1012L8.828 10.5387H8.43027ZM10.5597 10.5387L10.5994 10.1012L10.2365 10.3548L10.0377 10.0067L10.4354 9.8228L10.0377 9.63885L10.2365 9.29084L10.5994 9.54439L10.5597 9.10689H10.9574L10.9176 9.54439L11.2805 9.29084L11.4794 9.63885L11.0817 9.8228L11.4794 10.0067L11.2805 10.3548L10.9176 10.1012L10.9574 10.5387H10.5597Z" fill="black"/>
</g>
<rect x="1" y="1" width="40" height="15" rx="1" stroke="black" stroke-width="2"/>
<defs>
<clipPath id="clip0_29357_45260">
<rect width="42" height="17" rx="2" fill="white"/>
</clipPath>
</defs>
</svg>
