<svg width="24" height="28" viewBox="0 0 24 28" fill="none" xmlns="http://www.w3.org/2000/svg">
<path d="M24 7.78593C23.9919 7.74882 23.9919 7.71043 24 7.67332C23.9931 7.64083 23.9931 7.60727 24 7.57478V7.4481L23.9147 7.23695C23.8801 7.17934 23.837 7.12715 23.7868 7.08211L23.6589 6.9695H23.5879L17.9884 3.46447L12.7016 0.226897C12.5792 0.130797 12.4393 0.059092 12.2894 0.0157503H12.1757C12.0487 -0.0052501 11.919 -0.0052501 11.792 0.0157503H11.6499C11.4848 0.0519157 11.3265 0.113674 11.1809 0.198744L0.564616 6.74428L0.43671 6.84281L0.308803 6.95542L0.166684 7.05396L0.0956246 7.13841L0.0103531 7.34956V7.47625V7.56071C-0.00345104 7.65405 -0.00345104 7.74889 0.0103531 7.84223V20.1309C0.0098698 20.3702 0.070947 20.6056 0.187819 20.8149C0.30469 21.0243 0.4735 21.2007 0.678311 21.3274L11.3372 27.8589L11.5504 27.9434H11.6641C11.9045 28.0189 12.1627 28.0189 12.4031 27.9434H12.5168L12.73 27.8589L23.3036 21.426C23.5084 21.2992 23.6772 21.1228 23.7941 20.9134C23.911 20.7041 23.9721 20.4687 23.9716 20.2295V7.94077C23.9716 7.94077 24 7.84223 24 7.78593ZM11.9341 3.07033L14.4638 4.61874L6.51939 9.48917L3.97547 7.94077L11.9341 3.07033ZM10.5129 24.1849L2.6964 19.4553V10.4604L10.5129 15.2464V24.1849ZM11.9341 12.769L9.21965 11.1502L17.1641 6.26568L19.8928 7.94077L11.9341 12.769ZM21.1718 19.413L13.3553 24.2272V15.2464L21.1718 10.4604V19.413Z" fill="black"/>
</svg>
