<svg width="21" height="25" viewBox="0 0 21 25" fill="none" xmlns="http://www.w3.org/2000/svg">
<path d="M21 6.95172C20.9929 6.91859 20.9929 6.88431 21 6.85118C20.994 6.82217 20.994 6.79221 21 6.7632V6.65009L20.9254 6.46156C20.8951 6.41012 20.8574 6.36353 20.8135 6.32331L20.7016 6.22277H20.6394L15.7398 3.09328L11.1139 0.202586C11.0068 0.116783 10.8844 0.0527607 10.7532 0.0140628H10.6538C10.5426 -0.00468759 10.4291 -0.00468759 10.318 0.0140628H10.1936C10.0492 0.0463533 9.9107 0.101495 9.78328 0.17745L0.494039 6.02167L0.382121 6.10965L0.270202 6.2102L0.145848 6.29817L0.0836715 6.37358L0.00905897 6.56211V6.67522V6.75063C-0.00301966 6.83397 -0.00301966 6.91865 0.00905897 7.002V17.9741C0.00863607 18.1876 0.0620787 18.3978 0.164341 18.5847C0.266604 18.7717 0.414312 18.9292 0.593522 19.0424L9.92007 24.874L10.1066 24.9494H10.2061C10.4165 25.0169 10.6423 25.0169 10.8527 24.9494H10.9522L11.1387 24.874L20.3907 19.1303C20.5699 19.0171 20.7176 18.8596 20.8198 18.6727C20.9221 18.4858 20.9756 18.2756 20.9751 18.062V7.08997C20.9751 7.08997 21 7.002 21 6.95172ZM10.4424 2.74137L12.6559 4.12387L5.70447 8.47248L3.47853 7.08997L10.4424 2.74137ZM9.19881 21.5937L2.35935 17.3708V9.33969L9.19881 13.6129V21.5937ZM10.4424 11.4009L8.06719 9.95553L15.0186 5.59435L17.4062 7.08997L10.4424 11.4009ZM18.5254 17.3331L11.6859 21.6314V13.6129L18.5254 9.33969V17.3331Z" fill="#1F3B8A"/>
</svg>
