<svg width="20" height="23" viewBox="0 0 20 23" fill="none" xmlns="http://www.w3.org/2000/svg">
<path d="M20 6.39558C19.9933 6.3651 19.9933 6.33357 20 6.30308C19.9942 6.27639 19.9942 6.24883 20 6.22214V6.11808L19.9289 5.94464C19.9001 5.89731 19.8641 5.85444 19.8224 5.81745L19.7158 5.72494H19.6565L14.9903 2.84582L10.5846 0.186379C10.4827 0.10744 10.3661 0.0485398 10.2412 0.0129377H10.1464C10.0406 -0.00431258 9.93252 -0.00431258 9.82666 0.0129377H9.70823C9.57066 0.042645 9.43877 0.0933753 9.31741 0.163254L0.470514 5.53994L0.363925 5.62088L0.257335 5.71338L0.138903 5.79432L0.0796872 5.8637L0.00862759 6.03714V6.1412V6.21058C-0.00287586 6.28726 -0.00287586 6.36516 0.00862759 6.44184V16.5361C0.00822483 16.7326 0.0591225 16.926 0.156515 17.098C0.253908 17.2699 0.394583 17.4148 0.565259 17.519L9.44768 22.8841L9.62533 22.9535H9.72008C9.92044 23.0155 10.1356 23.0155 10.3359 22.9535H10.4307L10.6083 22.8841L19.4197 17.5999C19.5904 17.4958 19.731 17.3509 19.8284 17.1789C19.9258 17.0069 19.9767 16.8136 19.9763 16.6171V6.52277C19.9763 6.52277 20 6.44184 20 6.39558ZM9.9451 2.52206L12.0532 3.79396L5.43283 7.79468L3.31289 6.52277L9.9451 2.52206ZM8.76077 19.8662L2.247 15.9811V8.59251L8.76077 12.5239V19.8662ZM9.9451 10.4888L7.68304 9.15909L14.3034 5.14681L16.5773 6.52277L9.9451 10.4888ZM17.6432 15.9464L11.1294 19.9009V12.5239L17.6432 8.59251V15.9464Z" fill="black"/>
</svg>
